<svg width="46" height="50" viewBox="0 0 46 50" fill="none" xmlns="http://www.w3.org/2000/svg">
  <path d="M9.68055 23.7837C9.94685 24.3052 10.2935 25.2078 10.5649 26.0753C10.8261 26.9127 10.8312 26.988 10.6603 27.0832C10.4393 27.2036 10.4393 27.2036 10.2182 26.8225C9.9368 26.3411 9.47956 25.0273 9.30873 24.2149C9.17809 23.5881 9.17809 23.5179 9.29365 23.4026C9.41424 23.2872 9.44439 23.3173 9.68557 23.7887" fill="#474440"/>
  <path d="M24.5335 22.6955C24.9455 22.7858 25.8399 23.1769 25.9152 23.2973C25.9404 23.3374 25.9052 23.3925 25.8349 23.4226C25.6841 23.4778 25.448 23.3073 25.5183 23.192C25.5485 23.1418 25.5032 23.1318 25.4027 23.1619C25.3123 23.192 25.1917 23.1669 25.1314 23.1117C25.0711 23.0566 24.9857 23.0064 24.9405 23.0064C24.7646 23.0064 24.2521 22.7908 24.2521 22.7206C24.2521 22.6454 24.2672 22.6404 24.5335 22.7005" fill="#474440"/>
  <path d="M20.8653 21.9684C20.805 21.9935 20.7346 21.9884 20.7095 21.9634C20.6844 21.9383 20.7296 21.9182 20.815 21.9233C20.9105 21.9233 20.9306 21.9433 20.8653 21.9734" fill="#474440"/>
  <path d="M8.63542 27.8956C8.37917 27.8956 8.02242 27.2738 7.731 26.321C7.59534 25.8747 7.44962 25.4535 7.41445 25.3783C7.33908 25.2379 7.45967 25.0674 7.6305 25.0674C7.68578 25.0674 7.76617 25.1326 7.80637 25.2078C7.97218 25.5187 8.39424 26.647 8.76103 27.7552C8.79621 27.8605 8.76103 27.8956 8.63542 27.8956Z" fill="#474440"/>
  <path d="M22.7042 11.8691C22.5987 11.839 22.1816 11.7438 21.7847 11.6535C20.7044 11.4128 19.3176 10.9966 19.3578 10.9264C19.3779 10.8913 19.3277 10.8813 19.2423 10.9063C19.1066 10.9414 18.584 10.7409 18.584 10.6506C18.584 10.6305 18.6242 10.5252 18.6795 10.4099C18.78 10.1893 18.7901 10.1893 19.4784 10.2895C20.0161 10.3698 20.5436 10.5854 21.2822 11.0267C21.5837 11.2072 22.056 11.4379 22.3324 11.5382C22.6087 11.6385 22.8449 11.7638 22.865 11.824C22.8901 11.8992 22.8449 11.9092 22.7042 11.8741" fill="#474440"/>
  <path d="M24.0059 12.2302C23.8954 12.1399 23.8552 12.0597 23.9054 12.0296C23.9506 11.9995 24.0662 12.0446 24.1617 12.1249C24.4682 12.3906 24.3275 12.4859 24.0059 12.2302Z" fill="#474440"/>
  <path d="M15.5093 19.7469C15.7103 19.8572 16.1122 20.0779 16.4087 20.2383C16.9312 20.5292 17.5844 20.7799 18.5491 21.0607C19.5993 21.3666 21.172 22.0536 20.4535 21.8881C20.3429 21.8631 19.9208 21.7828 19.5239 21.7076C19.1219 21.6324 18.5944 21.5221 18.3482 21.4569C18.102 21.3917 17.695 21.2914 17.4437 21.2262C16.9915 21.1159 16.1876 20.8251 15.5545 20.5442C15.3786 20.464 14.9365 20.2985 14.5847 20.1782C13.8713 19.9325 13.7356 19.8522 13.7356 19.6918C13.7356 19.436 14.6149 19.2555 14.9515 19.441C15.0621 19.5012 15.3183 19.6416 15.5193 19.7519" fill="#474440"/>
  <path d="M17.574 15.8206C17.7499 15.8757 18.0966 16.0011 18.3428 16.1014C18.7649 16.2669 19.2221 16.4223 20.6089 16.8636C20.9455 16.9689 21.4882 17.1544 21.8248 17.2748C22.4278 17.4904 22.8348 17.6057 24.2115 17.9517C24.6285 18.057 25.0104 18.2075 25.1009 18.2977C25.208 18.4047 25.0456 18.4415 24.6135 18.4081C24.0407 18.3629 22.277 17.9618 21.6188 17.7261C21.4832 17.6759 20.6089 17.3951 19.6743 17.0993C18.7397 16.8034 17.8403 16.4925 17.6745 16.4073C17.5087 16.322 17.3178 16.2568 17.2474 16.2568C17.1771 16.2568 16.6646 16.0412 16.1069 15.7704C15.5491 15.5046 15.0618 15.284 15.0266 15.284C14.8909 15.284 14.7653 15.0433 14.8155 14.8828C14.901 14.607 15.2376 14.6823 16.2727 15.2138C16.8053 15.4896 17.3881 15.7604 17.569 15.8155" fill="#474440"/>
  <path d="M15.308 17.6108C15.519 17.6459 16.5943 18.1373 16.6294 18.2175C16.6445 18.2526 16.7199 18.2777 16.8003 18.2777C16.9259 18.2777 17.4384 18.4231 18.5036 18.7691C18.6594 18.8193 18.8955 18.9045 19.0312 18.9597C19.5136 19.1553 20.7948 19.5915 21.6239 19.8423C21.9806 19.9476 22.9102 20.2534 23.689 20.5192C24.4678 20.785 25.4325 21.1009 25.8345 21.2213C26.8545 21.5271 26.9248 21.5622 26.9248 21.7478C26.9248 21.838 26.9097 21.9133 26.8947 21.9133C26.7942 21.9133 25.2868 21.4569 24.4577 21.1761C23.5433 20.8652 23.2116 20.7399 22.0912 20.2635C21.2018 19.8874 19.7598 19.396 19.1166 19.2455C17.9308 18.9747 17.5489 18.8644 17.3731 18.7391C17.2776 18.6688 17.152 18.6337 17.0967 18.6538C16.951 18.709 15.3432 18.2476 15.0618 18.0721C14.8256 17.9217 14.7101 17.8013 14.705 17.7061C14.705 17.6409 15.097 17.5857 15.313 17.6158" fill="#474440"/>
  <path d="M27.0856 15.289C27.3771 15.3793 28.0504 15.5598 28.583 15.6852C29.9898 16.0111 31.7283 16.5025 31.8238 16.5978C31.9293 16.7031 30.7686 16.6279 30.4873 16.5075C29.0854 15.9208 27.372 15.4445 26.0757 15.284C24.9854 15.1486 23.9101 14.933 22.3927 14.5368C22.056 14.4516 21.3677 14.2911 20.8552 14.1858C20.3427 14.0805 19.8352 13.9551 19.7196 13.91C19.6091 13.8649 19.1518 13.7345 18.7097 13.6242C17.4334 13.2982 16.1421 12.8219 16.0165 12.6313C15.7703 12.2602 16.1823 12.195 17.0516 12.4658C17.338 12.5561 17.6344 12.6814 17.7047 12.7416C17.7751 12.8018 17.8957 12.857 17.9711 12.857C18.0464 12.857 18.5539 12.9673 19.0966 13.0977C19.6392 13.228 20.4482 13.4136 20.8954 13.5088C21.9455 13.7295 22.875 13.9902 24.3774 14.4766C25.0457 14.6923 25.8094 14.9229 26.0807 14.9931C26.347 15.0634 26.8043 15.1937 27.0907 15.284" fill="#474440"/>
  <path d="M29.7537 10.8461C29.4573 10.8461 28.794 10.6556 28.8393 10.5854C28.8644 10.5453 28.8192 10.5202 28.7337 10.5302C28.5127 10.5553 28.0554 10.4349 28.0554 10.3547C28.0554 10.3146 27.96 10.2845 27.8444 10.2845C27.6183 10.2845 27.1309 9.83821 27.2113 9.71284C27.2716 9.61255 27.347 9.62258 27.5479 9.76299C27.6434 9.82818 27.7439 9.85325 27.769 9.81314C27.8243 9.72287 28.6282 9.92345 29.0453 10.1341C29.2111 10.2193 29.392 10.2895 29.4422 10.2895C29.4925 10.2895 29.6382 10.3647 29.7638 10.455C30.015 10.6305 30.01 10.8562 29.7588 10.8562" fill="#474440"/>
  <path d="M35.3262 21.3566C35.2257 21.3165 35.1102 21.2764 35.08 21.2714C35.0449 21.2613 34.6127 21.146 34.1103 21.0106C33.6078 20.8752 32.6682 20.6245 32.0251 20.459C31.3769 20.2885 30.578 20.0779 30.2464 19.9826C29.9148 19.8924 29.558 19.8121 29.4575 19.8121C29.2616 19.8121 29.2013 19.6116 29.3771 19.5464C29.4324 19.5263 29.4525 19.4862 29.4224 19.4511C29.3922 19.416 29.3018 19.4611 29.2214 19.5414C29.0757 19.6868 28.8395 19.6968 28.6687 19.5714C28.6234 19.5363 28.4526 19.4862 28.2868 19.4561C28.121 19.426 27.9552 19.3458 27.915 19.2756C27.8396 19.1452 27.8848 18.7591 27.9703 18.7691C28.0004 18.7691 28.332 18.8644 28.7089 18.9747C29.0857 19.085 29.6887 19.2104 30.0454 19.2555C30.4021 19.3007 30.8192 19.3709 30.9749 19.411C31.1307 19.4511 31.4774 19.5263 31.7437 19.5815C32.4723 19.7269 33.7083 20.0478 34.2108 20.2133C34.457 20.2935 34.9645 20.464 35.3463 20.5844C36.1553 20.8451 36.9542 21.2313 37.0145 21.3917C37.0396 21.4519 36.9894 21.5773 36.909 21.6625C36.7331 21.848 36.4065 21.7678 36.3412 21.5221C36.301 21.3566 36.0749 21.2212 36.0749 21.3566C36.0749 21.4569 35.5825 21.4569 35.3313 21.3616" fill="#474440"/>
  <path d="M33.442 23.7285C33.2611 23.6934 33.0902 23.6583 33.0551 23.6483C33.0199 23.6383 32.9646 23.6282 32.9244 23.6232C32.8842 23.6182 32.834 23.538 32.8089 23.4427C32.7687 23.2922 32.7486 23.2822 32.6481 23.3875C32.5426 23.4928 32.427 23.4728 31.6984 23.2371C31.2412 23.0917 30.8141 22.9663 30.7488 22.9663C30.5076 22.9663 29.1962 22.525 29.1962 22.4448C29.1962 22.3997 28.9952 22.3545 28.749 22.3395C28.2918 22.3194 27.7592 22.189 27.2567 21.9634C27.101 21.8932 27.0256 21.838 27.0859 21.833C27.1763 21.833 27.1763 21.8079 27.0959 21.7077C27.0105 21.6074 27.0256 21.5873 27.1864 21.5923C27.2919 21.5923 27.7089 21.6876 28.1059 21.7929C28.5078 21.8982 29.1811 22.0587 29.6032 22.1489C30.387 22.3144 32.1054 22.7707 32.7586 22.9864C32.9596 23.0515 33.5224 23.2271 34.0148 23.3725C34.5072 23.5179 34.9544 23.6734 35.0096 23.7135C35.0649 23.7536 35.2056 23.8037 35.3111 23.8138C35.5623 23.8388 35.9392 24.0244 35.9744 24.1347C35.9894 24.1798 35.904 24.2651 35.7784 24.3252C35.6226 24.3954 35.5473 24.4005 35.5272 24.3403C35.5121 24.2901 35.4669 24.2701 35.4317 24.2952C35.3614 24.3353 34.477 24.0845 34.0148 23.889C33.8791 23.8338 33.6279 23.7586 33.447 23.7235" fill="#474440"/>
  <path d="M33.286 17.1494C33.286 17.1043 33.3011 16.999 33.3061 16.9087C33.3212 16.7332 33.5222 16.7031 33.8839 16.8285C33.9945 16.8686 34.6778 17.0792 35.4014 17.3049C36.9037 17.7712 38.7477 18.4231 38.8583 18.5284C38.9437 18.6137 38.5467 19.2255 38.3307 19.3358C38.2553 19.3759 38.1096 19.411 38.0141 19.411C37.7629 19.411 36.7731 18.9948 35.3009 18.2727C33.698 17.4854 33.276 17.2497 33.286 17.1444" fill="#474440"/>
  <path d="M35.8688 15.1687C36.0045 15.2238 36.2758 15.3141 36.4718 15.3693C36.6727 15.4244 37.0697 15.5799 37.3561 15.7153C37.6425 15.8507 38.0294 15.976 38.2203 16.0011C38.4866 16.0312 38.5771 16.0813 38.6122 16.2117C38.6976 16.5226 38.6625 16.5728 38.351 16.6229C38.0445 16.673 37.2556 16.5326 37.3159 16.4323C37.336 16.4023 37.1802 16.3722 36.9692 16.3571C36.7632 16.3421 36.4115 16.2669 36.1854 16.1866C35.9643 16.1064 35.5422 15.9911 35.2558 15.9359C34.9644 15.8807 34.6931 15.8005 34.6529 15.7604C34.6127 15.7203 34.482 15.6902 34.3715 15.6902C34.2559 15.6902 33.854 15.5949 33.4771 15.4796C33.1003 15.3642 32.4923 15.2038 32.1255 15.1185C31.7637 15.0333 31.3768 14.933 31.2763 14.8929C31.1708 14.8528 30.7789 14.7374 30.4021 14.6371C30.0252 14.5369 29.4574 14.3714 29.1459 14.2611C28.8344 14.1507 28.4174 14.0153 28.2164 13.9552C27.729 13.8148 27.2667 13.6142 27.2064 13.5089C27.1763 13.4637 27.111 13.4337 27.0607 13.4437C26.9301 13.4688 26.5985 13.3534 26.5985 13.2832C26.5985 13.2531 26.513 13.223 26.4075 13.218C26.1613 13.203 25.3674 12.8068 25.282 12.6564C25.2469 12.5912 25.1815 12.5611 25.1413 12.5862C25.0207 12.6614 24.4178 12.4458 24.4178 12.3305C24.4178 12.2001 24.5183 12.2001 24.9655 12.3405C25.1564 12.4007 25.3725 12.4709 25.4529 12.5009C25.5333 12.531 25.6036 12.5561 25.6136 12.5561C25.6237 12.5561 25.8448 12.6113 26.101 12.6765C26.3573 12.7416 26.7693 12.8469 27.0155 12.9071C27.2617 12.9673 27.7089 13.0776 28.0053 13.1428C28.3068 13.213 28.6736 13.3183 28.8294 13.3835C28.9801 13.4487 29.1258 13.4788 29.1509 13.4587C29.1761 13.4337 29.3168 13.4587 29.4675 13.5089C29.6182 13.559 30.0102 13.6493 30.3418 13.7145C30.6734 13.7746 31.0904 13.8649 31.2663 13.915C31.4422 13.9652 31.9547 14.0805 32.4019 14.1708C32.849 14.2661 33.447 14.4115 33.7384 14.4967C35.3362 14.9731 35.6628 15.0734 35.8839 15.1687" fill="#474440"/>
  <path d="M38.6623 13.0174C38.6623 13.0676 38.5769 13.1077 38.4764 13.1077C38.2453 13.1077 36.8032 12.7968 36.6826 12.7216C36.6324 12.6915 36.557 12.6614 36.5168 12.6514C36.2053 12.6012 35.3662 12.3505 35.2908 12.2853C35.2406 12.2452 35.1652 12.2151 35.13 12.2251C34.9994 12.2602 32.4318 11.3877 32.4318 11.3125C32.4318 11.2674 32.467 11.1671 32.5122 11.0818C32.6177 10.8913 32.9292 10.8913 33.7382 11.0969C34.0648 11.1771 34.5673 11.3325 34.8587 11.4379C35.1501 11.5432 35.8586 11.7839 36.4364 11.9694C37.0142 12.1599 37.5267 12.3605 37.577 12.4207C37.6272 12.4809 37.6875 12.511 37.7126 12.4859C37.793 12.4057 38.6874 12.6113 38.8382 12.7467C39.0341 12.9222 39.0291 13.0124 38.8231 12.9573C38.7326 12.9322 38.6623 12.9573 38.6623 13.0074" fill="#474440"/>
  <path d="M35.3109 34.4045C35.3963 34.3694 35.5571 34.4797 35.7983 34.7204C35.9942 34.9209 36.155 35.1366 36.155 35.2018C36.155 35.267 36.2002 35.3622 36.2555 35.4224C36.5319 35.7233 36.8836 36.4554 36.8886 36.7563C36.8886 36.9569 36.9037 36.9619 36.964 36.8215C37.0293 36.666 37.0343 36.666 37.0394 36.8365C37.0394 36.9368 37.0795 37.0321 37.1147 37.0571C37.2403 37.1374 37.2956 37.6438 37.1951 37.8595C37.0193 38.2406 36.9037 38.1804 36.4766 37.4884C36.2505 37.1273 36.0696 36.7914 36.0696 36.7513C36.0696 36.6309 35.336 35.1466 35.2004 34.9861C35.0546 34.8207 35.12 34.4797 35.3059 34.4045" fill="#474440"/>
  <path d="M34.5726 35.0062C34.673 34.8407 34.7635 34.936 35.0097 35.4575C35.1454 35.7534 35.2609 36.0242 35.2609 36.0643C35.2609 36.1044 35.3212 36.2298 35.3916 36.3401C35.4669 36.4504 35.5021 36.5607 35.482 36.5858C35.4569 36.6109 35.4971 36.7011 35.5674 36.7864C35.7081 36.9519 36.3161 38.2757 36.3412 38.4713C36.3462 38.5314 36.4367 38.6769 36.5372 38.7872C36.7231 38.9878 36.7683 39.1282 36.6578 39.1231C36.4015 39.1181 35.688 38.025 35.7835 37.7793C35.8136 37.704 35.7935 37.684 35.7332 37.7191C35.6729 37.7592 35.6579 37.7341 35.693 37.6439C35.7232 37.5586 35.7031 37.5085 35.6378 37.5085C35.4418 37.5085 34.457 35.1917 34.5726 35.0062Z" fill="#474440"/>
  <path d="M33.6779 25.955C33.6779 25.955 33.7382 25.9198 33.7633 25.8747C33.7884 25.8296 33.7734 25.7945 33.7281 25.7945C33.6829 25.7945 33.6427 25.8296 33.6427 25.8747C33.6427 25.9198 33.6578 25.955 33.6779 25.955ZM32.5524 25.7494C32.2409 25.629 31.7686 25.4485 31.4972 25.3482C30.4119 24.947 30.216 24.8568 30.1858 24.7815C30.1456 24.6612 30.437 24.5057 30.5677 24.581C30.633 24.6161 30.8139 24.6712 30.9696 24.7013C31.1254 24.7314 31.3013 24.7966 31.3565 24.8417C31.4118 24.8869 31.5826 24.937 31.7384 24.952C31.8891 24.9671 32.1353 25.0373 32.2811 25.1175C32.4268 25.1927 32.6378 25.2629 32.7534 25.273C32.8639 25.283 33.1905 25.3833 33.4819 25.4886C33.894 25.6441 34.0145 25.7243 34.0346 25.8747C34.0598 26.0552 34.0447 26.0603 33.5875 26.0151C33.3262 25.9901 32.8589 25.8747 32.5474 25.7494" fill="#474440"/>
  <path d="M1.82217 38.391C1.93271 38.4763 2.13369 38.5665 2.26936 38.5866C2.76176 38.6668 3.00294 38.737 3.18885 38.8574C3.29437 38.9276 3.48531 38.9928 3.62097 39.0128C3.91239 39.0479 5.20873 39.434 5.40972 39.5393C5.48508 39.5795 5.61573 39.6146 5.69109 39.6196C5.77149 39.6196 5.9775 39.6798 6.15838 39.7449C6.33926 39.8101 6.88192 39.9756 7.37433 40.106C7.86673 40.2364 8.32899 40.3818 8.40436 40.4269C8.47973 40.4721 8.62042 40.5072 8.71086 40.5072C8.92189 40.5072 10.168 40.9083 10.3187 41.0237C10.379 41.0738 10.5649 41.1139 10.7257 41.1139C11.0071 41.1139 11.7105 41.2995 12.1728 41.49C12.2934 41.5401 12.4491 41.5853 12.5145 41.5953C12.6803 41.6204 13.444 41.8561 13.9314 42.0416C14.1525 42.1218 14.5896 42.2673 14.9011 42.3525C15.2127 42.4428 15.7955 42.6133 16.1975 42.7336C17.3984 43.0947 19.0715 43.541 19.5137 43.6212C19.6443 43.6463 19.7951 43.6964 19.8403 43.7365C19.8905 43.7766 20.0011 43.8067 20.0865 43.8017C20.1719 43.8017 20.4081 43.8368 20.6091 43.892C20.81 43.9471 21.1366 44.0274 21.3376 44.0675C21.7245 44.1527 23.3475 44.6391 23.8901 44.8297C24.071 44.8949 24.272 44.945 24.3373 44.945C24.4026 44.945 24.9101 45.0955 25.4678 45.276C26.0256 45.4565 26.5883 45.637 26.724 45.6721C27.6686 45.9279 28.7891 46.2588 29.4774 46.4745C29.9246 46.6149 30.4321 46.7653 30.613 46.8054C30.7889 46.8455 31.221 46.9859 31.5626 47.1163C31.9093 47.2467 32.1907 47.337 32.1907 47.3169C32.1907 47.2968 32.2661 47.3219 32.3615 47.3721C32.457 47.4222 32.6278 47.4774 32.7484 47.4974C32.9695 47.5375 36.0747 48.5254 36.3661 48.6508C36.6877 48.7912 37.0193 48.8965 37.3208 48.9466C37.6876 49.0118 37.7027 49.087 37.0143 47.6479C36.4415 46.4444 35.8385 45.1205 35.8385 45.0503C35.8385 45.0202 35.7431 44.7795 35.6275 44.5037C35.326 43.7967 35.2456 43.6061 34.8688 42.8088C34.6829 42.4177 34.5171 42.0215 34.502 41.9363C34.4869 41.8511 34.4015 41.6806 34.3211 41.5602C34.0297 41.144 33.2408 39.429 33.281 39.3137C33.3062 39.2485 33.281 39.1984 33.2207 39.1984C33.1303 39.1984 32.5123 38.1052 32.4721 37.8695C32.457 37.7843 31.8641 36.7713 31.3365 35.9289C31.1707 35.6631 30.9195 35.2068 30.7889 34.921C30.6532 34.6301 30.4874 34.3343 30.4221 34.259C30.3567 34.1838 30.1005 33.7275 29.8543 33.2511C29.6081 32.7747 29.2363 32.0978 29.0252 31.7467C28.8142 31.3957 28.6383 31.0999 28.6383 31.0848C28.6383 31.0698 28.4775 30.794 28.2816 30.468C28.0856 30.1421 27.9349 29.8613 27.955 29.8412C27.9751 29.8212 28.0907 29.8412 28.2112 29.8864C28.4474 29.9666 28.6383 29.9415 28.6383 29.8312C28.6383 29.7961 28.568 29.7459 28.4775 29.7259C28.3871 29.7008 28.3168 29.7159 28.3168 29.756C28.3168 29.7961 28.2514 29.8061 28.1761 29.776C27.8997 29.6757 27.5731 29.2946 27.1913 28.6177C26.7441 27.8204 26.6737 27.6499 26.7843 27.6499C26.8295 27.6499 26.8446 27.6148 26.8194 27.5696C26.7893 27.5245 26.7441 27.5044 26.7089 27.5245C26.6737 27.5446 26.528 27.3741 26.3722 27.1434C26.0607 26.667 26.0909 26.7071 25.6236 26.1455C25.0206 25.4184 24.895 25.3532 24.1514 25.3632C23.7946 25.3632 23.3776 25.3983 23.2269 25.4334C23.0108 25.4836 22.9354 25.4685 22.8751 25.3632C22.8349 25.288 22.7646 25.2529 22.7244 25.278C22.6792 25.3031 22.6993 25.3783 22.7696 25.4485C22.9405 25.619 22.9204 25.6942 22.6892 25.7544C22.5787 25.7845 22.4129 25.8747 22.3224 25.965C22.1315 26.1555 21.6793 26.1856 21.6793 26.0051C21.6793 25.7544 21.4532 25.985 21.4029 26.2909C21.3627 26.5517 21.3175 26.6119 21.1668 26.6119C21.0663 26.6119 20.9206 26.6871 20.8452 26.7773C20.6593 26.993 19.8554 27.5044 19.6996 27.5044C19.6293 27.5044 19.574 27.5345 19.574 27.5696C19.574 27.6499 19.0514 27.9056 18.8907 27.9056C18.8304 27.9056 18.76 27.9608 18.7349 28.026C18.7098 28.0911 18.6043 28.1463 18.4987 28.1463C18.3932 28.1463 18.2626 28.1914 18.2023 28.2466C18.1169 28.3268 18.0867 28.3268 18.0566 28.2466C18.0365 28.1914 17.9511 28.1463 17.8656 28.1463C17.7802 28.1463 17.7099 28.1012 17.7099 28.046C17.7099 27.9909 17.6697 28.0109 17.6245 28.0911C17.5792 28.1714 17.5541 28.2967 17.5692 28.372C17.5993 28.5174 17.4235 28.6879 17.0265 28.8885C16.4336 29.1893 15.8106 29.5454 15.7704 29.5955C15.685 29.7159 15.3483 29.8513 15.2328 29.8061C15.1674 29.781 15.1323 29.7961 15.1574 29.8362C15.2227 29.9415 14.6147 30.3377 14.3937 30.3377C14.3685 30.3377 14.2781 30.4079 14.1826 30.4981C13.8309 30.8291 13.4541 30.9545 12.8913 30.9344C12.5748 30.9244 12.3989 30.9444 12.4642 30.9845C12.5245 31.0247 12.6552 31.0547 12.7556 31.0547C13.0219 31.0547 12.9918 31.3305 12.7004 31.5361C12.5697 31.6264 12.424 31.7016 12.3788 31.7016C12.3336 31.7016 12.2884 31.7367 12.2884 31.7819C12.2884 31.827 12.2331 31.8621 12.1678 31.8621C12.1025 31.8621 12.0472 31.8972 12.0472 31.9423C12.0472 31.9874 11.9567 32.0225 11.8462 32.0225C11.7357 32.0225 11.6452 32.0627 11.6452 32.1078C11.6452 32.1529 11.61 32.168 11.5598 32.1429C11.5146 32.1128 11.4895 32.1429 11.4995 32.1981C11.5246 32.3184 9.89164 33.4617 9.68061 33.4718C9.60524 33.4718 9.53992 33.5169 9.53992 33.562C9.53992 33.6071 9.38416 33.7175 9.19825 33.8027C9.00731 33.888 8.89175 33.9582 8.93697 33.9632C8.98219 33.9632 8.8013 34.0885 8.535 34.239C8.14811 34.4596 8.02752 34.4947 7.92703 34.4195C7.82151 34.3393 7.82151 34.3443 7.91196 34.4596C8.00742 34.58 7.96722 34.6301 7.56526 34.8859C7.31905 35.0463 7.09797 35.1767 7.07787 35.1767C7.01255 35.1767 6.26892 35.6932 6.06291 35.8837C5.83681 36.0893 5.74134 36.1144 5.73129 35.969C5.73129 35.9138 5.69109 35.9489 5.6509 36.0542C5.6107 36.1545 5.45996 36.3 5.3243 36.3752C5.18361 36.4504 4.96756 36.5958 4.84697 36.6961C4.72135 36.7964 4.58066 36.8766 4.53544 36.8766C4.49022 36.8766 4.445 36.9117 4.445 36.9518C4.445 36.992 4.32441 37.0872 4.18372 37.1574C4.03801 37.2276 3.77673 37.3931 3.59584 37.5235C3.13861 37.8645 2.44019 38.1904 2.28946 38.1353C2.21911 38.1102 2.10857 38.1453 2.03823 38.2105C1.96788 38.2807 1.85231 38.3158 1.78197 38.2907C1.71163 38.2657 1.74178 38.3158 1.84729 38.401M17.7752 44.0926C17.8204 44.0675 17.8556 44.0073 17.8556 43.9672C17.8556 43.8519 17.7953 43.8769 17.7451 44.0173C17.7199 44.0875 17.73 44.1226 17.7752 44.0926ZM31.2109 48.4953C31.2511 48.4953 31.2662 48.4402 31.2411 48.375C31.2159 48.3098 31.1808 48.2546 31.1607 48.2546C31.1406 48.2546 31.1305 48.3098 31.1305 48.375C31.1305 48.4402 31.1657 48.4953 31.2109 48.4953ZM33.8538 40.101C33.7684 40.101 33.7232 40.116 33.7483 40.1411C33.7734 40.1662 33.8438 40.1712 33.9041 40.1461C33.9694 40.121 33.9493 40.101 33.8538 40.096M21.6692 24.6161C21.6692 24.7013 21.6843 24.7464 21.7145 24.7214C21.7446 24.6913 21.8351 24.7063 21.9205 24.7515C22.0762 24.8367 22.3074 24.7665 22.1767 24.6762C22.1365 24.6512 22.036 24.5158 21.9506 24.3854C21.8099 24.1648 21.7949 24.1597 21.7346 24.3052C21.6994 24.3904 21.6692 24.5358 21.6642 24.6161M20.4684 25.7895C20.5488 25.7895 20.6091 25.7293 20.6091 25.6541C20.6091 25.5789 20.5839 25.5538 20.5488 25.5939C20.5136 25.634 20.4533 25.6942 20.4081 25.7293C20.3629 25.7644 20.388 25.7895 20.4684 25.7895ZM17.5642 27.8454C17.6446 27.6348 17.6194 27.3941 17.5189 27.4242C17.4687 27.4393 17.4134 27.5696 17.3984 27.7151C17.3682 27.9858 17.4787 28.0711 17.5642 27.8454ZM30.6884 31.0397C31.1556 30.799 31.1808 30.794 31.3968 30.9244C31.5978 31.0447 31.6179 31.0447 31.6179 30.9294C31.6179 30.8592 31.5777 30.804 31.5325 30.804C31.4873 30.804 31.4672 30.7739 31.4873 30.7388C31.5224 30.6787 32.4017 30.1471 33.0348 29.8011C33.1705 29.7259 33.4067 29.5905 33.5624 29.5002C33.7182 29.405 34.0448 29.2194 34.291 29.084C34.5372 28.9486 34.7733 28.8132 34.8186 28.7832C34.8638 28.7481 35.2457 28.5324 35.6677 28.2967C38.1097 26.9528 37.8735 27.1534 38.1398 26.1605C38.2755 25.639 38.6121 24.6963 38.8231 24.2299C38.9136 24.0294 38.989 23.8488 38.989 23.8288C38.989 23.7736 39.5366 22.5651 39.6824 22.3094C39.7477 22.189 39.8029 22.0436 39.8029 21.9834C39.8029 21.9233 39.8733 21.7327 39.9637 21.5622C40.1496 21.2012 40.5014 20.1531 40.5717 19.7369C40.6018 19.5815 40.6521 19.3809 40.6923 19.2906C40.7325 19.2004 40.843 18.8544 40.9385 18.5234C41.1947 17.6559 41.4359 16.9639 41.5213 16.8485C41.5615 16.7934 41.5716 16.6881 41.5465 16.6129C41.4811 16.4474 41.6419 15.9359 41.7575 15.9359C41.8027 15.9359 41.8228 15.8557 41.7977 15.7604C41.7726 15.6651 41.7826 15.5448 41.8228 15.4996C41.863 15.4545 41.9133 15.269 41.9384 15.0935C41.9635 14.9179 42.074 14.4817 42.1846 14.1256C42.2951 13.7696 42.476 13.1528 42.5916 12.7517C42.7071 12.3505 42.873 11.8039 42.9634 11.5281C43.2247 10.7208 43.3704 10.8161 41.2601 10.4049C40.8832 10.3296 40.1949 10.1642 39.7326 10.0338C38.4714 9.67775 36.4264 9.1763 35.8486 9.076C35.5672 9.02586 35.0949 8.91554 34.7934 8.83029C33.7885 8.53443 32.3967 8.1082 31.2612 7.75217C30.201 7.42121 27.5631 6.73923 25.3121 6.2127C24.2469 5.96197 23.3625 5.72629 22.7194 5.52069C22.4732 5.44046 22.1466 5.3502 21.9908 5.32011C21.8351 5.29002 21.5939 5.19475 21.4532 5.1095C21.3125 5.02425 21.011 4.89889 20.7799 4.82869C20.4985 4.74344 20.3428 4.64816 20.2925 4.52781C20.2523 4.42752 20.2171 4.39744 20.2171 4.4526C20.2171 4.50776 20.1568 4.55289 20.0915 4.55289C19.976 4.55289 19.3831 4.36735 18.9962 4.20688C18.8856 4.16175 18.755 4.11662 18.7148 4.10158C18.6696 4.09155 18.343 4.0063 17.9862 3.91604C16.9713 3.6603 16.298 3.51488 16.1724 3.52992C16.097 3.53494 16.0065 3.75558 15.9161 4.14671C15.7654 4.79359 15.3634 6.03719 14.7504 7.74214C14.5444 8.31881 14.3585 8.89548 14.3384 9.01583C14.3183 9.14119 14.258 9.32172 14.2078 9.42201C14.1525 9.5223 14.0972 9.67273 14.0821 9.763C14.0671 9.85326 13.9465 10.1993 13.8108 10.5302C13.6751 10.8662 13.5495 11.1921 13.5345 11.2573C13.5144 11.3225 13.4691 11.5081 13.434 11.6635C13.3988 11.819 13.2631 12.18 13.1425 12.4708C13.0219 12.7617 12.9064 13.0776 12.8863 13.1779C12.821 13.4988 12.6954 13.7646 12.615 13.7646C12.5697 13.7646 12.5547 13.8147 12.5748 13.8699C12.5999 13.9301 12.5748 14.0855 12.5195 14.2159C12.4642 14.3463 12.414 14.4867 12.3989 14.5318C12.3235 14.8026 11.8362 15.8807 11.5899 16.327L11.2985 16.8586L11.4442 17.3901C11.5246 17.681 11.6352 18.0119 11.6955 18.1222C11.7558 18.2376 11.801 18.368 11.801 18.4181C11.801 18.4682 11.8562 18.6137 11.9216 18.739C11.9869 18.8644 12.0422 19.0299 12.0422 19.1051C12.0422 19.1803 12.0723 19.2605 12.1125 19.2856C12.1527 19.3107 12.2632 19.5765 12.3637 19.8773C12.5446 20.4089 13.1827 22.0386 13.3385 22.3645C13.4591 22.6153 14.0319 24.1948 14.0972 24.4506C14.1324 24.596 14.1173 24.7264 14.047 24.8066C13.9565 24.9169 13.9615 24.927 14.0721 24.8869C14.1726 24.8467 14.2479 24.9571 14.4138 25.3783C14.5293 25.6741 14.6248 25.975 14.6248 26.0402C14.6248 26.1054 14.675 26.2358 14.7303 26.321C14.8861 26.5567 15.1373 27.4593 15.072 27.5646C15.0418 27.6148 15.0569 27.6549 15.1021 27.6549C15.1473 27.6549 15.1875 27.71 15.1875 27.7752C15.1875 27.9407 15.2026 27.9357 15.7352 27.6348C16.1523 27.4042 16.4939 27.1635 17.4536 26.4363C17.6094 26.316 17.8305 26.1906 17.941 26.1605C18.1068 26.1054 18.5942 25.7895 18.75 25.634C18.7701 25.614 18.8505 25.5588 18.9208 25.5137C18.9911 25.4685 19.2022 25.3331 19.3831 25.2128C19.569 25.0925 19.77 24.9922 19.8302 24.9922C19.8905 24.9922 20.0815 24.8668 20.2523 24.7113C20.4231 24.5559 20.6241 24.4305 20.6995 24.4305C20.7749 24.4305 20.8804 24.3754 20.9407 24.3052C20.996 24.235 21.2472 24.0845 21.4984 23.9692C21.7446 23.8539 22.036 23.7185 22.1466 23.6683C22.2521 23.6182 22.6742 23.5781 23.0812 23.5781C23.7595 23.5781 23.865 23.6031 24.3825 23.8539C24.7292 24.0244 25.1362 24.3202 25.4477 24.6211C25.9803 25.1426 27.1008 26.6319 27.1008 26.8175C27.1008 26.8776 27.136 26.9278 27.1762 26.9278C27.2817 26.9278 28.0103 28.3669 27.955 28.4622C27.9299 28.5074 27.9399 28.5425 27.9851 28.5425C28.0856 28.5425 28.7237 29.5504 28.7237 29.7108C28.7237 29.781 28.7539 29.8362 28.7891 29.8362C28.8242 29.8362 29.0805 30.2223 29.3669 30.6887C29.8643 31.5161 29.8844 31.5361 30.0553 31.4158C30.1507 31.3456 30.4472 31.1801 30.7135 31.0447M38.7176 26.4414C38.7478 26.4414 39.0844 26.2458 39.4663 26.0051C39.8482 25.7644 40.2702 25.5087 40.4059 25.4385C40.6973 25.283 40.7777 25.2329 41.6168 24.6863C41.9736 24.4556 42.471 24.0745 42.7172 23.8338C43.1895 23.3825 44.2597 22.4398 44.7371 22.0536L45.0134 21.828L44.7722 21.3666C44.6416 21.1109 44.4456 20.805 44.3351 20.6847C44.2296 20.5643 44.0638 20.3387 43.9683 20.1882C43.5362 19.4762 42.3655 18.042 42.2147 18.042C42.1796 18.042 42.1293 18.1523 42.0992 18.2877C42.054 18.5033 41.7927 19.2054 41.5766 19.6968C41.4611 19.9676 41.3857 20.1732 41.3555 20.3387C41.3405 20.4239 41.2952 20.5342 41.255 20.5794C41.2148 20.6245 41.1596 20.7699 41.1294 20.8953C41.0993 21.0206 40.8631 21.5672 40.6069 22.1088C39.6824 24.0544 39.3809 24.7063 39.3809 24.7815C39.3809 24.8217 39.2955 25.0423 39.1899 25.268C38.793 26.1204 38.6573 26.4464 38.7076 26.4464M44.526 19.431C44.5009 19.4561 44.4959 19.5263 44.521 19.5865C44.5461 19.6517 44.5662 19.6316 44.5713 19.5363C44.5713 19.4511 44.5562 19.406 44.5311 19.431M35.5572 7.50144C34.6075 6.42331 33.5473 5.13457 32.5073 3.80572C31.8742 2.99336 30.6683 1.72469 30.4422 1.62941C30.2361 1.54416 29.8342 1.53413 29.8342 1.61437C29.8342 1.64947 29.7186 1.7297 29.5729 1.78987C29.4272 1.85506 29.1609 2.0055 28.975 2.13086C28.7891 2.25623 28.6132 2.35652 28.5831 2.35652C28.5529 2.35652 28.3067 2.51197 28.0404 2.70252C27.2917 3.22403 26.729 3.57004 26.6134 3.57004C26.5582 3.57004 26.3722 3.6603 26.2064 3.77062C26.0406 3.88094 25.8296 3.98123 25.7442 3.99627C25.6537 4.01132 25.3372 4.13668 25.0357 4.2821C24.7342 4.42251 24.4629 4.54286 24.4277 4.54286C24.3926 4.54286 24.2268 4.61306 24.0559 4.70332L23.7444 4.85877L23.9755 4.90892C24.1011 4.93399 24.2971 4.98915 24.4127 5.02927C24.5232 5.06939 24.9603 5.17971 25.3824 5.27498C26.4426 5.52069 27.0455 5.70122 26.935 5.73632C26.7993 5.78145 26.8194 5.99708 26.9601 5.99708C27.0254 5.99708 27.0807 5.9369 27.0807 5.8667C27.0807 5.66612 27.7641 5.76139 28.9448 6.12244C29.3066 6.23276 29.6583 6.29795 29.9397 6.31299C30.0301 6.31299 30.0653 6.35812 30.0301 6.41328C29.995 6.46844 30.01 6.48349 30.0653 6.44838C30.1156 6.4183 30.3668 6.44838 30.623 6.5236C30.8793 6.59381 31.236 6.68407 31.4169 6.71917C31.5978 6.75427 31.9797 6.85958 32.2661 6.95485C32.5575 7.05013 33.0298 7.20057 33.3212 7.28581C34.9341 7.76721 35.2607 7.86249 35.6426 7.96278L36.0647 8.0731L35.5622 7.50144H35.5572ZM29.9146 0.180206C29.8744 0.180206 29.8342 0.235366 29.8342 0.300555C29.8342 0.365744 29.8493 0.420904 29.8643 0.420904C29.8794 0.420904 29.9196 0.365744 29.9447 0.300555C29.9698 0.235366 29.9548 0.180206 29.9146 0.180206ZM25.498 2.94823C25.4729 2.97331 25.4678 3.04351 25.4929 3.10368C25.5181 3.16887 25.5382 3.14882 25.5432 3.05354C25.5432 2.96829 25.5281 2.91815 25.503 2.94823M24.0107 3.24911C23.9655 3.24911 23.9303 3.28421 23.9303 3.32934C23.9303 3.37447 23.9655 3.40957 24.0107 3.40957C24.0559 3.40957 24.0911 3.37447 24.0911 3.32934C24.0911 3.28421 24.0559 3.24911 24.0107 3.24911ZM23.4831 4.1417C23.4178 4.1417 23.3625 4.19686 23.3625 4.26204C23.3625 4.32723 23.3274 4.38239 23.2821 4.38239C23.2369 4.38239 23.2017 4.43755 23.2017 4.50776C23.2017 4.61306 23.2319 4.61306 23.4027 4.4877C23.6288 4.32723 23.669 4.1417 23.4881 4.1417M12.6753 12.7366C12.6753 12.7366 12.7305 12.7918 12.7958 12.8169C12.8612 12.8419 12.9164 12.8269 12.9164 12.7868C12.9164 12.7466 12.8612 12.7065 12.7958 12.7065C12.7305 12.7065 12.6753 12.7216 12.6753 12.7366ZM12.5295 9.60755C12.2331 9.81314 11.6251 10.2645 11.1779 10.6004C10.7307 10.9414 10.2434 11.2874 10.0926 11.3727C9.94188 11.4579 9.75095 11.5933 9.66553 11.6685C9.58514 11.7488 9.47962 11.8089 9.4344 11.8089C9.34396 11.8089 9.47962 12.0747 9.7007 12.3254C9.77607 12.4157 9.84139 12.516 9.84139 12.5561C9.84139 12.5962 9.91676 12.7767 10.0072 12.9673C10.2182 13.3985 10.5097 14.2911 10.7056 15.1185C10.7408 15.269 10.8212 15.4144 10.8865 15.4344C10.9619 15.4595 10.982 15.4344 10.9518 15.3442C10.9066 15.2339 11.0674 14.4115 11.193 14.0755C11.2181 14.0103 11.2483 13.9 11.2633 13.8348C11.2885 13.7094 11.4091 13.4387 11.5849 13.1027C11.6452 12.9924 11.7407 12.9021 11.796 12.9021C11.8512 12.9021 11.9115 12.8369 11.9266 12.7617C11.9417 12.6865 11.9165 12.6213 11.8663 12.6213C11.8161 12.6213 11.7809 12.5762 11.7809 12.521C11.7809 12.3956 12.1477 11.3927 12.3537 10.9565C12.4391 10.7759 12.5798 10.3998 12.6702 10.124C12.8561 9.53734 12.9265 9.39693 13.037 9.39693C13.0822 9.39693 13.1275 9.35682 13.1425 9.31169C13.1928 9.16125 13.0822 9.2114 12.5245 9.60253M9.27362 13.1227C9.27362 13.1629 9.32888 13.1428 9.3942 13.0776C9.45953 13.0124 9.51479 12.9322 9.51479 12.9021C9.51479 12.872 9.45953 12.8921 9.3942 12.9472C9.32888 13.0024 9.27362 13.0826 9.27362 13.1227ZM13.5646 23.8137C13.5646 23.7486 13.5294 23.6934 13.4842 23.6934C13.439 23.6934 13.4038 23.7486 13.4038 23.8137C13.4038 23.8789 13.439 23.9341 13.4842 23.9341C13.5294 23.9341 13.5646 23.8789 13.5646 23.8137ZM5.38962 35.3622C5.38962 35.3622 5.42479 35.4224 5.47001 35.4475C5.51523 35.4726 5.5504 35.4575 5.5504 35.4124C5.5504 35.3673 5.51523 35.3271 5.47001 35.3271C5.42479 35.3271 5.38962 35.3422 5.38962 35.3622ZM4.90224 36.0843C4.90224 36.0843 4.9575 36.1395 5.02282 36.1646C5.08815 36.1896 5.14341 36.1746 5.14341 36.1345C5.14341 36.0944 5.08815 36.0542 5.02282 36.0542C4.9575 36.0542 4.90224 36.0693 4.90224 36.0843ZM8.50486 12.521C8.36919 13.3584 8.12299 14.6472 8.02752 15.0082C7.96722 15.2288 7.88181 15.5949 7.84161 15.8155C7.58033 17.1645 7.21856 18.5685 7.11807 18.6287C7.04271 18.6738 7.02763 18.729 7.07787 18.7892C7.12812 18.8493 7.07285 19.1903 6.91709 19.772C6.78645 20.2584 6.65581 20.7499 6.63069 20.8602C6.60556 20.9705 6.45483 21.497 6.29907 22.0336C6.14331 22.5651 5.97749 23.1468 5.93227 23.3273C5.88705 23.5028 5.78656 23.8338 5.70617 24.0544C5.62577 24.2751 5.50016 24.6562 5.42981 24.9019C5.35947 25.1476 5.264 25.4084 5.21878 25.4886C5.17859 25.5638 5.14341 25.6992 5.14341 25.7845C5.14341 25.8697 5.08815 26.0452 5.02785 26.1706C4.96253 26.2959 4.84697 26.6169 4.7716 26.8826C4.69623 27.1484 4.58066 27.3991 4.52037 27.4342C4.46007 27.4744 4.42992 27.5646 4.46007 27.6499C4.4852 27.7351 4.3847 28.1764 4.22894 28.6327C4.07821 29.089 3.832 29.9014 3.68629 30.4329C3.54057 30.9645 3.38481 31.476 3.33457 31.5662C3.28432 31.6565 3.24412 31.7819 3.23407 31.8521C3.22403 31.9674 3.00797 32.6895 2.89743 32.9803C2.8723 33.0455 2.84718 33.1358 2.83714 33.1809C2.80699 33.3815 2.6864 33.547 2.56078 33.552C2.47536 33.552 2.46532 33.572 2.53064 33.5971C2.67133 33.6523 2.65625 34.1236 2.51054 34.3142C2.44522 34.3994 2.38995 34.5549 2.38995 34.6552C2.38995 34.7555 2.35477 34.8357 2.31458 34.8357C2.27438 34.8357 2.22414 34.936 2.19901 35.0564C2.14374 35.3572 1.85734 36.3752 1.78197 36.5507C1.7267 36.671 1.7468 36.6861 1.91261 36.6209C2.01813 36.5808 2.30453 36.4153 2.54571 36.2548C2.79191 36.0944 3.05319 35.964 3.13358 35.964C3.21398 35.964 3.2793 35.9188 3.2793 35.8587C3.2793 35.7534 3.94757 35.2369 4.08825 35.2369C4.12845 35.2369 4.20884 35.1717 4.26914 35.0864C4.32943 35.0062 4.4651 34.8909 4.57564 34.8307C4.74145 34.7454 5.16351 34.4496 5.5906 34.1236C5.67602 34.0585 6.1433 33.7576 7.32911 33.0104C7.70595 32.7697 8.06772 32.534 8.12801 32.4789C8.18831 32.4287 8.40437 32.2933 8.6154 32.183C8.82141 32.0727 9.17313 31.8721 9.39923 31.7267C10.0173 31.3406 10.1077 31.2804 10.3438 31.15C10.4644 31.0848 10.6604 30.9394 10.776 30.8291C10.8915 30.7188 11.1126 30.5884 11.2684 30.5382C11.4191 30.4881 11.5447 30.4129 11.5447 30.3678C11.5447 30.3226 11.61 30.2675 11.6854 30.2374C11.7608 30.2073 11.9969 30.0568 12.2029 29.8964C12.409 29.7359 12.7355 29.5052 12.9315 29.3849C13.1275 29.2646 13.5144 29.0188 13.8008 28.8383C14.0821 28.6578 14.3434 28.5124 14.3786 28.5124C14.4489 28.5124 14.258 27.5947 14.1374 27.339C14.0671 27.1935 13.5998 25.8396 12.9114 23.7837C12.7757 23.3825 12.6099 22.9312 12.5446 22.7858C12.4793 22.6353 12.414 22.4749 12.4039 22.4197C12.3939 22.3696 12.3135 22.164 12.223 21.9584C12.1326 21.7578 12.012 21.4469 11.9567 21.2714C11.8311 20.8702 11.5598 20.1381 11.4191 19.8272C11.3588 19.6968 11.3287 19.5614 11.3538 19.5213C11.3739 19.4862 11.3186 19.3608 11.2282 19.2455C11.1377 19.1302 11.0624 18.9898 11.0624 18.9346C11.0624 18.8794 10.9518 18.5685 10.8162 18.2376C10.585 17.681 10.3388 17.019 10.2986 16.8335C10.2886 16.7884 10.2584 16.6981 10.2333 16.6329C10.2082 16.5677 10.168 16.4374 10.1479 16.3521C10.1278 16.2669 9.99213 15.8807 9.85144 15.5046C9.71075 15.1286 9.57509 14.7424 9.55499 14.6572C9.53489 14.5669 9.48465 14.4215 9.44445 14.3363C9.37411 14.1808 8.82643 12.6213 8.74603 12.3355C8.67569 12.0998 8.57018 12.175 8.51993 12.4959M5.71622 23.1268C5.67602 23.1268 5.61572 23.1619 5.5906 23.207C5.56046 23.2521 5.59563 23.2872 5.66597 23.2872C5.73631 23.2872 5.79158 23.2521 5.79158 23.207C5.79158 23.1619 5.75641 23.1268 5.71622 23.1268ZM43.5663 34.0334C43.5663 34.0334 43.5111 34.0685 43.4809 34.1136C43.4558 34.1587 43.4709 34.1938 43.5161 34.1938C43.5613 34.1938 43.6015 34.1587 43.6015 34.1136C43.6015 34.0685 43.5864 34.0334 43.5663 34.0334ZM41.8228 39.5293C41.7776 39.5293 41.7424 39.5444 41.7424 39.5644C41.7424 39.5845 41.7776 39.6246 41.8228 39.6497C41.868 39.6747 41.9032 39.6597 41.9032 39.6146C41.9032 39.5694 41.868 39.5293 41.8228 39.5293ZM1.36493 34.8357C1.46543 34.8357 1.49557 34.8106 1.4403 34.7906C1.31971 34.7404 1.30464 34.3393 1.41518 34.1387C1.45538 34.0635 1.55084 33.7776 1.62119 33.5119C1.69655 33.2461 1.87744 32.6293 2.02818 32.1379C2.17892 31.6515 2.43517 30.7589 2.60098 30.1571C2.76679 29.5554 2.9326 29.0339 2.96777 28.9888C3.00797 28.9486 3.03812 28.8383 3.03812 28.7481C3.03812 28.6578 3.09339 28.4773 3.15871 28.3519C3.22403 28.2265 3.26422 28.0962 3.24413 28.0661C3.22403 28.036 3.28432 27.7602 3.37476 27.4493C3.46521 27.1384 3.71643 26.2308 3.93249 25.4334C4.14855 24.6311 4.3646 23.894 4.40982 23.7937C4.45505 23.6934 4.49524 23.5179 4.49524 23.4126C4.49524 23.3073 4.54549 23.0967 4.61081 22.9512C4.72135 22.6905 5.35445 20.5342 5.43484 20.1431C5.45494 20.0328 5.50518 19.8523 5.54538 19.7419C5.58558 19.6316 5.75139 18.9597 5.9172 18.2476C6.08301 17.5355 6.28399 16.7182 6.36439 16.4273C6.70103 15.2188 7.57531 12.3104 7.66575 12.0948C7.72102 11.9644 7.77629 11.7889 7.79137 11.7036C7.85669 11.3626 8.17323 10.8512 8.37924 10.7709C8.64555 10.6606 9.26859 10.3096 9.4344 10.1742C9.50475 10.119 9.65046 10.0288 9.761 9.97361C9.87154 9.91845 10.1278 9.75297 10.3288 9.59752C10.8765 9.17629 11.6402 8.73 11.8412 8.71496C11.9366 8.70994 12.002 8.68988 11.9869 8.67484C11.9467 8.63472 12.6652 8.2486 12.8159 8.22855C12.8762 8.21852 12.9667 8.16837 13.0219 8.11823C13.0772 8.06808 13.1576 8.02295 13.2129 8.02295C13.3787 8.02295 13.5797 7.72709 13.7857 7.16546C14.3334 5.6962 15.1222 3.27418 15.1172 3.0736C15.1172 2.95325 15.1524 2.85296 15.1926 2.85296C15.2328 2.85296 15.3483 2.69249 15.4438 2.49693C15.6096 2.16095 15.6297 2.14591 15.8458 2.22113C16.0266 2.28631 16.0769 2.3515 16.0769 2.53704C16.0769 2.66742 16.102 2.7627 16.1372 2.75267C16.1724 2.74264 16.4336 2.79278 16.7251 2.86299C17.0165 2.93319 17.5943 3.05855 18.0164 3.13377C18.4384 3.20899 19.2725 3.43464 19.8704 3.63021C20.9357 3.97621 20.9608 3.98123 21.1668 3.84082C21.4783 3.63021 22.2471 3.25412 22.3677 3.25412C22.4229 3.25412 22.7847 3.1087 23.1666 2.93319C23.5484 2.75267 23.9052 2.60724 23.9554 2.60724C24.0057 2.60724 24.1212 2.5571 24.2117 2.49693C24.3021 2.43675 24.6086 2.30136 24.9 2.19605C25.1915 2.09075 25.4578 1.96037 25.4929 1.90019C25.5281 1.84002 25.6085 1.79489 25.6688 1.79489C25.7944 1.79489 26.528 1.42381 27.3872 0.922359C27.7088 0.736821 28.0002 0.58137 28.0354 0.58137C28.0706 0.58137 28.2866 0.491108 28.5077 0.380788C28.7288 0.270468 28.97 0.180206 29.0353 0.180206C29.1056 0.180206 29.1961 0.150119 29.2363 0.110003C29.3769 -0.0203753 29.9548 -0.0404335 30.2412 0.0799155C30.6431 0.245395 32.5374 2.19104 33.1805 3.09366C33.482 3.51488 33.8187 3.96117 33.9292 4.08152C34.0398 4.20187 34.1302 4.32222 34.1302 4.35231C34.1302 4.40245 34.6025 5.00921 34.8839 5.32011C34.9643 5.41037 35.1552 5.68617 35.3059 5.9369C35.4567 6.18763 35.7129 6.53363 35.8737 6.70413C36.0345 6.87462 36.3511 7.30086 36.5822 7.64185C36.9641 8.2135 37.2153 8.42411 37.567 8.46924C37.979 8.51939 38.8231 8.71496 38.9839 8.79519C39.0945 8.85035 39.3256 8.92055 39.5015 8.95064C39.6773 8.98073 39.8733 9.03589 39.9487 9.076C40.1195 9.16627 40.5014 9.30667 41.7424 9.72789C42.3002 9.91845 42.7725 10.099 42.7926 10.1291C42.8529 10.2143 43.3603 10.2945 43.3603 10.2193C43.3603 10.1842 43.496 10.114 43.6618 10.0589C44.0889 9.92848 44.1894 10.0538 44.1894 10.7007C44.1894 11.6284 43.7422 13.6242 43.501 13.7746C43.4307 13.8198 43.4307 13.8348 43.501 13.8398C43.6065 13.8398 43.6015 13.8549 43.1594 15.0935C42.9986 15.5397 42.8378 16.0262 42.7976 16.1816C42.7574 16.3371 42.677 16.4975 42.6167 16.5427C42.4207 16.6931 42.5413 16.9087 42.8277 16.9087C43.1342 16.9087 43.3302 17.0943 43.8779 17.9016C44.0839 18.2025 44.2497 18.4632 44.2497 18.4783C44.2497 18.4933 44.4004 18.7691 44.5813 19.1001C45.0787 19.9927 45.4656 20.7148 45.4656 20.7549C45.4656 20.7749 45.4003 20.79 45.3249 20.795C45.2144 20.8 45.2094 20.81 45.2998 20.8451C45.4305 20.8953 45.7018 21.1962 45.7068 21.2964C45.7068 21.3315 45.7872 21.4669 45.8827 21.5923C46.0435 21.8079 46.0485 21.8932 46.0033 22.7406C45.9781 23.2471 45.953 23.914 45.953 24.2249C45.953 24.5358 45.9128 25.1727 45.8676 25.639C45.8224 26.1054 45.7671 26.652 45.752 26.8526C45.6968 27.5446 45.4757 28.8032 45.3903 28.9085C45.345 28.9637 45.3249 29.0339 45.3501 29.059C45.4003 29.1091 45.134 30.4179 44.928 31.14C44.8577 31.3857 44.7873 31.6565 44.7672 31.7467C44.6818 32.173 44.4657 32.8851 44.4004 32.9553C44.3602 32.9954 44.3251 33.0957 44.3251 33.1759C44.3251 33.3313 43.8929 34.6 43.3553 36.0292C43.1694 36.5156 42.9785 37.0271 42.9282 37.1625C42.878 37.2978 42.7926 37.4784 42.7373 37.5636C42.682 37.6539 42.5966 37.8695 42.5413 38.05C42.3705 38.6217 42.2801 38.8072 42.1846 38.7872C42.1343 38.7771 42.1193 38.7822 42.1494 38.7972C42.2549 38.8524 42.2147 39.063 42.0941 39.1081C42.0288 39.1332 41.9937 39.1984 42.0138 39.2485C42.0339 39.3037 41.9937 39.5093 41.9183 39.7048C41.4711 40.9183 41.1345 41.8962 41.0289 42.2723C40.9636 42.508 40.8531 42.7587 40.7878 42.8239C40.7224 42.8891 40.6822 42.9743 40.7074 43.0094C40.7777 43.1247 40.1798 45.0253 39.8884 45.617C39.7828 45.8276 39.6974 46.0683 39.6974 46.1585C39.6974 46.2488 39.6221 46.3692 39.5266 46.4394C39.4311 46.5045 39.3809 46.5998 39.411 46.65C39.4663 46.7352 39.2904 47.357 39.0995 47.7732C39.0241 47.9387 38.9689 47.9588 38.6975 47.9186C38.2403 47.8585 38.185 47.7732 38.3106 47.3219C38.3659 47.1113 38.4614 46.8305 38.5217 46.6951C38.8483 45.968 39.0091 45.5718 39.2553 44.8748C39.406 44.4536 39.5819 44.0023 39.6472 43.8719C39.7175 43.7415 39.7527 43.6061 39.7276 43.571C39.6723 43.4858 39.8582 42.9342 40.0039 42.7637C40.0642 42.6885 40.0944 42.5882 40.0642 42.538C40.0341 42.4929 40.0642 42.3926 40.1396 42.3274C40.2099 42.2572 40.2451 42.162 40.22 42.1218C40.1446 42.0015 40.2451 41.7006 40.426 41.49C40.5416 41.3546 40.5667 41.2744 40.5064 41.2042C40.4511 41.134 40.4561 41.0337 40.5215 40.8732C40.5767 40.7479 40.6119 40.6024 40.6018 40.5523C40.5918 40.5021 40.7325 40.0408 40.9134 39.5243C41.0943 39.0078 41.24 38.5264 41.24 38.4512C41.24 38.376 41.3656 37.9648 41.5213 37.5335C41.6771 37.1023 41.8278 36.6259 41.858 36.4755C41.8881 36.325 41.9585 36.1144 42.0188 35.9991C42.0791 35.8837 42.1293 35.7183 42.1293 35.623C42.1293 35.5277 42.1595 35.4274 42.1896 35.3923C42.2248 35.3572 42.2499 35.3071 42.2549 35.277C42.27 35.0463 42.4861 34.6151 42.5916 34.6151C42.687 34.6151 42.6971 34.59 42.6217 34.5047C42.5514 34.4195 42.5514 34.3343 42.6217 34.1638C42.677 34.0334 42.7272 33.8428 42.7373 33.7275C42.7624 33.4517 42.8076 33.2712 43.079 32.4538C43.2096 32.0677 43.3603 31.5412 43.4106 31.2854C43.4659 31.0247 43.5714 30.784 43.6467 30.7338C43.7372 30.6787 43.7523 30.6335 43.692 30.6084C43.6216 30.5784 43.6266 30.468 43.707 30.1872C43.7673 29.9766 43.8377 29.7058 43.8628 29.5855C43.8879 29.4601 43.9633 29.3648 44.0286 29.3648C44.1241 29.3648 44.1341 29.3297 44.0638 29.2044C43.9482 28.9938 44.2045 27.9909 44.3753 27.9909C44.4557 27.9909 44.4657 27.9608 44.4055 27.8906C44.3502 27.8204 44.3452 27.6699 44.4004 27.4242C44.4456 27.2236 44.526 26.7874 44.5863 26.4564C44.6818 25.9098 44.9732 24.4355 45.0787 23.9692C45.1039 23.8689 45.1491 23.7987 45.1792 23.8188C45.2144 23.8388 45.2395 23.7335 45.2395 23.5781C45.2395 23.4226 45.2144 23.3023 45.1893 23.3023C45.1441 23.3023 44.5914 23.8539 43.9733 24.5158C43.8678 24.6261 43.6367 24.8317 43.4558 24.9721L43.1292 25.2278L43.0237 24.9922C42.9182 24.7565 42.6519 24.6462 42.7423 24.8768C42.7674 24.942 42.8177 24.9972 42.8529 24.9972C42.888 24.9972 42.9333 25.0724 42.9584 25.1627C42.9935 25.288 42.9132 25.3933 42.6117 25.619C42.3956 25.7794 42.1997 25.9048 42.1745 25.8998C42.1494 25.8948 42.054 25.96 41.9685 26.0452C41.8781 26.1305 41.5816 26.316 41.3103 26.4564C40.7375 26.7422 40.3556 26.9879 38.5769 28.1664C38.4614 28.2466 38.3207 28.2917 38.2654 28.2717C38.2101 28.2516 38.1649 28.2717 38.1649 28.3118C38.1649 28.3519 38.0443 28.4472 37.9037 28.5224C37.7579 28.5976 37.6223 28.6829 37.6022 28.7079C37.5821 28.738 37.2655 28.9135 36.8987 29.0991C36.537 29.2846 36.0044 29.5704 35.723 29.7359C35.4416 29.8964 34.9894 30.1471 34.7231 30.2875C34.4568 30.4279 34.0749 30.6436 33.8739 30.7739C33.673 30.8993 33.3212 31.0898 33.0851 31.1952C32.854 31.3005 32.6429 31.4208 32.6178 31.4559C32.5977 31.491 32.4872 31.5462 32.3766 31.5712C32.2661 31.5963 32.05 31.7066 31.8943 31.8119C31.7385 31.9172 31.3466 32.0677 31.02 32.1429C30.6934 32.2181 30.3819 32.2933 30.3216 32.3134C30.2412 32.3385 30.2663 32.4438 30.4321 32.7296C30.5527 32.9402 30.9145 33.5871 31.231 34.1638C31.5476 34.7404 31.9948 35.5026 32.2158 35.8587C32.4419 36.2147 32.7786 36.8165 32.9695 37.1925C33.1605 37.5686 33.487 38.1704 33.6981 38.5264C33.9091 38.8824 34.291 39.6096 34.5472 40.1411C34.8035 40.6726 35.0547 41.1841 35.105 41.2744C35.6376 42.2271 35.8134 42.5631 35.8134 42.6434C35.8134 42.6935 35.8486 42.7737 35.8888 42.8138C35.929 42.859 36.135 43.3253 36.341 43.8619C37.16 45.973 37.4565 46.7051 37.6424 47.1163C37.7479 47.352 37.8735 47.678 37.9137 47.8434C37.9539 48.0089 38.0695 48.4 38.1649 48.7109C38.3508 49.3127 38.4011 49.6186 38.3408 49.7841C38.2956 49.9094 38.0996 49.9194 38.0644 49.7991C38.0443 49.7439 37.8584 49.769 37.5168 49.8843C36.9289 50.0849 36.7379 50.0749 35.2456 49.759C33.1705 49.3227 31.849 48.9717 30.3065 48.4452C29.794 48.2697 28.8644 47.9738 28.2414 47.7833C27.6183 47.5927 25.9401 47.0662 24.5182 46.6099C21.0964 45.5117 19.9257 45.1506 19.2574 44.9952C18.9509 44.925 18.1018 44.6893 17.3582 44.4686C16.6195 44.248 15.8307 44.0173 15.6096 43.9521C15.3885 43.887 14.459 43.6011 13.5445 43.3153C12.63 43.0295 11.4141 42.6584 10.8312 42.4929C10.2534 42.3274 9.56002 42.1269 9.29372 42.0416C9.02741 41.9564 8.5149 41.816 8.15816 41.7307C7.52506 41.5803 6.94221 41.3947 6.62064 41.2393C6.49503 41.1791 5.62075 40.9986 5.46498 40.9986C5.44991 40.9986 5.45494 40.9184 5.48508 40.8181C5.51523 40.7178 5.50518 40.6777 5.47001 40.7228C5.33937 40.8933 5.15346 40.8933 4.63593 40.7077C4.34451 40.6074 3.8923 40.467 3.62097 40.4019C2.83211 40.2063 1.83724 39.8152 1.86237 39.7098C1.87744 39.6497 1.82719 39.6296 1.74178 39.6597C1.66138 39.6848 1.34483 39.6146 1.03331 39.5042C0.721786 39.3939 0.385143 39.3037 0.289677 39.3037C0.0635681 39.3037 -0.00677872 39.1833 0.0987396 38.9827C0.164059 38.8574 0.154011 38.8072 0.0484924 38.7471C-0.0720978 38.6819 -0.0168266 38.4662 0.535877 36.7613C1.09361 35.0513 1.17902 34.8507 1.33479 34.8457" fill="#474440"/>
  <path d="M29.0302 26.5868C29.0302 26.4113 29.0252 26.4113 29.6382 26.5918C29.9045 26.672 30.3969 26.8024 30.7336 26.8826C31.9796 27.1835 33.8086 27.9557 33.8086 28.1764C33.8086 28.397 33.5925 28.392 32.7434 28.1363C32.2811 28.0009 31.7234 27.8354 31.5023 27.7702C31.2812 27.705 30.824 27.5696 30.4924 27.4743C29.5226 27.1885 29.0352 26.8926 29.0352 26.5817" fill="#474440"/>
</svg>
