<svg width="46" height="50" viewBox="0 0 46 50" fill="none" xmlns="http://www.w3.org/2000/svg">
  <path d="M3.45791 47.7689C4.566 46.855 5.62839 45.9012 6.59369 44.8388C6.91355 44.4846 7.24483 44.1419 7.59896 43.8164C8.37006 43.1081 9.07261 42.3427 9.58096 41.4117C9.65521 41.2803 9.78659 41.1604 9.92367 41.0975C10.0493 41.0404 10.2664 41.0004 10.3463 41.069C10.4606 41.1661 10.5577 41.3946 10.5177 41.5202C10.4434 41.7715 10.2835 42.0057 10.135 42.2228C9.83799 42.6454 9.49528 43.0396 9.2154 43.4737C8.18728 45.0672 6.97066 46.5066 5.63981 47.8546C5.13146 48.3687 4.60027 48.8599 3.87487 49.0712H3.46362C3.24086 48.9398 3.0181 48.8142 2.71537 48.6371C3.00096 48.2944 3.18945 47.9803 3.46362 47.7575" fill="#474440"/>
  <path d="M12.1573 24.7161C13.1283 25.1616 14.1793 25.3787 15.2188 25.6072C15.3959 25.6472 15.5844 25.6757 15.7386 25.7614C16.2127 26.0413 16.5954 25.8928 16.9609 25.5615C17.9605 24.659 18.9829 23.7851 19.9596 22.8655C21.6218 21.3005 23.2553 19.7126 24.8946 18.1304C25.2202 17.8163 25.5172 17.4679 25.8371 17.148C26.1512 16.8281 26.5053 16.5768 27.0137 16.6682C26.9452 16.6168 26.8709 16.5597 26.7567 16.4797C30.4865 12.4986 34.6104 8.95727 38.86 5.54161C37.4092 6.01569 36.1012 6.78107 34.7589 7.45506C33.4052 8.13477 31.9773 8.64312 30.6807 9.45991C29.4012 10.2653 27.9961 10.8764 26.5339 11.6361C26.4597 11.499 26.3854 11.3676 26.3169 11.242C26.2826 11.2534 26.254 11.2648 26.2198 11.2763C26.2369 11.4305 26.254 11.579 26.2826 11.8132C25.6029 12.0302 24.9003 12.2587 24.1978 12.4872C24.1578 12.4986 24.095 12.5157 24.0835 12.55C23.8436 13.1326 23.2439 13.104 22.787 13.3382C22.2215 13.6238 21.6789 13.9494 21.1191 14.2464C20.0567 14.8176 18.9943 15.3773 17.9319 15.9428C16.6354 16.6396 15.3388 17.3422 14.0365 18.039C13.5967 18.2732 13.134 18.4674 12.6999 18.7073C11.3462 19.4498 10.004 20.2095 8.65025 20.9463C7.87916 21.369 7.09093 21.7631 6.30842 22.1687C6.32555 22.2144 6.33697 22.2601 6.35411 22.3057C7.21088 22.3229 7.9934 22.5228 8.75307 22.9683C9.84973 23.6138 10.9978 24.1735 12.1573 24.7104M16.6468 30.2566C16.7781 31.9873 16.8181 33.7179 16.9267 35.4486C16.9838 36.3111 17.1266 37.1679 17.2122 38.0246C17.2694 38.5901 17.3036 39.1556 17.3608 39.8695C17.5835 39.384 17.8006 39.0356 17.9091 38.6472C18.2232 37.4877 18.446 36.3054 18.7944 35.1573C19.3028 33.4609 19.8854 31.7873 20.4451 30.1081C20.5137 29.8967 20.5936 29.6568 20.7421 29.4969C21.479 28.6973 22.0216 27.7491 22.8726 27.0294C23.6437 26.3783 24.2606 25.5386 24.9403 24.779C25.1459 24.5505 25.2773 24.2249 25.6828 24.2649C25.7457 24.2706 25.8428 24.1392 25.8999 24.0536C27.2993 21.9345 29.1214 20.1695 30.7035 18.2047C31.686 16.9824 32.6912 15.7772 33.6965 14.5777C34.3077 13.8466 34.9702 13.1554 35.57 12.4129C36.1983 11.6304 36.7866 10.8193 37.3692 10.0025C38.0775 9.00867 38.7572 7.99197 39.5225 6.87246C39.1341 7.11807 38.8314 7.27229 38.5801 7.48362C37.9518 7.99769 37.3578 8.55173 36.7352 9.07722C35.7585 9.89972 34.7817 10.7108 33.7936 11.5219C32.4056 12.6642 31.189 13.9837 29.921 15.2517C28.7729 16.3883 27.5849 17.4907 26.4254 18.6159C25.283 19.724 24.1578 20.8607 23.0097 21.9688C21.9759 22.9626 20.9649 23.9907 19.8568 24.8989C18.9315 25.6643 18.1318 26.5839 17.0637 27.1779C16.681 27.395 16.3783 27.7548 16.0013 28.0804C16.6639 28.6973 16.5839 29.5083 16.6411 30.2566M5.5259 24.9903C4.86333 25.0417 4.25217 24.8989 3.66956 24.6533C3.22976 24.4648 2.70427 24.3334 2.45295 23.7394C2.65858 23.4995 2.84135 23.1911 3.1041 23.0026C4.08081 22.3 5.05182 21.5918 6.08566 20.9692C7.54217 20.0953 9.05579 19.3071 10.5409 18.4674C12.0431 17.6164 13.5281 16.7253 15.036 15.88C15.6472 15.5373 16.2984 15.2574 16.9324 14.9489C17.0295 14.9033 17.1209 14.8461 17.2122 14.7833C17.6292 14.5149 18.0176 14.1664 18.4746 13.9837C19.1086 13.7266 19.6626 13.3496 20.2509 13.0126C21.2733 12.43 22.3186 11.876 23.3639 11.3334C23.6837 11.1677 24.0378 11.0763 24.3748 10.945C24.4777 10.905 24.5862 10.8707 24.6833 10.8136C25.4087 10.4024 26.1284 9.96826 26.8595 9.57414C27.7448 9.10006 28.6416 8.66025 29.5326 8.1976C31.7545 7.03239 33.965 5.86147 36.1811 4.69055C36.7238 4.40496 37.255 4.09081 37.809 3.82807C39.037 3.23404 40.2879 2.67429 41.516 2.08026C42.2756 1.7147 43.0067 1.29203 43.7607 0.926474C44.1091 0.75512 44.469 0.646596 44.6632 0.258193C44.8002 -0.0159732 45.0687 -0.0559558 45.3657 0.0639921C45.6627 0.18394 46.0111 0.258193 45.9997 0.669443C45.9883 1.21778 45.9597 1.7604 45.914 2.30302C45.8284 3.31972 45.697 4.33071 45.6285 5.34741C45.5713 6.24987 45.5999 7.16376 45.5371 8.06623C45.5028 8.6317 45.3657 9.18574 45.2915 9.75121C45.2115 10.3395 45.2001 10.9336 45.0801 11.5104C44.7831 12.9155 44.4518 14.3092 44.1091 15.7029C44.0406 15.9942 43.8692 16.257 43.7321 16.5654C43.6979 16.8738 43.6979 17.2394 43.6122 17.5821C43.1895 19.2842 42.6983 20.9692 42.3156 22.677C41.8872 24.6019 41.5445 26.5439 41.1675 28.4802C40.9334 29.6968 40.6992 30.9191 40.4935 32.1415C40.2879 33.3695 40.1051 34.6033 39.9395 35.837C39.7624 37.1393 39.6196 38.453 39.4483 39.7553C39.2884 40.9548 39.1684 42.1543 39.2998 43.3652C39.3569 43.8907 39.2998 43.9935 38.78 44.1191C38.2945 44.2334 37.8033 44.3247 37.3121 44.4218C37.0493 44.4733 36.8437 44.4047 36.6324 44.2162C35.7699 43.4451 34.9188 42.6569 33.9992 41.9601C32.4628 40.7891 31.0691 39.4697 29.664 38.1617C29.1328 37.6705 28.6187 37.1564 28.1275 36.6195C26.8423 35.203 25.6771 33.6779 24.1521 32.4956C23.8494 32.2557 23.5295 32.0329 23.2439 31.7759C22.8898 31.4618 22.8327 31.0505 22.9469 30.5307C23.1925 30.5936 23.4324 30.605 23.6095 30.7135C24.5976 31.319 25.6429 31.8616 26.5396 32.5756C28.5902 34.2091 30.5607 35.9341 32.577 37.6134C33.2738 38.196 33.9878 38.7672 34.7132 39.3155C35.49 39.9038 36.2897 40.4636 37.0779 41.029C37.3064 41.1947 37.552 41.3432 37.8204 41.5145C37.889 41.3603 37.9575 41.2632 37.9804 41.1547C38.1688 40.2237 38.3745 39.2927 38.5173 38.3502C38.6486 37.4763 38.6943 36.591 38.7914 35.7056C38.8828 34.8432 39.0199 33.9864 39.0942 33.1296C39.1741 32.1529 39.197 31.1705 39.2655 30.1937C39.4426 27.7034 39.6311 25.2131 39.8196 22.7227C39.9281 21.3405 40.0366 19.9525 40.168 18.5702C40.3736 16.4626 40.6363 14.3606 41.0362 12.2815C41.1333 11.7903 41.2418 11.2991 41.3732 10.8193C41.7045 9.61413 42.0472 8.41465 42.3956 7.20946C42.4184 7.12378 42.4927 7.05524 42.527 6.96956C42.6069 6.76394 42.6869 6.55831 42.7554 6.34697C43.0753 5.43309 43.1438 4.42781 43.7778 3.62816C43.8521 3.53677 43.7379 3.29687 43.7093 3.12552C43.6636 3.11409 43.6122 3.10267 43.5608 3.09125C43.498 3.18264 43.4351 3.27974 43.3666 3.37113C42.961 3.91946 42.5498 4.46779 42.1443 5.01612C41.3846 6.03854 40.5678 7.02668 39.871 8.09479C38.8143 9.71694 37.8718 11.4133 36.6609 12.9384C36.0269 13.7323 35.4615 14.5891 34.8503 15.4002C34.6447 15.6686 34.3648 15.88 34.1592 16.1541C33.548 16.9709 32.9825 17.822 32.3542 18.6273C31.5203 19.7012 30.595 20.7122 29.8011 21.8145C28.7101 23.3396 27.3964 24.6533 26.1684 26.0527C25.8599 26.4011 25.4772 26.6867 25.1459 27.0123C24.8718 27.2807 24.6319 27.5892 24.352 27.8519C23.9922 28.1946 23.5295 28.4631 23.261 28.8629C22.8612 29.4683 22.3129 29.9024 21.816 30.3994C21.7017 30.5079 21.6503 30.7078 21.6218 30.8735C21.5532 31.319 21.5646 31.7816 21.4447 32.21C21.0677 33.5637 20.6508 34.906 20.2281 36.2483C19.8225 37.5277 19.3884 38.7957 18.9772 40.0695C18.8858 40.355 18.823 40.6464 18.7487 40.9319C19.3599 40.4464 19.8625 39.9038 20.3537 39.3498C20.982 38.6358 21.5875 37.899 22.2101 37.185C22.747 36.5681 23.2953 35.9684 23.8551 35.3686C24.0721 35.1402 24.312 34.9288 24.569 34.7403C24.6547 34.6775 24.8546 34.6604 24.9289 34.7175C25.0031 34.7746 25.026 34.9574 25.0031 35.0773C24.9746 35.2258 24.8946 35.3744 24.8032 35.5057C24.4719 35.9969 24.1521 36.4939 23.7865 36.9565C23.341 37.5277 22.8441 38.0589 22.3814 38.6129C21.9302 39.1499 21.5418 39.7553 21.0334 40.2351C20.2109 41.0233 19.5369 41.9315 18.8401 42.8168C18.2689 43.5365 17.6178 44.2219 17.3208 45.1358C17.2522 45.3529 17.0752 45.4443 16.8238 45.3529C16.047 45.0616 15.83 44.7646 15.8186 43.9363C15.8071 43.3023 15.8186 42.6626 15.7843 42.0286C15.7557 41.3889 15.8757 40.7492 15.7729 40.098C15.6701 39.4354 15.7843 38.7443 15.7272 38.0703C15.6472 37.145 15.4644 36.2254 15.3902 35.2944C15.2188 33.2039 15.0418 31.1133 15.4644 29.0285C15.493 28.88 15.4644 28.7201 15.4644 28.6573C15.116 28.4002 14.7276 28.2517 14.562 27.9661C14.3906 27.6691 14.1907 27.6177 13.9222 27.5606C13.1226 27.4007 12.3001 27.3093 11.5347 27.0465C10.1182 26.5553 8.73593 25.9727 7.34797 25.4073C6.75394 25.1616 6.14277 24.9218 5.50876 24.9732" fill="#474440"/>
  <path d="M0.453689 40.5778C1.042 40.435 1.63032 40.2465 2.23006 40.1951C3.10397 40.1151 3.90361 39.8124 4.70327 39.5154C5.61144 39.1727 6.4625 38.6757 7.35354 38.2931C7.91901 38.0474 8.46163 37.6305 9.30127 37.9389C9.12992 38.1617 9.02139 38.3844 8.84432 38.5215C8.38167 38.8814 7.89617 39.2069 7.40495 39.5382C6.2169 40.3379 4.91461 40.9091 3.58947 41.4345C3.20106 41.5888 2.76125 41.663 2.33858 41.6916C1.72742 41.7258 1.11055 41.6916 0.493671 41.6744C0.105269 41.663 -0.0203915 41.4974 0.00245571 41.109C0.0195913 40.812 0.190947 40.6463 0.453689 40.5835" fill="#474440"/>
</svg>
