<?xml version="1.0" encoding="utf-8"?>
<!-- Generator: Adobe Illustrator 28.1.0, SVG Export Plug-In . SVG Version: 6.00 Build 0)  -->
<svg version="1.1" id="Layer_2_00000024694682618010253080000016509337062746133659_"
	 xmlns="http://www.w3.org/2000/svg" xmlns:xlink="http://www.w3.org/1999/xlink" x="0px" y="0px" viewBox="0 0 570.3 150.3"
	 style="enable-background:new 0 0 570.3 150.3;" xml:space="preserve">
<style type="text/css">
	.st0{fill:#B39856;}
</style>
<path class="st0" d="M569.3,53.8c5.8-19.7-12.7-46.6-53.8-52.8c-28.2-4.3-53.5,7-69.8,17.2c-0.2-0.4-0.5-0.8-0.8-1.3
	c-8.4-12.7-26.4-8.7-34.6-6.2s-29.3,8.9-44.5,5.4c-15.1-3.6-35.9-9.8-49.5-11.8s-25.7,2-21.3,11.4c4.3,9.1,12.4,11.3,16.8,14
	c5.2,3.2,7.2,8.3-4.6,3.8c-10-3.8-13.5-8.9-13.5-8.9s3.3,2.8,4.7,0.1c1.4-2.6-10.4-3.9-8.4-14c1.7-8.5-2.2-10.4-5.1-10.8
	c-2.9,0.4-6.8,2.4-5.1,10.8c2,10.1-9.8,11.3-8.4,14s4.7-0.1,4.7-0.1s-3.5,5.1-13.5,8.9c-11.8,4.5-9.8-0.7-4.6-3.9
	c4.5-2.7,12.5-4.9,16.8-14c4.5-9.4-7.7-13.4-21.3-11.4s-34.3,8.3-49.4,11.8c-15.1,3.6-36.3-2.9-44.4-5.4c-8.1-2.5-26.2-6.4-34.6,6.2
	c-0.3,0.4-0.5,0.8-0.8,1.3C108.3,8,83.1-3.3,54.8,1C13.8,7.3-4.8,34.2,1,53.8c0.4,1.5,1,2.9,1.7,4.2c-2.9,6.4-3.5,13-1.7,18.9
	c2.5,8.2,8.6,12.7,17.4,17.7c0.1,0.1,0.2,0.1,0.4,0.2c-6.3,8.6,1.4,14.8,1.4,14.8c-1.7-2.8-2.8-6.9,1.4-13c5.9,4.3,7,8.8,3.9,12.7
	c-1.4,1.3-2.8,2.7-4.4,4.1c-10.2,9.5-0.9,16.6-0.9,16.6c-2.3-3.7-3.5-9.7,8.8-20C39.8,101,37,94.3,29,88.5
	C41,78,35.9,70.8,26.6,63.2c-6.1-5-12.1-9.1-14.2-14.3C25,32.8,48.6,27.1,71,33.4c18.6,5.2,25.4,7.6,33.5,5.9
	c5.1-1.1,13-5.3,11.1-10.9s-11-5.6-14.9-4.5c-3.9,1-6.9,1.9-8-0.1s4.4-2.9,4.4-2.9c-2.6-1.2-8.6-1.6-9.9,3.2
	c-1.3,4.8,4.2,5.4,10.4,3.8s12,5.7,1.3,8.6c-10.7,2.9-29.5-9.6-50-8.5c-16.9,1-30.8,8-37.3,16.5c0-1,0.2-2.1,0.5-3.2
	c2.6-9.4,23.7-23.7,59.4-26.3c22.3-1.6,39,2.8,50.8,8.1c0.2,0.1,0.4,0.2,0.6,0.3c-1.7,8.5,4.3,15.7,7.9,19.4
	c0.4,0.4,0.8,0.9,1.2,1.4c0,0-0.1,0-0.1,0.1c0.5,0.6,0.9,1.4,1.1,2.1c0.1,0,0.2-0.1,0.3-0.1c2.2,4,2.2,8.6-0.5,11.8
	c-4.1,4.7-8.7,0.9-8.7,0.9c2.1,3.4,7,5.2,11.7,0.8c4.4-4,2.4-9.7,0-13.9c-1.6-1.5-2.9-3.3-3.7-5.3c-2.3-2.8-6.6-7.7-5-15.1
	c16.9,8.3,29.9,11,47.9,11c0.9,0,1.6,0,2.3-0.1c6.4-0.2,13.5-1.1,19.3-3c10.9-3.6,25-11.3,36.4-15.6s22.7-5.8,25.7-3.9
	c3,1.9,1.1,4.5-0.8,3.9c-2-0.6-2.5-2.8-6.1-2.1c-2.1,0.5-4.6,3.6-3.4,6.8c0,0,1.6-4,4.6-3.4c3,0.6,3.1,4.3,8.9,3.1s6.8-6.8,1.5-10.3
	c-6.3-4.1-19.6-1.7-27.5,1.8c-10.3,4.5-31.9,16.7-49,19c-3.3,0.4-6.2,0.6-8.7,0.7c-22.8,0-41.1-8.4-49.2-12.8
	c6.6-12.6,25.7-8.8,39.7-5c14.1,3.8,24.7,5.6,37.3,3.6c12.6-2,38.1-10.7,50-12.3s17.5,4.2,14.8,10.8s-13.9,9.5-19.6,13.3
	c-5.7,3.7-4.7,12.3,13,4.9c17.1-7.1,20.6-15.6,20.6-15.6c-9.8,4-1.6-2.8-2.3-8.2c-0.5-4.2,1.2-6.2,3-6.9c1.8,0.7,3.5,2.7,3,6.9
	c-0.6,5.4,7.5,12.2-2.3,8.2c0,0,3.5,8.5,20.6,15.6c17.7,7.4,18.7-1.2,13-4.9c-5.8-3.7-16.9-6.7-19.6-13.3
	c-2.7-6.6,2.8-12.4,14.8-10.8c11.9,1.6,37.4,10.3,50,12.3c12.6,2,23.2,0.2,37.3-3.6c14-3.8,33.1-7.6,39.7,5
	c-8.1,4.4-26.4,12.8-49.2,12.8c-2.5-0.1-5.4-0.3-8.7-0.7c-17.1-2.2-38.7-14.4-49-19c-7.9-3.5-21.2-5.9-27.5-1.8
	c-5.3,3.4-4.3,9.1,1.5,10.3c5.8,1.2,5.9-2.5,8.9-3.1s4.6,3.4,4.6,3.4c1.2-3.2-1.2-6.4-3.4-6.8c-3.5-0.7-4.1,1.5-6.1,2.1
	c-2,0.6-3.8-1.9-0.8-3.9c3-1.9,14.3-0.4,25.7,3.9C349,22.2,363.1,30,374,33.5c5.8,1.9,12.9,2.8,19.3,3c0.6,0,1.4,0.1,2.3,0.1
	c18,0,31-2.8,47.9-11c1.6,7.4-2.7,12.3-5,15.1c-0.8,2-2.1,3.8-3.7,5.3c-2.4,4.2-4.4,9.9,0,13.9c4.8,4.3,9.6,2.6,11.8-0.8
	c0,0-4.7,3.9-8.7-0.9c-2.8-3.2-2.7-7.8-0.5-11.8c0.1,0,0.2,0.1,0.3,0.1c0.3-0.8,0.6-1.5,1.1-2.1c0,0,0,0-0.1-0.1
	c0.4-0.5,0.7-0.9,1.2-1.4c3.6-3.7,9.5-10.9,7.9-19.4c0.2-0.1,0.4-0.2,0.6-0.3c11.8-5.3,28.5-9.8,50.8-8.1
	c35.7,2.6,56.7,17,59.4,26.3c0.3,1.1,0.5,2.2,0.5,3.2c-6.5-8.5-20.5-15.6-37.3-16.5c-20.5-1.1-39.3,11.4-50,8.5
	c-10.7-2.9-4.8-10.2,1.3-8.6c6.1,1.6,11.7,1,10.4-3.8s-7.3-4.4-9.9-3.2c0,0,5.6,0.9,4.4,2.9c-1.2,2-4.1,1.2-8,0.1s-13-1-14.9,4.5
	c-1.9,5.6,6,9.8,11.1,10.9c8,1.7,14.9-0.8,33.5-5.9c22.4-6.2,46-0.5,58.7,15.5c-2.2,5.2-8.1,9.4-14.2,14.3
	c-9.3,7.6-14.4,14.8-2.4,25.3c-8,5.8-10.7,12.4,0.1,21.5c12.3,10.3,11.1,16.3,8.8,20c0,0,9.4-7.2-0.9-16.6c-1.6-1.5-3.1-2.8-4.4-4.1
	c-3.1-3.9-2-8.4,3.9-12.7c4.2,6.1,3.1,10.2,1.4,13c0,0,7.8-6.2,1.4-14.8c0.1-0.1,0.2-0.1,0.3-0.2c8.8-5,14.8-9.5,17.3-17.7
	c1.8-5.9,1.2-12.4-1.7-18.9C568.3,56.7,568.8,55.4,569.3,53.8L569.3,53.8z M29.4,105c0.4-2,0-4.6-2.8-7.7C20.7,91,4,86,2.6,73.2
	c-0.3-3.1-0.1-6.8,1.1-10.7C2.5,73.1,9.5,80.3,23.9,89.4C33.3,95.3,33.4,99.8,29.4,105z M6.2,63.1c3.1,3.5,7.2,6.3,12.2,9.3
	c7.9,4.7,10.3,9.8,7.8,14.3c0,0-0.1-0.1-0.1-0.1C17.5,81.3,5.7,74.7,6.2,63.1z M70.4,11.2C29.2,13.9,9.9,33.1,8.8,41.9
	s2.9,13.7,16.4,24.3c9.1,7.1,8.6,12,4.2,17.5c0.4-2.1,0.1-5-2.8-8.3C20.7,68.7,4,63.4,2.6,50C1.2,36.5,9.7,13.6,51.3,5.3
	c34.2-6.8,61.1,8.6,71.6,15.3C110,14.9,92,9.7,70.4,11.2L70.4,11.2z M541,83.6c-4.4-5.5-4.8-10.4,4.2-17.5
	c13.5-10.5,17.5-15.5,16.4-24.3s-20.4-28-61.7-30.7c-21.6-1.4-39.5,3.7-52.5,9.5c10.5-6.7,37.4-22.1,71.6-15.3
	c41.7,8.2,50.1,31.2,48.7,44.6s-18.1,18.7-24,25.3C540.8,78.6,540.5,81.5,541,83.6L541,83.6z M544.3,86.6c0,0-0.1,0.1-0.1,0.1
	c-2.5-4.4-0.1-9.6,7.8-14.3c5-3,9.1-5.8,12.2-9.3C564.6,74.7,552.9,81.3,544.3,86.6L544.3,86.6z M567.8,73.2
	c-1.4,12.8-18.1,17.8-24,24.2c-2.8,3-3.2,5.7-2.8,7.7c-4-5.2-3.9-9.7,5.5-15.6c14.4-9.1,21.4-16.3,20.2-26.8
	C567.8,66.4,568.1,70.1,567.8,73.2L567.8,73.2z"/>
<path class="st0" d="M285.1,30c-2.4,5.4-8.2,8.1-13.6,8.1h0c1.4,1.4,3,1.9,4.2,2c2.3,0.2,4.8-0.6,6.1-2l2-2.1l-0.7,2.9
	c-0.3,1.2-0.4,2.1-0.4,2.8c0.1,2.9,1.6,5.1,2.4,6c0.8-1,2.4-3.2,2.4-6c0-0.7-0.1-1.6-0.4-2.8l-0.7-2.9l2,2.1c1.3,1.4,3.9,2.2,6.1,2
	c1.2-0.1,2.8-0.6,4.2-2h0C293.3,38,287.5,35.4,285.1,30L285.1,30z"/>
</svg>
