<?xml version="1.0" encoding="UTF-8"?>
<svg xmlns="http://www.w3.org/2000/svg" viewBox="0 0 64 64" width="512" height="512"><g id="man-boy-avatar-people-user"><path d="M29,23a3,3,0,0,0-6,0h2a1,1,0,0,1,2,0Z"/><path d="M38,22a1,1,0,0,1,1,1h2a3,3,0,0,0-6,0h2A1,1,0,0,1,38,22Z"/><path d="M49.29,43.46,37,40.23V37a13.022,13.022,0,0,0,7.84-10.08,4.985,4.985,0,0,0,.96-9.57l2.98-3.73a1,1,0,0,0-.07-1.33l-.42-.42,1.54-2.32a.963.963,0,0,0,.05-1.02A.984.984,0,0,0,49,8H47.39l.56-1.68a1.027,1.027,0,0,0-.06-.77l-1-2A.977.977,0,0,0,46,3H40.62l-.73-1.45a1,1,0,0,0-1.21-.5l-2.41.81L34.71.29a1.008,1.008,0,0,0-1.42,0L32,1.59,30.71.29a1.008,1.008,0,0,0-1.42,0L27.73,1.86l-2.41-.81a1,1,0,0,0-1.21.5L23.38,3H18a.977.977,0,0,0-.89.55l-1,2a1.027,1.027,0,0,0-.06.77L16.61,8H15a.984.984,0,0,0-.88.53.963.963,0,0,0,.05,1.02l1.54,2.32-.42.42a1,1,0,0,0-.07,1.33l2.98,3.73a4.986,4.986,0,0,0-1.73,8.19,5.053,5.053,0,0,0,2.69,1.38A13.037,13.037,0,0,0,27,37v3.23L14.7,43.46A9.03,9.03,0,0,0,8,52.17V61a1,1,0,0,0,1,1H55a1,1,0,0,0,1-1V52.17A9.028,9.028,0,0,0,49.29,43.46ZM47,22a3,3,0,0,1-.87,2.12,2.951,2.951,0,0,1-1.13.69V19.18A3.01,3.01,0,0,1,47,22ZM19,24.82a3.179,3.179,0,0,1-1.12-.69A3,3,0,0,1,19,19.18ZM17.34,13.07l.37-.36a1,1,0,0,0,.12-1.26L16.87,10H18a.983.983,0,0,0,.81-.42,1,1,0,0,0,.14-.9l-.87-2.6L18.62,5H24a.977.977,0,0,0,.89-.55l.62-1.23,2.17.73a1.028,1.028,0,0,0,1.03-.24L30,2.41l1.29,1.3a1.008,1.008,0,0,0,1.42,0L34,2.41l1.29,1.3a1.007,1.007,0,0,0,1.03.24l2.17-.73.62,1.23A.977.977,0,0,0,40,5h5.38l.54,1.08-.87,2.6a1,1,0,0,0,.14.9A.983.983,0,0,0,46,10h1.13l-.96,1.45a1,1,0,0,0,.12,1.26l.37.36-3.07,3.85L32.16,15.01a1.71,1.71,0,0,0-.32,0L20.41,16.92ZM21,25V18.85l11-1.84,11,1.84V25a11,11,0,0,1-22,0Zm7.25,16.97A1.014,1.014,0,0,0,29,41V37.64a12.68,12.68,0,0,0,6,0V41a1.014,1.014,0,0,0,.75.97l2.21.58C37.63,45.05,35.09,47,32,47s-5.63-1.95-5.96-4.45ZM21,60H10V52.17a7.019,7.019,0,0,1,5.21-6.77L21,43.88Zm20,0H23V43.35l1.1-.29C24.69,46.42,28,49,32,49s7.31-2.58,7.9-5.94l1.1.29Zm13,0H43V43.88l5.78,1.52A7.017,7.017,0,0,1,54,52.17Z"/><path d="M37,29H35c0,.249-1.064,1-3,1s-3-.751-3-1H27c0,1.71,2.149,3,5,3S37,30.71,37,29Z"/></g></svg>
