<?xml version="1.0" encoding="UTF-8"?>
<svg xmlns="http://www.w3.org/2000/svg" viewBox="0 0 64 64" width="512" height="512"><g id="avatar-man-people-user-boy"><path d="M29,23a3,3,0,0,0-6,0h2a1,1,0,0,1,2,0Z"/><path d="M38,22a1,1,0,0,1,1,1h2a3,3,0,0,0-6,0h2A1,1,0,0,1,38,22Z"/><path d="M49.29,43.46,37,40.23V37a13.022,13.022,0,0,0,7.84-10.08A4.967,4.967,0,0,0,48,19.03V18a16,16,0,0,0-32,0v1.03A4.939,4.939,0,0,0,15,22a4.982,4.982,0,0,0,4.16,4.92A13.037,13.037,0,0,0,27,37v3.23L14.7,43.46A9.03,9.03,0,0,0,8,52.17V61a1,1,0,0,0,1,1H55a1,1,0,0,0,1-1V52.17A9.028,9.028,0,0,0,49.29,43.46ZM47,22a3.022,3.022,0,0,1-.87,2.12,2.951,2.951,0,0,1-1.13.69V19.18A3.01,3.01,0,0,1,47,22ZM19,24.82a3.179,3.179,0,0,1-1.12-.69A3,3,0,0,1,19,19.18ZM20,17a5,5,0,0,0-1.97.41,13.973,13.973,0,0,1,23.86-9.3,13.808,13.808,0,0,1,4.08,9.3A4.959,4.959,0,0,0,44,17h-.86a3.006,3.006,0,0,1-2.5-1.34l-.81-1.21a.983.983,0,0,0-1.1-.41l-4.81,1.37a6.962,6.962,0,0,1-3.84,0l-4.81-1.37a.983.983,0,0,0-1.1.41l-.81,1.21A3.006,3.006,0,0,1,20.86,17Zm1,8V19a4.993,4.993,0,0,0,4.02-2.23l.41-.61,4.1,1.17a9.014,9.014,0,0,0,4.94,0l4.1-1.17.41.61A4.993,4.993,0,0,0,43,19v6a11,11,0,0,1-22,0ZM35,37.64V40.7l-3,4.5-3-4.5V37.64a12.68,12.68,0,0,0,6,0ZM16,60H10V52.17a7.008,7.008,0,0,1,5.21-6.77l.79-.21Zm4,0H18V44.66l2-.52Zm4,0H22V43.61l1.63-.43.37.52Zm4,0H26V46.45l2,2.75Zm6,0H30V51.95l1.19,1.64a1.005,1.005,0,0,0,1.62,0L34,51.95Zm4,0H36V49.2l2-2.75Zm-6-8.7-6.3-8.66,1.86-.49,3.61,5.4a.99.99,0,0,0,1.66,0l3.61-5.4,1.86.49ZM42,60H40V43.7l.37-.52,1.63.43Zm4,0H44V44.14l2,.52Zm8,0H48V45.19l.78.21A7.006,7.006,0,0,1,54,52.17Z"/><path d="M37,29H35c0,.249-1.064,1-3,1s-3-.751-3-1H27c0,1.71,2.149,3,5,3S37,30.71,37,29Z"/></g></svg>
