<?xml version="1.0" encoding="UTF-8"?>
<svg xmlns="http://www.w3.org/2000/svg" viewBox="0 0 64 64" width="512" height="512"><g id="avatar-people-user-man-boy"><path d="M29,23a3,3,0,0,0-6,0h2a1,1,0,0,1,2,0Z"/><path d="M38,22a1,1,0,0,1,1,1h2a3,3,0,0,0-6,0h2A1,1,0,0,1,38,22Z"/><path d="M49.29,43.46,37,40.23V37a13.022,13.022,0,0,0,7.84-10.08,4.914,4.914,0,0,0,3.85-3.23,4.974,4.974,0,0,0,.98-8.9A4.9,4.9,0,0,0,50,13a5.021,5.021,0,0,0-4.08-4.92A5.021,5.021,0,0,0,41,4a4.9,4.9,0,0,0-1.79.33A4.979,4.979,0,0,0,35,2a4.92,4.92,0,0,0-3,1.02A4.92,4.92,0,0,0,29,2a4.979,4.979,0,0,0-4.21,2.33A4.9,4.9,0,0,0,23,4a5.021,5.021,0,0,0-4.92,4.08A5.021,5.021,0,0,0,14,13a4.9,4.9,0,0,0,.33,1.79,4.974,4.974,0,0,0,.98,8.9,5.074,5.074,0,0,0,1.16,1.85,4.986,4.986,0,0,0,2.69,1.38A13.022,13.022,0,0,0,27,37v3.23L14.7,43.46A9.03,9.03,0,0,0,8,52.17V61a1,1,0,0,0,1,1H55a1,1,0,0,0,1-1V52.17A9.028,9.028,0,0,0,49.29,43.46ZM46.13,24.12a2.951,2.951,0,0,1-1.13.69V22a13.333,13.333,0,0,0-.34-2.92A2.992,2.992,0,0,1,47,22,3.022,3.022,0,0,1,46.13,24.12ZM19,22v2.82a3.179,3.179,0,0,1-1.12-.69A3.03,3.03,0,0,1,17,22a2.992,2.992,0,0,1,2.34-2.92A13.333,13.333,0,0,0,19,22Zm-2.28-3.76a5.01,5.01,0,0,0-1.65,3.06A3,3,0,0,1,14,19a2.968,2.968,0,0,1,2.02-2.81,1.035,1.035,0,0,0,.62-.64.99.99,0,0,0-.13-.88A2.964,2.964,0,0,1,16,13a3.009,3.009,0,0,1,3-3,1,1,0,0,0,1-1,3.009,3.009,0,0,1,3-3,2.964,2.964,0,0,1,1.67.51.99.99,0,0,0,.88.13,1.035,1.035,0,0,0,.64-.62A2.968,2.968,0,0,1,29,4a3.008,3.008,0,0,1,2.25,1.04,1.033,1.033,0,0,0,1.5,0A3.008,3.008,0,0,1,35,4a2.968,2.968,0,0,1,2.81,2.02,1.035,1.035,0,0,0,.64.62.99.99,0,0,0,.88-.13A2.964,2.964,0,0,1,41,6a3.009,3.009,0,0,1,3,3,1,1,0,0,0,1,1,3.009,3.009,0,0,1,3,3,2.964,2.964,0,0,1-.51,1.67.99.99,0,0,0-.13.88,1.035,1.035,0,0,0,.62.64A2.968,2.968,0,0,1,50,19a3,3,0,0,1-1.07,2.3A4.99,4.99,0,0,0,44,17a13.207,13.207,0,0,0-4.71-5.76A12.994,12.994,0,0,0,20,17,4.955,4.955,0,0,0,16.72,18.24Zm24.67-1.93a14.974,14.974,0,0,0-18.78,0,10.957,10.957,0,0,1,18.78,0ZM21,25V22c0-.34.02-.67.05-1a12.992,12.992,0,0,1,21.9,0c.03.33.05.66.05,1v3a11,11,0,0,1-22,0Zm7.25,16.97A1.014,1.014,0,0,0,29,41V37.64a12.68,12.68,0,0,0,6,0V41a1.014,1.014,0,0,0,.75.97l3.74.98C38.38,44.03,35.54,45,32,45s-6.38-.97-7.49-2.05ZM14,60H10V52.17a7.019,7.019,0,0,1,5.21-6.77l1.52-.4A32.358,32.358,0,0,1,17,49C17,56.12,15.02,60,14,60Zm2.78,0C18.24,57.57,19,53.28,19,49a33.166,33.166,0,0,0-.32-4.52l3.75-.98C23.65,45.58,27.4,47,32,47s8.35-1.42,9.57-3.5l3.75.98A33.166,33.166,0,0,0,45,49c0,4.28.76,8.57,2.22,11ZM54,60H50c-1.02,0-3-3.88-3-11a32.358,32.358,0,0,1,.27-4l1.51.4A7.017,7.017,0,0,1,54,52.17Z"/><path d="M37,29H35c0,.249-1.064,1-3,1s-3-.751-3-1H27c0,1.71,2.149,3,5,3S37,30.71,37,29Z"/></g></svg>
