<svg width="20" height="21" viewBox="0 0 20 21" fill="none" xmlns="http://www.w3.org/2000/svg">
<path d="M3.96509 6.75506C3.96509 7.81581 4.82794 8.67862 5.88849 8.67862C6.94923 8.67862 7.81204 7.81577 7.81204 6.75506C7.81204 5.69448 6.94919 4.83167 5.88849 4.83167C4.82794 4.83167 3.96509 5.69448 3.96509 6.75506ZM6.56017 6.75506C6.56017 7.12549 6.2588 7.42674 5.88849 7.42674C5.51821 7.42674 5.217 7.12553 5.217 6.75506C5.217 6.38479 5.51821 6.08358 5.88849 6.08358C6.2588 6.08358 6.56017 6.38479 6.56017 6.75506Z" fill="black"/>
<path d="M13.726 4.83167C12.6653 4.83167 11.8025 5.69452 11.8025 6.75506C11.8025 7.81581 12.6653 8.67862 13.726 8.67862C14.7866 8.67862 15.6494 7.81577 15.6494 6.75506C15.6495 5.69448 14.7866 4.83167 13.726 4.83167ZM13.726 7.4267C13.3558 7.4267 13.0544 7.12549 13.0544 6.75502C13.0544 6.38475 13.3557 6.08354 13.726 6.08354C14.0964 6.08354 14.3975 6.38475 14.3975 6.75502C14.3975 7.12549 14.0964 7.4267 13.726 7.4267Z" fill="black"/>
<path fill-rule="evenodd" clip-rule="evenodd" d="M4.88769 0H14.7269C16.6343 0 18.186 1.55172 18.1861 3.45895V9.92334C17.5151 9.49882 16.755 9.20373 15.9405 9.07411C16.5524 8.48958 16.9341 7.66603 16.9341 6.755C16.9341 4.98613 15.495 3.54699 13.7261 3.54699C11.9572 3.54699 10.5181 4.98613 10.5181 6.755C10.5181 8.01919 11.2531 9.11497 12.3183 9.63733C11.904 9.84646 11.517 10.1024 11.1642 10.3979C11.142 10.3823 11.12 10.3665 11.0982 10.3504L10.9757 10.5625C10.5305 10.9678 10.1461 11.4388 9.83768 11.9597C9.8276 11.9601 9.81749 11.9604 9.80734 11.9604C9.58375 11.9604 9.37699 11.841 9.26527 11.6474L8.51644 10.3504C7.86472 10.8282 7.08101 11.1329 6.22925 11.1977C7.39648 12.6441 8.99128 15.2377 9.16449 18.7481H10.3096C10.6977 19.2325 11.1597 19.6554 11.6785 20H7.78718C4.28101 20 1.42859 17.1476 1.42859 13.6416V3.45895C1.42859 1.55172 2.98031 0 4.88769 0ZM10.2476 3.96602L12.2273 1.25191H7.38726L9.36706 3.96602C9.36988 3.96992 9.37211 3.97408 9.37433 3.97825C9.3762 3.98176 9.37807 3.98528 9.38031 3.98863C9.53937 4.18898 9.68402 4.40141 9.80734 4.62758C9.9305 4.40141 10.0752 4.18898 10.2343 3.98863C10.2365 3.98536 10.2383 3.98195 10.2401 3.97853C10.2424 3.97427 10.2446 3.97 10.2476 3.96602ZM9.8073 10.0825L10.1761 9.44375C10.0644 9.29656 9.96121 9.14313 9.86804 8.98254H9.74648C9.65339 9.14316 9.55007 9.2966 9.43839 9.44375L9.8073 10.0825ZM5.88851 9.96301C7.65738 9.96301 9.09652 8.52391 9.09652 6.755C9.09652 4.98609 7.65742 3.54699 5.88851 3.54699C4.11964 3.54699 2.6805 4.98613 2.6805 6.755C2.6805 8.52387 4.11964 9.96301 5.88851 9.96301ZM5.83773 1.25191H4.88765C3.67062 1.25191 2.68046 2.24203 2.68046 3.45895H2.6805V3.66434C3.4923 2.82203 4.6291 2.29508 5.88851 2.29508C6.14843 2.29508 6.40175 2.32215 6.64968 2.36508L5.83773 1.25191ZM2.6805 13.6416C2.6805 16.4573 4.97128 18.7481 7.78714 18.7481V18.748H7.90988C7.65636 14.2163 4.73093 11.3405 4.25273 10.9001C3.65445 10.663 3.11988 10.3016 2.6805 9.84578V13.6416ZM13.7261 2.29508C14.9855 2.29508 16.1223 2.82199 16.9341 3.66434V3.45898C16.9341 2.24203 15.944 1.25191 14.7269 1.25191H13.7768L12.9649 2.36508C13.2128 2.32215 13.4661 2.29508 13.7261 2.29508Z" fill="black"/>
<path d="M10 15.0313C10 12.2708 12.2396 10 15 10C17.7604 10 20 12.2708 20 15.0313C20 17.7917 17.7604 20.0313 15 20.0313C12.2396 20.0313 10 17.7917 10 15.0313ZM15.5556 12.7778C15.5556 12.5035 15.3056 12.2222 15 12.2222C14.6944 12.2222 14.4444 12.5035 14.4444 12.7778V14.4444H12.7778C12.4722 14.4444 12.2222 14.7257 12.2222 15C12.2222 15.3368 12.4722 15.5556 12.7778 15.5556H14.4444V17.2222C14.4444 17.559 14.6944 17.7778 15 17.7778C15.3056 17.7778 15.5556 17.559 15.5556 17.2222V15.5556H17.2222C17.5278 15.5556 17.7778 15.3368 17.7778 15C17.7778 14.7257 17.5278 14.4444 17.2222 14.4444H15.5556V12.7778Z" fill="black"/>
</svg>
