<svg xmlns="http://www.w3.org/2000/svg" width="24" height="24" viewBox="0 0 24 24">
  <g fill="none" fill-rule="evenodd">
    <path fill="#000000" d="M12.0021753,17.5150251 L7.43017527,20.8070251 C6.75217527,21.2950251 5.85117527,20.6210251 6.11617527,19.8250251 L7.84317527,14.6470251 L3.37117527,11.5450251 C2.67917527,11.0610251 3.01917527,9.9890251 3.86017527,9.9890251 L9.43217527,9.9890251 L11.1861753,4.6010251 C11.3162597,4.20223344 11.5,3.99999653 12.0068225,4 C12,6.99999653 12.0021753,17.5150251 12.0021753,17.5150251 Z"/>
    <path fill="#FBFBFB" d="M21.0021753,17.5150251 L16.4301753,20.8070251 C15.7521753,21.2950251 14.8511753,20.6210251 15.1161753,19.8250251 L16.8431753,14.6470251 L12.3711753,11.5450251 C11.6791753,11.0610251 12.0191753,9.9890251 12.8601753,9.9890251 L18.4321753,9.9890251 L20.1861753,4.6010251 C20.3162597,4.20223344 20.5,3.99999653 21.0068225,4 C21,6.99999653 21.0021753,17.5150251 21.0021753,17.5150251 Z" transform="matrix(-1 0 0 1 33.007 0)"/>
  </g>
</svg>
