<?xml version="1.0" encoding="utf-8"?><svg version="1.1" id="Layer_2_00000024694682618010253080000016509337062746133659_" xmlns="http://www.w3.org/2000/svg" xmlns:xlink="http://www.w3.org/1999/xlink" x="0px" y="0px" viewBox="0 0 570.3 150.3" style="enable-background:new 0 0 570.3 150.3" xml:space="preserve"><style type="text/css">.st0{fill:#B39856;}</style><path class="st0" d="M569.3 53.8c5.8-19.7-12.7-46.6-53.8-52.8-28.2-4.3-53.5 7-69.8 17.2-.2-.4-.5-.8-.8-1.3-8.4-12.7-26.4-8.7-34.6-6.2s-29.3 8.9-44.5 5.4c-15.1-3.6-35.9-9.8-49.5-11.8s-25.7 2-21.3 11.4c4.3 9.1 12.4 11.3 16.8 14 5.2 3.2 7.2 8.3-4.6 3.8-10-3.8-13.5-8.9-13.5-8.9s3.3 2.8 4.7.1c1.4-2.6-10.4-3.9-8.4-14 1.7-8.5-2.2-10.4-5.1-10.8-2.9.4-6.8 2.4-5.1 10.8 2 10.1-9.8 11.3-8.4 14s4.7-.1 4.7-.1-3.5 5.1-13.5 8.9c-11.8 4.5-9.8-.7-4.6-3.9 4.5-2.7 12.5-4.9 16.8-14 4.5-9.4-7.7-13.4-21.3-11.4s-34.3 8.3-49.4 11.8c-15.1 3.6-36.3-2.9-44.4-5.4-8.1-2.5-26.2-6.4-34.6 6.2-.3.4-.5.8-.8 1.3C108.3 8 83.1-3.3 54.8 1 13.8 7.3-4.8 34.2 1 53.8c.4 1.5 1 2.9 1.7 4.2C-.2 64.4-.8 71 1 76.9c2.5 8.2 8.6 12.7 17.4 17.7.1.1.2.1.4.2-6.3 8.6 1.4 14.8 1.4 14.8-1.7-2.8-2.8-6.9 1.4-13 5.9 4.3 7 8.8 3.9 12.7-1.4 1.3-2.8 2.7-4.4 4.1-10.2 9.5-.9 16.6-.9 16.6-2.3-3.7-3.5-9.7 8.8-20 10.8-9 8-15.7 0-21.5 12-10.5 6.9-17.7-2.4-25.3-6.1-5-12.1-9.1-14.2-14.3C25 32.8 48.6 27.1 71 33.4c18.6 5.2 25.4 7.6 33.5 5.9 5.1-1.1 13-5.3 11.1-10.9s-11-5.6-14.9-4.5c-3.9 1-6.9 1.9-8-.1s4.4-2.9 4.4-2.9c-2.6-1.2-8.6-1.6-9.9 3.2-1.3 4.8 4.2 5.4 10.4 3.8s12 5.7 1.3 8.6c-10.7 2.9-29.5-9.6-50-8.5-16.9 1-30.8 8-37.3 16.5 0-1 .2-2.1.5-3.2 2.6-9.4 23.7-23.7 59.4-26.3 22.3-1.6 39 2.8 50.8 8.1l.6.3c-1.7 8.5 4.3 15.7 7.9 19.4.4.4.8.9 1.2 1.4 0 0-.1 0-.1.1.5.6.9 1.4 1.1 2.1.1 0 .2-.1.3-.1 2.2 4 2.2 8.6-.5 11.8-4.1 4.7-8.7.9-8.7.9 2.1 3.4 7 5.2 11.7.8 4.4-4 2.4-9.7 0-13.9-1.6-1.5-2.9-3.3-3.7-5.3-2.3-2.8-6.6-7.7-5-15.1 16.9 8.3 29.9 11 47.9 11 .9 0 1.6 0 2.3-.1 6.4-.2 13.5-1.1 19.3-3 10.9-3.6 25-11.3 36.4-15.6s22.7-5.8 25.7-3.9 1.1 4.5-.8 3.9c-2-.6-2.5-2.8-6.1-2.1-2.1.5-4.6 3.6-3.4 6.8 0 0 1.6-4 4.6-3.4 3 .6 3.1 4.3 8.9 3.1s6.8-6.8 1.5-10.3c-6.3-4.1-19.6-1.7-27.5 1.8-10.3 4.5-31.9 16.7-49 19-3.3.4-6.2.6-8.7.7-22.8 0-41.1-8.4-49.2-12.8 6.6-12.6 25.7-8.8 39.7-5 14.1 3.8 24.7 5.6 37.3 3.6 12.6-2 38.1-10.7 50-12.3s17.5 4.2 14.8 10.8-13.9 9.5-19.6 13.3c-5.7 3.7-4.7 12.3 13 4.9 17.1-7.1 20.6-15.6 20.6-15.6-9.8 4-1.6-2.8-2.3-8.2-.5-4.2 1.2-6.2 3-6.9 1.8.7 3.5 2.7 3 6.9-.6 5.4 7.5 12.2-2.3 8.2 0 0 3.5 8.5 20.6 15.6 17.7 7.4 18.7-1.2 13-4.9-5.8-3.7-16.9-6.7-19.6-13.3-2.7-6.6 2.8-12.4 14.8-10.8 11.9 1.6 37.4 10.3 50 12.3 12.6 2 23.2.2 37.3-3.6 14-3.8 33.1-7.6 39.7 5-8.1 4.4-26.4 12.8-49.2 12.8-2.5-.1-5.4-.3-8.7-.7-17.1-2.2-38.7-14.4-49-19-7.9-3.5-21.2-5.9-27.5-1.8-5.3 3.4-4.3 9.1 1.5 10.3 5.8 1.2 5.9-2.5 8.9-3.1s4.6 3.4 4.6 3.4c1.2-3.2-1.2-6.4-3.4-6.8-3.5-.7-4.1 1.5-6.1 2.1-2 .6-3.8-1.9-.8-3.9 3-1.9 14.3-.4 25.7 3.9 11 4.4 25.1 12.2 36 15.7 5.8 1.9 12.9 2.8 19.3 3 .6 0 1.4.1 2.3.1 18 0 31-2.8 47.9-11 1.6 7.4-2.7 12.3-5 15.1-.8 2-2.1 3.8-3.7 5.3-2.4 4.2-4.4 9.9 0 13.9 4.8 4.3 9.6 2.6 11.8-.8 0 0-4.7 3.9-8.7-.9-2.8-3.2-2.7-7.8-.5-11.8.1 0 .2.1.3.1.3-.8.6-1.5 1.1-2.1l-.1-.1c.4-.5.7-.9 1.2-1.4 3.6-3.7 9.5-10.9 7.9-19.4l.6-.3c11.8-5.3 28.5-9.8 50.8-8.1 35.7 2.6 56.7 17 59.4 26.3.3 1.1.5 2.2.5 3.2-6.5-8.5-20.5-15.6-37.3-16.5-20.5-1.1-39.3 11.4-50 8.5-10.7-2.9-4.8-10.2 1.3-8.6 6.1 1.6 11.7 1 10.4-3.8s-7.3-4.4-9.9-3.2c0 0 5.6.9 4.4 2.9-1.2 2-4.1 1.2-8 .1s-13-1-14.9 4.5c-1.9 5.6 6 9.8 11.1 10.9 8 1.7 14.9-.8 33.5-5.9 22.4-6.2 46-.5 58.7 15.5-2.2 5.2-8.1 9.4-14.2 14.3-9.3 7.6-14.4 14.8-2.4 25.3-8 5.8-10.7 12.4.1 21.5 12.3 10.3 11.1 16.3 8.8 20 0 0 9.4-7.2-.9-16.6-1.6-1.5-3.1-2.8-4.4-4.1-3.1-3.9-2-8.4 3.9-12.7 4.2 6.1 3.1 10.2 1.4 13 0 0 7.8-6.2 1.4-14.8.1-.1.2-.1.3-.2 8.8-5 14.8-9.5 17.3-17.7 1.8-5.9 1.2-12.4-1.7-18.9.3-1.4.8-2.7 1.3-4.3zM29.4 105c.4-2 0-4.6-2.8-7.7C20.7 91 4 86 2.6 73.2c-.3-3.1-.1-6.8 1.1-10.7-1.2 10.6 5.8 17.8 20.2 26.9 9.4 5.9 9.5 10.4 5.5 15.6zM6.2 63.1c3.1 3.5 7.2 6.3 12.2 9.3 7.9 4.7 10.3 9.8 7.8 14.3l-.1-.1C17.5 81.3 5.7 74.7 6.2 63.1zm64.2-51.9C29.2 13.9 9.9 33.1 8.8 41.9s2.9 13.7 16.4 24.3c9.1 7.1 8.6 12 4.2 17.5.4-2.1.1-5-2.8-8.3-5.9-6.7-22.6-12-24-25.4C1.2 36.5 9.7 13.6 51.3 5.3c34.2-6.8 61.1 8.6 71.6 15.3C110 14.9 92 9.7 70.4 11.2zM541 83.6c-4.4-5.5-4.8-10.4 4.2-17.5 13.5-10.5 17.5-15.5 16.4-24.3s-20.4-28-61.7-30.7c-21.6-1.4-39.5 3.7-52.5 9.5 10.5-6.7 37.4-22.1 71.6-15.3 41.7 8.2 50.1 31.2 48.7 44.6s-18.1 18.7-24 25.3c-2.9 3.4-3.2 6.3-2.7 8.4zm3.3 3-.1.1c-2.5-4.4-.1-9.6 7.8-14.3 5-3 9.1-5.8 12.2-9.3.4 11.6-11.3 18.2-19.9 23.5zm23.5-13.4c-1.4 12.8-18.1 17.8-24 24.2-2.8 3-3.2 5.7-2.8 7.7-4-5.2-3.9-9.7 5.5-15.6 14.4-9.1 21.4-16.3 20.2-26.8 1.1 3.7 1.4 7.4 1.1 10.5z"/><path class="st0" d="M285.1 30c-2.4 5.4-8.2 8.1-13.6 8.1 1.4 1.4 3 1.9 4.2 2 2.3.2 4.8-.6 6.1-2l2-2.1-.7 2.9c-.3 1.2-.4 2.1-.4 2.8.1 2.9 1.6 5.1 2.4 6 .8-1 2.4-3.2 2.4-6 0-.7-.1-1.6-.4-2.8l-.7-2.9 2 2.1c1.3 1.4 3.9 2.2 6.1 2 1.2-.1 2.8-.6 4.2-2-5.4-.1-11.2-2.7-13.6-8.1z"/></svg>