<?xml version="1.0" encoding="UTF-8"?><!DOCTYPE svg PUBLIC "-//W3C//DTD SVG 1.1//EN" "http://www.w3.org/Graphics/SVG/1.1/DTD/svg11.dtd"><svg xmlns="http://www.w3.org/2000/svg" xmlns:xlink="http://www.w3.org/1999/xlink"><symbol id="icon-avatar" viewBox="0 0 50 50"><path d="M13.005 44.629A22.893 22.893 0 0025 48a22.9 22.9 0 0011.019-2.806A1.005 1.005 0 0136 45c0-6.636-5.158-12-11.5-12-6.224 0-11.306 5.165-11.495 11.629zm-1.91-1.306C11.896 36.388 17.585 31 24.5 31c7.14 0 12.972 5.742 13.466 13C44.024 39.857 48 32.893 48 25 48 12.297 37.703 2 25 2S2 12.297 2 25c0 7.478 3.569 14.122 9.096 18.323zM25 50C11.193 50 0 38.807 0 25S11.193 0 25 0s25 11.193 25 25-11.193 25-25 25zm0-21c-6.075 0-11-4.925-11-11S18.925 7 25 7s11 4.925 11 11-4.925 11-11 11zm0-2a9 9 0 100-18 9 9 0 000 18zm-5-8a1 1 0 012 0 3 3 0 006 0 1 1 0 012 0 5 5 0 01-10 0z"/></symbol><symbol id="icon-error" viewBox="0 0 24 24"><path d="M12 23C5.925 23 1 18.075 1 12S5.925 1 12 1s11 4.925 11 11-4.925 11-11 11zm0-2a9 9 0 100-18 9 9 0 000 18zM11 8a1 1 0 112 0v4a1 1 0 01-2 0V8zm1 10a1 1 0 110-2 1 1 0 010 2z"/></symbol><symbol id="icon-eye-off" viewBox="0 0 24 24"><path d="M17.94 17.94A10.07 10.07 0 0112 20c-7 0-11-8-11-8a18.45 18.45 0 015.06-5.94M9.9 4.24A9.12 9.12 0 0112 4c7 0 11 8 11 8a18.5 18.5 0 01-2.16 3.19m-6.72-1.07a3 3 0 11-4.24-4.24M1 1l22 22" fill-rule="evenodd" stroke="#000" stroke-linecap="round" stroke-linejoin="round" stroke-width="2"/></symbol><symbol id="icon-eye" viewBox="0 0 24 24"><path d="M12 9a3 3 0 110 6 3 3 0 010-6zm0-4.5c5 0 9.27 3.11 11 7.5-1.73 4.39-6 7.5-11 7.5S2.73 16.39 1 12c1.73-4.39 6-7.5 11-7.5zM3.18 12a9.821 9.821 0 0017.64 0 9.821 9.821 0 00-17.64 0z"/></symbol><symbol id="icon-footer-events" viewBox="0 0 64 64"><g fill-rule="evenodd"><path fill-opacity=".2" d="M27 15.6l-6.5 6.6 23.2 24 6-2.5.6-7.3zM9.1 56.2h40.6v3.9H9.1z"/><path fill-rule="nonzero" d="M15.1 10.3c.8-.8.8-2 0-2.8-.8-.8-2-.8-2.8 0-.8.8-.8 2 0 2.8.8.7 2 .7 2.8 0zm5.7 1.5c.3 1 1.3 1.7 2.4 1.4s1.7-1.3 1.4-2.4c-.3-1-1.3-1.7-2.4-1.4-1 .3-1.7 1.4-1.4 2.4zm-6.6 1.8c-.3-1-1.3-1.7-2.4-1.4s-1.7 1.3-1.4 2.4 1.3 1.7 2.4 1.4c1.1-.3 1.7-1.4 1.4-2.4zm4.2-4.2c1 .3 2.1-.3 2.4-1.4.3-1-.3-2.1-1.4-2.4-1-.3-2.1.4-2.4 1.4-.3 1 .4 2.1 1.4 2.4zm.5 1.9c-.8-.8-2-.8-2.8 0-.8.8-.8 2 0 2.8.8.8 2 .8 2.8 0 .8-.8.8-2 0-2.8zm38.9 39.2L51 43.7l-.1-.1c1.9-2.8 1.6-6.7-.9-9.2L29.2 13.7v-1c0-3.1-1.2-6.1-3.4-8.3C23.6 2.2 20.6 1 17.5 1c-3.1 0-6.1 1.2-8.3 3.4C7 6.6 5.8 9.6 5.8 12.7c0 3.1 1.2 6.1 3.4 8.3 2.2 2.2 5.2 3.4 8.3 3.4h1l6.3 6.3v22.5H9.1c-1.6 0-3 1.3-3 3v3.9c0 1.6 1.3 3 3 3h40.6c1.6 0 3-1.3 3-3v-3.9c0-1.6-1.3-3-3-3H33.4V39.3l5.8 5.8c2.6 2.6 6.8 2.8 9.6.6v.1l6.8 6.8c.3.3.7.4 1 .4.4 0 .8-.1 1-.4.8-.6.8-1.5.2-2.1zm-40.3-29c-2.2 0-4.5-.9-6.2-2.6-3.4-3.4-3.4-9 0-12.4 1.7-1.7 4-2.6 6.2-2.6s4.5.9 6.2 2.6c3.4 3.4 3.4 9 0 12.4-1.7 1.7-3.9 2.6-6.2 2.6zm32.2 34.7v3.9H9.1v-3.9h40.6zm-19.1-2.9h-2.8V33.7l2.7 2.7v16.5c0 .1 0 .3.1.4zm17.3-10.6l-.4.4c-1.7 1.7-4.4 1.7-6.1 0L21.9 23.6c1.5-.6 2.8-1.5 3.9-2.6s2-2.5 2.6-3.9l19.5 19.5c1.7 1.6 1.7 4.4 0 6.1zM16.6 16c-1-.3-2.1.3-2.4 1.4-.3 1 .3 2.1 1.4 2.4 1 .3 2.1-.3 2.4-1.4.3-1.1-.3-2.1-1.4-2.4zm3.3-.9c-.8.8-.8 2 0 2.8s2 .8 2.8 0 .8-2 0-2.8c-.8-.8-2-.8-2.8 0z"/></g></symbol><symbol id="icon-footer-mastercard" viewBox="0 0 64 64"><g fill-rule="evenodd"><path fill-rule="nonzero" d="M11.9 56.4v-3.3c.1-1.1-.7-2-1.8-2.1h-.2c-.8 0-1.5.3-1.9 1-.4-.6-1-1-1.7-.9-.6 0-1.2.3-1.5.8v-.6H3.7v5.2h1.1v-2.9c-.1-.7.4-1.3 1-1.4H6c.7 0 1.1.5 1.1 1.4v2.9h1.1v-2.9c-.1-.7.4-1.3 1.1-1.4h.2c.8 0 1.1.5 1.1 1.4v2.9l1.3-.1zm16.9-5.2h-1.9v-1.6h-1.1v1.6h-1v1h1.1v2.4c0 1.2.5 1.9 1.8 1.9.5 0 1-.1 1.4-.4l-.3-1c-.3.2-.6.3-1 .3-.5 0-.7-.3-.7-.9v-2.4h1.8l-.1-.9zm9.6-.2c-.6 0-1.1.3-1.4.8v-.6h-1.1v5.2H37v-2.9c0-.9.4-1.3 1.1-1.3.2 0 .5 0 .7.1l.3-1.1c-.2-.1-.5-.2-.7-.2zm-14.6.6c-.6-.4-1.4-.6-2.1-.5-1.3 0-2.2.6-2.2 1.7 0 .8.6 1.4 1.8 1.5l.5.1c.6.1.9.2.9.5 0 .4-.4.6-1.2.6-.6 0-1.2-.2-1.7-.5l-.5.9c.7.5 1.4.7 2.2.7 1.5 0 2.4-.7 2.4-1.7s-.7-1.4-1.8-1.6l-.5-.1c-.5-.1-.9-.2-.9-.5s.4-.6 1-.6 1.1.2 1.6.4l.5-.9zM54 51c-.6 0-1.1.3-1.4.8v-.6h-1.1v5.2h1.1v-2.9c0-.9.4-1.3 1.1-1.3.2 0 .5 0 .7.1l.3-1.1c-.1-.1-.4-.2-.7-.2zm-14.5 2.8c-.1 1.4 1.1 2.7 2.5 2.7h.2c.7 0 1.3-.2 1.9-.6l-.5-.9c-.4.3-.9.5-1.4.5-.9-.1-1.6-.9-1.5-1.8.1-.8.7-1.5 1.5-1.5.5 0 1 .2 1.4.5l.5-.9c-.5-.6-1.1-.8-1.8-.8-1.4-.1-2.7 1-2.8 2.5v.3zm10.6 0v-2.6H49v.6c-.4-.5-1-.8-1.6-.8-1.5 0-2.7 1.2-2.7 2.7 0 1.5 1.2 2.7 2.7 2.7.6 0 1.2-.3 1.6-.8v.6h1.1v-2.4zm-4.2 0c.1-.9.8-1.5 1.7-1.5.9.1 1.5.8 1.5 1.7 0 .8-.7 1.5-1.6 1.5-.9 0-1.6-.7-1.6-1.5v-.2zM32.3 51c-1.5 0-2.7 1.3-2.7 2.7 0 1.5 1.3 2.7 2.7 2.7.8 0 1.5-.2 2.2-.7l-.5-.8c-.4.3-1 .5-1.5.5-.8.1-1.5-.5-1.6-1.3h3.8v-.4c0-1.6-1-2.6-2.4-2.7zm0 1c.7 0 1.3.5 1.3 1.3h-2.7c0-.7.6-1.3 1.4-1.3zm28.2 1.8v-4.7h-1.1v2.7c-.4-.5-1-.8-1.6-.8-1.5 0-2.7 1.2-2.7 2.7 0 1.5 1.2 2.7 2.7 2.7.6 0 1.2-.3 1.6-.8v.6h1.1v-2.4zm-4.1 0c.1-.9.8-1.5 1.7-1.5.9.1 1.5.8 1.5 1.7 0 .8-.7 1.5-1.6 1.5-.9 0-1.6-.7-1.6-1.5-.1-.2-.1-.2 0-.2zm-38.1 0v-2.6h-1.1v.6c-.4-.5-1-.8-1.6-.8-1.5 0-2.7 1.2-2.7 2.7 0 1.5 1.2 2.7 2.7 2.7.6 0 1.2-.3 1.6-.8v.6h1.1v-2.4zm-4.2 0c.1-.9.8-1.5 1.7-1.5.9.1 1.5.8 1.5 1.7 0 .8-.7 1.5-1.6 1.5-.9 0-1.6-.7-1.6-1.5v-.2z"/><path fill-opacity=".5" class="st0" d="M24.5 27c0-6 2.7-11.7 7.5-15.4C23.5 5 11.3 6.5 4.6 15S-.6 35.7 7.9 42.4c7.1 5.6 17 5.6 24.1 0-4.7-3.7-7.5-9.4-7.5-15.4z"/><path fill-opacity=".2" d="M63.6 27c0 10.8-8.7 19.5-19.5 19.5-4.4 0-8.6-1.5-12.1-4.2 8.5-6.7 9.9-18.9 3.3-27.4-1-1.2-2.1-2.3-3.3-3.3C40.5 5 52.7 6.5 59.4 15c2.7 3.4 4.2 7.6 4.2 12z"/><path fill-rule="nonzero" d="M35.3 15c-1-1.2-2.1-2.3-3.3-3.3-4.7 3.7-7.5 9.4-7.5 15.4s2.7 11.6 7.5 15.3c8.5-6.7 9.9-19 3.3-27.4z"/></g></symbol><symbol id="icon-footer-package" viewBox="0 0 64 64"><g fill-rule="evenodd"><path fill-opacity=".2" d="M9.2 31.1h45.7c1.7 0 3-1.4 3-3V19c0-1.7-1.4-3-3-3H9.2c-1.7 0-3 1.4-3 3v9c-.1 1.7 1.3 3.1 3 3.1z"/><path fill-rule="nonzero" d="M25.1 15.8c-7.6-3.6-10-7.5-6.1-11.5 2.4-2.4 5.2-2.3 7.7.1 2 2 3.9 5.7 5.9 11.1C36.8 4 41.4-.4 46.2 4.4c2.4 2.4 2.3 5.2-.1 7.7-1.3 1.3-3.2 2.5-5.9 3.8h14.7c1.7 0 3 1.4 3 3V28c0 1.7-1.4 3-3 3v27.4c0 1.7-1.4 3-3 3H12.2c-1.7 0-3-1.4-3-3V31.1c-1.7 0-3-1.4-3-3V19c0-1.7 1.4-3 3-3h15.9zM12.2 31.1v27.4h39.6V31.1H12.2zm-3-12.2V28h45.7v-9.1H9.2zm34.7-9c1.3-1.3 1.3-2.2.1-3.4-2.1-2.1-4.5 0-7.6 7.6 3.7-1.4 6.2-2.9 7.5-4.2zM24.6 6.7c-1.3-1.3-2.2-1.3-3.4-.1-2.1 2.1 0 4.5 7.6 7.6-1.5-3.7-2.9-6.2-4.2-7.5z"/></g></symbol><symbol id="icon-footer-positive" viewBox="0 0 64 64"><g fill-rule="evenodd"><path fill-rule="nonzero" d="M23.1 25.6v29.2H6.7V25.6h16.4m0-2.8H6.7c-1.5 0-2.8 1.3-2.8 2.8v29.2c0 1.5 1.3 2.8 2.8 2.8h16.4c1.5 0 2.8-1.3 2.8-2.8V25.6c0-1.6-1.3-2.8-2.8-2.8z"/><path fill-opacity=".2" d="M53.6 27.1H46c-3.9 0-7.1-3.2-7.1-7.1v-7.5c0-1.7-1.3-3.3-3-3.3-1.8-.1-3.3 1.4-3.3 3.2v8.3c0 3.6-2.9 6.4-6.4 6.4v25.2h20.1c2.6 0 4.9-1.7 5.7-4.1L57.1 32c.8-2.4-1-4.9-3.5-4.9z"/><path fill-rule="nonzero" d="M35.7 9.2h.2c1.7.1 3 1.6 3 3.3V20c0 3.9 3.2 7.1 7.1 7.1h7.6c2.5 0 4.3 2.5 3.6 4.9l-5.3 16.2c-.8 2.5-3.1 4.1-5.7 4.1H26.1V27.1c3.6 0 6.4-2.9 6.4-6.4v-8.3c0-1.8 1.4-3.2 3.2-3.2m0-2.8c-1.6 0-3.1.6-4.2 1.7s-1.7 2.6-1.7 4.2v8.3c0 2-1.6 3.6-3.6 3.6-1.5 0-2.8 1.3-2.8 2.8v25.2c0 .7.3 1.5.8 2s1.2.8 2 .8h20.1c3.8 0 7.2-2.4 8.3-6.1l5.3-16.2c.6-2 .3-4.2-.9-5.9-1.2-1.7-3.2-2.7-5.3-2.7h-7.6c-2.4 0-4.3-1.9-4.3-4.3v-7.5c0-3.3-2.5-6-5.6-6.1-.3.2-.4.2-.5.2z"/></g></symbol><symbol id="icon-footer-reading" viewBox="0 0 64 64"><g fill-rule="evenodd"><path fill-opacity=".2" class="st0" d="M15.5 41.6h41.9v15.2H15.5z"/><path fill-opacity=".2" class="st1" d="M13.9 19.6H55v9.2H13.9z"/><path fill-rule="nonzero" d="M58.6 44H18.5c-.8 0-1.4.6-1.4 1.4s.6 1.4 1.4 1.4h40.1c.8 0 1.4-.6 1.4-1.4s-.7-1.4-1.4-1.4zm0 4.1H18.5c-.8 0-1.4.6-1.4 1.4s.6 1.4 1.4 1.4h40.1c.8 0 1.4-.6 1.4-1.4s-.7-1.4-1.4-1.4zm0 4.1H18.5c-.8 0-1.4.6-1.4 1.4s.6 1.4 1.4 1.4h40.1c.8 0 1.4-.6 1.4-1.4s-.7-1.4-1.4-1.4zm.1 4.2h-41c-.8 0-1.4-.6-1.4-1.4V43.9c0-.8.6-1.4 1.4-1.4h41c1.7 0 2-2.5.3-2.8H44.6v-8.1H55c1.5 0 2.8-1.3 2.8-2.8v-9.2c0-1.5-1.3-2.8-2.8-2.8h-2.3V7.6c0-1.5-1.3-2.8-2.8-2.8h-41C7.2 4.8 6 6 6 7.6v9.2c0 1.5 1.3 2.8 2.8 2.8h2.3v9.2H6.7c-1.5 0-2.8 1.3-2.8 2.8v8.1c0 1.5 1.3 2.8 2.8 2.8h6.9c-.2.4-.3.9-.3 1.4V55c0 2.3 1.9 4.2 4.2 4.2h41.3c1.8-.2 1.5-2.8-.1-2.8zm-8.4-36.8h4.6v9.2h-41v-9.2h36.4zM8.8 7.6h41v3.1h-41V7.6zm0 9.2v-3.3h41v3.3h-41zM6.7 39.7v-8.1h35v8.1h-35z"/></g></symbol><symbol id="icon-footer-shipping" viewBox="0 0 64 64"><g fill-rule="evenodd"><path fill-opacity=".2" d="M13.8 33.8V13.1c0-.8.6-1.4 1.4-1.4h26.2c.8 0 1.4.6 1.4 1.4v20.7"/><path fill-rule="nonzero" d="M57.9 49c-.3 3.1-3 5.5-6.2 5.5s-5.8-2.4-6.2-5.5H30.3c-.3 3.1-3 5.5-6.2 5.5S18.3 52.1 18 49h-2.8c-1.5 0-2.8-1.2-2.8-2.8V13.1c0-1.5 1.2-2.8 2.8-2.8h26.2c1.5 0 2.8 1.2 2.8 2.8v5.5h4.6c2.4 0 4.5 1.5 5.3 3.8l3.3 10.1 1.8 1.4c2.8 2.1 4.4 5.4 4.4 8.8v3.4c0 1.5-1.2 2.8-2.8 2.8h-2.9zm-12-2.8a6.3 6.3 0 015.9-4.1c2.7 0 5 1.7 5.9 4.1h3.1v-3.4c0-2.6-1.2-5.1-3.3-6.6l-1.3-1H15.3v11h3.1c.9-2.4 3.2-4.1 5.9-4.1s5 1.7 5.9 4.1h15.7zm-4.5-13.8V13.1H15.2v19.3h26.2zm2.8 0h10.1l-2.9-9.1c-.4-1.1-1.4-1.9-2.6-1.9h-4.6v11zM24.1 51.7c1.9 0 3.4-1.5 3.4-3.4s-1.5-3.4-3.4-3.4-3.4 1.5-3.4 3.4 1.5 3.4 3.4 3.4zm0-1.4c-1.1 0-2.1-.9-2.1-2.1 0-1.1.9-2.1 2.1-2.1s2.1.9 2.1 2.1c0 1.2-.9 2.1-2.1 2.1zm27.6 1.4c1.9 0 3.4-1.5 3.4-3.4s-1.5-3.4-3.4-3.4-3.4 1.5-3.4 3.4 1.5 3.4 3.4 3.4zm0-1.4c-1.1 0-2.1-.9-2.1-2.1s.9-2.1 2.1-2.1c1.1 0 2.1.9 2.1 2.1s-.9 2.1-2.1 2.1zM41.4 37.9c0-.8.6-1.4 1.4-1.4s1.4.6 1.4 1.4v8.3c0 .8-.6 1.4-1.4 1.4s-1.4-.6-1.4-1.4v-8.3zm7-7.8c-.2-.7.1-1.5.9-1.7.7-.2 1.5.1 1.7.9l1.4 4.1c.2.7-.1 1.5-.9 1.7-.7.2-1.5-.1-1.7-.9l-1.4-4.1zm-40.1-17c.8 0 1.4.6 1.4 1.4 0 .8-.6 1.4-1.4 1.4H6.9c-.8 0-1.4-.6-1.4-1.4 0-.8.6-1.4 1.4-1.4h1.4zm0 16.5c.8 0 1.4.6 1.4 1.4 0 .8-.6 1.4-1.4 1.4H6.9c-.8 0-1.4-.6-1.4-1.4 0-.8.6-1.4 1.4-1.4h1.4zm0-11c.8 0 1.4.6 1.4 1.4 0 .8-.6 1.4-1.4 1.4H1.4C.6 21.4 0 20.7 0 20c0-.8.6-1.4 1.4-1.4h6.9zm0 5.5c.8 0 1.4.6 1.4 1.4s-.7 1.4-1.4 1.4H2.8c-.8 0-1.4-.6-1.4-1.4 0-.8.6-1.4 1.4-1.4h5.5z"/></g></symbol><symbol id="icon-footer-stores" viewBox="0 0 64 64"><g fill-rule="evenodd"><path fill-opacity=".2" class="st0" d="M20 39.7h14.1v14.1H20z"/><path fill-rule="nonzero" class="st1" d="M15.8 14.3c.7-6.7 5.8-7.1 10.4-7.1 4.6 0 9.7.3 10.4 7.1h6c1.6 0 2.8 1.3 2.8 2.8v39.6H8.7V17.1c0-1.6 1.3-2.8 2.8-2.8h4.3zm0 2.8h-4.3v36.7h31.1V17.1h-6c-.6 7.2-6.5 7.5-10.4 7.5-3.9.1-9.8-.3-10.4-7.5zm16.8-.4l1.5-1.5-1.7-1.7c-1.9-1.9-3.3-3.2-6.3 0-1.3-1.4-3.4-4.3-7.6 1.7l7.8 7.8 1.5-1.5-6.5-6.5c1.4-1.7 2.2-.9 3-.1l5 5 1.5-1.5-3.4-3.4c1.5-1.8 2.3-.9 3.1-.1l2.1 1.8zm-4.1 40l-2.8.1v-.1H20c-1.6 0-2.8-1.3-2.8-2.8V39.7c0-1.6 1.3-2.8 2.8-2.8h14.1c1.6 0 2.8 1.3 2.8 2.8v14.1c0 1.6-1.3 2.8-2.8 2.8h-5.6zm-2.9-17H20v14.1h5.7V39.7zm2.9 0v14.1h5.7V39.7h-5.7zM3 34.1h8.5v22.6H.2V36.9c0-1.5 1.3-2.8 2.8-2.8zm5.7 19.8v-17H3v17h5.7zm36.7-17H61c1.6 0 2.8 1.3 2.8 2.8v17H42.6v-17c0-1.5 1.3-2.8 2.8-2.8zM61 39.7H45.4v14.1H61V39.7z"/></g></symbol><symbol id="icon-footer-tradition" viewBox="0 0 24 24"><g fill-rule="evenodd"><path fill-opacity=".2" d="M1.5 5.2h13.7V9h-4.4l-.5 1.1v11H5.4l-2.5-1.4L1.5 17z"/><path fill-opacity=".2" d="M9.7 11.8h12.6v10.9c0 .6-.5 1.1-1.1 1.1h-9.3c-1.2 0-2.2-1-2.2-2.2v-9.8z"/><path fill-rule="nonzero" d="M14.7 9V1.4H4.8V.3h9.8c.6 0 1.1.5 1.1 1.1v7.7h-1zm-4.4 11.5v1.1H5.4c-2.1 0-3.8-1.7-3.8-3.8V3h1.1v14.8c0 1.5 1.2 2.7 2.7 2.7h4.9zM22 8.8c.2.2.3.5.3.8v13.1c0 .6-.5 1.1-1.1 1.1h-9.3c-1.2 0-2.2-1-2.2-2.2V10.5c0-1.1.9-1.9 1.9-1.9h9.6c.3-.1.6 0 .8.2zm-10.4 3.5c-.3 0-.6-.1-.8-.2v9.5c0 .6.5 1.1 1.1 1.1h9.3V12.3h-9.6zM15.8 3v1.6c0 .6-.5 1.1-1.1 1.1H4.3C2.8 5.8 1.5 4.5 1.5 3S2.7.3 4.2.3h10.4c.6 0 1.1.5 1.1 1.1v1.5c.1 0 .1.1.1.1zm-1.1-.5V1.4H4.3c-.9 0-1.7.7-1.7 1.6s.7 1.6 1.6 1.6h10.4v-1H4.8c-.3 0-.5-.3-.5-.6s.2-.5.5-.5h9.9zm-3.1 7.1c-.5 0-.8.4-.8.8s.4.8.8.8h9.6V9.6h-9.6z"/></g></symbol><symbol id="icon-invoice" viewBox="0 0 24 24"><path d="M7.17 5A3.001 3.001 0 0110 3h4c1.306 0 2.417.835 2.83 2H17a3 3 0 013 3v10a3 3 0 01-3 3H7a3 3 0 01-3-3V8a3 3 0 013-3h.17zm0 2H7a1 1 0 00-1 1v10a1 1 0 001 1h10a1 1 0 001-1V8a1 1 0 00-1-1h-.17A3.001 3.001 0 0114 9h-4a3.001 3.001 0 01-2.83-2zM15 15a1 1 0 010 2h-2a1 1 0 010-2h2zm0-4a1 1 0 010 2H9a1 1 0 010-2h6zm-5-6a1 1 0 100 2h4a1 1 0 000-2h-4z"/></symbol><symbol id="icon-knihonaut" viewBox="0 0 50 50"><style>.st0{fill:#231f20}</style><path class="st0" d="M33.5 21.9l-17.8-1.1c-.5 0-.8-.4-.9-.8 0-.2-.8-4.1-.9-8-.1-4 1.7-8.7 1.8-8.9.1-.3.4-.5.7-.6.2 0 3.8-.8 9-.7 5.2.1 9.1 1.3 9.3 1.3.4.1.6.4.7.8 0 .2.8 4.1 1 8.3.1 4.3-1.9 8.9-2 9.1-.1.4-.5.6-.9.6zm-16.8-3l16.2 1c.5-1.4 1.6-4.6 1.5-7.6-.1-3.1-.6-6.1-.8-7.4-1.3-.3-4.4-1-8.2-1.1-3.8-.1-6.8.4-8 .6-.4 1.3-1.6 4.7-1.5 7.6.1 2.8.5 5.6.8 6.9zm3.5 16c-.5 0-1-.4-1-.9l-.6-9.7c0-.6.4-1 .9-1.1l9.7-.6c.6 0 1 .4 1.1.9l.6 9.7c0 .6-.4 1-.9 1.1l-9.8.6c.1 0 0 0 0 0zm.4-9.7l.5 7.7 7.7-.5-.5-7.7-7.7.5zm.2 22.6h-.1l-4.6-.7c-.3 0-.6-.2-.7-.5-.1-.3-.2-.6 0-.9l4.6-9.4c.2-.3.5-.5.9-.6l2.7-.1c.3 0 .6.1.8.4.2.2.3.6.2.9L21.8 47c-.1.5-.5.8-1 .8zm-3.1-2.5l2.4.3 2.1-8h-.7l-3.8 7.7zm11 2.7l-4.9-.3c-.3 0-.6-.2-.7-.4-.2-.2-.2-.5-.2-.8l2.3-10.2c.1-.4.5-.8.9-.8l2.3-.1c.3 0 .5.1.7.3.2.2.3.4.3.7l.3 10.6c0 .3-.1.5-.3.7-.2.2-.4.3-.7.3zm-3.6-2.2l2.6.1-.1-8.5h-.5l-2 8.4zM9 35.7c-.3 0-.5-.1-.7-.3l-2-2c-.4-.4-.4-1 0-1.4l7.6-7.6c.2-.2.4-.3.7-.3.3 0 .5.1.7.3l2 2c.4.4.4 1 0 1.4l-7.6 7.6c-.2.2-.4.3-.7.3zm-.6-3l.6.6 6.2-6.2-.6-.6-6.2 6.2zm31.9 2.2c-.3 0-.5-.1-.7-.3L32 27c-.4-.4-.4-1 0-1.4l2-2c.2-.2.5-.3.7-.3.3 0 .5.1.7.3l7.6 7.6c.2.2.3.4.3.7 0 .3-.1.5-.3.7l-2.1 2c-.1.2-.3.3-.6.3zm-6.1-8.6l6.2 6.2.6-.6-6.2-6.2-.6.6z"/><path class="st0" d="M43.2 38.3c-.1 0-.3 0-.4-.1L40 36.9c-.4-.2-.6-.5-.6-.9l.1-2.1c0-.3.1-.5.3-.7l2-1.9c.3-.3.8-.4 1.2-.2l2.2 1.3c.3.2.5.6.5 1l-.2 2.6c0 .2-.1.4-.3.6L43.9 38c-.2.2-.4.3-.7.3zm-1.7-2.9l1.5.7.6-.7.1-1.7-1-.6-1.1 1.1-.1 1.2zM6.4 38.8c-.2 0-.5-.1-.6-.2l-1.6-1.3c-.2-.2-.3-.4-.4-.7l-.3-2.7c0-.4.2-.9.6-1l2.4-1c.4-.2.8-.1 1.1.2l1.9 1.8c.2.1.3.3.3.6l.3 1.9c.1.4-.1.9-.5 1.1l-2.7 1.3h-.5zM5.8 36l.8.7 1.4-.8-.2-.9-1.2-1.1-1.1.5.3 1.6zm15.7-19.4s-.1 0 0 0c-.6 0-1-.5-1-1l.3-7.5c0-.6.5-1 1-1 .6 0 1 .5 1 1l-.3 7.5c0 .6-.5 1-1 1zm7.1.4c-.6 0-1-.5-1-1l.3-7.5c0-.6.5-1 1-1 .6 0 1 .5 1 1l-.3 7.5c0 .6-.5 1-1 1z"/></symbol><symbol id="icon-martinus" viewBox="0 0 24 24"><path d="M12 2.3C6.6 2.3.3 2.7.3 12s7 9.7 11.7 9.7c4.6 0 11.7-.4 11.7-9.7 0-9.3-6.2-9.7-11.7-9.7zm7.6 9.6l-2.3-2.3c-.9-.9-1.9-2-3.7.1l4.1 4.1-1.9 1.9-6.1-6.1c-1-1-2-2-3.7.2l7.9 7.9-1.9 1.8L2.6 10c5.2-7.3 7.6-3.8 9.2-2.1 3.7-3.9 5.4-2.3 7.6 0l2 2.1-1.8 1.9z"/></symbol><symbol id="icon-order-cancel" viewBox="0 0 24 24"><path d="M12 13.586l2.293-2.293a1 1 0 011.414 1.414L13.414 15l2.293 2.293a1 1 0 01-1.414 1.414L12 16.414l-2.293 2.293a1 1 0 11-1.414-1.414L10.586 15l-2.293-2.293a1 1 0 011.414-1.414L12 13.586zm3-9.172V7h2.586L15 4.414zM19 9h-5a1 1 0 01-1-1V3H6a1 1 0 00-1 1v16a1 1 0 001 1h12a1 1 0 001-1V9zm-5-8a1 1 0 01.707.293l6 6A1 1 0 0121 8v12a3 3 0 01-3 3H6a3 3 0 01-3-3V4a3 3 0 013-3h8z"/></symbol><symbol id="icon-order-progress-1" viewBox="0 0 64 64"><g fill-rule="evenodd"><path fill-rule="nonzero" d="M21.043 47a1 1 0 001-1v-2a2 2 0 012-2h20.914a2 2 0 012 2v2a3 3 0 01-3 3H21a3 3 0 01-3-3V17a2 2 0 012-2h21a2 2 0 012 2v25h-2V17H20v29a1 1 0 001 1h.043zm22.914 0a1 1 0 001-1v-2H24.043v2c0 .35-.06.687-.17 1h20.084zM23 22a1 1 0 010-2h15a1 1 0 010 2H23zm0 5a1 1 0 010-2h9a1 1 0 010 2h-9zm13 0a1 1 0 010-2h2a1 1 0 010 2h-2zm-13 4a1 1 0 010-2h6a1 1 0 010 2h-6zm13 0a1 1 0 010-2h2a1 1 0 010 2h-2zm-13 7a1 1 0 010-2h9a1 1 0 010 2h-9zm13 0a1 1 0 010-2h2a1 1 0 010 2h-2z"/><path fill-opacity=".2" d="M46.957 44v2a3 3 0 01-3 3H21l.043-2a1 1 0 001-1v-2a2 2 0 012-2h20.914a2 2 0 012 2z"/></g></symbol><symbol id="icon-order-progress-2" viewBox="0 0 64 64"><g fill-rule="evenodd"><path fill-opacity=".2" d="M15 23h3a2 2 0 012 2v2a2 2 0 01-2 2h-3a2 2 0 01-2-2v-2a2 2 0 012-2zm-1.5 23h22a1.5 1.5 0 000-3h-22a1.5 1.5 0 000 3z"/><path fill-rule="nonzero" d="M14 19h21a6 6 0 016 6v10a6 6 0 01-6 6H14a6 6 0 01-6-6V25a6 6 0 016-6zm0 2a4 4 0 00-4 4v10a4 4 0 004 4h21a4 4 0 004-4V25a4 4 0 00-4-4H14zm1 2h3a2 2 0 012 2v2a2 2 0 01-2 2h-3a2 2 0 01-2-2v-2a2 2 0 012-2zm0 2v2h3v-2h-3zm-1 8a1 1 0 010-2h3a1 1 0 010 2h-3zm6 0a1 1 0 010-2h3a1 1 0 010 2h-3zm-6 3a1 1 0 010-2h6a1 1 0 010 2h-6zm9 0a1 1 0 010-2h6a1 1 0 010 2h-6zm3-3a1 1 0 010-2h3a1 1 0 010 2h-3zm6 0a1 1 0 010-2h3a1 1 0 010 2h-3zm0 3a1 1 0 010-2h3a1 1 0 010 2h-3zm21.997 5.074l-.011.2v-.132a.768.768 0 00.01-.068zm-9.01-.013l.013.227v-.15a.792.792 0 01-.012-.077zM54 37h2l-.014 4.281c-.223 2.138-3.042 3.828-6.486 3.828s-6.263-1.69-6.5-3.828L43.014 37h2L45 41.139c.196.917 2.044 1.97 4.5 1.97 2.463 0 4.307-1.058 4.486-1.967L54 37zm-9.012 4.06l.012.228v-.15a.792.792 0 01-.012-.077zm9.009.014l-.011.2v-.132a.768.768 0 00.01-.068zm-10.984-7.71a2.634 2.634 0 01-.013-.262C43 30.836 45.91 29 49.5 29c3.536 0 6.413 1.782 6.498 4H56v.067a2.642 2.642 0 010 .086L55.986 37H56l-.014 4.281c-.223 2.138-3.042 3.828-6.486 3.828s-6.263-1.69-6.5-3.828l.013-3.9a2.66 2.66 0 01-.013-.1l.013-3.918zm1.991 2.7l-.003.936h.013v.192c.253.904 2.077 1.917 4.486 1.917 2.463 0 4.307-1.058 4.486-1.967l.004-1.075c-1.167.704-2.749 1.136-4.49 1.136-1.744 0-3.328-.434-4.496-1.14zm2.033 4.74a7.656 7.656 0 01-2.033-.833L45 41.14c.196.917 2.044 1.97 4.5 1.97 2.463 0 4.307-1.058 4.486-1.967l.004-1.169a7.64 7.64 0 01-2.03.832 9.871 9.871 0 01-2.46.304 9.874 9.874 0 01-2.463-.304zm2.463-5.6c2.624 0 4.5-1.185 4.5-2.102C54 32.184 52.124 31 49.5 31S45 32.184 45 33.102c0 .917 1.876 2.101 4.5 2.101z"/><path fill-opacity=".2" d="M44 34l5.5 2.5L55 34v9l-5.5 1-5.5-1z"/></g></symbol><symbol id="icon-order-progress-3" viewBox="0 0 64 64"><g fill-rule="evenodd"><path fill-opacity=".2" d="M13 20h25v7h-8l-1 2v20h-9l-4.5-2.5-2.5-5z"/><path fill-opacity=".2" d="M28 32h23v20a2 2 0 01-2 2H32a4 4 0 01-4-4V32z"/><path fill-rule="nonzero" d="M37 27V13H19v-2h18a2 2 0 012 2v14h-2zm-8 21v2h-9a7 7 0 01-7-7V16h2v27a5 5 0 005 5h9zm21.414-21.414c.362.362.586.862.586 1.414v24a2 2 0 01-2 2H32a4 4 0 01-4-4V30c0-.087.003-.173.008-.258A3.5 3.5 0 0131.5 26H49c.552 0 1.052.224 1.414.586zM31.5 33c-.537 0-1.045-.12-1.5-.337V50a2 2 0 002 2h17V33H31.5zm7.528-17c0 .08-.01.16-.028.235V19a2 2 0 01-2 2H18a5 5 0 010-10h19a2 2 0 012 2v2.765c.018.075.028.154.028.235zM37 15v-2H18a3 3 0 000 6h19v-2H19a1 1 0 010-2h18zm-5.5 13a1.5 1.5 0 000 3H49v-3H31.5z"/></g></symbol><symbol id="icon-order-progress-4" viewBox="0 0 64 64"><g fill-rule="evenodd"><path fill-opacity=".2" d="M19 33V18a1 1 0 011-1h19a1 1 0 011 1v15"/><path fill-rule="nonzero" d="M50.973 44a4.5 4.5 0 01-8.946 0H30.973a4.5 4.5 0 01-8.946 0H20a2 2 0 01-2-2V18a2 2 0 012-2h19a2 2 0 012 2v4h3.316a4 4 0 013.806 2.771l2.372 7.35 1.306.979a8 8 0 013.2 6.4V42a2 2 0 01-2 2h-2.027zm-8.717-2a4.502 4.502 0 018.488 0H53v-2.5a6 6 0 00-2.4-4.8l-.933-.7H20v8h2.256a4.502 4.502 0 018.488 0h11.512zM39 32V18H20v14h19zm2 0h7.354l-2.135-6.614A2 2 0 0044.316 24H41v8zM26.5 46a2.5 2.5 0 100-5 2.5 2.5 0 000 5zm0-1a1.5 1.5 0 110-3 1.5 1.5 0 010 3zm20 1a2.5 2.5 0 100-5 2.5 2.5 0 000 5zm0-1a1.5 1.5 0 110-3 1.5 1.5 0 010 3zM39 36a1 1 0 012 0v6a1 1 0 01-2 0v-6zm5.051-5.684a1 1 0 111.898-.632l1 3a1 1 0 11-1.898.632l-1-3zM15 18a1 1 0 010 2h-1a1 1 0 010-2h1zm0 12a1 1 0 010 2h-1a1 1 0 010-2h1zm0-8a1 1 0 010 2h-5a1 1 0 010-2h5zm0 4a1 1 0 010 2h-4a1 1 0 010-2h4z"/></g></symbol><symbol id="icon-order-progress-5" viewBox="0 0 64 64"><g fill-rule="evenodd"><path fill-opacity=".2" d="M34 36H24v10h10z"/><path fill-rule="nonzero" d="M21.058 18c.5-4.742 4.132-5 7.345-5 3.228 0 6.846.233 7.34 5H40a2 2 0 012 2v28H16V20a2 2 0 012-2h3.058zm-.026 2H18v26h22V20h-4.23c-.404 5.106-4.571 5.34-7.367 5.34-2.794 0-6.964-.276-7.37-5.34zm11.883-.33l1.087-1.088-1.193-1.194c-1.319-1.37-2.304-2.261-4.434-.019-.94-.983-2.373-3.038-5.375 1.21l5.503 5.503 1.087-1.088-4.575-4.575c1.008-1.23 1.568-.67 2.148-.09l3.546 3.547 1.088-1.088-2.373-2.373c1.085-1.257 1.618-.618 2.17-.066l1.32 1.32zM30 48v.036h-2V48h-4a2 2 0 01-2-2V36a2 2 0 012-2h10a2 2 0 012 2v10a2 2 0 01-2 2h-4zm-2-12h-4v10h4V36zm2 0v10h4V36h-4zm-18-4h6v16h-8V34a2 2 0 012-2zm4 14V34h-4v12h4zm26-12h11a2 2 0 012 2v12H40V36a2 2 0 012-2zm11 2H42v10h11V36z"/></g></symbol><symbol id="icon-order-progress-6" viewBox="0 0 64 64"><g fill-rule="evenodd"><path d="M49 35.999c1.073-.002 2 .868 2 2.001v3a2 2 0 01-1.515 1.94l-.485.122V46a2 2 0 01-1.642 1.968l-11 2c-.12.022-.24.032-.358.033A2 2 0 0134 52h-3a2 2 0 01-2-2c-.118 0-.237-.01-.358-.032l-11-2A2 2 0 0116 46v-2.938l-.485-.122A2 2 0 0114 41v-3c0-1.133.927-2.003 2-2.001V29a2 2 0 012.358-1.968l3.642.662V23a9 9 0 019-9h3a9 9 0 019 9v4.694l3.642-.662A2 2 0 0149 29v6.999zm-2 .44V29l-11 2v17l11-2v-2.438l-.272.068A3 3 0 0143 40.72v-.94a3 3 0 012.272-2.91L47 36.438zm-29 7.123V46l11 2V31l-11-2v7.438l1.728.432A3 3 0 0122 39.78v.94a3 3 0 01-3.728 2.91L18 43.562zm20-14.958V24.5L30 21l-3 4v3.604l2.358.428A2 2 0 0131 31h3a2 2 0 011.642-1.968L38 28.604zm3-.546V23a7 7 0 00-7-7h-3a7 7 0 00-7 7v5.058l1 .182V25a2 2 0 01.4-1.2l3-4a2 2 0 012.402-.632l8 3.5A2 2 0 0140 24.5v3.74l1-.182zM30 28a1 1 0 110-2 1 1 0 010 2zm5 0a1 1 0 110-2 1 1 0 010 2zm-4 5v17h3V33h-3zm-15 5v3l2.757.69A1 1 0 0020 40.72v-.94a1 1 0 00-.757-.97L16 38zm33 0l-3.243.81a1 1 0 00-.757.97v.94a1 1 0 001.243.97L49 41v-3z"/><path fill-opacity=".2" d="M49 38l-3.243.81a1 1 0 00-.757.97v.94a1 1 0 001.243.97L49 41v-3zm-33 0l3.243.81a1 1 0 01.757.97v.94a1 1 0 01-1.243.97L16 41v-3zm13.5-18l-3 4.5L26 29l3.5 1 .5 2h5l.5-2 3.5-.5V24z"/></g></symbol><symbol id="icon-order-progress-gift-heart" viewBox="0 0 64 64"><g fill-rule="evenodd"><rect width="34" height="10" x="15" y="19" rx="2" transform="matrix(1 0 0 -1 0 48)"/><path d="M39 36a4 4 0 00-7-2.646A4 4 0 0025 36c0 1.32 1.873 3.77 5.618 7.35a2 2 0 002.764 0C37.127 39.77 39 37.32 39 36z"/><path fill-rule="nonzero" d="M27.467 19c-5.014-2.376-6.602-4.91-3.985-7.525 1.576-1.577 3.417-1.532 5.038.088 1.316 1.317 2.592 3.733 3.882 7.282 2.768-7.598 5.784-10.498 8.918-7.363 1.577 1.576 1.532 3.417-.088 5.038-.839.838-2.123 1.66-3.862 2.48H47a2 2 0 012 2v6a2 2 0 01-2 2v18a2 2 0 01-2 2H19a2 2 0 01-2-2V29a2 2 0 01-2-2v-6a2 2 0 012-2h10.467zM19 29v18h26V29H19zm-2-8v6h30v-6H17zm22.818-5.895c.854-.854.868-1.43.088-2.21-1.352-1.351-2.987-.016-5.002 5 2.395-.975 4.039-1.914 4.914-2.79zm-12.713-2.128c-.854-.854-1.43-.868-2.21-.088-1.351 1.352-.016 2.987 5 5.002-.975-2.394-1.914-4.038-2.79-4.914zM32 33.354l.75-.661A4 4 0 0139 36c0 1.32-1.873 3.77-5.618 7.35a2 2 0 01-2.764 0C26.873 39.77 25 37.32 25 36a4 4 0 016.25-3.307l.75.661zM37 36a2 2 0 00-3.5-1.322L32 36.377l-1.5-1.7A2 2 0 0027 36c0 .524 1.706 2.757 5 5.906 3.294-3.15 5-5.382 5-5.905z"/></g></symbol><symbol id="icon-order-progress-gift" viewBox="0 0 64 64"><g fill-rule="evenodd"><rect width="34" height="10" x="15" y="19" rx="2" transform="matrix(1 0 0 -1 0 48)"/><path d="M39 36a4 4 0 00-7-2.646A4 4 0 0025 36c0 1.32 1.873 3.77 5.618 7.35a2 2 0 002.764 0C37.127 39.77 39 37.32 39 36z"/><path fill-rule="nonzero" d="M27.467 19c-5.014-2.376-6.602-4.91-3.985-7.525 1.576-1.577 3.417-1.532 5.038.088 1.316 1.317 2.592 3.733 3.882 7.282 2.768-7.598 5.784-10.498 8.918-7.363 1.577 1.576 1.532 3.417-.088 5.038-.839.838-2.123 1.66-3.862 2.48H47a2 2 0 012 2v6a2 2 0 01-2 2v18a2 2 0 01-2 2H19a2 2 0 01-2-2V29a2 2 0 01-2-2v-6a2 2 0 012-2h10.467zM19 29v18h26V29H19zm-2-8v6h30v-6H17zm22.818-5.895c.854-.854.868-1.43.088-2.21-1.352-1.351-2.987-.016-5.002 5 2.395-.975 4.039-1.914 4.914-2.79zm-12.713-2.128c-.854-.854-1.43-.868-2.21-.088-1.351 1.352-.016 2.987 5 5.002-.975-2.394-1.914-4.038-2.79-4.914zM32 33.354l.75-.661A4 4 0 0139 36c0 1.32-1.873 3.77-5.618 7.35a2 2 0 01-2.764 0C26.873 39.77 25 37.32 25 36a4 4 0 016.25-3.307l.75.661zM37 36a2 2 0 00-3.5-1.322L32 36.377l-1.5-1.7A2 2 0 0027 36c0 .524 1.706 2.757 5 5.906 3.294-3.15 5-5.382 5-5.905z"/></g></symbol><symbol id="icon-order-progress-line-download" viewBox="0 0 64 64"><g fill-rule="evenodd"><path fill-opacity=".2" d="M17 18h30v13H34l-3.5-2-.5 2H17z"/><path fill-rule="nonzero" d="M38.484 33l3.25 2.578a2 2 0 01-.242 3.3l-1.408.812 2.064 3.576a2 2 0 01-.732 2.732l-1.517.875a2 2 0 01-2.732-.732l-2.064-3.575-1.408.813a2 2 0 01-2.979-1.44L29.393 33H17a2 2 0 01-2-2V18a2 2 0 012-2h30a2 2 0 012 2v13a2 2 0 01-2 2h-8.516zm-2.522-2H47V18H17v13h12.097l-.173-1.167c-.265-1.794 1.801-2.987 3.222-1.86L35.962 31zm1.39 7.958l3.14-1.813-9.59-7.605 1.793 12.107 3.14-1.813L38.9 45.14l1.517-.875-3.064-5.308z"/></g></symbol><symbol id="icon-owl-plus" viewBox="0 0 20 21"><path d="M3.965 6.755c0 1.06.863 1.924 1.923 1.924a1.926 1.926 0 001.924-1.924c0-1.06-.863-1.923-1.924-1.923-1.06 0-1.923.862-1.923 1.923zm2.595 0a.672.672 0 11-1.345-.001.672.672 0 011.345.001zm7.166-1.923c-1.06 0-1.924.863-1.924 1.923s.863 1.924 1.924 1.924c1.06 0 1.923-.863 1.923-1.924 0-1.06-.862-1.923-1.923-1.923zm0 2.595a.672.672 0 11.002-1.345.672.672 0 01-.002 1.345z"/><path fill-rule="evenodd" clip-rule="evenodd" d="M4.888 0h9.839a3.463 3.463 0 013.46 3.459v6.464a5.944 5.944 0 00-2.247-.849 3.2 3.2 0 00.994-2.319 3.212 3.212 0 00-3.208-3.208 3.212 3.212 0 00-3.208 3.208c0 1.264.735 2.36 1.8 2.882a6.03 6.03 0 00-1.154.76 3.447 3.447 0 01-.066-.047l-.122.213c-.446.405-.83.876-1.138 1.397h-.03a.626.626 0 01-.543-.313l-.749-1.297a4.426 4.426 0 01-2.287.848c1.167 1.446 2.762 4.04 2.935 7.55h1.146c.388.485.85.907 1.368 1.252h-3.89a6.366 6.366 0 01-6.36-6.358V3.459A3.463 3.463 0 014.889 0zm5.36 3.966l1.98-2.714h-4.84l1.98 2.714a.103.103 0 01.006.012l.006.01c.16.201.304.413.427.64a4.46 4.46 0 01.433-.65l.008-.012zm-.44 6.116l.368-.638a4.491 4.491 0 01-.308-.461h-.122c-.093.16-.196.314-.308.46l.37.64zm-3.92-.119a3.212 3.212 0 003.209-3.208 3.212 3.212 0 00-3.208-3.208A3.212 3.212 0 002.68 6.755a3.212 3.212 0 003.21 3.208zm-.05-8.711h-.95A2.21 2.21 0 002.68 3.459v.205a4.444 4.444 0 013.21-1.369c.26 0 .513.027.76.07l-.811-1.113zM2.68 13.642a5.112 5.112 0 005.107 5.106h.123c-.254-4.532-3.18-7.408-3.657-7.848A4.472 4.472 0 012.68 9.846v3.796zM13.726 2.295c1.26 0 2.396.527 3.208 1.37v-.206a2.21 2.21 0 00-2.207-2.207h-.95l-.812 1.113a4.44 4.44 0 01.761-.07z"/><path d="M10 15.031C10 12.271 12.24 10 15 10s5 2.27 5 5.031c0 2.76-2.24 5-5 5s-5-2.24-5-5zm5.556-2.253a.579.579 0 00-.556-.556.579.579 0 00-.556.556v1.666h-1.666a.579.579 0 00-.556.556c0 .337.25.556.556.556h1.666v1.666c0 .337.25.556.556.556a.538.538 0 00.556-.556v-1.666h1.666a.538.538 0 00.556-.556.579.579 0 00-.556-.556h-1.666v-1.666z"/></symbol><symbol id="icon-owl" viewBox="0 0 20 20"><path d="M3.965 6.755c0 1.06.863 1.924 1.923 1.924a1.926 1.926 0 001.924-1.924c0-1.06-.863-1.923-1.924-1.923-1.06 0-1.923.862-1.923 1.923zm2.595 0a.672.672 0 11-1.345-.001.672.672 0 011.345.001zm7.166-1.923c-1.06 0-1.924.863-1.924 1.923s.863 1.924 1.924 1.924c1.06 0 1.923-.863 1.923-1.924 0-1.06-.862-1.923-1.923-1.923zm0 2.595a.672.672 0 11.002-1.345.672.672 0 01-.002 1.345z"/><path d="M14.727 0h-9.84A3.463 3.463 0 001.43 3.459v10.183A6.366 6.366 0 007.787 20h4.04a6.366 6.366 0 006.36-6.358V3.459A3.463 3.463 0 0014.726 0zm-2.5 1.252l-1.98 2.714-.013.023c-.159.2-.303.412-.427.639a4.476 4.476 0 00-.427-.64l-.013-.022-1.98-2.714h4.84zm-2.05 8.192l-.37.638-.369-.638c.112-.147.215-.3.308-.461h.122c.093.16.196.314.308.46zm-1.08-2.689a3.212 3.212 0 01-3.208 3.208A3.212 3.212 0 012.68 6.755a3.212 3.212 0 013.21-3.208 3.212 3.212 0 013.208 3.208zm-4.21-5.503h.95l.813 1.113a4.45 4.45 0 00-.761-.07c-1.26 0-2.397.527-3.209 1.37v-.206a2.21 2.21 0 012.208-2.207zm2.9 17.496a5.112 5.112 0 01-5.107-5.106V9.846c.44.456.974.817 1.573 1.054.478.44 3.403 3.316 3.657 7.848h-.123zm1.377 0c-.173-3.51-1.768-6.104-2.935-7.55a4.426 4.426 0 002.287-.848l.75 1.297a.626.626 0 001.083 0l.75-1.297a4.426 4.426 0 002.286.848c-1.167 1.446-2.762 4.04-2.935 7.55H9.164zm2.664 0h-.123c.254-4.513 3.18-7.405 3.658-7.848a4.468 4.468 0 001.571-1.054v3.796a5.112 5.112 0 01-5.107 5.106zm1.898-8.785a3.212 3.212 0 01-3.208-3.208 3.212 3.212 0 013.208-3.208 3.212 3.212 0 013.208 3.208 3.212 3.212 0 01-3.208 3.208zm3.208-6.299a4.444 4.444 0 00-3.208-1.369c-.26 0-.513.027-.761.07l.812-1.113h.95a2.21 2.21 0 012.207 2.207v.205z"/></symbol><symbol id="icon-pause" viewBox="0 0 24 24"><g fill-rule="evenodd"><rect width="2" height="18" x="7" y="3" rx="1"/><rect width="2" height="18" x="15" y="3" rx="1"/></g></symbol><symbol id="icon-plus" viewBox="0 0 24 24"><path fill-rule="evenodd" d="M11 13v3.998a.999.999 0 102 0V13h3.998a.999.999 0 100-2H13V7.002a.999.999 0 10-2 0V11H7.002a.999.999 0 100 2H11z"/></symbol><symbol id="icon-products-audiobooks" viewBox="0 0 64 64"><g fill-rule="evenodd"><path fill-opacity=".2" d="M31.1 11c-.6 0-1.3.2-1.8.8l-9.8 9.8H8.3c-1.5 0-2.6 1.2-2.6 2.6V40c0 1.5 1.2 2.6 2.6 2.6h11.2l9.8 9.8c.5.5 1.2.8 1.8.8 1.4 0 2.7-1 2.7-2.6v-37c-.1-1.6-1.4-2.6-2.7-2.6zm10.8 14.2c-.9-.4-1.9-.1-2.3.8-.4.9 0 1.9.8 2.3 1.5.7 2.5 2.2 2.5 3.7s-1 2.9-2.5 3.7c-.9.4-1.2 1.5-.8 2.3.4.9 1.5 1.2 2.3.8 2.8-1.3 4.5-4 4.5-6.8s-1.7-5.5-4.5-6.8zm5.3-10.5c-.8-.5-1.9-.2-2.4.6s-.2 1.9.7 2.4c4.9 2.8 8 8.3 8 14.3s-3.1 11.5-8 14.3c-.8.5-1.1 1.6-.7 2.4.5.8 1.5 1.1 2.4.6 6-3.4 9.7-10.1 9.7-17.3 0-7.2-3.7-13.9-9.7-17.3z"/><path fill-rule="nonzero" d="M31.1 9.8c-1 0-1.9.4-2.6 1.1L19 20.3H8.3c-2.1 0-3.8 1.7-3.8 3.8v15.8c0 2.1 1.7 3.8 3.8 3.8H19l9.4 9.4c.7.7 1.6 1.1 2.6 1.1 2.1 0 3.8-1.7 3.8-3.8V13.6c.1-2.4-1.9-3.8-3.7-3.8zm1.5 40.6c0 .9-.8 1.5-1.5 1.5-.3 0-.7-.1-1-.4L20 41.4H8.3c-.8 0-1.5-.7-1.5-1.5V24.1c0-.8.7-1.5 1.5-1.5H20l10-10.1c.4-.4.8-.4 1-.4.7 0 1.5.6 1.5 1.5v36.8zM48.7 32c0-3.8-2.2-7.2-5.8-8.9-.5-.3-1.1-.4-1.7-.4-1.5 0-3 .9-3.6 2.3-1 2-.1 4.4 1.9 5.4.8.4 1.2 1 1.2 1.6 0 .7-.5 1.3-1.2 1.6-1 .5-1.7 1.3-2 2.3-.4 1-.3 2.1.2 3.1.7 1.4 2.1 2.3 3.6 2.3.6 0 1.2-.1 1.7-.4 3.5-1.7 5.7-5.1 5.7-8.9zm-7.5 7c-.6 0-1.3-.4-1.6-1-.4-.9 0-1.9.8-2.3 1.5-.7 2.5-2.2 2.5-3.7s-1-2.9-2.5-3.7c-.9-.4-1.2-1.5-.8-2.3.3-.6.9-1 1.6-1 .3 0 .5.1.8.2 2.8 1.3 4.5 4 4.5 6.8s-1.7 5.5-4.5 6.8c-.3.2-.6.2-.8.2zm7.1-26.3c-.6-.3-1.3-.5-2-.5-1.4 0-2.8.8-3.5 2-.5.9-.7 2-.4 3 .3 1 1 1.9 1.9 2.4 4.2 2.4 6.8 7.1 6.8 12.3 0 5.2-2.6 9.9-6.8 12.3-.9.5-1.6 1.4-1.9 2.4-.3 1-.1 2.1.4 3 .7 1.2 2.1 2 3.5 2 .7 0 1.4-.2 2-.5 6.7-3.7 10.9-11 10.9-19.1 0-8.1-4.2-15.4-10.9-19.3zm-1.1 36.6c-.3.2-.6.2-.9.2-.6 0-1.2-.3-1.5-.9-.5-.8-.2-1.9.7-2.4 4.9-2.8 8-8.3 8-14.3s-3.1-11.5-8-14.3c-.8-.5-1.1-1.6-.7-2.4.3-.6.9-.9 1.5-.9.3 0 .6.1.9.2 6 3.4 9.7 10.1 9.7 17.3 0 7.4-3.7 14.1-9.7 17.5z"/></g></symbol><symbol id="icon-products-books" viewBox="0 0 64 64"><g fill-rule="evenodd"><path fill-opacity=".2" class="st0" d="M15.5 41.6h41.9v15.2H15.5z"/><path fill-opacity=".2" class="st1" d="M13.9 19.6H55v9.2H13.9z"/><path fill-rule="nonzero" d="M58.6 44H18.5c-.8 0-1.4.6-1.4 1.4s.6 1.4 1.4 1.4h40.1c.8 0 1.4-.6 1.4-1.4s-.7-1.4-1.4-1.4zm0 4.1H18.5c-.8 0-1.4.6-1.4 1.4s.6 1.4 1.4 1.4h40.1c.8 0 1.4-.6 1.4-1.4s-.7-1.4-1.4-1.4zm0 4.1H18.5c-.8 0-1.4.6-1.4 1.4s.6 1.4 1.4 1.4h40.1c.8 0 1.4-.6 1.4-1.4s-.7-1.4-1.4-1.4zm.1 4.2h-41c-.8 0-1.4-.6-1.4-1.4V43.9c0-.8.6-1.4 1.4-1.4h41c1.7 0 2-2.5.3-2.8H44.6v-8.1H55c1.5 0 2.8-1.3 2.8-2.8v-9.2c0-1.5-1.3-2.8-2.8-2.8h-2.3V7.6c0-1.5-1.3-2.8-2.8-2.8h-41C7.2 4.8 6 6 6 7.6v9.2c0 1.5 1.3 2.8 2.8 2.8h2.3v9.2H6.7c-1.5 0-2.8 1.3-2.8 2.8v8.1c0 1.5 1.3 2.8 2.8 2.8h6.9c-.2.4-.3.9-.3 1.4V55c0 2.3 1.9 4.2 4.2 4.2h41.3c1.8-.2 1.5-2.8-.1-2.8zm-8.4-36.8h4.6v9.2h-41v-9.2h36.4zM8.8 7.6h41v3.1h-41V7.6zm0 9.2v-3.3h41v3.3h-41zM6.7 39.7v-8.1h35v8.1h-35z"/></g></symbol><symbol id="icon-products-ebooks" viewBox="0 0 64 64"><g fill-rule="evenodd"><path fill-rule="nonzero" class="st0" d="M47.5 7.5c.8 0 1.5.7 1.5 1.5v46c0 .8-.7 1.5-1.5 1.5H16.3c-.8 0-1.5-.7-1.5-1.5V9c0-.8.7-1.5 1.5-1.5h31.2m0-2.5H16.3c-2.2 0-4 1.8-4 4v46c0 2.2 1.8 4 4 4h31.3c2.2 0 4-1.8 4-4V9c-.1-2.2-1.8-4-4.1-4z"/><path fill-rule="nonzero" class="st0" d="M43.8 13v31.1H20.2V13h23.6m2.5-2.5H17.8v36.1h28.7V10.5h-.2z"/><path fill-opacity=".2" class="st1" d="M47.5 5H16.3c-2.2 0-4 1.8-4 4v46c0 2.2 1.8 4 4 4h31.3c2.2 0 4-1.8 4-4V9c-.1-2.2-1.8-4-4.1-4zm-1.2 41.6H17.8V10.5h28.7v36.1h-.2z"/><path fill-rule="nonzero" class="st0" d="M31 50.4c.5 0 .9.4.9 1 0 .5-.4.9-.9.9s-1-.4-1-.9c0-.6.5-1 1-1m0-2.5c-1.9 0-3.5 1.5-3.5 3.5s1.5 3.4 3.5 3.4c1.9 0 3.4-1.5 3.4-3.4S33 47.9 31 47.9z"/></g></symbol><symbol id="icon-products-games" viewBox="0 0 64 64"><g fill-rule="evenodd"><path fill-rule="nonzero" class="st0" d="M35.9 25.3h-27c-2.2 0-4 1.8-4 4v27c0 2.2 1.8 4 4 4h27c2.2 0 4-1.8 4-4v-27c0-2.2-1.8-4-4-4zm1.5 31c0 .8-.7 1.5-1.5 1.5h-27c-.8 0-1.5-.7-1.5-1.5v-27c0-.8.7-1.5 1.5-1.5h27c.8 0 1.5.7 1.5 1.5v27zm18.7-45.1L30.2 3.9c-2.1-.6-4.3.6-4.9 2.8l-4.6 16.5h2.6l4.5-15.8c.2-.8 1.1-1.3 1.9-1l25.9 7.3c.8.2 1.3 1.1 1 1.9l-7.3 25.9c-.2.8-1.1 1.3-1.9 1L42.2 41v2.6l4.5 1.3c2.1.6 4.3-.6 4.9-2.8l7.3-25.9c.6-2.2-.6-4.4-2.8-5z"/><path fill-opacity=".2" class="st1" d="M14.8 46.6c-2 0-3.7 1.7-3.7 3.7s1.7 3.7 3.7 3.7 3.7-1.7 3.7-3.7-1.7-3.7-3.7-3.7zm7.8-7.9c-2 0-3.7 1.7-3.7 3.7s1.7 3.7 3.7 3.7 3.7-1.7 3.7-3.7-1.6-3.7-3.7-3.7zm7.8-7.8c-2 0-3.7 1.7-3.7 3.7s1.7 3.7 3.7 3.7 3.7-1.7 3.7-3.7-1.7-3.7-3.7-3.7zm3.3-20.1c-2 0-3.7 1.7-3.7 3.7s1.7 3.7 3.7 3.7 3.7-1.7 3.7-3.7-1.7-3.7-3.7-3.7zm14.8 3.7c-2 0-3.7 1.7-3.7 3.7s1.7 3.7 3.7 3.7 3.7-1.7 3.7-3.7-1.7-3.7-3.7-3.7zm-3.7 15.2c-1 0-1.9.4-2.6 1.1v5.3c.7.7 1.6 1.1 2.6 1.1 2 0 3.7-1.7 3.7-3.7s-1.7-3.8-3.7-3.8z"/></g></symbol><symbol id="icon-products-movies" viewBox="0 0 64 64"><g fill-rule="evenodd"><path fill-rule="nonzero" class="st1" d="M25.7 12.9c4.2 0 8.3 1.4 11.7 3.9l.6.5h.4l2 2.3c3.1 3.6 4.8 8.1 4.8 12.8 0 10.8-8.7 19.5-19.5 19.5S6.2 43.2 6.2 32.4c0-10.7 8.7-19.5 19.5-19.5M19 20.8c-.2-.1-.4-.2-.6-.4-1-.6-2.2-.9-3.4-.9-2.4 0-4.6 1.3-5.8 3.4-.9 1.6-1.1 3.4-.7 5.1.5 1.7 1.6 3.2 3.1 4.1l.6.3-.6.3c-1.6.9-2.7 2.3-3.1 4.1-.5 1.7-.2 3.5.7 5.1 1.2 2.1 3.4 3.4 5.8 3.4 1.2 0 2.3-.3 3.4-.9.2-.1.4-.2.6-.4v.7c0 3.7 3 6.7 6.7 6.7 1.8 0 3.5-.7 4.8-2 1.3-1.3 2-3 2-4.8v-.7c.2.1.4.2.6.4 1 .6 2.2.9 3.4.9 2.4 0 4.6-1.3 5.8-3.4.9-1.6 1.1-3.4.7-5.1-.5-1.7-1.6-3.2-3.1-4.1l-.6-.3.6-.3c1.6-.9 2.7-2.3 3.1-4.1.5-1.7.2-3.5-.7-5.1-1.2-2.1-3.4-3.4-5.8-3.4-1.2 0-2.3.3-3.4.9-.2.1-.4.2-.6.4V20a6.7 6.7 0 00-13.4 0c-.1.4-.1.6-.1.8m2.8 4.8c1.1.8 2.5 1.3 3.9 1.3s2.8-.4 3.9-1.3c-.1 1.4.1 2.8.9 4 .7 1.2 1.8 2.2 3.1 2.8-1.3.6-2.3 1.5-3.1 2.8-.7 1.2-1 2.6-.9 4-1.1-.8-2.5-1.3-3.9-1.3-1.5 0-2.8.5-3.9 1.3.1-1.4-.2-2.8-.9-4-.7-1.2-1.8-2.2-3.1-2.8 1.3-.6 2.3-1.5 3.1-2.8.7-1.2 1-2.6.9-4m3.9 11.7c2.7 0 4.9-2.2 4.9-4.9s-2.2-4.9-4.9-4.9-4.9 2.2-4.9 4.9 2.2 4.9 4.9 4.9m0-26.9c-12.1 0-22 9.8-22 22 0 12.1 9.8 22 22 22 12.1 0 22-9.8 22-22 0-5.5-2.1-10.6-5.4-14.5 3.8 1.4 8.4 5.2 8.7 13.8.5 13.7 9.3 13.9 9.4 13.9v-2.4c-.1 0-6.7-.1-7.1-11.6-.4-12.1-8.7-16.7-14.5-16.9-3.6-2.6-8.2-4.3-13.1-4.3zm0 14c-2.3 0-4.2-1.9-4.2-4.2 0-2.3 1.9-4.2 4.2-4.2 2.3 0 4.2 1.9 4.2 4.2 0 2.3-1.9 4.2-4.2 4.2zm-10.6 6.1c-.7 0-1.4-.2-2.1-.6-2-1.2-2.7-3.8-1.5-5.8.8-1.4 2.2-2.1 3.7-2.1.7 0 1.4.2 2.1.6 2 1.2 2.7 3.8 1.5 5.8-.9 1.4-2.3 2.1-3.7 2.1zm21.2 0c-1.5 0-2.9-.8-3.7-2.1-1.2-2-.5-4.6 1.5-5.8.7-.4 1.4-.6 2.1-.6 1.5 0 2.9.8 3.7 2.1 1.2 2 .5 4.6-1.5 5.8-.6.4-1.4.6-2.1.6zm-10.6 4.3c-1.3 0-2.4-1.1-2.4-2.4 0-1.3 1.1-2.4 2.4-2.4 1.3 0 2.4 1.1 2.4 2.4 0 1.3-1.1 2.4-2.4 2.4zm10.6 8c-.7 0-1.4-.2-2.1-.6-2-1.2-2.7-3.8-1.5-5.8.8-1.4 2.2-2.1 3.7-2.1.7 0 1.4.2 2.1.6 2 1.2 2.7 3.8 1.5 5.8-.8 1.3-2.2 2.1-3.7 2.1zm-21.2 0c-1.5 0-2.9-.8-3.7-2.1-1.2-2-.5-4.6 1.5-5.8.7-.4 1.4-.6 2.1-.6 1.5 0 2.9.8 3.7 2.1 1.2 2 .5 4.6-1.5 5.8-.7.4-1.4.6-2.1.6zm10.6 6.1c-2.3 0-4.2-1.9-4.2-4.2 0-2.3 1.9-4.2 4.2-4.2 2.3 0 4.2 1.9 4.2 4.2 0 2.3-1.9 4.2-4.2 4.2z"/><path fill-opacity=".2" class="st1" d="M25.7 15.9c-2.3 0-4.2 1.9-4.2 4.2 0 2.3 1.9 4.2 4.2 4.2 2.3 0 4.2-1.9 4.2-4.2 0-2.3-1.9-4.2-4.2-4.2zm10.6 14.6c2.3 0 4.2-1.9 4.2-4.2 0-2.3-1.9-4.2-4.2-4.2-2.3 0-4.2 1.9-4.2 4.2 0 2.3 1.9 4.2 4.2 4.2zm0 3.8c-2.3 0-4.2 1.9-4.2 4.2 0 2.3 1.9 4.2 4.2 4.2 2.3 0 4.2-1.9 4.2-4.2 0-2.3-1.9-4.2-4.2-4.2zm-10.6 6.2c-2.3 0-4.2 1.9-4.2 4.2 0 2.3 1.9 4.2 4.2 4.2 2.3 0 4.2-1.9 4.2-4.2 0-2.4-1.9-4.2-4.2-4.2zm-10.6-6.2c-2.3 0-4.2 1.9-4.2 4.2 0 2.3 1.9 4.2 4.2 4.2 2.3 0 4.2-1.9 4.2-4.2 0-2.3-1.9-4.2-4.2-4.2zm0-12.2c-2.3 0-4.2 1.9-4.2 4.2 0 2.3 1.9 4.2 4.2 4.2 2.3 0 4.2-1.9 4.2-4.2 0-2.3-1.9-4.2-4.2-4.2z"/></g></symbol><symbol id="icon-search" viewBox="0 0 24 24"><path d="M21.7 20.3L18 16.6c1.2-1.5 2-3.5 2-5.6 0-5-4-9-9-9s-9 4-9 9 4 9 9 9c2.1 0 4.1-.7 5.6-2l3.7 3.7c.2.2.5.3.7.3.2 0 .5-.1.7-.3.4-.4.4-1 0-1.4zM11 18c-3.9 0-7-3.1-7-7s3.1-7 7-7 7 3.1 7 7-3.1 7-7 7z"/></symbol><symbol id="icon-tip-heart" viewBox="0 0 24 24"><path d="M15.2 20.2l-3.3-3.4c-.4-.4-.6-1-.6-1.7 0-.6.2-1.2.6-1.7.9-.9 2.3-.9 3.1 0l.5.5.5-.5c.9-.9 2.3-.9 3.1 0 .9.9.9 2.4 0 3.3l-.7.8-2.6 2.6c-.1.1-.2.1-.3.1-.1.1-.2.1-.3 0z" fill-rule="evenodd" clip-rule="evenodd"/><path d="M15.4 23.4c-4.2 0-7.6-3.4-7.6-7.6s3.4-7.6 7.6-7.6 7.6 3.4 7.6 7.6-3.4 7.6-7.6 7.6zm0-13.2c-3.1 0-5.7 2.5-5.7 5.7s2.5 5.7 5.7 5.7 5.7-2.5 5.7-5.7-2.6-5.7-5.7-5.7z"/><path d="M9.7 19.1h-.4c-3.7 0-6.2-1.3-6.2-2.2V16c1.4.9 3.5 1.4 6 1.4-.1-.5-.2-1-.2-1.6v-.3C5.3 15.4 3 14.1 3 13.3v-.7c1.5.8 3.6 1.4 6.1 1.4.4-1.4 1.3-2.6 2.4-3.5C8.1 10.4 6 9.2 6 8.3v-.7C7.4 8.5 9.6 9 12.2 9s4.8-.5 6.2-1.4v.7c0 .4-.4.8-1.1 1.2.7.2 1.4.5 2 1 .7-.6 1.1-1.3 1.1-2.1V4.9c0-2.4-3.5-4.2-8.2-4.2C7.5.7 4 2.5 4 4.9v1.7c-1.8.8-2.9 1.9-2.9 3.2v7c0 2.4 3.5 4.2 8.2 4.2.7 0 1.3 0 1.9-.1-.6-.5-1.1-1.1-1.5-1.8zm2.5-16.5c3.7 0 6.2 1.3 6.2 2.2S15.9 7 12.2 7C8.4 7.1 6 5.8 6 4.9s2.4-2.3 6.2-2.3zM4.1 8.7c0 .2.1.4.2.5 0 0 0 .1.1.1.1.1.1.2.2.4l.1.1.3.3.1.1c.1.1.3.3.5.4l.1.1c0 .2.1.3.3.4.1 0 .1.1.2.1.2.1.3.2.5.2.1 0 .1.1.2.1.2.1.5.2.7.3h.1c.2.1.4.2.7.2h.1C5.2 11.9 3 10.7 3 9.8c0-.3.4-.7 1.1-1.1z"/></symbol><symbol id="icon-tip" viewBox="0 0 24 24"><path d="M10.5 18.7c-4.8 0-8.5-1.9-8.5-4.3v-3.6h2v3.6c0 .9 2.6 2.3 6.5 2.3s6.5-1.4 6.5-2.3v-2.6h2v2.6c0 2.5-3.6 4.3-8.5 4.3z"/><path d="M10.5 22.5c-4.8 0-8.5-1.9-8.5-4.3v-3.6h2v3.6c0 .9 2.6 2.3 6.5 2.3s6.5-1.4 6.5-2.3v-3.6h2v3.6c0 2.4-3.6 4.3-8.5 4.3zm3.1-8.9c-4.8 0-8.5-1.9-8.5-4.3V5.7h2v3.6c0 .9 2.6 2.3 6.5 2.3s6.5-1.4 6.5-2.3V5.7h2v3.6c0 2.4-3.7 4.3-8.5 4.3z"/><path d="M10.5 15.1c-4.8 0-8.5-1.9-8.5-4.3C2 9.3 3.4 8 5.8 7.2c.3-.1.6 0 .9.1.3.2.4.5.4.8v1.1c0 .9 2.6 2.3 6.5 2.3 1.3 0 2.5-.2 3.6-.5.4-.1.9.1 1.1.4.2.4.2.9-.1 1.2-1.4 1.6-4.3 2.5-7.7 2.5zM5.1 9.6c-.7.5-1.1.9-1.1 1.2 0 .9 2.2 2.1 5.7 2.3-2.6-.6-4.3-1.9-4.6-3.5z"/><path d="M13.6 10c-4.8 0-8.5-1.9-8.5-4.3s3.6-4.3 8.5-4.3c4.8 0 8.5 1.9 8.5 4.3S18.4 10 13.6 10zm0-6.7c-3.9 0-6.5 1.4-6.5 2.3S9.7 8 13.6 8s6.5-1.4 6.5-2.3-2.6-2.4-6.5-2.4z"/></symbol><symbol id="icon-user" viewBox="0 0 24 24"><path d="M7.987 21.162A9.966 9.966 0 0012 22a9.966 9.966 0 004.013-.838A1.007 1.007 0 0116 21a4 4 0 10-8 0c0 .055-.004.11-.013.162zm-1.913-1.106a6.002 6.002 0 0111.852 0A9.986 9.986 0 0022 12c0-5.523-4.477-10-10-10S2 6.477 2 12a9.986 9.986 0 004.074 8.056zM12 24C5.373 24 0 18.627 0 12S5.373 0 12 0s12 5.373 12 12-5.373 12-12 12zm0-10a4 4 0 110-8 4 4 0 010 8zm0-2a2 2 0 100-4 2 2 0 000 4z"/></symbol><symbol id="icon-warning" viewBox="0 0 24 24"><path d="M9.432 3.346a3.002 3.002 0 015.136 0L23.046 17.5A3 3 0 0120.47 22H3.519a3 3 0 01-2.557-4.514l8.47-14.14zm1.714 1.03L2.686 18.5A1 1 0 003.53 20h16.929a1 1 0 00.863-1.486L12.855 4.379a1 1 0 00-1.709-.002zM11 9a1 1 0 012 0v4a1 1 0 01-2 0V9zm1 9a1 1 0 110-2 1 1 0 010 2z"/></symbol><symbol id="icon-xmas-small" viewBox="0 0 24 24"><path d="M12 2.7c.1 0 .1 0 .2.1l3.7 3.6c.1.2.1.5 0 .6l-1 1c-.2.1-.2.4 0 .6l3.7 3.7c.2.1.2.4 0 .6l-1.9 1.9c-.2.1-.2.4 0 .6l3.5 3.5c.2.2.2.7-.1.8-.7.3-1.9.8-3.7 1.2-2 .4-3.3.5-3.9.5h-.8c-.6 0-1.9-.1-3.9-.5-1.9-.4-3.1-.9-3.7-1.2-.3-.2-.4-.6-.1-.8l3.5-3.5c.2-.1.2-.4 0-.6l-1.9-1.9c-.2-.1-.2-.4 0-.6l3.7-3.7c.2-.1.2-.4 0-.6l-1-1c-.3-.1-.3-.4-.2-.6l3.7-3.6c.1 0 .1-.1.2-.1m0-2c-.6 0-1.2.2-1.6.7L6.7 5c-.4.5-.7 1.1-.7 1.7 0 .6.2 1.1.5 1.5L4 10.8c-.4.4-.7 1.1-.7 1.7 0 .6.3 1.3.7 1.7l.8.8-2.4 2.4c-.6.6-.8 1.4-.7 2.2.1.8.6 1.5 1.4 1.8.8.4 2.2.9 4.2 1.3 2.1.4 3.5.5 4.3.5h.8c.8 0 2.2-.1 4.3-.5 2-.4 3.4-.9 4.2-1.3.7-.4 1.2-1 1.4-1.8.1-.8-.1-1.6-.7-2.2L19.2 15l.8-.8c.4-.4.7-1.1.7-1.7 0-.6-.3-1.3-.7-1.7l-2.6-2.6c.3-.4.5-1 .5-1.5 0-.6-.3-1.3-.7-1.7l-3.7-3.6c-.3-.4-.9-.7-1.5-.7z"/></symbol><symbol id="icon-xmas" viewBox="0 0 24 24"><path d="M12 8.2c.1 0 .1 0 .2.1l3.1 2.6c.1.1.1.3 0 .4l-.8.7c-.1.1-.1.3 0 .4l3.2 2.6c.1.1.1.3 0 .4L16 16.6c-.1.1-.1.3 0 .4l3 2.5c.2.2.2.5-.1.6-.6.2-1.6.6-3.2.8-1.7.3-2.8.3-3.3.3h-.8c-.5 0-1.6 0-3.3-.3-1.6-.3-2.6-.6-3.2-.8-.3-.1-.3-.4-.1-.6L8 17c.1-.1.1-.3 0-.4l-1.6-1.3c-.1-.1-.1-.3 0-.4l3.2-2.6c.1-.1.1-.3 0-.4l-.8-.7c-.1-.1-.1-.3 0-.4l3.1-2.6h.1m0-2c-.5 0-1 .2-1.4.5L7.4 9.2c-.5.5-.8 1.1-.8 1.8 0 .3.1.6.2.9l-1.7 1.4c-.5.4-.8 1.1-.8 1.8s.3 1.3.8 1.8L3.7 18c-.6.5-1 1.3-.8 2.2.1.8.7 1.5 1.5 1.8.6.2 1.8.6 3.6.9 1.8.3 3 .4 3.7.4h.8c.7 0 1.9-.1 3.7-.4 1.7-.3 2.9-.7 3.6-.9.8-.3 1.3-1 1.5-1.8.1-.8-.2-1.6-.8-2.2l-1.4-1.1c.5-.4.8-1.1.8-1.8s-.3-1.3-.8-1.8l-1.7-1.4c.1-.3.2-.6.2-.9 0-.7-.3-1.3-.8-1.8l-3.1-2.6c-.7-.3-1.2-.4-1.7-.4z"/><path d="M12 2.8l.6 1.2 1.3.2-1 .9.2 1.3-1.1-.6-1.2.6.2-1.3-1-.9 1.4-.2.6-1.2m0-2c-.8 0-1.5.4-1.8 1.1l-.1.3h-.3c-.8.1-1.4.7-1.6 1.4-.2.7 0 1.5.5 2.1l.2.2-.1.2c-.1.8.2 1.5.8 2 .3.3.8.4 1.2.4.3 0 .6-.1.9-.2l.3-.2.3.1c.3.2.6.2.9.2.4 0 .8-.1 1.2-.4.6-.4.9-1.2.8-2l-.1-.3.2-.2c.5-.5.7-1.3.5-2.1-.2-.7-.9-1.3-1.6-1.4h-.3l-.1-.3c-.4-.5-1-.9-1.8-.9z"/><circle cx="11.1" cy="13.1" r="1.1"/><circle cx="13.3" cy="15.7" r="1.1"/><circle cx="9.6" cy="18.8" r="1.1"/><circle cx="15" cy="19.2" r="1.1"/></symbol><symbol id="icon-zoom-in" viewBox="0 0 24 24"><path d="M21.7 20.3L18 16.6c1.2-1.5 2-3.5 2-5.6 0-5-4-9-9-9s-9 4-9 9 4 9 9 9c2.1 0 4.1-.7 5.6-2l3.7 3.7c.2.2.5.3.7.3.2 0 .5-.1.7-.3.4-.4.4-1 0-1.4zM12 10V7.997C12 7.453 11.552 7 11 7c-.556 0-1 .446-1 .997V10H7.997C7.453 10 7 10.448 7 11c0 .556.446 1 .997 1H10v2.003c0 .544.448.997 1 .997.556 0 1-.446 1-.997V12h2.003c.544 0 .997-.448.997-1 0-.556-.446-1-.997-1H12zm-1 8c-3.9 0-7-3.1-7-7s3.1-7 7-7 7 3.1 7 7-3.1 7-7 7z"/></symbol></svg>