<?xml version="1.0" encoding="UTF-8"?><!DOCTYPE svg PUBLIC "-//W3C//DTD SVG 1.1//EN" "http://www.w3.org/Graphics/SVG/1.1/DTD/svg11.dtd"><svg xmlns="http://www.w3.org/2000/svg" xmlns:xlink="http://www.w3.org/1999/xlink"><defs><path id="a" d="M11 15.586l-3.293-3.293a1 1 0 1 0-1.414 1.414l5 5a1 1 0 0 0 1.414 0l5-5a1 1 0 0 0-1.414-1.414L13 15.586V6a1 1 0 0 0-2 0v9.586z"/><path id="a" d="M11 15.586l-3.293-3.293a1 1 0 1 0-1.414 1.414l5 5a1 1 0 0 0 1.414 0l5-5a1 1 0 0 0-1.414-1.414L13 15.586V6a1 1 0 0 0-2 0v9.586z"/></defs><symbol id="icon-add-to-cart" viewBox="0 0 24 24"><path fill-rule="evenodd" d="M14 6.5h1.497a.999.999 0 0 1 1.003 1c0 .552-.438 1-1.003 1H14v1.497A.999.999 0 0 1 13 11c-.552 0-1-.438-1-1.003V8.5h-1.497a.999.999 0 0 1-1.003-1c0-.552.438-1 1.003-1H12V5.003A.999.999 0 0 1 13 4c.552 0 1 .438 1 1.003V6.5zM9 22a3 3 0 1 1 0-6 3 3 0 0 1 0 6zm0-2a1 1 0 1 0 0-2 1 1 0 0 0 0 2zm8 2a3 3 0 1 1 0-6 3 3 0 0 1 0 6zm0-2a1 1 0 1 0 0-2 1 1 0 0 0 0 2zM4.81 5H3a1 1 0 1 1 0-2h2.615a1 1 0 0 1 .977.787L8.6 13h8.876l1.551-6.505a1 1 0 1 1 1.946.464l-1.735 7.273a1 1 0 0 1-.973.768H7.795a1 1 0 0 1-.977-.787L4.81 5z"/></symbol><symbol id="icon-arrow-down" viewBox="0 0 24 24"><use xlink:href="#a"/></symbol><symbol id="icon-arrow-left" viewBox="0 0 24 24"><path d="M5.376 12.992l3.301 3.3a1 1 0 0 1-1.414 1.415l-5-5a1 1 0 0 1 0-1.414l5-5a1 1 0 0 1 1.414 1.414l-3.284 3.285h15.106a1 1 0 1 1 0 2H5.376z"/></symbol><symbol id="icon-arrow-right" viewBox="0 0 24 24"><path d="M18.094 12.992l-3.301 3.3a1 1 0 0 0 1.414 1.415l5-5a1 1 0 0 0 0-1.414l-5-5a1 1 0 0 0-1.414 1.414l3.284 3.285H2.971a1 1 0 1 0 0 2h15.123z"/></symbol><symbol id="icon-arrow-up" viewBox="0 0 24 24"><use transform="matrix(1 0 0 -1 0 24)" xlink:href="#a"/></symbol><symbol id="icon-avatar" viewBox="0 0 50 50"><path d="M13.005 44.629A22.893 22.893 0 0 0 25 48a22.9 22.9 0 0 0 11.019-2.806A1.005 1.005 0 0 1 36 45c0-6.636-5.158-12-11.5-12-6.224 0-11.306 5.165-11.495 11.629zm-1.91-1.306C11.896 36.388 17.585 31 24.5 31c7.14 0 12.972 5.742 13.466 13C44.024 39.857 48 32.893 48 25 48 12.297 37.703 2 25 2S2 12.297 2 25c0 7.478 3.569 14.122 9.096 18.323zM25 50C11.193 50 0 38.807 0 25S11.193 0 25 0s25 11.193 25 25-11.193 25-25 25zm0-21c-6.075 0-11-4.925-11-11S18.925 7 25 7s11 4.925 11 11-4.925 11-11 11zm0-2a9 9 0 1 0 0-18 9 9 0 0 0 0 18zm-5-8a1 1 0 0 1 2 0 3 3 0 0 0 6 0 1 1 0 0 1 2 0 5 5 0 0 1-10 0z"/></symbol><symbol id="icon-calendar" viewBox="0 0 24 24"><path d="M20 9V6a1 1 0 0 0-1-1h-2v1a1 1 0 0 1-2 0V5H9v1a1 1 0 1 1-2 0V5H5a1 1 0 0 0-1 1v3h16zm0 2H4v9a1 1 0 0 0 1 1h14a1 1 0 0 0 1-1v-9zM9 3h6V2a1 1 0 0 1 2 0v1h2a3 3 0 0 1 3 3v14a3 3 0 0 1-3 3H5a3 3 0 0 1-3-3V6a3 3 0 0 1 3-3h2V2a1 1 0 1 1 2 0v1z"/></symbol><symbol id="icon-cart" viewBox="0 0 24 24"><path d="M7.17 8C7.06 7.687 7 7.35 7 7V6a3 3 0 0 1 3-3h4a3 3 0 0 1 3 3v1c0 .35-.06.687-.17 1h2.711a2 2 0 0 1 1.98 2.283l-1.429 10A2 2 0 0 1 18.112 22H5.583a2 2 0 0 1-1.98-1.717l-1.429-10A2 2 0 0 1 4.153 8h3.018zM10 10H4.153l1.429 10h12.53l1.43-10H10a3.001 3.001 0 0 1-2.83-2zm0-5a1 1 0 0 0-1 1v1a1 1 0 0 0 1 1h4a1 1 0 0 0 1-1V6a1 1 0 0 0-1-1h-4zm-2 9a1 1 0 0 1 0-2h8a1 1 0 0 1 0 2H8zm1 4a1 1 0 0 1 0-2h6a1 1 0 0 1 0 2H9z"/></symbol><symbol id="icon-check-circle" viewBox="0 0 24 24"><path d="M21 11.07a1 1 0 0 1 2 0V12a11 11 0 1 1-6.523-10.053 1 1 0 0 1-.814 1.826A9 9 0 1 0 21 12v-.93zm-9 1.516l9.293-9.293a1 1 0 0 1 1.414 1.414l-10 10a1 1 0 0 1-1.414 0l-3-3a1 1 0 0 1 1.414-1.414L12 12.586z"/></symbol><symbol id="icon-chevron-down" viewBox="0 0 24 24"><path d="M12 13.586L7.707 9.293a1 1 0 1 0-1.414 1.414l5 5a1 1 0 0 0 1.414 0l5-5a1 1 0 1 0-1.414-1.414L12 13.586z"/></symbol><symbol id="icon-chevron-left" viewBox="0 0 24 24"><path d="M10.414 12l4.293-4.293a1 1 0 1 0-1.414-1.414l-5 5a1 1 0 0 0 0 1.414l5 5a1 1 0 1 0 1.414-1.414L10.414 12z"/></symbol><symbol id="icon-chevron-right" viewBox="0 0 24 24"><path d="M13.086 12.5l-4.293 4.293a1 1 0 1 0 1.414 1.414l5-5a1 1 0 0 0 0-1.414l-5-5a1 1 0 1 0-1.414 1.414l4.293 4.293z"/></symbol><symbol id="icon-chevron-up" viewBox="0 0 24 24"><path d="M12 10.414l4.293 4.293a1 1 0 0 0 1.414-1.414l-5-5a1 1 0 0 0-1.414 0l-5 5a1 1 0 1 0 1.414 1.414L12 10.414z"/></symbol><symbol id="icon-close" viewBox="0 0 24 24"><path d="M13.414 12l5.293-5.293a1 1 0 1 0-1.414-1.414L12 10.586 6.707 5.293a1 1 0 0 0-1.414 1.414L10.586 12l-5.293 5.293a1 1 0 0 0 1.414 1.414L12 13.414l5.293 5.293a1 1 0 0 0 1.414-1.414L13.414 12z"/></symbol><symbol id="icon-delivery" viewBox="0 0 24 24"><path fill-rule="evenodd" d="M17 19.364a.826.826 0 0 1-.833-.819c0-.451.373-.818.833-.818.46 0 .833.367.833.818a.826.826 0 0 1-.833.819zm-8.487-1.637a2.494 2.494 0 0 0-2.346-1.636 2.494 2.494 0 0 0-2.347 1.636h-.153V4.637h9.166V12H6.167a.826.826 0 0 0-.834.818c0 .452.373.818.834.818h12.988l1.178 1.157v2.934h-.986A2.494 2.494 0 0 0 17 16.091c-1.096 0-2.018.7-2.356 1.665-.048-.01-.092-.029-.144-.029H8.513zm-2.346 1.637a.826.826 0 0 1-.834-.819c0-.451.374-.818.834-.818.46 0 .833.367.833.818a.826.826 0 0 1-.833.819zM17.183 7.09l1.25 4.91H14.5V7.09h2.683zm2.164 12.273h1.82c.46 0 .833-.366.833-.819v-4.09a.807.807 0 0 0-.244-.579L20.253 12.4l-1.611-6.326a.832.832 0 0 0-.809-.62H14.5V3.819A.826.826 0 0 0 13.667 3H2.833A.826.826 0 0 0 2 3.818v14.727c0 .453.373.819.833.819h.987A2.494 2.494 0 0 0 6.167 21a2.494 2.494 0 0 0 2.346-1.636H14.5c.052 0 .096-.02.144-.029A2.493 2.493 0 0 0 17 21a2.494 2.494 0 0 0 2.347-1.636z"/></symbol><symbol id="icon-dislike" viewBox="0 0 24 24"><path d="M6 6v8h2V6H6zm4-1h7.512a2 2 0 0 1 1.916 1.425l1.8 6A2 2 0 0 1 19.312 15H17a1 1 0 0 0-1 1v2a2 2 0 1 1-4 0v-1a2 2 0 0 0-2-2 1 1 0 0 1-1 1H5a1 1 0 0 1-1-1V5a1 1 0 0 1 1-1h4a1 1 0 0 1 1 1zm4 11a3 3 0 0 1 3-3h2.312l-1.8-6H10v6a4 4 0 0 1 4 4v1-2z"/></symbol><symbol id="icon-dots" viewBox="0 0 24 24"><path fill-rule="evenodd" d="M4 14a2 2 0 1 1 0-4 2 2 0 0 1 0 4zm8 0a2 2 0 1 1 0-4 2 2 0 0 1 0 4zm8 0a2 2 0 1 1 0-4 2 2 0 0 1 0 4z"/></symbol><symbol id="icon-download" viewBox="0 0 24 24"><path d="M11 13.586V2a1 1 0 0 1 2 0v11.586l2.293-2.293a1 1 0 0 1 1.414 1.414l-4 4a1 1 0 0 1-1.414 0l-4-4a1 1 0 0 1 1.414-1.414L11 13.586zM2 17a1 1 0 0 1 2 0v3a1 1 0 0 0 1 1h14a1 1 0 0 0 1-1v-3a1 1 0 0 1 2 0v3a3 3 0 0 1-3 3H5a3 3 0 0 1-3-3v-3z"/></symbol><symbol id="icon-edit" viewBox="0 0 24 24"><path d="M17.669 7.762l1.414-1.414-1.414-1.414-1.414 1.414 1.414 1.414zm-1.414 1.415L14.84 7.762l-9.149 9.15-.067 1.48 1.482-.066 9.149-9.15zm2.828-5.657l1.414 1.414a2 2 0 0 1 0 2.828L8.52 19.74a2 2 0 0 1-1.323.583l-1.482.068a2 2 0 0 1-2.089-2.089l.068-1.482a2 2 0 0 1 .583-1.323L16.255 3.52a2 2 0 0 1 2.828 0z"/></symbol><symbol id="icon-eye" viewBox="0 0 24 24"><path d="M12 9a3 3 0 1 1 0 6 3 3 0 0 1 0-6zm0-4.5c5 0 9.27 3.11 11 7.5-1.73 4.39-6 7.5-11 7.5S2.73 16.39 1 12c1.73-4.39 6-7.5 11-7.5zM3.18 12a9.821 9.821 0 0 0 17.64 0 9.821 9.821 0 0 0-17.64 0z"/></symbol><symbol id="icon-fb" viewBox="0 0 24 24"><path d="M17 8.476h-3.065V6.4c0-.78.5-.961.853-.961h2.163V2.012L13.97 2c-3.306 0-4.059 2.556-4.059 4.192v2.284H8v3.531h1.912V22h4.023v-9.993h2.714L17 8.477z"/></symbol><symbol id="icon-file" viewBox="0 0 24 24"><path d="M15 4.414V7h2.586L15 4.414zM19 9h-5a1 1 0 0 1-1-1V3H6a1 1 0 0 0-1 1v16a1 1 0 0 0 1 1h12a1 1 0 0 0 1-1V9zm-5-8a1 1 0 0 1 .707.293l6 6A1 1 0 0 1 21 8v12a3 3 0 0 1-3 3H6a3 3 0 0 1-3-3V4a3 3 0 0 1 3-3h8zm2 11a1 1 0 0 1 0 2H8a1 1 0 0 1 0-2h8zm0 4a1 1 0 0 1 0 2H8a1 1 0 0 1 0-2h8zm-6-8a1 1 0 0 1 0 2H8a1 1 0 1 1 0-2h2z"/></symbol><symbol id="icon-flag" viewBox="0 0 24 24"><path d="M6 4.148A9.738 9.738 0 0 1 7.75 4c2.25 0 5.642 1.554 7.5 1.694a6.423 6.423 0 0 0 2.447-.3A1 1 0 0 1 19 6.347v7.421a1 1 0 0 1-.464.845c-.647.41-1.742.542-3.286.397-3.017-.283-5.625-1.694-7.5-1.694-.583 0-1.167.062-1.75.185V20.5a1 1 0 0 1-2 0v-17a1 1 0 1 1 2 0v.648zm0 7.317a10.415 10.415 0 0 1 1.75-.149c1.14 0 1.337.052 4.33.958 1.423.43 2.373.653 3.357.745.64.06 1.16.063 1.552.015.002 0 .006-1.808.011-5.424-.632.1-1.267.126-1.9.078-.94-.07-1.475-.212-3.836-.92a58.152 58.152 0 0 0-.77-.227C9.22 6.174 8.355 6 7.75 6c-.665 0-1.247.066-1.75.193v5.272z"/></symbol><symbol id="icon-google" viewBox="0 0 24 24"><path d="M12.665 10.425c-.004.985 0 1.97.005 2.954 1.65.054 3.305.029 4.956.054-.728 3.661-5.71 4.848-8.345 2.457-2.71-2.097-2.581-6.698.236-8.646 1.97-1.572 4.77-1.184 6.74.178a30.836 30.836 0 0 0 2.196-2.276c-1.638-1.307-3.649-2.238-5.788-2.139-4.463-.149-8.568 3.76-8.642 8.225-.285 3.649 2.114 7.227 5.502 8.518 3.376 1.3 7.704.414 9.86-2.619 1.422-1.915 1.728-4.38 1.563-6.698-2.764-.02-5.523-.016-8.283-.008z"/></symbol><symbol id="icon-heart" viewBox="0 0 24 24"><path fill-rule="evenodd" d="M6.706 5.742c-.785 0-1.57.317-2.168.95a3.33 3.33 0 0 0-.893 2.297c0 .87.318 1.686.893 2.296l1.544 1.636 4.877 5 4.971-5.015 1.53-1.621c1.194-1.266 1.194-3.327 0-4.593a2.95 2.95 0 0 0-4.336 0L11.58 8.328a.79.79 0 0 1-1.163 0L8.873 6.692a2.972 2.972 0 0 0-2.167-.95M20 18h1.01c.546 0 .99.444.99 1a1 1 0 0 1-.99 1H20v1.01c0 .546-.444.99-1 .99a1 1 0 0 1-1-.99V20h-1.01a.993.993 0 0 1-.99-1 1 1 0 0 1 .99-1H18v-1.01c0-.546.444-.99 1-.99a1 1 0 0 1 1 .99V18zm-9.618 1.755l-7.007-7.238C2.49 11.58 2 10.325 2 8.99c0-1.337.489-2.59 1.375-3.53 1.838-1.945 4.826-1.945 6.661 0L11 6.48l.962-1.02c1.836-1.945 4.824-1.945 6.661 0 1.837 1.946 1.837 5.113 0 7.058l-1.544 1.636-5.557 5.607a.792.792 0 0 1-1.14-.005z"/></symbol><symbol id="icon-instagram" viewBox="0 0 24 24"><path d="M17.998 2H5.832C3.72 2 2 3.685 2 5.757v11.928c0 2.071 1.72 3.756 3.832 3.756h12.166c2.114 0 3.832-1.685 3.832-3.757V5.756C21.83 3.685 20.111 2 17.998 2zm1.1 2.24l.438-.001v3.295l-3.35.01-.012-3.294 2.923-.01zM9.084 9.725a3.51 3.51 0 0 1 2.83-1.427c1.165 0 2.195.566 2.83 1.427.413.562.66 1.25.66 1.995 0 1.887-1.567 3.422-3.49 3.422-1.925 0-3.49-1.535-3.49-3.422 0-.745.247-1.433.66-1.995zm10.813 7.959c0 1.028-.852 1.863-1.9 1.863H5.832c-1.048 0-1.9-.835-1.9-1.863V9.725h2.96c-.256.617-.4 1.29-.4 1.995 0 2.931 2.433 5.317 5.423 5.317s5.422-2.386 5.422-5.317c0-.705-.144-1.378-.4-1.995h2.961v7.959z"/></symbol><symbol id="icon-invoice" viewBox="0 0 24 24"><path d="M7.17 5A3.001 3.001 0 0 1 10 3h4c1.306 0 2.417.835 2.83 2H17a3 3 0 0 1 3 3v10a3 3 0 0 1-3 3H7a3 3 0 0 1-3-3V8a3 3 0 0 1 3-3h.17zm0 2H7a1 1 0 0 0-1 1v10a1 1 0 0 0 1 1h10a1 1 0 0 0 1-1V8a1 1 0 0 0-1-1h-.17A3.001 3.001 0 0 1 14 9h-4a3.001 3.001 0 0 1-2.83-2zM15 15a1 1 0 0 1 0 2h-2a1 1 0 0 1 0-2h2zm0-4a1 1 0 0 1 0 2H9a1 1 0 0 1 0-2h6zm-5-6a1 1 0 1 0 0 2h4a1 1 0 0 0 0-2h-4z"/></symbol><symbol id="icon-like" viewBox="0 0 24 24"><path d="M6 10v8h2v-8H6zm4-1a2 2 0 0 0 2-2V6a2 2 0 1 1 4 0v2a1 1 0 0 0 1 1h2.312a2 2 0 0 1 1.916 2.575l-1.8 6A2 2 0 0 1 17.512 19H10a1 1 0 0 1-1 1H5a1 1 0 0 1-1-1V9a1 1 0 0 1 1-1h4a1 1 0 0 1 1 1zm4-1V6v1a4 4 0 0 1-4 4v6h7.512l1.8-6H17a3 3 0 0 1-3-3z"/></symbol><symbol id="icon-logout" viewBox="0 0 24 24"><path d="M19.5 22H4a2 2 0 0 1-2-2V4a2 2 0 0 1 2-2h17a1 1 0 0 1 0 2H4v16h17a1 1 0 0 1 0 2h-1.5zm-.914-9H9a1 1 0 0 1 0-2h9.586l-2.293-2.293a1 1 0 1 1 1.414-1.414l4 4a1 1 0 0 1 0 1.414l-4 4a1 1 0 0 1-1.414-1.414L18.586 13z"/></symbol><symbol id="icon-menu" viewBox="0 0 24 24"><path d="M3 7a1 1 0 1 1 0-2h18a1 1 0 0 1 0 2H3zm0 6a1 1 0 0 1 0-2h18a1 1 0 0 1 0 2H3zm0 6a1 1 0 0 1 0-2h18a1 1 0 0 1 0 2H3z"/></symbol><symbol id="icon-minus" viewBox="0 0 24 24"><rect width="12" height="2" x="6" y="11" fill-rule="evenodd" rx="1"/></symbol><symbol id="icon-order" viewBox="0 0 24 24"><path d="M17 9H3a1 1 0 1 0 0 2h14a1 1 0 0 0 0-2zm4-4H3a1 1 0 1 0 0 2h18a1 1 0 0 0 0-2zm-8 8H3a1 1 0 0 0 0 2h10a1 1 0 0 0 0-2zm-4 4H3a1 1 0 0 0 0 2h6a1 1 0 0 0 0-2z"/></symbol><symbol id="icon-pin" viewBox="0 0 24 24"><path d="M12 22.67l-6.129-6.13a8.667 8.667 0 1 1 12.258 0L12 22.67zm4.714-7.543a6.667 6.667 0 1 0-9.428 0L12 19.84l4.714-4.714zM12 13.83a4 4 0 1 1 0-8 4 4 0 0 1 0 8zm0-2a2 2 0 1 0 0-4 2 2 0 0 0 0 4z"/></symbol><symbol id="icon-plus" viewBox="0 0 24 24"><path fill-rule="evenodd" d="M11 13v3.998a.999.999 0 1 0 2 0V13h3.998a.999.999 0 1 0 0-2H13V7.002a.999.999 0 1 0-2 0V11H7.002a.999.999 0 1 0 0 2H11z"/></symbol><symbol id="icon-progress-check" viewBox="0 0 24 24"><path d="M21 11.07a1 1 0 0 1 2 0V12a11 11 0 1 1-6.523-10.053 1 1 0 0 1-.814 1.826A9 9 0 1 0 21 12v-.93zm-9 1.516l9.293-9.293a1 1 0 0 1 1.414 1.414l-10 10a1 1 0 0 1-1.414 0l-3-3a1 1 0 0 1 1.414-1.414L12 12.586z"/></symbol><symbol id="icon-react" viewBox="0 0 24 24"><path d="M11.172 16H19a1 1 0 0 0 1-1V6a1 1 0 0 0-1-1H5a1 1 0 0 0-1 1v9a1 1 0 0 0 1 1h4v2.172L11.172 16zm-.41-6.5l.878-.732a1 1 0 1 0-1.28-1.536l-3 2.5a1 1 0 0 0 0 1.536l3 2.5a1 1 0 1 0 1.28-1.536l-.878-.732H14a1.5 1.5 0 0 1 1.5 1.5 1 1 0 0 0 2 0A3.5 3.5 0 0 0 14 9.5h-3.238zM12 18l-3.293 3.293A1 1 0 0 1 7 20.586V18H5a3 3 0 0 1-3-3V6a3 3 0 0 1 3-3h14a3 3 0 0 1 3 3v9a3 3 0 0 1-3 3h-7z"/></symbol><symbol id="icon-reaction" viewBox="0 0 24 24"><path d="M15.238 13.5l-.878.732a1 1 0 1 0 1.28 1.536l3-2.5a1 1 0 0 0 0-1.536l-3-2.5a1 1 0 0 0-1.28 1.536l.878.732h-4.965A3.773 3.773 0 0 1 6.5 7.727a1 1 0 1 0-2 0 5.773 5.773 0 0 0 5.773 5.773h4.965z"/></symbol><symbol id="icon-reduction" viewBox="0 0 24 24"><path d="M10.988 10.587l-.041.44a.823.823 0 0 0-.004.077v6.503a1 1 0 0 0 .22.624l1.362 1.704c.01.003.017-2.94.02-8.83a.823.823 0 0 0-.003-.078l-.042-.44L18.49 4H5l5.988 6.587zm-2.045.724L3.52 5.345A2 2 0 0 1 5 2h13.489a2 2 0 0 1 1.48 3.345l-5.424 5.966v8.617a2.011 2.011 0 0 1-3.582 1.256l-1.362-1.703a3 3 0 0 1-.658-1.874V11.31z"/></symbol><symbol id="icon-save" viewBox="0 0 24 24"><path d="M6 4H5a1 1 0 0 0-1 1v14a1 1 0 0 0 1 1h14a1 1 0 0 0 1-1V8.414L15.586 4H8v4h8a1 1 0 0 1 0 2H7a1 1 0 0 1-1-1V4zm13 18H5a3 3 0 0 1-3-3V5a3 3 0 0 1 3-3h11a1 1 0 0 1 .707.293l5 5A1 1 0 0 1 22 8v11a3 3 0 0 1-3 3zm-7-3a4 4 0 1 1 0-8 4 4 0 0 1 0 8zm0-2a2 2 0 1 0 0-4 2 2 0 0 0 0 4z"/></symbol><symbol id="icon-search" viewBox="0 0 24 24"><path d="M21.7 20.3L18 16.6c1.2-1.5 2-3.5 2-5.6 0-5-4-9-9-9s-9 4-9 9 4 9 9 9c2.1 0 4.1-.7 5.6-2l3.7 3.7c.2.2.5.3.7.3.2 0 .5-.1.7-.3.4-.4.4-1 0-1.4zM11 18c-3.9 0-7-3.1-7-7s3.1-7 7-7 7 3.1 7 7-3.1 7-7 7z"/></symbol><symbol id="icon-star-half" viewBox="0 0 24 24"><g fill-rule="evenodd"><path d="M12.002 17.515L7.43 20.807c-.678.488-1.579-.186-1.314-.982l1.727-5.178-4.472-3.102c-.692-.484-.352-1.556.49-1.556h5.571l1.754-5.388c.13-.399.314-.601.82-.601-.006 3-.004 13.515-.004 13.515z"/><path d="M12.005 17.515l4.572 3.292c.678.488 1.579-.186 1.314-.982l-1.727-5.178 4.472-3.102c.692-.484.352-1.556-.49-1.556h-5.571L12.82 4.601C12.69 4.202 12.507 4 12 4c.006 3 .004 13.515.004 13.515z"/></g></symbol><symbol id="icon-star" viewBox="0 0 24 24"><path fill-rule="evenodd" d="M12.818 3.59l1.755 5.399h5.566c.842 0 1.181 1.074.488 1.557l-4.465 3.102 1.73 5.23c.262.799-.644 1.466-1.32.973l-4.57-3.336-4.572 3.292c-.678.488-1.579-.186-1.314-.982l1.727-5.178-4.472-3.102c-.692-.484-.352-1.556.49-1.556h5.571l1.754-5.388c.26-.794 1.373-.805 1.632-.011"/></symbol><symbol id="icon-target" viewBox="0 0 24 24"><path d="M3.055 11A9.004 9.004 0 0 1 11 3.055V1.5a1 1 0 0 1 2 0v1.555A9.004 9.004 0 0 1 20.945 11h1.678a1 1 0 1 1 0 2h-1.678A9.004 9.004 0 0 1 13 20.945V22.5a1 1 0 0 1-2 0v-1.555A9.004 9.004 0 0 1 3.055 13H1.5a1 1 0 0 1 0-2h1.555zM12 19a7 7 0 1 0 0-14 7 7 0 0 0 0 14zm0-3a4 4 0 1 1 0-8 4 4 0 0 1 0 8zm0-2a2 2 0 1 0 0-4 2 2 0 0 0 0 4z"/></symbol><symbol id="icon-time" viewBox="0 0 24 24"><path d="M12 23C5.925 23 1 18.075 1 12S5.925 1 12 1s11 4.925 11 11-4.925 11-11 11zm0-2a9 9 0 1 0 0-18 9 9 0 0 0 0 18zm1-15v5.586l2.707 2.707a1 1 0 0 1-1.414 1.414l-3-3A1 1 0 0 1 11 12V6a1 1 0 0 1 2 0z"/></symbol><symbol id="icon-transit" viewBox="0 0 24 24"><path fill-rule="evenodd" d="M17 19.364a.826.826 0 0 1-.833-.819c0-.451.373-.818.833-.818.46 0 .833.367.833.818a.826.826 0 0 1-.833.819zm-8.487-1.637a2.494 2.494 0 0 0-2.346-1.636 2.494 2.494 0 0 0-2.347 1.636h-.153V4.637h9.166V12H6.167a.826.826 0 0 0-.834.818c0 .452.373.818.834.818h12.988l1.178 1.157v2.934h-.986A2.494 2.494 0 0 0 17 16.091c-1.096 0-2.018.7-2.356 1.665-.048-.01-.092-.029-.144-.029H8.513zm-2.346 1.637a.826.826 0 0 1-.834-.819c0-.451.374-.818.834-.818.46 0 .833.367.833.818a.826.826 0 0 1-.833.819zM17.183 7.09l1.25 4.91H14.5V7.09h2.683zm2.164 12.273h1.82c.46 0 .833-.366.833-.819v-4.09a.807.807 0 0 0-.244-.579L20.253 12.4l-1.611-6.326a.832.832 0 0 0-.809-.62H14.5V3.819A.826.826 0 0 0 13.667 3H2.833A.826.826 0 0 0 2 3.818v14.727c0 .453.373.819.833.819h.987A2.494 2.494 0 0 0 6.167 21a2.494 2.494 0 0 0 2.346-1.636H14.5c.052 0 .096-.02.144-.029A2.493 2.493 0 0 0 17 21a2.494 2.494 0 0 0 2.347-1.636z"/></symbol><symbol id="icon-trash" viewBox="0 0 24 24"><g fill-rule="evenodd"><path fill-rule="nonzero" d="M7 5V4a3 3 0 0 1 3-3h4a3 3 0 0 1 3 3v1h4c1.333 0 1.333 2 0 2h-1v13a3 3 0 0 1-3 3H7a3 3 0 0 1-3-3V7H3C1.667 7 1.667 5 3 5h4zm2 0h6V4a1 1 0 0 0-1-1h-4a1 1 0 0 0-1 1v1zm9 2H6v13a1 1 0 0 0 1 1h10a1 1 0 0 0 1-1V7z"/><path d="M12.071 15.485l2.125 2.125c.381.382 1.02.387 1.41-.003a.995.995 0 0 0 .004-1.411l-2.125-2.125 2.125-2.125a1.004 1.004 0 0 0-.003-1.41.995.995 0 0 0-1.411-.004l-2.125 2.125-2.125-2.125a1.004 1.004 0 0 0-1.41.004.995.995 0 0 0-.004 1.41l2.125 2.125-2.125 2.125a1.004 1.004 0 0 0 .004 1.41.995.995 0 0 0 1.41.004l2.125-2.125z"/></g></symbol><symbol id="icon-upload" viewBox="0 0 24 24"><path d="M13 4.414V16a1 1 0 0 1-2 0V4.414L8.707 6.707a1 1 0 0 1-1.414-1.414l4-4a1 1 0 0 1 1.414 0l4 4a1 1 0 1 1-1.414 1.414L13 4.414zM2 17a1 1 0 0 1 2 0v3a1 1 0 0 0 1 1h14a1 1 0 0 0 1-1v-3a1 1 0 0 1 2 0v3a3 3 0 0 1-3 3H5a3 3 0 0 1-3-3v-3z"/></symbol><symbol id="icon-user" viewBox="0 0 24 24"><path d="M7.987 21.162A9.966 9.966 0 0 0 12 22a9.966 9.966 0 0 0 4.013-.838A1.007 1.007 0 0 1 16 21a4 4 0 1 0-8 0c0 .055-.004.11-.013.162zm-1.913-1.106a6.002 6.002 0 0 1 11.852 0A9.986 9.986 0 0 0 22 12c0-5.523-4.477-10-10-10S2 6.477 2 12a9.986 9.986 0 0 0 4.074 8.056zM12 24C5.373 24 0 18.627 0 12S5.373 0 12 0s12 5.373 12 12-5.373 12-12 12zm0-10a4 4 0 1 1 0-8 4 4 0 0 1 0 8zm0-2a2 2 0 1 0 0-4 2 2 0 0 0 0 4z"/></symbol><symbol id="icon-youtube" viewBox="0 0 24 24"><path d="M19 11.42H5.305c-2.177 0-3.942 1.803-3.942 4.025v3.233c0 2.22 1.765 4.023 3.942 4.023h13.697c2.177 0 3.942-1.802 3.942-4.023v-3.233c0-2.222-1.765-4.024-3.942-4.024zM8.183 13.939H6.908v6.456h-1.23v-6.456H4.406V12.84h3.776v1.098zm3.597 6.456h-1.092v-.61a2.343 2.343 0 0 1-.63.514 1.295 1.295 0 0 1-.634.178c-.253 0-.441-.082-.57-.25-.127-.166-.192-.413-.192-.746v-4.66h1.091v4.276a.49.49 0 0 0 .068.286c.047.06.122.088.225.088.079 0 .18-.038.304-.117.123-.079.236-.177.338-.3V14.82h1.092v5.574zm3.961-1.15c0 .393-.085.696-.257.907-.17.21-.419.315-.741.315-.215 0-.406-.04-.572-.122a1.408 1.408 0 0 1-.467-.377v.427H12.6V12.84h1.104v2.433a1.71 1.71 0 0 1 .468-.387c.166-.09.334-.132.504-.132.345 0 .608.117.79.355.183.237.275.585.275 1.041v3.093zm3.786-1.502h-2.088v1.05c0 .292.035.496.106.61.073.114.196.17.37.17.182 0 .307-.048.38-.145.07-.097.108-.308.108-.635v-.254h1.124v.286c0 .571-.136 1.002-.412 1.292-.272.288-.68.43-1.225.43-.49 0-.875-.151-1.155-.458-.28-.304-.422-.727-.422-1.264v-2.503c0-.482.155-.878.465-1.182.308-.304.705-.456 1.194-.456.5 0 .885.14 1.153.423.268.282.402.686.402 1.215v1.42zm-1.601-2.085c-.174 0-.298.05-.374.154-.077.098-.113.266-.113.5v.563h.964v-.563c0-.234-.038-.402-.115-.5-.073-.103-.196-.154-.362-.154zm-3.765-.018c.147 0 .26.048.34.144.078.098.115.24.115.429v2.878c0 .179-.032.305-.094.384-.063.08-.16.12-.295.12a.63.63 0 0 1-.264-.06.934.934 0 0 1-.258-.199v-3.472a.783.783 0 0 1 .225-.17.529.529 0 0 1 .231-.054zM7.098 9.485V6.188L5.45 1.162h1.393l.9 3.327h.086l.856-3.327h1.407L8.48 6.032v3.453H7.098zm4.868.155c-.537 0-.968-.155-1.29-.464-.323-.31-.485-.722-.485-1.245V4.75c0-.477.166-.855.496-1.136.33-.282.776-.423 1.335-.423.508 0 .925.15 1.25.445.324.297.487.682.487 1.149v3.172c0 .525-.16.935-.476 1.235-.32.3-.758.449-1.317.449zm-.51-4.938v3.345c0 .169.044.298.13.39.089.094.214.14.377.14a.547.547 0 0 0 .396-.141.51.51 0 0 0 .147-.388V4.702a.406.406 0 0 0-.15-.325.6.6 0 0 0-.393-.123c-.15 0-.272.04-.367.123a.422.422 0 0 0-.14.325zm4.158 4.873c-.285 0-.497-.093-.643-.277-.142-.182-.214-.455-.214-.821V3.345h1.227v4.708c0 .144.028.249.079.313.05.067.135.1.25.1.09 0 .204-.044.344-.13a1.71 1.71 0 0 0 .377-.33v-4.66h1.23v6.14h-1.23v-.68c-.224.25-.46.44-.707.572a1.52 1.52 0 0 1-.713.197z"/></symbol><symbol id="icon-zoom-in" viewBox="0 0 24 24"><path d="M21.7 20.3L18 16.6c1.2-1.5 2-3.5 2-5.6 0-5-4-9-9-9s-9 4-9 9 4 9 9 9c2.1 0 4.1-.7 5.6-2l3.7 3.7c.2.2.5.3.7.3.2 0 .5-.1.7-.3.4-.4.4-1 0-1.4zM12 10V7.997C12 7.453 11.552 7 11 7c-.556 0-1 .446-1 .997V10H7.997C7.453 10 7 10.448 7 11c0 .556.446 1 .997 1H10v2.003c0 .544.448.997 1 .997.556 0 1-.446 1-.997V12h2.003c.544 0 .997-.448.997-1 0-.556-.446-1-.997-1H12zm-1 8c-3.9 0-7-3.1-7-7s3.1-7 7-7 7 3.1 7 7-3.1 7-7 7z"/></symbol><symbol id="icon-zoom-out" viewBox="0 0 24 24"><path d="M21.7 20.3L18 16.6c1.2-1.5 2-3.5 2-5.6 0-5-4-9-9-9s-9 4-9 9 4 9 9 9c2.1 0 4.1-.7 5.6-2l3.7 3.7c.2.2.5.3.7.3.2 0 .5-.1.7-.3.4-.4.4-1 0-1.4zM11 18c-3.9 0-7-3.1-7-7s3.1-7 7-7 7 3.1 7 7-3.1 7-7 7zm3.003-8H7.997C7.453 10 7 10.448 7 11c0 .556.446 1 .997 1h6.006c.544 0 .997-.448.997-1 0-.556-.446-1-.997-1z"/></symbol></svg>