<?xml version="1.0" encoding="UTF-8"?><!DOCTYPE svg PUBLIC "-//W3C//DTD SVG 1.1//EN" "http://www.w3.org/Graphics/SVG/1.1/DTD/svg11.dtd"><svg xmlns="http://www.w3.org/2000/svg" xmlns:xlink="http://www.w3.org/1999/xlink"><symbol id="icon-avatar-child" viewBox="0 0 512 512"><path d="M243.26 310.246c0 7.036 5.704 12.74 12.74 12.74s12.74-5.704 12.74-12.74-5.704-12.74-12.74-12.74-12.74 5.704-12.74 12.74z"/><circle cx="303.143" cy="164.945" r="13.679"/><circle cx="208.857" cy="164.945" r="13.679"/><path d="M482.177 362.548h-3.182c-6.855 0-13.648-.208-20.377-.6a192.703 192.703 0 00-16.016-49.52 7.451 7.451 0 00-9.947-3.487 7.45 7.45 0 00-3.486 9.946 177.851 177.851 0 0114.039 41.811c-18.042-1.887-35.532-5.209-52.277-9.962a179.066 179.066 0 00-48.886-6.807c-30.102 0-59.025 7.383-86.045 21.917-27.02-14.534-55.943-21.917-86.045-21.917a179.04 179.04 0 00-48.887 6.807c-16.741 4.752-34.226 8.074-52.264 9.961 10.634-52.479 44.418-97.666 92.1-122.828a153.27 153.27 0 006.088 7.106v55.917c0 5.386 2.738 10.288 7.323 13.114a15.301 15.301 0 0015.004.645l53.004-26.674A92.258 92.258 0 00256 289.019c4.534 0 9.107-.353 13.691-1.036l52.99 26.668c9.758 5.316 22.688-2.641 22.327-13.759v-55.92a155.614 155.614 0 006.094-7.098c24.182 12.777 45.396 31.137 61.524 53.325a7.444 7.444 0 006.035 3.071 7.42 7.42 0 004.376-1.426 7.452 7.452 0 001.646-10.411c-17.036-23.437-39.314-42.935-64.71-56.722a149.594 149.594 0 003.541-5.668c3.195 1.166 6.586 1.761 10.106 1.761 4.989 0 10.226-1.173 15.487-3.524 10.018-4.476 19.073-12.833 25.495-23.532 6.479-10.792 9.021-21.862 7.352-32.015-1.651-10.046-7.359-18.459-16.073-23.689-7.624-4.578-16.373-5.935-24.863-4.036-4.184-25.855-16.906-48.265-36.963-64.87 5.789-6.405 10.478-13.882 13.673-22.189l8.64-22.468c2.105-5.475.566-11.453-3.921-15.23-4.488-3.777-10.641-4.274-15.676-1.265l-15.599 9.32c-11.631 6.949-25.997 7.881-38.428 2.493L255.071 4.47C233.939-4.689 209.23.517 193.589 17.427c-11.226 12.137-15.958 28.491-13.882 44.166-26.988 17.063-43.843 42.611-48.751 73.392-8.477-1.896-17.194-.529-24.837 4.058-8.714 5.231-14.422 13.644-16.073 23.69-1.669 10.153.873 21.223 7.352 32.015 6.422 10.698 15.477 19.056 25.496 23.532 5.261 2.35 10.498 3.524 15.487 3.524 3.519 0 6.911-.595 10.106-1.761a149.873 149.873 0 003.548 5.662c-51.895 28.127-88.254 78.309-98.659 136.244-6.727.392-13.517.6-20.371.6h-3.182c-10.269 0-18.624 8.355-18.624 18.623v106.62c0 13.349 10.86 24.209 24.209 24.209h184.154a7.453 7.453 0 007.453-7.453v-19.88c0-1.998.203-3.949.59-5.834 2.707-13.196 14.41-23.15 28.395-23.15 13.984 0 25.687 9.955 28.395 23.15.387 1.885.59 3.836.59 5.834v19.88a7.453 7.453 0 007.453 7.453h184.154c13.349 0 24.209-10.86 24.209-24.209v-106.62c0-10.269-8.354-18.624-18.624-18.624zm-299.559-61.212c-.093.046-.248.124-.484-.021-.236-.146-.236-.319-.236-.423v-41.634c.1.084.196.172.296.256 12.092 10.062 25.12 17.731 38.369 22.727zm147.484-.445c0 .104 0 .278-.236.423-.235.146-.391.067-.484.021l-37.912-19.08c13.418-5.048 26.539-12.814 38.632-22.966zm52.448-146.629c0-1.418-.032-2.825-.079-4.228 5.375-1.734 10.878-1.129 15.739 1.79 4.968 2.982 8.093 7.591 9.036 13.326 1.088 6.62-.788 14.203-5.424 21.925-4.864 8.104-11.54 14.353-18.795 17.594-2.825 1.262-7.644 2.853-12.432 1.907 7.777-16.917 11.955-34.799 11.955-52.314zM204.532 27.548c11.349-12.27 29.277-16.047 44.611-9.401l37.673 16.328c16.821 7.29 36.262 6.027 52.001-3.374l12.229-7.307-7.231 18.803c-8.403 21.851-29.778 36.532-53.188 36.532h-85.275a5.055 5.055 0 01-4.13-2.146c-10.613-15.097-9.221-35.887 3.31-49.435zm-64.833 152.215a7.452 7.452 0 00-4.979 9.29c1.795 5.942 4.051 11.795 6.686 17.523-4.788.947-9.609-.644-12.433-1.906-7.255-3.241-13.93-9.49-18.795-17.594-4.636-7.723-6.511-15.305-5.423-21.925.943-5.735 4.068-10.344 9.036-13.326 4.873-2.926 10.36-3.523 15.735-1.788a128.59 128.59 0 00-.075 4.226c0 4.117 3.337 7.453 7.453 7.453s7.453-3.336 7.453-7.453c0-32.519 14.009-59.795 39.623-77.605a53.533 53.533 0 005.049 8.899 19.979 19.979 0 0016.324 8.479h85.275c15.424 0 30.143-5.06 42.201-13.814 22.496 17.8 34.815 43.883 34.815 74.04 0 59.366-56.344 119.851-111.643 119.851-44.117 0-92.122-40.091-107.01-89.37a7.46 7.46 0 00-9.292-4.98zm108.848 261.649a44.06 44.06 0 00-29.392 19.45c-.08.114-.167.214-.243.334a178.694 178.694 0 00-48.957-6.851c-16.526 0-32.975 2.29-48.887 6.807a301.497 301.497 0 01-25.762 6.085c-4.044.77-6.697 4.673-5.927 8.716s4.671 6.7 8.716 5.927a315.627 315.627 0 0027.043-6.388 164.103 164.103 0 0144.817-6.24c14.579 0 29.084 1.962 43.223 5.827-.727 3.111-1.058 6.293-1.068 9.589v12.427H35.408c-5.13 0-9.347-4.099-9.347-9.608 0 0 1.595.382 3.761.382 0 0 23.869-.435 33.929-1.293a7.453 7.453 0 006.793-8.059c-.35-4.102-3.958-7.157-8.06-6.793-9.64.822-32.663 1.238-32.663 1.238a3.722 3.722 0 01-3.718-3.717v-88.074a3.722 3.722 0 013.718-3.717h3.182c32.196 0 63.195-4.165 92.133-12.379a164.14 164.14 0 0144.817-6.24c27.458 0 53.876 6.694 78.592 19.906v62.671zm44.256 19.384a44.06 44.06 0 00-29.35-19.384v-62.671c24.716-13.212 51.134-19.906 78.592-19.906a164.14 164.14 0 0144.817 6.24c28.939 8.214 59.938 12.379 92.134 12.379h3.182a3.722 3.722 0 013.718 3.717v88.074a3.722 3.722 0 01-3.718 3.717h-3.182c-30.822 0-60.451-3.974-88.064-11.811a179.036 179.036 0 00-48.887-6.807c-16.531 0-32.97 2.303-48.957 6.851-.089-.14-.191-.264-.285-.399zm193.092 26.995c0 5.13-4.173 9.303-9.303 9.303H299.891v-12.427c-.01-3.296-.341-6.478-1.068-9.589 14.138-3.865 28.643-5.827 43.223-5.827 15.15 0 30.228 2.099 44.817 6.24 28.937 8.214 59.936 12.378 92.134 12.378 0 0 5.669-.121 6.898-.376z"/><path d="M256 231.358c-11.681 0-23.126-4.046-32.227-11.392a7.5 7.5 0 119.422-11.672c6.535 5.275 14.421 8.063 22.805 8.063s16.27-2.788 22.805-8.063a7.5 7.5 0 0110.547 1.125 7.5 7.5 0 01-1.125 10.547c-9.101 7.346-20.546 11.392-32.227 11.392z"/></symbol><symbol id="icon-avatar-friend" viewBox="0 0 64 64"><path d="M29 23a3 3 0 00-6 0h2a1 1 0 012 0zm9-1a1 1 0 011 1h2a3 3 0 00-6 0h2a1 1 0 011-1z"/><path d="M49.29 43.46L37 40.23V37a13.022 13.022 0 007.84-10.08 4.914 4.914 0 003.85-3.23 4.974 4.974 0 00.98-8.9A4.9 4.9 0 0050 13a5.021 5.021 0 00-4.08-4.92A5.021 5.021 0 0041 4a4.9 4.9 0 00-1.79.33A4.979 4.979 0 0035 2a4.92 4.92 0 00-3 1.02A4.92 4.92 0 0029 2a4.979 4.979 0 00-4.21 2.33A4.9 4.9 0 0023 4a5.021 5.021 0 00-4.92 4.08A5.021 5.021 0 0014 13a4.9 4.9 0 00.33 1.79 4.974 4.974 0 00.98 8.9 5.074 5.074 0 001.16 1.85 4.986 4.986 0 002.69 1.38A13.022 13.022 0 0027 37v3.23l-12.3 3.23A9.03 9.03 0 008 52.17V61a1 1 0 001 1h46a1 1 0 001-1v-8.83a9.028 9.028 0 00-6.71-8.71zm-3.16-19.34a2.951 2.951 0 01-1.13.69V22a13.333 13.333 0 00-.34-2.92A2.992 2.992 0 0147 22a3.022 3.022 0 01-.87 2.12zM19 22v2.82a3.179 3.179 0 01-1.12-.69A3.03 3.03 0 0117 22a2.992 2.992 0 012.34-2.92A13.333 13.333 0 0019 22zm-2.28-3.76a5.01 5.01 0 00-1.65 3.06A3 3 0 0114 19a2.968 2.968 0 012.02-2.81 1.035 1.035 0 00.62-.64.99.99 0 00-.13-.88A2.964 2.964 0 0116 13a3.009 3.009 0 013-3 1 1 0 001-1 3.009 3.009 0 013-3 2.964 2.964 0 011.67.51.99.99 0 00.88.13 1.035 1.035 0 00.64-.62A2.968 2.968 0 0129 4a3.008 3.008 0 012.25 1.04 1.033 1.033 0 001.5 0A3.008 3.008 0 0135 4a2.968 2.968 0 012.81 2.02 1.035 1.035 0 00.64.62.99.99 0 00.88-.13A2.964 2.964 0 0141 6a3.009 3.009 0 013 3 1 1 0 001 1 3.009 3.009 0 013 3 2.964 2.964 0 01-.51 1.67.99.99 0 00-.13.88 1.035 1.035 0 00.62.64A2.968 2.968 0 0150 19a3 3 0 01-1.07 2.3A4.99 4.99 0 0044 17a13.207 13.207 0 00-4.71-5.76A12.994 12.994 0 0020 17a4.955 4.955 0 00-3.28 1.24zm24.67-1.93a14.974 14.974 0 00-18.78 0 10.957 10.957 0 0118.78 0zM21 25v-3c0-.34.02-.67.05-1a12.992 12.992 0 0121.9 0c.03.33.05.66.05 1v3a11 11 0 01-22 0zm7.25 16.97A1.014 1.014 0 0029 41v-3.36a12.68 12.68 0 006 0V41a1.014 1.014 0 00.75.97l3.74.98C38.38 44.03 35.54 45 32 45s-6.38-.97-7.49-2.05zM14 60h-4v-7.83a7.019 7.019 0 015.21-6.77l1.52-.4a32.358 32.358 0 01.27 4c0 7.12-1.98 11-3 11zm2.78 0C18.24 57.57 19 53.28 19 49a33.166 33.166 0 00-.32-4.52l3.75-.98C23.65 45.58 27.4 47 32 47s8.35-1.42 9.57-3.5l3.75.98A33.166 33.166 0 0045 49c0 4.28.76 8.57 2.22 11zM54 60h-4c-1.02 0-3-3.88-3-11a32.358 32.358 0 01.27-4l1.51.4A7.017 7.017 0 0154 52.17z"/><path d="M37 29h-2c0 .249-1.064 1-3 1s-3-.751-3-1h-2c0 1.71 2.149 3 5 3s5-1.29 5-3z"/></symbol><symbol id="icon-avatar-grandparent" viewBox="0 0 64 64"><g data-name="avatar-man-boy-people-user"><path d="M29 23a3 3 0 00-6 0h2a1 1 0 012 0zm8 0a1 1 0 012 0h2a3 3 0 00-6 0z"/><path d="M49.29 43.46L37 40.23V37a13.022 13.022 0 007.84-10.08 4.975 4.975 0 001.63-9.24c.03-.07.06-.13.09-.19a4.047 4.047 0 003.51-1.99 3.962 3.962 0 00-.04-4.02 4.27 4.27 0 00.3-.44 3.989 3.989 0 00-4.07-5.95 3.983 3.983 0 00-4.76-2.42 3.9 3.9 0 00-2.21 1.57 12.983 12.983 0 00-14.58 0 3.971 3.971 0 00-6.97.85 3.931 3.931 0 00-2.61.49 4.007 4.007 0 00-1.45 5.47 4.048 4.048 0 00.29.43 3.962 3.962 0 00-.03 4.02 4.031 4.031 0 003.5 1.99c.03.06.06.12.09.19a4.972 4.972 0 00-1.06 7.86 5.053 5.053 0 002.69 1.38A13.037 13.037 0 0027 37v3.23l-12.3 3.23A9.03 9.03 0 008 52.17V61a1 1 0 001 1h46a1 1 0 001-1v-8.83a9.028 9.028 0 00-6.71-8.71zM47 22a3.022 3.022 0 01-.87 2.12 2.951 2.951 0 01-1.13.69v-5.63A3.01 3.01 0 0147 22zM42.02 4.6a2.007 2.007 0 012.51 1.83 1.055 1.055 0 00.5.8 1.039 1.039 0 00.94.03 1.973 1.973 0 011.9.05 2 2 0 01.73 2.72 1.943 1.943 0 01-.52.59 1.021 1.021 0 00-.37.73 1 1 0 00.3.76 1.986 1.986 0 01.33 2.39 2.019 2.019 0 01-2.25.92.968.968 0 00-.81.13.833.833 0 00-.28.28V15a12.985 12.985 0 00-4.16-9.51 2 2 0 011.18-.89zM19 24.82a3.179 3.179 0 01-1.12-.69A3 3 0 0119 19.18zM19 15v.83a.833.833 0 00-.28-.28.973.973 0 00-.81-.13 2.006 2.006 0 01-2.24-.92 1.97 1.97 0 01.32-2.39 1 1 0 00.3-.76 1.021 1.021 0 00-.37-.73 1.858 1.858 0 01-.51-.58 2 2 0 01.72-2.73 1.973 1.973 0 011.9-.05 1.01 1.01 0 00.94-.03 1.055 1.055 0 00.5-.8 1.985 1.985 0 013.69-.93A12.946 12.946 0 0019 15zm2 10V15a11 11 0 0122 0v10a11 11 0 01-22 0zm14 12.64V41a3 3 0 01-6 0v-3.36a12.68 12.68 0 006 0zM23 49v11H10v-7.83a7.008 7.008 0 015.21-6.77l11.97-3.15a4.993 4.993 0 002.15 2.96l-5.78 2.9A.988.988 0 0023 49zm31 11H25V49.62l7.3-3.65a4.965 4.965 0 004.52-3.72l11.96 3.15A7.006 7.006 0 0154 52.17z"/><path d="M27 52h2v2h-2zm0 4h2v2h-2zm10-4h8v2h-8zm-8-36h6v2h-6zm1-4h4v2h-4zm7 17h-2c0 .249-1.064 1-3 1s-3-.751-3-1h-2c0 1.71 2.149 3 5 3s5-1.29 5-3z"/></g></symbol><symbol id="icon-avatar-other" viewBox="0 0 64 64"><path d="M29 23a3 3 0 00-6 0h2a1 1 0 012 0zm9-1a1 1 0 011 1h2a3 3 0 00-6 0h2a1 1 0 011-1z"/><path d="M49.29 43.46L37 40.23V37a13.022 13.022 0 007.84-10.08A4.967 4.967 0 0048 19.03V18a16 16 0 00-32 0v1.03A4.939 4.939 0 0015 22a4.982 4.982 0 004.16 4.92A13.037 13.037 0 0027 37v3.23l-12.3 3.23A9.03 9.03 0 008 52.17V61a1 1 0 001 1h46a1 1 0 001-1v-8.83a9.028 9.028 0 00-6.71-8.71zm-8.29.42l3.52 5.64-3.52 1.4zM47 22a3.022 3.022 0 01-.87 2.12 2.951 2.951 0 01-1.13.69v-5.63A3.01 3.01 0 0147 22zm-28 2.82a3.179 3.179 0 01-1.12-.69A3 3 0 0119 19.18zm-.97-7.41a13.973 13.973 0 0123.86-9.3 13.808 13.808 0 014.08 9.3 4.738 4.738 0 00-1.6-.37l-6.79-4.85a1.015 1.015 0 00-.86-.15l-16.94 4.98a4.859 4.859 0 00-1.75.39zM21 25v-6.25l15.82-4.65L43 18.51V25a11 11 0 01-22 0zM10 60v-7.83a7.008 7.008 0 015.21-6.77l5.37-1.41-3.43 5.48a1.032 1.032 0 00-.1.84.99.99 0 00.58.62l3.41 1.36-3.66 2.93a.981.981 0 00-.38.77 1.013 1.013 0 00.36.78L21.24 60zm13-1.13l-3.42-2.85L23 53.28zm0-7.95l-3.52-1.4L23 43.88zM39 60H25V46.67A17.758 17.758 0 0032 48a17.758 17.758 0 007-1.33zm0-15.57A14.846 14.846 0 0132 46a14.846 14.846 0 01-7-1.57v-1.61l3.25-.85A1.014 1.014 0 0029 41v-3.36a12.68 12.68 0 006 0V41a1.014 1.014 0 00.75.97l3.25.85zm2 8.85l3.42 2.74L41 58.87zM54 60H42.76l3.88-3.23a1.013 1.013 0 00.36-.78.981.981 0 00-.38-.77l-3.66-2.93 3.41-1.36a.99.99 0 00.58-.62 1.032 1.032 0 00-.1-.84l-3.43-5.48 5.36 1.41A7.006 7.006 0 0154 52.17z"/><path d="M37 29h-2c0 .249-1.064 1-3 1s-3-.751-3-1h-2c0 1.71 2.149 3 5 3s5-1.29 5-3z"/></symbol><symbol id="icon-avatar-parent" viewBox="0 0 64 64"><path d="M29 23a3 3 0 00-6 0h2a1 1 0 012 0zm9-1a1 1 0 011 1h2a3 3 0 00-6 0h2a1 1 0 011-1z"/><path d="M49.29 43.46L37 40.23V37a13.022 13.022 0 007.84-10.08A4.967 4.967 0 0048 19.03V18a16 16 0 00-32 0v1.03A4.939 4.939 0 0015 22a4.982 4.982 0 004.16 4.92A13.037 13.037 0 0027 37v3.23l-12.3 3.23A9.03 9.03 0 008 52.17V61a1 1 0 001 1h46a1 1 0 001-1v-8.83a9.028 9.028 0 00-6.71-8.71zM47 22a3.022 3.022 0 01-.87 2.12 2.951 2.951 0 01-1.13.69v-5.63A3.01 3.01 0 0147 22zm-28 2.82a3.179 3.179 0 01-1.12-.69A3 3 0 0119 19.18zM20 17a5 5 0 00-1.97.41 13.973 13.973 0 0123.86-9.3 13.808 13.808 0 014.08 9.3A4.959 4.959 0 0044 17h-.86a3.006 3.006 0 01-2.5-1.34l-.81-1.21a.983.983 0 00-1.1-.41l-4.81 1.37a6.962 6.962 0 01-3.84 0l-4.81-1.37a.983.983 0 00-1.1.41l-.81 1.21a3.006 3.006 0 01-2.5 1.34zm1 8v-6a4.993 4.993 0 004.02-2.23l.41-.61 4.1 1.17a9.014 9.014 0 004.94 0l4.1-1.17.41.61A4.993 4.993 0 0043 19v6a11 11 0 01-22 0zm14 12.64v3.06l-3 4.5-3-4.5v-3.06a12.68 12.68 0 006 0zM16 60h-6v-7.83a7.008 7.008 0 015.21-6.77l.79-.21zm4 0h-2V44.66l2-.52zm4 0h-2V43.61l1.63-.43.37.52zm4 0h-2V46.45l2 2.75zm6 0h-4v-8.05l1.19 1.64a1.005 1.005 0 001.62 0L34 51.95zm4 0h-2V49.2l2-2.75zm-6-8.7l-6.3-8.66 1.86-.49 3.61 5.4a.99.99 0 001.66 0l3.61-5.4 1.86.49zM42 60h-2V43.7l.37-.52 1.63.43zm4 0h-2V44.14l2 .52zm8 0h-6V45.19l.78.21A7.006 7.006 0 0154 52.17z"/><path d="M37 29h-2c0 .249-1.064 1-3 1s-3-.751-3-1h-2c0 1.71 2.149 3 5 3s5-1.29 5-3z"/></symbol><symbol id="icon-avatar-sibling" viewBox="0 0 64 64"><path d="M29 23a3 3 0 00-6 0h2a1 1 0 012 0zm9-1a1 1 0 011 1h2a3 3 0 00-6 0h2a1 1 0 011-1z"/><path d="M49.29 43.46L37 40.23V37a13.022 13.022 0 007.84-10.08 4.985 4.985 0 00.96-9.57l2.98-3.73a1 1 0 00-.07-1.33l-.42-.42 1.54-2.32a.963.963 0 00.05-1.02A.984.984 0 0049 8h-1.61l.56-1.68a1.027 1.027 0 00-.06-.77l-1-2A.977.977 0 0046 3h-5.38l-.73-1.45a1 1 0 00-1.21-.5l-2.41.81L34.71.29a1.008 1.008 0 00-1.42 0L32 1.59 30.71.29a1.008 1.008 0 00-1.42 0l-1.56 1.57-2.41-.81a1 1 0 00-1.21.5L23.38 3H18a.977.977 0 00-.89.55l-1 2a1.027 1.027 0 00-.06.77L16.61 8H15a.984.984 0 00-.88.53.963.963 0 00.05 1.02l1.54 2.32-.42.42a1 1 0 00-.07 1.33l2.98 3.73a4.986 4.986 0 00-1.73 8.19 5.053 5.053 0 002.69 1.38A13.037 13.037 0 0027 37v3.23l-12.3 3.23A9.03 9.03 0 008 52.17V61a1 1 0 001 1h46a1 1 0 001-1v-8.83a9.028 9.028 0 00-6.71-8.71zM47 22a3 3 0 01-.87 2.12 2.951 2.951 0 01-1.13.69v-5.63A3.01 3.01 0 0147 22zm-28 2.82a3.179 3.179 0 01-1.12-.69A3 3 0 0119 19.18zm-1.66-11.75l.37-.36a1 1 0 00.12-1.26L16.87 10H18a.983.983 0 00.81-.42 1 1 0 00.14-.9l-.87-2.6.54-1.08H24a.977.977 0 00.89-.55l.62-1.23 2.17.73a1.028 1.028 0 001.03-.24L30 2.41l1.29 1.3a1.008 1.008 0 001.42 0L34 2.41l1.29 1.3a1.007 1.007 0 001.03.24l2.17-.73.62 1.23A.977.977 0 0040 5h5.38l.54 1.08-.87 2.6a1 1 0 00.14.9.983.983 0 00.81.42h1.13l-.96 1.45a1 1 0 00.12 1.26l.37.36-3.07 3.85-11.43-1.91a1.71 1.71 0 00-.32 0l-11.43 1.91zM21 25v-6.15l11-1.84 11 1.84V25a11 11 0 01-22 0zm7.25 16.97A1.014 1.014 0 0029 41v-3.36a12.68 12.68 0 006 0V41a1.014 1.014 0 00.75.97l2.21.58C37.63 45.05 35.09 47 32 47s-5.63-1.95-5.96-4.45zM21 60H10v-7.83a7.019 7.019 0 015.21-6.77L21 43.88zm20 0H23V43.35l1.1-.29C24.69 46.42 28 49 32 49s7.31-2.58 7.9-5.94l1.1.29zm13 0H43V43.88l5.78 1.52A7.017 7.017 0 0154 52.17z"/><path d="M37 29h-2c0 .249-1.064 1-3 1s-3-.751-3-1h-2c0 1.71 2.149 3 5 3s5-1.29 5-3z"/></symbol><symbol id="icon-avatar" viewBox="0 0 50 50"><path d="M13.005 44.629A22.893 22.893 0 0025 48a22.9 22.9 0 0011.019-2.806A1.005 1.005 0 0136 45c0-6.636-5.158-12-11.5-12-6.224 0-11.306 5.165-11.495 11.629zm-1.91-1.306C11.896 36.388 17.585 31 24.5 31c7.14 0 12.972 5.742 13.466 13C44.024 39.857 48 32.893 48 25 48 12.297 37.703 2 25 2S2 12.297 2 25c0 7.478 3.569 14.122 9.096 18.323zM25 50C11.193 50 0 38.807 0 25S11.193 0 25 0s25 11.193 25 25-11.193 25-25 25zm0-21c-6.075 0-11-4.925-11-11S18.925 7 25 7s11 4.925 11 11-4.925 11-11 11zm0-2a9 9 0 100-18 9 9 0 000 18zm-5-8a1 1 0 012 0 3 3 0 006 0 1 1 0 012 0 5 5 0 01-10 0z"/></symbol><symbol id="icon-error" viewBox="0 0 24 24"><path d="M12 23C5.925 23 1 18.075 1 12S5.925 1 12 1s11 4.925 11 11-4.925 11-11 11zm0-2a9 9 0 100-18 9 9 0 000 18zM11 8a1 1 0 112 0v4a1 1 0 01-2 0V8zm1 10a1 1 0 110-2 1 1 0 010 2z"/></symbol><symbol id="icon-eye-off" viewBox="0 0 24 24"><path d="M17.94 17.94A10.07 10.07 0 0112 20c-7 0-11-8-11-8a18.45 18.45 0 015.06-5.94M9.9 4.24A9.12 9.12 0 0112 4c7 0 11 8 11 8a18.5 18.5 0 01-2.16 3.19m-6.72-1.07a3 3 0 11-4.24-4.24M1 1l22 22" fill-rule="evenodd" stroke="#000" stroke-linecap="round" stroke-linejoin="round" stroke-width="2"/></symbol><symbol id="icon-eye" viewBox="0 0 24 24"><path d="M12 9a3 3 0 110 6 3 3 0 010-6zm0-4.5c5 0 9.27 3.11 11 7.5-1.73 4.39-6 7.5-11 7.5S2.73 16.39 1 12c1.73-4.39 6-7.5 11-7.5zM3.18 12a9.821 9.821 0 0017.64 0 9.821 9.821 0 00-17.64 0z"/></symbol><symbol id="icon-footer-events" viewBox="0 0 64 64"><g fill-rule="evenodd"><path fill-opacity=".2" d="M27 15.6l-6.5 6.6 23.2 24 6-2.5.6-7.3zM9.1 56.2h40.6v3.9H9.1z"/><path fill-rule="nonzero" d="M15.1 10.3c.8-.8.8-2 0-2.8-.8-.8-2-.8-2.8 0-.8.8-.8 2 0 2.8.8.7 2 .7 2.8 0zm5.7 1.5c.3 1 1.3 1.7 2.4 1.4s1.7-1.3 1.4-2.4c-.3-1-1.3-1.7-2.4-1.4-1 .3-1.7 1.4-1.4 2.4zm-6.6 1.8c-.3-1-1.3-1.7-2.4-1.4s-1.7 1.3-1.4 2.4 1.3 1.7 2.4 1.4c1.1-.3 1.7-1.4 1.4-2.4zm4.2-4.2c1 .3 2.1-.3 2.4-1.4.3-1-.3-2.1-1.4-2.4-1-.3-2.1.4-2.4 1.4-.3 1 .4 2.1 1.4 2.4zm.5 1.9c-.8-.8-2-.8-2.8 0-.8.8-.8 2 0 2.8.8.8 2 .8 2.8 0 .8-.8.8-2 0-2.8zm38.9 39.2L51 43.7l-.1-.1c1.9-2.8 1.6-6.7-.9-9.2L29.2 13.7v-1c0-3.1-1.2-6.1-3.4-8.3C23.6 2.2 20.6 1 17.5 1c-3.1 0-6.1 1.2-8.3 3.4C7 6.6 5.8 9.6 5.8 12.7c0 3.1 1.2 6.1 3.4 8.3 2.2 2.2 5.2 3.4 8.3 3.4h1l6.3 6.3v22.5H9.1c-1.6 0-3 1.3-3 3v3.9c0 1.6 1.3 3 3 3h40.6c1.6 0 3-1.3 3-3v-3.9c0-1.6-1.3-3-3-3H33.4V39.3l5.8 5.8c2.6 2.6 6.8 2.8 9.6.6v.1l6.8 6.8c.3.3.7.4 1 .4.4 0 .8-.1 1-.4.8-.6.8-1.5.2-2.1zm-40.3-29c-2.2 0-4.5-.9-6.2-2.6-3.4-3.4-3.4-9 0-12.4 1.7-1.7 4-2.6 6.2-2.6s4.5.9 6.2 2.6c3.4 3.4 3.4 9 0 12.4-1.7 1.7-3.9 2.6-6.2 2.6zm32.2 34.7v3.9H9.1v-3.9h40.6zm-19.1-2.9h-2.8V33.7l2.7 2.7v16.5c0 .1 0 .3.1.4zm17.3-10.6l-.4.4c-1.7 1.7-4.4 1.7-6.1 0L21.9 23.6c1.5-.6 2.8-1.5 3.9-2.6s2-2.5 2.6-3.9l19.5 19.5c1.7 1.6 1.7 4.4 0 6.1zM16.6 16c-1-.3-2.1.3-2.4 1.4-.3 1 .3 2.1 1.4 2.4 1 .3 2.1-.3 2.4-1.4.3-1.1-.3-2.1-1.4-2.4zm3.3-.9c-.8.8-.8 2 0 2.8s2 .8 2.8 0 .8-2 0-2.8c-.8-.8-2-.8-2.8 0z"/></g></symbol><symbol id="icon-footer-mastercard" viewBox="0 0 64 64"><g fill-rule="evenodd"><path fill-rule="nonzero" d="M11.9 56.4v-3.3c.1-1.1-.7-2-1.8-2.1h-.2c-.8 0-1.5.3-1.9 1-.4-.6-1-1-1.7-.9-.6 0-1.2.3-1.5.8v-.6H3.7v5.2h1.1v-2.9c-.1-.7.4-1.3 1-1.4H6c.7 0 1.1.5 1.1 1.4v2.9h1.1v-2.9c-.1-.7.4-1.3 1.1-1.4h.2c.8 0 1.1.5 1.1 1.4v2.9l1.3-.1zm16.9-5.2h-1.9v-1.6h-1.1v1.6h-1v1h1.1v2.4c0 1.2.5 1.9 1.8 1.9.5 0 1-.1 1.4-.4l-.3-1c-.3.2-.6.3-1 .3-.5 0-.7-.3-.7-.9v-2.4h1.8l-.1-.9zm9.6-.2c-.6 0-1.1.3-1.4.8v-.6h-1.1v5.2H37v-2.9c0-.9.4-1.3 1.1-1.3.2 0 .5 0 .7.1l.3-1.1c-.2-.1-.5-.2-.7-.2zm-14.6.6c-.6-.4-1.4-.6-2.1-.5-1.3 0-2.2.6-2.2 1.7 0 .8.6 1.4 1.8 1.5l.5.1c.6.1.9.2.9.5 0 .4-.4.6-1.2.6-.6 0-1.2-.2-1.7-.5l-.5.9c.7.5 1.4.7 2.2.7 1.5 0 2.4-.7 2.4-1.7s-.7-1.4-1.8-1.6l-.5-.1c-.5-.1-.9-.2-.9-.5s.4-.6 1-.6 1.1.2 1.6.4l.5-.9zM54 51c-.6 0-1.1.3-1.4.8v-.6h-1.1v5.2h1.1v-2.9c0-.9.4-1.3 1.1-1.3.2 0 .5 0 .7.1l.3-1.1c-.1-.1-.4-.2-.7-.2zm-14.5 2.8c-.1 1.4 1.1 2.7 2.5 2.7h.2c.7 0 1.3-.2 1.9-.6l-.5-.9c-.4.3-.9.5-1.4.5-.9-.1-1.6-.9-1.5-1.8.1-.8.7-1.5 1.5-1.5.5 0 1 .2 1.4.5l.5-.9c-.5-.6-1.1-.8-1.8-.8-1.4-.1-2.7 1-2.8 2.5v.3zm10.6 0v-2.6H49v.6c-.4-.5-1-.8-1.6-.8-1.5 0-2.7 1.2-2.7 2.7 0 1.5 1.2 2.7 2.7 2.7.6 0 1.2-.3 1.6-.8v.6h1.1v-2.4zm-4.2 0c.1-.9.8-1.5 1.7-1.5.9.1 1.5.8 1.5 1.7 0 .8-.7 1.5-1.6 1.5-.9 0-1.6-.7-1.6-1.5v-.2zM32.3 51c-1.5 0-2.7 1.3-2.7 2.7 0 1.5 1.3 2.7 2.7 2.7.8 0 1.5-.2 2.2-.7l-.5-.8c-.4.3-1 .5-1.5.5-.8.1-1.5-.5-1.6-1.3h3.8v-.4c0-1.6-1-2.6-2.4-2.7zm0 1c.7 0 1.3.5 1.3 1.3h-2.7c0-.7.6-1.3 1.4-1.3zm28.2 1.8v-4.7h-1.1v2.7c-.4-.5-1-.8-1.6-.8-1.5 0-2.7 1.2-2.7 2.7 0 1.5 1.2 2.7 2.7 2.7.6 0 1.2-.3 1.6-.8v.6h1.1v-2.4zm-4.1 0c.1-.9.8-1.5 1.7-1.5.9.1 1.5.8 1.5 1.7 0 .8-.7 1.5-1.6 1.5-.9 0-1.6-.7-1.6-1.5-.1-.2-.1-.2 0-.2zm-38.1 0v-2.6h-1.1v.6c-.4-.5-1-.8-1.6-.8-1.5 0-2.7 1.2-2.7 2.7 0 1.5 1.2 2.7 2.7 2.7.6 0 1.2-.3 1.6-.8v.6h1.1v-2.4zm-4.2 0c.1-.9.8-1.5 1.7-1.5.9.1 1.5.8 1.5 1.7 0 .8-.7 1.5-1.6 1.5-.9 0-1.6-.7-1.6-1.5v-.2z"/><path fill-opacity=".5" class="st0" d="M24.5 27c0-6 2.7-11.7 7.5-15.4C23.5 5 11.3 6.5 4.6 15S-.6 35.7 7.9 42.4c7.1 5.6 17 5.6 24.1 0-4.7-3.7-7.5-9.4-7.5-15.4z"/><path fill-opacity=".2" d="M63.6 27c0 10.8-8.7 19.5-19.5 19.5-4.4 0-8.6-1.5-12.1-4.2 8.5-6.7 9.9-18.9 3.3-27.4-1-1.2-2.1-2.3-3.3-3.3C40.5 5 52.7 6.5 59.4 15c2.7 3.4 4.2 7.6 4.2 12z"/><path fill-rule="nonzero" d="M35.3 15c-1-1.2-2.1-2.3-3.3-3.3-4.7 3.7-7.5 9.4-7.5 15.4s2.7 11.6 7.5 15.3c8.5-6.7 9.9-19 3.3-27.4z"/></g></symbol><symbol id="icon-footer-package" viewBox="0 0 64 64"><g fill-rule="evenodd"><path fill-opacity=".2" d="M9.2 31.1h45.7c1.7 0 3-1.4 3-3V19c0-1.7-1.4-3-3-3H9.2c-1.7 0-3 1.4-3 3v9c-.1 1.7 1.3 3.1 3 3.1z"/><path fill-rule="nonzero" d="M25.1 15.8c-7.6-3.6-10-7.5-6.1-11.5 2.4-2.4 5.2-2.3 7.7.1 2 2 3.9 5.7 5.9 11.1C36.8 4 41.4-.4 46.2 4.4c2.4 2.4 2.3 5.2-.1 7.7-1.3 1.3-3.2 2.5-5.9 3.8h14.7c1.7 0 3 1.4 3 3V28c0 1.7-1.4 3-3 3v27.4c0 1.7-1.4 3-3 3H12.2c-1.7 0-3-1.4-3-3V31.1c-1.7 0-3-1.4-3-3V19c0-1.7 1.4-3 3-3h15.9zM12.2 31.1v27.4h39.6V31.1H12.2zm-3-12.2V28h45.7v-9.1H9.2zm34.7-9c1.3-1.3 1.3-2.2.1-3.4-2.1-2.1-4.5 0-7.6 7.6 3.7-1.4 6.2-2.9 7.5-4.2zM24.6 6.7c-1.3-1.3-2.2-1.3-3.4-.1-2.1 2.1 0 4.5 7.6 7.6-1.5-3.7-2.9-6.2-4.2-7.5z"/></g></symbol><symbol id="icon-footer-positive" viewBox="0 0 64 64"><g fill-rule="evenodd"><path fill-rule="nonzero" d="M23.1 25.6v29.2H6.7V25.6h16.4m0-2.8H6.7c-1.5 0-2.8 1.3-2.8 2.8v29.2c0 1.5 1.3 2.8 2.8 2.8h16.4c1.5 0 2.8-1.3 2.8-2.8V25.6c0-1.6-1.3-2.8-2.8-2.8z"/><path fill-opacity=".2" d="M53.6 27.1H46c-3.9 0-7.1-3.2-7.1-7.1v-7.5c0-1.7-1.3-3.3-3-3.3-1.8-.1-3.3 1.4-3.3 3.2v8.3c0 3.6-2.9 6.4-6.4 6.4v25.2h20.1c2.6 0 4.9-1.7 5.7-4.1L57.1 32c.8-2.4-1-4.9-3.5-4.9z"/><path fill-rule="nonzero" d="M35.7 9.2h.2c1.7.1 3 1.6 3 3.3V20c0 3.9 3.2 7.1 7.1 7.1h7.6c2.5 0 4.3 2.5 3.6 4.9l-5.3 16.2c-.8 2.5-3.1 4.1-5.7 4.1H26.1V27.1c3.6 0 6.4-2.9 6.4-6.4v-8.3c0-1.8 1.4-3.2 3.2-3.2m0-2.8c-1.6 0-3.1.6-4.2 1.7s-1.7 2.6-1.7 4.2v8.3c0 2-1.6 3.6-3.6 3.6-1.5 0-2.8 1.3-2.8 2.8v25.2c0 .7.3 1.5.8 2s1.2.8 2 .8h20.1c3.8 0 7.2-2.4 8.3-6.1l5.3-16.2c.6-2 .3-4.2-.9-5.9-1.2-1.7-3.2-2.7-5.3-2.7h-7.6c-2.4 0-4.3-1.9-4.3-4.3v-7.5c0-3.3-2.5-6-5.6-6.1-.3.2-.4.2-.5.2z"/></g></symbol><symbol id="icon-footer-reading" viewBox="0 0 64 64"><g fill-rule="evenodd"><path fill-opacity=".2" class="st0" d="M15.5 41.6h41.9v15.2H15.5z"/><path fill-opacity=".2" class="st1" d="M13.9 19.6H55v9.2H13.9z"/><path fill-rule="nonzero" d="M58.6 44H18.5c-.8 0-1.4.6-1.4 1.4s.6 1.4 1.4 1.4h40.1c.8 0 1.4-.6 1.4-1.4s-.7-1.4-1.4-1.4zm0 4.1H18.5c-.8 0-1.4.6-1.4 1.4s.6 1.4 1.4 1.4h40.1c.8 0 1.4-.6 1.4-1.4s-.7-1.4-1.4-1.4zm0 4.1H18.5c-.8 0-1.4.6-1.4 1.4s.6 1.4 1.4 1.4h40.1c.8 0 1.4-.6 1.4-1.4s-.7-1.4-1.4-1.4zm.1 4.2h-41c-.8 0-1.4-.6-1.4-1.4V43.9c0-.8.6-1.4 1.4-1.4h41c1.7 0 2-2.5.3-2.8H44.6v-8.1H55c1.5 0 2.8-1.3 2.8-2.8v-9.2c0-1.5-1.3-2.8-2.8-2.8h-2.3V7.6c0-1.5-1.3-2.8-2.8-2.8h-41C7.2 4.8 6 6 6 7.6v9.2c0 1.5 1.3 2.8 2.8 2.8h2.3v9.2H6.7c-1.5 0-2.8 1.3-2.8 2.8v8.1c0 1.5 1.3 2.8 2.8 2.8h6.9c-.2.4-.3.9-.3 1.4V55c0 2.3 1.9 4.2 4.2 4.2h41.3c1.8-.2 1.5-2.8-.1-2.8zm-8.4-36.8h4.6v9.2h-41v-9.2h36.4zM8.8 7.6h41v3.1h-41V7.6zm0 9.2v-3.3h41v3.3h-41zM6.7 39.7v-8.1h35v8.1h-35z"/></g></symbol><symbol id="icon-footer-shipping" viewBox="0 0 64 64"><g fill-rule="evenodd"><path fill-opacity=".2" d="M13.8 33.8V13.1c0-.8.6-1.4 1.4-1.4h26.2c.8 0 1.4.6 1.4 1.4v20.7"/><path fill-rule="nonzero" d="M57.9 49c-.3 3.1-3 5.5-6.2 5.5s-5.8-2.4-6.2-5.5H30.3c-.3 3.1-3 5.5-6.2 5.5S18.3 52.1 18 49h-2.8c-1.5 0-2.8-1.2-2.8-2.8V13.1c0-1.5 1.2-2.8 2.8-2.8h26.2c1.5 0 2.8 1.2 2.8 2.8v5.5h4.6c2.4 0 4.5 1.5 5.3 3.8l3.3 10.1 1.8 1.4c2.8 2.1 4.4 5.4 4.4 8.8v3.4c0 1.5-1.2 2.8-2.8 2.8h-2.9zm-12-2.8a6.3 6.3 0 015.9-4.1c2.7 0 5 1.7 5.9 4.1h3.1v-3.4c0-2.6-1.2-5.1-3.3-6.6l-1.3-1H15.3v11h3.1c.9-2.4 3.2-4.1 5.9-4.1s5 1.7 5.9 4.1h15.7zm-4.5-13.8V13.1H15.2v19.3h26.2zm2.8 0h10.1l-2.9-9.1c-.4-1.1-1.4-1.9-2.6-1.9h-4.6v11zM24.1 51.7c1.9 0 3.4-1.5 3.4-3.4s-1.5-3.4-3.4-3.4-3.4 1.5-3.4 3.4 1.5 3.4 3.4 3.4zm0-1.4c-1.1 0-2.1-.9-2.1-2.1 0-1.1.9-2.1 2.1-2.1s2.1.9 2.1 2.1c0 1.2-.9 2.1-2.1 2.1zm27.6 1.4c1.9 0 3.4-1.5 3.4-3.4s-1.5-3.4-3.4-3.4-3.4 1.5-3.4 3.4 1.5 3.4 3.4 3.4zm0-1.4c-1.1 0-2.1-.9-2.1-2.1s.9-2.1 2.1-2.1c1.1 0 2.1.9 2.1 2.1s-.9 2.1-2.1 2.1zM41.4 37.9c0-.8.6-1.4 1.4-1.4s1.4.6 1.4 1.4v8.3c0 .8-.6 1.4-1.4 1.4s-1.4-.6-1.4-1.4v-8.3zm7-7.8c-.2-.7.1-1.5.9-1.7.7-.2 1.5.1 1.7.9l1.4 4.1c.2.7-.1 1.5-.9 1.7-.7.2-1.5-.1-1.7-.9l-1.4-4.1zm-40.1-17c.8 0 1.4.6 1.4 1.4 0 .8-.6 1.4-1.4 1.4H6.9c-.8 0-1.4-.6-1.4-1.4 0-.8.6-1.4 1.4-1.4h1.4zm0 16.5c.8 0 1.4.6 1.4 1.4 0 .8-.6 1.4-1.4 1.4H6.9c-.8 0-1.4-.6-1.4-1.4 0-.8.6-1.4 1.4-1.4h1.4zm0-11c.8 0 1.4.6 1.4 1.4 0 .8-.6 1.4-1.4 1.4H1.4C.6 21.4 0 20.7 0 20c0-.8.6-1.4 1.4-1.4h6.9zm0 5.5c.8 0 1.4.6 1.4 1.4s-.7 1.4-1.4 1.4H2.8c-.8 0-1.4-.6-1.4-1.4 0-.8.6-1.4 1.4-1.4h5.5z"/></g></symbol><symbol id="icon-footer-stores" viewBox="0 0 64 64"><g fill-rule="evenodd"><path fill-opacity=".2" class="st0" d="M20 39.7h14.1v14.1H20z"/><path fill-rule="nonzero" class="st1" d="M15.8 14.3c.7-6.7 5.8-7.1 10.4-7.1 4.6 0 9.7.3 10.4 7.1h6c1.6 0 2.8 1.3 2.8 2.8v39.6H8.7V17.1c0-1.6 1.3-2.8 2.8-2.8h4.3zm0 2.8h-4.3v36.7h31.1V17.1h-6c-.6 7.2-6.5 7.5-10.4 7.5-3.9.1-9.8-.3-10.4-7.5zm16.8-.4l1.5-1.5-1.7-1.7c-1.9-1.9-3.3-3.2-6.3 0-1.3-1.4-3.4-4.3-7.6 1.7l7.8 7.8 1.5-1.5-6.5-6.5c1.4-1.7 2.2-.9 3-.1l5 5 1.5-1.5-3.4-3.4c1.5-1.8 2.3-.9 3.1-.1l2.1 1.8zm-4.1 40l-2.8.1v-.1H20c-1.6 0-2.8-1.3-2.8-2.8V39.7c0-1.6 1.3-2.8 2.8-2.8h14.1c1.6 0 2.8 1.3 2.8 2.8v14.1c0 1.6-1.3 2.8-2.8 2.8h-5.6zm-2.9-17H20v14.1h5.7V39.7zm2.9 0v14.1h5.7V39.7h-5.7zM3 34.1h8.5v22.6H.2V36.9c0-1.5 1.3-2.8 2.8-2.8zm5.7 19.8v-17H3v17h5.7zm36.7-17H61c1.6 0 2.8 1.3 2.8 2.8v17H42.6v-17c0-1.5 1.3-2.8 2.8-2.8zM61 39.7H45.4v14.1H61V39.7z"/></g></symbol><symbol id="icon-footer-tradition" viewBox="0 0 24 24"><g fill-rule="evenodd"><path fill-opacity=".2" d="M1.5 5.2h13.7V9h-4.4l-.5 1.1v11H5.4l-2.5-1.4L1.5 17z"/><path fill-opacity=".2" d="M9.7 11.8h12.6v10.9c0 .6-.5 1.1-1.1 1.1h-9.3c-1.2 0-2.2-1-2.2-2.2v-9.8z"/><path fill-rule="nonzero" d="M14.7 9V1.4H4.8V.3h9.8c.6 0 1.1.5 1.1 1.1v7.7h-1zm-4.4 11.5v1.1H5.4c-2.1 0-3.8-1.7-3.8-3.8V3h1.1v14.8c0 1.5 1.2 2.7 2.7 2.7h4.9zM22 8.8c.2.2.3.5.3.8v13.1c0 .6-.5 1.1-1.1 1.1h-9.3c-1.2 0-2.2-1-2.2-2.2V10.5c0-1.1.9-1.9 1.9-1.9h9.6c.3-.1.6 0 .8.2zm-10.4 3.5c-.3 0-.6-.1-.8-.2v9.5c0 .6.5 1.1 1.1 1.1h9.3V12.3h-9.6zM15.8 3v1.6c0 .6-.5 1.1-1.1 1.1H4.3C2.8 5.8 1.5 4.5 1.5 3S2.7.3 4.2.3h10.4c.6 0 1.1.5 1.1 1.1v1.5c.1 0 .1.1.1.1zm-1.1-.5V1.4H4.3c-.9 0-1.7.7-1.7 1.6s.7 1.6 1.6 1.6h10.4v-1H4.8c-.3 0-.5-.3-.5-.6s.2-.5.5-.5h9.9zm-3.1 7.1c-.5 0-.8.4-.8.8s.4.8.8.8h9.6V9.6h-9.6z"/></g></symbol><symbol id="icon-invoice" viewBox="0 0 24 24"><path d="M7.17 5A3.001 3.001 0 0110 3h4c1.306 0 2.417.835 2.83 2H17a3 3 0 013 3v10a3 3 0 01-3 3H7a3 3 0 01-3-3V8a3 3 0 013-3h.17zm0 2H7a1 1 0 00-1 1v10a1 1 0 001 1h10a1 1 0 001-1V8a1 1 0 00-1-1h-.17A3.001 3.001 0 0114 9h-4a3.001 3.001 0 01-2.83-2zM15 15a1 1 0 010 2h-2a1 1 0 010-2h2zm0-4a1 1 0 010 2H9a1 1 0 010-2h6zm-5-6a1 1 0 100 2h4a1 1 0 000-2h-4z"/></symbol><symbol id="icon-knihonaut" viewBox="0 0 50 50"><style>.st0{fill:#231f20}</style><path class="st0" d="M33.5 21.9l-17.8-1.1c-.5 0-.8-.4-.9-.8 0-.2-.8-4.1-.9-8-.1-4 1.7-8.7 1.8-8.9.1-.3.4-.5.7-.6.2 0 3.8-.8 9-.7 5.2.1 9.1 1.3 9.3 1.3.4.1.6.4.7.8 0 .2.8 4.1 1 8.3.1 4.3-1.9 8.9-2 9.1-.1.4-.5.6-.9.6zm-16.8-3l16.2 1c.5-1.4 1.6-4.6 1.5-7.6-.1-3.1-.6-6.1-.8-7.4-1.3-.3-4.4-1-8.2-1.1-3.8-.1-6.8.4-8 .6-.4 1.3-1.6 4.7-1.5 7.6.1 2.8.5 5.6.8 6.9zm3.5 16c-.5 0-1-.4-1-.9l-.6-9.7c0-.6.4-1 .9-1.1l9.7-.6c.6 0 1 .4 1.1.9l.6 9.7c0 .6-.4 1-.9 1.1l-9.8.6c.1 0 0 0 0 0zm.4-9.7l.5 7.7 7.7-.5-.5-7.7-7.7.5zm.2 22.6h-.1l-4.6-.7c-.3 0-.6-.2-.7-.5-.1-.3-.2-.6 0-.9l4.6-9.4c.2-.3.5-.5.9-.6l2.7-.1c.3 0 .6.1.8.4.2.2.3.6.2.9L21.8 47c-.1.5-.5.8-1 .8zm-3.1-2.5l2.4.3 2.1-8h-.7l-3.8 7.7zm11 2.7l-4.9-.3c-.3 0-.6-.2-.7-.4-.2-.2-.2-.5-.2-.8l2.3-10.2c.1-.4.5-.8.9-.8l2.3-.1c.3 0 .5.1.7.3.2.2.3.4.3.7l.3 10.6c0 .3-.1.5-.3.7-.2.2-.4.3-.7.3zm-3.6-2.2l2.6.1-.1-8.5h-.5l-2 8.4zM9 35.7c-.3 0-.5-.1-.7-.3l-2-2c-.4-.4-.4-1 0-1.4l7.6-7.6c.2-.2.4-.3.7-.3.3 0 .5.1.7.3l2 2c.4.4.4 1 0 1.4l-7.6 7.6c-.2.2-.4.3-.7.3zm-.6-3l.6.6 6.2-6.2-.6-.6-6.2 6.2zm31.9 2.2c-.3 0-.5-.1-.7-.3L32 27c-.4-.4-.4-1 0-1.4l2-2c.2-.2.5-.3.7-.3.3 0 .5.1.7.3l7.6 7.6c.2.2.3.4.3.7 0 .3-.1.5-.3.7l-2.1 2c-.1.2-.3.3-.6.3zm-6.1-8.6l6.2 6.2.6-.6-6.2-6.2-.6.6z"/><path class="st0" d="M43.2 38.3c-.1 0-.3 0-.4-.1L40 36.9c-.4-.2-.6-.5-.6-.9l.1-2.1c0-.3.1-.5.3-.7l2-1.9c.3-.3.8-.4 1.2-.2l2.2 1.3c.3.2.5.6.5 1l-.2 2.6c0 .2-.1.4-.3.6L43.9 38c-.2.2-.4.3-.7.3zm-1.7-2.9l1.5.7.6-.7.1-1.7-1-.6-1.1 1.1-.1 1.2zM6.4 38.8c-.2 0-.5-.1-.6-.2l-1.6-1.3c-.2-.2-.3-.4-.4-.7l-.3-2.7c0-.4.2-.9.6-1l2.4-1c.4-.2.8-.1 1.1.2l1.9 1.8c.2.1.3.3.3.6l.3 1.9c.1.4-.1.9-.5 1.1l-2.7 1.3h-.5zM5.8 36l.8.7 1.4-.8-.2-.9-1.2-1.1-1.1.5.3 1.6zm15.7-19.4s-.1 0 0 0c-.6 0-1-.5-1-1l.3-7.5c0-.6.5-1 1-1 .6 0 1 .5 1 1l-.3 7.5c0 .6-.5 1-1 1zm7.1.4c-.6 0-1-.5-1-1l.3-7.5c0-.6.5-1 1-1 .6 0 1 .5 1 1l-.3 7.5c0 .6-.5 1-1 1z"/></symbol><symbol id="icon-martinus" viewBox="0 0 24 24"><path d="M12 2.3C6.6 2.3.3 2.7.3 12s7 9.7 11.7 9.7c4.6 0 11.7-.4 11.7-9.7 0-9.3-6.2-9.7-11.7-9.7zm7.6 9.6l-2.3-2.3c-.9-.9-1.9-2-3.7.1l4.1 4.1-1.9 1.9-6.1-6.1c-1-1-2-2-3.7.2l7.9 7.9-1.9 1.8L2.6 10c5.2-7.3 7.6-3.8 9.2-2.1 3.7-3.9 5.4-2.3 7.6 0l2 2.1-1.8 1.9z"/></symbol><symbol id="icon-order-cancel" viewBox="0 0 24 24"><path d="M12 13.586l2.293-2.293a1 1 0 011.414 1.414L13.414 15l2.293 2.293a1 1 0 01-1.414 1.414L12 16.414l-2.293 2.293a1 1 0 11-1.414-1.414L10.586 15l-2.293-2.293a1 1 0 011.414-1.414L12 13.586zm3-9.172V7h2.586L15 4.414zM19 9h-5a1 1 0 01-1-1V3H6a1 1 0 00-1 1v16a1 1 0 001 1h12a1 1 0 001-1V9zm-5-8a1 1 0 01.707.293l6 6A1 1 0 0121 8v12a3 3 0 01-3 3H6a3 3 0 01-3-3V4a3 3 0 013-3h8z"/></symbol><symbol id="icon-order-progress-1" viewBox="0 0 64 64"><g fill-rule="evenodd"><path fill-rule="nonzero" d="M21.043 47a1 1 0 001-1v-2a2 2 0 012-2h20.914a2 2 0 012 2v2a3 3 0 01-3 3H21a3 3 0 01-3-3V17a2 2 0 012-2h21a2 2 0 012 2v25h-2V17H20v29a1 1 0 001 1h.043zm22.914 0a1 1 0 001-1v-2H24.043v2c0 .35-.06.687-.17 1h20.084zM23 22a1 1 0 010-2h15a1 1 0 010 2H23zm0 5a1 1 0 010-2h9a1 1 0 010 2h-9zm13 0a1 1 0 010-2h2a1 1 0 010 2h-2zm-13 4a1 1 0 010-2h6a1 1 0 010 2h-6zm13 0a1 1 0 010-2h2a1 1 0 010 2h-2zm-13 7a1 1 0 010-2h9a1 1 0 010 2h-9zm13 0a1 1 0 010-2h2a1 1 0 010 2h-2z"/><path fill-opacity=".2" d="M46.957 44v2a3 3 0 01-3 3H21l.043-2a1 1 0 001-1v-2a2 2 0 012-2h20.914a2 2 0 012 2z"/></g></symbol><symbol id="icon-order-progress-2" viewBox="0 0 64 64"><g fill-rule="evenodd"><path fill-opacity=".2" d="M15 23h3a2 2 0 012 2v2a2 2 0 01-2 2h-3a2 2 0 01-2-2v-2a2 2 0 012-2zm-1.5 23h22a1.5 1.5 0 000-3h-22a1.5 1.5 0 000 3z"/><path fill-rule="nonzero" d="M14 19h21a6 6 0 016 6v10a6 6 0 01-6 6H14a6 6 0 01-6-6V25a6 6 0 016-6zm0 2a4 4 0 00-4 4v10a4 4 0 004 4h21a4 4 0 004-4V25a4 4 0 00-4-4H14zm1 2h3a2 2 0 012 2v2a2 2 0 01-2 2h-3a2 2 0 01-2-2v-2a2 2 0 012-2zm0 2v2h3v-2h-3zm-1 8a1 1 0 010-2h3a1 1 0 010 2h-3zm6 0a1 1 0 010-2h3a1 1 0 010 2h-3zm-6 3a1 1 0 010-2h6a1 1 0 010 2h-6zm9 0a1 1 0 010-2h6a1 1 0 010 2h-6zm3-3a1 1 0 010-2h3a1 1 0 010 2h-3zm6 0a1 1 0 010-2h3a1 1 0 010 2h-3zm0 3a1 1 0 010-2h3a1 1 0 010 2h-3zm21.997 5.074l-.011.2v-.132a.768.768 0 00.01-.068zm-9.01-.013l.013.227v-.15a.792.792 0 01-.012-.077zM54 37h2l-.014 4.281c-.223 2.138-3.042 3.828-6.486 3.828s-6.263-1.69-6.5-3.828L43.014 37h2L45 41.139c.196.917 2.044 1.97 4.5 1.97 2.463 0 4.307-1.058 4.486-1.967L54 37zm-9.012 4.06l.012.228v-.15a.792.792 0 01-.012-.077zm9.009.014l-.011.2v-.132a.768.768 0 00.01-.068zm-10.984-7.71a2.634 2.634 0 01-.013-.262C43 30.836 45.91 29 49.5 29c3.536 0 6.413 1.782 6.498 4H56v.067a2.642 2.642 0 010 .086L55.986 37H56l-.014 4.281c-.223 2.138-3.042 3.828-6.486 3.828s-6.263-1.69-6.5-3.828l.013-3.9a2.66 2.66 0 01-.013-.1l.013-3.918zm1.991 2.7l-.003.936h.013v.192c.253.904 2.077 1.917 4.486 1.917 2.463 0 4.307-1.058 4.486-1.967l.004-1.075c-1.167.704-2.749 1.136-4.49 1.136-1.744 0-3.328-.434-4.496-1.14zm2.033 4.74a7.656 7.656 0 01-2.033-.833L45 41.14c.196.917 2.044 1.97 4.5 1.97 2.463 0 4.307-1.058 4.486-1.967l.004-1.169a7.64 7.64 0 01-2.03.832 9.871 9.871 0 01-2.46.304 9.874 9.874 0 01-2.463-.304zm2.463-5.6c2.624 0 4.5-1.185 4.5-2.102C54 32.184 52.124 31 49.5 31S45 32.184 45 33.102c0 .917 1.876 2.101 4.5 2.101z"/><path fill-opacity=".2" d="M44 34l5.5 2.5L55 34v9l-5.5 1-5.5-1z"/></g></symbol><symbol id="icon-order-progress-3" viewBox="0 0 64 64"><g fill-rule="evenodd"><path fill-opacity=".2" d="M13 20h25v7h-8l-1 2v20h-9l-4.5-2.5-2.5-5z"/><path fill-opacity=".2" d="M28 32h23v20a2 2 0 01-2 2H32a4 4 0 01-4-4V32z"/><path fill-rule="nonzero" d="M37 27V13H19v-2h18a2 2 0 012 2v14h-2zm-8 21v2h-9a7 7 0 01-7-7V16h2v27a5 5 0 005 5h9zm21.414-21.414c.362.362.586.862.586 1.414v24a2 2 0 01-2 2H32a4 4 0 01-4-4V30c0-.087.003-.173.008-.258A3.5 3.5 0 0131.5 26H49c.552 0 1.052.224 1.414.586zM31.5 33c-.537 0-1.045-.12-1.5-.337V50a2 2 0 002 2h17V33H31.5zm7.528-17c0 .08-.01.16-.028.235V19a2 2 0 01-2 2H18a5 5 0 010-10h19a2 2 0 012 2v2.765c.018.075.028.154.028.235zM37 15v-2H18a3 3 0 000 6h19v-2H19a1 1 0 010-2h18zm-5.5 13a1.5 1.5 0 000 3H49v-3H31.5z"/></g></symbol><symbol id="icon-order-progress-4" viewBox="0 0 64 64"><g fill-rule="evenodd"><path fill-opacity=".2" d="M19 33V18a1 1 0 011-1h19a1 1 0 011 1v15"/><path fill-rule="nonzero" d="M50.973 44a4.5 4.5 0 01-8.946 0H30.973a4.5 4.5 0 01-8.946 0H20a2 2 0 01-2-2V18a2 2 0 012-2h19a2 2 0 012 2v4h3.316a4 4 0 013.806 2.771l2.372 7.35 1.306.979a8 8 0 013.2 6.4V42a2 2 0 01-2 2h-2.027zm-8.717-2a4.502 4.502 0 018.488 0H53v-2.5a6 6 0 00-2.4-4.8l-.933-.7H20v8h2.256a4.502 4.502 0 018.488 0h11.512zM39 32V18H20v14h19zm2 0h7.354l-2.135-6.614A2 2 0 0044.316 24H41v8zM26.5 46a2.5 2.5 0 100-5 2.5 2.5 0 000 5zm0-1a1.5 1.5 0 110-3 1.5 1.5 0 010 3zm20 1a2.5 2.5 0 100-5 2.5 2.5 0 000 5zm0-1a1.5 1.5 0 110-3 1.5 1.5 0 010 3zM39 36a1 1 0 012 0v6a1 1 0 01-2 0v-6zm5.051-5.684a1 1 0 111.898-.632l1 3a1 1 0 11-1.898.632l-1-3zM15 18a1 1 0 010 2h-1a1 1 0 010-2h1zm0 12a1 1 0 010 2h-1a1 1 0 010-2h1zm0-8a1 1 0 010 2h-5a1 1 0 010-2h5zm0 4a1 1 0 010 2h-4a1 1 0 010-2h4z"/></g></symbol><symbol id="icon-order-progress-5" viewBox="0 0 64 64"><g fill-rule="evenodd"><path fill-opacity=".2" d="M34 36H24v10h10z"/><path fill-rule="nonzero" d="M21.058 18c.5-4.742 4.132-5 7.345-5 3.228 0 6.846.233 7.34 5H40a2 2 0 012 2v28H16V20a2 2 0 012-2h3.058zm-.026 2H18v26h22V20h-4.23c-.404 5.106-4.571 5.34-7.367 5.34-2.794 0-6.964-.276-7.37-5.34zm11.883-.33l1.087-1.088-1.193-1.194c-1.319-1.37-2.304-2.261-4.434-.019-.94-.983-2.373-3.038-5.375 1.21l5.503 5.503 1.087-1.088-4.575-4.575c1.008-1.23 1.568-.67 2.148-.09l3.546 3.547 1.088-1.088-2.373-2.373c1.085-1.257 1.618-.618 2.17-.066l1.32 1.32zM30 48v.036h-2V48h-4a2 2 0 01-2-2V36a2 2 0 012-2h10a2 2 0 012 2v10a2 2 0 01-2 2h-4zm-2-12h-4v10h4V36zm2 0v10h4V36h-4zm-18-4h6v16h-8V34a2 2 0 012-2zm4 14V34h-4v12h4zm26-12h11a2 2 0 012 2v12H40V36a2 2 0 012-2zm11 2H42v10h11V36z"/></g></symbol><symbol id="icon-order-progress-6" viewBox="0 0 64 64"><g fill-rule="evenodd"><path d="M49 35.999c1.073-.002 2 .868 2 2.001v3a2 2 0 01-1.515 1.94l-.485.122V46a2 2 0 01-1.642 1.968l-11 2c-.12.022-.24.032-.358.033A2 2 0 0134 52h-3a2 2 0 01-2-2c-.118 0-.237-.01-.358-.032l-11-2A2 2 0 0116 46v-2.938l-.485-.122A2 2 0 0114 41v-3c0-1.133.927-2.003 2-2.001V29a2 2 0 012.358-1.968l3.642.662V23a9 9 0 019-9h3a9 9 0 019 9v4.694l3.642-.662A2 2 0 0149 29v6.999zm-2 .44V29l-11 2v17l11-2v-2.438l-.272.068A3 3 0 0143 40.72v-.94a3 3 0 012.272-2.91L47 36.438zm-29 7.123V46l11 2V31l-11-2v7.438l1.728.432A3 3 0 0122 39.78v.94a3 3 0 01-3.728 2.91L18 43.562zm20-14.958V24.5L30 21l-3 4v3.604l2.358.428A2 2 0 0131 31h3a2 2 0 011.642-1.968L38 28.604zm3-.546V23a7 7 0 00-7-7h-3a7 7 0 00-7 7v5.058l1 .182V25a2 2 0 01.4-1.2l3-4a2 2 0 012.402-.632l8 3.5A2 2 0 0140 24.5v3.74l1-.182zM30 28a1 1 0 110-2 1 1 0 010 2zm5 0a1 1 0 110-2 1 1 0 010 2zm-4 5v17h3V33h-3zm-15 5v3l2.757.69A1 1 0 0020 40.72v-.94a1 1 0 00-.757-.97L16 38zm33 0l-3.243.81a1 1 0 00-.757.97v.94a1 1 0 001.243.97L49 41v-3z"/><path fill-opacity=".2" d="M49 38l-3.243.81a1 1 0 00-.757.97v.94a1 1 0 001.243.97L49 41v-3zm-33 0l3.243.81a1 1 0 01.757.97v.94a1 1 0 01-1.243.97L16 41v-3zm13.5-18l-3 4.5L26 29l3.5 1 .5 2h5l.5-2 3.5-.5V24z"/></g></symbol><symbol id="icon-order-progress-gift-heart" viewBox="0 0 64 64"><g fill-rule="evenodd"><rect width="34" height="10" x="15" y="19" rx="2" transform="matrix(1 0 0 -1 0 48)"/><path d="M39 36a4 4 0 00-7-2.646A4 4 0 0025 36c0 1.32 1.873 3.77 5.618 7.35a2 2 0 002.764 0C37.127 39.77 39 37.32 39 36z"/><path fill-rule="nonzero" d="M27.467 19c-5.014-2.376-6.602-4.91-3.985-7.525 1.576-1.577 3.417-1.532 5.038.088 1.316 1.317 2.592 3.733 3.882 7.282 2.768-7.598 5.784-10.498 8.918-7.363 1.577 1.576 1.532 3.417-.088 5.038-.839.838-2.123 1.66-3.862 2.48H47a2 2 0 012 2v6a2 2 0 01-2 2v18a2 2 0 01-2 2H19a2 2 0 01-2-2V29a2 2 0 01-2-2v-6a2 2 0 012-2h10.467zM19 29v18h26V29H19zm-2-8v6h30v-6H17zm22.818-5.895c.854-.854.868-1.43.088-2.21-1.352-1.351-2.987-.016-5.002 5 2.395-.975 4.039-1.914 4.914-2.79zm-12.713-2.128c-.854-.854-1.43-.868-2.21-.088-1.351 1.352-.016 2.987 5 5.002-.975-2.394-1.914-4.038-2.79-4.914zM32 33.354l.75-.661A4 4 0 0139 36c0 1.32-1.873 3.77-5.618 7.35a2 2 0 01-2.764 0C26.873 39.77 25 37.32 25 36a4 4 0 016.25-3.307l.75.661zM37 36a2 2 0 00-3.5-1.322L32 36.377l-1.5-1.7A2 2 0 0027 36c0 .524 1.706 2.757 5 5.906 3.294-3.15 5-5.382 5-5.905z"/></g></symbol><symbol id="icon-order-progress-gift" viewBox="0 0 64 64"><g fill-rule="evenodd"><rect width="34" height="10" x="15" y="19" rx="2" transform="matrix(1 0 0 -1 0 48)"/><path d="M39 36a4 4 0 00-7-2.646A4 4 0 0025 36c0 1.32 1.873 3.77 5.618 7.35a2 2 0 002.764 0C37.127 39.77 39 37.32 39 36z"/><path fill-rule="nonzero" d="M27.467 19c-5.014-2.376-6.602-4.91-3.985-7.525 1.576-1.577 3.417-1.532 5.038.088 1.316 1.317 2.592 3.733 3.882 7.282 2.768-7.598 5.784-10.498 8.918-7.363 1.577 1.576 1.532 3.417-.088 5.038-.839.838-2.123 1.66-3.862 2.48H47a2 2 0 012 2v6a2 2 0 01-2 2v18a2 2 0 01-2 2H19a2 2 0 01-2-2V29a2 2 0 01-2-2v-6a2 2 0 012-2h10.467zM19 29v18h26V29H19zm-2-8v6h30v-6H17zm22.818-5.895c.854-.854.868-1.43.088-2.21-1.352-1.351-2.987-.016-5.002 5 2.395-.975 4.039-1.914 4.914-2.79zm-12.713-2.128c-.854-.854-1.43-.868-2.21-.088-1.351 1.352-.016 2.987 5 5.002-.975-2.394-1.914-4.038-2.79-4.914zM32 33.354l.75-.661A4 4 0 0139 36c0 1.32-1.873 3.77-5.618 7.35a2 2 0 01-2.764 0C26.873 39.77 25 37.32 25 36a4 4 0 016.25-3.307l.75.661zM37 36a2 2 0 00-3.5-1.322L32 36.377l-1.5-1.7A2 2 0 0027 36c0 .524 1.706 2.757 5 5.906 3.294-3.15 5-5.382 5-5.905z"/></g></symbol><symbol id="icon-order-progress-line-download" viewBox="0 0 64 64"><g fill-rule="evenodd"><path fill-opacity=".2" d="M17 18h30v13H34l-3.5-2-.5 2H17z"/><path fill-rule="nonzero" d="M38.484 33l3.25 2.578a2 2 0 01-.242 3.3l-1.408.812 2.064 3.576a2 2 0 01-.732 2.732l-1.517.875a2 2 0 01-2.732-.732l-2.064-3.575-1.408.813a2 2 0 01-2.979-1.44L29.393 33H17a2 2 0 01-2-2V18a2 2 0 012-2h30a2 2 0 012 2v13a2 2 0 01-2 2h-8.516zm-2.522-2H47V18H17v13h12.097l-.173-1.167c-.265-1.794 1.801-2.987 3.222-1.86L35.962 31zm1.39 7.958l3.14-1.813-9.59-7.605 1.793 12.107 3.14-1.813L38.9 45.14l1.517-.875-3.064-5.308z"/></g></symbol><symbol id="icon-pause" viewBox="0 0 24 24"><g fill-rule="evenodd"><rect width="2" height="18" x="7" y="3" rx="1"/><rect width="2" height="18" x="15" y="3" rx="1"/></g></symbol><symbol id="icon-plus" viewBox="0 0 24 24"><path fill-rule="evenodd" d="M11 13v3.998a.999.999 0 102 0V13h3.998a.999.999 0 100-2H13V7.002a.999.999 0 10-2 0V11H7.002a.999.999 0 100 2H11z"/></symbol><symbol id="icon-products-audiobooks" viewBox="0 0 64 64"><g fill-rule="evenodd"><path fill-opacity=".2" d="M31.1 11c-.6 0-1.3.2-1.8.8l-9.8 9.8H8.3c-1.5 0-2.6 1.2-2.6 2.6V40c0 1.5 1.2 2.6 2.6 2.6h11.2l9.8 9.8c.5.5 1.2.8 1.8.8 1.4 0 2.7-1 2.7-2.6v-37c-.1-1.6-1.4-2.6-2.7-2.6zm10.8 14.2c-.9-.4-1.9-.1-2.3.8-.4.9 0 1.9.8 2.3 1.5.7 2.5 2.2 2.5 3.7s-1 2.9-2.5 3.7c-.9.4-1.2 1.5-.8 2.3.4.9 1.5 1.2 2.3.8 2.8-1.3 4.5-4 4.5-6.8s-1.7-5.5-4.5-6.8zm5.3-10.5c-.8-.5-1.9-.2-2.4.6s-.2 1.9.7 2.4c4.9 2.8 8 8.3 8 14.3s-3.1 11.5-8 14.3c-.8.5-1.1 1.6-.7 2.4.5.8 1.5 1.1 2.4.6 6-3.4 9.7-10.1 9.7-17.3 0-7.2-3.7-13.9-9.7-17.3z"/><path fill-rule="nonzero" d="M31.1 9.8c-1 0-1.9.4-2.6 1.1L19 20.3H8.3c-2.1 0-3.8 1.7-3.8 3.8v15.8c0 2.1 1.7 3.8 3.8 3.8H19l9.4 9.4c.7.7 1.6 1.1 2.6 1.1 2.1 0 3.8-1.7 3.8-3.8V13.6c.1-2.4-1.9-3.8-3.7-3.8zm1.5 40.6c0 .9-.8 1.5-1.5 1.5-.3 0-.7-.1-1-.4L20 41.4H8.3c-.8 0-1.5-.7-1.5-1.5V24.1c0-.8.7-1.5 1.5-1.5H20l10-10.1c.4-.4.8-.4 1-.4.7 0 1.5.6 1.5 1.5v36.8zM48.7 32c0-3.8-2.2-7.2-5.8-8.9-.5-.3-1.1-.4-1.7-.4-1.5 0-3 .9-3.6 2.3-1 2-.1 4.4 1.9 5.4.8.4 1.2 1 1.2 1.6 0 .7-.5 1.3-1.2 1.6-1 .5-1.7 1.3-2 2.3-.4 1-.3 2.1.2 3.1.7 1.4 2.1 2.3 3.6 2.3.6 0 1.2-.1 1.7-.4 3.5-1.7 5.7-5.1 5.7-8.9zm-7.5 7c-.6 0-1.3-.4-1.6-1-.4-.9 0-1.9.8-2.3 1.5-.7 2.5-2.2 2.5-3.7s-1-2.9-2.5-3.7c-.9-.4-1.2-1.5-.8-2.3.3-.6.9-1 1.6-1 .3 0 .5.1.8.2 2.8 1.3 4.5 4 4.5 6.8s-1.7 5.5-4.5 6.8c-.3.2-.6.2-.8.2zm7.1-26.3c-.6-.3-1.3-.5-2-.5-1.4 0-2.8.8-3.5 2-.5.9-.7 2-.4 3 .3 1 1 1.9 1.9 2.4 4.2 2.4 6.8 7.1 6.8 12.3 0 5.2-2.6 9.9-6.8 12.3-.9.5-1.6 1.4-1.9 2.4-.3 1-.1 2.1.4 3 .7 1.2 2.1 2 3.5 2 .7 0 1.4-.2 2-.5 6.7-3.7 10.9-11 10.9-19.1 0-8.1-4.2-15.4-10.9-19.3zm-1.1 36.6c-.3.2-.6.2-.9.2-.6 0-1.2-.3-1.5-.9-.5-.8-.2-1.9.7-2.4 4.9-2.8 8-8.3 8-14.3s-3.1-11.5-8-14.3c-.8-.5-1.1-1.6-.7-2.4.3-.6.9-.9 1.5-.9.3 0 .6.1.9.2 6 3.4 9.7 10.1 9.7 17.3 0 7.4-3.7 14.1-9.7 17.5z"/></g></symbol><symbol id="icon-products-books" viewBox="0 0 64 64"><g fill-rule="evenodd"><path fill-opacity=".2" class="st0" d="M15.5 41.6h41.9v15.2H15.5z"/><path fill-opacity=".2" class="st1" d="M13.9 19.6H55v9.2H13.9z"/><path fill-rule="nonzero" d="M58.6 44H18.5c-.8 0-1.4.6-1.4 1.4s.6 1.4 1.4 1.4h40.1c.8 0 1.4-.6 1.4-1.4s-.7-1.4-1.4-1.4zm0 4.1H18.5c-.8 0-1.4.6-1.4 1.4s.6 1.4 1.4 1.4h40.1c.8 0 1.4-.6 1.4-1.4s-.7-1.4-1.4-1.4zm0 4.1H18.5c-.8 0-1.4.6-1.4 1.4s.6 1.4 1.4 1.4h40.1c.8 0 1.4-.6 1.4-1.4s-.7-1.4-1.4-1.4zm.1 4.2h-41c-.8 0-1.4-.6-1.4-1.4V43.9c0-.8.6-1.4 1.4-1.4h41c1.7 0 2-2.5.3-2.8H44.6v-8.1H55c1.5 0 2.8-1.3 2.8-2.8v-9.2c0-1.5-1.3-2.8-2.8-2.8h-2.3V7.6c0-1.5-1.3-2.8-2.8-2.8h-41C7.2 4.8 6 6 6 7.6v9.2c0 1.5 1.3 2.8 2.8 2.8h2.3v9.2H6.7c-1.5 0-2.8 1.3-2.8 2.8v8.1c0 1.5 1.3 2.8 2.8 2.8h6.9c-.2.4-.3.9-.3 1.4V55c0 2.3 1.9 4.2 4.2 4.2h41.3c1.8-.2 1.5-2.8-.1-2.8zm-8.4-36.8h4.6v9.2h-41v-9.2h36.4zM8.8 7.6h41v3.1h-41V7.6zm0 9.2v-3.3h41v3.3h-41zM6.7 39.7v-8.1h35v8.1h-35z"/></g></symbol><symbol id="icon-products-ebooks" viewBox="0 0 64 64"><g fill-rule="evenodd"><path fill-rule="nonzero" class="st0" d="M47.5 7.5c.8 0 1.5.7 1.5 1.5v46c0 .8-.7 1.5-1.5 1.5H16.3c-.8 0-1.5-.7-1.5-1.5V9c0-.8.7-1.5 1.5-1.5h31.2m0-2.5H16.3c-2.2 0-4 1.8-4 4v46c0 2.2 1.8 4 4 4h31.3c2.2 0 4-1.8 4-4V9c-.1-2.2-1.8-4-4.1-4z"/><path fill-rule="nonzero" class="st0" d="M43.8 13v31.1H20.2V13h23.6m2.5-2.5H17.8v36.1h28.7V10.5h-.2z"/><path fill-opacity=".2" class="st1" d="M47.5 5H16.3c-2.2 0-4 1.8-4 4v46c0 2.2 1.8 4 4 4h31.3c2.2 0 4-1.8 4-4V9c-.1-2.2-1.8-4-4.1-4zm-1.2 41.6H17.8V10.5h28.7v36.1h-.2z"/><path fill-rule="nonzero" class="st0" d="M31 50.4c.5 0 .9.4.9 1 0 .5-.4.9-.9.9s-1-.4-1-.9c0-.6.5-1 1-1m0-2.5c-1.9 0-3.5 1.5-3.5 3.5s1.5 3.4 3.5 3.4c1.9 0 3.4-1.5 3.4-3.4S33 47.9 31 47.9z"/></g></symbol><symbol id="icon-products-games" viewBox="0 0 64 64"><g fill-rule="evenodd"><path fill-rule="nonzero" class="st0" d="M35.9 25.3h-27c-2.2 0-4 1.8-4 4v27c0 2.2 1.8 4 4 4h27c2.2 0 4-1.8 4-4v-27c0-2.2-1.8-4-4-4zm1.5 31c0 .8-.7 1.5-1.5 1.5h-27c-.8 0-1.5-.7-1.5-1.5v-27c0-.8.7-1.5 1.5-1.5h27c.8 0 1.5.7 1.5 1.5v27zm18.7-45.1L30.2 3.9c-2.1-.6-4.3.6-4.9 2.8l-4.6 16.5h2.6l4.5-15.8c.2-.8 1.1-1.3 1.9-1l25.9 7.3c.8.2 1.3 1.1 1 1.9l-7.3 25.9c-.2.8-1.1 1.3-1.9 1L42.2 41v2.6l4.5 1.3c2.1.6 4.3-.6 4.9-2.8l7.3-25.9c.6-2.2-.6-4.4-2.8-5z"/><path fill-opacity=".2" class="st1" d="M14.8 46.6c-2 0-3.7 1.7-3.7 3.7s1.7 3.7 3.7 3.7 3.7-1.7 3.7-3.7-1.7-3.7-3.7-3.7zm7.8-7.9c-2 0-3.7 1.7-3.7 3.7s1.7 3.7 3.7 3.7 3.7-1.7 3.7-3.7-1.6-3.7-3.7-3.7zm7.8-7.8c-2 0-3.7 1.7-3.7 3.7s1.7 3.7 3.7 3.7 3.7-1.7 3.7-3.7-1.7-3.7-3.7-3.7zm3.3-20.1c-2 0-3.7 1.7-3.7 3.7s1.7 3.7 3.7 3.7 3.7-1.7 3.7-3.7-1.7-3.7-3.7-3.7zm14.8 3.7c-2 0-3.7 1.7-3.7 3.7s1.7 3.7 3.7 3.7 3.7-1.7 3.7-3.7-1.7-3.7-3.7-3.7zm-3.7 15.2c-1 0-1.9.4-2.6 1.1v5.3c.7.7 1.6 1.1 2.6 1.1 2 0 3.7-1.7 3.7-3.7s-1.7-3.8-3.7-3.8z"/></g></symbol><symbol id="icon-products-movies" viewBox="0 0 64 64"><g fill-rule="evenodd"><path fill-rule="nonzero" class="st1" d="M25.7 12.9c4.2 0 8.3 1.4 11.7 3.9l.6.5h.4l2 2.3c3.1 3.6 4.8 8.1 4.8 12.8 0 10.8-8.7 19.5-19.5 19.5S6.2 43.2 6.2 32.4c0-10.7 8.7-19.5 19.5-19.5M19 20.8c-.2-.1-.4-.2-.6-.4-1-.6-2.2-.9-3.4-.9-2.4 0-4.6 1.3-5.8 3.4-.9 1.6-1.1 3.4-.7 5.1.5 1.7 1.6 3.2 3.1 4.1l.6.3-.6.3c-1.6.9-2.7 2.3-3.1 4.1-.5 1.7-.2 3.5.7 5.1 1.2 2.1 3.4 3.4 5.8 3.4 1.2 0 2.3-.3 3.4-.9.2-.1.4-.2.6-.4v.7c0 3.7 3 6.7 6.7 6.7 1.8 0 3.5-.7 4.8-2 1.3-1.3 2-3 2-4.8v-.7c.2.1.4.2.6.4 1 .6 2.2.9 3.4.9 2.4 0 4.6-1.3 5.8-3.4.9-1.6 1.1-3.4.7-5.1-.5-1.7-1.6-3.2-3.1-4.1l-.6-.3.6-.3c1.6-.9 2.7-2.3 3.1-4.1.5-1.7.2-3.5-.7-5.1-1.2-2.1-3.4-3.4-5.8-3.4-1.2 0-2.3.3-3.4.9-.2.1-.4.2-.6.4V20a6.7 6.7 0 00-13.4 0c-.1.4-.1.6-.1.8m2.8 4.8c1.1.8 2.5 1.3 3.9 1.3s2.8-.4 3.9-1.3c-.1 1.4.1 2.8.9 4 .7 1.2 1.8 2.2 3.1 2.8-1.3.6-2.3 1.5-3.1 2.8-.7 1.2-1 2.6-.9 4-1.1-.8-2.5-1.3-3.9-1.3-1.5 0-2.8.5-3.9 1.3.1-1.4-.2-2.8-.9-4-.7-1.2-1.8-2.2-3.1-2.8 1.3-.6 2.3-1.5 3.1-2.8.7-1.2 1-2.6.9-4m3.9 11.7c2.7 0 4.9-2.2 4.9-4.9s-2.2-4.9-4.9-4.9-4.9 2.2-4.9 4.9 2.2 4.9 4.9 4.9m0-26.9c-12.1 0-22 9.8-22 22 0 12.1 9.8 22 22 22 12.1 0 22-9.8 22-22 0-5.5-2.1-10.6-5.4-14.5 3.8 1.4 8.4 5.2 8.7 13.8.5 13.7 9.3 13.9 9.4 13.9v-2.4c-.1 0-6.7-.1-7.1-11.6-.4-12.1-8.7-16.7-14.5-16.9-3.6-2.6-8.2-4.3-13.1-4.3zm0 14c-2.3 0-4.2-1.9-4.2-4.2 0-2.3 1.9-4.2 4.2-4.2 2.3 0 4.2 1.9 4.2 4.2 0 2.3-1.9 4.2-4.2 4.2zm-10.6 6.1c-.7 0-1.4-.2-2.1-.6-2-1.2-2.7-3.8-1.5-5.8.8-1.4 2.2-2.1 3.7-2.1.7 0 1.4.2 2.1.6 2 1.2 2.7 3.8 1.5 5.8-.9 1.4-2.3 2.1-3.7 2.1zm21.2 0c-1.5 0-2.9-.8-3.7-2.1-1.2-2-.5-4.6 1.5-5.8.7-.4 1.4-.6 2.1-.6 1.5 0 2.9.8 3.7 2.1 1.2 2 .5 4.6-1.5 5.8-.6.4-1.4.6-2.1.6zm-10.6 4.3c-1.3 0-2.4-1.1-2.4-2.4 0-1.3 1.1-2.4 2.4-2.4 1.3 0 2.4 1.1 2.4 2.4 0 1.3-1.1 2.4-2.4 2.4zm10.6 8c-.7 0-1.4-.2-2.1-.6-2-1.2-2.7-3.8-1.5-5.8.8-1.4 2.2-2.1 3.7-2.1.7 0 1.4.2 2.1.6 2 1.2 2.7 3.8 1.5 5.8-.8 1.3-2.2 2.1-3.7 2.1zm-21.2 0c-1.5 0-2.9-.8-3.7-2.1-1.2-2-.5-4.6 1.5-5.8.7-.4 1.4-.6 2.1-.6 1.5 0 2.9.8 3.7 2.1 1.2 2 .5 4.6-1.5 5.8-.7.4-1.4.6-2.1.6zm10.6 6.1c-2.3 0-4.2-1.9-4.2-4.2 0-2.3 1.9-4.2 4.2-4.2 2.3 0 4.2 1.9 4.2 4.2 0 2.3-1.9 4.2-4.2 4.2z"/><path fill-opacity=".2" class="st1" d="M25.7 15.9c-2.3 0-4.2 1.9-4.2 4.2 0 2.3 1.9 4.2 4.2 4.2 2.3 0 4.2-1.9 4.2-4.2 0-2.3-1.9-4.2-4.2-4.2zm10.6 14.6c2.3 0 4.2-1.9 4.2-4.2 0-2.3-1.9-4.2-4.2-4.2-2.3 0-4.2 1.9-4.2 4.2 0 2.3 1.9 4.2 4.2 4.2zm0 3.8c-2.3 0-4.2 1.9-4.2 4.2 0 2.3 1.9 4.2 4.2 4.2 2.3 0 4.2-1.9 4.2-4.2 0-2.3-1.9-4.2-4.2-4.2zm-10.6 6.2c-2.3 0-4.2 1.9-4.2 4.2 0 2.3 1.9 4.2 4.2 4.2 2.3 0 4.2-1.9 4.2-4.2 0-2.4-1.9-4.2-4.2-4.2zm-10.6-6.2c-2.3 0-4.2 1.9-4.2 4.2 0 2.3 1.9 4.2 4.2 4.2 2.3 0 4.2-1.9 4.2-4.2 0-2.3-1.9-4.2-4.2-4.2zm0-12.2c-2.3 0-4.2 1.9-4.2 4.2 0 2.3 1.9 4.2 4.2 4.2 2.3 0 4.2-1.9 4.2-4.2 0-2.3-1.9-4.2-4.2-4.2z"/></g></symbol><symbol id="icon-search" viewBox="0 0 24 24"><path d="M21.7 20.3L18 16.6c1.2-1.5 2-3.5 2-5.6 0-5-4-9-9-9s-9 4-9 9 4 9 9 9c2.1 0 4.1-.7 5.6-2l3.7 3.7c.2.2.5.3.7.3.2 0 .5-.1.7-.3.4-.4.4-1 0-1.4zM11 18c-3.9 0-7-3.1-7-7s3.1-7 7-7 7 3.1 7 7-3.1 7-7 7z"/></symbol><symbol id="icon-tip-heart" viewBox="0 0 24 24"><path d="M15.2 20.2l-3.3-3.4c-.4-.4-.6-1-.6-1.7 0-.6.2-1.2.6-1.7.9-.9 2.3-.9 3.1 0l.5.5.5-.5c.9-.9 2.3-.9 3.1 0 .9.9.9 2.4 0 3.3l-.7.8-2.6 2.6c-.1.1-.2.1-.3.1-.1.1-.2.1-.3 0z" fill-rule="evenodd" clip-rule="evenodd"/><path d="M15.4 23.4c-4.2 0-7.6-3.4-7.6-7.6s3.4-7.6 7.6-7.6 7.6 3.4 7.6 7.6-3.4 7.6-7.6 7.6zm0-13.2c-3.1 0-5.7 2.5-5.7 5.7s2.5 5.7 5.7 5.7 5.7-2.5 5.7-5.7-2.6-5.7-5.7-5.7z"/><path d="M9.7 19.1h-.4c-3.7 0-6.2-1.3-6.2-2.2V16c1.4.9 3.5 1.4 6 1.4-.1-.5-.2-1-.2-1.6v-.3C5.3 15.4 3 14.1 3 13.3v-.7c1.5.8 3.6 1.4 6.1 1.4.4-1.4 1.3-2.6 2.4-3.5C8.1 10.4 6 9.2 6 8.3v-.7C7.4 8.5 9.6 9 12.2 9s4.8-.5 6.2-1.4v.7c0 .4-.4.8-1.1 1.2.7.2 1.4.5 2 1 .7-.6 1.1-1.3 1.1-2.1V4.9c0-2.4-3.5-4.2-8.2-4.2C7.5.7 4 2.5 4 4.9v1.7c-1.8.8-2.9 1.9-2.9 3.2v7c0 2.4 3.5 4.2 8.2 4.2.7 0 1.3 0 1.9-.1-.6-.5-1.1-1.1-1.5-1.8zm2.5-16.5c3.7 0 6.2 1.3 6.2 2.2S15.9 7 12.2 7C8.4 7.1 6 5.8 6 4.9s2.4-2.3 6.2-2.3zM4.1 8.7c0 .2.1.4.2.5 0 0 0 .1.1.1.1.1.1.2.2.4l.1.1.3.3.1.1c.1.1.3.3.5.4l.1.1c0 .2.1.3.3.4.1 0 .1.1.2.1.2.1.3.2.5.2.1 0 .1.1.2.1.2.1.5.2.7.3h.1c.2.1.4.2.7.2h.1C5.2 11.9 3 10.7 3 9.8c0-.3.4-.7 1.1-1.1z"/></symbol><symbol id="icon-tip" viewBox="0 0 24 24"><path d="M10.5 18.7c-4.8 0-8.5-1.9-8.5-4.3v-3.6h2v3.6c0 .9 2.6 2.3 6.5 2.3s6.5-1.4 6.5-2.3v-2.6h2v2.6c0 2.5-3.6 4.3-8.5 4.3z"/><path d="M10.5 22.5c-4.8 0-8.5-1.9-8.5-4.3v-3.6h2v3.6c0 .9 2.6 2.3 6.5 2.3s6.5-1.4 6.5-2.3v-3.6h2v3.6c0 2.4-3.6 4.3-8.5 4.3zm3.1-8.9c-4.8 0-8.5-1.9-8.5-4.3V5.7h2v3.6c0 .9 2.6 2.3 6.5 2.3s6.5-1.4 6.5-2.3V5.7h2v3.6c0 2.4-3.7 4.3-8.5 4.3z"/><path d="M10.5 15.1c-4.8 0-8.5-1.9-8.5-4.3C2 9.3 3.4 8 5.8 7.2c.3-.1.6 0 .9.1.3.2.4.5.4.8v1.1c0 .9 2.6 2.3 6.5 2.3 1.3 0 2.5-.2 3.6-.5.4-.1.9.1 1.1.4.2.4.2.9-.1 1.2-1.4 1.6-4.3 2.5-7.7 2.5zM5.1 9.6c-.7.5-1.1.9-1.1 1.2 0 .9 2.2 2.1 5.7 2.3-2.6-.6-4.3-1.9-4.6-3.5z"/><path d="M13.6 10c-4.8 0-8.5-1.9-8.5-4.3s3.6-4.3 8.5-4.3c4.8 0 8.5 1.9 8.5 4.3S18.4 10 13.6 10zm0-6.7c-3.9 0-6.5 1.4-6.5 2.3S9.7 8 13.6 8s6.5-1.4 6.5-2.3-2.6-2.4-6.5-2.4z"/></symbol><symbol id="icon-user" viewBox="0 0 24 24"><path d="M7.987 21.162A9.966 9.966 0 0012 22a9.966 9.966 0 004.013-.838A1.007 1.007 0 0116 21a4 4 0 10-8 0c0 .055-.004.11-.013.162zm-1.913-1.106a6.002 6.002 0 0111.852 0A9.986 9.986 0 0022 12c0-5.523-4.477-10-10-10S2 6.477 2 12a9.986 9.986 0 004.074 8.056zM12 24C5.373 24 0 18.627 0 12S5.373 0 12 0s12 5.373 12 12-5.373 12-12 12zm0-10a4 4 0 110-8 4 4 0 010 8zm0-2a2 2 0 100-4 2 2 0 000 4z"/></symbol><symbol id="icon-warning" viewBox="0 0 24 24"><path d="M9.432 3.346a3.002 3.002 0 015.136 0L23.046 17.5A3 3 0 0120.47 22H3.519a3 3 0 01-2.557-4.514l8.47-14.14zm1.714 1.03L2.686 18.5A1 1 0 003.53 20h16.929a1 1 0 00.863-1.486L12.855 4.379a1 1 0 00-1.709-.002zM11 9a1 1 0 012 0v4a1 1 0 01-2 0V9zm1 9a1 1 0 110-2 1 1 0 010 2z"/></symbol><symbol id="icon-xmas-small" viewBox="0 0 24 24"><path d="M12 2.7c.1 0 .1 0 .2.1l3.7 3.6c.1.2.1.5 0 .6l-1 1c-.2.1-.2.4 0 .6l3.7 3.7c.2.1.2.4 0 .6l-1.9 1.9c-.2.1-.2.4 0 .6l3.5 3.5c.2.2.2.7-.1.8-.7.3-1.9.8-3.7 1.2-2 .4-3.3.5-3.9.5h-.8c-.6 0-1.9-.1-3.9-.5-1.9-.4-3.1-.9-3.7-1.2-.3-.2-.4-.6-.1-.8l3.5-3.5c.2-.1.2-.4 0-.6l-1.9-1.9c-.2-.1-.2-.4 0-.6l3.7-3.7c.2-.1.2-.4 0-.6l-1-1c-.3-.1-.3-.4-.2-.6l3.7-3.6c.1 0 .1-.1.2-.1m0-2c-.6 0-1.2.2-1.6.7L6.7 5c-.4.5-.7 1.1-.7 1.7 0 .6.2 1.1.5 1.5L4 10.8c-.4.4-.7 1.1-.7 1.7 0 .6.3 1.3.7 1.7l.8.8-2.4 2.4c-.6.6-.8 1.4-.7 2.2.1.8.6 1.5 1.4 1.8.8.4 2.2.9 4.2 1.3 2.1.4 3.5.5 4.3.5h.8c.8 0 2.2-.1 4.3-.5 2-.4 3.4-.9 4.2-1.3.7-.4 1.2-1 1.4-1.8.1-.8-.1-1.6-.7-2.2L19.2 15l.8-.8c.4-.4.7-1.1.7-1.7 0-.6-.3-1.3-.7-1.7l-2.6-2.6c.3-.4.5-1 .5-1.5 0-.6-.3-1.3-.7-1.7l-3.7-3.6c-.3-.4-.9-.7-1.5-.7z"/></symbol><symbol id="icon-xmas" viewBox="0 0 24 24"><path d="M12 8.2c.1 0 .1 0 .2.1l3.1 2.6c.1.1.1.3 0 .4l-.8.7c-.1.1-.1.3 0 .4l3.2 2.6c.1.1.1.3 0 .4L16 16.6c-.1.1-.1.3 0 .4l3 2.5c.2.2.2.5-.1.6-.6.2-1.6.6-3.2.8-1.7.3-2.8.3-3.3.3h-.8c-.5 0-1.6 0-3.3-.3-1.6-.3-2.6-.6-3.2-.8-.3-.1-.3-.4-.1-.6L8 17c.1-.1.1-.3 0-.4l-1.6-1.3c-.1-.1-.1-.3 0-.4l3.2-2.6c.1-.1.1-.3 0-.4l-.8-.7c-.1-.1-.1-.3 0-.4l3.1-2.6h.1m0-2c-.5 0-1 .2-1.4.5L7.4 9.2c-.5.5-.8 1.1-.8 1.8 0 .3.1.6.2.9l-1.7 1.4c-.5.4-.8 1.1-.8 1.8s.3 1.3.8 1.8L3.7 18c-.6.5-1 1.3-.8 2.2.1.8.7 1.5 1.5 1.8.6.2 1.8.6 3.6.9 1.8.3 3 .4 3.7.4h.8c.7 0 1.9-.1 3.7-.4 1.7-.3 2.9-.7 3.6-.9.8-.3 1.3-1 1.5-1.8.1-.8-.2-1.6-.8-2.2l-1.4-1.1c.5-.4.8-1.1.8-1.8s-.3-1.3-.8-1.8l-1.7-1.4c.1-.3.2-.6.2-.9 0-.7-.3-1.3-.8-1.8l-3.1-2.6c-.7-.3-1.2-.4-1.7-.4z"/><path d="M12 2.8l.6 1.2 1.3.2-1 .9.2 1.3-1.1-.6-1.2.6.2-1.3-1-.9 1.4-.2.6-1.2m0-2c-.8 0-1.5.4-1.8 1.1l-.1.3h-.3c-.8.1-1.4.7-1.6 1.4-.2.7 0 1.5.5 2.1l.2.2-.1.2c-.1.8.2 1.5.8 2 .3.3.8.4 1.2.4.3 0 .6-.1.9-.2l.3-.2.3.1c.3.2.6.2.9.2.4 0 .8-.1 1.2-.4.6-.4.9-1.2.8-2l-.1-.3.2-.2c.5-.5.7-1.3.5-2.1-.2-.7-.9-1.3-1.6-1.4h-.3l-.1-.3c-.4-.5-1-.9-1.8-.9z"/><circle cx="11.1" cy="13.1" r="1.1"/><circle cx="13.3" cy="15.7" r="1.1"/><circle cx="9.6" cy="18.8" r="1.1"/><circle cx="15" cy="19.2" r="1.1"/></symbol><symbol id="icon-zoom-in" viewBox="0 0 24 24"><path d="M21.7 20.3L18 16.6c1.2-1.5 2-3.5 2-5.6 0-5-4-9-9-9s-9 4-9 9 4 9 9 9c2.1 0 4.1-.7 5.6-2l3.7 3.7c.2.2.5.3.7.3.2 0 .5-.1.7-.3.4-.4.4-1 0-1.4zM12 10V7.997C12 7.453 11.552 7 11 7c-.556 0-1 .446-1 .997V10H7.997C7.453 10 7 10.448 7 11c0 .556.446 1 .997 1H10v2.003c0 .544.448.997 1 .997.556 0 1-.446 1-.997V12h2.003c.544 0 .997-.448.997-1 0-.556-.446-1-.997-1H12zm-1 8c-3.9 0-7-3.1-7-7s3.1-7 7-7 7 3.1 7 7-3.1 7-7 7z"/></symbol></svg>