<?xml version="1.0" encoding="UTF-8"?><!DOCTYPE svg PUBLIC "-//W3C//DTD SVG 1.1//EN" "http://www.w3.org/Graphics/SVG/1.1/DTD/svg11.dtd"><svg xmlns="http://www.w3.org/2000/svg" xmlns:xlink="http://www.w3.org/1999/xlink"><symbol id="icon-avatar" viewBox="0 0 50 50"><path d="M13.005 44.629A22.893 22.893 0 0 0 25 48a22.9 22.9 0 0 0 11.019-2.806A1.005 1.005 0 0 1 36 45c0-6.636-5.158-12-11.5-12-6.224 0-11.306 5.165-11.495 11.629Zm-1.91-1.306C11.896 36.388 17.585 31 24.5 31c7.14 0 12.972 5.742 13.466 13C44.024 39.857 48 32.893 48 25 48 12.297 37.703 2 25 2S2 12.297 2 25c0 7.478 3.569 14.122 9.096 18.323ZM25 50C11.193 50 0 38.807 0 25S11.193 0 25 0s25 11.193 25 25-11.193 25-25 25Zm0-21c-6.075 0-11-4.925-11-11S18.925 7 25 7s11 4.925 11 11-4.925 11-11 11Zm0-2a9 9 0 1 0 0-18 9 9 0 0 0 0 18Zm-5-8a1 1 0 0 1 2 0 3 3 0 0 0 6 0 1 1 0 0 1 2 0 5 5 0 0 1-10 0Z"/></symbol><symbol id="icon-error" viewBox="0 0 24 24"><path d="M12 23C5.925 23 1 18.075 1 12S5.925 1 12 1s11 4.925 11 11-4.925 11-11 11Zm0-2a9 9 0 1 0 0-18 9 9 0 0 0 0 18ZM11 8a1 1 0 1 1 2 0v4a1 1 0 0 1-2 0V8Zm1 10a1 1 0 1 1 0-2 1 1 0 0 1 0 2Z"/></symbol><symbol id="icon-invoice" viewBox="0 0 24 24"><path d="M7.17 5A3.001 3.001 0 0 1 10 3h4c1.306 0 2.417.835 2.83 2H17a3 3 0 0 1 3 3v10a3 3 0 0 1-3 3H7a3 3 0 0 1-3-3V8a3 3 0 0 1 3-3h.17Zm0 2H7a1 1 0 0 0-1 1v10a1 1 0 0 0 1 1h10a1 1 0 0 0 1-1V8a1 1 0 0 0-1-1h-.17A3.001 3.001 0 0 1 14 9h-4a3.001 3.001 0 0 1-2.83-2ZM15 15a1 1 0 0 1 0 2h-2a1 1 0 0 1 0-2h2Zm0-4a1 1 0 0 1 0 2H9a1 1 0 0 1 0-2h6Zm-5-6a1 1 0 1 0 0 2h4a1 1 0 0 0 0-2h-4Z"/></symbol><symbol id="icon-knihonaut" viewBox="0 0 50 50"><g enable-background="new 0 0 50 50"><style type="text/css">.st0{fill:#231F20;}</style><path class="st0" d="m33.5 21.9-17.8-1.1c-.5 0-.8-.4-.9-.8 0-.2-.8-4.1-.9-8-.1-4 1.7-8.7 1.8-8.9.1-.3.4-.5.7-.6.2 0 3.8-.8 9-.7 5.2.1 9.1 1.3 9.3 1.3.4.1.6.4.7.8 0 .2.8 4.1 1 8.3.1 4.3-1.9 8.9-2 9.1-.1.4-.5.6-.9.6zm-16.8-3 16.2 1c.5-1.4 1.6-4.6 1.5-7.6-.1-3.1-.6-6.1-.8-7.4-1.3-.3-4.4-1-8.2-1.1-3.8-.1-6.8.4-8 .6-.4 1.3-1.6 4.7-1.5 7.6.1 2.8.5 5.6.8 6.9zm3.5 16c-.5 0-1-.4-1-.9l-.6-9.7c0-.6.4-1 .9-1.1l9.7-.6c.6 0 1 .4 1.1.9l.6 9.7c0 .6-.4 1-.9 1.1l-9.8.6c.1 0 0 0 0 0zm.4-9.7.5 7.7 7.7-.5-.5-7.7-7.7.5zm.2 22.6h-.1l-4.6-.7c-.3 0-.6-.2-.7-.5-.1-.3-.2-.6 0-.9l4.6-9.4c.2-.3.5-.5.9-.6l2.7-.1c.3 0 .6.1.8.4.2.2.3.6.2.9L21.8 47c-.1.5-.5.8-1 .8zm-3.1-2.5 2.4.3 2.1-8h-.7l-3.8 7.7zm11 2.7-4.9-.3c-.3 0-.6-.2-.7-.4-.2-.2-.2-.5-.2-.8l2.3-10.2c.1-.4.5-.8.9-.8l2.3-.1c.3 0 .5.1.7.3.2.2.3.4.3.7l.3 10.6c0 .3-.1.5-.3.7-.2.2-.4.3-.7.3zm-3.6-2.2 2.6.1-.1-8.5h-.5l-2 8.4zM9 35.7c-.3 0-.5-.1-.7-.3l-2-2c-.4-.4-.4-1 0-1.4l7.6-7.6c.2-.2.4-.3.7-.3.3 0 .5.1.7.3l2 2c.4.4.4 1 0 1.4l-7.6 7.6c-.2.2-.4.3-.7.3zm-.6-3 .6.6 6.2-6.2-.6-.6-6.2 6.2zm31.9 2.2c-.3 0-.5-.1-.7-.3L32 27c-.4-.4-.4-1 0-1.4l2-2c.2-.2.5-.3.7-.3.3 0 .5.1.7.3l7.6 7.6c.2.2.3.4.3.7 0 .3-.1.5-.3.7l-2.1 2c-.1.2-.3.3-.6.3zm-6.1-8.6 6.2 6.2.6-.6-6.2-6.2-.6.6z"/><path class="st0" d="M43.2 38.3c-.1 0-.3 0-.4-.1L40 36.9c-.4-.2-.6-.5-.6-.9l.1-2.1c0-.3.1-.5.3-.7l2-1.9c.3-.3.8-.4 1.2-.2l2.2 1.3c.3.2.5.6.5 1l-.2 2.6c0 .2-.1.4-.3.6L43.9 38c-.2.2-.4.3-.7.3zm-1.7-2.9 1.5.7.6-.7.1-1.7-1-.6-1.1 1.1-.1 1.2zM6.4 38.8c-.2 0-.5-.1-.6-.2l-1.6-1.3c-.2-.2-.3-.4-.4-.7l-.3-2.7c0-.4.2-.9.6-1l2.4-1c.4-.2.8-.1 1.1.2l1.9 1.8c.2.1.3.3.3.6l.3 1.9c.1.4-.1.9-.5 1.1l-2.7 1.3h-.5zM5.8 36l.8.7 1.4-.8-.2-.9-1.2-1.1-1.1.5.3 1.6zm15.7-19.4s-.1 0 0 0c-.6 0-1-.5-1-1l.3-7.5c0-.6.5-1 1-1 .6 0 1 .5 1 1l-.3 7.5c0 .6-.5 1-1 1zm7.1.4c-.6 0-1-.5-1-1l.3-7.5c0-.6.5-1 1-1 .6 0 1 .5 1 1l-.3 7.5c0 .6-.5 1-1 1z"/></g></symbol><symbol id="icon-order-cancel" viewBox="0 0 24 24"><path d="m12 13.586 2.293-2.293a1 1 0 0 1 1.414 1.414L13.414 15l2.293 2.293a1 1 0 0 1-1.414 1.414L12 16.414l-2.293 2.293a1 1 0 1 1-1.414-1.414L10.586 15l-2.293-2.293a1 1 0 0 1 1.414-1.414L12 13.586Zm3-9.172V7h2.586L15 4.414ZM19 9h-5a1 1 0 0 1-1-1V3H6a1 1 0 0 0-1 1v16a1 1 0 0 0 1 1h12a1 1 0 0 0 1-1V9Zm-5-8a1 1 0 0 1 .707.293l6 6A1 1 0 0 1 21 8v12a3 3 0 0 1-3 3H6a3 3 0 0 1-3-3V4a3 3 0 0 1 3-3h8Z"/></symbol><symbol id="icon-order-progress-1" viewBox="0 0 64 64"><g fill-rule="evenodd"><path fill-rule="nonzero" d="M21.043 47a1 1 0 0 0 1-1v-2a2 2 0 0 1 2-2h20.914a2 2 0 0 1 2 2v2a3 3 0 0 1-3 3H21a3 3 0 0 1-3-3V17a2 2 0 0 1 2-2h21a2 2 0 0 1 2 2v25h-2V17H20v29a1 1 0 0 0 1 1h.043Zm22.914 0a1 1 0 0 0 1-1v-2H24.043v2c0 .35-.06.687-.17 1h20.084ZM23 22a1 1 0 0 1 0-2h15a1 1 0 0 1 0 2H23Zm0 5a1 1 0 0 1 0-2h9a1 1 0 0 1 0 2h-9Zm13 0a1 1 0 0 1 0-2h2a1 1 0 0 1 0 2h-2Zm-13 4a1 1 0 0 1 0-2h6a1 1 0 0 1 0 2h-6Zm13 0a1 1 0 0 1 0-2h2a1 1 0 0 1 0 2h-2Zm-13 7a1 1 0 0 1 0-2h9a1 1 0 0 1 0 2h-9Zm13 0a1 1 0 0 1 0-2h2a1 1 0 0 1 0 2h-2Z"/><path fill-opacity=".2" d="M46.957 44v2a3 3 0 0 1-3 3H21l.043-2a1 1 0 0 0 1-1v-2a2 2 0 0 1 2-2h20.914a2 2 0 0 1 2 2Z"/></g></symbol><symbol id="icon-order-progress-2" viewBox="0 0 64 64"><g fill-rule="evenodd"><path fill-opacity=".2" d="M15 23h3a2 2 0 0 1 2 2v2a2 2 0 0 1-2 2h-3a2 2 0 0 1-2-2v-2a2 2 0 0 1 2-2Zm-1.5 23h22a1.5 1.5 0 0 0 0-3h-22a1.5 1.5 0 0 0 0 3Z"/><path fill-rule="nonzero" d="M14 19h21a6 6 0 0 1 6 6v10a6 6 0 0 1-6 6H14a6 6 0 0 1-6-6V25a6 6 0 0 1 6-6zm0 2a4 4 0 0 0-4 4v10a4 4 0 0 0 4 4h21a4 4 0 0 0 4-4V25a4 4 0 0 0-4-4H14zm1 2h3a2 2 0 0 1 2 2v2a2 2 0 0 1-2 2h-3a2 2 0 0 1-2-2v-2a2 2 0 0 1 2-2zm0 2v2h3v-2h-3zm-1 8a1 1 0 0 1 0-2h3a1 1 0 0 1 0 2h-3zm6 0a1 1 0 0 1 0-2h3a1 1 0 0 1 0 2h-3zm-6 3a1 1 0 0 1 0-2h6a1 1 0 0 1 0 2h-6zm9 0a1 1 0 0 1 0-2h6a1 1 0 0 1 0 2h-6zm3-3a1 1 0 0 1 0-2h3a1 1 0 0 1 0 2h-3zm6 0a1 1 0 0 1 0-2h3a1 1 0 0 1 0 2h-3zm0 3a1 1 0 0 1 0-2h3a1 1 0 0 1 0 2h-3zm21.997 5.074-.011.2v-.132a.768.768 0 0 0 .01-.068zm-9.01-.013.013.227v-.15a.792.792 0 0 1-.012-.077zM54 37h2l-.014 4.281c-.223 2.138-3.042 3.828-6.486 3.828s-6.263-1.69-6.5-3.828L43.014 37h2L45 41.139c.196.917 2.044 1.97 4.5 1.97 2.463 0 4.307-1.058 4.486-1.967L54 37zm-9.012 4.06.012.228v-.15a.792.792 0 0 1-.012-.077zm9.009.014-.011.2v-.132a.768.768 0 0 0 .01-.068zm-10.984-7.71a2.634 2.634 0 0 1-.013-.262C43 30.836 45.91 29 49.5 29c3.536 0 6.413 1.782 6.498 4H56v.067a2.642 2.642 0 0 1 0 .086L55.986 37H56l-.014 4.281c-.223 2.138-3.042 3.828-6.486 3.828s-6.263-1.69-6.5-3.828l.013-3.9a2.66 2.66 0 0 1-.013-.1l.013-3.918zm1.991 2.7-.003.936h.013v.192c.253.904 2.077 1.917 4.486 1.917 2.463 0 4.307-1.058 4.486-1.967l.004-1.075c-1.167.704-2.749 1.136-4.49 1.136-1.744 0-3.328-.434-4.496-1.14zm2.033 4.74a7.656 7.656 0 0 1-2.033-.833L45 41.14c.196.917 2.044 1.97 4.5 1.97 2.463 0 4.307-1.058 4.486-1.967l.004-1.169a7.64 7.64 0 0 1-2.03.832 9.871 9.871 0 0 1-2.46.304 9.874 9.874 0 0 1-2.463-.304zm2.463-5.6c2.624 0 4.5-1.185 4.5-2.102C54 32.184 52.124 31 49.5 31S45 32.184 45 33.102c0 .917 1.876 2.101 4.5 2.101z"/><path fill-opacity=".2" d="m44 34 5.5 2.5L55 34v9l-5.5 1-5.5-1z"/></g></symbol><symbol id="icon-order-progress-3" viewBox="0 0 64 64"><g fill-rule="evenodd"><path fill-opacity=".2" d="M13 20h25v7h-8l-1 2v20h-9l-4.5-2.5-2.5-5z"/><path fill-opacity=".2" d="M28 32h23v20a2 2 0 0 1-2 2H32a4 4 0 0 1-4-4V32Z"/><path fill-rule="nonzero" d="M37 27V13H19v-2h18a2 2 0 0 1 2 2v14h-2Zm-8 21v2h-9a7 7 0 0 1-7-7V16h2v27a5 5 0 0 0 5 5h9Zm21.414-21.414c.362.362.586.862.586 1.414v24a2 2 0 0 1-2 2H32a4 4 0 0 1-4-4V30c0-.087.003-.173.008-.258A3.5 3.5 0 0 1 31.5 26H49c.552 0 1.052.224 1.414.586ZM31.5 33c-.537 0-1.045-.12-1.5-.337V50a2 2 0 0 0 2 2h17V33H31.5Zm7.528-17c0 .08-.01.16-.028.235V19a2 2 0 0 1-2 2H18a5 5 0 0 1 0-10h19a2 2 0 0 1 2 2v2.765c.018.075.028.154.028.235ZM37 15v-2H18a3 3 0 0 0 0 6h19v-2H19a1 1 0 0 1 0-2h18Zm-5.5 13a1.5 1.5 0 0 0 0 3H49v-3H31.5Z"/></g></symbol><symbol id="icon-order-progress-4" viewBox="0 0 64 64"><g fill-rule="evenodd"><path fill-opacity=".2" d="M19 33V18a1 1 0 0 1 1-1h19a1 1 0 0 1 1 1v15"/><path fill-rule="nonzero" d="M50.973 44a4.5 4.5 0 0 1-8.946 0H30.973a4.5 4.5 0 0 1-8.946 0H20a2 2 0 0 1-2-2V18a2 2 0 0 1 2-2h19a2 2 0 0 1 2 2v4h3.316a4 4 0 0 1 3.806 2.771l2.372 7.35 1.306.979a8 8 0 0 1 3.2 6.4V42a2 2 0 0 1-2 2h-2.027Zm-8.717-2a4.502 4.502 0 0 1 8.488 0H53v-2.5a6 6 0 0 0-2.4-4.8l-.933-.7H20v8h2.256a4.502 4.502 0 0 1 8.488 0h11.512ZM39 32V18H20v14h19Zm2 0h7.354l-2.135-6.614A2 2 0 0 0 44.316 24H41v8ZM26.5 46a2.5 2.5 0 1 0 0-5 2.5 2.5 0 0 0 0 5Zm0-1a1.5 1.5 0 1 1 0-3 1.5 1.5 0 0 1 0 3Zm20 1a2.5 2.5 0 1 0 0-5 2.5 2.5 0 0 0 0 5Zm0-1a1.5 1.5 0 1 1 0-3 1.5 1.5 0 0 1 0 3ZM39 36a1 1 0 0 1 2 0v6a1 1 0 0 1-2 0v-6Zm5.051-5.684a1 1 0 1 1 1.898-.632l1 3a1 1 0 1 1-1.898.632l-1-3ZM15 18a1 1 0 0 1 0 2h-1a1 1 0 0 1 0-2h1Zm0 12a1 1 0 0 1 0 2h-1a1 1 0 0 1 0-2h1Zm0-8a1 1 0 0 1 0 2h-5a1 1 0 0 1 0-2h5Zm0 4a1 1 0 0 1 0 2h-4a1 1 0 0 1 0-2h4Z"/></g></symbol><symbol id="icon-order-progress-5" viewBox="0 0 64 64"><g fill-rule="evenodd"><path fill-opacity=".2" d="M34 36H24v10h10z"/><path fill-rule="nonzero" d="M21.058 18c.5-4.742 4.132-5 7.345-5 3.228 0 6.846.233 7.34 5H40a2 2 0 0 1 2 2v28H16V20a2 2 0 0 1 2-2h3.058Zm-.026 2H18v26h22V20h-4.23c-.404 5.106-4.571 5.34-7.367 5.34-2.794 0-6.964-.276-7.37-5.34Zm11.883-.33 1.087-1.088-1.193-1.194c-1.319-1.37-2.304-2.261-4.434-.019-.94-.983-2.373-3.038-5.375 1.21l5.503 5.503 1.087-1.088-4.575-4.575c1.008-1.23 1.568-.67 2.148-.09l3.546 3.547 1.088-1.088-2.373-2.373c1.085-1.257 1.618-.618 2.17-.066l1.32 1.32ZM30 48v.036h-2V48h-4a2 2 0 0 1-2-2V36a2 2 0 0 1 2-2h10a2 2 0 0 1 2 2v10a2 2 0 0 1-2 2h-4Zm-2-12h-4v10h4V36Zm2 0v10h4V36h-4Zm-18-4h6v16h-8V34a2 2 0 0 1 2-2Zm4 14V34h-4v12h4Zm26-12h11a2 2 0 0 1 2 2v12H40V36a2 2 0 0 1 2-2Zm11 2H42v10h11V36Z"/></g></symbol><symbol id="icon-order-progress-6" viewBox="0 0 64 64"><g fill-rule="evenodd"><path d="M49 35.999c1.073-.002 2 .868 2 2.001v3a2 2 0 0 1-1.515 1.94l-.485.122V46a2 2 0 0 1-1.642 1.968l-11 2c-.12.022-.24.032-.358.033A2 2 0 0 1 34 52h-3a2 2 0 0 1-2-2c-.118 0-.237-.01-.358-.032l-11-2A2 2 0 0 1 16 46v-2.938l-.485-.122A2 2 0 0 1 14 41v-3c0-1.133.927-2.003 2-2.001V29a2 2 0 0 1 2.358-1.968l3.642.662V23a9 9 0 0 1 9-9h3a9 9 0 0 1 9 9v4.694l3.642-.662A2 2 0 0 1 49 29v6.999Zm-2 .44V29l-11 2v17l11-2v-2.438l-.272.068A3 3 0 0 1 43 40.72v-.94a3 3 0 0 1 2.272-2.91L47 36.438Zm-29 7.123V46l11 2V31l-11-2v7.438l1.728.432A3 3 0 0 1 22 39.78v.94a3 3 0 0 1-3.728 2.91L18 43.562Zm20-14.958V24.5L30 21l-3 4v3.604l2.358.428A2 2 0 0 1 31 31h3a2 2 0 0 1 1.642-1.968L38 28.604Zm3-.546V23a7 7 0 0 0-7-7h-3a7 7 0 0 0-7 7v5.058l1 .182V25a2 2 0 0 1 .4-1.2l3-4a2 2 0 0 1 2.402-.632l8 3.5A2 2 0 0 1 40 24.5v3.74l1-.182ZM30 28a1 1 0 1 1 0-2 1 1 0 0 1 0 2Zm5 0a1 1 0 1 1 0-2 1 1 0 0 1 0 2Zm-4 5v17h3V33h-3Zm-15 5v3l2.757.69A1 1 0 0 0 20 40.72v-.94a1 1 0 0 0-.757-.97L16 38Zm33 0-3.243.81a1 1 0 0 0-.757.97v.94a1 1 0 0 0 1.243.97L49 41v-3Z"/><path fill-opacity=".2" d="m49 38-3.243.81a1 1 0 0 0-.757.97v.94a1 1 0 0 0 1.243.97L49 41v-3Zm-33 0 3.243.81a1 1 0 0 1 .757.97v.94a1 1 0 0 1-1.243.97L16 41v-3Zm13.5-18-3 4.5L26 29l3.5 1 .5 2h5l.5-2 3.5-.5V24z"/></g></symbol><symbol id="icon-order-progress-gift-heart" viewBox="0 0 64 64"><g fill-rule="evenodd"><rect width="34" height="10" x="15" y="19" rx="2" transform="matrix(1 0 0 -1 0 48)"/><path d="M39 36a4 4 0 0 0-7-2.646A4 4 0 0 0 25 36c0 1.32 1.873 3.77 5.618 7.35a2 2 0 0 0 2.764 0C37.127 39.77 39 37.32 39 36Z"/><path fill-rule="nonzero" d="M27.467 19c-5.014-2.376-6.602-4.91-3.985-7.525 1.576-1.577 3.417-1.532 5.038.088 1.316 1.317 2.592 3.733 3.882 7.282 2.768-7.598 5.784-10.498 8.918-7.363 1.577 1.576 1.532 3.417-.088 5.038-.839.838-2.123 1.66-3.862 2.48H47a2 2 0 0 1 2 2v6a2 2 0 0 1-2 2v18a2 2 0 0 1-2 2H19a2 2 0 0 1-2-2V29a2 2 0 0 1-2-2v-6a2 2 0 0 1 2-2h10.467ZM19 29v18h26V29H19Zm-2-8v6h30v-6H17Zm22.818-5.895c.854-.854.868-1.43.088-2.21-1.352-1.351-2.987-.016-5.002 5 2.395-.975 4.039-1.914 4.914-2.79Zm-12.713-2.128c-.854-.854-1.43-.868-2.21-.088-1.351 1.352-.016 2.987 5 5.002-.975-2.394-1.914-4.038-2.79-4.914ZM32 33.354l.75-.661A4 4 0 0 1 39 36c0 1.32-1.873 3.77-5.618 7.35a2 2 0 0 1-2.764 0C26.873 39.77 25 37.32 25 36a4 4 0 0 1 6.25-3.307l.75.661ZM37 36a2 2 0 0 0-3.5-1.322L32 36.377l-1.5-1.7A2 2 0 0 0 27 36c0 .524 1.706 2.757 5 5.906 3.294-3.15 5-5.382 5-5.905Z"/></g></symbol><symbol id="icon-order-progress-gift" viewBox="0 0 64 64"><g fill-rule="evenodd"><rect width="34" height="10" x="15" y="19" rx="2" transform="matrix(1 0 0 -1 0 48)"/><path d="M39 36a4 4 0 0 0-7-2.646A4 4 0 0 0 25 36c0 1.32 1.873 3.77 5.618 7.35a2 2 0 0 0 2.764 0C37.127 39.77 39 37.32 39 36Z"/><path fill-rule="nonzero" d="M27.467 19c-5.014-2.376-6.602-4.91-3.985-7.525 1.576-1.577 3.417-1.532 5.038.088 1.316 1.317 2.592 3.733 3.882 7.282 2.768-7.598 5.784-10.498 8.918-7.363 1.577 1.576 1.532 3.417-.088 5.038-.839.838-2.123 1.66-3.862 2.48H47a2 2 0 0 1 2 2v6a2 2 0 0 1-2 2v18a2 2 0 0 1-2 2H19a2 2 0 0 1-2-2V29a2 2 0 0 1-2-2v-6a2 2 0 0 1 2-2h10.467ZM19 29v18h26V29H19Zm-2-8v6h30v-6H17Zm22.818-5.895c.854-.854.868-1.43.088-2.21-1.352-1.351-2.987-.016-5.002 5 2.395-.975 4.039-1.914 4.914-2.79Zm-12.713-2.128c-.854-.854-1.43-.868-2.21-.088-1.351 1.352-.016 2.987 5 5.002-.975-2.394-1.914-4.038-2.79-4.914ZM32 33.354l.75-.661A4 4 0 0 1 39 36c0 1.32-1.873 3.77-5.618 7.35a2 2 0 0 1-2.764 0C26.873 39.77 25 37.32 25 36a4 4 0 0 1 6.25-3.307l.75.661ZM37 36a2 2 0 0 0-3.5-1.322L32 36.377l-1.5-1.7A2 2 0 0 0 27 36c0 .524 1.706 2.757 5 5.906 3.294-3.15 5-5.382 5-5.905Z"/></g></symbol><symbol id="icon-order-progress-line-download" viewBox="0 0 64 64"><g fill-rule="evenodd"><path fill-opacity=".2" d="M17 18h30v13H34l-3.5-2-.5 2H17z"/><path fill-rule="nonzero" d="m38.484 33 3.25 2.578a2 2 0 0 1-.242 3.3l-1.408.812 2.064 3.576a2 2 0 0 1-.732 2.732l-1.517.875a2 2 0 0 1-2.732-.732l-2.064-3.575-1.408.813a2 2 0 0 1-2.979-1.44L29.393 33H17a2 2 0 0 1-2-2V18a2 2 0 0 1 2-2h30a2 2 0 0 1 2 2v13a2 2 0 0 1-2 2h-8.516Zm-2.522-2H47V18H17v13h12.097l-.173-1.167c-.265-1.794 1.801-2.987 3.222-1.86L35.962 31Zm1.39 7.958 3.14-1.813-9.59-7.605 1.793 12.107 3.14-1.813L38.9 45.14l1.517-.875-3.064-5.308Z"/></g></symbol><symbol id="icon-plus" viewBox="0 0 24 24"><path fill-rule="evenodd" d="M11 13v3.998a.999.999 0 1 0 2 0V13h3.998a.999.999 0 1 0 0-2H13V7.002a.999.999 0 1 0-2 0V11H7.002a.999.999 0 1 0 0 2H11Z"/></symbol><symbol id="icon-tip-heart" viewBox="0 0 24 24"><g enable-background="new 0 0 24 24"><style type="text/css">.st0{fill-rule:evenodd;clip-rule:evenodd;}</style><path class="st0" d="m15.2 20.2-3.3-3.4c-.4-.4-.6-1-.6-1.7 0-.6.2-1.2.6-1.7.9-.9 2.3-.9 3.1 0l.5.5.5-.5c.9-.9 2.3-.9 3.1 0 .9.9.9 2.4 0 3.3l-.7.8-2.6 2.6c-.1.1-.2.1-.3.1-.1.1-.2.1-.3 0z"/><path d="M15.4 23.4c-4.2 0-7.6-3.4-7.6-7.6s3.4-7.6 7.6-7.6 7.6 3.4 7.6 7.6-3.4 7.6-7.6 7.6zm0-13.2c-3.1 0-5.7 2.5-5.7 5.7s2.5 5.7 5.7 5.7 5.7-2.5 5.7-5.7-2.6-5.7-5.7-5.7z"/><path d="M9.7 19.1h-.4c-3.7 0-6.2-1.3-6.2-2.2V16c1.4.9 3.5 1.4 6 1.4-.1-.5-.2-1-.2-1.6v-.3C5.3 15.4 3 14.1 3 13.3v-.7c1.5.8 3.6 1.4 6.1 1.4.4-1.4 1.3-2.6 2.4-3.5C8.1 10.4 6 9.2 6 8.3v-.7C7.4 8.5 9.6 9 12.2 9s4.8-.5 6.2-1.4v.7c0 .4-.4.8-1.1 1.2.7.2 1.4.5 2 1 .7-.6 1.1-1.3 1.1-2.1V4.9c0-2.4-3.5-4.2-8.2-4.2C7.5.7 4 2.5 4 4.9v1.7c-1.8.8-2.9 1.9-2.9 3.2v7c0 2.4 3.5 4.2 8.2 4.2.7 0 1.3 0 1.9-.1-.6-.5-1.1-1.1-1.5-1.8zm2.5-16.5c3.7 0 6.2 1.3 6.2 2.2S15.9 7 12.2 7C8.4 7.1 6 5.8 6 4.9s2.4-2.3 6.2-2.3zM4.1 8.7c0 .2.1.4.2.5 0 0 0 .1.1.1.1.1.1.2.2.4l.1.1.3.3.1.1c.1.1.3.3.5.4l.1.1c0 .2.1.3.3.4.1 0 .1.1.2.1.2.1.3.2.5.2.1 0 .1.1.2.1.2.1.5.2.7.3h.1c.2.1.4.2.7.2h.1C5.2 11.9 3 10.7 3 9.8c0-.3.4-.7 1.1-1.1z"/></g></symbol><symbol id="icon-tip" viewBox="0 0 24 24"><g enable-background="new 0 0 24 24"><path d="M10.5 18.7c-4.8 0-8.5-1.9-8.5-4.3v-3.6h2v3.6c0 .9 2.6 2.3 6.5 2.3s6.5-1.4 6.5-2.3v-2.6h2v2.6c0 2.5-3.6 4.3-8.5 4.3z"/><path d="M10.5 22.5c-4.8 0-8.5-1.9-8.5-4.3v-3.6h2v3.6c0 .9 2.6 2.3 6.5 2.3s6.5-1.4 6.5-2.3v-3.6h2v3.6c0 2.4-3.6 4.3-8.5 4.3zm3.1-8.9c-4.8 0-8.5-1.9-8.5-4.3V5.7h2v3.6c0 .9 2.6 2.3 6.5 2.3s6.5-1.4 6.5-2.3V5.7h2v3.6c0 2.4-3.7 4.3-8.5 4.3z"/><path d="M10.5 15.1c-4.8 0-8.5-1.9-8.5-4.3C2 9.3 3.4 8 5.8 7.2c.3-.1.6 0 .9.1.3.2.4.5.4.8v1.1c0 .9 2.6 2.3 6.5 2.3 1.3 0 2.5-.2 3.6-.5.4-.1.9.1 1.1.4.2.4.2.9-.1 1.2-1.4 1.6-4.3 2.5-7.7 2.5zM5.1 9.6c-.7.5-1.1.9-1.1 1.2 0 .9 2.2 2.1 5.7 2.3-2.6-.6-4.3-1.9-4.6-3.5z"/><path d="M13.6 10c-4.8 0-8.5-1.9-8.5-4.3s3.6-4.3 8.5-4.3c4.8 0 8.5 1.9 8.5 4.3S18.4 10 13.6 10zm0-6.7c-3.9 0-6.5 1.4-6.5 2.3S9.7 8 13.6 8s6.5-1.4 6.5-2.3-2.6-2.4-6.5-2.4z"/></g></symbol><symbol id="icon-user" viewBox="0 0 24 24"><path d="M7.987 21.162A9.966 9.966 0 0 0 12 22a9.966 9.966 0 0 0 4.013-.838A1.007 1.007 0 0 1 16 21a4 4 0 1 0-8 0c0 .055-.004.11-.013.162Zm-1.913-1.106a6.002 6.002 0 0 1 11.852 0A9.986 9.986 0 0 0 22 12c0-5.523-4.477-10-10-10S2 6.477 2 12a9.986 9.986 0 0 0 4.074 8.056ZM12 24C5.373 24 0 18.627 0 12S5.373 0 12 0s12 5.373 12 12-5.373 12-12 12Zm0-10a4 4 0 1 1 0-8 4 4 0 0 1 0 8Zm0-2a2 2 0 1 0 0-4 2 2 0 0 0 0 4Z"/></symbol></svg>