<?xml version="1.0" encoding="utf-8"?><svg version="1.1" id="Layer_1" xmlns="http://www.w3.org/2000/svg" xmlns:xlink="http://www.w3.org/1999/xlink" x="0px" y="0px" viewBox="0 0 1722.8 741.6" style="enable-background:new 0 0 1722.8 741.6" xml:space="preserve"><style type="text/css">.st0{fill:#D8BF9E;}
	.st1{fill:#FFFFFF;}</style><path class="st0" d="m479.7 675.4 1 49.6c.1 3.9-3 7.1-6.9 7.1L8.1 741.4c-3.9.1-7.1-3-7.1-6.9l-1-48.6c-.1-3.9 3-7.1 6.9-7.1l466.7-9.2c3.3-.1 6.1 2.5 6.1 5.8m367.2 8-2 49.6c-.2 3.9-3.4 6.9-7.3 6.7l-323.7-13.4c-3.9-.2-6.9-3.4-6.7-7.3l2-48.6c.2-3.9 3.4-6.9 7.3-6.7l324.7 13.4c3.2.1 5.8 2.9 5.7 6.3m662.4-13.6 1.6 49.6c.1 3.9-2.9 7.1-6.8 7.2l-461 15c-3.9.1-7.1-2.9-7.2-6.8l-1.6-48.6c-.1-3.9 2.9-7.1 6.8-7.2l462-15c3.3-.2 6.1 2.4 6.2 5.8m-241.2-62.7-2.6 49.6c-.2 3.9-3.5 6.8-7.4 6.6l-157.7-8.2c-3.9-.2-6.8-3.5-6.6-7.4l2.5-48.6c.2-3.9 3.5-6.8 7.4-6.6l158.7 8.2c3.3.2 5.8 3.1 5.7 6.4m449.9-9.2 1.6 49.6c.1 3.9-2.9 7.1-6.8 7.2l-166.8 5.4c-3.9.1-7.1-2.9-7.2-6.8l-1.6-48.6c-.1-3.9 2.9-7.1 6.8-7.2l167.8-5.5c3.3 0 6.1 2.6 6.2 5.9m2.7 86.6-2.6 49.6c-.2 3.9-3.5 6.8-7.4 6.6L1544 732c-3.9-.2-6.8-3.5-6.6-7.4l2.5-48.6c.2-3.9 3.5-6.8 7.4-6.6l167.7 8.7c3.3.3 5.9 3.1 5.7 6.4M499 608.2v40.6c0 3.9-3.1 7-7 7H272c-3.9 0-7-3.1-7-7v-39.6c0-3.9 3.1-7 7-7h221c3.3 0 6 2.6 6 6m121.6-2.7.8 40.6c.1 3.9-3 7.1-6.9 7.1l-85 1.7c-3.9.1-7.1-3-7.1-6.9l-.8-39.6c-.1-3.9 3-7.1 6.9-7.1l86-1.7c3.3 0 6 2.6 6.1 5.9"/><path class="st1" d="M39 437.6h70.5v66.6l56.4-66.6h81.9L168 527.9l85.8 122.8H168l-45-71.5-13.5 9v62.5H39zm236.8-57.1 64.4-3.7 56.2 73.4 19.2 26.2-2.5-32.9-4.1-70.7 64.4-3.7 12.4 212.7-64.4 3.7-56.3-73.4-19.2-26.2 2.5 32.9 4.1 70.7-64.4 3.7z"/><path class="st0" d="m885.6 597.2 45.9 8.6c3.8.7 6.4 5 5.8 9.6l-14.9 114.2c-.6 4.6-4.2 7.7-8 7l-45-8.4c-3.8-.7-6.4-5-5.8-9.6l15.1-115.4c.6-3.9 3.7-6.6 6.9-6m68.2 6.3 46.3-4.7c3.9-.4 7.2 3 7.6 7.7l8.5 121c.3 4.6-2.5 8.7-6.4 9.1l-45.3 4.6c-3.9.4-7.2-3-7.6-7.7l-8.5-122.2c-.3-4 2.1-7.5 5.4-7.8"/><path class="st1" d="M532.8 363.6h70.5v213h-70.5zm106-278.4c5.9 0 12.9-.4 21.1-1.3 8.1-.9 15.8-2.3 23.2-4.2 7.3-1.9 13.6-4.5 18.8-7.8 5.1-3.2 7.7-7.1 7.7-11.7 0-3.9-1.4-6.8-4.3-8.5-2.9-1.8-6-2.6-9.5-2.6-2.9 0-5.8.4-8.9 1.3-3.1.9-6.3 1.9-9.5 3-3.3 1.1-6.6 2.1-9.9 3-3.3.9-6.6 1.3-9.9 1.3-14.3 0-28.2-1.4-41.9-4.3s-27.2-6.4-40.5-10.6c-13.3-4.2-26.4-8.8-39.5-13.9-13.1-5.1-26.2-9.7-39.5-13.9-13.3-4.2-26.7-7.7-40.3-10.6-13.6-3-27.6-4.4-41.8-4.4-12.7 0-25 2.2-36.7 6.6-11.7 4.4-22 10.5-30.9 18.3-8.9 7.8-16 17.1-21.4 28-5.4 10.9-8.1 22.6-8.1 35.4 0 8.6 1.4 17.1 4.1 25.5 2.7 8.4 6.7 16.1 12 23 5.3 6.9 11.6 12.5 19.1 16.8 7.5 4.3 15.9 6.4 25.3 6.4 3.5 0 7.8-.6 13-1.8 5.1-1.2 10.1-2.9 15-5.1 4.8-2.2 8.9-4.9 12.3-8.1 3.4-3.2 5.1-6.7 5.1-10.7 0-2.4-.5-4.9-1.5-7.6-1-2.6-2.2-5.1-3.6-7.4-1.4-2.3-2.9-4.2-4.4-5.8-1.5-1.5-3-2.3-4.3-2.3-2.4 0-4.5 1-6.3 3.1-1.8 2.1-3.7 4.4-5.9 6.9s-4.8 4.8-7.7 6.9c-3 2.1-6.9 3.1-11.7 3.1-6.4 0-12.1-1.2-17.1-3.6-5-2.4-9.3-5.6-12.7-9.7-3.4-4.1-6-8.9-7.9-14.5-1.9-5.6-2.8-11.7-2.8-18.3 0-9.2 1.8-16.8 5.4-22.7 3.6-5.9 8.3-10.7 14-14.3 5.7-3.6 12.2-6.1 19.4-7.6 7.2-1.4 14.5-2.1 21.7-2.1 10.3 0 19.7.5 28.1 1.6 8.4 1.1 16.3 2.5 23.5 4.3 7.2 1.8 14 3.6 20.4 5.6 6.4 2 12.6 3.7 18.8 5.3l11.2 4.6c-3.1 4.2-6.8 9-11.2 14.6-4.4 5.6-7.5 11-9.2 16.3-3.7 11.6-6 24-6.7 37.2-.8 13.2-1.2 25.6-1.2 37.2 0 2.2.1 5.7.2 10.5s.3 10.4.7 16.6c.3 6.3.7 12.7 1 19.4.3 6.7.7 13.2 1.2 19.4.4 6.3.9 11.8 1.3 16.6.4 4.8.9 8.3 1.3 10.5-.7 5.3-1.6 9.7-2.8 13.2-1.2 3.5-2.8 6.7-4.8 9.5-2 2.9-4.4 5.7-7.4 8.6-3 2.9-6.5 6.1-10.7 9.9v2.3c0 1.5.5 2.9 1.5 3.9 1 1.1 2.1 2 3.5 2.6 1.3.7 2.7 1.2 4.1 1.5 1.4.3 2.5.5 3.1.5 8.3 0 16.5-2.3 24.3-6.9 7.9-4.6 14.9-10.3 21.1-16.9 6.1-6.7 11-13.8 14.5-21.4 3.5-7.6 5.2-14.3 4.9-20.2-.9-18.2-1.6-34.3-2.3-48.2-.7-13.9-1.3-26.5-1.8-37.7-.6-11.2-.9-21.4-1.2-30.8-.2-9.3-.3-18.5-.3-27.5 0-1.1.2-3.5.5-7.2s.8-7.5 1.3-11.3c.5-3.8 1.2-7.2 2-10.2.8-3 1.5-4.2 2.1-3.8 18.4 4.8 36.8 8.9 55.1 12.2 18.4 3.4 36.8 5 55.2 5m95.4 43.4c4.4 0 8-.7 10.9-2.1 2.8-1.4 5.1-3.3 6.7-5.6 1.6-2.3 2.8-4.9 3.5-7.7.7-2.8.9-5.7.7-8.6-.4-9-2.4-15.3-5.9-19.1-3.5-3.7-8.1-5.6-13.8-5.6-9.2 0-15.4 2.5-18.6 7.4-3.2 4.9-4.8 11.1-4.8 18.6 0 6.8 1.6 12.3 4.9 16.5 3.2 4.2 8.7 6.2 16.4 6.2m578.7 5c1.8.4 3.1.7 3.9.7 1.8 0 3.2-.5 4.3-1.6l28.3-45.7c.4-1.8.7-3 .7-3.6 0-2-.6-3.5-1.6-4.6-1.1-1.1-2.4-1.9-3.9-2.3-.9-.4-2.2-.7-3.9-.7-1.8 0-3.5.4-5.3 1.3l-28.6 43.8c-.2.7-.4 1.3-.5 1.8-.1.5-.2 1.2-.2 1.8 0 2.4.7 4.4 2.1 5.9 1.3 1.4 2.9 2.5 4.7 3.2"/><path class="st1" d="M1397.8 242.8c-4.8 3.7-10.2 8.3-16.1 13.8-5.9 5.5-11.9 10.7-17.9 15.8-6 5-11.9 9.4-17.6 13-5.7 3.6-10.6 5.4-14.8 5.4-13.4 0-22.8-4.8-28.3-14.5s-8.2-22.6-8.2-38.6c0-7.3.5-15 1.6-23.1 1.1-8.1 2.8-15.7 5.1-22.7s5.2-12.9 8.7-17.8c3.5-4.8 7.6-7.6 12.2-8.2 3.5.4 6.5 1.4 8.9 3 2.4 1.5 4.3 3.5 5.8 5.8 1.4 2.3 2.5 4.8 3.1 7.4.7 2.6 1 5.2 1 7.6 0 5-.7 9.3-2.1 12.8-1.4 3.5-4 5.3-7.7 5.3-4.4 0-9.7-2.6-15.8-7.9-.2-.2-.7-.3-1.3-.3-1.8 0-3.2 1-4.4 3.1-1.2 2.1-1.8 4.2-1.8 6.4 0 2 .7 3.4 2 4.3 2.2 1.5 4.8 3.4 7.9 5.6 3.1 2.2 6.3 4.3 9.7 6.4 3.4 2.1 7 3.9 10.9 5.4 3.8 1.5 7.6 2.3 11.3 2.3 2.2 0 4.4-1.1 6.6-3.3 2.2-2.2 4.2-4.9 6.1-8.2 1.9-3.3 3.3-6.9 4.4-10.7 1.1-3.8 1.6-7.3 1.6-10.4 0-5.9-.9-11.9-2.8-17.9-1.9-6-4.5-11.6-7.9-16.6-3.4-5-7.6-9.2-12.5-12.3-4.9-3.2-10.5-4.8-16.6-4.8-14.5 0-26.6 2.6-36.4 7.9-9.8 5.3-17.6 12-23.5 20.1-5.9 8.1-10.2 17.1-12.8 27-2.6 9.9-3.9 19.4-3.9 28.6v3.3c0 7.3.4 14.4 1.2 21.3-.8.6-1.7 1.2-2.6 1.9-3.6 2.7-7.4 5.5-11.2 8.4-3.8 2.9-7.4 5.4-10.7 7.7-3.3 2.3-5.6 3.5-6.9 3.5-.4 0-.7-.5-.7-1.6 0-5.3.2-12.3.5-21.1s.8-17.8 1.3-27.1 1-18.3 1.3-26.8c.3-8.6.5-15.2.5-20.1 0-4.2-.7-8.3-2-12.3-1.3-4.1-3.2-7.6-5.6-10.7-2.4-3.1-5.4-5.5-8.9-7.4-3.5-1.9-7.6-2.8-12.2-2.8-6.6 0-12 .7-16.1 2-4.2 1.3-7.7 3.1-10.7 5.4-3 2.3-5.5 5-7.6 8.2-2.1 3.2-4.1 6.5-6.1 10l-2.6 4.6c0-3.5.1-6.9.2-10 .1-3.2.2-6.3.2-9.4.2-3.7-1.9-6.6-6.3-8.6s-9.3-3-14.8-3c-5 0-9.8.9-14.1 2.8-4.4 1.9-6.6 4.8-6.6 8.7 0 11.2.1 20.3.2 27.5.1 7.1.2 12.9.2 17.3v51c-1.6 1-3.4 2.3-5.6 4-3.7 2.9-7.6 5.8-11.5 8.7-3.9 3-7.6 5.7-11 8.1-3.4 2.4-5.8 3.6-7.1 3.6-.2 0-.3-.3-.3-1 0-1.1.2-2.5.7-4.1.4-1.6.7-2.9.7-3.8.2-4.8.5-11.4.8-19.7.3-8.3.7-16.9 1-25.8.3-8.9.6-17.3.8-25.2.2-7.9.3-13.9.3-18.1 0-4.2-.7-8.3-2-12.3-1.3-4.1-3.2-7.6-5.6-10.7-2.4-3.1-5.4-5.5-8.9-7.4-3.5-1.9-7.6-2.8-12.2-2.8-3.9 0-7.4.7-10.2 2-2.9 1.3-5.4 3.1-7.7 5.4-2.3 2.3-4.4 5-6.4 8.2-2 3.2-4.1 6.5-6.3 10l-4.3 6.9c0-4.2-.4-8.2-1.3-12.2-.9-3.9-2.2-7.4-3.9-10.4-1.8-3-4.2-5.4-7.2-7.2-3.1-1.9-6.8-2.8-11.2-2.8-3.9 0-7.4.7-10.4 2s-5.6 3.1-7.9 5.4c-2.3 2.3-4.4 5-6.4 8.2-2 3.2-3.9 6.5-5.9 10l-2.6 4.6c0-3.5.1-6.9.2-10 .1-3.2.2-6.3.2-9.4 0-1.8-.7-3.3-2-4.8-1.3-1.4-3-2.6-5.1-3.6-2.1-1-4.5-1.8-7.2-2.3-2.7-.5-5.4-.8-8.1-.8-5 0-9.5.9-13.5 2.8-3.9 1.9-5.9 4.8-5.9 8.7 0 11.2.1 20.3.2 27.5.1 7.1.2 12.9.2 17.3h.3v45.9c-2.4 2.1-4.9 4.3-7.6 6.8-5.9 5.5-11.9 10.7-17.9 15.8-6 5-11.9 9.4-17.6 13-5.7 3.6-10.6 5.4-14.8 5.4-13.4 0-22.8-4.8-28.3-14.5s-8.2-22.6-8.2-38.6c0-7.3.5-15 1.6-23.1 1.1-8.1 2.8-15.7 5.1-22.7s5.2-12.9 8.7-17.8c3.5-4.8 7.6-7.6 12.2-8.2 3.5.4 6.5 1.4 8.9 3 2.4 1.5 4.3 3.5 5.8 5.8 1.4 2.3 2.5 4.8 3.1 7.4.7 2.6 1 5.2 1 7.6 0 5-.7 9.3-2.1 12.8-1.4 3.5-4 5.3-7.7 5.3-4.4 0-9.7-2.6-15.8-7.9-.2-.2-.7-.3-1.3-.3-1.8 0-3.2 1-4.4 3.1-1.2 2.1-1.8 4.2-1.8 6.4 0 2 .7 3.4 2 4.3 2.2 1.5 4.8 3.4 7.9 5.6 3.1 2.2 6.3 4.3 9.7 6.4 3.4 2.1 7 3.9 10.9 5.4 3.8 1.5 7.6 2.3 11.4 2.3 2.2 0 4.4-1.1 6.6-3.3 2.2-2.2 4.2-4.9 6.1-8.2 1.9-3.3 3.3-6.9 4.4-10.7 1.1-3.8 1.6-7.3 1.6-10.4 0-5.9-.9-11.9-2.8-17.9-1.9-6-4.5-11.6-7.9-16.6-3.4-5-7.6-9.2-12.5-12.3-4.9-3.2-10.5-4.8-16.6-4.8-14.5 0-26.6 2.6-36.4 7.9-9.8 5.3-17.6 12-23.5 20.1-5.9 8.1-10.2 17.1-12.8 27-2.6 9.9-3.9 19.4-3.9 28.6v3.3c0 7.2.4 14.1 1.1 20.8-1 .7-2.1 1.4-3.3 2.3-3.6 2.6-7.4 5.4-11.2 8.2-3.8 2.9-7.4 5.4-10.7 7.6-3.3 2.2-5.6 3.3-6.9 3.3-.4 0-.7-.4-.7-1.3.4-9.6.8-19.9 1.2-30.8.3-10.9.7-21.6 1-32.2.3-10.6.6-20.8.8-30.4.2-9.6.4-18.1.7-25.3-.2-3.1-2.6-5.3-7.2-6.7-4.6-1.4-9.8-2.1-15.5-2.1-5.3 0-10 .7-14.3 2.1-4.3 1.4-6.4 3.7-6.4 6.7v30.1c0 8.4.1 15.9.2 22.4.1 6.5.2 12.3.3 17.4.1 5.2.2 10.3.3 15.3.1 4 .1 8.2.2 12.5-1.4.9-3 2-4.8 3.3-3.6 2.6-7.4 5.4-11.2 8.2-3.8 2.9-7.4 5.4-10.7 7.6-3.3 2.2-5.6 3.3-6.9 3.3-.4 0-.7-.4-.7-1.3 1.1-22.8 2-43.6 2.6-62.3.7-18.8 1.2-36.5 1.6-53.1 0-2.6-.8-4.6-2.3-5.9-1.5-1.3-3.5-2.3-5.8-3-2.3-.7-4.7-1-7.2-1.2-2.5-.1-4.6-.2-6.1-.2-2.9 0-5.3.3-7.2 1s-3.7 1.4-5.3 2.1c-1.5.8-3.1 1.5-4.6 2.1-1.5.7-3.3 1-5.3 1-13.8.2-25.7 2.9-35.5 8.1-9.9 5.2-18 12.1-24.5 20.9-6.5 8.8-11.2 19.1-14.3 30.9-3.1 11.8-4.6 24.7-4.6 38.5 0 5 1 10.6 3.1 16.6 2.1 6 5.2 11.7 9.2 16.9 4.1 5.3 9.2 9.7 15.3 13.2 6.1 3.5 13.3 5.3 21.4 5.3 6.6 0 12.5-1.4 17.8-4.1 5.3-2.7 9.5-6 12.8-9.7 1.1 3.1 3.1 6.4 6.1 9.9 3 3.5 6.5 5.3 10.7 5.3 6.4 0 12.7-1.7 19.1-5.1 6.4-3.4 12.4-7.5 18.3-12.3 5.8-4.8 11.2-9.8 16.3-14.8.9-.9 1.8-1.7 2.6-2.6v10.5c0 2.4.2 4.8.7 7.2 0 10.1-.4 19.1-1.2 27.1-.8 8-2.9 14.8-6.3 20.4-3.4 5.6-8.6 9.9-15.5 12.8-6.9 3-16.5 4.4-28.8 4.4-2.4 0-3.6 1.1-3.6 3.3 0 1.3.6 2.9 1.8 4.8 1.2 1.9 2.7 3.6 4.4 5.3 1.8 1.6 3.8 3 6.1 4.1 2.3 1.1 4.7 1.6 7.1 1.6 10.5 0 20-2 28.3-6.1s15.6-9.4 21.7-16.1c6.1-6.7 11.2-14.5 15.1-23.4 3.9-8.9 6.7-18.2 8.2-27.8.7-2 2.8-4.6 6.6-7.9 3.7-3.3 8-6.8 12.8-10.5 4.8-3.7 9.7-7.3 14.6-10.7.6-.4 1.2-.9 1.9-1.3 1.6 6.6 4 12.7 7.2 18.1 4.2 7.1 10 12.8 17.6 16.9 7.6 4.2 17.5 6.3 29.8 6.3 5.3 0 10.5-.7 15.8-1.9 5.3-1.3 10.3-3 15-5 4.7-2.1 9-4.3 12.8-6.8 3.8-2.5 7-4.9 9.4-7.3 2.8-2.4 6.3-5.4 10.4-9 4.1-3.6 8.1-7.3 12-11.2 1.2-1.2 2.4-2.3 3.6-3.5v34.6c0 1.3.7 2.4 2 3.1 1.3.8 2.8 1.3 4.6 1.6 1.8.3 3.5.5 5.3.7 1.8.1 3.1.2 3.9.2h4.6c2.2 0 4.5-.1 6.9-.3 2.4-.2 4.5-.5 6.4-1 1.9-.4 2.8-1.1 2.8-2l.3-4.3v-26c0-11.2.2-22.2.5-32.9s1.2-20.4 2.5-29c1.3-8.6 3.3-15.5 6.1-20.7 2.7-5.3 6.5-7.9 11.3-7.9.7 0 1.2.5 1.5 1.5.3 1 .5 3.1.5 6.4V213c0 5.8-.1 12.4-.2 19.7-.1 7.4-.2 16.4-.3 27.1-.1 10.7-.2 25-.2 42.8 0 1.3.7 2.4 2 3.1 1.3.8 2.8 1.3 4.6 1.6 1.8.3 3.5.5 5.3.7 1.8.1 3.1.2 3.9.2h4.6c2.2 0 4.5-.1 6.9-.3 2.4-.2 4.5-.5 6.4-1 1.9-.4 2.8-1.1 2.8-2l.3-4.3v-26c0-11.2.2-22.2.5-32.9s1.2-20.4 2.5-29c1.3-8.6 3.3-15.5 6.1-20.7 2.7-5.3 6.5-7.9 11.4-7.9.7 0 1.2.5 1.5 1.5.3 1 .5 3.1.5 6.4 0 2.6-.1 6.2-.3 10.7-.2 4.5-.5 10.3-.8 17.3-.3 7-.6 15.5-.8 25.3-.2 9.9-.3 21.5-.3 34.9 0 3.1.3 6.3 1 9.5.7 3.3 1.8 6.4 3.3 9.2 1.5 2.9 3.6 5.2 6.1 6.9 2.5 1.8 5.8 2.6 9.7 2.6 6.4 0 12.7-1.7 19.1-5.1 6.4-3.4 12.4-7.5 18.3-12.3 5.8-4.8 11.2-9.8 16.3-14.8 1.1-1.1 2.2-2.2 3.3-3.2v30.5c0 1.3.7 2.4 2 3.1 1.3.8 2.9 1.3 4.8 1.6 1.9.3 3.7.5 5.4.7 1.8.1 3.1.2 3.9.2h4.6c2.2 0 4.5-.1 6.9-.3 2.4-.2 4.5-.5 6.4-1 1.9-.4 2.8-1.1 2.8-2l.3-4.3c.9-12.5 1.7-25.7 2.5-39.5s2-26.5 3.6-38 4.1-21.1 7.2-28.6c3.2-7.6 7.7-11.4 13.7-11.4 1.8 0 3.2 1.8 4.4 5.4 1.2 3.6 1.7 8.2 1.5 13.7l-1.6 75.7c-.4 3.3-.4 6.7 0 10.2.4 3.5 1.4 6.7 3 9.5 1.5 2.9 3.6 5.2 6.1 7.1 2.5 1.9 5.8 2.8 9.7 2.8 6.4 0 12.7-1.7 19.1-5.1 6.4-3.4 12.4-7.5 18.3-12.3 5.8-4.8 11.2-9.8 16.3-14.8 1.2-1.2 2.3-2.3 3.4-3.3 1.6 6.1 3.9 11.6 6.8 16.6 4.2 7.1 10 12.8 17.6 16.9 7.6 4.2 17.5 6.3 29.8 6.3 5.3 0 10.5-.7 15.8-1.9 5.3-1.3 10.3-3 15-5 4.7-2.1 9-4.3 12.8-6.8 3.8-2.5 7-4.9 9.4-7.3 2.8-2.4 6.3-5.4 10.4-9 4.1-3.6 8.1-7.3 12-11.2 3.9-3.8 7.7-7.3 11.2-10.5 3.5-3.2 6.3-5.6 8.2-7.4l-8.2-10.8zm-760-4.9v39.5c-.7 2.4-1.4 4.3-2.3 5.6-.9 1.3-2.5 2-4.9 2-5.9 0-10.6-2-14-6.1-3.4-4.1-6-9-7.9-15-1.9-5.9-3-12.2-3.5-18.9-.4-6.7-.7-12.7-.7-17.9 0-6.1.1-12.4.3-18.8.2-6.4 1-12.2 2.5-17.4 1.4-5.3 3.6-9.5 6.6-12.8 3-3.3 7.3-4.9 13-4.9 1.8 0 3.9.2 6.6.5 2.6.3 3.9 1.4 3.9 3.1.2 16.4.3 29.2.3 38.3v22.8zm-4.6 204.7 70.5-1.3 1.5 76.7 60-1.1-1.5-76.8 70.4-1.4 4.2 213-70.5 1.3-1.6-83.6-60 1.1 1.7 83.7-70.5 1.4zM966.3 368c64.2 0 111 44.4 111 110.1 0 65.7-46.8 110.1-111 110.1s-111-44.4-111-110.1c0-65.7 46.8-110.1 111-110.1m0 167.8c21.3 0 37.5-22.8 37.5-57.6s-16.2-57.6-37.5-57.6-37.5 22.8-37.5 57.6 16.2 57.6 37.5 57.6m100.6-173.5 78.2-2.5 32.6 124.4 7.7 35.2 5.5-35.6 24.4-126.3 75.2-2.4-62.3 215.1-85.2 2.8zm236.8 61.4 64.4 3.3 47.9 79.1 16.2 28.2 1.2-33 3.6-70.7 64.4 3.3-11 212.7-64.4-3.3-47.9-79.1-16.2-28.2-1.2 33-3.6 70.7-64.4-3.3zm272.9 84.3L1501 361.6h79.2l22.8 58.8 11.1 30.9 10.8-30.9 22.8-58.8h75.1L1647.1 508v66.7h-70.5z"/></svg>