<?xml version="1.0" encoding="utf-8"?><svg version="1.1" id="Layer_1" xmlns="http://www.w3.org/2000/svg" xmlns:xlink="http://www.w3.org/1999/xlink" x="0px" y="0px" viewBox="0 0 1372.7 660.8" style="enable-background:new 0 0 1372.7 660.8" xml:space="preserve"><style type="text/css">.st0{fill:#FFFFFF;}
	.st1{display:none;fill:#FFFFFF;}
	.st2{fill:#EBCDBA;}
	.st3{fill:#D22121;}
	.st4{fill:#009CD0;}
	.st5{opacity:0.15;}
	.st6{fill:#D7E6D6;}
	.st7{opacity:0.15;fill:#FFFFFF;}
	.st8{opacity:0.1;fill:#FFFFFF;}
	.st9{opacity:0.59;fill:#FFFFFF;}
	.st10{opacity:0.7;fill:#FFFFFF;}
	.st11{opacity:0.5;fill:#FFFFFF;}
	.st12{fill:none;stroke:#EBCDBA;stroke-width:35;stroke-miterlimit:10;}</style><g id="knizne"><path class="st0" d="M299.8 204.3c-9 33-19.5 73.5-21.8 76.9-7.9 12.8-52.9 36-73.1 36-22.5 0-79.5-55.5-79.5-66.8 0-6.4 26.6-27 34.9-27 3 0 4.9 1.5 6 3.8 8.6 16.5 33.4 55.1 42 55.1 4.5 0 14.3-6.8 16.5-11.6 1.9-3.8 15-51.8 22.9-81.4 9-32.6 15.4-59.3 19.5-71.3 4.5-13.1 11.3-18.4 12-19.1-1.5.4-35.3 9-58.9 22.1-3.4 1.9-4.5 5.6-4.5 9 0 8.6 7.5 33 7.5 38.3 0 5.3-19.5 16.1-25.5 16.1-7.5 0-35.3-39-35.3-48.4 0-13.1 31.1-50.3 42.8-52.5 25.1-4.9 49.5-9.4 88.1-18.8 4.5-1.1 17.6-13.9 24-13.9 8.6 0 31.9 19.1 31.9 24.8 0 3.4-17.3 17.3-20.6 27.4-3.4 9-11.6 37.9-20.6 70.5 5.3-2.6 9-5.6 11.3-8.3 26.3-32.6 57-82.5 72-99.4 3-3.8 28.1-15 33-15 4.9 0 24 23.6 24 27.8 0 3-15 11.6-18 14.3-12.4 10.9-52.9 63-77.6 87-1.9 1.9-4.1 3.4-7.1 5.3 3.4 3.4 6.4 6.8 8.3 11.6 10.9 29.3 16.5 66.8 27.4 87.8 4.5 8.3 19.9 11.3 19.9 15.4s-12 17.3-24 17.3c-9.8 0-42.8-10.5-49.1-22.5-10.9-21-8.3-57.8-14.6-81.4-1.1-4.5-3.4-8.3-6.8-11.3l-7 2.2zm257 80.6c11.3 0 31.1-22.5 49.5-56.3 0 0 3.4-6.8 8.3-6.8s12.8 6 12.8 10.5-4.9 13.1-4.9 13.1c-20.6 37.5-42.8 71.6-69.8 71.6-16.9 0-54.4-15.8-54.4-32.6 0-24 21-84 21-98.3 0-3.4-3.4-7.5-7.5-7.5-7.9 0-22.5 6.4-27.4 18.4-10.1 24.8-27 100.5-29.3 111.4-1.5 4.9-7.5 8.6-14.3 8.6-8.6 0-35.6-9.4-35.6-19.5 0-9.8 28.5-123.4 36.4-148.9 2.3-5.3 9.8-7.9 15.4-7.9 8.6 0 25.1 18.4 25.1 18.4s34.9-18.4 56.3-18.4c14.3 0 38.6 16.5 38.6 30.4 0 17.6-23.3 89.6-23.3 109.5.1 1.7 1.2 4.3 3.1 4.3z"/><path class="st0" d="M626.9 148.8c1.5-5.3 6.8-7.9 15-7.9 7.5 0 37.5 17.6 37.5 24.8 0 8.6-30 90.4-30 116.6 0 1.5 2.6 3.4 3.8 3.4 10.9 0 30.4-23.3 49.5-57 0 0 3-6.8 7.9-6.8s12.8 6 12.8 10.5-5.3 13.1-5.3 13.1c-20.3 37.5-42.8 71.6-69.8 71.6-21 0-54.4-15.8-54.4-32.6 0-17.6 26.6-112.5 33-135.7zm18-40.5c0-15 9.4-42.4 24.8-42.4 10.1 0 29.6 7.1 29.6 19.5 0 15-9.8 42.4-24.8 42.4-10.1 0-29.6-7.2-29.6-19.5z"/><path class="st0" d="M710.5 252.3c-5.3 0-13.1-6-13.1-10.1 0-3.4 3.4-9.4 5.3-13.5 11.3-25.1 27-58.5 27-58.5 11.6-24.8 18.4-29.3 26.6-29.3 13.9 0 57.8 5.3 66.8 5.3 9.8 0 23.6-5.3 30-5.3 5.3 0 16.1 17.3 16.1 26.6 0 7.1-58.5 61.5-93.8 102 16.9 0 43.1 9 52.5 9 15.4 0 33.8-16.1 52.1-49.9 0 0 3-6.8 7.9-6.8s13.1 6 13.1 10.5-4.9 13.1-4.9 13.1c-21 37.5-43.9 71.6-76.9 71.6-9.4 0-51.8-4.9-58.9-4.9-7.5 0-22.9 4.9-29.3 4.9-6.8 0-17.3-17.3-17.3-22.5 0-9.8 62.6-73.1 89.6-105-14.3-3.8-26.3-5.3-34.5-5.3-6 0-15.4 1.9-27 20.3-6.4 10.1-13.9 23.6-23.6 41.6-2 4.3-3.2 6.2-7.7 6.2z"/><path class="st0" d="M1014.7 284.9c11.3 0 31.1-22.5 49.5-56.3 0 0 3.4-6.8 8.3-6.8s12.8 6 12.8 10.5-4.9 13.1-4.9 13.1c-20.6 37.5-42.8 71.6-69.8 71.6-16.9 0-54.4-15.8-54.4-32.6 0-24 21-84 21-98.3 0-3.4-3.4-7.5-7.5-7.5-7.9 0-22.5 6.4-27.4 18.4-10.1 24.8-27 100.5-29.3 111.4-1.5 4.9-7.5 8.6-14.3 8.6-8.6 0-35.6-9.4-35.6-19.5 0-9.8 28.5-123.4 36.4-148.9 2.2-5.3 9.8-7.9 15.4-7.9 8.6 0 25.1 18.4 25.1 18.4s34.9-18.4 56.3-18.4c14.3 0 38.6 16.5 38.6 30.4 0 17.6-23.3 89.6-23.3 109.5.1 1.7 1.2 4.3 3.1 4.3z"/><path class="st1" d="M1174.9 256.8s6.8-9.4 11.3-9.4c5.3 0 15.8 8.6 15.8 13.1s-8.3 15.4-8.3 15.4c-15 19.9-40.1 41.3-72 41.3-25.5 0-66.4-22.5-66.4-51.8 0-42.4 39.4-124.5 79.1-124.5 19.1 0 58.1 22.1 58.1 38.3 0 19.9-26.3 78.4-51.4 78.4-14.6 0-28.1-3.4-28.1-3.4s-1.5 3.4-1.5 9.8c0 10.5 9.8 19.9 17.3 19.9 17.6-.1 32.6-8.7 46.1-27.1zm-21.4-76.5c0-1.1-3-4.1-5.6-4.1-12 0-30.8 37.1-34.1 52.9 25.8-4.2 39.7-39.1 39.7-48.8zm93.8-92.7c0 4.9-3.4 7.5-6.4 9.8-23.6 15.8-63.8 40.1-67.9 40.1-4.9 0-13.5-10.9-13.5-13.9 0-3.4 2.6-7.5 4.9-10.1 9-9.4 36.8-45 41.6-51.4 3.8-4.1 6.4-7.1 10.1-7.1 6.4 0 31.2 26.6 31.2 32.6z"/><path class="st0" d="M1084.2 149.2c1.5-5.2 6.7-7.8 14.9-7.8 7.4 0 37.2 17.5 37.2 24.6 0 8.6-29.8 89.7-29.8 115.7 0 1.5 2.6 3.3 3.7 3.3 10.8 0 30.1-23.1 49.1-56.6 0 0 3-6.7 7.8-6.7s12.7 6 12.7 10.4c0 4.5-5.2 13-5.2 13-20.1 37.2-42.4 71.1-69.2 71.1-20.8 0-53.9-15.6-53.9-32.4 0-17.4 26.4-111.5 32.7-134.6zm91.2-68.4c0 4.8-3.3 7.4-6.3 9.7-23.4 15.6-63.3 39.8-67.3 39.8-4.8 0-13.4-10.8-13.4-13.8 0-3.3 2.6-7.4 4.8-10 8.9-9.3 36.5-44.6 41.3-51 3.7-4.1 6.3-7.1 10-7.1 6.3 0 30.9 26.4 30.9 32.4z" id="iiii"/></g><g id="kniha"><path class="st2" d="m802.8 105.9-69-71-12.5 11.6 60.5 66.4s8 8.7 21 8.7v-15.7z"/><path class="st0" d="m802.8 105.9-69-71s24-7 49 18c0 0 35 31 20 53z"/><path class="st2" d="m802.8 105.9 69-71 12.5 11.6-60.5 66.4s-8 8.7-21 8.7v-15.7z"/><path class="st0" d="m802.8 105.9 69-71s-24-7-49 18c0 0-35 31-20 53z"/><path class="st3" d="M861.2 0s-6.4 10.9-23.4 17.9c0 0-49 17.6-35 73.3 0 0-3-42.3 38-61.3 0 0 22-8 31-21.7L861.2 0z"/></g><path id="p" class="st0" d="M72 418.4c8.8-4.8 19.1-7.2 30.9-7.2 13.8 0 26.3 3.5 37.5 10.5s20 17 26.5 30 9.8 28.1 9.8 45.3c0 17.2-3.3 32.4-9.8 45.5-6.5 13.1-15.4 23.2-26.5 30.3-11.2 7.1-23.7 10.7-37.5 10.7-11.6 0-21.9-2.4-30.8-7.2-8.9-4.8-15.9-11-20.9-18.6v103.2H0V413.6h51.3v23.7c5-7.8 11.9-14.1 20.7-18.9zm41.9 48.4c-7.1-7.3-15.9-10.9-26.2-10.9-10.2 0-18.9 3.7-26 11.1-7.1 7.4-10.6 17.5-10.6 30.3s3.5 22.9 10.6 30.3c7.1 7.4 15.8 11.1 26 11.1s18.9-3.8 26.1-11.2c7.2-7.5 10.8-17.6 10.8-30.5-.1-12.8-3.7-22.9-10.7-30.2z"/><path id="u" class="st0" d="M369 413.6V581h-51.3v-22.8c-5.2 7.4-12.3 13.3-21.1 17.8-8.9 4.5-18.8 6.8-29.6 6.8-12.8 0-24.1-2.8-33.9-8.5-9.8-5.7-17.4-14-22.8-24.8-5.4-10.8-8.1-23.5-8.1-38.1v-97.8h51v90.9c0 11.2 2.9 19.9 8.7 26.1 5.8 6.2 13.6 9.3 23.4 9.3 10 0 17.9-3.1 23.7-9.3 5.8-6.2 8.7-14.9 8.7-26.1v-90.9H369z"/><path id="t" class="st0" d="M499.2 537.5V581h-26.1c-18.6 0-33.1-4.5-43.5-13.7-10.4-9.1-15.6-23.9-15.6-44.5v-66.6h-20.4v-42.6H414v-40.8h51.3v40.8h33.6v42.6h-33.6v67.2c0 5 1.2 8.6 3.6 10.8 2.4 2.2 6.4 3.3 12 3.3h18.3z"/><path id="v" class="st0" d="m798.1 533 36.3-119.4H889L829.6 581h-63.3l-59.4-167.4h54.9L798.1 533z"/><path class="st0" d="M906.5 452c6.5-13 15.3-23 26.6-30 11.2-7 23.7-10.5 37.5-10.5 11.8 0 22.1 2.4 31 7.2 8.9 4.8 15.8 11.1 20.5 18.9v-23.7h51.3v167.4h-51.3v-23.7c-5 7.8-12 14.1-20.8 18.9-8.9 4.8-19.3 7.2-31.1 7.2-13.6 0-26-3.5-37.2-10.6-11.2-7.1-20.1-17.2-26.6-30.3-6.5-13.1-9.8-28.2-9.8-45.5.2-17.2 3.4-32.3 9.9-45.3zm105 15.3c-7.1-7.4-15.8-11.1-25.9-11.1-10.2 0-18.9 3.7-26 11-7.1 7.3-10.6 17.4-10.6 30.1 0 12.8 3.5 23 10.6 30.5s15.8 11.2 26 11.2 18.8-3.7 25.9-11.1c7.1-7.4 10.6-17.5 10.6-30.3.1-12.8-3.5-22.9-10.6-30.3zm14.6-95.1-72.3 30.3v-35.4l72.3-34.8v39.9z" id="á"/><path id="n" class="st0" d="M1259.2 430.8c11.7 12.7 17.5 30.2 17.5 52.4V581h-51v-90.9c0-11.2-2.9-19.9-8.7-26.1-5.8-6.2-13.6-9.3-23.4-9.3-9.8 0-17.6 3.1-23.4 9.3-5.8 6.2-8.7 14.9-8.7 26.1V581h-51.3V413.6h51.3v22.2c5.2-7.4 12.2-13.2 21-17.5 8.8-4.3 18.7-6.5 29.7-6.5 19.7 0 35.3 6.3 47 19z"/><path class="st0" d="m1372.7 372-72.3 30.3v-35.4l72.3-34.8V372zm-9.3 41.7v167.4h-51.3V413.7h51.3z" id="í"/><g id="cifernik"><path class="st0" d="m603.3 448-5.9-7.4c.3 1.2.5 2.4.7 3.3l.9 4.9-2.2.4-1.9-10.8 2.9-.5 6 7.5c-.3-1.1-.5-2.4-.7-3.4l-.9-4.9 2.1-.4 1.9 10.8-2.9.5zm18.9 93.8-2.2.4c-.3-1.1-1-1.6-2.2-1.4-.9.2-1.4.7-1.3 1.5.2.9.8 1.3 2.6 1.4 2.5.1 3.7 1 4 2.8.4 2-1.3 3.5-3.4 3.9-2.6.5-4.5-.4-5.1-2.6l2.2-.4c.4 1.1 1.5 1.6 2.5 1.4 1-.2 1.7-.8 1.5-1.7-.2-.9-.8-1.3-2.5-1.4-2.3-.1-3.8-.7-4.2-2.6-.4-2 1.2-3.5 3.3-3.8 2.8-.6 4.2.7 4.8 2.5zm-58.9-44.7.5 2.9-8.6 3.4 9.3.4.5 2.9-10.3 4.6-.4-2.3 8.8-3.4-9.3-.3-.5-3 8.7-3.4-9.5-.3-.4-2.2 11.2.7zm92.3-7.5-1.4-7.8 10.8-1.9 1.3 7.6-1.7.3-1-5.5-2.8.5.9 5.1-1.7.3-.9-5.1-2.8.5 1 5.6-1.7.4zm-39.9 39.3c-19.3 3.4-37.7-9.5-41.1-28.7-3.4-19.3 9.5-37.7 28.7-41.1 19.3-3.4 37.7 9.5 41.1 28.7 3.5 19.3-9.4 37.7-28.7 41.1zm-12.1-68.6c-18.6 3.3-31 21.1-27.8 39.7 3.3 18.6 21.1 31 39.7 27.8 18.6-3.3 31-21.1 27.8-39.7-3.3-18.7-21.1-31.1-39.7-27.8z"/><path class="st0" d="m564.7 501.9 10.1-4.3.9 4.9zm52.8 36.9-4.3-10.1 4.8-.8zm36.9-52.8-10.1 4.3-.8-4.8zm-52.8-36.9 4.3 10.1-4.8.9zM590 478.2c-.8-.6-1.9-.4-2.5.4-.6.8-.4 1.9.4 2.5.8.6 1.9.4 2.5-.4.6-.9.4-2-.4-2.5zm3.7 35.3c-.6.8-.4 1.9.4 2.5.8.6 1.9.4 2.5-.4.6-.8.4-1.9-.4-2.5-.8-.6-1.9-.4-2.5.4zm35.4-3.7c.8.6 1.9.4 2.5-.4.6-.8.4-1.9-.4-2.5-.8-.6-1.9-.4-2.5.4-.6.8-.4 1.9.4 2.5zm-3.7-35.3c.6-.8.4-1.9-.4-2.5-.8-.6-1.9-.4-2.5.4-.6.8-.4 1.9.4 2.5.8.6 1.9.4 2.5-.4z"/><path transform="rotate(-19.033 597.227 458.453)" class="st0" d="M596.6 455.8h1.5v5.4h-1.5z"/><path transform="rotate(-28.03 591.873 460.857)" class="st0" d="M591.2 458.2h1.5v5.4h-1.5z"/><path transform="rotate(-37.029 586.949 464.022)" class="st0" d="M586.2 461.3h1.5v5.4h-1.5z"/><path transform="rotate(-46.029 582.494 467.895)" class="st0" d="M581.8 465.2h1.5v5.4h-1.5z"/><path transform="rotate(-55.026 578.812 472.478)" class="st0" d="M578.1 469.8h1.5v5.4h-1.5z"/><path transform="rotate(-64.03 575.793 477.554)" class="st0" d="M575.1 474.9h1.5v5.4h-1.5z"/><path transform="rotate(-73.027 573.67 483.043)" class="st0" d="M572.9 480.3h1.5v5.4h-1.5z"/><path transform="rotate(-82.027 572.396 488.789)" class="st0" d="M571.7 486.1h1.5v5.4h-1.5z"/><path transform="rotate(-1.025 572.008 494.634) scale(.99996)" class="st0" d="M569.4 493.9h5.4v1.5h-5.4z"/><path transform="rotate(-19.038 573.988 506.161)" class="st0" d="M571.4 505.5h5.4v1.5h-5.4z"/><path class="st0" d="m612.6 493.4-8.7-31.2 2.4 32.3 8.8 31.3z"/><path class="st0" d="m610 497.1 31.3-8.7-32.4 2.4-31.2 8.8z"/><path class="st0" d="m611.3 495.2 10.9-19.3-14.5 16.8-10.9 19.4z"/><path class="st0" d="m608.2 495.8 19.4 10.9-16.9-14.5-19.3-10.9z"/><path transform="rotate(-28.018 576.383 511.548)" class="st0" d="M573.8 510.9h5.4v1.5h-5.4z"/><path class="st0" d="M612.3 509.3c-8.4 1.5-16.5-4.2-18-12.6s4.2-16.5 12.6-18c8.4-1.5 16.5 4.2 18 12.6 1.5 8.4-4.2 16.5-12.6 18zm-5.4-30.1c-8.2 1.4-13.6 9.3-12.2 17.4 1.4 8.2 9.3 13.6 17.4 12.2 8.2-1.4 13.6-9.3 12.2-17.4-1.4-8.2-9.2-13.7-17.4-12.2z"/><path transform="rotate(-37.026 579.568 516.557)" class="st0" d="M576.9 515.8h5.4v1.5h-5.4z"/><path transform="rotate(-46.025 583.54 521.022)" class="st0" d="M580.8 520.3h5.4v1.5h-5.4z"/><path transform="rotate(-55.026 588.052 524.745)" class="st0" d="M585.4 524h5.4v1.5h-5.4z"/><path transform="rotate(-64.017 593.156 527.743)" class="st0" d="M590.4 527h5.4v1.5h-5.4z"/><path transform="rotate(-73.034 598.614 529.862)" class="st0" d="M595.9 529.1h5.4v1.5h-5.4z"/><path transform="rotate(-82.016 604.367 531.15)" class="st0" d="M601.7 530.4h5.4v1.5h-5.4z"/><path transform="matrix(.9998 -.01808 .01808 .9998 -9.51 11.12)" class="st0" d="M609.5 528.8h1.5v5.4h-1.5z"/><path transform="rotate(-19.031 621.687 529.386)" class="st0" d="M621.1 526.8h1.5v5.4h-1.5z"/><path transform="rotate(-28.018 627.242 527.088)" class="st0" d="M626.5 524.4h1.5v5.4h-1.5z"/><path transform="rotate(-37.026 632.139 523.922)" class="st0" d="M631.4 521.3h1.5v5.4h-1.5z"/><path transform="rotate(-46.029 636.555 520.022)" class="st0" d="M635.8 517.4h1.5v5.4h-1.5z"/><path transform="rotate(-55.026 640.32 515.504)" class="st0" d="M639.6 512.8h1.5v5.4h-1.5z"/><path transform="rotate(-64.02 643.308 510.399)" class="st0" d="M642.6 507.7h1.5v5.4h-1.5z"/><path transform="rotate(-73.027 645.475 504.958)" class="st0" d="M644.7 502.3h1.5v5.4h-1.5z"/><path transform="rotate(-82.027 646.724 499.203)" class="st0" d="M646 496.5h1.5v5.4H646z"/><path transform="rotate(-1.025 647.05 493.287) scale(.99996)" class="st0" d="M644.4 492.6h5.4v1.5h-5.4z"/><path transform="rotate(-19.015 645.095 481.779)" class="st0" d="M642.4 481h5.4v1.5h-5.4z"/><path transform="rotate(-28.036 642.751 476.383)" class="st0" d="M640 475.6h5.4v1.5H640z"/><path transform="rotate(-37.013 639.593 471.398)" class="st0" d="M636.8 470.6h5.4v1.5h-5.4z"/><path transform="rotate(-46.036 635.577 466.947)" class="st0" d="M632.9 466.2h5.4v1.5h-5.4z"/><path transform="rotate(-55.026 631.081 463.238)" class="st0" d="M628.4 462.5h5.4v1.5h-5.4z"/><path transform="rotate(-64.03 625.97 460.252)" class="st0" d="M623.3 459.5h5.4v1.5h-5.4z"/><path transform="rotate(-73.029 620.485 458.06)" class="st0" d="M617.8 457.3h5.4v1.5h-5.4z"/><path transform="rotate(-82.034 614.733 456.787)" class="st0" d="M612.1 456.1h5.4v1.5h-5.4z"/><path transform="rotate(-1.025 608.803 456.508) scale(.99996)" class="st0" d="M608.1 453.8h1.5v5.4h-1.5z"/><path class="st4" d="M608 485c-.1 0-.3.1-.4.1l-34.9-16.9 27.9 27v.4c.9 5 5.6 8.3 10.6 7.4.1 0 .3-.1.4-.1l34.9 16.9-27.9-27v-.4c-.9-5-5.7-8.3-10.6-7.4z"/><path class="st3" d="m607.6 485.1-34.9-16.9 27.9 27v.4c.4 2.5 1.8 4.5 3.8 5.9l10.5-14.9c-1.9-1.3-4.3-1.9-6.8-1.5-.3-.1-.4 0-.5 0z"/><path class="st5" d="m609.6 494-5.2 7.5c-.7-.5-1.4-1.1-1.9-1.8 2 2.5 5.3 3.9 8.7 3.3.1 0 .3-.1.4-.1l34.9 16.9-36.9-25.8z"/><path class="st0" d="m609.6 494 5.2-7.5-.9-.6c-.7-.4-1.5-.7-2.3-.9-1.2-.3-2.4-.3-3.6-.1-.1 0-.3.1-.4.1l-34.9-16.9 36.9 25.9z"/><circle class="st6" cx="609.6" cy="494" r="5.9"/><path class="st0" d="M609.1 488.7c1.8-.3 3.6.2 4.9 1.3-1.3-1.4-3.3-2.2-5.4-1.8-3.2.6-5.4 3.7-4.8 6.9.3 1.4 1 2.7 2 3.5-.7-.8-1.3-1.8-1.5-3-.6-3.3 1.6-6.4 4.8-6.9z"/><path class="st5" d="M612.3 488.7c1 .9 1.6 2 1.9 3.4.6 3.2-1.6 6.3-4.8 6.9-1.4.2-2.7 0-3.8-.6 1.3 1.2 3.1 1.8 5 1.4 3.2-.6 5.4-3.7 4.8-6.9-.3-1.8-1.5-3.3-3.1-4.2z"/></g><path class="st0" d="M585.2 354.8c-11.6 2.1-19.4 13.2-17.4 24.8 1.3 7.6 6.6 13.6 13.3 16.2 2 .8 4.2 1.3 6.5 1.4 1.7.1 3.3 0 5-.3 1.7-.3 3.3-.8 4.8-1.5 2.1-.9 4-2.1 5.6-3.6 5.4-4.8 8.3-12.2 6.9-19.8-1.9-11.5-13-19.2-24.7-17.2zm16.9 31.6c-2.5 3.1-6 5.4-10.3 6.1-4.2.7-8.4-.2-11.7-2.2-4-2.4-6.9-6.5-7.8-11.4-1.6-9.1 4.5-17.9 13.7-19.5s17.9 4.5 19.5 13.7c.9 4.8-.5 9.6-3.4 13.3z"/><path class="st0" d="M602.1 386.4c-2.5 3.1-6 5.4-10.3 6.1-4.1.7-8.2-.1-11.5-2.1.6.5 1.2.9 1.8 1.3 3.4 2.1 7.5 3 11.7 2.2 4.2-.7 7.8-3 10.3-6.1 2.9-3.6 4.3-8.5 3.4-13.4-.9-5-3.9-9.1-8-11.6 3 2.5 5.2 6 5.9 10.1 1 5-.4 9.8-3.3 13.5z"/><path class="st0" d="M587.3 356.3c5.4-.9 10.6.2 15 2.9-4.6-3.7-10.8-5.4-17-4.3-11.6 2.1-19.4 13.2-17.4 24.8 1.1 6.3 4.9 11.4 9.9 14.5-4-3.1-6.9-7.7-7.8-13.1-2.1-11.6 5.7-22.8 17.3-24.8z"/><path class="st7" d="M606.1 363.1c1.5 2.3 2.5 4.9 3 7.8 1.3 7.6-1.5 15-6.9 19.8-1.6 1.5-3.5 2.7-5.6 3.6-1.5.7-3.1 1.2-4.8 1.5-1.7.3-3.4.4-5 .3-2.3-.1-4.5-.6-6.5-1.4-3.7-1.5-7-4-9.4-7.2 2.5 3.8 6.1 6.8 10.3 8.5 2 .8 4.2 1.3 6.5 1.4 1.7.1 3.3 0 5-.3 1.7-.3 3.3-.8 4.8-1.5 2.1-.9 4-2.1 5.6-3.6 5.4-4.8 8.3-12.2 6.9-19.8-.5-3.4-1.9-6.5-3.9-9.1z"/><path class="st0" d="m601.9 385.1 2.5 14.1-22 3.9-2.5-14.1c5.8-5.8 14.6-7.4 22-3.9z"/><path class="st8" d="M601.9 385.1c-2.2-1-4.5-1.6-6.9-1.8l3 17 6.3-1.1-2.4-14.1z"/><path transform="rotate(-10.027 587.431 391.94)" class="st9" d="M586.5 385.5h1.8v12.8h-1.8z"/><path class="st0" d="M541.3 446.2c13.5-19.3 33.8-32.2 57-36.4 22.5-4 45.1.7 64.1 13.3-.6-.5-1.3-.9-1.9-1.4-19.3-13.5-42.8-18.7-66-14.6-23.2 4.1-43.5 17-57 36.4-13.5 19.3-18.7 42.8-14.6 66 4.1 23.2 17 43.5 36.4 57 .6.5 1.3.9 2 1.3-18.3-13.5-30.5-33.2-34.4-55.6-4.3-23.3.9-46.7 14.4-66z"/><path class="st0" d="M594.7 408.7c-47.1 8.3-78.6 53.4-70.3 100.5 8.3 47.1 53.4 78.6 100.5 70.3 47.1-8.3 78.6-53.4 70.3-100.5-8.3-47.1-53.4-78.6-100.5-70.3zM623.8 573c-43.5 7.7-85.2-21.4-92.9-65-7.7-43.5 21.4-85.2 65-92.9 43.5-7.7 85.2 21.4 92.9 65 7.6 43.6-21.5 85.2-65 92.9z"/><path class="st0" d="M665.8 414.1c-11.2-7.8-23.6-13.1-36.6-15.7-8.3-1.7-16.7-2.3-25.3-1.7-3.7.2-7.4.7-11.1 1.3-3.7.7-7.3 1.5-10.9 2.6-21.1 6.2-39.3 19.3-52.1 37.6-15.2 21.7-20.3 47.5-16.3 71.8v.2c4.2 25 18 48.3 40.3 63.9 21.4 14.9 47.3 20.7 73 16.1 25.7-4.5 48-18.8 63-40.2 30.9-44.1 20.1-105-24-135.9zm-141.3 95.1c-8.3-47.1 23.2-92.1 70.3-100.5 47.1-8.3 92.1 23.2 100.5 70.3 8.3 47.1-23.2 92.1-70.3 100.5-47.1 8.3-92.2-23.2-100.5-70.3z"/><path class="st10" d="M664.3 416.3c-20.8-14.5-46-20.1-70.9-15.7-25 4.4-46.7 18.3-61.3 39.1-14.5 20.8-20.1 46-15.7 70.9 4.4 25 18.3 46.7 39.1 61.3 20.8 14.5 46 20.1 70.9 15.7 25-4.4 46.7-18.3 61.3-39.1 30-42.9 19.5-102.2-23.4-132.2zm-38.2 169.5c-50.6 8.9-99-24.9-108-75.5-8.9-50.6 24.9-99 75.5-107.9 50.6-8.9 99 24.9 108 75.5 8.9 50.6-24.9 99-75.5 107.9z"/><path class="st11" d="M529.9 438.1c-15.2 21.7-20.3 47.5-16.3 71.8v.2c4.6 24.2 18.2 46.7 39.9 61.8.7.5 1.3.9 2 1.3-42.5-31.3-52.5-91.1-22.1-134.6 12.1-17.4 28.9-31.7 48.6-38.3-21.1 6.5-39.4 19.5-52.1 37.8z"/><circle class="st12" cx="609.9" cy="494.2" r="80.2"/></svg>