<?xml version="1.0" encoding="UTF-8"?><svg xmlns="http://www.w3.org/2000/svg" xmlns:xlink="http://www.w3.org/1999/xlink" version="1.1" viewBox="0 0 2875.3 704.1"><defs><style>.st0, .st1 {
        fill: none;
      }

      .st2 {
        fill: #f1cdb8;
      }

      .st3 {
        fill: #010101;
      }

      .st4 {
        fill: #d16614;
      }

      .st5 {
        opacity: .1;
      }

      .st5, .st6 {
        mix-blend-mode: multiply;
      }

      .st6 {
        opacity: .1;
      }

      .st7 {
        opacity: .5;
      }

      .st7, .st8, .st9, .st10 {
        mix-blend-mode: soft-light;
      }

      .st8 {
        opacity: .6;
      }

      .st9 {
        opacity: .7;
      }

      .st11 {
        isolation: isolate;
      }

      .st12 {
        clip-path: url(#clippath-1);
      }

      .st13 {
        clip-path: url(#clippath-3);
      }

      .st14 {
        clip-path: url(#clippath-4);
      }

      .st15 {
        clip-path: url(#clippath-2);
      }

      .st16 {
        clip-path: url(#clippath-7);
      }

      .st17 {
        clip-path: url(#clippath-6);
      }

      .st18 {
        clip-path: url(#clippath-9);
      }

      .st19 {
        clip-path: url(#clippath-8);
      }

      .st20 {
        clip-path: url(#clippath-5);
      }

      .st1 {
        stroke: #f1cdb8;
        stroke-miterlimit: 10;
        stroke-width: 35px;
      }

      .st21 {
        fill: #fff;
      }

      .st22 {
        fill: #009fd5;
      }

      .st23 {
        fill: #e30613;
      }

      .st24 {
        fill: #d4e7d5;
      }

      .st25 {
        fill: #691903;
      }

      .st26 {
        clip-path: url(#clippath);
      }</style><clipPath id="clippath"><path class="st0" d="M1707.7 536.6h38.9v22.8h-38.9z"/></clipPath><clipPath id="clippath-1"><path class="st0" d="M1681.4 513.8h37.2v22.8h-37.2z"/></clipPath><clipPath id="clippath-2"><path class="st0" d="M1710.5 532h8.8v9.9h-8.8z"/></clipPath><clipPath id="clippath-3"><path class="st0" d="M1688.2 420.9h24.3v27.7h-24.3z"/></clipPath><clipPath id="clippath-4"><path class="st0" d="M1676.8 413.5h30.7v35.1h-30.7z"/></clipPath><clipPath id="clippath-5"><path class="st0" d="M1679.8 421.1h34.9v30.2h-34.9z"/></clipPath><clipPath id="clippath-6"><path class="st0" d="M1701.2 438.9h8.2v15h-8.2z"/></clipPath><clipPath id="clippath-7"><path class="st0" d="M1692.6 440.8h3.6v11.4h-3.6z"/></clipPath><clipPath id="clippath-8"><path class="st0" d="M1630.4 452.9h167.7v167.7h-167.7z"/></clipPath><clipPath id="clippath-9"><path class="st0" d="M1628 454.1h61.5v152.6H1628z"/></clipPath></defs><g class="st11"><g id="Layer_1"><path class="st21" d="M630.3 21.8H718l35.1 131.7 12.6 52.2 12.2-52.2 35.9-131.7h87.3l37 262.7h-71.7l-12.6-129.8-4.1-53.3-13.7 53.3-34 129.8h-77l-34.8-129.8-13.7-53.3-3.7 53.3L661 284.5h-67.3l36.6-262.7zM1058.9 165v-8.9c0-13-6.7-21.5-21.1-21.5s-34 3.3-63.3 15.5L966 105c34-11.5 61-16.6 89.9-16.6 45.9 0 69.6 24.8 69.6 76.6v57.7c0 12.9 5.2 17.8 21.8 17.8l-6.7 46.2c-41.4 5.6-61.4-3-71.8-22.6-17.8 17.8-40.7 24.8-58.5 24.8-31.4 0-57-20.3-57-54.4s32.9-64 105.4-69.6m-24.5 79.3c8.9 0 19.2-6.3 24.8-10.7v-35.1c-29.6 3-40 14.4-40 28.9-.4 11.1 5.5 17 15.2 17M1167 99.5l65.1-11.1 1.8 51.8c10-30 31.4-49.9 62.2-55.1l10.4 68.8c-29.6-.7-55.9 8.5-72.9 30v100.6H1167v-185Zm243.3-64.7v58.1h44.4l-3 48.1h-41.4v72.9c0 19.6 5.9 24 17.4 24s18.5-1.9 28.1-3.7l6.7 48.1c-18.9 4.4-35.9 6.7-50.7 6.7-52.2 0-68.1-34.8-68.1-72.5V141h-29.6V99.2l29.6-6.3 11.5-50.7 55.1-7.4ZM1518.8 0c21.1 0 37.4 15.5 37.4 35.9s-16.3 35.9-37.4 35.9-37.4-15.5-37.4-35.9S1497.8 0 1518.8 0m-33.3 99.5 66.6-11.1v196.1h-66.6v-185Zm103.1 0 65.1-11.1 1.5 24c21.5-15.2 45.1-24 65.9-24 31.8 0 56.6 21.5 56.6 64.7v131.3h-66.6v-121c0-17.4-8.5-23.7-21.8-23.7s-22.6 4.8-34 12.6v132.1h-66.6V99.5Zm290.9-11.1v125.4c0 17 8.5 23.7 21.8 23.7s22.6-4.8 34-12.9V99.5l66.6-11.1v196.1h-63.6l-3-19.6c-21.5 14.8-45.1 24-65.9 24-31.8 0-56.6-21.5-56.6-64.7V99.5l66.6-11.1Zm161.4 141.7c20.3 8.1 48.8 15.9 68.4 15.9s21.5-5.2 21.5-15.2-9.6-12.2-20-14.4c-31.1-5.9-79.9-17-79.9-66.6s37-61.4 79.5-61.4 50.7 5.5 70.7 13l-8.1 44.8c-20.4-8.1-45.9-15.2-62.9-15.2s-19.2 4.4-19.2 13.3 8.9 12.2 19.2 14.8c29.6 5.5 80.7 17 80.7 66.2s-42.6 63.6-85.1 63.6-53.3-6.7-72.5-14.4l7.8-44.4Z"/><path class="st4" d="M2678.6 514.7c28.4 18.2 63.3 26 96.7 21.4-6-7.4-3.4-19 2.9-26.1 6.3-7.2 15.3-11.2 23.7-15.7 31.9-17.3 58.1-45 73.4-77.9-12.7.5-25.3 1-38 1.5-4.1.2-8.5.3-12.2-1.7-8.4-4.7-7.7-17-4.6-26.2 6.6-19.8 18.6-37.8 34.4-51.5-10.2.4-20.3-6.2-24.1-15.7-2.1-5.2-2.3-10.9-2.6-16.5-1-24.5-2.1-49-3.1-73.5-35.4 22-69.8 45.6-103 70.9-2.1 1.6-4.3 3.3-7 3.7-8 1.3-12.6-8.6-14.9-16.4-11.4-38.2-35.4-72.6-67.4-96.5-4.5-3.3-9.8-6.6-15.3-5.5-4.9 1-8.5 5.3-10.6 9.8-7 14.8-3.2 32.3-5.8 48.4-2.7 16.1-19.3 33-33.5 24.8 4.3 22.6 8.7 45.2 13 67.9 2.2 11.4-90.7-17.7-96.3-18.8-58.1-10.9-2.3 37.8-5.2 64.2-1 9-6.9 17.9-4 26.6 2.3 7.2 9.8 11.2 16.4 14.9 12 6.8 23.2 15.1 33.2 24.6 3.4 3.3 6.9 7 7.9 11.6 4.7 22.2-44.6 26.5-39.8 48.7 1.3 5.9 6.4 10 11.3 13.5 24.7 17.2 53.2 28.9 82.9 33.9-10 8.2-16.5 20.5-17.9 33.3-.3 3.2-.2 6.9 2.3 9.1 2.7 2.3 6.8 1.7 10.2.7 43.5-12 80.5-45.6 96.6-87.8.2.1.4.2.5.4Z"/><path class="st25" d="M2787 653.2v.3c-.3 1.9-.9 3.3-1.3 3.1-34.2-17.1-65.9-53.5-91.8-105.2-24.7-49.3-37.5-138.2-49.8-224.2-1.2-8.5-2.4-16.9-3.7-25.3-.2-1.3 0-3.5.5-4.9.5-1.4 1-1.5 1.2-.3 1.2 8.4 2.4 16.9 3.7 25.3 12.3 85.6 25 174 49.5 222.9 25.8 51.5 57.4 87.8 91.5 104.8.4.2.5 1.8.3 3.6Z"/><path class="st21" d="M2602.8 453c23.1 10.3 38.3 13.2 50.4 13.2 16.1 0 25-7.8 25-18.5 0-9.2-6.8-17.8-23.4-17.8H2632l-.2-34.4h17.4c15.4-.1 23-9.4 23-18.8 0-9.2-6.5-16.8-20.9-16.8-10.9 0-22.6 2.1-46.8 12.4l-7.1-34.4c19.3-8.5 40.1-12.8 61.5-12.9 37.2-.2 59.6 17.6 59.7 45.9s-8.8 31-24.4 39.8c17.6 7.1 30.6 21.2 30.7 41.3.1 30.3-24.3 49-66 49.2-21.6 0-45.7-4.8-63.1-13.1l7-35ZM174.4 506.5c-9 33-19.5 73.5-21.8 76.9-7.9 12.8-52.9 36-73.1 36S0 563.9 0 552.6s26.6-27 34.9-27 4.9 1.5 6 3.8c8.6 16.5 33.4 55.1 42 55.1s14.3-6.8 16.5-11.6c1.9-3.8 15-51.8 22.9-81.4 9-32.6 15.4-59.3 19.5-71.3 4.5-13.1 11.3-18.4 12-19.1-1.5.4-35.3 9-58.9 22.1-3.4 1.9-4.5 5.6-4.5 9 0 8.6 7.5 33 7.5 38.3s-19.5 16.1-25.5 16.1-35.3-39-35.3-48.4 31.1-50.3 42.8-52.5c25.1-4.9 49.5-9.4 88.1-18.8 4.5-1.1 17.6-13.9 24-13.9s31.9 19.1 31.9 24.8-17.3 17.3-20.6 27.4c-3.4 9-11.6 37.9-20.6 70.5 5.3-2.6 9-5.6 11.3-8.3 26.3-32.6 57-82.5 72-99.4 3-3.8 28.1-15 33-15s24 23.6 24 27.8-15 11.6-18 14.3c-12.4 10.9-52.9 63-77.6 87-1.9 1.9-4.1 3.4-7.1 5.3 3.4 3.4 6.4 6.8 8.3 11.6 10.9 29.3 16.5 66.8 27.4 87.8 4.5 8.3 19.9 11.3 19.9 15.4s-12 17.3-24 17.3-42.8-10.5-49.1-22.5c-10.9-21-8.3-57.8-14.6-81.4-1.1-4.5-3.4-8.3-6.8-11.3l-6.8 2.2Zm256.9 80.6c11.3 0 31.1-22.5 49.5-56.3 0 0 3.4-6.8 8.3-6.8s12.8 6 12.8 10.5-4.9 13.1-4.9 13.1c-20.6 37.5-42.8 71.6-69.8 71.6s-54.4-15.8-54.4-32.6c0-24 21-84 21-98.3s-3.4-7.5-7.5-7.5c-7.9 0-22.5 6.4-27.4 18.4-10.1 24.8-27 100.5-29.3 111.4-1.5 4.9-7.5 8.6-14.3 8.6s-35.6-9.4-35.6-19.5 28.5-123.4 36.4-148.9c2.2-5.3 9.8-7.9 15.4-7.9 8.6 0 25.1 18.4 25.1 18.4s34.9-18.4 56.3-18.4 38.6 16.5 38.6 30.4-23.3 89.6-23.3 109.5 1.1 4.1 3 4.1"/><path class="st21" d="M501.5 451c1.5-5.3 6.8-7.9 15-7.9s37.5 17.6 37.5 24.8-30 90.4-30 116.6 2.6 3.4 3.8 3.4c10.9 0 30.4-23.3 49.5-57 0 0 3-6.8 7.9-6.8s12.8 6 12.8 10.5-5.3 13.1-5.3 13.1c-20.3 37.5-42.8 71.6-69.8 71.6s-54.4-15.8-54.4-32.6 26.6-112.5 33-135.8m18-40.4c0-15 9.4-42.4 24.8-42.4s29.6 7.1 29.6 19.5-9.8 42.4-24.8 42.4-29.6-7.1-29.6-19.5"/><path class="st21" d="M585.1 554.5c-5.3 0-13.1-6-13.1-10.1s3.4-9.4 5.3-13.5c11.3-25.1 27-58.5 27-58.5 11.6-24.8 18.4-29.3 26.6-29.3 13.9 0 57.8 5.2 66.8 5.2s23.6-5.2 30-5.2 16.1 17.3 16.1 26.6-58.5 61.5-93.8 102c16.9 0 43.1 9 52.5 9 15.4 0 33.8-16.1 52.1-49.9 0 0 3-6.8 7.9-6.8s13.1 6 13.1 10.5-4.9 13.1-4.9 13.1c-21 37.5-43.9 71.6-76.9 71.6s-51.8-4.9-58.9-4.9-22.9 4.9-29.3 4.9-17.3-17.3-17.3-22.5c0-9.8 62.6-73.1 89.6-105-14.3-3.8-26.3-5.3-34.5-5.3s-15.4 1.9-27 20.3c-6.4 10.1-13.9 23.6-23.6 41.6-2.3 4.1-3.4 6-7.9 6"/><path class="st21" d="M889.3 587.1c11.3 0 31.1-22.5 49.5-56.3 0 0 3.4-6.8 8.3-6.8s12.8 6 12.8 10.5-4.9 13.1-4.9 13.1c-20.6 37.5-42.8 71.6-69.8 71.6s-54.4-15.8-54.4-32.6c0-24 21-84 21-98.3s-3.4-7.5-7.5-7.5c-7.9 0-22.5 6.4-27.4 18.4-10.1 24.8-27 100.5-29.3 111.4-1.5 4.9-7.5 8.6-14.3 8.6s-35.6-9.4-35.6-19.5 28.5-123.4 36.4-148.9c2.2-5.3 9.8-7.9 15.4-7.9 8.6 0 25.1 18.4 25.1 18.4s34.9-18.4 56.3-18.4 38.6 16.5 38.6 30.4-23.3 89.6-23.3 109.5 1.1 4.1 3 4.1"/><path class="st21" d="M1049.4 559s6.8-9.4 11.3-9.4 15.8 8.6 15.8 13.1-8.3 15.4-8.3 15.4c-15 19.9-40.1 41.3-72 41.3s-66.4-22.5-66.4-51.8c0-42.4 39.4-124.5 79.1-124.5s58.1 22.1 58.1 38.3-26.3 78.4-51.4 78.4-28.1-3.4-28.1-3.4-1.5 3.4-1.5 9.8c0 10.5 9.8 19.9 17.3 19.9 17.6 0 32.6-8.6 46.1-27m-21.3-76.6c0-1.1-3-4.1-5.6-4.1-12 0-30.8 37.1-34.1 52.9 25.9-4.1 39.8-39 39.8-48.8m93.6-92.7c0 4.9-3.4 7.5-6.4 9.8-23.6 15.8-63.8 40.1-67.9 40.1s-13.5-10.9-13.5-13.9 2.6-7.5 4.9-10.1c9-9.4 36.8-45 41.6-51.4 3.8-4.1 6.4-7.1 10.1-7.1 6.4 0 31.1 26.6 31.1 32.6"/><path class="st2" d="m677.4 408.1-69-71-12.5 11.6 60.5 66.4s8 8.7 21 8.7v-15.7Z"/><path class="st21" d="m677.4 408.1-69-71s24-7 49 18c0 0 35 31 20 53"/><path class="st2" d="m677.4 408.1 69-71 12.5 11.6-60.5 66.4s-8 8.7-21 8.7v-15.7Z"/><path class="st21" d="m677.4 408.1 69-71s-24-7-49 18c0 0-35 31-20 53"/><path class="st23" d="M735.8 302.2s-6.4 10.9-23.4 17.9c0 0-49 17.6-35 73.3 0 0-3-42.3 38-61.3 0 0 22-8 31-21.7l-10.6-8.2Z"/><path class="st21" d="M1233 619.7c-24.4 0-41.8-11.8-41.8-11.8s-17.4 70.3-20 88.1c-1.1 4.8-10 8.1-15.9 8.1-9.2 0-32.6-10.7-32.6-20.3s44-184.6 57.7-232.4c1.1-5.2 9.2-7.8 14.4-7.8 7.4 0 27 18.1 27 18.1s21.8-18.1 43.3-18.1 47.4 20.7 47.4 39.6-7 52.5-20 80.7c0 0 2.6 1.5 6.3 1.5 25.9 0 42.5-35.1 42.5-35.1s3.3-6.7 7.8-6.7 13.3 5.9 13.3 10.4-5.2 13-5.2 13-22.2 45.5-69.2 45.5-11.1-.4-11.1-.4c-11.1 14.4-26.6 27.8-44 27.8m-11.4-33.8c1.5 0 3.7-1.5 5.2-3-6.7-3-11.1-7-11.1-11.1 0-7.8 17.4-26.3 25.2-26.3s3 .4 4.4.4c8.1-22.6 12.6-44.4 12.6-58.5s-4.4-8.1-6.7-8.1c-9.2 0-25.5 10.7-31.1 27-7.4 20.7-16.7 51.4-16.7 63.6s12.9 15.9 18.1 15.9"/><path class="st21" d="M1429.5 593.1s-33.3 24.4-48.8 24.4c-22.9 0-51.4-22.9-51.4-38.5s24.8-105.1 32.2-128.4c2.2-5.2 6.7-7 10-7 10.7 0 39.6 17 39.6 23.7s-.7 6.7-1.5 8.9c-2.6 9.6-25.2 84.4-25.2 101.4s1.5 3.7 3 3.7c14.8 0 38.1-25.5 41.4-37.4 9.2-30 21.5-77.7 26.3-93.2 1.5-5.2 4.8-7 9.6-7 11.8 0 39.6 17 39.6 23.7s-.7 6.7-1.5 8.9c-3.3 9.6-26.6 85.8-26.6 105.4s1.5 4.1 3 4.1c11.8 0 30.7-22.2 48.8-55.5 0 0 3.3-6.7 8.1-6.7s12.6 5.9 12.6 10.4-4.8 12.9-4.8 12.9c-20.7 37-42.2 70.7-68.8 70.7s-42.9-13.7-45.5-24.4"/><path class="st21" d="M1602.3 444.4h27.4c2.2 0 4.4 1.1 4.4 3.3 0 6.7-8.1 25.5-14.1 25.5h-25.5c-12.2 41.8-25.2 89.5-25.2 98s10.7 14.4 13.3 14.4c12.2 0 31.1-22.2 49.2-55.5 0 0 3.3-6.7 8.1-6.7s12.6 5.9 12.6 10.4-4.8 12.9-4.8 12.9c-20.3 37-42.2 70.7-69.2 70.7s-63.3-19.2-63.3-37.7 12.2-58.5 24.8-106.6h-12.6c-1.9 0-4.1-1.5-4.1-3.7 0-4.4 8.5-25.2 15.2-25.2h9.2c7-25.9 12.2-44.4 14.8-52.5 1.5-5.2 4.8-8.1 9.6-8.1 12.9 0 39.6 18.1 39.6 24.8s-1.1 8.1-1.5 8.9l-8.1 27Zm328.2 153.5c-10.7 0-30-1.8-45.5-5.6-18.1 16.7-36.6 25.2-52.2 25.2s-38.1-14.8-38.1-32.9 25.9-109.1 34-133.2c2.2-5.2 8.1-7.8 13.7-7.8 10.7 0 36.3 17.8 36.3 24.8 0 11.8-27.7 85.8-27.7 108.8s3 4.8 4.8 4.8 4.8-3.3 4.8-3.3c-1.1-1.1-1.8-2.6-1.8-4.8 0-7.8 14.1-26.6 23.3-26.6 14.8-22.9 29.6-54 37.4-95.5 1.1-5.6 5.9-8.1 12.6-8.1 11.1 0 31.8 19.6 31.8 30 0 19.2-19.6 54.8-47.7 89.2 5.9 4.1 9.6 4.8 13.3 4.8 24.4 0 44.4-37.4 44.4-37.4s3.7-6.7 8.1-6.7 13 5.9 13 10.4-5.2 12.9-5.2 12.9-26.3 51.1-59.2 51.1"/><path class="st21" d="M2168.4 523.5c4.8 0 12.6 5.9 12.6 10.4s-4.8 13-4.8 13c-20.4 37-42.2 70.7-68.8 70.7s-45.1-11.5-50.3-21.8c0 0-21.1 21.8-41.1 21.8s-51.4-23.3-51.4-43.3c0-48.5 42.2-130.6 81.4-130.6s48.8 20.4 48.8 20.4c13.3 0 35.5 4.4 35.5 13.7s-25.2 72.9-25.2 102.5 3 6.3 5.9 6.3c12.9 0 31.1-22.9 49.2-56.2 0 0 3.3-6.7 8.1-6.7m-108.7-43.5c-12.9 0-42.6 61.4-42.6 94s4.1 8.1 7.4 8.1 18.5-6.3 28.9-27.8c7.4-15.5 19.6-54.8 19.6-65.1s-7.4-9.2-13.3-9.2"/><path class="st21" d="M2293.1 585.7c11.1 0 30.7-22.2 48.8-55.5 0 0 3.3-6.7 8.1-6.7s12.6 5.9 12.6 10.4-4.8 12.9-4.8 12.9c-20.4 37-42.2 70.7-68.8 70.7s-53.6-15.5-53.6-32.2c0-23.7 20.7-82.9 20.7-96.9s-3.3-7.4-7.4-7.4c-7.8 0-22.2 6.3-27 18.1-10 24.4-26.6 99.2-28.9 109.9-1.5 4.8-7.4 8.5-14.1 8.5s-35.2-9.2-35.2-19.2 28.1-121.7 35.9-146.9c2.2-5.2 9.6-7.8 15.2-7.8 8.5 0 24.8 18.1 24.8 18.1s34.4-18.1 55.5-18.1 38.1 16.3 38.1 30-22.9 88.4-22.9 108 1.1 4.1 3 4.1"/><path class="st21" d="M2362.2 451.4c1.5-5.2 6.7-7.8 14.8-7.8s37 17.4 37 24.4-29.6 89.2-29.6 115.1 2.6 3.3 3.7 3.3c10.7 0 30-22.9 48.8-56.2 0 0 3-6.7 7.8-6.7s12.6 5.9 12.6 10.4-5.2 13-5.2 13c-20 37-42.2 70.7-68.8 70.7s-53.6-15.5-53.6-32.2 26.3-111 32.6-133.9m17.7-40.1c0-14.8 9.2-41.8 24.4-41.8s29.2 7 29.2 19.2-9.6 41.8-24.4 41.8-29.2-7-29.2-19.2"/><path class="st21" d="M2548.1 557.9s6.7-9.2 11.1-9.2 15.5 8.5 15.5 13-8.1 15.2-8.1 15.2c-14.8 19.6-39.6 40.7-71 40.7s-65.5-22.2-65.5-51.1c0-41.8 38.8-122.8 78.1-122.8s57.3 21.8 57.3 37.7-25.9 77.3-50.7 77.3-27.7-3.3-27.7-3.3-1.5 3.3-1.5 9.6c0 10.4 9.6 19.6 17 19.6 17.4 0 32.2-8.5 45.5-26.6m-21.1-75.5c0-1.1-3-4.1-5.6-4.1-11.8 0-30.3 36.6-33.7 52.2 25.5-4.1 39.2-38.5 39.2-48.1m-818.5 13.6-5.2-6.5c.2 1 .4 2.1.6 2.9l.8 4.3-1.9.3-1.7-9.5 2.5-.4 5.3 6.6c-.2-1-.5-2.2-.6-3l-.8-4.4 1.9-.3 1.7 9.5-2.6.5Zm16.7 82.8-1.9.3c-.3-.9-.9-1.5-1.9-1.3-.8.1-1.3.6-1.1 1.4.1.8.7 1.1 2.3 1.2 2.2.1 3.3.9 3.6 2.4.3 1.8-1.1 3.1-3 3.4-2.3.4-3.9-.3-4.5-2.3l1.9-.3c.4 1 1.3 1.4 2.2 1.2.9-.2 1.5-.7 1.3-1.5-.1-.8-.7-1.2-2.2-1.3-2-.1-3.4-.6-3.7-2.3-.3-1.7 1.1-3.1 2.9-3.4 2.3-.4 3.5.7 4 2.4m-51.9-39.4.4 2.5-7.6 3.1 8.2.3.5 2.5-9.1 4.1-.4-2.1 7.8-3-8.2-.3-.5-2.7 7.7-3-8.4-.3-.4-1.9 10 .8zm81.5-6.6-1.2-6.9 9.5-1.7 1.2 6.8-1.5.2-.8-4.8-2.5.5.8 4.4-1.5.3-.8-4.5-2.5.5.8 4.9-1.5.3zm-35.2 34.7c-17 3-33.3-8.4-36.3-25.4s8.4-33.3 25.4-36.3 33.3 8.4 36.3 25.4-8.4 33.3-25.4 36.3m-10.7-60.6c-16.4 2.9-27.4 18.6-24.5 35 2.9 16.4 18.6 27.4 35 24.5 16.4-2.9 27.4-18.6 24.5-35-2.9-16.4-18.6-27.4-35-24.5"/><path class="st21" d="m1674.3 543.6 9-3.7.7 4.2-9.7-.5zm46.7 32.7-3.8-9 4.2-.7-.4 9.7zm32.6-46.7-9 3.8-.7-4.2 9.7.4zM1707 497l3.7 9-4.2.7.5-9.7zm-10.3 25.7c-.7-.5-1.7-.3-2.2.4-.5.7-.3 1.7.4 2.2.7.5 1.7.3 2.2-.4.5-.7.3-1.7-.4-2.2m3.3 31.2c-.5.7-.3 1.7.4 2.2.7.5 1.7.3 2.2-.4.5-.7.3-1.7-.4-2.2-.7-.5-1.7-.3-2.2.4m31.2-3.3c.7.5 1.7.3 2.2-.4.5-.7.3-1.7-.4-2.2-.7-.5-1.7-.3-2.2.4-.5.7-.3 1.7.4 2.2m-3.3-31.2c.5-.7.3-1.7-.4-2.2-.7-.5-1.7-.3-2.2.4-.5.7-.3 1.7.4 2.2.7.5 1.7.3 2.2-.4"/><path class="st21" transform="rotate(-19 1706.384 505.781)" d="M1702.5 502.9h1.3v4.7h-1.3z"/><path class="st21" transform="rotate(-28 1699.972 507.562)" d="M1697.7 505h1.3v4.7h-1.3z"/><path class="st21" transform="rotate(-37 1695.645 510.195)" d="M1693.4 507.8h1.3v4.7h-1.3z"/><path class="st21" transform="rotate(-46 1691.264 513.545)" d="M1689.5 511.3h1.3v4.7h-1.3z"/><path class="st21" transform="rotate(-55 1687.517 517.483)" d="M1686.2 515.3h1.3v4.7h-1.3z"/><path class="st21" transform="rotate(-64 1685.032 521.88)" d="M1683.5 519.8h1.3v4.7h-1.3z"/><path class="st21" transform="rotate(-73 1682.76 526.786)" d="M1681.6 524.6h1.3v4.7h-1.3z"/><path class="st21" transform="rotate(-82 1681.566 531.813)" d="M1680.5 529.7h1.3v4.7h-1.3z"/><path class="st21" transform="rotate(-1 1731.318 553.717)" d="M1678.5 536.6h4.7v1.3h-4.7z"/><path class="st21" transform="rotate(-19 1687.033 548.002)" d="M1680.3 546.8h4.7v1.3h-4.7z"/><path class="st21" d="m1716.7 536.2-7.8-27.6 2.2 28.5 7.8 27.6-2.2-28.5z"/><path class="st21" d="m1714.4 539.4 27.6-7.7-28.6 2.2-27.6 7.7 28.6-2.2z"/><path class="st21" d="m1715.5 537.8 9.6-17.2-12.8 14.9-9.6 17.1 12.8-14.8z"/><path class="st21" d="m1712.8 538.2 17.1 9.6-14.9-12.7-17.1-9.6 14.9 12.7z"/><path class="st21" transform="rotate(-28 1686.466 552.334)" d="M1682.3 551.6h4.7v1.3h-4.7z"/><path class="st21" d="M1716.3 550.2c-7.5 1.3-14.6-3.7-15.9-11.1-1.3-7.5 3.7-14.6 11.1-15.9 7.5-1.3 14.6 3.7 15.9 11.1 1.3 7.5-3.7 14.6-11.1 15.9m-4.7-26.6c-7.2 1.3-12 8.2-10.8 15.4 1.3 7.2 8.2 12 15.4 10.8 7.2-1.3 12-8.2 10.8-15.4-1.3-7.2-8.2-12-15.4-10.8"/><path class="st21" transform="rotate(-37 1689.414 556.63)" d="M1685.1 555.9h4.7v1.3h-4.7z"/><path class="st21" transform="rotate(-46 1692.233 560.388)" d="M1688.6 559.8h4.7v1.3h-4.7z"/><path class="st21" transform="rotate(-55 1695.724 563.628)" d="M1692.6 563.1h4.7v1.3h-4.7z"/><path class="st21" transform="rotate(-64 1699.749 566.345)" d="M1697.1 565.8h4.7v1.3h-4.7z"/><path class="st21" transform="rotate(-73 1705.15 568.033)" d="M1701.9 567.7h4.7v1.3h-4.7z"/><path class="st21" transform="rotate(-82 1709.635 569.34)" d="M1707 568.8h4.7v1.3h-4.7z"/><path class="st21" transform="rotate(-1 1742.577 576.734)" d="M1713.9 567.4h1.3v4.7h-1.3z"/><path class="st21" transform="rotate(-19 1727.858 568.348)" d="M1724.1 565.6h1.3v4.7h-1.3z"/><path class="st21" transform="rotate(-28 1730.787 565.94)" d="M1728.9 563.5h1.3v4.7h-1.3z"/><path class="st21" transform="rotate(-37 1735.25 563.16)" d="M1733.3 560.7h1.3v4.7h-1.3z"/><path class="st21" transform="rotate(-46 1739.025 559.536)" d="M1737.2 557.3h1.3v4.7h-1.3z"/><path class="st21" transform="rotate(-55 1742.207 555.475)" d="M1740.5 553.3h1.3v4.7h-1.3z"/><path class="st21" transform="rotate(-64 1744.354 551.049)" d="M1743.1 548.8h1.3v4.7h-1.3z"/><path class="st21" transform="rotate(-73 1746.233 546.148)" d="M1745 543.9h1.3v4.7h-1.3z"/><path class="st21" transform="rotate(-82 1747.255 541.05)" d="M1746.1 538.9h1.3v4.7h-1.3z"/><path class="st21" transform="rotate(-1 1800.071 554.317)" d="M1744.7 535.4h4.7v1.3h-4.7z"/><path class="st21" transform="rotate(-19 1746.014 525.928)" d="M1742.9 525.2h4.7v1.3h-4.7z"/><path class="st21" transform="rotate(-28 1745.145 521.168)" d="M1740.8 520.4h4.7v1.3h-4.7z"/><path class="st21" transform="rotate(-37 1740.685 516.624)" d="M1738.1 516h4.7v1.3h-4.7z"/><path class="st21" transform="rotate(-46 1738.224 512.626)" d="M1734.6 512.1h4.7v1.3h-4.7z"/><path class="st21" transform="rotate(-55 1733.758 509.326)" d="M1730.6 508.8h4.7v1.3h-4.7z"/><path class="st21" transform="rotate(-64 1728.727 506.794)" d="M1726.1 506.2h4.7v1.3h-4.7z"/><path class="st21" transform="rotate(-73 1724.747 504.525)" d="M1721.3 504.3h4.7v1.3h-4.7z"/><path class="st21" transform="rotate(-82 1718.87 503.652)" d="M1716.2 503.2h4.7v1.3h-4.7z"/><path class="st21" transform="rotate(-1 1743.127 513.71)" d="M1712.7 501.1h1.3v4.7h-1.3z"/><path class="st22" d="M1712.6 528.7h-.3l-30.9-15 24.6 23.9v.3c.8 4.4 5 7.3 9.3 6.5h.3l30.9 15-24.6-23.9v-.3c-.8-4.4-5-7.3-9.3-6.5"/><path class="st23" d="m1712.2 528.8-30.9-15 24.6 23.9v.3c.4 2.2 1.6 4 3.3 5.2l9.2-13.2c-1.7-1.2-3.8-1.7-6-1.3h-.3"/><g class="st5"><g class="st26"><path class="st3" d="m1714 536.6-4.6 6.6c-.6-.4-1.2-1-1.7-1.6 1.8 2.2 4.7 3.5 7.7 2.9h.3l30.9 15-32.6-22.8Z"/></g></g><g class="st10"><g class="st12"><path class="st21" d="m1714 536.6 4.6-6.6c-.3-.2-.5-.3-.8-.5-.6-.3-1.3-.6-2-.8-1-.2-2.1-.3-3.2 0h-.3l-30.9-15 32.6 22.8Z"/></g></g><path class="st24" d="M1708.8 537.6c.5 2.9 3.2 4.8 6.1 4.3 2.9-.5 4.8-3.2 4.3-6.1-.5-2.9-3.2-4.8-6.1-4.3-2.9.5-4.8 3.2-4.3 6.1"/><path class="st21" d="M1713.5 531.9c1.6-.3 3.1.2 4.3 1.1-1.2-1.3-2.9-2-4.8-1.6-2.9.5-4.8 3.2-4.3 6.1.2 1.3.9 2.3 1.8 3.1-.7-.7-1.1-1.6-1.3-2.6-.5-2.9 1.4-5.6 4.3-6.1"/><g class="st5"><g class="st15"><path class="st3" d="M1716.4 532c.8.8 1.5 1.8 1.7 3 .5 2.9-1.4 5.6-4.3 6.1-1.2.2-2.4 0-3.4-.5 1.2 1 2.8 1.6 4.4 1.3 2.9-.5 4.8-3.2 4.3-6.1-.3-1.7-1.3-3-2.7-3.7"/></g></g><path class="st21" d="M1692.5 413.7c-10.3 1.8-17.2 11.7-15.3 21.9 1.2 6.7 5.8 12 11.7 14.3 1.8.7 3.7 1.2 5.7 1.3 1.5 0 3 0 4.5-.3s2.9-.7 4.3-1.3c1.8-.8 3.5-1.9 5-3.2 4.8-4.2 7.3-10.8 6.1-17.5-1.8-10.3-11.7-17.2-21.9-15.3m14.8 28c-2.2 2.8-5.3 4.8-9.1 5.4-3.7.7-7.4-.1-10.4-2-3.5-2.1-6.1-5.7-6.9-10.1-1.4-8.1 4-15.8 12.1-17.2 8.1-1.4 15.8 4 17.2 12.1.8 4.4-.4 8.6-3 11.8"/><g class="st10"><g class="st13"><path class="st21" d="M1707.4 441.6c-2.2 2.8-5.3 4.8-9.1 5.4-3.6.6-7.2-.1-10.2-1.9.5.4 1.1.8 1.6 1.2 3 1.8 6.6 2.6 10.4 2 3.7-.7 6.9-2.7 9.1-5.4 2.6-3.2 3.8-7.5 3-11.8-.8-4.4-3.5-8.1-7.1-10.2 2.7 2.2 4.6 5.3 5.2 8.9.8 4.4-.4 8.6-3 11.8"/></g></g><g class="st10"><g class="st14"><path class="st21" d="M1694.3 415c4.7-.8 9.4.2 13.2 2.5-4.1-3.2-9.5-4.8-15-3.8-10.3 1.8-17.2 11.7-15.3 21.9 1 5.5 4.3 10.1 8.8 12.8-3.5-2.8-6.1-6.8-6.9-11.5-1.8-10.3 5.1-20.1 15.3-21.9"/></g></g><g class="st5"><g class="st20"><path class="st21" d="M1710.9 421.1c1.3 2 2.2 4.4 2.7 6.9 1.2 6.7-1.3 13.3-6.1 17.5-1.5 1.3-3.1 2.4-5 3.2-1.3.6-2.8 1-4.3 1.3-1.5.3-3 .3-4.5.3-2-.1-3.9-.6-5.7-1.3-3.3-1.3-6.2-3.5-8.3-6.3 2.2 3.4 5.4 6 9.1 7.5 1.8.7 3.7 1.2 5.7 1.3 1.5 0 3 0 4.5-.3s2.9-.7 4.3-1.3c1.8-.8 3.5-1.9 5-3.2 4.8-4.2 7.3-10.8 6.1-17.5-.5-3-1.8-5.7-3.5-8"/></g></g><path class="st21" d="m1707.2 440.5 2.2 12.4-19.4 3.4-2.2-12.4c5.1-5.1 12.9-6.5 19.4-3.4Z"/><g class="st6"><g class="st17"><path class="st21" d="M1707.2 440.5c-1.9-.9-4-1.4-6-1.6l2.6 15 5.6-1-2.2-12.4Z"/></g></g><g class="st8"><g class="st16"><path class="st21" transform="rotate(-10 1696.609 446.738)" d="M1693.6 440.9h1.6v11.3h-1.6z"/></g></g><path class="st21" d="M1653.7 494.4c11.9-17.1 29.8-28.5 50.3-32.1 19.8-3.5 39.8.7 56.6 11.7-.6-.4-1.1-.8-1.7-1.2-17.1-11.9-37.8-16.5-58.3-12.9-20.5 3.6-38.4 15-50.3 32.1-11.9 17.1-16.5 37.8-12.9 58.3 3.6 20.5 15 38.4 32.1 50.3.6.4 1.1.8 1.7 1.2-16.1-11.9-26.9-29.3-30.4-49.1-3.6-20.5.9-41.2 12.9-58.3"/><path class="st21" d="M1700.9 461.4c-41.6 7.3-69.4 47.1-62.1 88.7 7.3 41.6 47.1 69.4 88.7 62.1 41.6-7.3 69.4-47.1 62.1-88.7-7.3-41.6-47.1-69.4-88.7-62m25.6 144.9c-38.4 6.8-75.2-18.9-82-57.4-6.8-38.4 18.9-75.2 57.4-82 38.4-6.8 75.2 18.9 82 57.4 6.8 38.4-18.9 75.2-57.4 82"/><path class="st21" d="M1763.6 466.1c-9.9-6.9-20.8-11.6-32.3-13.9-7.3-1.5-14.8-2-22.3-1.5-3.3.2-6.5.6-9.8 1.2-3.3.6-6.5 1.3-9.6 2.3-18.6 5.5-34.7 17.1-46 33.2-13.4 19.2-17.9 42-14.4 63.4v.2c3.7 22 15.9 42.6 35.6 56.4 18.9 13.2 41.7 18.3 64.4 14.2 22.7-4 42.4-16.6 55.6-35.5 27.2-38.9 17.7-92.8-21.2-120m-124.8 84c-7.3-41.6 20.5-81.4 62.1-88.7 41.6-7.3 81.4 20.5 88.7 62.1 7.3 41.6-20.5 81.4-62.1 88.7-41.6 7.3-81.4-20.5-88.7-62.1"/><g class="st9"><g class="st19"><path class="st21" d="M1762.3 468.1c-18.3-12.8-40.6-17.8-62.6-13.9-22.1 3.9-41.3 16.1-54.1 34.5-12.8 18.3-17.8 40.6-13.9 62.6 3.9 22.1 16.1 41.3 34.5 54.1 18.3 12.8 40.6 17.8 62.6 13.9 22-3.9 41.3-16.2 54.1-34.5 26.5-37.9 17.2-90.2-20.6-116.7m-33.8 149.6c-44.7 7.9-87.4-22-95.3-66.7-7.9-44.7 22-87.4 66.7-95.3 44.7-7.9 87.4 22 95.3 66.7 7.9 44.7-22 87.4-66.7 95.3"/></g></g><g class="st7"><g class="st18"><path class="st21" d="M1643.6 487.3c-13.4 19.2-17.9 42-14.4 63.4v.2c4.1 21.4 16.1 41.2 35.3 54.6.6.4 1.2.8 1.7 1.2-37.5-27.6-46.4-80.5-19.6-118.8 10.7-15.3 25.5-28 42.9-33.8-18.6 5.5-34.7 17.1-46 33.2"/></g></g><circle class="st1" cx="1714.2" cy="536.8" r="70.9" transform="rotate(-.2 1660.676 518.561)"/></g></g></svg>