<svg width="1559" height="661" viewBox="0 0 1559 661" fill="none" xmlns="http://www.w3.org/2000/svg"><path d="M393.6 204.2c-9 33-19.5 73.5-21.8 76.9-7.9 12.8-52.9 36-73.1 36-22.5 0-79.5-55.5-79.5-66.8 0-6.4 26.6-27 34.9-27 3 0 4.9 1.5 6 3.8 8.6 16.5 33.4 55.1 42 55.1 4.5 0 14.3-6.8 16.5-11.6 1.9-3.8 15-51.8 22.9-81.4 9-32.6 15.4-59.3 19.5-71.3 4.5-13.1 11.3-18.4 12-19.1-1.5.4-35.3 9-58.9 22.1-3.4 1.9-4.5 5.6-4.5 9 0 8.6 7.5 33 7.5 38.3 0 5.3-19.5 16.1-25.5 16.1-7.5 0-35.3-39-35.3-48.4 0-13.1 31.1-50.3 42.8-52.5 25.1-4.9 49.5-9.4 88.1-18.8 4.5-1.1 17.6-13.9 24-13.9 8.6 0 31.9 19.1 31.9 24.8 0 3.4-17.3 17.3-20.6 27.4-3.4 9-11.6 37.9-20.6 70.5 5.3-2.6 9-5.6 11.3-8.3 26.3-32.6 57-82.5 72-99.4 3-3.8 28.1-15 33-15 4.9 0 24 23.6 24 27.8 0 3-15 11.6-18 14.3-12.4 10.9-52.9 63-77.6 87-1.9 1.9-4.1 3.4-7.1 5.3 3.4 3.4 6.4 6.8 8.3 11.6 10.9 29.3 16.5 66.8 27.4 87.8 4.5 8.3 19.9 11.3 19.9 15.4s-12 17.3-24 17.3c-9.8 0-42.8-10.5-49.1-22.5-10.9-21-8.3-57.8-14.6-81.4-1.1-4.5-3.4-8.3-6.8-11.3l-7 2.2Zm256.9 80.7c11.3 0 31.1-22.5 49.5-56.3 0 0 3.4-6.8 8.3-6.8s12.8 6 12.8 10.5-4.9 13.1-4.9 13.1c-20.6 37.5-42.8 71.6-69.8 71.6-16.9 0-54.4-15.8-54.4-32.6 0-24 21-84 21-98.3 0-3.4-3.4-7.5-7.5-7.5-7.9 0-22.5 6.4-27.4 18.4-10.1 24.8-27 100.5-29.3 111.4-1.5 4.9-7.5 8.6-14.3 8.6-8.6 0-35.6-9.4-35.6-19.5 0-9.8 28.5-123.4 36.4-148.9 2.3-5.3 9.8-7.9 15.4-7.9 8.6 0 25.1 18.4 25.1 18.4s34.9-18.4 56.3-18.4c14.3 0 38.6 16.5 38.6 30.4 0 17.6-23.3 89.6-23.3 109.5.1 1.7 1.3 4.3 3.1 4.3Z" fill="white"/><path d="M720.7 148.7c1.5-5.3 6.8-7.9 15-7.9 7.5 0 37.5 17.6 37.5 24.8 0 8.6-30 90.4-30 116.6 0 1.5 2.6 3.4 3.8 3.4 10.9 0 30.4-23.3 49.5-57 0 0 3-6.8 7.9-6.8s12.8 6 12.8 10.5-5.3 13.1-5.3 13.1c-20.3 37.5-42.8 71.6-69.8 71.6-21 0-54.4-15.8-54.4-32.6 0-17.5 26.6-112.4 33-135.7Zm18-40.5c0-15 9.4-42.4 24.8-42.4 10.1 0 29.6 7.1 29.6 19.5 0 15-9.8 42.4-24.8 42.4-10.1 0-29.6-7.1-29.6-19.5Z" fill="white"/><path d="M804.3 252.3c-5.3 0-13.1-6-13.1-10.1 0-3.4 3.4-9.4 5.3-13.5 11.3-25.1 27-58.5 27-58.5 11.6-24.8 18.4-29.3 26.6-29.3 13.9 0 57.8 5.3 66.8 5.3 9.8 0 23.6-5.3 30-5.3 5.3 0 16.1 17.3 16.1 26.6 0 7.1-58.5 61.5-93.8 102 16.9 0 43.1 9 52.5 9 15.4 0 33.8-16.1 52.1-49.9 0 0 3-6.8 7.9-6.8s13.1 6 13.1 10.5-4.9 13.1-4.9 13.1C968.9 282.9 946 317 913 317c-9.4 0-51.8-4.9-58.9-4.9-7.5 0-22.9 4.9-29.3 4.9-6.8 0-17.3-17.3-17.3-22.5 0-9.8 62.6-73.1 89.6-105-14.3-3.8-26.3-5.3-34.5-5.3-6 0-15.4 1.9-27 20.3-6.4 10.1-13.9 23.6-23.6 41.6-2.1 4.3-3.2 6.2-7.7 6.2Z" fill="white"/><path d="M1108.5 284.9c11.3 0 31.1-22.5 49.5-56.3 0 0 3.4-6.8 8.3-6.8s12.8 6 12.8 10.5-4.9 13.1-4.9 13.1c-20.6 37.5-42.8 71.6-69.8 71.6-16.9 0-54.4-15.8-54.4-32.6 0-24 21-84 21-98.3 0-3.4-3.4-7.5-7.5-7.5-7.9 0-22.5 6.4-27.4 18.4-10.1 24.8-27 100.5-29.3 111.4-1.5 4.9-7.5 8.6-14.3 8.6-8.6 0-35.6-9.4-35.6-19.5 0-9.8 28.5-123.4 36.4-148.9 2.2-5.3 9.8-7.9 15.4-7.9 8.6 0 25.1 18.4 25.1 18.4s34.9-18.4 56.3-18.4c14.3 0 38.6 16.5 38.6 30.4 0 17.6-23.3 89.6-23.3 109.5.1 1.7 1.2 4.3 3.1 4.3Z" fill="white"/><path d="M1268.7 256.8s6.8-9.4 11.3-9.4c5.3 0 15.8 8.6 15.8 13.1s-8.3 15.4-8.3 15.4c-15 19.9-40.1 41.3-72 41.3-25.5 0-66.4-22.5-66.4-51.8 0-42.4 39.4-124.5 79.1-124.5 19.1 0 58.1 22.1 58.1 38.3 0 19.9-26.3 78.4-51.4 78.4-14.6 0-28.1-3.4-28.1-3.4s-1.5 3.4-1.5 9.8c0 10.5 9.8 19.9 17.3 19.9 17.5-.1 32.5-8.8 46.1-27.1Zm-21.4-76.6c0-1.1-3-4.1-5.6-4.1-12 0-30.8 37.1-34.1 52.9 25.8-4.1 39.7-39 39.7-48.8Zm93.7-92.6c0 4.9-3.4 7.5-6.4 9.8-23.6 15.8-63.8 40.1-67.9 40.1-4.9 0-13.5-10.9-13.5-13.9 0-3.4 2.6-7.5 4.9-10.1 9-9.4 36.8-45 41.6-51.4 3.8-4.1 6.4-7.1 10.1-7.1 6.5 0 31.2 26.6 31.2 32.6Z" fill="white"/><path d="m896.6 105.9-69-71-12.5 11.6 60.5 66.4s8 8.7 21 8.7v-15.7Z" fill="#EBCDBA"/><path d="m896.6 105.9-69-71s24-7 49 18c0 0 35 31 20 53Z" fill="white"/><path d="m896.6 105.9 69-71 12.5 11.6-60.5 66.4s-8 8.7-21 8.7v-15.7Z" fill="#EBCDBA"/><path d="m896.6 105.9 69-71s-24-7-49 18c0 0-35 31-20 53Z" fill="white"/><path d="M955 0s-6.4 10.9-23.4 17.9c0 0-49 17.6-35 73.3 0 0-3-42.3 38-61.3 0 0 22-8 31-21.7L955 0Z" fill="#D22121"/><path d="M72 418.3c8.8-4.8 19.1-7.2 30.9-7.2 13.8 0 26.3 3.5 37.5 10.5s20 17 26.5 30 9.8 28.1 9.8 45.3c0 17.2-3.3 32.4-9.8 45.5-6.5 13.1-15.4 23.2-26.5 30.3-11.2 7.1-23.7 10.7-37.5 10.7-11.6 0-21.9-2.4-30.8-7.2-8.9-4.8-15.9-11-20.9-18.6v103.2H0V413.5h51.3v23.7c5-7.8 11.9-14.1 20.7-18.9Zm41.8 48.5c-7.1-7.3-15.9-10.9-26.2-10.9-10.2 0-18.9 3.7-26 11.1-7.1 7.4-10.6 17.5-10.6 30.3s3.5 22.9 10.6 30.3c7.1 7.4 15.8 11.1 26 11.1s18.9-3.8 26.1-11.2c7.2-7.5 10.8-17.6 10.8-30.5 0-12.9-3.6-22.9-10.7-30.2ZM369 413.5v167.4h-51.3v-22.8c-5.2 7.4-12.3 13.3-21.1 17.8-8.9 4.5-18.8 6.8-29.6 6.8-12.8 0-24.1-2.8-33.9-8.5-9.8-5.7-17.4-14-22.8-24.8-5.4-10.8-8.1-23.5-8.1-38.1v-97.8h51v90.9c0 11.2 2.9 19.9 8.7 26.1 5.8 6.2 13.6 9.3 23.4 9.3 10 0 17.9-3.1 23.7-9.3 5.8-6.2 8.7-14.9 8.7-26.1v-90.9H369Zm130.2 123.9v43.5h-26.1c-18.6 0-33.1-4.5-43.5-13.7-10.4-9.1-15.6-23.9-15.6-44.5v-66.6h-20.4v-42.6H414v-40.8h51.3v40.8h33.6v42.6h-33.6v67.2c0 5 1.2 8.6 3.6 10.8 2.4 2.2 6.4 3.3 12 3.3h18.3Zm298.9-4.5 36.3-119.4H889l-59.4 167.4h-63.3l-59.4-167.4h54.9l36.3 119.4Zm108-81.3c6.5-13 15.3-23 26.5-30s23.7-10.5 37.5-10.5c11.8 0 22.1 2.4 31 7.2 8.9 4.8 15.8 11.1 20.5 18.9v-23.7h51.3v167.4h-51.3v-23.7c-5 7.8-12 14.1-20.8 18.9-8.9 4.8-19.3 7.2-31 7.2-13.6 0-26-3.5-37.2-10.7-11.2-7.1-20.1-17.2-26.5-30.3-6.5-13.1-9.8-28.2-9.8-45.5.1-17.1 3.3-32.2 9.8-45.2Zm105 15.3c-7.1-7.4-15.8-11.1-26-11.1s-18.9 3.7-26 10.9c-7.1 7.3-10.7 17.4-10.7 30.2s3.5 23 10.7 30.5c7.1 7.5 15.8 11.2 26 11.2s18.8-3.7 26-11.1c7.1-7.4 10.6-17.5 10.6-30.3.1-12.8-3.5-22.9-10.6-30.3Zm248.1-36.1c11.7 12.7 17.5 30.2 17.5 52.4v97.7h-51V490c0-11.2-2.9-19.9-8.7-26.1-5.8-6.2-13.6-9.3-23.4-9.3-9.8 0-17.6 3.1-23.4 9.3-5.8 6.2-8.7 14.9-8.7 26.1v90.9h-51.3V413.5h51.3v22.2c5.2-7.4 12.2-13.2 21-17.5 8.8-4.3 18.7-6.5 29.7-6.5 19.7 0 35.3 6.4 47 19.1Zm57-42.6c-5.7-5.3-8.5-11.8-8.5-19.7 0-8 2.9-14.6 8.5-19.9 5.7-5.3 13.1-8 22.1-8 8.8 0 16 2.7 21.8 8 5.7 5.3 8.5 12 8.5 19.9 0 7.8-2.9 14.4-8.5 19.7-5.7 5.3-13 8-21.8 8-9-.1-16.4-2.7-22.1-8Zm47.6 25.3v167.4h-51.3V413.5h51.3Zm194.1 96h-116.1c.8 10.4 4.1 18.4 10 23.9s13.1 8.2 21.8 8.2c12.8 0 21.7-5.4 26.7-16.2h54.6c-2.8 11-7.9 20.9-15.2 29.7-7.3 8.8-16.5 15.7-27.4 20.7-11 5-23.3 7.5-36.9 7.5-16.4 0-31-3.5-43.8-10.5-12.8-7-22.8-17-30-30-7.2-13-10.8-28.2-10.8-45.6 0-17.4 3.5-32.6 10.6-45.6s17-23 29.9-30c12.8-7 27.5-10.5 44.1-10.5 16.2 0 30.6 3.4 43.2 10.2 12.6 6.8 22.4 16.5 29.5 29.1 7.1 12.6 10.7 27.3 10.7 44.1 0 4.8-.3 9.8-.9 15Zm-51.6-28.5c0-8.8-3-15.8-9-21-6-5.2-13.5-7.8-22.5-7.8-8.6 0-15.9 2.5-21.8 7.5s-9.6 12.1-11 21.3h64.3Zm-903-33-5.9-7.4c.3 1.2.5 2.4.7 3.3l.9 4.9-2.2.4-1.9-10.8 2.9-.5 6 7.5c-.3-1.1-.5-2.4-.7-3.4l-.9-4.9 2.1-.4 1.9 10.8-2.9.5Zm18.9 93.8-2.2.4c-.3-1.1-1-1.6-2.2-1.4-.9.2-1.4.7-1.3 1.5.2.9.8 1.3 2.6 1.4 2.5.1 3.7 1 4 2.8.4 2-1.3 3.5-3.4 3.9-2.6.5-4.5-.4-5.1-2.6l2.2-.4c.4 1.1 1.5 1.6 2.5 1.4 1-.2 1.7-.8 1.5-1.7-.2-.9-.8-1.3-2.5-1.4-2.3-.1-3.8-.7-4.2-2.6-.4-2 1.2-3.5 3.3-3.8 2.8-.6 4.2.6 4.8 2.5Zm-58.9-44.7.5 2.9-8.6 3.4 9.3.4.5 2.9-10.3 4.6-.4-2.3 8.8-3.4-9.3-.3-.5-3 8.7-3.4-9.5-.3-.4-2.2 11.2.7Zm92.3-7.5-1.4-7.8 10.8-1.9 1.3 7.6-1.7.3-1-5.5-2.8.5.9 5.1-1.7.3-.9-5.1-2.8.5 1 5.6-1.7.4Zm-39.9 39.3c-19.3 3.4-37.7-9.5-41.1-28.7-3.4-19.3 9.5-37.7 28.7-41.1 19.3-3.4 37.7 9.5 41.1 28.7 3.5 19.2-9.4 37.7-28.7 41.1Zm-12.1-68.7c-18.6 3.3-31 21.1-27.8 39.7 3.3 18.6 21.1 31 39.7 27.8 18.6-3.3 31-21.1 27.8-39.7-3.3-18.6-21.1-31.1-39.7-27.8Z" fill="white"/><path d="m564.7 501.9 10.1-4.3.9 4.8-11-.5Zm52.8 36.9-4.3-10.1 4.8-.8-.5 10.9Zm36.9-52.8-10.1 4.3-.9-4.8 11 .5Zm-52.8-36.9 4.3 10.1-4.8.9.5-11Zm-11.6 29c-.8-.6-1.9-.4-2.5.4-.6.8-.4 1.9.4 2.5.8.6 1.9.4 2.5-.4.6-.8.4-1.9-.4-2.5Zm3.7 35.4c-.6.8-.4 1.9.4 2.5.8.6 1.9.4 2.5-.4.6-.8.4-1.9-.4-2.5-.8-.6-1.9-.4-2.5.4Zm35.4-3.7c.8.6 1.9.4 2.5-.4.6-.8.4-1.9-.4-2.5-.8-.6-1.9-.4-2.5.4-.6.8-.4 1.9.4 2.5Zm-3.7-35.4c.6-.8.4-1.9-.4-2.5-.8-.6-1.9-.4-2.5.4-.6.8-.4 1.9.4 2.5.8.6 1.9.4 2.5-.4Zm-28.22-18.763-1.418.489 1.761 5.104 1.418-.489-1.761-5.104Zm-5.814 2.478-1.324.705 2.538 4.767 1.324-.705-2.538-4.767Zm-5.466 3.253-1.197.903 3.251 4.311 1.198-.903-3.252-4.311Zm-4.765 4.062-1.041 1.08 3.886 3.749 1.042-1.079-3.887-3.75Zm-4.052 4.856-.86 1.229 4.425 3.096.86-1.23-4.425-3.095Zm-3.395 5.316-.657 1.349 4.854 2.364.657-1.348-4.854-2.365Zm-2.442 5.896-.438 1.434 5.165 1.576.437-1.434-5.164-1.576Zm-1.406 6.08-.208 1.485 5.347.749.208-1.485-5.347-.749Zm4.924 6.247-5.399.097.026 1.5 5.399-.097-.026-1.5Zm1.679 10.789-5.105 1.762.489 1.418 5.105-1.762-.489-1.418ZM612.6 493.4l-8.7-31.2 2.4 32.3 8.8 31.2-2.5-32.3Z" fill="white"/><path d="m610 497.1 31.3-8.7-32.4 2.4-31.2 8.8 32.3-2.5Z" fill="white"/><path d="m611.3 495.2 10.9-19.3-14.5 16.8-10.9 19.4 14.5-16.9Z" fill="white"/><path d="m608.2 495.8 19.4 10.8-16.9-14.4-19.3-10.9 16.8 14.5Zm-29.707 13.896-4.767 2.537.705 1.324 4.767-2.537-.705-1.324Z" fill="white"/><path d="M612.3 509.3c-8.4 1.5-16.5-4.2-18-12.6-1.5-8.4 4.2-16.5 12.6-18 8.4-1.5 16.5 4.2 18 12.6 1.5 8.4-4.2 16.5-12.6 18Zm-5.4-30.2c-8.2 1.4-13.6 9.3-12.2 17.4 1.4 8.2 9.3 13.6 17.4 12.2 8.2-1.4 13.6-9.3 12.2-17.4-1.4-8.1-9.2-13.6-17.4-12.2Zm-25.565 35.228-4.312 3.252.904 1.198 4.311-3.252-.903-1.198Zm3.433 4.164-3.75 3.885 1.08 1.042 3.749-3.886-1.079-1.041Zm4.263 3.563-3.096 4.425 1.23.86 3.095-4.425-1.229-.86Zm4.628 2.976-2.366 4.854 1.348.657 2.366-4.854-1.348-.657Zm5.03 2.025-1.575 5.165 1.434.438 1.576-5.165-1.435-.438Zm5.332 1.265-.75 5.348 1.486.208.75-5.347-1.486-.209Zm6.908.441-1.5.028.098 5.398 1.5-.027-.098-5.399Zm10.829-2.082-1.418.489 1.761 5.105 1.418-.489-1.761-5.105Zm4.899-2.321-1.324.705 2.537 4.767 1.324-.705-2.537-4.767Zm4.493-3.047-1.198.904 3.252 4.311 1.198-.903-3.252-4.312Zm3.98-3.725-1.042 1.079 3.887 3.749 1.041-1.079-3.886-3.749Zm3.435-4.283-.86 1.229 4.425 3.095.86-1.229-4.425-3.095Zm2.684-4.811-.657 1.348 4.854 2.366.657-1.349-4.854-2.365Zm1.783-5.078-.438 1.434 5.165 1.577.438-1.435-5.165-1.576Zm1.116-5.4-.208 1.485 5.348.749.208-1.485-5.348-.749Zm5.613-5.489-5.399.097.027 1.5 5.399-.097-.027-1.5Zm-2.383-12.388-5.105 1.759.489 1.418 5.105-1.759-.489-1.418Zm-2.691-5.729-4.766 2.538.705 1.324 4.766-2.538-.705-1.324Zm-3.486-5.219-4.312 3.251.903 1.198 4.312-3.251-.903-1.198Zm-4.251-4.733-3.749 3.887 1.08 1.041 3.748-3.887-1.079-1.041Zm-4.901-3.881-3.095 4.425 1.229.86 3.095-4.425-1.229-.86Zm-5.542-3.126-2.365 4.854 1.348.657 2.365-4.855-1.348-.656Zm-5.901-2.202-1.576 5.165 1.435.438 1.576-5.165-1.435-.438Zm-6.113-1.294-.748 5.348 1.485.208.749-5.348-1.486-.208Zm-4.966-.191-1.499.027.096 5.398 1.499-.026-.096-5.399Z" fill="white"/><path d="M608 485c-.1 0-.3.1-.4.1l-35-17 27.9 27v.4c.9 5 5.6 8.3 10.6 7.4.1 0 .3-.1.4-.1l34.9 16.9-27.9-27v-.4c-.8-4.9-5.6-8.2-10.5-7.3Z" fill="#009CD0"/><path d="m607.6 485.1-35-17 27.9 27v.4c.4 2.5 1.8 4.5 3.8 5.9l10.5-14.9c-1.9-1.3-4.3-1.9-6.8-1.5-.2 0-.3 0-.4.1Z" fill="#D22121"/><path opacity="0.15" d="m609.6 494-5.2 7.5c-.7-.5-1.4-1.1-1.9-1.8 2 2.5 5.3 3.9 8.7 3.3.1 0 .3-.1.4-.1l34.9 16.9-36.9-25.8Z" fill="black"/><path d="m609.6 494 5.2-7.5-.9-.6c-.7-.4-1.5-.7-2.3-.9-1.2-.3-2.4-.3-3.6-.1-.1 0-.3.1-.4.1l-35-16.9 37 25.9Z" fill="white"/><path d="M609.6 499.9a5.9 5.9 0 1 0 0-11.8 5.9 5.9 0 0 0 0 11.8Z" fill="#D7E6D6"/><path d="M609.1 488.6c1.8-.3 3.6.2 4.9 1.3-1.3-1.4-3.3-2.2-5.4-1.8-3.2.6-5.4 3.7-4.8 6.9.3 1.4 1 2.7 2 3.5-.7-.8-1.3-1.8-1.5-3-.6-3.2 1.5-6.3 4.8-6.9Z" fill="white"/><path opacity="0.15" d="M612.3 488.7c1 .9 1.6 2 1.9 3.4.6 3.2-1.6 6.3-4.8 6.9-1.4.2-2.7 0-3.8-.6 1.3 1.2 3.1 1.8 5 1.4 3.2-.6 5.4-3.7 4.8-6.9-.3-1.8-1.5-3.4-3.1-4.2Z" fill="black"/><path d="M585.2 354.8c-11.6 2.1-19.4 13.2-17.4 24.8 1.3 7.6 6.6 13.6 13.3 16.2 2 .8 4.2 1.3 6.5 1.4 1.7.1 3.3 0 5-.3 1.7-.3 3.3-.8 4.8-1.5 2.1-.9 4-2.1 5.6-3.6 5.4-4.8 8.3-12.2 6.9-19.8-1.9-11.5-13-19.3-24.7-17.2Zm16.9 31.6c-2.5 3.1-6 5.4-10.3 6.1-4.2.7-8.4-.2-11.7-2.2-4-2.4-6.9-6.5-7.8-11.4-1.6-9.1 4.5-17.9 13.7-19.5 9.1-1.6 17.9 4.5 19.5 13.7.9 4.8-.5 9.6-3.4 13.3Z" fill="white"/><path d="M602.1 386.4c-2.5 3.1-6 5.4-10.3 6.1-4.1.7-8.2-.1-11.5-2.1.6.5 1.2.9 1.8 1.3 3.4 2.1 7.5 3 11.7 2.2 4.2-.7 7.8-3 10.3-6.1 2.9-3.6 4.3-8.5 3.4-13.4-.9-5-3.9-9.1-8-11.6 3 2.5 5.2 6 5.9 10.1 1 5-.4 9.8-3.3 13.5Z" fill="white"/><path d="M587.3 356.2c5.4-.9 10.6.2 15 2.9-4.6-3.7-10.8-5.4-17-4.3-11.6 2.1-19.4 13.2-17.4 24.8 1.1 6.3 4.9 11.4 9.9 14.5-4-3.1-6.9-7.7-7.8-13.1-2.1-11.6 5.7-22.7 17.3-24.8Z" fill="white"/><path opacity="0.15" d="M606.1 363.1c1.5 2.3 2.5 4.9 3 7.8 1.3 7.6-1.5 15-6.9 19.8-1.6 1.5-3.5 2.7-5.6 3.6-1.5.7-3.1 1.2-4.8 1.5-1.7.3-3.4.4-5 .3-2.3-.1-4.5-.6-6.5-1.4-3.7-1.5-7-4-9.4-7.2 2.5 3.8 6.1 6.8 10.3 8.5 2 .8 4.2 1.3 6.5 1.4 1.7.1 3.3 0 5-.3 1.7-.3 3.3-.8 4.8-1.5 2.1-.9 4-2.1 5.6-3.6 5.4-4.8 8.3-12.2 6.9-19.8-.5-3.4-1.9-6.5-3.9-9.1Z" fill="white"/><path d="m601.9 385.1 2.5 14.1-22 3.9-2.5-14.1c5.8-5.8 14.6-7.4 22-3.9Z" fill="white"/><path opacity="0.1" d="M601.9 385.1c-2.2-1-4.5-1.6-6.9-1.8l3 17 6.3-1.1-2.4-14.1Z" fill="white"/><path opacity="0.59" d="m587.152 385.432-1.773.314 2.229 12.604 1.772-.314-2.228-12.604Z" fill="white"/><path d="M541.3 446.1c13.5-19.3 33.8-32.2 57-36.4 22.5-4 45.1.7 64.1 13.3-.6-.5-1.3-.9-1.9-1.4-19.3-13.5-42.8-18.7-66-14.6-23.2 4.1-43.5 17-57 36.4-13.5 19.3-18.7 42.8-14.6 66 4.1 23.2 17 43.5 36.4 57 .6.5 1.3.9 2 1.3-18.3-13.5-30.5-33.2-34.4-55.6-4.3-23.2.9-46.6 14.4-66Z" fill="white"/><path d="M594.7 408.7c-47.1 8.3-78.6 53.4-70.3 100.5 8.3 47.1 53.4 78.6 100.5 70.3 47.1-8.3 78.6-53.4 70.3-100.5-8.3-47.1-53.4-78.6-100.5-70.3ZM623.8 573c-43.5 7.7-85.2-21.4-92.9-65-7.7-43.5 21.4-85.2 65-92.9 43.5-7.7 85.2 21.4 92.9 65 7.6 43.5-21.5 85.2-65 92.9Z" fill="white"/><path d="M665.8 414.1c-11.2-7.8-23.6-13.1-36.6-15.7-8.3-1.7-16.7-2.3-25.3-1.7-3.7.2-7.4.7-11.1 1.3-3.7.7-7.3 1.5-10.9 2.6-21.1 6.2-39.3 19.3-52.1 37.6-15.1 21.6-20.2 47.4-16.2 71.7v.2c4.2 25 18 48.3 40.3 63.9 21.4 14.9 47.3 20.7 73 16.1 25.7-4.5 48-18.8 63-40.2 30.8-44 20-105-24.1-135.8Zm-141.3 95.1c-8.3-47.1 23.2-92.1 70.3-100.5 47.1-8.3 92.1 23.2 100.5 70.3 8.3 47.1-23.2 92.1-70.3 100.5-47.1 8.3-92.2-23.3-100.5-70.3Z" fill="white"/><path opacity="0.7" d="M664.3 416.3c-20.8-14.5-46-20.1-70.9-15.7-25 4.4-46.7 18.3-61.3 39.1-14.5 20.8-20.1 46-15.7 70.9 4.4 25 18.3 46.7 39.1 61.3 20.8 14.5 46 20.1 70.9 15.7 25-4.4 46.7-18.3 61.3-39.1 30-42.9 19.5-102.2-23.4-132.2Zm-38.2 169.5c-50.6 8.9-99-24.9-108-75.5-8.9-50.6 24.9-99 75.5-107.9 50.6-8.9 99 24.9 108 75.5 8.9 50.5-24.9 99-75.5 107.9Z" fill="white"/><path opacity="0.5" d="M529.8 438.1c-15.1 21.7-20.2 47.5-16.2 71.8v.2c4.6 24.2 18.2 46.7 39.9 61.8.7.5 1.3.9 2 1.3-42.5-31.3-52.5-91.1-22.1-134.6 12.1-17.4 28.9-31.7 48.6-38.3-21.1 6.4-39.4 19.5-52.2 37.8Z" fill="white"/><path d="M609.8 574.3c44.293 0 80.2-35.907 80.2-80.2 0-44.293-35.907-80.2-80.2-80.2-44.293 0-80.2 35.907-80.2 80.2 0 44.293 35.907 80.2 80.2 80.2Z" stroke="#EBCDBA" stroke-width="35" stroke-miterlimit="10"/></svg>