<?xml version="1.0" encoding="UTF-8"?><svg xmlns="http://www.w3.org/2000/svg" version="1.1" viewBox="0 0 2496.8 721.5"><defs><style>.st0 {
        fill: #e5cdbb;
      }

      .st1 {
        fill: #d22121;
      }

      .st2, .st3, .st4 {
        mix-blend-mode: multiply;
      }

      .st2, .st4 {
        opacity: .1;
      }

      .st5 {
        fill: #009cd0;
      }

      .st6 {
        isolation: isolate;
      }

      .st7 {
        fill: #ebcdba;
      }

      .st8, .st9, .st10, .st11, .st12, .st3, .st4 {
        fill: #fff;
      }

      .st8, .st10, .st11, .st12 {
        mix-blend-mode: soft-light;
      }

      .st13 {
        fill: #d7e6d6;
      }

      .st10 {
        opacity: .6;
      }

      .st11 {
        opacity: .5;
      }

      .st12 {
        opacity: .7;
      }

      .st14 {
        fill: none;
        stroke: #ebcdba;
        stroke-miterlimit: 10;
        stroke-width: 35px;
      }

      .st3 {
        opacity: 0;
      }

      .st15 {
        fill: #c0352d;
      }</style></defs><g class="st6"><g id="Layer_1"><path class="st9" d="M486.5 21.8h87.7l35.1 131.7 12.6 52.2 12.2-52.2L670 21.8h87.3l37 262.7h-71.8l-12.6-129.9-4.1-53.3-13.7 53.3-34 129.9h-77l-34.8-129.9-13.7-53.3-3.7 53.3-11.8 129.9h-67.3l36.7-262.7ZM915.2 165v-8.9c0-13-6.7-21.5-21.1-21.5s-34 3.3-63.3 15.5l-8.5-45.1c34-11.5 61-16.6 89.9-16.6 45.9 0 69.6 24.8 69.6 76.6v57.7c0 12.9 5.2 17.8 21.8 17.8l-6.7 46.2c-41.4 5.5-61.4-3-71.8-22.6-17.8 17.8-40.7 24.8-58.5 24.8-31.4 0-57-20.3-57-54.4s32.9-64 105.4-69.6Zm-24.8 79.2c8.9 0 19.2-6.3 24.8-10.7v-35.1c-29.6 3-40 14.4-40 28.9-.4 11.1 5.5 17 15.2 17Zm132.8-144.7 65.1-11.1 1.9 51.8c10-30 31.4-49.9 62.2-55.1l10.4 68.8c-29.6-.7-55.9 8.5-72.9 30v100.6h-66.6v-185Zm243.3-64.7v58.1h44.4l-3 48.1h-41.4v72.9c0 19.6 5.9 24 17.4 24s18.5-1.8 28.1-3.7l6.7 48.1c-18.9 4.4-35.9 6.7-50.7 6.7-52.2 0-68.1-34.8-68.1-72.5V141h-29.6V99.2l29.6-6.3 11.5-50.7 55.1-7.4ZM1375.1 0c21.1 0 37.4 15.5 37.4 35.9s-16.3 35.9-37.4 35.9-37.4-15.5-37.4-35.9S1354 0 1375.1 0Zm-33.3 99.5 66.6-11.1v196.1h-66.6v-185Zm103 0 65.1-11.1 1.5 24c21.5-15.2 45.1-24 65.9-24 31.8 0 56.6 21.5 56.6 64.7v131.3h-66.6v-121c0-17.4-8.5-23.7-21.8-23.7s-22.6 4.8-34 12.6v132.1h-66.6V99.5Zm290.9-11.1v125.4c0 17 8.5 23.7 21.8 23.7s22.6-4.8 34-12.9V99.5l66.6-11.1v196.1h-63.6l-3-19.6c-21.5 14.8-45.1 24-65.9 24-31.8 0-56.6-21.5-56.6-64.7V99.5l66.6-11.1Zm161.4 141.7c20.3 8.1 48.8 15.9 68.4 15.9s21.5-5.2 21.5-15.2-9.6-12.2-20-14.4c-31.1-5.9-79.9-17-79.9-66.6s37-61.4 79.5-61.4 50.7 5.5 70.7 12.9l-8.1 44.8c-20.4-8.1-45.9-15.2-62.9-15.2s-19.2 4.4-19.2 13.3 8.9 12.2 19.2 14.8c29.6 5.5 80.7 17 80.7 66.2s-42.5 63.6-85.1 63.6-53.3-6.7-72.5-14.4l7.8-44.4Z"/><g id="kniha"><path class="st7" d="m677.2 424.2-69-71-12.5 11.6 60.5 66.4s8 8.7 21 8.7v-15.7Z"/><path class="st9" d="m677.2 424.2-69-71s24-7 49 18c0 0 35 31 20 53Z"/><path class="st7" d="m677.2 424.2 69-71 12.5 11.6-60.5 66.4s-8 8.7-21 8.7v-15.7Z"/><path class="st9" d="m677.2 424.2 69-71s-24-7-49 18c0 0-35 31-20 53Z"/><path class="st1" d="M735.5 318.3s-6.4 10.9-23.4 17.9c0 0-49 17.6-35 73.3 0 0-3-42.3 38-61.3 0 0 22-8 31-21.7l-10.6-8.2Z"/></g><path class="st9" d="M174.4 522.8c-9 33-19.5 73.5-21.8 76.9-7.9 12.8-52.9 36-73.1 36S0 580.2 0 568.9s26.6-27 34.9-27 4.9 1.5 6 3.8c8.6 16.5 33.4 55.1 42 55.1s14.3-6.8 16.5-11.6c1.9-3.8 15-51.8 22.9-81.4 9-32.6 15.4-59.3 19.5-71.3 4.5-13.1 11.3-18.4 12-19.1-1.5.4-35.3 9-58.9 22.1-3.4 1.9-4.5 5.6-4.5 9 0 8.6 7.5 33 7.5 38.3s-19.5 16.1-25.5 16.1-35.3-39-35.3-48.4 31.1-50.3 42.8-52.5c25.1-4.9 49.5-9.4 88.1-18.8 4.5-1.1 17.6-13.9 24-13.9s31.9 19.1 31.9 24.8-17.3 17.3-20.6 27.4c-3.4 9-11.6 37.9-20.6 70.5 5.3-2.6 9-5.6 11.3-8.3 26.3-32.6 57-82.5 72-99.4 3-3.8 28.1-15 33-15s24 23.6 24 27.8-15 11.6-18 14.3c-12.4 10.9-52.9 63-77.6 87-1.9 1.9-4.1 3.4-7.1 5.3 3.4 3.4 6.4 6.8 8.3 11.6 10.9 29.3 16.5 66.8 27.4 87.8 4.5 8.3 19.9 11.3 19.9 15.4s-12 17.3-24 17.3-42.8-10.5-49.1-22.5c-10.9-21-8.3-57.8-14.6-81.4-1.1-4.5-3.4-8.3-6.8-11.3l-6.8 2.3Zm256.9 80.6c11.3 0 31.1-22.5 49.5-56.3 0 0 3.4-6.8 8.3-6.8s12.8 6 12.8 10.5-4.9 13.1-4.9 13.1c-20.6 37.5-42.8 71.6-69.8 71.6s-54.4-15.8-54.4-32.6c0-24 21-84 21-98.3s-3.4-7.5-7.5-7.5c-7.9 0-22.5 6.4-27.4 18.4-10.1 24.8-27 100.5-29.3 111.4-1.5 4.9-7.5 8.6-14.3 8.6s-35.6-9.4-35.6-19.5 28.5-123.4 36.4-148.9c2.3-5.3 9.8-7.9 15.4-7.9 8.6 0 25.1 18.4 25.1 18.4s34.9-18.4 56.3-18.4 38.6 16.5 38.6 30.4-23.3 89.6-23.3 109.5 1.1 4.1 3 4.1Z"/><path class="st9" d="M501.5 467.3c1.5-5.3 6.8-7.9 15-7.9S554 477 554 484.2s-30 90.4-30 116.6 2.6 3.4 3.8 3.4c10.9 0 30.4-23.3 49.5-57 0 0 3-6.8 7.9-6.8s12.8 6 12.8 10.5-5.3 13.1-5.3 13.1c-20.3 37.5-42.8 71.6-69.8 71.6s-54.4-15.8-54.4-32.6 26.6-112.5 33-135.8Zm18-40.5c0-15 9.4-42.4 24.8-42.4s29.6 7.1 29.6 19.5-9.8 42.4-24.8 42.4-29.6-7.1-29.6-19.5Z"/><path class="st9" d="M585.1 570.8c-5.3 0-13.1-6-13.1-10.1s3.4-9.4 5.3-13.5c11.3-25.1 27-58.5 27-58.5 11.6-24.8 18.4-29.3 26.6-29.3 13.9 0 57.8 5.3 66.8 5.3s23.6-5.3 30-5.3 16.1 17.3 16.1 26.6-58.5 61.5-93.8 102c16.9 0 43.1 9 52.5 9 15.4 0 33.8-16.1 52.1-49.9 0 0 3-6.8 7.9-6.8s13.1 6 13.1 10.5-4.9 13.1-4.9 13.1c-21 37.5-43.9 71.6-76.9 71.6s-51.8-4.9-58.9-4.9-22.9 4.9-29.3 4.9-17.3-17.3-17.3-22.5c0-9.8 62.6-73.1 89.6-105-14.3-3.8-26.3-5.3-34.5-5.3s-15.4 1.9-27 20.3c-6.4 10.1-13.9 23.6-23.6 41.6-2.3 4.1-3.4 6-7.9 6Z"/><path class="st9" d="M889.3 603.4c11.3 0 31.1-22.5 49.5-56.3 0 0 3.4-6.8 8.3-6.8s12.8 6 12.8 10.5-4.9 13.1-4.9 13.1c-20.6 37.5-42.8 71.6-69.8 71.6s-54.4-15.8-54.4-32.6c0-24 21-84 21-98.3s-3.4-7.5-7.5-7.5c-7.9 0-22.5 6.4-27.4 18.4-10.1 24.8-27 100.5-29.3 111.4-1.5 4.9-7.5 8.6-14.3 8.6s-35.6-9.4-35.6-19.5 28.5-123.4 36.4-148.9c2.2-5.3 9.8-7.9 15.4-7.9 8.6 0 25.1 18.4 25.1 18.4s34.9-18.4 56.3-18.4 38.6 16.5 38.6 30.4-23.3 89.6-23.3 109.5 1.1 4.1 3 4.1Z"/><path class="st9" d="M958.8 467.7c1.5-5.2 6.7-7.8 14.9-7.8s37.2 17.5 37.2 24.6-29.8 89.7-29.8 115.7 2.6 3.3 3.7 3.3c10.8 0 30.1-23.1 49.1-56.6 0 0 3-6.7 7.8-6.7s12.7 6 12.7 10.4-5.2 13-5.2 13c-20.1 37.2-42.4 71.1-69.2 71.1s-53.9-15.6-53.9-32.4 26.4-111.6 32.7-134.7Zm91.1-68.4c0 4.8-3.3 7.4-6.3 9.7-23.4 15.6-63.3 39.8-67.3 39.8S962.9 438 962.9 435s2.6-7.4 4.8-10c8.9-9.3 36.5-44.6 41.3-51 3.7-4.1 6.3-7.1 10-7.1 6.3 0 30.9 26.4 30.9 32.4Z" id="iiii"/><g id="kniha1" data-name="kniha"><path class="st0" d="m677.4 424.4-69-71-12.5 11.6 60.5 66.4s8 8.7 21 8.7v-15.7Z"/><path class="st9" d="m677.4 424.4-69-71s24-7 49 18c0 0 35 31 20 53Z"/><path class="st0" d="m677.4 424.4 69-71 12.5 11.6-60.5 66.4s-8 8.7-21 8.7v-15.7Z"/><path class="st9" d="m677.4 424.4 69-71s-24-7-49 18c0 0-35 31-20 53Z"/><path class="st15" d="M735.8 318.5s-6.4 10.9-23.4 17.9c0 0-49 17.6-35 73.3 0 0-3-42.3 38-61.3 0 0 22-8 31-21.7l-10.6-8.2Z"/></g><path class="st9" d="M1220.9 637.2c-24.4 0-41.8-11.8-41.8-11.8s-17.4 70.3-20 88.1c-1.1 4.8-10 8.1-15.9 8.1-9.2 0-32.6-10.7-32.6-20.4s44-184.6 57.7-232.4c1.1-5.2 9.2-7.8 14.4-7.8 7.4 0 27 18.1 27 18.1s21.8-18.1 43.3-18.1 47.4 20.7 47.4 39.6-7 52.5-20 80.7c0 0 2.6 1.5 6.3 1.5 25.9 0 42.5-35.1 42.5-35.1s3.3-6.7 7.8-6.7 13.3 5.9 13.3 10.4-5.2 13-5.2 13-22.2 45.5-69.2 45.5-11.1-.4-11.1-.4c-11.1 14.4-26.6 27.8-44 27.8Zm-11.5-33.7c1.5 0 3.7-1.5 5.2-3-6.7-3-11.1-7-11.1-11.1 0-7.8 17.4-26.3 25.2-26.3s3 .4 4.4.4c8.1-22.6 12.6-44.4 12.6-58.5s-4.4-8.1-6.7-8.1c-9.2 0-25.5 10.7-31.1 27-7.4 20.7-16.6 51.4-16.6 63.6s12.9 15.9 18.1 15.9Z"/><path class="st9" d="M1423.6 610.5s-33.3 24.4-48.8 24.4c-22.9 0-51.4-22.9-51.4-38.5s24.8-105.1 32.2-128.4c2.2-5.2 6.7-7 10-7 10.7 0 39.6 17 39.6 23.7s-.7 6.7-1.5 8.9c-2.6 9.6-25.2 84.4-25.2 101.4s1.5 3.7 3 3.7c14.8 0 38.1-25.5 41.4-37.4 9.2-30 21.5-77.7 26.3-93.2 1.5-5.2 4.8-7 9.6-7 11.8 0 39.6 17 39.6 23.7s-.7 6.7-1.5 8.9c-3.3 9.6-26.6 85.8-26.6 105.4s1.5 4.1 3 4.1c11.8 0 30.7-22.2 48.8-55.5 0 0 3.3-6.7 8.1-6.7s12.6 5.9 12.6 10.4-4.8 13-4.8 13c-20.7 37-42.2 70.7-68.8 70.7s-42.9-13.7-45.5-24.4Z"/><path class="st9" d="M1606.5 461.8h27.4c2.2 0 4.4 1.1 4.4 3.3 0 6.7-8.1 25.5-14.1 25.5h-25.5c-12.2 41.8-25.2 89.5-25.2 98s10.7 14.4 13.3 14.4c12.2 0 31.1-22.2 49.2-55.5 0 0 3.3-6.7 8.1-6.7s12.6 5.9 12.6 10.4-4.8 13-4.8 13c-20.4 37-42.2 70.7-69.2 70.7s-63.3-19.2-63.3-37.7 12.2-58.5 24.8-106.6h-12.6c-1.9 0-4.1-1.5-4.1-3.7 0-4.4 8.5-25.2 15.2-25.2h9.2c7-25.9 12.2-44.4 14.8-52.5 1.5-5.2 4.8-8.1 9.6-8.1 12.9 0 39.6 18.1 39.6 24.8s-1.1 8.1-1.5 8.9l-8.1 27Zm341.7 153.5c-10.7 0-30-1.8-45.5-5.5-18.1 16.7-36.6 25.2-52.2 25.2s-38.1-14.8-38.1-32.9 25.9-109.1 34-133.2c2.2-5.2 8.1-7.8 13.7-7.8 10.7 0 36.3 17.8 36.3 24.8 0 11.8-27.7 85.8-27.7 108.8s3 4.8 4.8 4.8 4.8-3.3 4.8-3.3c-1.1-1.1-1.8-2.6-1.8-4.8 0-7.8 14.1-26.6 23.3-26.6 14.8-22.9 29.6-54 37.4-95.5 1.1-5.5 5.9-8.1 12.6-8.1 11.1 0 31.8 19.6 31.8 30 0 19.2-19.6 54.8-47.7 89.2 5.9 4.1 9.6 4.8 13.3 4.8 24.4 0 44.4-37.4 44.4-37.4s3.7-6.7 8.1-6.7 13 5.9 13 10.4-5.2 13-5.2 13-26.3 51.1-59.2 51.1Z"/><path class="st9" d="M2192 541c4.8 0 12.6 5.9 12.6 10.4s-4.8 13-4.8 13c-20.4 37-42.2 70.7-68.8 70.7s-45.1-11.5-50.3-21.8c0 0-21.1 21.8-41.1 21.8s-51.4-23.3-51.4-43.3c0-48.5 42.2-130.6 81.4-130.6s48.8 20.3 48.8 20.3c13.3 0 35.5 4.4 35.5 13.7s-25.2 72.9-25.2 102.5 3 6.3 5.9 6.3c12.9 0 31.1-22.9 49.2-56.2 0 0 3.3-6.7 8.1-6.7Zm-108.8-43.3c-13 0-42.5 61.4-42.5 94s4.1 8.1 7.4 8.1 18.5-6.3 28.9-27.8c7.4-15.5 19.6-54.8 19.6-65.1s-7.4-9.2-13.3-9.2Zm84.4-90.7c0 4.8-3.3 7.4-6.3 9.6-23.3 15.5-62.9 39.6-67 39.6s-13.3-10.7-13.3-13.7 2.6-7.4 4.8-10c8.9-9.2 36.3-44.4 41.1-50.7 3.7-4.1 6.3-7 10-7 6.3 0 30.7 26.3 30.7 32.2Z"/><path class="st9" d="M2325.2 603.1c11.1 0 30.7-22.2 48.8-55.5 0 0 3.3-6.7 8.1-6.7s12.6 5.9 12.6 10.4-4.8 13-4.8 13c-20.3 37-42.2 70.7-68.8 70.7s-53.6-15.5-53.6-32.2c0-23.7 20.7-82.9 20.7-96.9s-3.3-7.4-7.4-7.4c-7.8 0-22.2 6.3-27 18.1-10 24.4-26.6 99.2-28.9 109.9-1.5 4.8-7.4 8.5-14.1 8.5s-35.1-9.2-35.1-19.2 28.1-121.7 35.9-146.9c2.2-5.2 9.6-7.8 15.2-7.8 8.5 0 24.8 18.1 24.8 18.1s34.4-18.1 55.5-18.1 38.1 16.3 38.1 30-22.9 88.4-22.9 108 1.1 4.1 3 4.1Z"/><path class="st9" d="M2401.7 468.8c1.5-5.2 6.7-7.8 14.8-7.8s37 17.4 37 24.4-29.6 89.2-29.6 115.1 2.6 3.3 3.7 3.3c10.7 0 30-22.9 48.8-56.2 0 0 3-6.7 7.8-6.7s12.6 5.9 12.6 10.4-5.2 13-5.2 13c-20 37-42.2 70.7-68.8 70.7s-53.6-15.5-53.6-32.2 26.3-111 32.6-133.9Zm90.7-68.1c0 4.8-3.3 7.4-6.3 9.6-23.3 15.5-62.9 39.6-67 39.6s-13.3-10.7-13.3-13.7 2.6-7.4 4.8-10c8.9-9.2 36.3-44.4 41.1-50.7 3.7-4.1 6.3-7 10-7 6.3 0 30.7 26.3 30.7 32.2Z"/><g id="kompas"><g id="cifernik"><path class="st9" d="m1726.2 508.2-5.2-6.5c.2 1 .4 2.1.6 2.9l.8 4.3-1.9.3-1.7-9.5 2.5-.4 5.3 6.6c-.2-1-.5-2.2-.6-3l-.8-4.4 1.9-.3 1.7 9.5-2.6.5Zm16.7 82.8-1.9.3c-.3-.9-.9-1.5-1.9-1.3s-1.3.6-1.1 1.4.7 1.1 2.3 1.2c2.2.1 3.3.9 3.6 2.4s-1.1 3.1-3 3.4c-2.3.4-3.9-.3-4.5-2.3l1.9-.3c.4 1 1.3 1.4 2.2 1.2.9-.2 1.5-.7 1.3-1.5s-.7-1.2-2.2-1.3c-2-.1-3.4-.6-3.7-2.3s1.1-3.1 2.9-3.4c2.3-.4 3.5.7 4 2.4Zm-52-39.5.4 2.5-7.6 3 8.2.3.4 2.5-9.1 4.1-.4-2.1 7.8-3-8.2-.3-.5-2.7 7.6-3-8.4-.3-.3-2 9.9.8Zm81.5-6.6-1.2-6.9 9.5-1.7 1.2 6.7-1.5.3-.9-4.8-2.5.4.8 4.5-1.5.3-.8-4.5-2.5.4.9 5-1.5.3Zm-35.2 34.7c-17 3-33.3-8.4-36.3-25.4s8.4-33.3 25.4-36.3 33.3 8.4 36.3 25.4-8.4 33.3-25.4 36.3Zm-10.7-60.7c-16.4 2.9-27.4 18.6-24.5 35 2.9 16.4 18.6 27.4 35 24.5 16.4-2.9 27.4-18.6 24.5-35-2.9-16.4-18.6-27.4-35-24.5Z"/><path class="st9" d="m1692.1 555.7 9-3.7.7 4.2-9.7-.5zm46.6 32.6-3.7-8.9 4.2-.7-.5 9.6zm32.7-46.6-9 3.8-.7-4.3 9.7.5zm-46.7-32.6 3.8 8.9-4.2.8.4-9.7zm-10.2 25.7c-.7-.5-1.7-.3-2.2.4-.5.7-.3 1.7.4 2.2.7.5 1.7.3 2.2-.4.5-.7.3-1.7-.4-2.2Zm3.3 31.2c-.5.7-.3 1.7.4 2.2.7.5 1.7.3 2.2-.4s.3-1.7-.4-2.2c-.7-.5-1.7-.3-2.2.4Zm31.2-3.3c.7.5 1.7.3 2.2-.4.5-.7.3-1.7-.4-2.2-.7-.5-1.7-.3-2.2.4-.5.7-.3 1.7.4 2.2Zm-3.3-31.2c.5-.7.3-1.7-.4-2.2s-1.7-.3-2.2.4c-.5.7-.3 1.7.4 2.2.7.5 1.7.3 2.2-.4Z"/><path class="st9" transform="rotate(-19 1723.708 517.895)" d="M1720.3 515h1.3v4.7h-1.3z"/><path class="st9" transform="rotate(-28 1717.875 519.48)" d="M1715.5 517.1h1.3v4.7h-1.3z"/><path class="st9" transform="rotate(-37 1713.222 522.224)" d="M1711.1 519.9h1.3v4.7h-1.3z"/><path class="st9" transform="rotate(-46 1708.932 525.632)" d="M1707.2 523.4h1.3v4.7h-1.3z"/><path class="st9" transform="rotate(-55 1705.53 529.546)" d="M1703.9 527.4h1.3v4.7h-1.3z"/><path class="st9" transform="rotate(-64 1702.696 534.03)" d="M1701.3 531.9h1.3v4.7h-1.3z"/><path class="st9" transform="rotate(-73 1700.725 538.826)" d="M1699.4 536.7h1.3v4.7h-1.3z"/><path class="st9" transform="rotate(-82 1699.479 543.85)" d="M1698.3 541.8h1.3v4.7h-1.3z"/><path class="st9" transform="rotate(-1 1742.677 565.276)" d="M1696.2 548.7h4.7v1.3h-4.7z"/><path class="st9" transform="rotate(-19 1703.759 560.015)" d="M1698 558.9h4.7v1.3h-4.7z"/><path class="st9" d="m1734.5 548.2-7.8-27.5 2.2 28.5 7.7 27.6-2.1-28.6z"/><path class="st9" d="m1732.2 551.5 27.5-7.7-28.5 2.1-27.6 7.8 28.6-2.2z"/><path class="st9" d="m1733.3 549.9 9.6-17.2-12.8 14.9-9.6 17.1 12.8-14.8z"/><path class="st9" d="m1730.6 550.3 17.1 9.6-14.9-12.8-17.1-9.6 14.9 12.8z"/><path class="st9" transform="rotate(-28 1703.718 564.303)" d="M1700.1 563.7h4.7v1.3h-4.7z"/><path class="st9" d="M1734.1 562.3c-7.5 1.3-14.6-3.7-15.9-11.1s3.7-14.6 11.1-15.9c7.5-1.3 14.6 3.7 15.9 11.1 1.3 7.5-3.7 14.6-11.1 15.9Zm-4.7-26.7c-7.2 1.3-12 8.2-10.8 15.4s8.2 12 15.4 10.8c7.2-1.3 12-8.2 10.8-15.4-1.3-7.2-8.2-12-15.4-10.8Z"/><path class="st9" transform="rotate(-37 1706.492 568.658)" d="M1702.9 568h4.7v1.3h-4.7z"/><path class="st9" transform="rotate(-46 1709.733 572.543)" d="M1706.4 571.9h4.7v1.3h-4.7z"/><path class="st9" transform="rotate(-55 1713.592 575.737)" d="M1710.4 575.2h4.7v1.3h-4.7z"/><path class="st9" transform="rotate(-64 1717.803 578.406)" d="M1714.9 577.9h4.7v1.3h-4.7z"/><path class="st9" transform="rotate(-73 1722.949 580.157)" d="M1719.7 579.8h4.7v1.3h-4.7z"/><path class="st9" transform="rotate(-82 1727.547 581.377)" d="M1724.8 580.9h4.7v1.3h-4.7z"/><path class="st9" transform="rotate(-1 1793.942 600.102)" d="M1731.7 579.5h1.3v4.7h-1.3z"/><path class="st9" transform="rotate(-19 1745.48 580.512)" d="M1741.9 577.7h1.3v4.7h-1.3z"/><path class="st9" transform="rotate(-28 1748.84 578.11)" d="M1746.7 575.6h1.3v4.7h-1.3z"/><path class="st9" transform="rotate(-37 1752.976 575.238)" d="M1751.1 572.8h1.3v4.7h-1.3z"/><path class="st9" transform="rotate(-46 1756.693 571.624)" d="M1754.9 569.4h1.3v4.7h-1.3z"/><path class="st9" transform="rotate(-55 1759.833 567.58)" d="M1758.3 565.4h1.3v4.7h-1.3z"/><path class="st9" transform="rotate(-64 1762.248 563.01)" d="M1760.9 560.9h1.3v4.7h-1.3z"/><path class="st9" transform="rotate(-73 1764.13 558.137)" d="M1762.8 556h1.3v4.7h-1.3z"/><path class="st9" transform="rotate(-82 1765.167 553.086)" d="M1763.9 551h1.3v4.7h-1.3z"/><path class="st9" transform="rotate(-1 1811.48 560.146)" d="M1762.5 547.5h4.7v1.3h-4.7z"/><path class="st9" transform="rotate(-19 1764.533 538.241)" d="M1760.7 537.3h4.7v1.3h-4.7z"/><path class="st9" transform="rotate(-28 1763.45 533.187)" d="M1758.6 532.5h4.7v1.3h-4.7z"/><path class="st9" transform="rotate(-37 1759.058 528.754)" d="M1755.8 528.1h4.7v1.3h-4.7z"/><path class="st9" transform="rotate(-46 1756.178 524.695)" d="M1752.4 524.2h4.7v1.3h-4.7z"/><path class="st9" transform="rotate(-55 1751.626 521.435)" d="M1748.4 520.9h4.7v1.3h-4.7z"/><path class="st9" transform="rotate(-64 1747.091 518.714)" d="M1743.9 518.3h4.7v1.3h-4.7z"/><path class="st9" transform="rotate(-73 1742.142 516.77)" d="M1739.1 516.4h4.7v1.3h-4.7z"/><path class="st9" transform="rotate(-82 1737.099 515.559)" d="M1734 515.3h4.7v1.3h-4.7z"/><path class="st9" transform="rotate(-1 1760.215 525.32)" d="M1730.5 513.2h1.3v4.7h-1.3z"/><path class="st5" d="M1730.3 540.8h-.3l-30.9-15 24.6 23.9v.3c.8 4.4 5 7.3 9.3 6.5h.3l30.9 15-24.6-23.9v-.3c-.8-4.4-5-7.3-9.3-6.5Z"/><path class="st1" d="m1730 540.9-30.9-15 24.6 23.9v.3c.4 2.2 1.6 4 3.3 5.2l9.2-13.2c-1.7-1.2-3.8-1.7-6-1.3s-.2 0-.3 0Z"/><path class="st2" d="m1731.7 548.7-4.6 6.6c-.6-.4-1.2-1-1.7-1.6 1.8 2.2 4.7 3.4 7.7 2.9s.2 0 .3 0l30.9 15-32.6-22.8Z"/><path class="st8" d="m1731.7 548.7 4.6-6.6c-.3-.2-.5-.3-.8-.5-.6-.3-1.3-.6-2-.8-1-.2-2.1-.3-3.2 0s-.2 0-.3 0l-30.9-15 32.6 22.8Z"/><circle class="st13" cx="1731.7" cy="548.7" r="5.2"/><path class="st9" d="M1731.3 544c1.6-.3 3.1.2 4.3 1.1-1.2-1.3-2.9-2-4.8-1.6-2.9.5-4.8 3.2-4.3 6.1s.9 2.3 1.8 3.1c-.7-.7-1.1-1.6-1.3-2.6-.5-2.9 1.4-5.6 4.3-6.1Z"/><path class="st2" d="M1734.2 544.1c.8.8 1.5 1.8 1.7 3 .5 2.9-1.4 5.6-4.3 6.1-1.2.2-2.4 0-3.4-.5 1.2 1 2.8 1.6 4.4 1.3 2.9-.5 4.8-3.2 4.3-6.1-.3-1.7-1.3-3-2.7-3.7Z"/></g><path class="st9" d="M1710.3 425.8c-10.3 1.8-17.2 11.7-15.3 21.9 1.2 6.7 5.8 12 11.7 14.3 1.8.7 3.7 1.2 5.7 1.3 1.5 0 3 0 4.5-.3s2.9-.7 4.3-1.3c1.8-.8 3.5-1.9 5-3.2 4.8-4.2 7.3-10.8 6.1-17.5-1.8-10.3-11.7-17.2-21.9-15.3Zm14.9 27.9c-2.2 2.8-5.3 4.8-9.1 5.4-3.7.7-7.4-.1-10.4-2-3.5-2.1-6.1-5.7-6.9-10.1-1.4-8.1 4-15.8 12.1-17.2 8.1-1.4 15.8 4 17.2 12.1.8 4.4-.4 8.6-3 11.8Z"/><path class="st8" d="M1725.2 453.7c-2.2 2.8-5.3 4.8-9.1 5.4-3.6.6-7.2-.1-10.2-1.9.5.4 1.1.8 1.6 1.2 3 1.8 6.6 2.6 10.4 2 3.7-.7 6.9-2.7 9.1-5.4 2.6-3.2 3.8-7.5 3-11.8s-3.5-8.1-7.1-10.2c2.7 2.2 4.6 5.3 5.2 8.9.8 4.4-.4 8.6-3 11.8Z"/><path class="st8" d="M1712.1 427.1c4.7-.8 9.4.2 13.2 2.5-4.1-3.2-9.5-4.8-15-3.8-10.3 1.8-17.2 11.7-15.3 21.9 1 5.5 4.3 10.1 8.8 12.8-3.5-2.8-6.1-6.8-6.9-11.5-1.8-10.3 5.1-20.1 15.3-21.9Z"/><path class="st4" d="M1728.7 433.2c1.3 2 2.2 4.4 2.7 6.9 1.2 6.7-1.3 13.3-6.1 17.5-1.5 1.3-3.1 2.4-5 3.2-1.3.6-2.8 1-4.3 1.3s-3 .3-4.5.3c-2-.1-3.9-.6-5.7-1.3-3.3-1.3-6.2-3.5-8.3-6.3 2.2 3.4 5.4 6 9.1 7.5 1.8.7 3.7 1.2 5.7 1.3 1.5 0 3 0 4.5-.3s2.9-.7 4.3-1.3c1.8-.8 3.5-1.9 5-3.2 4.8-4.2 7.3-10.8 6.1-17.5-.5-3-1.8-5.7-3.5-8Z"/><path class="st9" d="m1725 452.6 2.2 12.4-19.4 3.4-2.2-12.4c5.1-5.1 12.9-6.5 19.4-3.4Z"/><path class="st3" d="M1725 452.6c-1.9-.9-4-1.4-6-1.6l2.6 15 5.6-1-2.2-12.4Z"/><path class="st10" transform="rotate(-10 1716.804 459.447)" d="M1711.4 453h1.6v11.3h-1.6z"/><path class="st9" d="M1671.5 506.5c11.9-17.1 29.8-28.5 50.3-32.1 19.8-3.5 39.8.7 56.6 11.7-.6-.4-1.1-.8-1.7-1.2-17.1-11.9-37.8-16.5-58.3-12.9-20.5 3.6-38.4 15-50.3 32.1-11.9 17.1-16.5 37.8-12.9 58.3 3.6 20.5 15 38.4 32.1 50.3.6.4 1.1.8 1.7 1.2-16.1-11.9-26.9-29.3-30.4-49.1-3.6-20.5.9-41.2 12.9-58.3Z"/><path class="st9" d="M1718.7 473.5c-41.6 7.3-69.4 47.1-62.1 88.7 7.3 41.6 47.1 69.4 88.7 62.1 41.6-7.3 69.4-47.1 62.1-88.7-7.3-41.6-47.1-69.4-88.7-62.1Zm25.6 145c-38.4 6.8-75.2-18.9-82-57.4-6.8-38.4 18.9-75.2 57.4-82 38.4-6.8 75.2 18.9 82 57.4 6.8 38.4-18.9 75.2-57.4 82Z"/><path class="st9" d="M1781.4 478.2c-9.9-6.9-20.8-11.6-32.3-13.9-7.3-1.5-14.8-2-22.3-1.5-3.3.2-6.5.6-9.8 1.2s-6.5 1.3-9.6 2.3c-18.6 5.5-34.7 17.1-46 33.2-13.4 19.2-17.9 42-14.4 63.4v.2c3.7 22 15.9 42.6 35.6 56.4 18.9 13.2 41.7 18.3 64.4 14.2 22.7-4 42.4-16.6 55.6-35.5 27.2-38.9 17.7-92.8-21.2-120Zm-124.8 84c-7.3-41.6 20.5-81.4 62.1-88.7 41.6-7.3 81.4 20.5 88.7 62.1 7.3 41.6-20.5 81.4-62.1 88.7-41.6 7.3-81.4-20.5-88.7-62.1Z"/><path class="st12" d="M1780.1 480.1c-18.3-12.8-40.6-17.8-62.6-13.9-22.1 3.9-41.3 16.1-54.1 34.5-12.8 18.3-17.8 40.6-13.9 62.6s16.1 41.3 34.5 54.1c18.3 12.8 40.6 17.8 62.6 13.9 22-3.9 41.3-16.2 54.1-34.5 26.5-37.9 17.2-90.2-20.6-116.7Zm-33.8 149.7c-44.7 7.9-87.4-22-95.3-66.7-7.9-44.7 22-87.4 66.7-95.3 44.7-7.9 87.4 22 95.3 66.7 7.9 44.7-22 87.4-66.7 95.3Z"/><path class="st11" d="M1661.4 499.4c-13.4 19.2-17.9 42-14.4 63.4v.2c4.1 21.3 16.1 41.2 35.3 54.6.6.4 1.2.8 1.7 1.2-37.5-27.6-46.4-80.5-19.6-118.8 10.7-15.3 25.5-28 42.9-33.8-18.6 5.5-34.7 17.1-46 33.2Z"/><circle class="st14" cx="1732" cy="548.9" r="70.9"/></g></g></g></svg>