<svg width="212" height="212" viewBox="0 0 212 212" fill="none" xmlns="http://www.w3.org/2000/svg"><path d="m7.358 205.923-7-7.2 1.1-31.2 2.4-154.7 3.5-9h192.4l4.7 5v17.8l-2.2 167.4-2.2 9.7-9 3.9h-10l-173.7-1.7Z" fill="white"/><path d="M208.658 127.723c.3.2.5.4.3.8-.4 1-.5 1.3-.1 2.1.1.2.2.5.2.7v2.9c0 .5-.5.8-.4 1.4.1.5 0 1 0 1.5v3c0 .2-.2.4-.3.7.1.1.2.2.3.4-.5.3-.5.8-.3 1.2.5.8.5 1.5 0 2.3-.1.1 0 .4-.1.6-.1.3.7.7 0 1v1.2c0 .3.1.5.3.7.1.1.1.4.1.5-.4.3-.4.6-.3 1v8.7c0 .7.2 1.4-.4 2-.1.1-.1.4 0 .6.7.8.2 1.8.4 2.8-.6.5-.3 1.2-.4 1.8 0 .3.3.4.4.6-.5.3-.4.8-.4 1.2-.7.6-.3 1.3-.3 2 .5.3.3.8.3 1.2 0 .7.1 1.4-.4 2-.1.1-.1.5 0 .6.6.6.3 1.3.4 2v2.3c-.7.5-.2 1.3-.5 2-.1.1-.3.2-.3.3.3 1.4.5 2.5.3 3.1-.1.2-.3.3-.3.6v2.3c.3.3.5.7.4 1.2 0 .3 0 .5-.2.7-.3.3-.1.5.1.8.1.1.2.5.1.5-.6.4-.3 1.1-.3 1.6s-.2 1 .3 1.4c0 .8.1 1.5.1 2.3-.7.9-.3 2-.4 2.9-.1.5.2 1-.3 1.4-.1.1-.1.5 0 .7.1.5-.2.9-.4 1.4-.4.8-.4.8-.4 1.6 0 .4.1.8-.1 1.1-.5.6-.5 1.4-1.1 1.9-.4.3-.7.7-1.1 1.1.1.6-.1 1.2-.8 1.3-.4.1-.5.6-1 .4-.2.3-.5.3-.8.4-.3.1-.5.3-.8.4-.3.1-.5.4-.7.7-.4.4-1 .7-1.8.8-.4.1-.5.5-1 .4-.3-.1-.7 0-1.1.3-.2.2-.8 0-1.1.1-1.1.7-2.2.2-3.3.4-.2 0-.3-.1-.5-.2-.4-.2-.4-.2-.9.2h-7.3c-.1-.1-.3-.2-.4-.3-.2.1-.4.3-.7.3h-3.3c-.4 0-.5-.3-.8-.4-.3-.1-.6 0-1 0-.3 0-.6.1-.8.3-.1.1-.3.1-.3.1-.8-.7-1.8-.3-2.7-.4-1-.1-1.9 0-2.9 0-.4 0-.5.5-1 .4-.3-.1-.6 0-1 0s-.7-.5-1.2-.4c-.4.1-.9 0-1.3 0h-2.7c-.2-.2-.5-.6-.8-.3-.3.2-.5.3-.8.3h-6.4c-.3 0-.6 0-.8-.3 0 0-.3.2-.4.3-.1-.1-.2-.2-.4-.3h-1.3c-.4 0-.7.5-1.2.4-.4-.1-.8 0-1.2 0h-2.5c-.2-.1-.3-.2-.5-.3-.3.5-.8.3-1.2.3h-.2c-1.1-.2-2.3.4-3.3-.4-.8.2-1.8-.4-2.6.4h-2.1c-.6 0-1.3.3-1.8-.4h-2.3c-.1 0-.2.2-.3.2-.2.1-.4.2-.5.1-.5-.5-1-.5-1.5-.1-.1.1-.4.1-.5 0-.4-.5-.9-.2-1.4-.3-.7.7-1.6.3-2.4.4-.8.1-1.5 0-2.3 0-.1 0-.2-.2-.3-.2-.3-.2-.3-.2-.7 0-.2.1-.3.3-.5.2-.7-.1-1.5.3-2.2-.4h-2.5c-.1 0-.2.1-.3.2-.4.4-.8.1-1.3.2-.6-.6-1.4-.3-2.2-.4h-2.1c-.7.7-1.6.3-2.4.4-.4-.5-.9-.4-1.4-.4-.5 0-1-.1-1.4.4-.1.1-.6.1-.7 0-.3-.6-1.2-.1-1.5-.7h-1.3c-.2.4-.7.3-1 .3-.4 0-.8 0-1.2.3-.3.3-.9.1-1.2-.3h-4.6c-.8 0-1.7.4-2.4-.4h-6.6l-.1.1c-.4.4-1 .4-1.4.1-.4-.2-.7-.3-1-.3h-6c-.4 0-.7 0-1 .3-.3.3-.6-.1-.8-.3h-18.7c-.5 0-1 .1-1.4-.4-.1-.1-.6-.1-.7 0-.4.4-.8.4-1.2.4h-2.5c-.7 0-1.2-.7-2-.4-.4.1-.9-.2-1.2.3-.7.1-1.5.2-2.2-.1-.5-.3-1-.3-1.6 0-.1.1-.5.2-.5.2-.4-.5-.9-.4-1.4-.4-.2 0-.3-.2-.5-.3-.3-.2-.7-.2-.9-.1-.3.2-.5.3-.8.4-.9.4-.9.5-1.6-.2-.3-.3-.6-.4-1 0-.1.1-.3.1-.5.1-.5.1-1.2-.2-1.6.4-.4 0-.7.1-1-.3-.4-.5-.8-.8-1.4-.3-.1.1-.2.2-.3.2-.7-.1-1.5.4-2.2-.4-.5 0-1.2-.2-1.6.4l-.4-.4h-2.3c-.3 0-.4.2-.7.3-.3.1-.6 0-.9.1-.3-.5-.8-.3-1.2-.3-.4 0-.7 0-1 .3-.2.2-.7.2-1-.1-.4-.3-.8-.3-1.2.1-.1.1-.5.2-.5.1-.3-.5-.8-.4-1.2-.4h-3.7c-.4 0-.9.2-1.2-.3h-.1c-.6.6-1.5.3-2.2.3-1 0-2 .3-2.9-.4h-2.2c-.5-.9-1.6-.9-2.4-1.5-.4 0-.4-.3-.5-.6-.2-.4-.6-.7-.9-1-.4-.3-.5-.9-.8-1.2-.3-.3-.5-.7-.7-1.1-.1-.2-.2-.3-.2-.5v-1.2c0-.5.1-1-.4-1.4v-3.2c-.6-.8-.3-1.8-.4-2.7.5-.5.4-1.2.4-1.8 0-.5.2-1-.4-1.4.1-.5-.3-1 .2-1.4.1-.1.1-.2.1-.3v-1.7c.5-.3.5-.7.3-1.2-.3-1.3-.3-1.3 0-2.3.1-.3.1-.7 0-.9-.2-.3-.3-.5-.3-.9.1-.7-.4-1.5.4-2.2v-3.5c-.7-.5-.3-1.3-.4-2 .5-.3.4-.8.4-1.2 0-.4.1-.8-.3-1.1-.1.1-.1-.2-.1-.4.1-.9-.3-1.9.4-2.7v-4.1c0-.1-.1-.2-.2-.3-.4-.4-.1-.7.2-1v-6.7c0-.4 0-.8-.4-1v-1.5l.4-.4c-.2-.2-.6-.5-.3-.8.2-.3.3-.5.3-.8v-1.9c0-.4.7-.7 0-1-.1-.4.1-.7-.3-1.1-.3-.3-.1-.8-.1-1.3.6-.4.4-1 .4-1.6v-5c0-.4 0-.7-.3-1.1-.3-.4-.2-1 .1-1.4.3-.4.3-.8 0-1.2-.3-.5-.3-.9-.1-1.4 0-.1.2-.2.3-.3-.2-.2-.6-.5-.3-.8.3-.3.4-.6.4-1v-6.6c0-.6-.2-1.3.4-1.8.1-.1.1-.4 0-.6-.5-.6-.4-1.3-.4-2v-4.3c0-1 0-1 .6-2.2.1-.3.1-.5.1-.7 0-.1-.1-.3-.1-.3-.3-.1-.8-.1-.6-.7.1-.5-.4-.6-.4-1v-.6c-.1-.1-.2-.3-.3-.4l.7-.7c0-.3.1-.6 0-.9-.1-.3-.3-.5-.4-.8-.1-.8-.1-1.6 0-2.3.1-.5.5-.8.4-1.4-.1-.6 0-1.2 0-1.7v-3.2c-.1-.2-.3-.4-.3-.4.7-.7.3-1.5.3-2.2 0-.4-.3-.7-.6-1.1-.1-.1-.2-.2 0-.3l.3-.3v-1.7c0-.2-.2-.3-.2-.5-.1-.2-.1-.4-.1-.5.1-.2.3-.3.4-.6.1-.5-.3-1.2.3-1.6 0-.6.1-1.1.1-1.7v-4c0-.4.1-.9-.3-1.2-.5-.3-.4-.8-.4-1.1.2-.5.4-1 .4-1.6-.1-.6-.1-1.2 0-1.7.1-.7-.3-1.4.4-2-.1-.6.2-1.2-.2-1.8-.3-.4-.4-1.1.1-1.6.1-.1.1-.4 0-.5-.4-.3-.3-.7-.3-1v-2.3c0-.5-.2-1.1.2-1.5.4-.3 0-.9.4-1.2.1-.1.2-.3.2-.5v-1.4c0-.2-.2-.4-.4-.7v-2.8c0-.6-.3-1.3.4-1.8 0-.4.1-.9-.1-1.1-.3-.3-.3-.6-.3-1v-2.1c.5-.4.3-.9.3-1.4 0-.3.2-.6.3-.8.1-.2 0-.6.1-.9.1-.4-.5-.5-.4-1 .1-.4.1-.8 0-1.2 0-.2-.2-.3-.4-.4.3-.3.8-.5.3-1-.2-.2-.3-.4-.2-.7.1-.3.4-.7.3-1 0-.3-.4-.6-.4-1 0-.2-.1-.5 0-.6.7-.9.2-2 .4-2.9 0-.1-.2-.3-.2-.5-.2-.3-.2-.4 0-.6.2-.2.2-.4.2-.7v-8.6c0-.3.1-.5.3-.7.2-.2.1-.5-.1-.7-.2-.2-.2-.3 0-.4.4-.4.1-.9.2-1.3-.6-.6-.4-1.3-.4-2v-3.7c0-.5-.1-1 .4-1.4.1-.1.1-.6 0-.7-.4-.3-.4-.8-.4-1.2v-2.9c0-.3.1-.6.3-.9.2-.4.1-.8.1-1.3-.5 0-.3-.5-.3-.9v-3.3c0-.5-.2-1.1.2-1.4.4-.3-.1-.9.4-1.2.1-.1.1-.4.2-.5v-1.5c0-.4 0-.9.4-1.2.1-.1 0-.5 0-.7l1.5-1.5v-.8c.7-.9 1.4-1.6 2.1-2.3.2-.2.4-.3.6-.4.9-.5 1.7-.9 2.8-.8.6.1 1.2 0 1.7 0 .6 0 1.3.3 1.8-.4h3c.4 0 .7-.5 1.2-.4.4.1.9 0 1.3 0h3.1c.4.5.8.6 1.3.2.5-.4.9-.2 1.4-.2.8.7 1.7.2 2.6.3.3-.3.7-.4 1.2-.4s.6.4 1 .4h11.4c.4 0 .9.1 1.2-.4.1-.1.3-.1.5.1.1.1.3.2.5.2.4 0 .6-.8 1.1-.2.4.4.8.2 1.3.2h1.4c.3 0 .4.2.6.3.2.1.6.2.7 0 .5-.5 1-.4 1.6-.4h4.4c.5 0 1-.2 1.4.4.6-.7 1.4-.3 2.2-.4.6-.1 1.2-.2 1.8.3.1.1.5 0 .7 0 1.2 0 1.2 0 2.2.4.4.2.6-.1.8-.3h3.5c.4 0 .6.2.8.4.3-.5.9-.3 1.4-.4.3 0 .6.1.9.3.4.2 1 .2 1.3 0 .4-.2.7-.3 1-.3h2.5c.4 0 .7 0 1 .3.1.1.6.2.7 0 .9-.7 1.8-.2 2.8-.4.1 0 .2.2.3.2.3.2.7.3 1 0 .4-.4.8-.2 1.3-.2.9.7 2 .3 2.9.4h.6c.3 0 .6-.1.8-.3.3-.2.7-.2 1 .1.4.5.7.1.9-.2h1.3c.4 0 .7.5 1.2.4.4-.1.9 0 1.3 0h2.8c.6 0 1.1.1 1.6-.4.1-.1.6-.1.7 0 .3.3.6.3 1 .3h3.3c.3 0 .4-.2.6-.3.1 0 .4.3.6.3.2 0 .5 0 .7-.1.1 0 .1-.1.1-.1.3-.3.6-.1.9-.1.3.5.9.4 1.4.4.1 0 .2.1.3.1.1.1.2.3.4.1.2-.3.6-.1.9-.2.2-.1.4-.3.6-.4.1 0 .3-.1.4 0 1.2.7 2.5.3 3.7.4.2 0 .3.2.4.4.2-.4.6-.4 1-.4h1c.2.3.5.6.8.3.3-.2.5-.3.8-.3h3.3c.3 0 .6.1.8.3.2.1.6.2.7.1 1-.8 2.1-.2 3.1-.4.1 0 .2.2.3.2.2.1.5.2.5.1.4-.5.9-.4 1.4-.4h.9c.2.1.4.4.5.3.2-.1.3-.3.6-.3.7 0 1.4 0 2.1.1.2.4.5.3.7-.1h2.5c.4 0 .5.5 1 .4.3-.1.6 0 1 0 .3 0 .4-.3.6-.4.3.5.8.4 1.2.4.4 0 .8.1 1-.3 0 0 .1-.1.2-.1.7-.2 1.2.2 1.8.4.4-.5 1-.4 1.6-.4.3.6 1.1.1 1.5.6.1.1.5.1.5.1.3-.6 1.2-.1 1.5-.7h1.3c.2.4.7.3 1 .3.3 0 .6-.1.9-.1.4-.6.5.2.9.1.3-.1.6 0 1 0h3.2c.3-.4.8-.5 1.2-.3.3.1.5.3.8.3h4.3c.2 0 .4-.1.5-.2.2-.2.2-.1.4 0 .4.3.5.2 1.5.2h4.8c.3.5.8.5 1.2.3.3-.1.5-.3.8-.3h3.9c.3 0 .5.2.8.3.9-.7 1.9-.1 2.8-.3.3-.1.4.3.6.3.2 0 .3-.4.6-.3.6.1 1.3-.2 1.8.4.7-.1 1.5.2 2.2-.3.3-.2.9-.2 1.3 0 1.1.3 1.1.3 2.2 0 .4-.1.8 0 1.1-.1.6.6 1.3.4 2 .4 1.2 0 2.3.1 3.5 0 .8 0 1.7.4 2.4-.4h2.3c.1 0 .2.2.3.3.3.1.6.2.9.1 1.3-.4 1.3-.4 3 0 .2.1.5.1.7.1.5-.1.9.2 1.4.4.3.1.5.6 1 .4.4-.1.6.2.8.4.7-.2 1 .3 1.5.7.4.4.7.8 1.3 1 .2 0 .4.2.4.4.1.8.9 1 1.2 1.7 0 .3 0 .6.2 1s.7.9.5 1.5c.4.4.4.9.4 1.4 0 .2.1.3.2.5.3.5.3 1 .1 1.4-.1.2-.3.3 0 .6.2.3.2.7.5.9-.1.5.2.8.4 1.2.2.3 0 .8 0 1.1v.4c-.1.9.3 1.9-.4 2.7 0 .7.1 1.4-.4 2v.2c.6.5.3 1.2.4 1.8 0 .2.2.3.2.5.2.5.2.9 0 1.4-.3.8-.4 1.7-.1 2.3.2.3.3.5 0 .8-.3.3-.3.7-.5 1-.2.2-.2.7.2 1 .2.1.2.2 0 .3-.1.1-.3.3-.3.5.1.7-.3 1.5.4 2.2-.1.5.2 1-.3 1.4-.1.1-.1.4 0 .5.5.4.3.9.3 1.4-.6.6-.4 1.3-.4 2v2.7c0 .7-.3 1.4.4 2-.1.6.3 1.3-.2 1.8-.1.1-.1.3-.1.5v5c0 .2 0 .4.2.5.4.4.2 1 .2 1.4-.7.7-.3 1.6-.3 2.3.5.3.2.8.3 1.2.2.8-.5 1.4-.4 2.2.1.8 0 1.5 0 2.3 0 .1-.1.2-.2.3-.3.3-.1.6-.1.9.5.3.4.9.4 1.4 0 .6.1 1.3 0 1.9-.1.9.3 1.8-.4 2.5v2.1c0 .5.3 1.2-.3 1.6 0 0 .1.2.1.3.3.8.3 1.4-.1 1.9s0 .7.2 1v4.2c0 .4 0 .9-.4 1.2.8.8.2 1.7.4 2.6.1.6.2 1.2-.3 1.8-.1.1-.1.6.1.7.3.3.2.5 0 .7-.1.1 0 .4.3.8v1.7c0 .4-.5.7-.4 1.2.1.4 0 .8 0 1.2v1.3c-.3.2-.6.5-.3.8.2.3.3.5.3.8.1.7-.3 1.5.3 2.2 0 0-.1.2-.2.3-.4.4 0 .7.2.9-.1.2-.3.4-.3.7v3.6c.3.3.7.5.2 1-.3.3-.2.7-.5 1-.1 0 0 .3 0 .5.4 1 .4 1.2-.1 2.2 0 .6-.6.9-.4 1.6.1.5-.1 1.1.4 1.6.1.1 0 .5 0 .8v6.2c0 .4 0 .7.3 1.1.2.2.1.7.1 1.1-.5.5-.4 1.2-.4 1.8 0 .3-.3.4-.3.6 0 .5-.3 1 .2 1.4.1.1.2.3.1.5-.1.8.4 1.7-.4 2.4-.1.9-.1 1.8-.1 2.7Zm-6.5 31.3v-12.4c0-.5-.2-1.2.4-1.6-.1-.3.1-.6-.1-.9-.4-.6-.3-.6-.1-1.2.1-.2.2-.3.2-.5 0-.7.2-1.5-.4-2.2-.1-.1 0-.5.1-.7.1-.2.4-.4 0-.6-.2-.1-.1-.4-.1-.5-.2-.6.3-.9.4-1.4 0-.7.3-1.5-.4-2.2 0-.7-.1-1.4 0-2.1.1-.4.4-.7.6-1.1.2-.5.2-.5-.1-1.2 0-.1-.1-.1-.1-.1v-2.1c0-.3.3-.4.4-.6.1-.1.1-.3 0-.4-.5-.3-.3-.8-.4-1.2-.2-.7.4-1 .4-1.6v-5.3l-.8-.8v-.5c0-.2.1-.3.2-.5.2-.3.2-.7.5-1 .2-.2 0-.6 0-.9v-.6c-.3-.3-.7-.5-.2-.9.2-.2.2-.4.2-.7v-7.5c0-.3-.1-.6-.3-.8-.1-.1-.1-.4 0-.5.3-.2.3-.5.3-.9s0-.7-.4-1c-.1-.1-.1-.6 0-.7.5-.4.4-.9.4-1.4v-6.6c0-.3.1-.6.3-.9.3-.4.2-.9 0-1.4-.1-.2-.2-.3-.2-.5v-2.5c0-.8-.3-1.7.4-2.4-.1-.5.1-1.1-.2-1.7-.3-.5-.3-2.8-.1-3.3.2-.3.3-.5.3-.9 0-.5.2-1-.4-1.4v-2.3c0-.4.3-.5.4-.8.1-.4 0-.8 0-1.1-.5-.3-.3-.8-.3-1.2 0-.6-.1-1.1.4-1.6v-2.9c-.7-.8-.3-1.8-.4-2.7-.1-1 0-2.1 0-3.1 0-.4-.1-.9.4-1.2 0-.3.2-.7-.1-.9-.2-.2-.3-.4-.3-.7v-4.3c.4-.3.4-.6.4-1s.2-.9-.3-1.2c0-.6 0-1.3-.1-1.9 0-.3.1-.6.3-.8.2-.3.2-.7-.1-1-.5-.4 0-.7.2-.9v-2.5c0-.2-.2-.3-.2-.5-.1-.2-.2-.5-.1-.5.4-.3.3-.6.4-1 0-.7-.3-1.5.4-2.2-.1-.6.2-1.3-.3-1.8-.2-.2-.1-.5.2-.6.2-.2.3-.4.1-.7-.5-.5-.3-1.1-.1-1.6.1-.2.2-.4.2-.7v-1.5c0-.5-.1-1 0-1.5.1-.6-.3-.9-.4-1.4-.2-.7.2-1.3.6-1.9.2-.4-.2-.4-.2-.6 0-.5-.1-1 0-1.5.1-.6-.2-.9-.4-1.4-.1-.3-.1-.6.3-.8.1-.1.1-.2 0-.3-.4-.3-.4-.8-.2-1 .3-.3.4-.7.3-1-.2-.5.4-.7.4-1.2v-2.8l-.8-.8v-1.5c0-.5-.1-1 0-1.5.1-.6-.3-.9-.4-1.4-.1-.7 0-1.4 0-2.1 0-.5.1-1.1 0-1.5-.1-.4-.6-.8-.7-1.3-.1-.4-.3-.6-.5-.7-.3-.2-.2-.6-.4-.9h-1.7c-.5 0-1 0-1.5-.1-.5-.8-1 .2-1.4.1-.1 0-.3.1-.4 0-.7-.7-1.6-.3-2.4-.4-.2 0-.4 0-.5.1-.4.5-1 .2-1.4.2-.2 0-.3-.4-.6-.3-.9.1-1.8-.3-2.6.4-.1.1-.5 0-.7-.1-.2-.1-.4-.3-.6-.3h-5.2c-.2 0-.4.1-.5.2-.4.4-.7 0-.9-.2h-5.2c-.2 0-.5-.1-.7.1-.4.5-1 .2-1.4.2-.3-.6-.9-.4-1.4-.4h-9.7c-1 0-2-.4-2.9.4-.1.1-.3 0-.3-.1-.2-.3-.5-.3-.8-.3h-4.4c-.3 0-.5 0-.7-.2-.3-.3-.3.2-.7.2h-2.5c-.2 0-.4 0-.5-.1-.4-.5-1-.1-1.4-.2-.7.7-1.6.3-2.3.3-.5-.6-1.2-.3-1.8-.3-.3 0-.6.4-1 .4h-5.2c-.3 0-.5-.1-.7-.2-.7-.3-1.5-.3-2.2 0-.6.3-1.1.3-1.7 0-.5-.3-1.2-.3-1.8 0-.5.3-1.1.3-1.6 0s-.9-.2-1.4-.1c-.4.5-.9.3-1.4.3-.6 0-1.1 0-1.7-.1-.1 0-.2-.2-.3-.2-.2 0-.4 0-.5.1-.2.2-.4.3-.7.3h-2.7l-.3-.3c-.5-.2-1-.2-1.4.1-.5.3-1 .2-1.4.2-.3-.5-.8-.3-1.2-.3h-15.3c-.7 0-1.5.2-2.2-.4-.1-.1-.4-.1-.6 0-.4.3-.7.4-1.2.4-.1 0-.3.3-.4.3-.1 0-.3-.3-.4-.3-.4-.1-.8 0-1.1 0-.4-.7-.7.1-1 0-.8-.1-1.5-.1-2.3 0-.9 0-1.8-.2-2.6.4-.1.1-.5 0-.7-.1-1.2-.4-1.3-.6-1.6-.6-.5 0-1-.1-1.5 0-.6.1-.9-.2-1.4-.4-.2-.1-.4-.1-.6 0-.3.2-.4.4-.8.4-.4-.1-.7 0-1.1-.3-.4-.3-.9-.2-1.4.1-.6.4-1.2.2-1.8.1-.3-.5-.8-.3-1.2-.3h-4.9c-.2 0-.3-.5-.5-.3-.3.3-.6.3-.9.3h-1.7c-.4.5-.8.6-1.3.2-.5-.3-1-.3-1.4-.1-.4.2-.7.3-1 .3-.5-.1-1.2.2-1.6-.3-.4 0-.9 0-1.3-.1-.5-.1-.8-.5-1.4-.4-.4.1-.9 0-1.3 0h-2.6c-.5 0-.9.1-1.3 0-.5-.1-.8.4-1.2.4-.6 0-1.3.2-1.8-.4-.1-.1-.6-.1-.7 0-.3.3-.6.3-1 .3h-2.9c-.4 0-.7-.1-1.1-.3-.3-.2-.9-.1-1.3 0-.3.1-.5.3-.9.3h-3.1c-.4 0-.8 0-1-.4 0-.1-.4 0-.5.1-.4.4-.8.3-1.2.1-.7-.3-1.7-.4-2.3-.1-.5.3-.9.3-1.3-.1-.1-.1-.4-.1-.5 0-.2.2-.4.3-.7.3-.5-.1-1.2.2-1.6-.4-.9.2-1.9-.4-2.8.4-.1.1-.6.1-.7 0-.3-.3-.6-.4-1-.4h-5.3c-.6 0-1.3.1-1.9 0-.6-.1-1.1.3-1.6.4-.9 0-1.8.3-2.6-.3-.1-.1-.5-.1-.6 0-.5.5-1.2.4-1.8.4-.5 0-1 .2-1.4-.4h-1.5c-.2 0-.4 0-.5.1-.3.4-.7.2-.9.2-1.2.7-1.6 2-2.2 3-.3.5-.4 1-.4 1.6.1 1.2 0 2.4 0 3.7 0 .4.1.9-.4 1.2 0 .4-.1.7.2 1.1.2.2.2.4 0 .6-.3.3-.2.7-.2 1.1 0 .1.2.2.3.3.1.3.1.6.4.8-.1.2-.3.4-.3.6-.1.4-.1.8 0 1.2.1.5-.3.8-.4 1.2 0 .2-.1.5.1.7.5.5.3 1 .1 1.6-.1.2-.2.3-.2.5v2.3c0 .7-.1 1.4 0 2.1.2.8-.5 1.4-.4 2.2v2.1c0 .4.1.7.3 1 .2.4.2.9-.1 1.4-.4.6-.3 1.2 0 1.8.1.3.3.5.2.9 0 .3.1.7 0 .9-.3.3-.4.6-.4 1v5.6c.2.2.6.5.3.8-.5.6-.5 1.2 0 1.9.1.2.1.6 0 .9-.1.2-.3.4-.3.7v1.7c0 .4 0 .7-.4 1-.1.1-.1.4-.3.6-.3.5.2.6.2.9 0 .4.4.7.4 1.2-.1 1.4 0 2.7 0 4.1 0 .4.1.8-.3 1-.1 0-.1.3 0 .3.7.8.3 1.7.4 2.6.1.8 0 1.5 0 2.3v4.6c0 .8.1 1.6 0 2.3-.1.7.4 1.5-.4 2.2.5.3.4.7.4 1.2v2.3c0 .6.1 1.1-.4 1.6 0 .3-.1.6.2.9.1.1.2.2.2.3v4.4c0 .1 0 .1-.1.2-.5.3-.3.8-.3 1.2 0 .9-.3 1.9.4 2.7v6.6c0 .1 0 .3-.1.3-.6.4 0 1.2-.7 1.5 0 .3-.1.6 0 .7.4.4.3.8.4 1.2.2.6-.4.9-.4 1.4v1.9c0 .4.1.8 0 1.2-.1.4.3.7.4 1 0 .4 0 .8.4 1 .1 0 0 .3-.1.5s-.3.2-.3.5c0 .6.3 1.3-.4 1.8v1.5c.7.4.2.8 0 1.2-.2.5-.5 1-.4 1.6.1 1.3 0 2.6 0 3.9 0 .5-.2 1 .4 1.4v1.2c-.6.5-.3 1.2-.4 1.8v.6c-.6.3-.4.9-.4 1.4 0 .4.5.5.4 1-.1.4 0 .9 0 1.3 0 .3 0 .6.3.8.1.1.1.4 0 .5-.3.2-.3.5-.3.9v3.9c0 .2-.2.4-.3.7l.3.3c-.1.1-.2.3-.4.4.4.5.5.8.3 1.2-.5 1.1-.4 1.1 0 2.2.1.3.1.7-.1.9-.4.5-.4.9 0 1.3.2.3.3.7 0 1-.3.4-.4.8-.1 1.2.1.2.2.2 0 .4-.4.3 0 1-.5 1.3.1.1.2.3.4.5v2.1c0 1.1 0 1.1-.2 1.5-.1.2-.2.3-.2.5.1.5-.2 1.2.3 1.6v2.1c-.4.2-.3.7-.3 1v4.9c0 .5.1 1.1 0 1.5-.2.6.4 1 .4 1.6v4.9c0 .5.1 1.1 0 1.5-.2.7.5 1 .4 1.6v2.7c-.1.2-.3.3-.4.4.3.2.6.5.3.8-.2.3-.3.5-.3.8v4.8c0 .4.1.9-.4 1.2.1.1.2.3.4.4v7.5c0 .5.1 1-.4 1.4-.1 0 0 .3 0 .4.4.3.4.6.4 1v2.3c0 .2-.1.5 0 .5.5.5.3 1.1.3 1.6v2.9c.5.8 1.2 1.2 1.9 1.4.4.2.4.3.5.6.1.2.3.4.5.6h1.1c.4 0 .9-.1 1.1 0 .3.2.6.4 1 .4.3 0 .5.2.8.4.8.4.8.4 1.4.4h10.4c.5 0 1-.2 1.4.3h2.5c.3-.5.8-.3 1.2-.3.4 0 .8 0 1 .4.3-.4.7-.4 1.2-.4h1.1c.5.4.5.4.9.2.2-.1.3-.2.5-.2 1 .1 2-.3 2.9.4.2.2.4-.3.6-.3.8-.1 1.5 0 2.3-.1.8.7 1.7.3 2.5.4h1.2c.5 0 1-.1 1.4.4 0 .1.4 0 .5-.1.3-.5 1.1.1 1.3-.5 0-.1.2-.1.3-.1h.6c.3 0 .4.2.6.3.1 0 .4-.3.6-.3.2 0 .4.2.8.4h.2c.7-.1 1.4.3 2-.4 0-.1.3 0 .4 0 .2.4.7.3.9.5.1.1.3.2.4 0 .2-.3.5-.1.7-.2.3-.1.5-.3.8-.4.4-.1.8 0 1 .4h3.1c.1-.1.3-.2.4-.4.2.1.3.3.4.4.7.1 1.4-.2 2 .4h2.1c.7 0 1.5.2 2.2-.4.1-.1.5 0 .7.1.2 0 .3.3.5.3h2.1c.1 0 .3-.2.5-.4.7.2 1.6-.4 2.3.4.9-.2 1.9.4 2.7-.4h1.1c.3.5.8.3 1.2.3h3.5c.4 0 .7 0 1-.3.1-.1.6-.1.9 0 .9.3 1.2.4 2 .2.1 0 .2-.2.3-.3l.4.4h3.4c.2.1.4.3.4.3.4-.5.7-.4 1.1 0 .3.3.6-.1.8-.3h4.6c.1.1.3.2.4.3.2-.1.4-.3.7-.3.6 0 1.3-.2 1.8.4 0 .1.3 0 .4 0 .2-.2.3-.3.6-.3h2.5c.3 0 .5.3.8.3.3 0 .5-.3.8-.3.3-.1.6-.1.9.2.1.1.5.2.5.1.3-.5.6-.1.9 0 .3.1.8 0 1.1 0 .5-.6 1.2-.2 1.8-.3.8.7 1.7.3 2.5.4.4 0 .8 0 1-.4 0-.1.3 0 .5.1s.3.2.5.3c.7.1 1.5-.3 2.2.4h3.1c.8-.7 1.6-.5 2.4 0 .4-.1.8.1 1.3-.2.8-.4 1.7-.2 2.6-.1.5.5 1 .4 1.5-.1.1-.1.3-.1.4 0 .3.4.6.4 1 .4h.6c.9.1 1.9-.4 2.7.4.6 0 1.3 0 1.9-.1.3-.5.8-.3 1.2-.3h2.1c.2 0 .4 0 .5.1.4.5.7.3 1.1-.1.1-.1.3-.1.4 0 .3.4.8.4 1.2.4h5.1c.6 0 1.1-.2 1.6-.4.6-.1 1.3 0 1.9 0 .6 0 1.3-.2 1.8.4h4.4c.1 0 .2-.1.3-.2.5-.3 1-.3 1.4-.1.3.2.5.3.9.3h2.5c.3 0 .5.1.7.2.6.3 1.2.3 1.8 0 .3-.2.3-.1.6 0 .2.1.7.2.9.1.3-.3.7-.3 1-.3h3.5c.3 0 .6.1.8.3.1.1.4 0 .5 0 .8-.3 1.4-.5 1.9-.2.3.2.6.3.9.2.4 0 .8.2 1.1-.1.4-.5.6.3.9.2.2-.1.5 0 .7-.2.4-.4 1-.4 1.4-.1.4.2.7.3 1.1.3h4.1c.2 0 .6 0 .7-.1.6-.6 1.1-.1 1.7.1.3.1.4.4.6.4.2 0 .3-.4.6-.3h1.7c.5-.6 1.2-.3 1.8-.3.1 0 .1 0 .2-.1.3-.4.7-.2 1-.3.4-.2.8-.5 1.2-.3.5.1.6-.4 1-.4.3 0 .6 0 .9-.3.3-.3.7-.1 1.1-.1.4-.1.5-.5 1-.4l1.5-1.5c.8 0 1.2-.8 1.6-1.3.4-.5.5-1.2.9-1.7-.3-.7.3-1.3.4-2 0-.3.3-.5.4-.8.1-.8 0-1.6 0-2.3.1-.7-.4-1.6.4-2.2-.1-.2-.4-.3-.4-.6.1-.6-.2-1.3.4-1.8 0-.3.1-.7-.2-.9-.3-.2-.3-.7-.2-.9.5-.6.3-1.3.4-2v-1.2c.7-.7.3-1.6.4-2.4 0-.2 0-.4-.1-.5-.5-.4-.2-1-.3-1.4.6-.4.4-1 .4-1.6v-12.7c.3-.3.7-.5.2-1-.2-.2-.3-.4-.1-.7.1-.2.3-.3.3-.4v-3.7c0-.1-.2-.3-.3-.5.2.4.3.2.5.1Z" fill="white"/><path d="M200.458 127.423c.2.2.5.4.3.7-.4.9-.4 1.2-.1 1.9.1.2.1.4.1.7v2.7c0 .5-.5.8-.4 1.3.1.5 0 .9 0 1.4v2.8c0 .2-.2.4-.3.6l.3.3c-.4.3-.5.8-.3 1.1.4.7.5 1.4 0 2.1-.1.1 0 .3-.1.5-.1.3.7.6 0 1v1.1c0 .3.1.4.3.6.1.1.1.4.1.5-.3.3-.3.6-.3.9v8c0 .6.2 1.3-.3 1.8-.1.1-.1.4 0 .5.7.8.2 1.7.3 2.5-.5.5-.3 1.1-.4 1.6 0 .3.2.4.4.6-.4.3-.3.7-.4 1.1-.6.5-.3 1.2-.3 1.8.4.3.3.7.3 1.1 0 .6.1 1.3-.3 1.8-.1.1-.1.4 0 .5.5.5.3 1.2.3 1.8v2.1c-.7.5-.2 1.2-.4 1.9 0 .1-.3.2-.2.3.3 1.3.4 2.3.2 2.9-.1.2-.3.3-.3.6v2.1c.3.3.4.7.4 1.1 0 .2 0 .4-.2.6-.3.3-.1.5.1.7.1.1.2.4.1.5-.6.4-.3 1-.3 1.5 0 .4-.2 1 .3 1.3 0 .7 0 1.4.1 2.1-.6.8-.2 1.8-.4 2.7-.1.4.2.9-.3 1.3-.1.1-.1.5 0 .7.1.5-.2.9-.4 1.3-.4.8-.3.8-.4 1.5 0 .3.1.7-.1 1-.4.5-.5 1.3-1 1.7-.4.3-.7.7-1 1 .1.6-.1 1.1-.7 1.2-.3.1-.5.5-.9.4-.2.2-.5.3-.7.4-.2.1-.5.2-.7.4-.3.1-.4.4-.6.6-.3.3-.9.6-1.6.7-.3.1-.5.5-.9.4-.3-.1-.6 0-1 .2-.2.2-.7 0-1 .1-1 .7-2.1.2-3.1.3-.1 0-.3-.1-.5-.2-.4-.2-.4-.2-.9.2h-6.8l-.3-.3c-.2.1-.4.3-.6.3h-3c-.4 0-.5-.3-.7-.4-.3-.1-.6 0-.9 0-.3 0-.6 0-.8.3-.1.1-.3.1-.3.1-.8-.7-1.7-.3-2.5-.3-.9-.1-1.8 0-2.7 0-.4 0-.5.5-.9.4-.3-.1-.6 0-.9 0-.4 0-.6-.5-1.1-.4-.4.1-.8 0-1.2 0h-2.4c-.2-.2-.4-.5-.7-.3-.2.2-.4.3-.8.3h-5.9c-.3 0-.6 0-.8-.3 0 0-.2.2-.4.3-.1-.1-.2-.2-.4-.3h-1.2c-.4 0-.6.5-1.1.4-.3-.1-.7 0-1.1 0h-2.2c-.2-.1-.3-.2-.4-.3-.3.4-.7.3-1.1.3h-.2c-1-.2-2.1.4-3.1-.4-.8.2-1.6-.4-2.4.3h-2c-.6 0-1.2.3-1.6-.3h-2.1c-.1 0-.2.2-.3.2-.1.1-.4.2-.5.1-.5-.4-.9-.5-1.4-.1-.1.1-.4.1-.5 0-.4-.5-.9-.2-1.3-.3-.6.6-1.4.3-2.2.3h-2.1c-.1 0-.2-.2-.3-.2-.3-.2-.3-.2-.6 0-.1.1-.3.2-.4.2-.7-.1-1.4.3-2-.3h-2.3c-.1 0-.2.1-.3.2-.3.4-.8.1-1.2.2-.6-.6-1.3-.3-2-.3h-2c-.6.6-1.4.3-2.2.4-.3-.5-.8-.4-1.3-.4s-.9-.1-1.3.3c-.1.1-.6.1-.7 0-.3-.6-1.1-.1-1.4-.6h-1.2c-.2.4-.6.3-.9.3-.4 0-.8 0-1.1.3-.3.2-.8.1-1.1-.3h-4.3c-.7 0-1.5.4-2.2-.3h-6l-.1.1c-.4.4-.9.3-1.3.1-.3-.2-.6-.3-1-.3h-5.5c-.3 0-.7 0-1 .3-.3.2-.5-.1-.7-.3h-17.2c-.5 0-.9.1-1.3-.3-.1-.1-.6-.1-.7 0-.3.4-.7.3-1.1.3h-2.3c-.6 0-1.1-.6-1.8-.4-.4.1-.8-.2-1.1.3-.7.1-1.4.2-2-.1-.5-.2-1-.3-1.4 0-.1.1-.4.2-.5.1-.4-.5-.8-.3-1.3-.3-.2 0-.3-.2-.4-.3-.3-.2-.6-.2-.8-.1-.2.1-.5.3-.7.4-.9.4-.9.4-1.5-.1-.3-.3-.5-.4-.9 0-.1.1-.3.1-.5.1-.5.1-1.1-.2-1.5.4-.3 0-.7.1-1-.3-.3-.5-.8-.7-1.3-.3-.1.1-.2.2-.3.2-.7-.1-1.4.3-2-.3-.5 0-1.1-.2-1.4.3-.1-.1-.3-.2-.4-.3h-2.1c-.3 0-.4.2-.6.3-.2.1-.5 0-.8.1-.3-.4-.7-.3-1.1-.3-.4 0-.6 0-1 .3-.2.2-.6.1-1-.1-.3-.3-.7-.3-1.1.1-.1.1-.4.2-.5.1-.3-.4-.7-.3-1.1-.3h-3.4c-.4 0-.8.2-1.1-.3h-.1c-.6.6-1.3.3-2 .3-.9 0-1.9.3-2.7-.3h-2c-.5-.8-1.5-.8-2.2-1.4-.4 0-.4-.2-.5-.5-.2-.4-.5-.6-.9-.9-.4-.3-.5-.8-.8-1.1-.3-.3-.4-.6-.6-1-.1-.1-.2-.3-.2-.4v-1.1c0-.5.1-.9-.4-1.3v-3c-.6-.8-.3-1.7-.4-2.5.5-.5.4-1.1.3-1.6 0-.4.2-1-.3-1.3.1-.4-.2-.9.2-1.3.1-.1.1-.2.1-.3v-1.6c.4-.3.4-.7.3-1.1-.3-1.1-.3-1.1 0-2.1.1-.3.1-.6 0-.8-.2-.3-.3-.5-.3-.8.1-.7-.3-1.4.3-2v-3.2c-.6-.5-.3-1.2-.4-1.8.4-.3.4-.7.3-1.1 0-.3.1-.7-.3-1-.1-.1-.1-.3-.1-.5.1-.8-.3-1.8.3-2.5v-3.7c0-.1-.1-.2-.2-.3-.4-.4-.1-.6.2-.9v-6.2c0-.4 0-.7-.4-.9v-1.4c.1-.1.2-.3.3-.4-.2-.2-.5-.4-.3-.7.2-.2.3-.5.3-.8v-1.8c0-.3.7-.6 0-1-.1-.3.1-.7-.2-1-.3-.3-.1-.8-.1-1.2.6-.4.3-1 .3-1.5v-4.6c0-.3 0-.6-.2-1-.2-.3-.2-.9.1-1.3.3-.4.2-.7 0-1.1-.3-.4-.2-.8-.1-1.3 0-.1.2-.2.2-.3-.2-.2-.5-.5-.3-.7.3-.3.3-.6.3-.9v-6.1c0-.6-.1-1.2.3-1.6.1-.1.1-.4 0-.5-.5-.5-.3-1.2-.3-1.8v-3.9c0-.9 0-.9.6-2.1.1-.2.1-.4.1-.7 0-.1 0-.3-.1-.3-.3-.1-.7-.1-.6-.6.1-.4-.4-.5-.4-.9v-.5c0-.1-.2-.2-.3-.4l.7-.7v-.8c-.1-.3-.3-.5-.3-.7 0-.7-.1-1.4 0-2.1.1-.4.4-.8.3-1.3-.1-.5 0-1.1 0-1.6v-2.9c-.1-.1-.3-.4-.3-.4.6-.6.3-1.4.3-2 0-.3-.3-.7-.5-1-.1-.1-.2-.2 0-.3l.3-.3v-1.6c0-.1-.2-.3-.2-.4-.1-.2-.1-.3-.1-.5.1-.2.3-.3.3-.6.1-.5-.3-1.1.3-1.5 0-.5.1-1 .1-1.6v-3.7c0-.4.1-.8-.3-1.1-.2-.1-.1-.6-.1-.8.2-.5.4-.9.4-1.5-.1-.5 0-1.1 0-1.6.1-.6-.3-1.3.3-1.8-.1-.6.2-1.1-.2-1.7-.3-.4-.3-1 .1-1.4.1-.1.1-.4 0-.5-.3-.3-.3-.6-.3-1v-2.1c0-.4-.2-1 .2-1.3.3-.3-.1-.8.4-1.1.1-.1.1-.3.2-.5v-1.2c0-.2-.2-.4-.3-.7v-2.6c0-.6-.2-1.2.3-1.6 0-.4.1-.8-.1-1-.2-.3-.3-.6-.3-1v-1.9c.5-.3.3-.8.3-1.3 0-.3.1-.5.3-.8.1-.2 0-.6.1-.9.1-.4-.5-.5-.4-.9.1-.3 0-.7 0-1.1 0-.1-.2-.3-.3-.4.2-.2.6-.5.2-.8-.2-.2-.3-.4-.2-.6.1-.3.3-.6.3-.9 0-.3-.4-.5-.3-.9 0-.2-.1-.4 0-.5.7-.8.2-1.8.3-2.7 0-.1-.1-.3-.2-.4-.2-.3-.2-.3 0-.6.2-.2.2-.4.2-.6v-7.8c0-.3.1-.4.3-.6.2-.2.1-.4-.1-.6-.2-.1-.1-.2 0-.4.4-.3.1-.8.2-1.2-.6-.5-.3-1.2-.3-1.8v-3.4c0-.5-.1-.9.3-1.3.1-.1.1-.6 0-.7-.4-.3-.3-.7-.3-1.1v-2.7c0-.3.1-.5.2-.8.2-.3.1-.8.1-1.2-.4-.3-.3-.7-.3-1.1v-3c0-.4-.2-1 .2-1.3.3-.3-.1-.8.4-1.1.1-.1.1-.3.1-.5v-1.4c0-.4 0-.8.3-1.1.1-.1 0-.5 0-.7l1.4-1.4v-.7l2-2c.2-.2.4-.2.6-.4.8-.5 1.6-.8 2.6-.7.5.1 1.1 0 1.6 0 .6 0 1.2.2 1.6-.3h2.6c.4 0 .6-.5 1.1-.4.4.1.8 0 1.2 0h2.8c.3.4.8.5 1.2.2.4-.3.9-.2 1.3-.2.7.7 1.6.2 2.4.3.3-.3.7-.4 1.1-.4.4 0 .6.4.9.4h10.5c.4 0 .8.1 1.1-.3 0-.1.3-.1.5.1.1.1.3.2.4.2.3 0 .6-.7 1-.2.3.4.8.1 1.2.2h1.2c.3 0 .4.2.6.3.2.1.6.1.7 0 .4-.4 1-.3 1.5-.3h4.1c.5 0 1-.1 1.3.3.6-.7 1.3-.3 2-.3.6-.1 1.2-.2 1.6.3.1.1.5 0 .7 0 1.1-.4 1.1-.4 2.1 0 .3.1.5-.1.7-.3h3.2c.3 0 .5.2.7.4.3-.5.8-.3 1.3-.4.3 0 .5.1.8.2.3.2.9.2 1.2 0 .3-.2.6-.3 1-.3h2.3c.4 0 .7 0 1 .3.1.1.5.1.7 0 .8-.7 1.7-.2 2.5-.3.1 0 .2.2.3.2.3.2.7.2 1 0 .4-.4.8-.1 1.2-.2.8.6 1.8.3 2.7.4h.5c.3 0 .5-.1.8-.3.3-.2.7-.2.9.1.4.4.6.1.9-.2h1.2c.4 0 .6.5 1.1.4.4-.1.8 0 1.2 0h2.4c.5 0 1 .1 1.5-.3.1-.1.6-.1.7 0 .3.3.6.3 1 .3h3c.3 0 .4-.2.6-.3.1 0 .3.2.5.3.2 0 .4 0 .7-.1l.1-.1c.2-.3.6-.1.8-.1.3.5.8.3 1.3.4.1 0 .2.1.3.1.1.1.2.3.4.1.2-.3.5-.1.8-.2l.6-.3c.1 0 .3-.1.3 0 1.1.6 2.3.2 3.4.4.1 0 .3.2.4.3.2-.3.5-.4.9-.4h.9c.2.2.4.5.7.3.2-.2.4-.3.8-.3h3c.3 0 .5.1.8.3.1.1.5.2.7.1.9-.7 1.9-.2 2.9-.3.1 0 .2.2.3.2.1.1.4.2.5.1.3-.5.8-.3 1.3-.3h.8c.2.1.4.3.4.3.2-.1.3-.3.6-.3.6 0 1.3 0 1.9.1.2.4.4.2.6-.1h2.3c.4 0 .5.5.9.4.3-.1.6 0 .9 0 .3 0 .4-.3.6-.3.3.4.7.3 1.1.3.3 0 .7.1 1-.3l.1-.1c.6-.2 1.1.2 1.6.4.4-.5.9-.3 1.5-.4.3.6 1 .1 1.4.6.1.1.4.1.5.1.3-.6 1.1-.1 1.4-.6h1.2c.2.4.6.3.9.3.3 0 .6-.1.9-.1.3-.6.5.2.8.1.3-.1.6 0 .9 0h2.9c.3-.4.7-.5 1.1-.3.3.1.4.3.8.3h3.9c.2 0 .3-.1.5-.2s.2-.1.4 0c.4.2.4.2 1.4.2h4.4c.3.4.7.5 1.1.3.3-.1.4-.3.8-.3h3.6c.2 0 .5.2.7.3.8-.6 1.7-.1 2.5-.3.3-.1.4.3.6.3.2 0 .3-.4.6-.3.6.1 1.2-.2 1.6.4.7-.1 1.4.2 2-.2.3-.2.8-.1 1.2 0 1 .3 1 .3 2.1 0 .3-.1.7 0 1.1 0 .5.6 1.2.3 1.8.3 1.1 0 2.1.1 3.2 0 .7 0 1.5.4 2.2-.3h2.1c.1 0 .2.2.3.2.3.1.6.1.8.1 1.2-.4 1.2-.4 2.8 0 .2.1.5.1.7.1.5-.1.9.2 1.3.3.3.1.5.5.9.4.3-.1.5.1.7.4.6-.2 1 .3 1.3.6.4.4.7.8 1.2.9.1 0 .3.2.4.4.1.7.8 1 1.2 1.6 0 .3 0 .6.2.9.2.4.6.8.5 1.4.3.4.4.8.4 1.3 0 .1.1.3.2.5.2.4.3.9.1 1.3-.1.2-.3.3 0 .5.2.2.2.6.5.9-.1.4.1.7.3 1.1.1.3 0 .7 0 1.1v.4c-.1.8.3 1.8-.4 2.5 0 .6.1 1.3-.4 1.8v.2c.5.5.3 1.1.4 1.6 0 .2.2.3.2.4.2.4.2.9 0 1.3-.3.7-.4 1.6 0 2.1.2.3.3.5 0 .7-.3.2-.2.6-.5.9-.2.2-.2.7.2.9.1.1.1.1 0 .3-.1.1-.3.3-.2.4.1.7-.3 1.4.3 2-.1.4.2.9-.3 1.3-.1.1-.1.4 0 .5.5.4.2.9.3 1.3-.6.5-.3 1.2-.3 1.8v2.5c0 .6-.3 1.3.3 1.8-.1.6.2 1.2-.2 1.7-.1.1-.1.3-.1.5v4.6c0 .2 0 .4.1.5.4.4.2.9.2 1.3-.6.7-.2 1.4-.3 2.2.5.3.2.7.3 1.1.2.7-.5 1.3-.4 2 .1.7 0 1.4 0 2.1 0 .1-.1.2-.2.3-.3.2-.1.6-.1.8.5.3.3.8.4 1.3v1.8c-.1.8.3 1.6-.3 2.3v2c0 .5.3 1.1-.3 1.5l.1.2c.3.8.3 1.3 0 1.8s0 .6.2.9v3.9c0 .4 0 .8-.3 1.1.7.7.2 1.6.3 2.4.1.6.1 1.1-.3 1.6-.1.1-.1.5.1.7.3.3.2.4 0 .7-.1.1 0 .3.3.7v1.6c0 .4-.5.6-.4 1.1.1.3 0 .7 0 1.1v1.2c-.2.2-.5.4-.3.7.2.2.3.5.3.8.1.7-.3 1.4.3 2 0 0-.1.2-.2.2-.4.4 0 .6.2.8-.1.2-.3.4-.3.6v3.4c.3.3.6.5.2.9-.3.2-.2.7-.5.9-.1 0 0 .3 0 .5.4.9.4 1.1-.1 2.1 0 .5-.5.9-.4 1.5.1.5-.1 1 .4 1.5.1.1 0 .5 0 .7v5.7c0 .3 0 .6.3 1 .2.2.1.7.1 1-.5.5-.4 1.1-.3 1.6 0 .3-.3.4-.3.6 0 .4-.3.9.2 1.3.1.1.1.3.1.5-.1.7.3 1.5-.3 2.2-.2-.3-.2.6-.2 1.4Zm-6.1 28.8v-11.4c0-.5-.2-1.1.3-1.5-.1-.3.1-.5-.1-.8-.3-.5-.3-.6-.1-1.1.1-.2.2-.3.2-.5 0-.7.2-1.4-.3-2-.1-.1 0-.5.1-.7.1-.2.3-.3 0-.5-.2-.1-.1-.3-.1-.5-.2-.5.3-.9.3-1.3 0-.7.3-1.4-.3-2 0-.7-.1-1.3 0-2 0-.4.3-.7.5-1 .2-.4.2-.4 0-1.1 0-.1-.1-.1-.1-.1v-2c0-.3.3-.4.4-.6 0-.1.1-.3 0-.3-.4-.3-.3-.7-.4-1.1-.2-.6.4-.9.4-1.5v-4.9l-.7-.7v-.5c0-.2.1-.3.2-.4.2-.3.2-.6.5-.9.1-.2 0-.6 0-.9v-.5c-.2-.3-.6-.5-.2-.9.2-.2.2-.4.2-.6v-6.9c0-.3-.1-.6-.3-.8-.1-.1-.1-.4 0-.5.3-.2.3-.5.3-.8 0-.4 0-.7-.3-.9-.1-.1-.1-.6 0-.7.5-.4.3-.8.3-1.3v-6.1c0-.3 0-.5.2-.8.2-.4.2-.8 0-1.3-.1-.2-.2-.3-.2-.5v-2.3c0-.7-.3-1.5.3-2.2-.1-.5.1-1-.2-1.5-.3-.4-.3-2.6-.1-3.1.1-.3.2-.5.2-.8 0-.5.1-1-.4-1.3v-2.1c0-.4.3-.5.3-.7.1-.3 0-.7 0-1.1-.5-.3-.3-.7-.3-1.1 0-.5-.1-1.1.4-1.5v-2.7c-.7-.8-.3-1.7-.3-2.5-.1-.9 0-1.9 0-2.8 0-.4-.1-.8.3-1.1 0-.3.1-.6-.1-.8-.2-.2-.2-.4-.2-.6v-3.9c.3-.2.4-.6.3-.9 0-.4.2-.8-.3-1.1 0-.6 0-1.2-.1-1.7 0-.3.1-.5.3-.8.2-.3.2-.7-.1-1-.4-.4 0-.6.2-.9v-2.3c0-.1-.2-.3-.2-.4-.1-.2-.1-.4-.1-.5.3-.3.3-.6.3-.9 0-.7-.2-1.4.3-2-.1-.6.2-1.2-.3-1.7-.2-.2-.1-.4.1-.6.2-.2.2-.4.1-.6-.4-.5-.3-1-.1-1.4.1-.2.2-.4.2-.6v-1.4c0-.5-.1-1 0-1.4.1-.5-.3-.9-.4-1.3-.2-.7.2-1.2.6-1.7.2-.3-.2-.3-.2-.5 0-.4-.1-.9 0-1.4.1-.5-.2-.9-.4-1.3-.1-.3-.1-.6.2-.8.1-.1.1-.1 0-.3-.3-.3-.3-.7-.1-.9.3-.3.4-.6.3-1-.1-.5.4-.7.4-1.1v-2.6l-.7-.7v-1.4c0-.5-.1-1 0-1.4.1-.5-.3-.9-.3-1.3-.1-.6 0-1.3 0-2 0-.5.1-1 0-1.4-.1-.4-.5-.7-.6-1.2-.1-.3-.3-.5-.5-.7-.3-.2-.2-.5-.4-.8h-1.5c-.5 0-.9 0-1.4-.1-.5-.8-.9.2-1.3.1h-.3c-.6-.7-1.5-.2-2.2-.3-.2 0-.4 0-.5.1-.4.4-.9.2-1.3.2-.2 0-.3-.4-.6-.3-.8.1-1.6-.3-2.4.3-.1.1-.5 0-.7-.1-.2-.1-.3-.3-.6-.3h-4.8c-.2 0-.3.1-.4.2-.4.4-.6 0-.9-.2h-4.8c-.2 0-.5-.1-.7.1-.4.5-.9.1-1.3.2-.3-.5-.8-.3-1.3-.3h-8.9c-.9 0-1.9-.4-2.7.3-.1 0-.3 0-.3-.1-.2-.3-.5-.3-.8-.3h-4.1c-.2 0-.4 0-.6-.2-.3-.3-.3.2-.6.2h-2.3c-.2 0-.4 0-.5-.1-.4-.4-.9-.1-1.3-.2-.6.7-1.4.2-2.2.3-.5-.5-1.1-.3-1.6-.3-.3 0-.5.4-.9.3h-4.8c-.2 0-.4-.1-.6-.2-.6-.3-1.4-.3-2 0-.6.3-1 .3-1.6 0-.5-.3-1.1-.3-1.7 0-.5.3-1 .3-1.4 0-.4-.3-.9-.2-1.3-.1-.3.5-.9.3-1.3.3-.5 0-1 0-1.6-.1-.1 0-.2-.2-.3-.2-.2 0-.4 0-.5.1-.2.2-.4.3-.6.2h-2.5c-.1-.1-.2-.2-.3-.2-.5-.2-.9-.2-1.3.1-.4.3-.9.2-1.3.1-.3-.4-.7-.3-1.1-.3h-14.1c-.7 0-1.4.2-2-.3-.1-.1-.4-.1-.5 0-.3.3-.7.4-1.1.4-.1 0-.3.3-.4.3-.1 0-.2-.3-.4-.3-.3-.1-.7 0-1.1 0-.3-.7-.6.1-1 0-.7-.1-1.4 0-2.1 0-.8 0-1.6-.2-2.4.3-.1.1-.5 0-.7-.1-.2-.1-.3-.3-.6-.3-.5 0-1-.1-1.4 0-.5.1-.9-.2-1.3-.4-.2-.1-.4-.1-.5 0-.2.2-.4.4-.8.3-.3-.1-.6 0-1-.3-.3-.3-.9-.2-1.3.1-.5.3-1.1.2-1.7.1-.3-.5-.7-.3-1.1-.3h-4.5c-.2 0-.3-.5-.5-.2s-.5.2-.8.2h-1.6c-.4.4-.8.5-1.2.2-.4-.3-1-.3-1.3-.1-.3.2-.6.3-1 .3-.5-.1-1.1.2-1.5-.3h-1.2c-.4-.1-.8-.5-1.3-.4-.4.1-.8 0-1.2 0h-2.3c-.4 0-.8.1-1.2 0-.5-.1-.7.4-1.1.4-.6 0-1.2.2-1.6-.3-.1-.1-.6-.1-.7 0-.3.3-.6.3-1 .3h-2.7c-.3 0-.6 0-1-.3-.3-.2-.8-.1-1.2 0-.3.1-.5.3-.8.3h-2.8c-.4 0-.7 0-.9-.3 0-.1-.4 0-.5.1-.4.4-.7.3-1.1.1-.6-.3-1.6-.4-2.1 0-.5.3-.8.3-1.2-.1-.1-.1-.4-.1-.5 0-.2.1-.3.3-.6.3-.5-.1-1.1.2-1.5-.3-.8.1-1.7-.4-2.5.3-.1.1-.6.1-.7 0-.3-.3-.6-.3-.9-.3h-6.8c-.6-.1-1 .3-1.5.3-.8 0-1.6.2-2.4-.3-.1-.1-.4-.1-.5 0-.5.5-1.1.3-1.6.3-.4 0-1 .2-1.3-.3h-1.4c-.2 0-.4 0-.5.1-.3.3-.6.2-.9.2-1.1.7-1.5 1.8-2 2.8-.2.4-.4.9-.4 1.4.1 1.1 0 2.3 0 3.4 0 .4.1.8-.3 1.1 0 .3-.1.7.2 1 .2.2.2.3 0 .6-.3.3-.2.6-.2 1 0 .1.2.2.2.3.1.2.1.6.4.7-.1.2-.3.4-.3.5 0 .3-.1.7 0 1.1.1.5-.3.7-.4 1.1 0 .2-.1.5.1.7.4.4.3.9.1 1.4-.1.2-.2.3-.2.4v2.1c0 .7-.1 1.3 0 2 .1.8-.4 1.3-.4 2v2c0 .3.1.6.3 1 .2.3.2.9-.1 1.3-.3.5-.3 1.1 0 1.7.1.3.2.5.2.8 0 .3.1.7 0 .9-.2.3-.3.6-.3.9v5.2c.2.2.5.4.3.7-.4.6-.4 1.1 0 1.7.1.2.1.6 0 .8-.1.2-.3.3-.3.6v1.6c0 .4 0 .7-.3.9-.1.1-.1.4-.3.6-.2.3.3.4.3.7 0 .4.4.7.3 1.1v3.7c0 .3.1.7-.3.9-.1 0-.1.3 0 .3.7.7.3 1.6.3 2.4.1.7 0 1.4 0 2.1v4.2c0 .7.1 1.4 0 2.1-.1.7.3 1.4-.3 2 .4.3.4.7.4 1.1v2.1c0 .5.1 1.1-.4 1.5 0 .3-.1.6.2.8.1.1.2.2.2.3v4.1c0 .1 0 .1-.1.1-.5.3-.3.7-.3 1.1 0 .8-.3 1.7.3 2.5v6.1c0 .1 0 .3-.1.3-.5.3 0 1.1-.6 1.4 0 .2-.1.6 0 .7.4.3.2.8.3 1.1.2.5-.3.8-.4 1.3v2.9c-.1.4.3.6.4.9 0 .4 0 .7.3.9.1 0 0 .3-.1.5-.1.1-.2.2-.3.4 0 .6.2 1.2-.3 1.6v1.4c.6.4.2.7 0 1.1-.2.4-.4.9-.4 1.4.1 1.2 0 2.4 0 3.6 0 .4-.2 1 .3 1.3v1.1c-.6.4-.3 1.1-.4 1.6v.5c-.5.3-.4.8-.3 1.3 0 .3.4.5.4.9-.1.4 0 .8 0 1.2 0 .3 0 .6.3.8.1.1.1.4 0 .5-.3.2-.3.5-.3.8v3.6c0 .2-.2.4-.3.6l.3.3c-.1.1-.2.2-.3.4.4.5.4.7.3 1.1-.4 1-.4 1 0 2.1.1.2.1.6-.1.8-.3.4-.3.8 0 1.2.2.3.2.7 0 1-.3.4-.3.7-.1 1.1.1.1.2.2 0 .4-.4.3 0 1-.5 1.2.1.1.2.3.3.4v1.9c0 1 0 1-.2 1.4-.1.1-.2.3-.2.5.1.5-.2 1.1.3 1.5v1.9c-.4.2-.3.6-.3 1v4.6c0 .5.1 1 0 1.4-.1.6.4.9.4 1.5v4.6c0 .5.1 1 0 1.4-.2.6.4.9.4 1.5v2.5c-.1.1-.2.3-.3.4.3.2.5.4.3.7-.2.2-.3.5-.3.8v4.5c0 .4.1.8-.3 1.1.1.1.2.3.3.4v6.9c0 .5.1.9-.3 1.3-.1 0 0 .3 0 .3.3.2.3.6.3.9v2.6c.5.4.3 1 .3 1.5v2.7c.5.8 1.1 1.1 1.7 1.3.4.1.4.3.5.6.1.2.3.3.5.5h1c.4 0 .8-.1 1 0 .3.2.6.3.9.3.3 0 .5.2.7.3.8.4.8.4 1.3.4h9.6c.4 0 1-.2 1.3.3h2.3c.3-.5.7-.2 1.1-.3.4 0 .7 0 .9.3.3-.4.7-.4 1.1-.3h1.1c.5.4.5.4.9.2.1-.1.3-.2.4-.2.9.1 1.9-.3 2.7.3.2.2.4-.3.6-.3.7-.1 1.4 0 2.1-.1.7.7 1.6.3 2.3.3h1.1c.5 0 .9-.1 1.3.3 0 0 .4 0 .4-.1.3-.5 1 .1 1.2-.5 0-.1.2-.1.3-.1h.5c.3 0 .4.2.6.3.1 0 .4-.3.5-.3.2 0 .4.2.7.3h.2c.6-.1 1.3.3 1.8-.3 0-.1.3 0 .3 0 .2.3.6.3.9.5.1.1.2.2.4 0s.4-.1.6-.2c.3-.1.5-.3.7-.3.4-.1.7 0 .9.3h2.8c.1-.1.3-.2.4-.3.1.1.3.3.4.3.6.1 1.3-.2 1.8.4h2c.7 0 1.4.2 2-.3.1-.1.4 0 .7.1.2 0 .3.2.4.3h2c.1 0 .3-.2.4-.4.7.2 1.5-.3 2.1.4.8-.1 1.8.3 2.5-.4h1.1c.3.4.7.3 1.1.3h3.2c.3 0 .7 0 1-.3.1-.1.6-.1.8 0 .8.3 1.1.3 1.8.2.1 0 .2-.2.3-.2.1.1.3.2.4.4h3.1c.2.1.4.3.4.3.3-.4.6-.4 1 0 .3.2.5-.1.7-.3h4.3l.3.3c.2-.1.4-.3.6-.3.6 0 1.2-.2 1.6.3h.3c.2-.1.3-.3.6-.3h2.3c.3 0 .5.3.7.3.2 0 .5-.3.7-.3.3-.1.6-.1.8.2.1.1.4.2.5.1.3-.5.5-.1.8 0 .3.1.7 0 1 0 .5-.6 1.1-.2 1.7-.3.7.6 1.6.3 2.3.4.4 0 .7 0 .9-.3 0-.1.3 0 .5.1s.3.2.4.2c.7.1 1.4-.3 2 .4h2.8c.7-.6 1.5-.4 2.2 0 .4-.1.8.1 1.2-.2.7-.4 1.6-.2 2.4-.1.5.5.9.3 1.4-.1.1-.1.3 0 .3 0 .2.3.6.4.9.3h.5c.8.1 1.8-.3 2.5.4.6 0 1.2 0 1.8-.1.3-.4.7-.3 1.1-.3h2c.2 0 .4 0 .5.1.4.5.7.3 1-.1.1-.1.3-.1.3 0 .3.4.7.4 1.1.4h4.8c.5 0 1-.2 1.5-.3.6-.1 1.2 0 1.8 0 .6 0 1.2-.2 1.6.4h4.1c.1 0 .2-.1.3-.2.4-.3.9-.3 1.3-.1.3.1.5.3.8.3h2.3c.2 0 .4.1.6.2.5.3 1.1.3 1.7 0 .3-.1.3-.1.5 0s.7.2.8.1c.3-.3.6-.3 1-.3h3.2c.3 0 .6.1.8.3.1.1.3 0 .5 0 .8-.3 1.3-.4 1.8-.1.3.1.5.3.8.2.3 0 .8.2 1-.1.4-.5.5.3.8.1.2-.1.4 0 .6-.2.4-.3.9-.3 1.3-.1.3.2.6.3 1 .3h3.7c.2 0 .5 0 .7-.1.6-.6 1-.1 1.5.1.3.1.4.4.5.3.2 0 .3-.3.6-.3h1.6c.5-.5 1.1-.2 1.6-.3.1 0 .1 0 .1-.1.2-.4.7-.2.9-.3.4-.2.7-.4 1.1-.3.4.1.6-.4.9-.4.3 0 .6 0 .8-.2.3-.3.7-.1 1-.1.3-.1.5-.5.9-.4l1.4-1.4c.8 0 1.1-.7 1.5-1.2.4-.4.5-1.1.9-1.6-.3-.7.3-1.2.4-1.8 0-.3.3-.5.3-.7v-2.1c.1-.7-.3-1.4.3-2-.1-.2-.4-.3-.4-.6 0-.6-.2-1.2.4-1.6 0-.3.1-.6-.2-.8-.3-.2-.3-.6-.2-.8.5-.6.3-1.2.3-1.8v-1.1c.6-.6.3-1.4.3-2.2 0-.2 0-.4-.1-.5-.4-.4-.2-.9-.2-1.3.6-.4.3-1 .3-1.5v-11.7c.3-.3.6-.5.2-.9-.2-.2-.3-.4-.1-.6.1-.1.3-.3.3-.4v-3.4c0-.1-.2-.3-.3-.4 1.3.3 1.4.1 1.5 0Z" fill="#7F7F7F"/><path d="M181.058 128.323c-.3 0-.6.1-.8.1-3 .5-6 .8-8.9-.4-.7-.3-1.4-.7-2-1.1h-1.6c-.3.3-.6.7-1.2.3-.7-.4-1.7-.4-2.5-.1-.3.1-.7.3-1 .5-.3.2-.4 0-.5-.1-.7-.3-1.3-.3-1.8 0-.3.1-.5.3-.9.3h-11.8c-.4 0-.6-.1-.9-.3-.4-.3-.9-.3-1.3 0-.1.1-.2.1-.3.2-.4-.6-1-.4-1.5-.4s-.9 0-1.3.4c-.3.2-.9.3-1.3-.2-.1-.2-.2-.2-.4 0-.3.4-.7.3-1.1.3-.5 0-.7-.6-1.3-.5-.6.1-1.1 0-1.7 0h-1.5c-.2 0-.6-.1-.7 0-.9.8-2 .3-3 .4-.5.1-.9 0-1.3-.3-.5-.3-1.2-.2-1.8.1-.7.4-.8.3-1.5 0-.2-.1-.6-.2-.6-.2-.7.8-1.7.3-2.5.4-.5-.7-1.3-.4-2-.5-.4 0-.6.1-.8.3-.1.1-.5.1-.6 0-.3-.4-.5-.3-.9 0s-.7-.1-1-.4h-6.1c-.6 0-1.3.2-1.8-.4-.1-.1-.8-.1-.9 0-.4.5-1 .4-1.6.4-.5 0-.9 0-1.4-.3-.5-.3-1.2-.3-1.8.1-.6.4-1.2.3-1.8.1-.3-.1-.5-.4-.8-.3-.9.1-1.8.1-2.7.1-.1 0-.2.2-.4.3-.2-.1-.3-.3-.5-.4h-7.9c-.2-.2-.4-.4-.6-.4-.8.1-1.7-.4-2.3.3-.9.1-1.7.3-2.5-.2-.3-.2-.9-.2-1.3.1-.5.5-.8.1-1.2-.2h-4.9c-.6 0-1.1.1-1.5-.4 0-.1-.4.1-.6.2-.2.1-.4.3-.6.3-.4-.1-.7-.4-1-.4-.4-.1-.5.5-1 .4-.2 0-.4.1-.5 0-.7-.7-1.7-.4-2.5-.4h-6.2c-.4 0-.7 0-1.1-.2-.9-.4-1.9-.4-2.8 0-.5.2-.8.4-1.2 0-.1-.1-.4-.1-.7-.1h-3.5c-.4 0-.6-.1-.8-.4-.3-.2-.5-.1-.8.1-.7.4-.7.3-1.5 0-.7-.3-.7-.3-1.5.1-.6.3-1.1.4-1.5-.1-.2-.2-.2-.2-.4 0-.2.3-.6.2-.8.3-.8.5-1.3-1-2.2-.3-.6.5-1.4.3-2.1.2-1.6-.1-3.2.5-4.7-.4-.3-.2-.8 0-1.2 0h-5.9c-.2 0-.4-.1-.7-.2-.3 1.7-1.6 3.1-3.3 3.9.1.1.2.2.3.2.1.1.1.2.2.1.4 0 .6.1.9.3.3.2.7.2 1 .5.4.3 1.2-.1 1.5.5 0 0 .1.1.2.1h.2c.5-.1 1 .2 1.4-.2.4-.4.4.2.8.2h3.8c.2.2.4.3.5.4.2-.1.5-.4.5-.4.6.6 1.2.6 1.9 0 .1-.1.5 0 .6 0 1.2.4 1.5.5 2.5.2.1 0 .2-.2.4-.3.2.1.3.4.5.4.7.1 1.3 0 2 0s1.3.1 2 0 1.2.3 1.8.5c.3.1.6.1.9-.2.4-.4.9-.3 1.3-.2 1.2.4 2.3.6 3 .2.6-.4 1.2-.3 1.8-.3.3 0 .5.4.8.4h7.4c.2 0 .4-.2.6-.3.2-.1.6-.2.6-.1.3.4.8.4 1.3.4 1.4 0 2.8-.1 4.2 0 1.3.1 2.8-.5 4 .4.1.1.4 0 .4-.1.3-.3.6-.4 1.1-.4h3c.5 0 .9.1 1.3.4.4.3 1.1.1 1.5-.4.6 0 1.2.1 1.7 0 .7-.1 1.1.5 1.8.5.7-.1 1.5 0 2.2 0h9.1c.7 0 1.5.1 2.2 0 .8-.1 1.2.5 2 .5 2.7-.1 5.4 0 8.1 0 .3 0 .8.1.9-.1.5-.6 1.2-.4 1.8-.4h3.5c.5 0 1.2.2 1.5-.4.5 0 1.1.1 1.4-.1.5-.3 1-.5 1.5-.4.8.1 1.8-.4 2.5.5h2.5c.3.3.7.7 1.2.3.3-.2.6-.4.8-.2.3.3.6.4 1.1.4h4.7c.9 0 1.9-.2 2.8.4.2.1.7 0 .9-.1.3-.2.5-.3.8-.3h3.2c.2 0 .4.2.6.3.4.2.4.2.8 0 .1 0 .1-.1.2-.2.2 0 .6-.2.6-.1.4.5 1 .4 1.6.4.6-.1 1 .2 1.5.4.3-.5.8-.4 1.3-.4h6.9c.8 0 1.7-.1 2.5 0s1.3-.5 2-.5h6c.7.1 1.1-.6 1.8-.5.6.1 1.2.1 1.7 0 .7-.1 1 .5 1.8.5 2-.1 4.1 0 6.2 0 .3 0 .8.1.9-.1.4-.5 1.1-.2 1.5-.5.6-.4 1.4-.6 2-.9.2-.1.5-.3.5-.5.1-.3.2-.5.3-.7-.8-.1-1.3-.4-1.7-.7Zm-60.2 7.7h-2.9c-.9-.9-2-.4-3-.4-2.1-.1-4.3 0-6.4 0-.2-.2-.4-.3-.5-.4-.2.1-.5.4-.5.3-.3-.3-.6-.4-1.1-.4h-2.2c-.8 0-1.7-.1-2.5 0s-1.3-.4-2-.5h-2.7c-.5 0-1 0-1.3.4-.1.1-.4.1-.5 0-.5-.7-1.3-.4-2-.4h-10.4c-.3-.3-.5-.6-1-.4-1.2.5-1.1.5-2.4 0-.4-.2-.9-.2-1.3.2s-.5-.2-.9-.2h-6.2c-.7 0-1.3-.1-2 0-.8.2-1.3-.5-2-.5-.7.1-1.5-.2-2 .5-.7 0-1.5.1-2.2 0-.8-.1-1.2.6-2 .5-1-.1-2.1 0-3.2 0-.2 0-.6.1-.7 0-1.1-.7-2.3-.3-3.5-.4-.2 0-.6 0-.7-.1-.4-.6-1-.3-1.6-.3h-8.6c-.3 0-.7 0-.9-.3-.1-.2-.2-.2-.4-.1-.5.7-.9.2-1.3-.1-.2.1-.5.3-.5.3-.3-.3-.6-.4-1.1-.4h-3.2c-.4 0-.7.2-1.1.4-.4.3-.7-.1-1-.4h-1.7c-.7 0-1.3-.1-2 0s-1-.4-1.5-.5h-2.2c-.4-.6-1.1-.4-1.7-.5v1.5c.1.1.2.2.4.3.7.6 1.2 1.2 1.5 1.9h1.4c.7 0 1.5-.1 2.2 0 .8.1 1.2-.5 2-.5 1.7.1 3.4 0 5.1 0 .2.2.4.3.5.4.3-.1.3-.6.7-.2.1.1.3.2.4.2.7 0 1.5.1 2.2 0 .8-.1 1.3.4 2 .5h2.4c.5 0 1-.2 1.4.3.4.4.5-.4.9-.3.5.1 1.1 0 1.7 0 .4.3.7.8 1.2.3.1-.1.3-.2.3-.2.9.8 2 .2 3 .4.2 0 .5-.1.6-.2.6-.5.9-.1 1.2.3h4.4c.7 0 1.5-.3 2.1.2.8.5 1.6.2 2.3.3.7.1 1.5-.2 2 .5.4-.1.8.2 1.1-.2.2-.3.6-.4.8-.2.4.4.8.4 1.3.4h1.5c.5 0 .7-.2 1.1-.4.5-.4.8.4 1.2.4.2 0 .4-.2.6-.3.4-.2.4-.2.8 0 .3.2.6.4.8.2.4-.4.8-.4 1.3-.4h10.1c.4 0 .8.1 1.1-.2.5-.5.7.4 1.2.2.3-.1.6-.1.9-.3.4-.3.5-.3.8 0 .3.2.5.3.9.3h7.8c.2-.2.4-.3.6-.4.3.5.8.4 1.3.4h17c.3 0 .8.1.9-.1.5-.6 1.2-.3 1.8-.4.1 0 .2-.2.3-.2.3-.4.1-.6-.2-.8Zm64.8-4c.3.5.3 1.1 0 1.5-.4.5-.4 1.1-1 1.5-.6.4-1.1.9-1.6 1.4-.6.2-1.3-.2-1.8.3-.1.1-.3.2-.4.2-.6.1-1.3.1-1.9.1-.5.6-1.2.3-1.8.3h-15.8c-.6 0-1.2-.1-1.5.4-.5 0-1 .2-1.4-.3-.1-.1-.6-.2-.6-.1-.4.5-1 .4-1.6.4h-25.4c-.5 0-1 .2-1.4-.2-.3-.3-.7-.2-1.1-.3-.5-.1-.7-.6-1.2-.5l-.2-.4c-.1-.3.2-.5.4-.4.8.2 1.2-.3 1.6-.7l.2-.2c.8 0 1.6.1 2.4 0 1-.1 2.1.5 3-.4h39.9c.8 0 1.8.4 2.5-.4.9 0 1.8-.1 2.7 0 .8.1 1.3-.5 1.9-.6.7-.9 1.9-.9 2.7-1.6.5-.2 1-.2 1.4 0Z" fill="#7F7F7F"/><path d="M16.558 72.223v-1.8c0-.4-.2-.9.3-1.3.4-.3-.1-.9.4-1.2.6-.4-.1-1.3.7-1.6 0-.5 0-1.1.1-1.6.2-.8-.6-1.2-.5-1.9.1-.7 0-1.4 0-2.1-1-1.1-.3-2.5-.5-3.7 0 0 .1-.1.1-.2.8-.1.9 0 .8.4-.1.6.5.9.5 1.4v1.8c0 .5-.1 1.1.1 1.6.1.4.8.6.2 1.1-.4.5-.4 1-.2 1.3.5.5.4.8-.1 1.3-.3.3.1.7.4.9v2.3c0 .7.7 1.1.5 1.9-.2.7 0 1.4 0 2.1v16.8c-.2.4-.4.7-.5 1-.1.3.8.6 0 1 0 .5-.1.9-.1 1.4v1.4c-.9 1-.4 2.2-.5 3.3-.1 3.2 0 6.3 0 9.5 0 .6.2 1.2-.5 1.7.7.4.5 1.1.5 1.7v1.8c0 .4-.1.7-.3 1-.3.5-.3 1.2.1 1.7.1.2.3.3 0 .5-.4.3-.3.6 0 .9.6.5 0 .8-.3 1.1v5.1c0 .3.1.6.3.8.1.1.2.5.1.6-.5.4-.6.7-.1 1.3.3.4.3 1.2-.1 1.7-.4.4.2.4.3.8v23.2c0 .6-.1 1.2 0 1.8.1.6.6 1 .5 1.7-.1.7 0 1.4 0 2.1 0 .6.1 1.2 0 1.8-.1.7.7 1.2.5 1.9-.1.7 0 1.4 0 2.1v3.9c0 .5.6.8.5 1.4-.1.5 0 1.1 0 1.6v1.6c0 .5.2 1.1-.4 1.5 0 0 .3.4.4.7v2.5c0 .6-.3 1.4.4 1.9.2.1.1.6.1.9 0 1 .1 2 0 3-.1.6.4.9.5 1.4.1.5-.2 1.1.3 1.5.1.1.2.4.2.6v1.4c.2.2.5.4.7.7.7.1 1.5-.2 2 .5h2.2c.5 0 .9.6 1.5.5.6-.1 1.3 0 2 0h1.7c.3.3.6.7 1 .4.3-.2.6-.4 1.1-.4h3.2c.4 0 .8.1 1.1.4 0 0 .3-.2.5-.3.4.3.8.8 1.3.1.1-.2.2-.1.4.1.2.3.5.3.9.3h8.6c.5 0 1.1-.2 1.6.4.1.1.4.1.7.1 1.2.1 2.4-.3 3.5.4.2.1.5 0 .7 0 1.1 0 2.2-.1 3.2 0 .8.1 1.2-.7 2-.5.7.1 1.5 0 2.2 0 .5-.7 1.3-.4 2-.5.7-.1 1.2.7 2 .5.6-.2 1.3 0 2 0h6.2c.4.1.5.7.9.2.4-.4.9-.3 1.3-.2 1.2.4 1.2.4 2.4-.1.5-.2.7.1 1 .4h10.4c.7 0 1.5-.3 2 .4.1.1.4.1.5 0 .3-.5.8-.4 1.3-.4h2.7c.7 0 1.2.6 2 .5.8-.1 1.6 0 2.5 0h2.2c.4 0 .8.1 1.1.4 0 0 .3-.2.5-.3.1.1.3.3.5.4 2.1 0 4.3-.1 6.4 0 1 0 2.1-.5 3 .4h2.9c.3.2.5.5.7.7-.1.1-.2.2-.3.2-.6.1-1.3-.2-1.8.4-.1.2-.6.1-.9.1h-17c-.5 0-1 .1-1.3-.4-.2.1-.4.3-.6.4h-7.8c-.3 0-.6-.1-.9-.3-.3-.3-.4-.3-.8 0-.3.2-.6.2-.9.3-.5.2-.7-.7-1.2-.2-.3.3-.8.2-1.1.2h-10.1c-.5 0-.9 0-1.3.4-.2.2-.6 0-.8-.2-.4-.3-.4-.2-.8 0-.2.1-.4.3-.6.3-.5.1-.7-.8-1.2-.4-.3.2-.6.4-1.1.4h-1.5c-.5 0-.9 0-1.3-.4-.2-.2-.6-.1-.8.2-.3.4-.8.1-1.1.2-.5-.6-1.3-.4-2-.5-.8-.1-1.6.3-2.3-.3-.6-.4-1.4-.1-2.1-.2h-4.4c-.4-.3-.7-.8-1.2-.3-.2.1-.4.3-.6.2-1-.1-2.1.4-3-.4 0 0-.2.1-.3.2-.6.5-.8 0-1.2-.3-.6 0-1.2.1-1.7 0s-.5.7-.9.3c-.4-.4-.9-.2-1.4-.3h-2.4c-.7-.1-1.2-.6-2-.5-.7.1-1.5 0-2.2 0-.1 0-.3-.1-.4-.2-.4-.4-.5.1-.7.2-.2-.1-.3-.3-.5-.4-1.7 0-3.4.1-5.1 0-.8 0-1.2.6-2 .5-.7-.1-1.5 0-2.2 0-.6 0-1.2.1-1.7 0s-.9-.6-1.5-.5c-.2 0-.5-.4-.8-.4-.6-.1-1.1 0-1.9 0-.3-.3-.6-.7-1-.9-.4-.1-.7-.2-1-.5-.6.1-1-.3-1.1-.7-.2-.6-.7-1-.6-1.6.1-.4.2-1-.1-1.3-.5-.4-.5-.8 0-1.1.1-.1.1-.3.1-.4.1-.7-.2-1.5.5-2.1v-4.6c0-.4-.1-.9.4-1.3.2-.1.1-.6.1-.9v-15.5c0-.5 0-.9-.4-1.2-.2-.1-.1-.6-.1-.9v-5.8c0-.7.3-1.5-.4-2.2-.2-.1-.1-.6-.1-.9v-4.4c0-.3-.3-.5-.5-.9v-6.8c0-.3-.1-.6-.4-.8-.1 0-.1-.1-.1-.2-.3-.6.9-.8.4-1.4-.3-.4-.7-.7-.2-1.1.4-.3.2-.7.2-1.1v-7.9c0-.4.1-.7.5-1l-.5-.5.5-.5c-.1-.1-.3-.2-.3-.3-.2-.9-.2-1.4.3-2.8.2-.6.3-1.2-.2-1.7-.4-.4-.2-.9-.2-1.3-.1-.5 0-.9.4-1.2.2-.2 0-.6-.3-.8-.1 0-.1-.1-.2-.2v-5.8c0-.5.1-.9.5-1.2-.7-.4-.4-1.1-.5-1.7v-1.8c0-.5-.2-1.1.4-1.5.1-.1.1-.4.1-.6v-3c0-.7-.7-1.1-.5-1.9.2-.7 0-1.5 0-2.3 0-.7.2-1.4 0-2.1-.3-.8-.5-1.5-.5-2.4.1-.6-.2-1.2.5-1.7-.1-.8.4-1.7-.5-2.4.2-.9-.4-2 .5-2.8.1-.1 0-.3 0-.5.1-.6-1.1-1.1-.1-1.7 0-.7 0-1.4.1-2.1 0-.7.1-1.4 0-2.1-.1-.6.7-1 .5-1.7-.1-.5-.1-1.1 0-1.6-.3.4 0 .2.2 0Zm167.8-47.8h2.9c1.2 1.2 2.4 2.3 3.9 3.7.2.3-.4 1.1.4 1.6.1.1.1.3.1.4v2.3c.7.6.4 1.4.5 2.1.1.6.6 1 .5 1.7-.1.5 0 1.1 0 1.6v3.4c0 .3-.1.6-.3.8-.1.1-.2.3-.2.4.1.5 1 1 .1 1.5 0 .5-.1 1.1-.1 1.6v1.8c0 .6.2 1.2-.4 1.7-.2.2-.1.7-.1 1.1v7.6c0 .6.3 1.4-.4 1.9-.1.1-.1.4-.1.7 0 1.2.1 2.3 0 3.5 0 .6.7 1 .5 1.7-.1.5-.1 1.1 0 1.6 0 .2.3.3.5.5-.3.3-.7.5-.4.9.2.3.4.6.4 1v8.1c0 .8-.7 1.5-.5 2.4.2.7.1 1.5 0 2.3 0 .4-.7.6 0 1 .2.1.2.7 0 .9-.6.5-.5 1.1-.5 1.7 0 .8.1 1.5 0 2.3-.1 1 .4 2.1-.5 3.1-.1.1 0 .4 0 .7 0 1 .1 2 0 3-.1 1.1.4 2.3-.4 3.3-.2.2 0 .7 0 1.1v9.9c0 .7.4 1.5-.4 2.2 0 0 .1.2.2.3.3.2.3.6.2.8-.3.7-.6 1.4-.5 2.1.1.8-.1 1.6 0 2.3.1.6-.5.7-.5 1.2v15.1c.3.3.9.6.3 1.1-.2.2-.2.2-.1.5.4.7.4.7 0 1.4-.3.5-.3.5.3 1.1 0 1 .1 2 0 3-.1.5-.6 1-.5 1.7.1.5 0 1.1 0 1.6v3.4c-.7.6-.7 1.4-.3 2 .2.4.4.8.2 1-.7.8-.4 1.7-.5 2.6v6.5c0 .6.3 1.2-.4 1.7 0 .5-.1.9-.1 1.4v18c0 .6.2 1.2-.3 1.7-.4.5.1 1.2-.3 1.5-.4.5-.4 1.1-1 1.5-.4.3-.8.2-1.2.2-.1 0-.3-.2-.3-.3-.1-.4.1-.9-.4-1.2-.1-.1-.1-.5 0-.6.3-.3.4-.6.4-1 0-.9-.1-1.9 0-2.8 0-.7-.3-1.5.4-2.2.2-.1.1-.6.1-.9v-3.7c0-.7-.1-1.4 0-2.1.1-.6.5-1 .5-1.7-.1-1.8 0-3.7 0-5.5 0-.3.1-.6.3-.8.1-.1.2-.5.1-.6-.5-.3-.5-.8-.5-1.2v-5.3c0-.4-.1-.9.4-1.3.1-.1.1-.4.1-.6 0-1.1 0-2.1-.1-3.2-.5-.3-.4-.6.1-.9-.3-.9.5-2-.5-2.8l.5-.5c-.2-.2-.4-.3-.4-.5-.1-.3 0-.6 0-.9v-1.6c0-.3.9-.6.1-1 0-.5-.1-1.1-.1-1.6v-1.8c0-.6-.3-1.3.4-1.7l-.3-.3c-.1-.2-.2-.5-.2-.6.4-.3.5-.7.5-1.2 0-.7-.2-1.5.5-2.1v-2.1c0-.1.2-.2.2-.4.4-.9.4-.9-.2-2-.2-.4.1-.7.4-1l-.5-.5v-2.1c0-.2.2-.4.3-.6.2-.4.3-.4-.1-.8-.3-.3-.4-.6-.1-1 .3-.2.4-.5.2-.8-.1-.2-.3-.3-.4-.5-.2-.6.2-1.4-.3-2-.5-.5-.1-1.2-.2-1.8-.1-.3-.3-.5-.5-.9v-7c0-.5-.2-1 .3-1.5.4-.3.1-.9.2-1.3v-4.8c.4-.3.8-.6.3-1.1-.3-.2-.4-.6-.2-.8.6-.4.4-1 .4-1.5v-17.1c0-.6-.3-1.2.4-1.7 0-.6.3-1.2-.3-1.7-.4-.3-.1-.7-.2-1.1.7-.4.5-1.1.5-1.7v-3.9c.9-.7.3-1.7.5-2.6.1-.4.6-.7.5-1.2-.1-.4-.1-.9.4-1.2.2-.1.1-.6.1-.9v-4.2c0-.6.3-1.3-.4-1.9-.2-.2-.1-.7-.1-1.1v-16c0-.5.1-1.1-.5-1.5-.1 0 0-.4.1-.6.1-.2.3-.4.3-.6 0-.8.1-1.5 0-2.3 0-.3-.3-.6-.5-1-.1-.3.1-.6-.2-.9-.2-.3-.3-.7-.6-.9-.4-.4.2-.4.1-.8 0 0-.2-.2-.3-.4v-.4c-.1-.7.2-1.4-.2-2-.3-.6-.6-1.2-1.2-1.6-.3-.2.1-.8-.6-.8-.8.1-.3-.7-.8-1-.3-.2-.3-.6-.5-.9-.3-.4-.4-.9 0-1.2 1 .1.8-.3 1.1-.6Z" fill="#7F7F7F"/><path d="M63.558 22.523h5.4c.7-.1 1.1.5 1.8.5 2.7-.1 5.4 0 8.1 0 .4-.3.7-.8 1.2-.3.4.4 1 .4 1.3.1.7-.6 1.4-.3 2.1-.3.6 0 1.3-.3 1.8.4.5 0 1 .2 1.3-.3.1-.2.2-.2.4 0 .1.1.2.3.4.3h27.5c.4-.3.7-.8 1.2-.3.1.1.1.2.2.2h4.6c.1 0 .2-.3.4-.3s.5-.1.7 0c.3.2.4.4.7.1.4-.3.9-.3 1.3 0 .5.4.8.4 1.2 0 .1-.1.5 0 .7-.1.8-.5 1.5 1.2 2.3.1.9 0 1.8-.1 2.7-.1h8.1c.3 0 .6 0 .9.3.1.1.3.2.4.2h3.2c.8.8 1.8.3 2.8.5.6.1 1.2.1 1.7 0 .6-.1.8.5 1.3.5h3.7c.5 0 1.2.2 1.6-.2.6-.5 1.4 0 1.8-.3.5-.5 1.2-.2 1.5-.5.4-.4.9-.4 1.3-.4h3.9c.3 0 .6 0 .9-.3.5-.6.8-.1 1.2.3h4.4c.6 0 1.1-.1 1.5.5.1.1.4.1.5 0 .4-.5.9-.7 1.4-.1.1.1.4.1.7.1.8 0 1.6-.1 2.5 0 1.3.1 2.8-.4 4 .4h2.5c.5 0 .7.3 1 .6.3.3.2.5-.1.8l-.5.5h-5.7c-.8 0-1.6.2-2.3-.5-.5.1-1.2-.3-1.6.2-.3.3-.8.1-1.1.3-.7.3-1.1-1-1.9-.2-.5.5-1.2.2-1.9.2-.7.1-1.5.1-2.2 0-.8-.1-1.8.3-2.5-.4-.2-.2-.6 0-1 0h-4.4c-.7 0-1.2-.7-2-.5-.8.2-1.6 0-2.5 0h-6.9c-.7 0-1.5-.2-2.1.2-.6.5-1.2.2-1.9.3-.7.1-1.5-.1-2.2 0-.5.1-.9.6-1.5.5-.5-.1-1 0-1.5 0h-1.7c-.5 0-.9-.1-1.3.4-.1.2-.6.1-.9.1-1.2 0-2.3-.1-3.4 0-.8.1-1.8-.4-2.5.4-.3-.1-.6-.6-1-.4-.3.2-.5.5-1 .5-.3 0-.6-.1-.8-.4-.1-.2-.2 0-.4.1-.8.4-.9.4-1.5 0-.5-.3-1-.3-1.3-.1-.4.2-.7.4-1.1.3h-1c-.6 0-1.2-.1-1.7 0s-.8-.6-1.2-.3c-.5.4-1.1.2-1.6.3h-5.7c-.2.2-.4.3-.6.4-.4-.7-1.2-.4-1.8-.4h-10.6c-.9 0-1.8.2-2.5-.4-.1-.1-.6-.1-.7 0-.6.6-1.3.4-2 .5-.7.1-1.2-.7-2-.5-.6.2-1.3 0-2 0h-6.4c-.2-.1-.3-.3-.5-.5-.6.7-1.4.6-2.2.2-.6-.3-1-.4-1.5 0-.4.3-1 .4-1.3.1-.4-.4-.9-.3-1.3-.3h-5.7c-.8 0-1.6.3-2.3-.4h-2.5c-.1.1-.3.3-.5.4-.3-.3-.5-.5-1-.5h-12.7c-.4-.1-.5-.7-.9-.2-.2.3-.5.4-.8.2-.3-.2-.5-.4-.8-.4h-12.6c-.3 0-.6.2-.9.4-.1-.1-.3-.2-.5-.4h-1.7c-.8 0-1.7-.3-2.4.2s-1.4.1-2.1.3c-.2 0-.4.2-.6.3-.7.4-1.5.4-2 1-.3.3-.8 0-.8-.4v-1.6l.9-.9c.3-.3.6-.5.9-.8.8.2 1.4-.6 2.3-.5 1.1.1 2.1 0 3.2 0 .3 0 .8.1.9-.1.5-.5 1-.3 1.6-.4.5 0 1 0 1.3.4.1.1.4.1.5 0 .6-.7 1.3-.4 2-.4h1.5c.5 0 1 .1 1.5 0 .6-.1.8.5 1.3.5.5-.1 1.1.2 1.6-.3.2-.2.7-.1 1.1-.1.4.6 1 .4 1.5.4h13.6c.5 0 1.1-.1 1.6.4.3.2.9.2 1.3-.2.4-.6 1-.5 1.4.1Zm120.5 164.3c.3.5.3 1.2 0 1.5-.4.5-.4 1.1-1 1.5-.6.4-1.1 1-1.6 1.5-.6.2-1.3-.2-1.8.3-.1.1-.3.2-.4.2-.6.1-1.3.1-1.9.1-.5.6-1.2.3-1.8.3h-15.8c-.6 0-1.2-.1-1.5.5-.5 0-1 .2-1.4-.3-.1-.1-.6-.2-.6-.1-.4.5-1 .4-1.6.4h-25.3c-.5 0-1 .2-1.4-.2-.3-.4-.7-.2-1.1-.3-.5-.1-.7-.6-1.2-.5l-.2-.4c-.1-.3.2-.5.4-.4.8.2 1.2-.3 1.6-.8l.2-.2c.8 0 1.6.1 2.4 0 1-.1 2.1.5 3-.4h39.9c.8 0 1.8.4 2.5-.4.9 0 1.8-.1 2.7 0 .8.1 1.3-.5 1.9-.6.7-.9 1.9-1 2.7-1.6.4-.3.9-.2 1.3-.1Zm-167.1-146v-3.2c0-.6.3-1.2-.3-1.7-.5-.4.1-1.1-.5-1.4-.1-.1-.1-.4-.2-.6-.1-.4.2-.9-.4-1.3 0 0 0-.2.1-.3l.3-.6c0-.6-.1-1.3 0-1.8s.8-1 .9-1.5c.1-1.2.7-1.9 1.9-2.2.3-.1.5-.4.7-.6.3-.2 1-.3 1.3 0 .4.3.8.6.6 1.1-.3.7-.6 1.3-.5 2.1.1.7-.1 1.4 0 2.1.1.6-.4.9-.5 1.4-.1.5 0 1.1 0 1.6 0 .1-.1.1-.2.2-.5.2-.3.8-.7 1.2-.3.3 0 1-.2 1.3-.7 1-.4 2-.5 3.1 0 .4-.1.9.4 1.2.1.1.1.4.1.6v3.2c0 .4-.3.5-.4.8-.1.2.4.5.4.7 0 .3-.2.5-.5.9v5.3c0 .1-.1.1-.1.2-.8.1-.8.1-.8-.4v-1.6c-.6-.3-.5-.9-.5-1.4 0-.5.1-1.1 0-1.6-.2-.6-.6-1-.5-1.7.1-.6 0-1.2 0-1.8 0-.3-.2-.5-.4-.8-.1-.1-.1-.5 0-.6.4-.3.4-.6 0-.8-.1-.1-.1-.3 0-.4.2-.4.4-.5.5-.7Zm107.8 74.5-57.9-58.3c-4.2-4.2-4.2-11.1 0-15.3l4.1-4.1c4.2-4.2 11-4.2 15.1 0l57.9 58.3c4.2 4.2 4.2 11.1 0 15.3l-4.1 4.1c-4.1 4.2-10.9 4.2-15.1 0Z" fill="#7F7F7F"/><path d="m145.858 61.523-64 51.4c-4.6 3.7-11.4 2.9-15-1.7l-3.6-4.5c-3.7-4.6-2.9-11.5 1.7-15.2l64-51.4c4.6-3.7 11.4-2.9 15 1.7l3.6 4.5c3.7 4.7 2.9 11.5-1.7 15.2Zm-14.3 14.5c.1-.1.2-.2.4-.3.4-.3.9-.2 1.2.2.2.4.5.8.6 1.2 0 .4.3.6.4.9.1.6 0 1.2 0 1.7l-.3.3c-.3.3-.5.3-.7.1-.4-.4-.8-.7-1.1-1.1.3-.6-.4-.9-.4-1.4-.1-.6-.1-1.1-.1-1.6Zm-33.3-33c.4.4.9.8 1.3 1.2-.6.4-.3 1-.4 1.4-.1.1-.2.3-.4.4-.3.2-.9.2-1.1-.1-.3-.4-.5-.7-.7-1.1-.1-.2 0-.5.1-.7.1-.3.3-.7.5-.8.3 0 .5-.2.7-.3Zm-8.7 68.9c.3-.8.6-1.5.9-2.2.9.1 1.5-.7 2.2-1.1.2 0 .5-.1.7-.1.5 0 .8.5.5 1-.3.6-.7 1.1-1.2 1.6-.2.2-.6.5-.9.6-.5.2-1.2.5-1.4.4-.2-.1-.5-.1-.8-.2Z" fill="#7F7F7F"/></svg>