<svg xmlns="http://www.w3.org/2000/svg" viewBox="0 0 329.86 99.75"><defs><style>.cls-1,.cls-2,.cls-3,.cls-5{fill:none;stroke:gray;}.cls-1,.cls-3,.cls-5{stroke-linecap:round;}.cls-1,.cls-2,.cls-3{stroke-miterlimit:10;}.cls-1,.cls-5{stroke-width:2px;}.cls-2,.cls-3{stroke-width:3px;}.cls-4{fill:gray;}.cls-5{stroke-linejoin:round;}</style></defs><title>Asset 9</title><g id="Layer_2" data-name="Layer 2"><g id="Layer_1-2" data-name="Layer 1"><path class="cls-1" d="M1,27.84c31,7.61,38.49,53.11,75,59,19,3.08,36.46-6,48-14"/><path class="cls-1" d="M328.86,66.25c-31.09-7.21-39.15-52.62-75.74-58C234,5.37,216.75,14.7,205.3,22.81"/><rect class="cls-2" x="119.76" y="59.72" width="24" height="17" rx="5.72" ry="5.72" transform="translate(120.81 -79.75) rotate(58.39)"/><line class="cls-3" x1="135.33" y1="57.8" x2="144.7" y2="52.04"/><line class="cls-3" x1="142.67" y1="69.72" x2="152.04" y2="63.96"/><rect class="cls-2" x="177.04" y="18.38" width="33.42" height="23.68" rx="7.96" ry="7.96" transform="translate(117.97 -150.64) rotate(58.4)"/><path class="cls-4" d="M190.25,23.09c-2.57,0-2.58,4,0,4S192.83,23.09,190.25,23.09Z"/><path class="cls-4" d="M196.75,33.34c-2.57,0-2.58,4,0,4S199.33,33.34,196.75,33.34Z"/><line class="cls-5" x1="187.82" y1="56.62" x2="210.04" y2="61.44"/><line class="cls-5" x1="167.91" y1="23.22" x2="172.73" y2="1"/><line class="cls-5" x1="147.09" y1="26.26" x2="134.78" y2="7.14"/><line class="cls-5" x1="134.51" y1="43.13" x2="112.29" y2="38.31"/><line class="cls-5" x1="154.42" y1="76.52" x2="149.6" y2="98.75"/><line class="cls-5" x1="175.24" y1="73.49" x2="187.55" y2="92.61"/></g></g></svg>