<svg xmlns="http://www.w3.org/2000/svg" xmlns:xlink="http://www.w3.org/1999/xlink" viewBox="0 0 112.69 94.2"><defs><style>.cls-1{fill:none;}.cls-2{clip-path:url(#clip-path);}.cls-3{fill:#ce0e2d;}.cls-4{fill:#fff;}.cls-5{fill:#1d1d1b;}</style><clipPath id="clip-path" transform="translate(0 0)"><rect class="cls-1" width="112.69" height="94.2"/></clipPath></defs><title>Asset 7</title><g id="Layer_2" data-name="Layer 2"><g id="Layer_1-2" data-name="Layer 1"><g id="pantone_186_C" data-name="pantone 186 C"><g class="cls-2"><g class="cls-2"><path class="cls-3" d="M56.36,0c-17.52,0-37.5,1.51-37.5,31.24s22.61,31.27,37.5,31.27S93.83,61.2,93.83,31.24,74,0,56.36,0" transform="translate(0 0)"/><path class="cls-4" d="M80.73,31l-7.3-7.29c-3.05-3.05-6-6.58-12,.37l13.1,13.1-6,6L49,23.6c-3.2-3.2-6.3-6.3-11.87.49L62.36,49.36h0l-6,6L26,25C42.54,1.52,50.46,12.87,55.65,18.3c11.77-12.39,17.21-7.47,24.49.1L86.73,25Z" transform="translate(0 0)"/><path class="cls-5" d="M39.9,93.89h3.92V83.66a2,2,0,0,1,.58-1.55c.8-.77,2.37-.78,4.33-.69V78.28c-3.71-.53-6.34,0-7.62,1.45l-.06.06a5.57,5.57,0,0,0-1.15,3.87Z" transform="translate(0 0)"/><path class="cls-5" d="M17.29,93.89h3.92V83.76c0-3.6-2.29-5.67-6.27-5.67a7.18,7.18,0,0,0-4.19,1.12l-.16.11-.16-.11A7.06,7.06,0,0,0,6.3,78.09c-4,0-6.3,2.07-6.3,5.67V93.89H3.92V83.49c0-1.32.89-2.1,2.38-2.1s2.34.76,2.34,2.1v10.4h3.92V83.49c0-1.32.89-2.1,2.38-2.1s2.35.76,2.35,2.1Z" transform="translate(0 0)"/><rect class="cls-5" x="61.14" y="78.39" width="3.92" height="15.5"/><path class="cls-5" d="M77.58,93.89H81.5V84.2c0-3.89-2.46-6.11-6.73-6.11S68,80.31,68,84.2v9.69h3.92v-10c0-1.57,1.06-2.5,2.84-2.5s2.81.91,2.81,2.5Z" transform="translate(0 0)"/><path class="cls-5" d="M83.87,78.39v9.7c0,3.88,2.45,6.11,6.73,6.11s6.76-2.23,6.76-6.11v-9.7H93.44v10c0,1.57-1.06,2.51-2.84,2.51s-2.81-.92-2.81-2.51v-10Z" transform="translate(0 0)"/><path class="cls-5" d="M99.51,89.35v.19c0,3,2.33,4.66,6.57,4.66,3,0,6.61-.85,6.61-4.88,0-2.28-1.6-3.86-4.5-4.45l-3-.62c-1.1-.21-1.64-.68-1.64-1.44,0-1,.85-1.58,2.53-1.58.62,0,2.5,0,2.5,1.67v0h3.92v-.18c0-3-2.28-4.66-6.42-4.66s-6.45,1.66-6.45,4.81c0,2.32,1.6,3.92,4.5,4.51l3,.62c1.1.21,1.64.69,1.64,1.45s-.47,1.57-2.69,1.57-2.65-.91-2.65-1.67v0Z" transform="translate(0 0)"/><path class="cls-5" d="M63.19,71.42a2.37,2.37,0,1,0,2.37,2.37,2.37,2.37,0,0,0-2.37-2.37" transform="translate(0 0)"/><path class="cls-5" d="M50.55,81.7h0v6.69c0,2.3.48,3.78,1.5,4.66,1.22,1,3.32,1.33,6.43.88V90.79c-1.75.08-2.87.07-3.48-.5a2.25,2.25,0,0,1-.53-1.74V81.7h4V78.39h-4V73.7l-3.9,1.1v6.9Z" transform="translate(0 0)"/><path class="cls-5" d="M30.57,78.09c-4,0-6.2,1.8-6.35,4.68h3.92C28.23,81.56,29,81,30.57,81a2.36,2.36,0,0,1,2.6,2.35v1h-4c-3.92,0-5.69,1.89-5.69,4.91s1.89,4.91,5.18,4.91a5.33,5.33,0,0,0,4.86-2.5v2.19h3.45V83.83c0-3.65-2.32-5.74-6.36-5.74m2.76,10.73c0,.73-1,2.08-3.32,2.08-2.14,0-2.81-.67-2.81-1.93s.74-1.81,3-1.81h3.16Z" transform="translate(0 0)"/></g></g></g></g></g></svg>