<svg xmlns="http://www.w3.org/2000/svg" xmlns:xlink="http://www.w3.org/1999/xlink" viewBox="0 0 148.93 93.99"><defs><style>.cls-1{fill:none;}.cls-2{clip-path:url(#clip-path);}.cls-3{fill:#d02826;}.cls-4{fill:#fff;}.cls-5{fill:#1d1d1b;}.cls-6{fill:#9d9d9c;}</style><clipPath id="clip-path" transform="translate(0 0)"><rect class="cls-1" width="148.93" height="93.99"/></clipPath></defs><title>Asset 10</title><g id="Layer_2" data-name="Layer 2"><g id="Layer_1-2" data-name="Layer 1"><g id="CZ_logo_vyska_CMYK" data-name="CZ logo vyska CMYK"><g class="cls-2"><g class="cls-2"><path class="cls-3" d="M74.48,0C57,0,37.06,1.51,37.06,31.17s22.56,31.2,37.42,31.2,37.39-1.31,37.39-31.2S92,0,74.48,0" transform="translate(0 0)"/><path class="cls-4" d="M98.79,30.93l-7.27-7.27c-3-3.05-6-6.57-12,.36L92.63,37.09l-6,6L67.09,23.55c-3.19-3.2-6.28-6.29-11.83.49L80.47,49.25h0l-6,6L44.15,24.92C60.7,1.51,68.59,12.84,73.77,18.26c11.74-12.36,17.17-7.45,24.44.1l6.57,6.58Z" transform="translate(0 0)"/><path class="cls-5" d="M39.81,93.68h3.91V83.48a2,2,0,0,1,.58-1.56c.8-.76,2.36-.77,4.32-.68V78.11c-3.7-.53-6.33,0-7.61,1.44l0,.07s-1.14,1.11-1.15,3.85Z" transform="translate(0 0)"/><path class="cls-5" d="M17.25,93.68h3.91V83.58c0-3.6-2.28-5.67-6.25-5.67A7.25,7.25,0,0,0,10.72,79l-.16.11L10.41,79a7.16,7.16,0,0,0-4.13-1.12C2.29,77.91,0,80,0,83.58v10.1H3.91V83.3c0-1.31.89-2.09,2.37-2.09S8.62,82,8.62,83.3V93.68h3.91V83.3c0-1.31.89-2.09,2.38-2.09s2.34.76,2.34,2.09Z" transform="translate(0 0)"/><rect class="cls-5" x="61" y="78.22" width="3.91" height="15.46"/><path class="cls-5" d="M77.41,93.68h3.91V84c0-3.88-2.45-6.1-6.72-6.1s-6.74,2.22-6.74,6.1v9.67h3.91v-10c0-1.56,1.06-2.49,2.83-2.49s2.81.91,2.81,2.49Z" transform="translate(0 0)"/><path class="cls-5" d="M83.68,78.22v9.67c0,3.88,2.45,6.1,6.72,6.1s6.74-2.22,6.74-6.1V78.22H93.23v10c0,1.56-1.06,2.49-2.83,2.49s-2.81-.91-2.81-2.49v-10Z" transform="translate(0 0)"/><path class="cls-5" d="M99.29,89.15v.19c0,3,2.33,4.65,6.56,4.65,3,0,6.59-.85,6.59-4.87,0-2.27-1.6-3.85-4.49-4.44l-3-.61c-1.1-.22-1.64-.69-1.64-1.45,0-1,.85-1.57,2.53-1.57.62,0,2.49,0,2.49,1.67v0h3.91v-.19c0-3-2.27-4.65-6.4-4.65s-6.44,1.66-6.44,4.81c0,2.31,1.6,3.91,4.49,4.5l3,.61c1.1.22,1.64.69,1.64,1.45s-.47,1.57-2.68,1.57-2.65-.91-2.65-1.67v0Z" transform="translate(0 0)"/><path class="cls-5" d="M63.05,71.26a2.37,2.37,0,1,0,2.36,2.36,2.37,2.37,0,0,0-2.36-2.36" transform="translate(0 0)"/><path class="cls-5" d="M50.44,81.51h0V88.2c0,2.29.47,3.76,1.5,4.64,1.21,1,3.31,1.33,6.41.88V90.58c-1.75.09-2.86.08-3.47-.49a2.25,2.25,0,0,1-.53-1.74V81.51h4V78.22h-4V73.53l-3.89,1.11v6.87Z" transform="translate(0 0)"/><path class="cls-5" d="M30.5,77.91c-4,0-6.18,1.8-6.34,4.68h3.92c.09-1.21.83-1.73,2.42-1.73a2.35,2.35,0,0,1,2.59,2.34v1h-4c-3.91,0-5.67,1.88-5.67,4.9S25.27,94,28.56,94a5.32,5.32,0,0,0,4.85-2.49v2.18h3.44v-10c0-3.64-2.32-5.73-6.35-5.73m2.75,10.71c0,.73-1,2.07-3.31,2.07-2.13,0-2.8-.66-2.8-1.91s.74-1.81,3-1.81h3.15Z" transform="translate(0 0)"/><path class="cls-6" d="M116.88,89.25a2.36,2.36,0,1,0,2.36,2.36,2.36,2.36,0,0,0-2.36-2.36" transform="translate(0 0)"/><path class="cls-6" d="M127.56,77.91c-4.29,0-6.75,2.22-6.75,6.11v3.85c0,3.88,2.45,6.1,6.72,6.1s6.67-2.15,6.75-5.92h-4v.12c0,1.56-1,2.42-2.76,2.42s-2.72-.88-2.72-2.42V83.71c0-1.54,1-2.42,2.75-2.42s2.73.88,2.73,2.42v.12h4c-.08-3.77-2.52-5.92-6.72-5.92" transform="translate(0 0)"/><polygon class="cls-6" points="136.38 93.67 148.93 93.67 148.93 90.28 141.17 90.28 148.93 81.73 148.93 78.21 136.38 78.21 136.38 81.6 144.14 81.6 136.38 90.15 136.38 93.67"/></g></g></g></g></g></svg>