<svg xmlns="http://www.w3.org/2000/svg" viewBox="0 0 637.55 106.68"><g data-name="Layer 2"><g data-name="Layer 1"><path class="cls-1" d="M47.51 23.93c-3.1 0-3.11 4.81 0 4.81s3.1-4.81 0-4.81z"/><path class="cls-1" d="M47.51 29.74a3.26 3.26 0 01-3.33-3.4A3.35 3.35 0 0150 24a3.54 3.54 0 01.82 2.3 3.26 3.26 0 01-3.31 3.44zm0-4.81a1.41 1.41 0 101.32 1.4 1.53 1.53 0 00-.34-1 1.22 1.22 0 00-.98-.4zm.64 47.16c-3.1 0-3.1 4.81 0 4.81s3.1-4.81 0-4.81z"/><path class="cls-1" d="M48.15 77.9a3.23 3.23 0 01-2.5-1.1 3.52 3.52 0 01-.83-2.3 3.33 3.33 0 113.33 3.4zm0-4.81a1.32 1.32 0 00-1.33 1.41 1.59 1.59 0 00.34 1 1.24 1.24 0 001 .4 1.41 1.41 0 000-2.81zm30.5-46.27c-3.1 0-3.1 4.81 0 4.81s3.1-4.81 0-4.81z"/><path class="cls-1" d="M78.65 32.63a3.41 3.41 0 010-6.81 3.22 3.22 0 012.5 1.1 3.52 3.52 0 01.83 2.3 3.27 3.27 0 01-3.33 3.41zm0-4.81a1.41 1.41 0 101.35 1.4 1.32 1.32 0 00-1.35-1.4zm1.29 43.3c-3.1 0-3.11 4.82 0 4.82s3.06-4.82 0-4.82z"/><path class="cls-1" d="M79.93 76.94a3.41 3.41 0 112.51-5.72 3.54 3.54 0 01.82 2.31 3.27 3.27 0 01-3.33 3.41zm0-4.82a1.41 1.41 0 101.33 1.41 1.32 1.32 0 00-1.33-1.41zm9.96-1c-3.1 0-3.11 4.82 0 4.82s3.11-4.82 0-4.82z"/><path class="cls-1" d="M89.89 76.94a3.41 3.41 0 113.32-3.41 3.26 3.26 0 01-3.32 3.41zm0-4.82a1.41 1.41 0 000 2.82 1.41 1.41 0 000-2.82zm34.03-45.62c-3.1 0-3.1 4.81 0 4.81s3.08-4.81 0-4.81z"/><path class="cls-1" d="M123.92 32.31a3.41 3.41 0 113.33-3.41 3.26 3.26 0 01-3.33 3.41zm0-4.81a1.41 1.41 0 101.33 1.4 1.32 1.32 0 00-1.33-1.4zm12.84-1.32c-3.1 0-3.1 4.81 0 4.81s3.11-4.81 0-4.81z"/><path class="cls-1" d="M136.76 32a3.26 3.26 0 01-3.32-3.4 3.33 3.33 0 116.65 0 3.26 3.26 0 01-3.33 3.4zm0-4.81a1.41 1.41 0 101.33 1.4 1.31 1.31 0 00-1.33-1.41zM139 71.77c-3.1 0-3.1 4.81 0 4.81s3.11-4.81 0-4.81z"/><path class="cls-1" d="M139 77.58a3.41 3.41 0 113.33-3.41 3.26 3.26 0 01-3.33 3.41zm0-4.81a1.41 1.41 0 101.33 1.4 1.32 1.32 0 00-1.33-1.4zm10.6-46.59c-3.09 0-3.1 4.81 0 4.81s3.11-4.81 0-4.81z"/><path class="cls-1" d="M149.6 32a3.26 3.26 0 01-3.32-3.4 3.35 3.35 0 015.83-2.31 3.5 3.5 0 01.82 2.3A3.26 3.26 0 01149.6 32zm0-4.81a1.41 1.41 0 101.33 1.4 1.53 1.53 0 00-.34-1 1.23 1.23 0 00-.99-.41zm1.93 45.22c-3.1 0-3.1 4.81 0 4.81s3.11-4.81 0-4.81z"/><path class="cls-1" d="M151.53 78.22a3.23 3.23 0 01-2.5-1.1 3.5 3.5 0 01-.82-2.3 3.33 3.33 0 113.32 3.4zm0-4.81a1.31 1.31 0 00-1.32 1.41 1.53 1.53 0 00.34 1 1.2 1.2 0 001 .4 1.41 1.41 0 000-2.81zm30.18-2.93c-3.1 0-3.1 4.82 0 4.82s3.1-4.82 0-4.82z"/><path class="cls-1" d="M181.71 76.3a3.41 3.41 0 113.29-3.41 3.27 3.27 0 01-3.29 3.41zm0-4.82a1.41 1.41 0 101.29 1.41 1.33 1.33 0 00-1.29-1.41zm-26.33-59.11c-3.09 0-3.1 4.82 0 4.82s3.11-4.82 0-4.82z"/><path class="cls-1" d="M155.38 18.19a3.23 3.23 0 01-2.5-1.1 3.54 3.54 0 01-.82-2.31 3.33 3.33 0 116.65 0 3.27 3.27 0 01-3.33 3.41zm0-4.82a1.32 1.32 0 00-1.32 1.41 1.51 1.51 0 00.34 1 1.22 1.22 0 001 .41 1.33 1.33 0 001.33-1.41 1.32 1.32 0 00-1.35-1.41zm38.85 58.72c-3.1 0-3.1 4.81 0 4.81s3.11-4.81 0-4.81z"/><path class="cls-1" d="M194.23 77.9a3.41 3.41 0 010-6.81 3.2 3.2 0 012.5 1.1 3.45 3.45 0 01.83 2.3 3.26 3.26 0 01-3.33 3.41zm0-4.81a1.41 1.41 0 101.33 1.4 1.59 1.59 0 00-.34-1 1.23 1.23 0 00-.99-.4zM225.7 26.5c-3.1 0-3.11 4.81 0 4.81s3.1-4.81 0-4.81z"/><path class="cls-1" d="M225.7 32.31a3.26 3.26 0 01-3.33-3.4 3.35 3.35 0 015.83-2.31 3.52 3.52 0 01.82 2.3 3.26 3.26 0 01-3.32 3.41zm0-4.81a1.41 1.41 0 101.3 1.4 1.53 1.53 0 00-.34-1 1.22 1.22 0 00-.96-.4zm12.52 43.3c-3.1 0-3.11 4.82 0 4.82s3.1-4.82 0-4.82z"/><path class="cls-1" d="M238.22 76.62a3.41 3.41 0 113.32-3.41 3.27 3.27 0 01-3.32 3.41zm0-4.82a1.41 1.41 0 101.32 1.41 1.33 1.33 0 00-1.32-1.41zm18.3-45.3c-3.1 0-3.11 4.81 0 4.81s3.1-4.81 0-4.81z"/><path class="cls-1" d="M256.52 32.31a3.26 3.26 0 01-3.33-3.4A3.35 3.35 0 01259 26.6a3.52 3.52 0 01.82 2.3 3.26 3.26 0 01-3.3 3.41zm0-4.81a1.41 1.41 0 101.32 1.4 1.32 1.32 0 00-1.32-1.4zm-12.85 26.61c-3.09 0-3.1 4.81 0 4.81s3.11-4.81 0-4.81z"/><path class="cls-1" d="M243.67 59.92a3.23 3.23 0 01-2.5-1.1 3.5 3.5 0 01-.82-2.3 3.33 3.33 0 113.32 3.4zm0-4.81a1.32 1.32 0 00-1.32 1.41 1.53 1.53 0 00.34 1 1.22 1.22 0 001 .4 1.41 1.41 0 000-2.81zm13.81-37.6c-3.1 0-3.1 4.81 0 4.81s3.1-4.81 0-4.81z"/><path class="cls-1" d="M257.48 23.32a3.23 3.23 0 01-2.5-1.1 3.51 3.51 0 01-.83-2.3 3.33 3.33 0 116.66 0 3.27 3.27 0 01-3.33 3.4zm0-4.81a1.32 1.32 0 00-1.33 1.41 1.59 1.59 0 00.34 1 1.24 1.24 0 001 .4 1.41 1.41 0 000-2.81zM49.76 52.66a1.61 1.61 0 000 3.21 1.61 1.61 0 000-3.21z"/><path class="cls-1" d="M49.76 56.87a2.52 2.52 0 01-2.55-2.6 2.74 2.74 0 01.62-1.76 2.59 2.59 0 111.93 4.36zm0-3.21a.61.61 0 10.55.61.69.69 0 00-.15-.45.47.47 0 00-.4-.16zm10.91-5.81a1.61 1.61 0 000 3.21 1.61 1.61 0 000-3.21z"/><path class="cls-1" d="M60.67 52.06a2.52 2.52 0 01-2.55-2.61 2.65 2.65 0 01.63-1.75 2.47 2.47 0 011.92-.85 2.61 2.61 0 010 5.21zm0-3.21a.61.61 0 10.55.6.71.71 0 00-.14-.45.48.48 0 00-.41-.15zM93.1 28.26a1.61 1.61 0 000 3.21 1.61 1.61 0 000-3.21z"/><path class="cls-1" d="M93.1 32.47a2.52 2.52 0 01-2.55-2.6 2.69 2.69 0 01.63-1.76 2.47 2.47 0 011.92-.85 2.61 2.61 0 010 5.21zm0-3.21a.61.61 0 10.55.61.69.69 0 00-.15-.45.45.45 0 00-.4-.16zM122 71a1.61 1.61 0 000 3.21 1.61 1.61 0 000-3.21z"/><path class="cls-1" d="M122 75.17a2.61 2.61 0 112.55-2.6 2.52 2.52 0 01-2.55 2.6zm0-3.17a.53.53 0 00-.55.61.52.52 0 00.55.6.48.48 0 00.41-.15.73.73 0 00.14-.45.53.53 0 00-.55-.61zm16.69-21.58a1.61 1.61 0 000 3.21 1.61 1.61 0 000-3.21z"/><path class="cls-1" d="M138.69 54.63a2.61 2.61 0 112.55-2.63 2.52 2.52 0 01-2.55 2.63zm0-3.21a.53.53 0 00-.55.6.69.69 0 00.14.45.48.48 0 00.41.16.45.45 0 00.4-.16.69.69 0 00.15-.45.52.52 0 00-.55-.6zm42.06-23.8a1.61 1.61 0 000 3.21 1.61 1.61 0 000-3.21z"/><path class="cls-1" d="M180.75 31.83a2.61 2.61 0 112.55-2.61 2.52 2.52 0 01-2.55 2.61zm0-3.21a.53.53 0 00-.55.61.73.73 0 00.14.45.51.51 0 00.41.15.5.5 0 00.4-.15.75.75 0 00.15-.46.53.53 0 00-.55-.6zm-16.38 20.51a1.61 1.61 0 000 3.21 1.61 1.61 0 000-3.21z"/><path class="cls-1" d="M164.37 53.34a2.61 2.61 0 112.55-2.6 2.52 2.52 0 01-2.55 2.6zm0-3.21a.53.53 0 00-.55.61.74.74 0 00.15.45.47.47 0 00.4.15.51.51 0 00.41-.15.73.73 0 00.14-.45.53.53 0 00-.55-.61zm1.93-30.21a1.61 1.61 0 000 3.21 1.61 1.61 0 000-3.21z"/><path class="cls-1" d="M166.3 24.13a2.52 2.52 0 01-2.55-2.61 2.65 2.65 0 01.63-1.75 2.47 2.47 0 011.92-.85 2.61 2.61 0 010 5.21zm0-3.21a.61.61 0 10.55.6.66.66 0 00-.15-.45c-.05-.07-.15-.15-.4-.15zm9.95-8.71a1.61 1.61 0 000 3.21 1.61 1.61 0 000-3.21z"/><path class="cls-1" d="M176.25 16.42a2.52 2.52 0 01-2.55-2.6 2.73 2.73 0 01.63-1.76 2.47 2.47 0 011.92-.85 2.52 2.52 0 012.55 2.6 2.52 2.52 0 01-2.55 2.61zm0-3.21a.53.53 0 00-.55.61.55.55 0 101.1 0 .53.53 0 00-.55-.61zm18.62 14.41a1.61 1.61 0 000 3.21 1.61 1.61 0 000-3.21z"/><path class="cls-1" d="M194.87 31.83a2.52 2.52 0 01-2.55-2.6 2.73 2.73 0 01.63-1.76 2.48 2.48 0 011.92-.85 2.61 2.61 0 010 5.21zm0-3.21a.61.61 0 10.55.6.73.73 0 00-.14-.45.51.51 0 00-.41-.15zm29.86 43.63a1.61 1.61 0 000 3.21 1.61 1.61 0 000-3.21z"/><path class="cls-1" d="M224.73 76.46a2.52 2.52 0 01-2.55-2.61 2.7 2.7 0 01.63-1.75 2.47 2.47 0 011.92-.85 2.61 2.61 0 010 5.21zm0-3.21a.61.61 0 10.55.6.73.73 0 00-.14-.45.48.48 0 00-.41-.15zM269 55.55a1.61 1.61 0 000 3.21 1.61 1.61 0 000-3.21z"/><path class="cls-1" d="M269 59.76a2.61 2.61 0 112.55-2.6 2.52 2.52 0 01-2.55 2.6zm0-3.21a.53.53 0 00-.55.61.71.71 0 00.14.45.48.48 0 00.41.15.46.46 0 00.4-.15.74.74 0 00.15-.45.53.53 0 00-.55-.61zm6.78 17.3a1.61 1.61 0 000 3.21 1.61 1.61 0 000-3.21z"/><path class="cls-1" d="M275.78 78.06a2.61 2.61 0 112.55-2.6 2.52 2.52 0 01-2.55 2.6zm0-3.21a.53.53 0 00-.55.61.66.66 0 00.15.45.61.61 0 00.8 0 .68.68 0 00.15-.45.53.53 0 00-.55-.61zm-11.24-61.68a1.61 1.61 0 000 3.21 1.61 1.61 0 000-3.21z"/><path class="cls-1" d="M264.54 17.38a2.52 2.52 0 01-2.55-2.6 2.75 2.75 0 01.63-1.76 2.48 2.48 0 011.92-.85 2.52 2.52 0 012.55 2.61 2.52 2.52 0 01-2.55 2.6zm0-3.21a.53.53 0 00-.55.61.55.55 0 101.1 0 .69.69 0 00-.14-.45.48.48 0 00-.41-.16zM47.51 74.297l1.926-20.228.956.09-1.927 20.23z"/><path class="cls-1" d="M46.423 75.194l2.105-22.221 2.947.28-2.105 22.22z"/><path class="cls-1" d="M49.71 53.684l10.597-4.818.397.874-10.596 4.818z"/><path class="cls-1" d="M48.388 53.17l12.419-5.641 1.224 2.695-12.419 5.641zm101.027-24.58l.03-.96 31.144.963-.03.96z"/><path class="cls-1" d="M148.394 29.56l.092-2.96 33.144 1.025-.092 2.958zM46.868 26.225l.956-.088 2.567 27.932-.956.088z"/><path class="cls-1" d="M45.78 25.32l2.948-.27 2.75 29.923-2.948.271zm14.371 23.656l17.98-20.223.718.638-17.98 20.223z"/><path class="cls-1" d="M58.752 49.071l19.286-21.738 2.214 1.965-19.286 21.738z"/><path class="cls-1" d="M60.135 49.593l.75-.6L80.15 73.075l-.75.6z"/><path class="cls-1" d="M58.73 49.437l2.31-1.85 20.516 25.644-2.311 1.85zM89.246 73.98l3.207-44.305.957.07-3.207 44.304z"/><path class="cls-1" d="M88.184 74.906l3.335-46.3 2.953.212-3.335 46.3z"/><path class="cls-1" d="M92.53 29.969l.795-.538 28.899 42.7-.795.538z"/><path class="cls-1" d="M91.14 29.711l2.452-1.659 30.02 44.356-2.451 1.66z"/><path class="cls-1" d="M121.358 72.38l2.25-43.342.958.05-2.249 43.342z"/><path class="cls-1" d="M120.309 73.326l2.352-45.34 2.956.154-2.352 45.34zm15.811-45.197l.958-.078 1.928 23.762-.957.078z"/><path class="cls-1" d="M135.04 27.227l2.95-.239 2.086 25.756-2.95.239z"/><path class="cls-1" d="M138.048 51.869l.96-.028.642 22.471-.96.027z"/><path class="cls-1" d="M137.02 50.898l2.958-.085.7 24.47-2.958.085zm26.815-.606l16.376-21.504.764.581L164.6 50.874z"/><path class="cls-1" d="M162.422 50.474l17.592-23.092 2.355 1.793-17.592 23.093z"/><path class="cls-1" d="M150.939 74.412l12.845-24.078.847.452-12.845 24.078z"/><path class="cls-1" d="M149.591 74.843l13.778-25.847 2.612 1.392-13.778 25.847zm-2.611 9.137h30.24v.96h-30.24z"/><path class="cls-1" d="M150.284 73.229l32.174-2.064.19 2.954-32.175 2.064zm4.681-58.209l.504-.817 10.916 6.742-.504.816z"/><path class="cls-1" d="M153.589 15.345l1.555-2.518 12.618 7.792-1.556 2.519z"/><path class="cls-1" d="M165.843 20.984l9.956-7.706.587.76-9.956 7.705z"/><path class="cls-1" d="M164.43 20.795l11.541-8.927 1.811 2.342-11.54 8.926zm29.16 53.859l.637-45.586.96.014-.636 45.585z"/><path class="cls-1" d="M192.567 75.63l.673-47.586 2.96.042-.673 47.585z"/><path class="cls-1" d="M194.302 29.312l.797-.534 29.86 44.62-.798.535z"/><path class="cls-1" d="M192.914 29.037l2.46-1.646 30.972 46.283-2.46 1.646z"/><path class="cls-1" d="M224.087 73.685l.965-44.95.96.021-.966 44.95z"/><path class="cls-1" d="M223.086 74.663l1.008-46.95 2.96.064-1.009 46.95zm14.845-1.428l5.139-17.011.919.278-5.14 17.01z"/><path class="cls-1" d="M236.661 73.894l5.734-18.92 2.833.858-5.734 18.92z"/><path class="cls-1" d="M243.09 56.16l12.845-27.608.87.405-12.844 27.608z"/><path class="cls-1" d="M241.764 56.648l13.678-29.426 2.685 1.247-13.678 29.427z"/><path class="cls-1" d="M255.922 28.945l.877-.389 12.52 28.25-.878.39z"/><path class="cls-1" d="M254.602 28.436l2.707-1.2 13.329 30.08-2.707 1.199z"/><path class="cls-1" d="M268.434 57.193l.901-.331 6.74 18.298-.9.332z"/><path class="cls-1" d="M267.15 56.6l2.778-1.022 7.431 20.175-2.778 1.023z"/><path class="cls-1" d="M243.498 56.845l.024-.96 25.362.642-.024.96z"/><path class="cls-1" d="M242.48 57.82l.076-2.96 27.36.693-.074 2.959zm14.88-38.95l7.072-5.119.563.778-7.071 5.119z"/><path class="cls-1" d="M255.646 19.162l8.676-6.313 1.742 2.393-8.677 6.313z"/><path class="cls-2" d="M320.89 24.53c16.41 0 28.51 11 28.51 27.27s-12.1 27.37-28.51 27.37-28.51-11-28.51-27.37 12.1-27.27 28.51-27.27zm0 46.86c9.74 0 17-7.88 17-19.59s-7.28-19.5-17-19.5-17 7.78-17 19.5 7.16 19.59 17 19.59zm41.53-45.68H386c16.3 0 28.09 10.53 28.09 26.09S402.31 78 386 78h-23.58zm23.18 44.2c9.94 0 17-7 17-18.11s-7.08-18-17-18h-12.1v36.11zM438.51 59l-21.74-33.29h12.61l9.85 15.65 5 9.75 5-9.75 9.84-15.65h12.31L449.58 59v19h-11.07zm42.04 8.65c5.95 2.36 12.62 3.84 17.33 3.84 5.54 0 11.69-2.17 11.69-8.17 0-4.53-5.23-5.91-11-7.49-8.72-2.26-20.41-5.12-20.41-16.44 0-9 8-14.86 20.82-14.86a53.36 53.36 0 0118.56 3.34l-1.74 7.58a52.25 52.25 0 00-16.51-3.34c-5.13 0-10.26 1.77-10.26 6.79 0 4 4.21 5.71 9.23 7.09 9 2.26 22.15 4.82 22.15 16.54s-11.17 16.64-23.28 16.64a52.91 52.91 0 01-18.25-3.64zm53.63-41.94h40.41l-.59 8.07h-28.74v14.37l24.1-.68v8.07l-24.1-.69v15.06h30.15l-.62 8.09h-40.61zm68.61 0h12.92L637.55 78h-12.31l-4.71-12.9h-23.08L592.74 78h-11.8zm-2.46 31.6h17.43l-2.57-7L609 33.39l-6 16.93z"/><path class="cls-1" d="M10.28 27L32.41 0 4.61 26 0 63.7l20.73 31.88 36.37 11.1 35-14.88-33.56 8.8-31.94-9.83L7.3 61.08z"/></g></g></svg>