<svg xmlns="http://www.w3.org/2000/svg" viewBox="0 0 619.55 106.68"><g data-name="Layer 2"><g data-name="Layer 1"><path class="cls-1" d="M302.89 24.53c16.41 0 28.51 11 28.51 27.27s-12.1 27.37-28.51 27.37-28.51-11-28.51-27.37 12.1-27.27 28.51-27.27zm0 46.86c9.74 0 17-7.88 17-19.59s-7.28-19.5-17-19.5-17 7.78-17 19.5 7.16 19.59 17 19.59zm41.53-45.68H368c16.3 0 28.09 10.53 28.09 26.09S384.31 78 368 78h-23.58zm23.18 44.2c9.94 0 17-7 17-18.11s-7.08-18-17-18h-12.1v36.11zM420.51 59l-21.74-33.29h12.61l9.85 15.65 5 9.75 5-9.75 9.84-15.65h12.31L431.58 59v19h-11.07zm42.04 8.65c5.95 2.36 12.62 3.84 17.33 3.84 5.54 0 11.69-2.17 11.69-8.17 0-4.53-5.23-5.91-11-7.49-8.72-2.26-20.41-5.12-20.41-16.44 0-9 8-14.86 20.82-14.86a53.36 53.36 0 0118.56 3.34l-1.74 7.58a52.25 52.25 0 00-16.51-3.34c-5.13 0-10.26 1.77-10.26 6.79 0 4 4.21 5.71 9.23 7.09 9 2.26 22.15 4.82 22.15 16.54s-11.17 16.64-23.28 16.64a52.91 52.91 0 01-18.25-3.64zm53.63-41.94h40.41l-.59 8.07h-28.74v14.37l24.1-.68v8.07l-24.1-.69v15.06h30.15l-.62 8.09h-40.61zm68.61 0h12.92L619.55 78h-12.31l-4.71-12.9h-23.08L574.74 78h-11.8zm-2.46 31.6h17.43l-2.57-7L591 33.39l-6 16.93z"/><path class="cls-2" d="M10.28 27L32.41 0 4.61 26 0 63.7l20.73 31.88 36.37 11.1 35-14.88-33.56 8.8-31.94-9.83L7.3 61.08z"/><path class="cls-2" d="M48.56 23.07c-3.21 0-3.21 5 0 5s3.22-5 0-5zM49.23 73c-3.21 0-3.22 5 0 5s3.21-5 0-5zm31.6-46.93c-3.21 0-3.21 5 0 5s3.22-5 0-5zM82.16 72c-3.21 0-3.21 5 0 5s3.22-5 0-5zm10.32 0c-3.22 0-3.22 5 0 5s3.21-5 0-5zm35.26-46.27c-3.21 0-3.22 5 0 5s3.26-5 0-5zm13.31-.33c-3.21 0-3.22 5 0 5s3.21-5 0-5zm2.33 47.24c-3.22 0-3.22 5 0 5s3.21-5 0-5zm10.97-47.24c-3.21 0-3.21 5 0 5s3.22-5 0-5zm2 47.91c-3.21 0-3.22 5 0 5s3.22-5 0-5zm31.27-2c-3.21 0-3.21 5 0 5s3.22-5 0-5zm-27.28-60.22c-3.21 0-3.21 5 0 5s3.22-5 0-5zM200.6 73c-3.21 0-3.22 5 0 5s3.21-5 0-5zm32.6-47.27c-3.21 0-3.22 5 0 5s3.22-5 0-5zm16.97 45.91c-3.21 0-3.22 5 0 5s3.21-5 0-5zm1.33-45.91c-3.21 0-3.22 5 0 5s3.21-5 0-5zm1-9.31c-3.22 0-3.22 5 0 5s3.21-5 0-5zM50.89 52.85a1.66 1.66 0 000 3.32 1.66 1.66 0 000-3.32zm11.31-4.99a1.66 1.66 0 000 3.32 1.66 1.66 0 000-3.32zm33.6-20.3a1.67 1.67 0 000 3.33 1.67 1.67 0 000-3.33zm29.94 44.25a1.67 1.67 0 000 3.33 1.67 1.67 0 000-3.33zM143 50.52a1.66 1.66 0 000 3.32 1.66 1.66 0 000-3.32zm43.62-23.62a1.66 1.66 0 000 3.32 1.66 1.66 0 000-3.32zm-16.96 22.29a1.66 1.66 0 000 3.32 1.66 1.66 0 000-3.32zm1.99-30.28a1.67 1.67 0 000 3.33 1.67 1.67 0 000-3.33zM182 10.93a1.67 1.67 0 000 3.33 1.67 1.67 0 000-3.33zm19.26 15.97a1.66 1.66 0 000 3.32 1.66 1.66 0 000-3.32zm30.94 46.24a1.67 1.67 0 000 3.33 1.67 1.67 0 000-3.33zm27.61-61.21a1.66 1.66 0 000 3.32 1.66 1.66 0 000-3.32z"/><path class="cls-2" d="M48.554 75.248l2-20.955.995.095-2 20.955z"/><path class="cls-2" d="M50.859 53.887l10.98-4.99.413.91-10.98 4.99zM154.17 27.894l.03-1 32.275.998-.031 1z"/><path class="cls-2" d="M47.902 25.45l.996-.092 2.66 28.948-.996.091zm13.602 23.264l18.507-21.066.751.66-18.506 21.066z"/><path class="cls-2" d="M61.65 49.664l.78-.624 19.96 24.948-.781.625zm30.169 25.271l3.323-45.91.997.072-3.323 45.91z"/><path class="cls-2" d="M95.224 29.329l.828-.56 29.947 44.248-.828.56z"/><path class="cls-2" d="M125.085 73.279l2.33-44.91.998.052-2.33 44.91zm15.302-45.831l.997-.08 1.994 24.62-.997.08z"/><path class="cls-2" d="M142.38 52.024l1-.028.666 23.29-1 .029zm26.722-1.635l16.966-22.287.796.605-16.966 22.287z"/><path class="cls-2" d="M155.742 75.404l13.303-24.955.883.47-13.303 24.956z"/><path class="cls-2" d="M156.154 75.13l31.276-2 .064.998-31.276 2zm3.75-61.278l.526-.851 11.307 6.983-.526.851z"/><path class="cls-2" d="M171.169 20.007l10.31-7.983.613.79-10.311 7.984zm28.768 55.621l.652-47.246 1 .014-.652 47.246z"/><path class="cls-2" d="M200.673 28.66l.83-.557 30.945 46.241-.831.556z"/><path class="cls-2" d="M231.526 74.63l1.008-46.58 1 .022-1.008 46.58zm18.141.161l1.184-46.745 1 .025-1.184 46.745zm2.375-56.437l7.32-5.322.588.809-7.32 5.322z"/></g></g></svg>