<svg xmlns="http://www.w3.org/2000/svg" viewBox="0 0 664.18 396.29"><g data-name="Layer 2"><g data-name="Layer 1"><path class="cls-1" d="M173.84 217.72c25.4 0 44.14 17.08 44.14 42.23 0 25.31-18.74 42.39-44.14 42.39S129.7 285.26 129.7 260c0-25.2 18.73-42.28 44.14-42.28zm0 72.57c15.08 0 26.36-12.19 26.36-30.34s-11.28-30.18-26.36-30.18c-15.25 0-26.36 12-26.36 30.18s11.11 30.34 26.36 30.34zm64.31-70.74h36.52c25.25 0 43.51 16.32 43.51 40.4 0 24.24-18.26 40.56-43.51 40.56h-36.52zM274 288c15.41 0 26.36-10.83 26.36-28.06 0-17.07-10.95-27.9-26.36-27.9h-18.7v56zm82-16.92l-33.66-51.53h19.53l15.24 24.24 7.78 15.1 7.78-15.1 15.25-24.24h19.05l-33.82 51.53v29.43H356zm65.07 13.42c9.21 3.66 19.53 5.95 26.84 5.95 8.57 0 18.1-3.36 18.1-12.66 0-7-8.1-9.15-17-11.59-13.5-3.5-31.6-7.92-31.6-25.46 0-13.87 12.39-23 32.23-23a82.47 82.47 0 0128.74 5.19l-2.69 11.74c-8.74-3.21-18.42-5.19-25.57-5.19-7.94 0-15.88 2.75-15.88 10.52 0 6.25 6.51 8.84 14.29 11 14 3.51 34.3 7.47 34.3 25.61s-17.31 25.77-36 25.77c-9.85 0-19.85-2.44-28.27-5.64zm83.05-64.95h62.56l-.95 12.5h-44.46v22.26l37.31-1.06v12.5l-37.31-1.07V288H568l-1 12.5h-62.88zm106.23 0h20l33.82 81h-19.05l-7.3-20h-35.73l-7.3 20h-18.26zm-3.81 48.94h27l-4-10.82-9.54-26.23-9.36 26.23z"/><path class="cls-2" d="M38.19 100.47L120.4 0 17.14 96.4 0 236.63l77 118.43 135.12 41.23 130-55.27-124.65 32.67L98.84 337.2 27.12 226.9z"/><path class="cls-2" d="M133.57 67.3c-8 0-8 12.4 0 12.4s7.99-12.4 0-12.4zm1.65 124c-8 0-8 12.4 0 12.4s7.99-12.4 0-12.4zm78.53-116.56c-8 0-8 12.4 0 12.4s7.99-12.4 0-12.4zm3.31 114.08c-8 0-8 12.4 0 12.4s7.99-12.4 0-12.4zm25.62 0c-8 0-8 12.4 0 12.4s8-12.4 0-12.4zm87.63-114.91c-8 0-8 12.4 0 12.4s7.99-12.4 0-12.4zm33.06-.82c-8 0-8 12.4 0 12.4s8-12.4 0-12.4zm5.79 117.38c-8 0-8 12.4 0 12.4s7.99-12.4 0-12.4zm27.28-117.38c-8 0-8 12.4 0 12.4s7.99-12.4 0-12.4zm4.96 119.03c-8 0-8 12.4 0 12.4s7.99-12.4 0-12.4zm77.7-4.96c-8 0-8 12.4 0 12.4s8-12.4 0-12.4zM411.32 37.54c-8 0-8 12.4 0 12.4s7.99-12.4 0-12.4zM511.34 191.3c-8 0-8 12.4 0 12.4s7.99-12.4 0-12.4zm81.01-117.39c-8 0-8 12.4 0 12.4s8-12.4 0-12.4zM634.51 188c-8 0-8 12.4 0 12.4s8-12.4 0-12.4zm3.31-114.09c-8 0-8 12.4 0 12.4s7.99-12.4 0-12.4zm2.48-23.14c-8 0-8 12.4 0 12.4s7.99-12.4 0-12.4zm-500.95 90.51c-5.32 0-5.32 8.27 0 8.27s5.33-8.27 0-8.27zm28.11-12.4c-5.32 0-5.33 8.27 0 8.27s5.33-8.27 0-8.27zM251 78.46c-5.32 0-5.33 8.27 0 8.27s5.28-8.27 0-8.27zm74.35 109.94c-5.32 0-5.33 8.27 0 8.27s5.33-8.27 0-8.27zm42.98-52.9c-5.32 0-5.32 8.26 0 8.26s5.33-8.26 0-8.26zm108.29-58.69c-5.31 0-5.32 8.26 0 8.26s5.38-8.26 0-8.26zm-42.15 55.38c-5.32 0-5.33 8.27 0 8.27s5.32-8.27 0-8.27zM439.43 57c-5.32 0-5.33 8.26 0 8.26s5.32-8.26 0-8.26zm25.62-19.87c-5.32 0-5.33 8.26 0 8.26s5.33-8.26 0-8.26zM513 76.81c-5.32 0-5.33 8.26 0 8.26s5.32-8.26 0-8.26zm76.87 114.9c-5.31 0-5.32 8.27 0 8.27s5.33-8.27 0-8.27zm68.62-152.1c-5.32 0-5.33 8.26 0 8.26s5.32-8.26 0-8.26z"/><path class="cls-2" d="M134.764 197.149l5.468-52.024 2.467.26-5.468 52.023z"/><path class="cls-2" d="M139.25 143.864l27.285-12.4 1.026 2.258-27.284 12.4zm256.724-64.587l.077-2.479 80.181 2.478-.076 2.48z"/><path class="cls-2" d="M131.916 73.201l2.47-.227 6.608 71.917-2.47.227zm34.195 58.59l46.3-52.074 1.852 1.648-46.298 52.074z"/><path class="cls-2" d="M166.087 133.383l1.937-1.549 49.6 62.001-1.936 1.55zm74.953 62.783l8.257-114.081 2.474.179-8.258 114.081z"/><path class="cls-2" d="M249.51 82.856l2.053-1.39 74.406 109.938-2.054 1.39z"/><path class="cls-2" d="M323.718 192.074l5.79-111.6 2.477.129-5.79 111.6zm38.006-113.887l2.472-.2 4.953 61.17-2.471.2z"/><path class="cls-2" d="M366.694 139.235l2.479-.071 1.656 57.866-2.479.071zm66.386-4.056l42.164-55.388 1.973 1.502-42.163 55.388z"/><path class="cls-2" d="M399.901 197.328l33.05-62.001 2.189 1.167-33.05 62z"/><path class="cls-2" d="M400.919 196.642l77.7-4.97.16 2.474-77.702 4.97zm9.319-152.268l1.303-2.11 28.103 17.356-1.304 2.11z"/><path class="cls-2" d="M438.233 59.679l25.626-19.842 1.519 1.96L439.75 61.64zm71.46 138.206l1.619-117.389 2.48.035-1.62 117.388z"/><path class="cls-2" d="M511.523 81.17l2.061-1.38 76.888 114.897-2.061 1.38z"/><path class="cls-2" d="M588.199 195.404l2.505-115.732 2.48.053-2.506 115.733zm45.071.406l2.94-116.143 2.48.063-2.94 116.143zm5.9-140.245l18.19-13.226 1.46 2.006-18.19 13.226z"/></g></g></svg>