<svg xmlns="http://www.w3.org/2000/svg" viewBox="0 0 664.18 396.29"><g data-name="Layer 2"><g data-name="Layer 1"><path class="cls-1" d="M133.94 71.83c-7.15 0-7.16 11.11 0 11.11s7.16-11.11 0-11.11zm1.48 111.11c-7.15 0-7.16 11.11 0 11.11s7.16-11.11 0-11.11zM205.79 78.5c-7.15 0-7.16 11.11 0 11.11s7.21-11.11 0-11.11zm2.96 102.22c-7.15 0-7.16 11.11 0 11.11s7.16-11.11 0-11.11zm22.96 0c-7.15 0-7.16 11.11 0 11.11s7.16-11.11 0-11.11zm78.52-102.96c-7.15 0-7.16 11.11 0 11.11s7.16-11.11 0-11.11zm29.63-.76c-7.15 0-7.17 11.11 0 11.11S347 77 339.86 77zM345 182.2c-7.15 0-7.16 11.11 0 11.11s7.2-11.11 0-11.11zM369.48 77c-7.14 0-7.16 11.11 0 11.11s7.17-11.11 0-11.11zm4.45 106.68c-7.15 0-7.16 11.11 0 11.11s7.16-11.11 0-11.11zm69.63-4.44c-7.15 0-7.17 11.11 0 11.11s7.16-11.11 0-11.11zM382.82 45.17c-7.15 0-7.16 11.11 0 11.11s7.18-11.11 0-11.11zm89.62 137.77c-7.15 0-7.16 11.11 0 11.11s7.16-11.11 0-11.11zM545 77.76c-7.15 0-7.16 11.11 0 11.11s7.19-11.11 0-11.11zM573.92 180c-7.15 0-7.16 11.11 0 11.11s7.16-11.11 0-11.11zm42.22-102.24c-7.15 0-7.16 11.11 0 11.11s7.16-11.11 0-11.11zm-29.63 63.7c-7.15 0-7.16 11.11 0 11.11s7.16-11.11 0-11.11zM618.36 57c-7.14 0-7.16 11.11 0 11.11s7.17-11.11 0-11.11zm-479.24 81.13c-4.76 0-4.77 7.4 0 7.4s4.78-7.4 0-7.4zM164.31 127c-4.77 0-4.78 7.4 0 7.4s4.77-7.4 0-7.4zm74.81-45.17c-4.77 0-4.78 7.41 0 7.41s4.77-7.41 0-7.41zm66.66 98.52c-4.76 0-4.77 7.4 0 7.4s4.78-7.4 0-7.4zm38.52-47.41c-4.77 0-4.77 7.41 0 7.41s4.77-7.41 0-7.41zm97.03-52.59c-4.76 0-4.77 7.41 0 7.41s4.78-7.41 0-7.41zM403.56 130c-4.77 0-4.78 7.41 0 7.41s4.77-7.41 0-7.41zM408 62.57c-4.76 0-4.77 7.41 0 7.41s4.78-7.41 0-7.41zm23-17.77c-4.76 0-4.77 7.4 0 7.4s4.74-7.4 0-7.4zm42.93 35.55c-4.77 0-4.78 7.41 0 7.41s4.77-7.41 0-7.41zm68.88 102.96c-4.76 0-4.77 7.41 0 7.41s4.78-7.41 0-7.41zM645 144.79c-4.77 0-4.77 7.41 0 7.41s4.8-7.41 0-7.41zM660.59 187c-4.77 0-4.78 7.41 0 7.41s4.77-7.41 0-7.41zM634.66 47c-4.77 0-4.77 7.41 0 7.41s4.77-7.41 0-7.41z"/><path class="cls-1" d="M133.954 188.031l4.444-46.669 2.21.21-4.444 46.67z"/><path class="cls-1" d="M139.028 140.464l24.442-11.113.92 2.021-24.443 11.113zm230.036-57.902l.069-2.219 71.846 2.22-.069 2.22z"/><path class="cls-1" d="M132.457 77.126l2.21-.203 5.921 64.439-2.21.203zm30.652 52.494l41.488-46.664 1.659 1.475-41.488 46.663z"/><path class="cls-1" d="M163.066 131.035l1.734-1.387 44.44 55.55-1.733 1.388zm67.15 56.262l7.4-102.222 2.214.16-7.4 102.223z"/><path class="cls-1" d="M237.825 85.774l1.839-1.245 66.67 98.51-1.838 1.244z"/><path class="cls-1" d="M304.317 183.625l5.188-99.995 2.217.115-5.188 99.996zM338.386 81.52l2.213-.179 4.448 54.81-2.212.18z"/><path class="cls-1" d="M342.829 136.282l2.22-.064 1.484 51.849-2.22.063zm59.479-3.634l37.786-49.62 1.767 1.345-37.787 49.62z"/><path class="cls-1" d="M372.558 188.322l29.636-55.55 1.959 1.046-29.636 55.549z"/><path class="cls-1" d="M373.492 187.74l69.627-4.454.142 2.215-69.628 4.454zm8.362-136.451l1.167-1.89 25.184 15.555-1.167 1.889z"/><path class="cls-1" d="M406.95 65.022l22.965-17.775 1.358 1.756-22.964 17.775zm64.004 123.815l1.469-105.18 2.22.032-1.47 105.18z"/><path class="cls-1" d="M472.608 84.254l1.845-1.234 68.896 102.954-1.845 1.235z"/><path class="cls-1" d="M541.324 186.613l2.227-103.696 2.219.048-2.226 103.696zm31.926-1.013l11.86-39.257 2.125.642-11.86 39.258z"/><path class="cls-1" d="M585.153 146.188l29.634-63.694 2.012.937-29.633 63.694z"/><path class="cls-1" d="M614.764 83.425l2.03-.9 28.886 65.187-2.03.9z"/><path class="cls-1" d="M643.627 148.57l2.083-.767 15.55 42.217-2.083.768z"/><path class="cls-1" d="M586.115 147.755l.056-2.22 58.522 1.482-.056 2.22zm31.223-86.464l16.298-11.85 1.305 1.796-16.297 11.85z"/><path class="cls-2" d="M173.84 217.72c25.4 0 44.14 17.08 44.14 42.23 0 25.31-18.74 42.39-44.14 42.39S129.7 285.26 129.7 260c0-25.2 18.73-42.28 44.14-42.28zm0 72.57c15.08 0 26.36-12.19 26.36-30.34s-11.28-30.18-26.36-30.18c-15.25 0-26.36 12-26.36 30.18s11.11 30.34 26.36 30.34zm64.31-70.74h36.52c25.25 0 43.51 16.32 43.51 40.4 0 24.24-18.26 40.56-43.51 40.56h-36.52zM274 288c15.41 0 26.36-10.83 26.36-28.06 0-17.07-10.95-27.9-26.36-27.9h-18.7v56zm82-16.92l-33.66-51.53h19.53l15.24 24.24 7.78 15.1 7.78-15.1 15.25-24.24h19.05l-33.82 51.53v29.43H356zm65.07 13.42c9.21 3.66 19.53 5.95 26.84 5.95 8.57 0 18.1-3.36 18.1-12.66 0-7-8.1-9.15-17-11.59-13.5-3.5-31.6-7.92-31.6-25.46 0-13.87 12.39-23 32.23-23a82.47 82.47 0 0128.74 5.19l-2.69 11.74c-8.74-3.21-18.42-5.19-25.57-5.19-7.94 0-15.88 2.75-15.88 10.52 0 6.25 6.51 8.84 14.29 11 14 3.51 34.3 7.47 34.3 25.61s-17.31 25.77-36 25.77c-9.85 0-19.85-2.44-28.27-5.64zm83.05-64.95h62.56l-.95 12.5h-44.46v22.26l37.31-1.06v12.5l-37.31-1.07V288H568l-1 12.5h-62.88zm106.23 0h20l33.82 81h-19.05l-7.3-20h-35.73l-7.3 20h-18.26zm-3.81 48.94h27l-4-10.82-9.54-26.23-9.36 26.23z"/><path class="cls-1" d="M38.19 100.47L120.4 0 17.14 96.4 0 236.63l77 118.43 135.12 41.23 130-55.27-124.65 32.67L98.84 337.2 27.12 226.9z"/></g></g></svg>