<svg xmlns="http://www.w3.org/2000/svg" width="24" height="24" viewBox="0 0 24 24" xmlns:xlink="http://www.w3.org/1999/xlink">
  <defs>
    <rect id="a" width="20" height="20" x="2" y="2" rx="3"/>
  </defs>
  <g fill="none" fill-rule="evenodd">
    <use fill="#0069BA" xlink:href="#a"/>
    <rect width="18" height="18" x="3" y="3" stroke="#0069BA" stroke-width="2" rx="3"/>
    <path fill="#FFFFFF" d="M9.29289322,16.7128932 L5.70461259,13.1246126 L5.70461259,13.1246126 C5.3150637,12.7350637 5.31394844,12.103825 5.7021184,11.712902 L5.705,11.71 L5.705,11.71 C6.09298735,11.319261 6.7242698,11.3170303 7.11500883,11.7050176 C7.11584216,11.7058451 7.11667402,11.706674 7.11750442,11.7075044 L9.29289322,13.8828932 L9.29289322,13.8828932 C9.68341751,14.2734175 10.3165825,14.2734175 10.7071068,13.8828932 L16.8824956,7.70750442 L16.8824956,7.70750442 C17.2718612,7.3181388 17.9031476,7.3181388 18.2925132,7.70750442 C18.2933436,7.70833481 18.2941725,7.70916668 18.295,7.71 L18.2978816,7.71290203 L18.2978816,7.71290203 C18.6860516,8.10382497 18.6849363,8.7350637 18.2953874,9.12461259 L10.7071068,16.7128932 L10.7071068,16.7128932 C10.3165825,17.1034175 9.68341751,17.1034175 9.29289322,16.7128932 Z"/>
  </g>
</svg>
