<?xml version="1.0" encoding="utf-8"?>
<!-- Generator: Adobe Illustrator 24.0.1, SVG Export Plug-In . SVG Version: 6.00 Build 0)  -->
<svg version="1.1" id="Layer_1" xmlns="http://www.w3.org/2000/svg" xmlns:xlink="http://www.w3.org/1999/xlink" x="0px" y="0px"
	 viewBox="0 0 500 500" style="enable-background:new 0 0 500 500;" xml:space="preserve">
<style type="text/css">
	.st0{fill:#003C84;}
	.st1{fill:#FFFFFF;}
	.st2{fill:#00C6FF;}
	.st3{fill:url(#SVGID_1_);}
	.st4{fill:none;}
	.st5{font-family:'Arial-BoldMT';}
	.st6{font-size:24px;}
</style>
<circle class="st0" cx="249.8" cy="249.8" r="249.1"/>
<path class="st1" d="M80,108h230.6c10.7,0,19.4,8.7,19.4,19.4v44.3c0,10.7-8.7,19.4-19.4,19.4H119.2c-10.7,0-19.4-8.7-19.4-19.4
	v-39.2L80,108z"/>
<path class="st2" d="M481.4,224.9H122.6c-12.2,0-22,9.9-22,22v76.4c0,12.2,9.9,22,22,22h314.3c12.2,0,22-9.9,22-22v-70.5
	L481.4,224.9z"/>
<path class="st1" d="M100.7,373.5h317c10.7,0,19.4,8.7,19.4,19.4v44.3c0,10.7-8.7,19.4-19.4,19.4H139.8c-10.7,0-19.4-8.7-19.4-19.4
	V398L100.7,373.5z"/>
<g>
	<linearGradient id="SVGID_1_" gradientUnits="userSpaceOnUse" x1="109.2284" y1="197.1111" x2="109.2284" y2="6.7302">
		<stop  offset="0" style="stop-color:#0068FF"/>
		<stop  offset="1" style="stop-color:#00C6FF"/>
	</linearGradient>
	<path class="st3" d="M33.8,216.5c0.7-12.4,1.2-23.6,2.1-34.8c0.3-3.9-0.4-6.6-3.3-9.3C-22.2,119.9-1.7,35.8,68.9,9.1
		c45-17,96-4,125,30.7c39.4,47.1,27.1,115.4-26.5,146.6c-27.9,16.2-57.6,19.7-88.6,11.7c-4-1-7.2-0.8-10.7,1.1
		C57.1,205,45.9,210.5,33.8,216.5z"/>
	<path class="st1" d="M180.7,69.7c-19.2,21.4-38.5,42.7-57.7,64.2c-2.8,3.2-4.2,2.3-6.3-0.6c-7.3-10.2-15-20-22-30.3
		c-2.6-3.9-4.4-4.2-8.1-1.6C72.5,111,58.1,120.5,43.8,130c-1.9,1.3-3.5,3.1-7.3,3.5C56.9,110.4,76.7,88,97.1,65
		c8.7,11.9,17.2,23.2,25.3,34.7c2.6,3.7,4.2,4.4,8.2,1.7c16.3-11,32.9-21.7,49.4-32.6C180.2,69.2,180.5,69.5,180.7,69.7z"/>
</g>
<rect x="129.1" y="250.3" class="st4" width="305.1" height="75.8"/>
<text transform="matrix(1 0 0 1 129.1021 267.441)"><tspan x="0" y="0" class="st1 st5 st6">Vaša objednávka bola </tspan><tspan x="0" y="28.8" class="st1 st5 st6">práve odoslaná. Môžete ju </tspan><tspan x="0" y="57.6" class="st1 st5 st6">očakávať do 3 dní :)</tspan></text>
</svg>
