<svg width="250" height="46" viewBox="0 0 250 46" fill="none" xmlns="http://www.w3.org/2000/svg"><g clip-path="url(#clip0)"><path d="M250 0H0v45.832h250V0z" fill="#12120D"/><path d="M57.288 0H0v45.832h57.288V0z" fill="#5C5756"/><path d="M73.885 29.222V15.707h3.335v5.482l5.305-5.482h3.966l-5.684 5.734 6.088 7.78h-4.143l-4.168-5.456-1.364.935v4.522h-3.335zm15.638 0V15.707h3.157l4.522 6.315 1.541 2.45-.076-2.88v-5.91h3.158v13.515h-3.158l-4.522-6.316-1.54-2.444.075 2.905v5.886l-3.157-.006zm16.698 0V15.707h3.334v13.515h-3.334zm7.73 0V15.707h3.335v5.28h5.759v-5.28h3.335v13.515h-3.335v-5.735h-5.759v5.735h-3.335zm18.062-1.655a7.442 7.442 0 010-10.193 7.677 7.677 0 0110.269 0 7.47 7.47 0 010 10.193 7.71 7.71 0 01-10.269 0zm1.415-5.09a5.186 5.186 0 001.048 3.372 3.38 3.38 0 005.331 0 5.224 5.224 0 001.048-3.372 5.284 5.284 0 00-1.048-3.398 3.378 3.378 0 00-5.331 0 5.246 5.246 0 00-1.048 3.398zm12.555-6.77h3.714l2.198 6.896 1.313 4.042 1.263-4.042 2.249-6.896h3.562l-5.23 13.515h-3.839l-5.23-13.515zm25.559 13.515l-2.804-4.547-2.147.1v4.422h-3.335V15.682h5.76a6.018 6.018 0 013.865 1.187 4.023 4.023 0 011.491 3.334 3.905 3.905 0 01-2.527 3.74l3.714 5.254-4.017.025zm-4.951-6.947h1.743a3.09 3.09 0 001.857-.518 1.756 1.756 0 00.72-1.528 1.784 1.784 0 00-.67-1.516 2.88 2.88 0 00-1.781-.505h-1.894l.025 4.067zm10.231 6.947l5.229-13.515h3.941l5.229 13.515h-3.713l-.966-2.981h-5.23l-.934 2.98h-3.556zm7.831-19.704l3.891.277-3.865 4.326h-2.83l2.804-4.604zm-1.995 12.555l-.581 1.793h3.713l-.556-1.793-1.263-4.042-1.313 4.042zm8.184-3.865l.177-2.527h11.823l-.177 2.527h-4.168v11.014h-3.335V18.208h-4.32zm30.846 11.014V15.707h3.334v5.482l5.305-5.482h3.966l-5.684 5.734 6.088 7.78h-4.143l-4.168-5.456-1.364.935v4.522h-3.334zm-10.914-3.265a5.198 5.198 0 002.88.631 5.449 5.449 0 003.518-1.642 6.243 6.243 0 001.408-2.248c.139-.432.247-.873.322-1.32a6.635 6.635 0 00-2.488-6.038 7.65 7.65 0 00-3.158-1.509c-.461-.1-.93-.16-1.402-.177h-.265a7.943 7.943 0 00-5.488 2.248 8.914 8.914 0 00-2.286 3.645 13.119 13.119 0 00-.398 1.762 9.09 9.09 0 000 2.235 9.512 9.512 0 001.099 3.385c.132.228.48.777.631 1.005a10.218 10.218 0 004.421 3.435 9.295 9.295 0 001.787.55c.513.12 1.035.198 1.56.233a10.737 10.737 0 003.215-.265l.499-.126.353-1.598a6.64 6.64 0 00.247-1.573c0-.208-.095-.322-.468-.404h-.094a.994.994 0 00-.468.108 7.836 7.836 0 01-3.524.416 10.574 10.574 0 01-1.263-.271 8.892 8.892 0 01-.802-.31 6.998 6.998 0 01-3.676-3.751 5.714 5.714 0 01.973-5.899 5.053 5.053 0 012.476-1.572 4.254 4.254 0 013.896.852c.301.247.561.539.771.866.214.32.37.674.461 1.048.106.412.127.842.063 1.263a3.154 3.154 0 01-1.118 1.895 2.244 2.244 0 01-2.103.43l-.322.567-.632 1.011-.625 1.118zM41.196 22.149l-3.751-3.79c-1.573-1.566-3.089-3.385-6.17.19l6.745 6.745-3.095 3.094L24.82 18.283c-1.648-1.648-3.24-3.24-6.107.253l13.01 13.01-3.07 3.145-15.65-15.643c8.54-12.082 12.632-6.24 15.284-3.442 6.057-6.379 8.842-3.847 12.631.056l3.392 3.392-3.114 3.095zM28.654 6.183c-9.019 0-19.307.783-19.307 16.085 0 15.303 11.64 16.099 19.306 16.099 7.668 0 19.294-.676 19.294-16.098 0-15.423-10.237-16.086-19.294-16.086z" fill="#fff"/></g><defs><clipPath id="clip0"><path fill="#fff" d="M0 0h250v45.832H0z"/></clipPath></defs></svg>