<?xml version="1.0" encoding="utf-8"?>
<!-- Generator: Adobe Illustrator 24.0.0, SVG Export Plug-In . SVG Version: 6.00 Build 0)  -->
<svg version="1.1" id="Layer_1" xmlns="http://www.w3.org/2000/svg" xmlns:xlink="http://www.w3.org/1999/xlink" x="0px" y="0px"
	 viewBox="0 0 161 38" style="enable-background:new 0 0 161 38;" xml:space="preserve">
<style type="text/css">
	.st0{fill-rule:evenodd;clip-rule:evenodd;fill:#FFFFFF;}
	.st1{fill:#D22121;}
	.st2{fill:#FFFFFF;}
	.st3{fill:#828282;}
</style>
<title>Page 1 Copy</title>
<desc>Created with Sketch.</desc>
<g id="Clip-6">
</g>
<g>
	<path id="Fill-1" class="st0" d="M91.2,26.2h3.7v-9.8c0-0.6,0.2-1.1,0.5-1.5c0.8-0.7,2.3-0.7,4.1-0.7v-3c-3.5-0.5-6.1,0-7.3,1.4
		l-0.1,0.1c0,0-1.1,1.1-1.1,3.7v9.8H91.2z"/>
	<path id="Fill-3" class="st0" d="M69.5,26.2h3.7v-9.7c0-3.5-2.2-5.4-6-5.4c-1.6,0-3,0.4-4,1.1L63,12.3l-0.2-0.1
		c-1-0.7-2.4-1.1-4-1.1c-3.8,0-6,2-6,5.4v9.7h3.7v-10c0-1.3,0.9-2,2.3-2c1.4,0,2.2,0.7,2.2,2v10h4v-10c0-1.3,0.8-2,2.3-2
		c1.4,0,2.2,0.7,2.2,2V26.2z"/>
	<polygon id="Fill-5" class="st0" points="111.5,26.2 115.2,26.2 115.2,11.4 111.5,11.4 	"/>
	<path id="Fill-7" class="st0" d="M127.2,26.2h3.7v-9.3c0-3.7-2.3-5.8-6.4-5.8s-6.5,2.1-6.5,5.8v9.3h3.8v-9.6c0-1.5,1-2.4,2.7-2.4
		s2.7,0.9,2.7,2.4C127.2,16.6,127.2,26.2,127.2,26.2z"/>
	<path id="Fill-8" class="st0" d="M133.2,11.4v9.3c0,3.7,2.3,5.8,6.4,5.8c4.1,0,6.5-2.1,6.5-5.8v-9.3h-3.7V21c0,1.5-1,2.4-2.7,2.4
		S137,22.5,137,21v-9.6H133.2z"/>
	<path id="Fill-9" class="st0" d="M148.2,21.8V22c0,2.9,2.2,4.5,6.3,4.5c2.9,0,6.3-0.8,6.3-4.7c0-2.2-1.5-3.7-4.3-4.3l-2.8-0.6
		c-1.1-0.2-1.6-0.7-1.6-1.4c0-1,0.8-1.5,2.4-1.5c0.6,0,2.4,0,2.4,1.6l0,0h3.8v-0.2c0-2.9-2.2-4.5-6.1-4.5c-4,0-6.2,1.6-6.2,4.6
		c0,2.2,1.5,3.8,4.3,4.3l2.8,0.6c1.1,0.2,1.6,0.7,1.6,1.4c0,0.7-0.4,1.5-2.6,1.5c-2.1,0-2.5-0.9-2.5-1.6l0,0h-3.8V21.8z"/>
	<path id="Fill-10" class="st0" d="M113.4,4.7c-1.2,0-2.3,1-2.3,2.3s1,2.3,2.3,2.3s2.3-1,2.3-2.3C115.7,5.7,114.7,4.7,113.4,4.7"/>
	<path id="Fill-11" class="st0" d="M101.3,14.5L101.3,14.5v6.4c0,2.2,0.5,3.6,1.4,4.5c1.2,1,3.2,1.3,6.2,0.8v-3
		c-1.7,0.1-2.7,0.1-3.3-0.5c-0.4-0.3-0.5-0.8-0.5-1.7v-6.6h3.8v-3.2H105V6.9L101.3,8v3.4V14.5z"/>
	<path id="Fill-12" class="st0" d="M84.9,20.2v1.2c0,0.7-0.9,2-3.2,2c-2,0-2.7-0.6-2.7-1.8c0-1.2,0.7-1.7,2.8-1.7h3L84.9,20.2
		L84.9,20.2z M82.2,11.1c-3.9,0-5.9,1.7-6.1,4.5h3.8c0.1-1.2,0.8-1.7,2.3-1.7c1.4,0,2.5,0.9,2.5,2.2V17h-3.9c-3.8,0-5.4,1.8-5.4,4.7
		s1.8,4.7,5,4.7c2.1,0,3.7-0.7,4.5-2l0.1-0.3V26h3.3v-9.6C88.3,13.1,86.1,11.1,82.2,11.1L82.2,11.1z"/>
	<g>
		<g>
			<path class="st1" d="M17.6,9.9c3.8-1.3,7.9,0.7,9.1,4.5s-0.7,7.9-4.5,9.1c-0.9,0.3-1.8,0.4-2.7,0.4l-1.3,2.7L16,27.4l1,3l-3,1
				l1,3l-4.5,1.5l-1.3-3.8l5.3-10.8c-0.6-0.7-1-1.5-1.4-2.4C11.8,15.3,13.9,11.2,17.6,9.9 M17.1,8.4C12.5,10,10,15,11.6,19.6
				c0.2,0.7,0.6,1.4,1,2l-5,10.1c-0.1,0.3-0.2,0.6-0.1,0.9L9,37c0.2,0.6,0.9,1,1.5,0.8l5.3-1.8c0.6-0.2,1-0.9,0.8-1.5l-0.6-2
				l1.9-0.6c0.6-0.2,1-0.9,0.8-1.5l-0.7-2l0.9-0.3c0.3-0.1,0.6-0.3,0.7-0.6l1-2c0.8-0.1,1.5-0.2,2.2-0.4c4.6-1.6,7.1-6.6,5.5-11.2
				S21.7,6.9,17.1,8.4z M21.1,12.8c0.5-0.2,1.1,0.1,1.3,0.6s-0.1,1.1-0.6,1.3s-1.1-0.1-1.3-0.6S20.6,13,21.1,12.8 M20.7,11.5
				c-1.3,0.4-1.9,1.8-1.5,3s1.8,1.9,3,1.5c1.3-0.4,1.9-1.8,1.5-3C23.3,11.7,21.9,11,20.7,11.5z"/>
		</g>
		<path class="st2" d="M32.5,11.5C31,9.8,29,8.8,26.9,8.7c-0.2,0-0.3,0.3-0.2,0.4c2.1,1.9,3.4,4.7,3.4,7.8c0,4.7-3,8.6-7.2,10
			l0.1,7.4c0,0.3,0.1,0.6,0.3,0.8l2.5,2.5c0.4,0.4,1.1,0.4,1.5,0l3.5-3.6c0.4-0.4,0.4-1.1,0-1.5L29.7,31l1.3-1.3
			c0.4-0.4,0.4-1.1,0-1.5l-1.3-1.3l1.2-1.2c0.2-0.2,0.3-0.5,0.3-0.8L31,23.2c0.8-0.5,1.5-1.2,2-2.1C35.1,18.2,34.8,14.2,32.5,11.5z"
			/>
		<g>
			<path class="st2" d="M34.2,10.7L34.2,10.7c-0.5-0.1-0.8-0.5-0.7-0.9c0.1-0.3,0.1-0.7,0.1-1c0.1-3.8-2.9-7-6.7-7.1
				c-3-0.1-5.7,1.7-6.7,4.6c-0.1,0.4-0.6,0.6-1,0.5s-0.6-0.6-0.5-1c1.2-3.5,4.6-5.7,8.2-5.6c4.7,0.1,8.4,4,8.2,8.7
				c0,0.4-0.1,0.9-0.1,1.3C34.9,10.4,34.6,10.7,34.2,10.7z"/>
		</g>
		<path class="st3" d="M40.1,27.9l-1.4-0.7l0.7-1.4c0.2-0.5,0-1.1-0.4-1.3l-1.4-0.7l0.7-1.3c0.1-0.2,0.1-0.5,0-0.8l-0.6-1.3
			c0.3-0.3,0.5-0.7,0.7-1.1c1.3-2.7,0.8-5.8-1.2-7.9c-0.3-0.3-0.7-0.3-1,0s-0.6,0.6-0.9,0.8c-0.2,0.1-0.3,0.4-0.2,0.7
			c0.5,1.2,0.8,2.5,0.8,3.8c0,2.9-1.3,5.4-3.3,7.2c-0.2,0.2-0.3,0.4-0.3,0.6c0.1,0.6-0.1,0.9-0.2,1.2c-0.1,0.2-0.1,0.4,0,0.6
			l1.9,5.5c0.1,0.2,0.3,0.4,0.5,0.6l2.8,1.4c0.5,0.2,1.1,0,1.3-0.4l2-4C40.8,28.7,40.6,28.1,40.1,27.9z"/>
	</g>
</g>
</svg>
