<?xml version="1.0" encoding="utf-8"?>
<!-- Generator: Adobe Illustrator 21.0.2, SVG Export Plug-In . SVG Version: 6.00 Build 0)  -->
<svg version="1.1" id="Layer_1" xmlns="http://www.w3.org/2000/svg" xmlns:xlink="http://www.w3.org/1999/xlink" x="0px" y="0px"
	 viewBox="0 0 708.7 595.3" style="enable-background:new 0 0 708.7 595.3;" xml:space="preserve">
<style type="text/css">
	.st0{fill:#D22121;}
	.st1{fill:#FFFFFF;}
</style>
<path class="st1" d="M354.4,88.6c-78.6,0-168.2,6.8-168.2,140.1s101.4,140.3,168.2,140.3c66.8,0,168.1-5.9,168.1-140.3
	C522.5,94.8,433.3,88.6,354.4,88.6z M463.7,227.7L431,195c-13.7-13.7-26.9-29.5-53.8,1.6l58.8,58.8l-27,27l-87.9-87.9
	c-14.4-14.4-28.3-28.3-53.2,2.2l113.4,113.4v0L354.4,337L218,200.7c74.4-105.3,109.9-54.3,133.2-30c52.8-55.6,77.2-33.5,109.9,0.5
	l29.6,29.6L463.7,227.7z"/>
<g>
	<g>
		<g>
			<path class="st1" d="M280.6,509.9h17.6V464c0-3,0.8-5.3,2.6-7c3.6-3.4,10.6-3.5,19.4-3.1v-14.1c-16.6-2.4-28.4-0.2-34.2,6.5
				l-0.2,0.3c-0.1,0.1-5.1,5-5.2,17.3V509.9z"/>
		</g>
	</g>
	<g>
		<g>
			<path class="st1" d="M179.1,509.9h17.6v-45.4c0-16.2-10.2-25.5-28.1-25.5c-7.7,0-14,1.7-18.8,5l-0.7,0.5l-0.7-0.5
				c-4.8-3.3-11.1-5-18.5-5c-18,0-28.2,9.3-28.2,25.5v45.4h17.6v-46.7c0-5.9,4-9.4,10.7-9.4c6.7,0,10.5,3.4,10.5,9.4v46.7h17.6
				v-46.7c0-5.9,4-9.4,10.7-9.4c6.7,0,10.5,3.4,10.5,9.4V509.9z"/>
		</g>
	</g>
	<g>
		<g>
			<path class="st1" d="M375.8,509.9h17.6v-69.5h-17.6V509.9z"/>
		</g>
	</g>
	<g>
		<g>
			<path class="st1" d="M449.6,509.9h17.6v-43.5c0-17.4-11-27.4-30.2-27.4c-19.3,0-30.3,10-30.3,27.4v43.5h17.6V465
				c0-7,4.8-11.2,12.7-11.2c8,0,12.6,4.1,12.6,11.2V509.9z"/>
		</g>
	</g>
	<g>
		<g>
			<path class="st1" d="M477.8,440.3v43.5c0,17.4,11,27.4,30.2,27.4c19.3,0,30.3-10,30.3-27.4v-43.5h-17.6v44.9
				c0,7-4.8,11.2-12.7,11.2c-8,0-12.6-4.1-12.6-11.2v-44.9H477.8z"/>
		</g>
	</g>
	<g>
		<g>
			<path class="st1" d="M548,489.5v0.8c0,13.5,10.5,20.9,29.5,20.9c13.5,0,29.6-3.8,29.6-21.9c0-10.2-7.2-17.3-20.2-20l-13.3-2.8
				c-5-1-7.4-3.1-7.4-6.5c0-4.7,3.8-7.1,11.4-7.1c2.8,0,11.2,0,11.2,7.5v0.1h17.6v-0.8c0-13.5-10.2-20.9-28.8-20.9
				c-18.9,0-28.9,7.5-28.9,21.6c0,10.4,7.2,17.6,20.2,20.2l13.3,2.8c5,1,7.4,3.1,7.4,6.5c0,3.2-2.1,7.1-12.1,7.1
				c-9.8,0-11.9-4.1-11.9-7.5v-0.1H548z"/>
		</g>
	</g>
	<g>
		<g>
			<path class="st1" d="M385,409c-5.9,0-10.6,4.8-10.6,10.6c0,5.9,4.8,10.6,10.6,10.6c5.9,0,10.6-4.8,10.6-10.6
				C395.7,413.8,390.9,409,385,409z"/>
		</g>
	</g>
	<g>
		<g>
			<path class="st1" d="M328.3,455.1L328.3,455.1l0,30.1c0,10.3,2.1,16.9,6.7,20.9c5.5,4.7,14.9,6,28.9,4v-14.1
				c-7.9,0.4-12.9,0.3-15.6-2.2c-1.7-1.6-2.4-4-2.4-7.8v-30.7h18v-14.8h-18.1v-21.1l-17.5,5v16.1l0,0V455.1z"/>
		</g>
	</g>
	<path class="st1" d="M238.7,439c-18.1,0-27.8,8.1-28.5,21h17.6c0.4-5.4,3.7-7.8,10.9-7.8c6.8,0,11.7,4,11.7,10.5v4.4
		c0,0-4,0-18.1,0c-17.6,0-25.5,8.5-25.5,22c0,13.6,8.5,22,23.3,22c16.1,0,21.8-11.2,21.8-11.2v9.8h15.5v-45.1
		C267.2,448.3,256.8,439,238.7,439z M251.1,487.1c0,3.3-4.3,9.3-14.9,9.3c-9.6,0-12.6-3-12.6-8.6c0-5.8,3.3-8.1,13.3-8.1
		c9.1,0,14.2,0,14.2,0S251.1,486,251.1,487.1z"/>
</g>
</svg>
