<svg width="60" height="60" viewBox="0 0 60 60" fill="none" xmlns="http://www.w3.org/2000/svg">
<g clip-path="url(#clip0_1166_5821)">
<path fill-rule="evenodd" clip-rule="evenodd" d="M14.3859 45.1V51.928H57.4559V15.315H35.9869L35.2119 12.085H57.6119C58.4277 12.0853 59.2099 12.4094 59.7867 12.9862C60.3635 13.563 60.6877 14.3453 60.688 15.161V52.085C60.688 52.9008 60.3639 53.6832 59.787 54.2601C59.2101 54.8369 58.4278 55.161 57.6119 55.161H14.2319C13.4161 55.161 12.6337 54.8369 12.0569 54.2601C11.48 53.6832 11.1559 52.9008 11.1559 52.085V45.885L14.3859 45.1ZM36.9999 34.46L40.3659 33.595L39.8559 31.467H54.2279V48.7H36.9999V39.61L37.0679 39.595L36.9999 39.339V34.46ZM17.6169 44.314L34.8459 40.13V48.7H17.6169V44.314ZM36.9999 19.547V18.547H54.2279V22.854H37.7929L36.9999 19.547ZM38.3069 25.008H54.2269V29.314H39.3389L38.3069 25.008Z" fill="#0094E7"/>
<path fill-rule="evenodd" clip-rule="evenodd" d="M17.649 24.416C16.9019 24.6069 16.2166 24.9869 15.6591 25.5195C15.1016 26.0522 14.6907 26.7194 14.466 27.457C14.4259 28.0275 14.5658 28.5962 14.866 29.083C15.0466 29.2777 15.27 29.4278 15.5184 29.5217C15.7669 29.6156 16.0337 29.6506 16.298 29.624L17.648 29.395L17.649 24.416ZM-0.689026 16.249L11.747 13.478C9.79945 14.6032 8.28544 16.3489 7.44697 18.436L15.582 19.103C15.726 18.5997 15.9889 18.1383 16.3484 17.7577C16.708 17.3771 17.1536 17.0885 17.648 16.916V19.894C12.061 20.456 6.07497 22.494 4.97897 28.56C4.76897 32.954 7.46597 34.829 11.619 34.829C13.7222 34.839 15.7946 34.3234 17.648 33.329V40.411L5.48697 43.143L-0.689026 16.249ZM21.359 11.312L26.522 10.167L26.985 12.145C25.1702 11.5516 23.2678 11.2713 21.359 11.316V11.312ZM17.65 29.393L17.798 29.352C20.179 28.768 20.498 25.893 20.854 23.894C19.766 23.8911 18.685 24.0668 17.654 24.414V29.393H17.65ZM17.65 33.33C18.6009 32.8277 19.4064 32.089 19.989 31.185L19.736 33.62L19.863 34.474H28.357C28.0967 32.998 28.1113 31.4867 28.4 30.016C28.758 28.058 29.241 25.955 29.664 23.872L32.7 37.06L17.65 40.413V33.331V33.33ZM17.65 16.917C18.1665 16.713 18.7166 16.6072 19.272 16.605C21.359 16.605 21.991 18.021 21.485 19.705C20.263 19.705 18.976 19.767 17.649 19.892L17.65 16.917Z" fill="#0094E7"/>
<path fill-rule="evenodd" clip-rule="evenodd" d="M15.709 36.247L8.68897 37.811L7.82397 34.1C9.01967 34.6189 10.3151 34.8678 11.618 34.829C13.0062 34.823 14.3854 34.6052 15.708 34.183V36.245L15.709 36.247ZM15.709 25.479C15.0804 25.9768 14.6414 26.6749 14.465 27.457C14.4251 28.0275 14.565 28.5961 14.865 29.083C15.0754 29.3471 15.3753 29.5249 15.708 29.583L15.709 25.479ZM2.50897 10.919L15.709 7.96101V11.9C12.125 12.775 8.96397 14.733 7.44697 18.441L15.582 19.108C15.625 18.962 15.667 18.837 15.709 18.708V20.17C11.703 20.837 7.80897 22.399 5.92797 25.815L2.51597 10.919H2.50897ZM15.709 29.581C15.9046 29.607 16.1016 29.621 16.299 29.623L17.799 29.353C20.181 28.769 20.499 25.894 20.855 23.895C19.0138 23.8471 17.2075 24.4031 15.712 25.478L15.709 29.581ZM15.709 36.246L23.591 34.476H19.861L19.734 33.622L19.987 31.185C18.9542 32.6531 17.441 33.7142 15.709 34.185V36.246ZM15.709 20.166C17.618 19.8542 19.5496 19.701 21.484 19.708C21.99 18.021 21.358 16.608 19.271 16.608C18.5386 16.5808 17.8138 16.7641 17.1824 17.1363C16.5511 17.5085 16.0397 18.054 15.709 18.708V20.166ZM15.709 7.96L29.726 4.839L35.9 31.705L28.186 33.434C28.1282 32.2911 28.1987 31.1453 28.396 30.018C29.113 25.956 30.462 21.418 30.462 17.271C30.462 11.855 25.087 11.313 20.85 11.313C19.1182 11.297 17.391 11.4932 15.707 11.897V7.96101L15.709 7.96Z" fill="#0094E7"/>
</g>
<defs>
<clipPath id="clip0_1166_5821">
<rect width="60" height="60" fill="white"/>
</clipPath>
</defs>
</svg>
