<svg width="60" height="60" viewBox="0 0 60 60" fill="none" xmlns="http://www.w3.org/2000/svg">
<g clip-path="url(#clip0_436_1377)">
<path fill-rule="evenodd" clip-rule="evenodd" d="M31.1 24.15L29.75 24.75L28.4 24.15L8.89999 14.4L18.2 10.8L38.3 20.55L31.1 24.15ZM50.75 14.4L43.7 17.85L23.45 8.85L29.75 6.45L50.75 14.4Z" fill="#BA1B02"/>
<path fill-rule="evenodd" clip-rule="evenodd" d="M30.5 0L56.3 9.9L52.7 12.75L29.9 3.75L6.8 12.9L3.2 9.9L29 0H30.5ZM53.15 13.65L57.35 12L54.2 38.4L53.6 39.6L31.1 60L30.35 55.35L50.45 37.35L53.15 13.65ZM5.75 39.75L5.15 38.55L2 12.15L6.2 13.8L9.05 37.35L29.15 55.35L28.4 60L5.75 39.75Z" fill="#BA1B02"/>
<path fill-rule="evenodd" clip-rule="evenodd" d="M44.3 18.6L50.75 14.55L48.2 35.85L29.9 52.5L30.8 27L38.9 22.05L38.45 34.5L43.4 31.05L44.3 18.6Z" fill="#BA1B02"/>
<path fill-rule="evenodd" clip-rule="evenodd" d="M28.55 26.85L29.45 52.35L11.15 35.85L8.60001 14.7L28.55 26.85Z" fill="#BA1B02"/>
</g>
<defs>
<clipPath id="clip0_436_1377">
<rect width="55.5" height="60" fill="white" transform="translate(2)"/>
</clipPath>
</defs>
</svg>
