<svg width="60" height="60" viewBox="0 0 60 60" fill="none" xmlns="http://www.w3.org/2000/svg">
<path d="M49.6 48.946H21.836V41.1H39.266V45.48C39.266 45.72 39.396 45.944 39.602 46.06C39.808 46.176 40.062 46.17 40.262 46.04L44.006 43.606L47.75 46.04C47.856 46.108 47.976 46.144 48.098 46.144C48.204 46.144 48.312 46.116 48.41 46.062C48.616 45.946 48.746 45.724 48.746 45.482V41.102H49.6C51.718 41.102 53.44 42.862 53.44 45.024C53.44 47.186 51.718 48.946 49.6 48.946ZM20.54 27.132V34.976H20.532C20.502 34.882 20.452 34.794 20.38 34.72L5.13999 18.976V12.528L19.156 27.01C19.282 27.14 19.45 27.206 19.616 27.206C19.716 27.206 19.816 27.18 19.908 27.132H20.54ZM20.54 41.1V48.944H20.486C20.458 48.892 20.424 48.84 20.38 48.792L5.13999 33.05V26.898L18.696 40.904C18.822 41.034 18.988 41.1 19.156 41.1C19.246 41.1 19.338 41.078 19.422 41.04C19.504 41.078 19.594 41.1 19.69 41.1H20.54ZM21.836 34.98V27.132H49.6C51.306 27.132 52.752 28.274 53.252 29.85H36.95C36.592 29.85 36.302 30.146 36.302 30.512C36.302 30.878 36.592 31.174 36.95 31.174H39.266V34.98H21.836ZM49.6 34.976H48.746V31.17H53.434C53.372 33.28 51.678 34.976 49.6 34.976ZM52.756 38.052C55.324 36.86 57.12 34.178 57.12 31.066C57.12 28.662 56.046 26.512 54.37 25.108L34.43 6.428C34.42 6.418 34.408 6.41 34.396 6.402C34.378 6.386 34.358 6.372 34.336 6.358C34.32 6.346 34.302 6.338 34.284 6.328C34.264 6.318 34.246 6.308 34.226 6.3C34.206 6.292 34.182 6.286 34.162 6.28C34.144 6.276 34.126 6.268 34.106 6.266C34.082 6.262 34.056 6.26 34.03 6.258C34.016 6.258 34.004 6.254 33.99 6.254H3.52599C3.51399 6.254 3.50599 6.256 3.49599 6.258C3.46399 6.26 3.43199 6.262 3.40199 6.268C3.38199 6.272 3.36599 6.278 3.34599 6.284C3.32599 6.29 3.30199 6.296 3.27999 6.304C3.25999 6.312 3.23999 6.324 3.21999 6.334C3.20199 6.344 3.18399 6.352 3.16799 6.364C3.13999 6.382 3.11599 6.404 3.09199 6.426C3.08599 6.432 3.07799 6.438 3.06999 6.444L3.06799 6.446C3.03799 6.476 3.01199 6.51 2.98599 6.546C2.97799 6.56 2.96999 6.576 2.96199 6.59C2.94799 6.614 2.93399 6.634 2.92599 6.658C2.91599 6.68 2.91199 6.704 2.90599 6.726C2.89999 6.744 2.89199 6.762 2.88799 6.782C2.87999 6.824 2.87599 6.866 2.87599 6.912V6.914C2.87599 6.926 2.87799 6.934 2.87799 6.944C2.87999 6.978 2.88199 7.01 2.88799 7.042C2.88999 7.05 2.89199 7.054 2.89199 7.06C2.89199 7.068 2.88999 7.074 2.88999 7.082V9.78C2.84599 9.99 2.90399 10.218 3.06199 10.382L3.85799 11.204C3.84599 11.252 3.83999 11.3 3.83999 11.352V17.674C3.59399 17.532 3.27599 17.564 3.06599 17.778C2.90399 17.942 2.84399 18.172 2.88799 18.384V21.114C2.86799 21.212 2.86999 21.314 2.89599 21.412C2.89399 21.436 2.88799 21.46 2.88799 21.486V24.15C2.84399 24.36 2.90199 24.588 3.05999 24.752L3.84199 25.56C3.83999 25.576 3.83799 25.59 3.83799 25.606V31.748C3.59199 31.606 3.27399 31.638 3.06399 31.852C2.89399 32.022 2.83999 32.266 2.89399 32.486C2.89199 32.512 2.88599 32.536 2.88599 32.564V35.19C2.84199 35.4 2.89999 35.628 3.05799 35.792L19.15 52.416C19.166 52.434 19.186 52.446 19.202 52.46C19.322 52.596 19.49 52.682 19.682 52.682H49.762C53.814 52.682 57.112 49.252 57.112 45.036C57.122 41.926 55.324 39.244 52.756 38.052Z" fill="#FCC34C"/>
</svg>
