<svg width="60" height="60" viewBox="0 0 60 60" fill="none" xmlns="http://www.w3.org/2000/svg">
<path d="M57 9H3V51.8173H57V9Z" fill="#003973"/>
<path d="M29.9956 22.8527C33.0777 22.8527 35.6104 25.3623 35.6104 28.4597C35.6104 31.5488 33.0777 34.0736 29.9956 34.0736C26.9065 34.0736 24.3895 31.5488 24.3895 28.4597C24.3895 25.3623 26.9065 22.8527 29.9956 22.8527ZM5.34152 11.4332C5.517 16.3001 7.41641 21.5179 10.079 26.301C15.9218 36.8431 23.0009 40.6193 29.9956 40.6193C36.6859 40.6193 42.1557 35.1569 42.1557 28.4519C42.1557 21.739 36.6859 16.2844 29.9887 16.2844C26.4869 16.2844 23.2528 17.7804 21.048 20.1597C21.3455 22.3341 21.7651 24.2104 22.3151 25.8883C23.3744 22.7385 26.4796 20.4425 29.9887 20.4425C34.3978 20.4425 38.0054 24.0276 38.0054 28.4519C38.0054 32.8761 34.3978 36.4847 29.9887 36.4847C20.5216 36.4916 17.9516 22.8149 17.9129 11.4332H5.34152ZM20.6897 17.2387C23.192 15.1404 26.4796 13.8056 29.9887 13.8056C36.3653 13.8056 41.8121 17.9554 43.9022 23.8977C45.0766 22.6012 47.9069 16.4604 48.4029 11.4332H20.4074C20.3618 13.4851 20.4686 15.4379 20.6897 17.2387ZM54.6658 11.4332H50.8439C50.0204 18.3294 47.0377 24.5075 44.5658 27.4603C44.5658 27.6735 44.581 28.2612 44.581 28.4597C44.581 31.0689 43.887 33.5398 42.7042 35.6304C48.7308 30.4733 54.5281 19.6715 54.6658 11.4332ZM54.582 21.8233C51.8738 29.2606 47.4873 35.3172 42.1709 39.04L54.582 46.4548V21.8233ZM5.43318 21.8841V46.4778L17.8364 39.0552C12.5352 35.348 8.13398 29.291 5.43318 21.8841ZM39.722 40.5502L54.582 49.384H5.43318L20.2853 40.5355C23.2984 42.1678 26.586 43.0525 29.9956 43.0525C33.4209 43.0525 36.7089 42.1526 39.722 40.5502Z" fill="#FABB00"/>
</svg>
