<svg width="60" height="60" viewBox="0 0 60 60" fill="none" xmlns="http://www.w3.org/2000/svg">
<g clip-path="url(#clip0_706_4616)">
<path d="M2.63977 25.0093C2.63977 25.0124 2.59939 25.1615 2.5466 25.3416C2.49691 25.5217 2.45343 25.6863 2.45343 25.7081C2.45343 25.7391 3.57144 25.7453 8.01865 25.7391L13.587 25.7298L13.6864 25.3727C13.7423 25.177 13.7888 25.0124 13.7888 25.0062C13.7888 25.0031 11.2795 25 8.2143 25C5.14908 25 2.63977 25.0031 2.63977 25.0093Z" fill="#073F85"/>
<path d="M16.2888 25.0373C16.2733 25.0776 16.1677 25.441 14.7951 30.2329C14.146 32.4907 13.7888 33.7267 13.6429 34.2298C13.6273 34.2826 13.7578 34.2857 16.1056 34.2857H18.587L19.0683 32.5932L19.5497 30.9006H21.8789C24.91 30.9006 25.469 30.8665 26.4131 30.6335C28.5466 30.1056 30.0031 28.8603 30 27.5652C29.9969 27.1522 29.7982 26.6335 29.5031 26.2888C28.9628 25.6491 28.118 25.2578 26.8479 25.0559C26.5062 25.0031 16.3075 24.9845 16.2888 25.0373ZM24.5062 26.8012C25.0218 26.8975 25.382 27.2764 25.3789 27.7143C25.3758 27.9317 25.3044 28.1553 25.1553 28.3851C24.9565 28.6926 24.6242 28.9099 24.1398 29.0435C23.9038 29.1118 23.8447 29.1118 21.9969 29.1242C20.2547 29.1335 20.0932 29.1304 20.0932 29.0839C20.0932 29.0435 20.6584 27.028 20.7298 26.8075C20.7485 26.7578 24.2454 26.7516 24.5062 26.8012Z" fill="#073F85"/>
<path d="M32.8168 25.0217C32.8013 25.0466 32.7143 25.3509 31.8789 28.2609C31.6118 29.1926 31.2329 30.5124 31.0342 31.1957C30.8385 31.8789 30.6398 32.5776 30.5901 32.7485C30.5435 32.9193 30.4317 33.3106 30.3416 33.618C30.2516 33.9255 30.1708 34.2019 30.1646 34.2329C30.1491 34.2826 30.2764 34.2857 32.6274 34.2795L35.1056 34.2702L35.2298 33.8509C35.2951 33.6211 35.5124 32.8665 35.7112 32.1739L36.0714 30.9162L38.7733 30.8975C41.6895 30.8789 41.8199 30.8696 42.6367 30.6988C43.3509 30.5466 43.9162 30.3571 44.4721 30.0776C45.0373 29.7919 45.5901 29.3882 45.8727 29.0528C45.9317 28.9845 45.9876 28.9224 45.9969 28.913C46.0714 28.854 46.3261 28.4006 46.4006 28.1926C46.5652 27.7422 46.5528 27.3012 46.3603 26.8354C46.1863 26.4193 45.8727 26.0621 45.4162 25.7578C44.8944 25.4099 44.2857 25.2019 43.3696 25.0559C43.1118 25.0155 32.8416 24.9814 32.8168 25.0217ZM41.2578 26.8603C41.5124 26.9627 41.8044 27.2547 41.8634 27.4627C42 27.9658 41.6615 28.6056 41.1087 28.8758C40.9938 28.9317 40.7919 29.0093 40.6615 29.0466C40.4255 29.1118 40.3603 29.1149 38.5435 29.1242C37.5124 29.1273 36.6491 29.1273 36.6273 29.118C36.6025 29.1087 36.6553 28.8758 36.823 28.3012C36.9503 27.8603 37.0963 27.354 37.146 27.1739C37.1957 26.9938 37.2454 26.8292 37.2516 26.8075C37.264 26.7764 37.6336 26.7702 39.1677 26.7764L41.0714 26.7857L41.2578 26.8603Z" fill="#073F85"/>
<path d="M48.9192 26.4348C48.1863 28.9938 47.7174 30.6304 47.1925 32.4627C46.9099 33.4472 46.677 34.264 46.677 34.2702C46.677 34.2795 49.531 34.2857 53.0217 34.2857H59.3633L59.6894 33.1429C59.8696 32.5155 60.0155 31.9876 60.0155 31.9721C60.0155 31.9503 58.6987 31.9348 56.1615 31.9255L52.3043 31.9099L52.4689 31.3354C52.559 31.0186 52.7981 30.1957 52.9969 29.5031C53.1956 28.8106 53.441 27.9596 53.5404 27.6087C53.7018 27.0342 54.2329 25.1894 54.2733 25.0528C54.2888 25.0031 54.1584 25 51.8105 25H49.3323L48.9192 26.4348Z" fill="#073F85"/>
<path d="M1.99381 27.2733C1.86958 27.705 1.7702 28.0683 1.7702 28.0839C1.7702 28.0963 4.27641 28.1025 7.33542 28.0994L12.9037 28.0901L13.1273 27.3137C13.2516 26.8851 13.3509 26.528 13.3541 26.5124C13.3541 26.5 10.8478 26.4907 7.78573 26.4907H2.21741L1.99381 27.2733Z" fill="#073F85"/>
<path d="M1.54349 28.8727C1.53417 28.8882 1.42858 29.2391 1.31057 29.6584C1.18945 30.0776 1.05591 30.5373 1.01243 30.6832C0.972058 30.8292 0.947213 30.9565 0.959635 30.9721C0.972058 30.9845 3.47516 30.9907 6.52175 30.9876L12.0652 30.9783L12.1056 30.854C12.1677 30.6677 12.6708 28.9068 12.6708 28.8758C12.6708 28.8447 1.56212 28.8416 1.54349 28.8727Z" fill="#073F85"/>
<path d="M0.68323 31.8385C0.661491 31.913 0.599379 32.1366 0.540373 32.3354C0.378882 32.8913 0.226708 33.4255 0.208075 33.4938C0.201863 33.528 0.149068 33.705 0.0962733 33.8851C0.0434783 34.0652 0 34.2298 0 34.2516C0 34.2764 1.41304 34.2826 5.56522 34.2795L11.1335 34.2702L11.2143 33.9752C11.295 33.6957 11.8168 31.8789 11.8509 31.7609C11.8665 31.7112 11.587 31.7081 6.29193 31.7081H0.717391L0.68323 31.8385Z" fill="#073F85"/>
</g>
<defs>
<clipPath id="clip0_706_4616">
<rect width="60" height="60" fill="white"/>
</clipPath>
</defs>
</svg>
