<svg width="60" height="10" viewBox="0 0 60 10" fill="none" xmlns="http://www.w3.org/2000/svg">
<path d="M2.63977 0.00932437C2.63977 0.01243 2.59939 0.161498 2.5466 0.341623C2.49691 0.521747 2.45343 0.686343 2.45343 0.708082C2.45343 0.739138 3.57144 0.745349 8.01865 0.739138L13.587 0.729821L13.6864 0.372678C13.7423 0.177026 13.7888 0.01243 13.7888 0.00621879C13.7888 0.00311321 11.2795 7.62939e-06 8.2143 7.62939e-06C5.14908 7.62939e-06 2.63977 0.00311321 2.63977 0.00932437Z" fill="#073F85"/>
<path d="M16.2888 0.0372725C16.2733 0.0776443 16.1677 0.440999 14.7951 5.23292C14.146 7.49069 13.7888 8.72671 13.6429 9.22982C13.6273 9.28262 13.7578 9.28572 16.1056 9.28572H18.587L19.0683 7.59317L19.5497 5.90063H21.8789C24.91 5.90063 25.469 5.86647 26.4131 5.63355C28.5466 5.1056 30.0031 3.86025 30 2.56522C29.9969 2.15218 29.7982 1.63355 29.5031 1.28883C28.9628 0.649074 28.118 0.257769 26.8479 0.0559053C26.5062 0.00311089 16.3075 -0.015523 16.2888 0.0372725ZM24.5062 1.80125C25.0218 1.89752 25.382 2.2764 25.3789 2.71429C25.3758 2.93168 25.3044 3.15528 25.1553 3.3851C24.9565 3.69255 24.6242 3.90994 24.1398 4.04348C23.9038 4.11181 23.8447 4.11181 21.9969 4.12423C20.2547 4.13355 20.0932 4.13044 20.0932 4.08386C20.0932 4.04348 20.6584 2.02796 20.7298 1.80746C20.7485 1.75777 24.2454 1.75156 24.5062 1.80125Z" fill="#073F85"/>
<path d="M32.8168 0.0217438C32.8013 0.0465879 32.7143 0.350936 31.8789 3.26087C31.6118 4.19255 31.2329 5.51243 31.0342 6.19566C30.8385 6.87889 30.6398 7.57764 30.5901 7.74845C30.5435 7.91926 30.4317 8.31056 30.3416 8.61802C30.2516 8.92547 30.1708 9.20187 30.1646 9.23292C30.1491 9.28261 30.2764 9.28572 32.6274 9.27951L35.1056 9.27019L35.2298 8.85094C35.2951 8.62112 35.5124 7.86646 35.7112 7.17392L36.0714 5.91615L38.7733 5.89752C41.6895 5.87889 41.8199 5.86957 42.6367 5.69876C43.3509 5.54659 43.9162 5.35715 44.4721 5.07764C45.0373 4.79193 45.5901 4.3882 45.8727 4.0528C45.9317 3.98448 45.9876 3.92236 45.9969 3.91305C46.0714 3.85404 46.3261 3.40062 46.4006 3.19255C46.5652 2.74224 46.5528 2.30125 46.3603 1.83541C46.1863 1.41926 45.8727 1.06212 45.4162 0.757769C44.8944 0.409943 44.2857 0.201868 43.3696 0.0559053C43.1118 0.0155325 32.8416 -0.0186291 32.8168 0.0217438ZM41.2578 1.86025C41.5124 1.96274 41.8044 2.25466 41.8634 2.46274C42 2.96584 41.6615 3.60559 41.1087 3.87578C40.9938 3.93168 40.7919 4.00932 40.6615 4.04659C40.4255 4.1118 40.3603 4.11491 38.5435 4.12423C37.5124 4.12733 36.6491 4.12733 36.6273 4.11802C36.6025 4.1087 36.6553 3.87578 36.823 3.30125C36.9503 2.86025 37.0963 2.35404 37.146 2.17392C37.1957 1.99379 37.2454 1.8292 37.2516 1.80746C37.264 1.7764 37.6336 1.77019 39.1677 1.7764L41.0714 1.78572L41.2578 1.86025Z" fill="#073F85"/>
<path d="M48.9192 1.43479C48.1863 3.9938 47.7174 5.63044 47.1925 7.46274C46.9099 8.44721 46.677 9.26398 46.677 9.27019C46.677 9.27951 49.531 9.28572 53.0217 9.28572H59.3633L59.6894 8.14286C59.8696 7.51553 60.0155 6.98758 60.0155 6.97206C60.0155 6.95032 58.6987 6.93479 56.1615 6.92547L52.3043 6.90994L52.4689 6.33541C52.559 6.01864 52.7981 5.19566 52.9969 4.50311C53.1956 3.81057 53.441 2.95963 53.5404 2.6087C53.7018 2.03417 54.2329 0.189447 54.2733 0.0528011C54.2888 0.00311184 54.1584 6.67572e-06 51.8105 6.67572e-06H49.3323L48.9192 1.43479Z" fill="#073F85"/>
<path d="M1.99381 2.2733C1.86958 2.70497 1.7702 3.06833 1.7702 3.08385C1.7702 3.09628 4.27641 3.10249 7.33542 3.09938L12.9037 3.09007L13.1273 2.31367C13.2516 1.8851 13.3509 1.52795 13.3541 1.51243C13.3541 1.5 10.8478 1.49069 7.78573 1.49069H2.21741L1.99381 2.2733Z" fill="#073F85"/>
<path d="M1.54349 3.87268C1.53417 3.88821 1.42858 4.23914 1.31057 4.65839C1.18945 5.07765 1.05591 5.53727 1.01243 5.68323C0.972058 5.8292 0.947213 5.95653 0.959635 5.97205C0.972058 5.98448 3.47516 5.99069 6.52175 5.98758L12.0652 5.97826L12.1056 5.85404C12.1677 5.66771 12.6708 3.90684 12.6708 3.87578C12.6708 3.84473 1.56212 3.84162 1.54349 3.87268Z" fill="#073F85"/>
<path d="M0.68323 6.83851C0.661491 6.91304 0.599379 7.13665 0.540373 7.3354C0.378882 7.8913 0.226708 8.42547 0.208075 8.49379C0.201863 8.52795 0.149068 8.70497 0.0962733 8.88509C0.0434783 9.06522 0 9.22982 0 9.25155C0 9.2764 1.41304 9.28261 5.56522 9.27951L11.1335 9.27019L11.2143 8.97516C11.295 8.69565 11.8168 6.87888 11.8509 6.76087C11.8665 6.71118 11.587 6.70807 6.29193 6.70807H0.717391L0.68323 6.83851Z" fill="#073F85"/>
</svg>
