<svg xmlns="http://www.w3.org/2000/svg" width="24" height="24" viewBox="0 0 24 24">
  <path fill="#000000" fill-rule="evenodd" d="M14,6.5 L15.4970707,6.5 C16.0509732,6.5 16.5,6.94386482 16.5,7.5 C16.5,8.05228475 16.0621186,8.5 15.4970707,8.5 L14,8.5 L14,9.99707067 C14,10.5509732 13.5561352,11 13,11 C12.4477153,11 12,10.5621186 12,9.99707067 L12,8.5 L10.5029293,8.5 C9.94902676,8.5 9.5,8.05613518 9.5,7.5 C9.5,6.94771525 9.93788135,6.5 10.5029293,6.5 L12,6.5 L12,5.00292933 C12,4.44902676 12.4438648,4 13,4 C13.5522847,4 14,4.43788135 14,5.00292933 L14,6.5 Z M9,22 C7.34314575,22 6,20.6568542 6,19 C6,17.3431458 7.34314575,16 9,16 C10.6568542,16 12,17.3431458 12,19 C12,20.6568542 10.6568542,22 9,22 Z M9,20 C9.55228475,20 10,19.5522847 10,19 C10,18.4477153 9.55228475,18 9,18 C8.44771525,18 8,18.4477153 8,19 C8,19.5522847 8.44771525,20 9,20 Z M17,22 C15.3431458,22 14,20.6568542 14,19 C14,17.3431458 15.3431458,16 17,16 C18.6568542,16 20,17.3431458 20,19 C20,20.6568542 18.6568542,22 17,22 Z M17,20 C17.5522847,20 18,19.5522847 18,19 C18,18.4477153 17.5522847,18 17,18 C16.4477153,18 16,18.4477153 16,19 C16,19.5522847 16.4477153,20 17,20 Z M4.80985806,5 L3,5 C2.44771525,5 2,4.55228475 2,4 C2,3.44771525 2.44771525,3 3,3 L5.61538462,3 C6.08561039,3 6.49231336,3.32761005 6.59244779,3.78705033 L8.60039835,13 L17.4759362,13 L19.0272816,6.49528379 C19.1554055,5.95806624 19.6947714,5.62643035 20.2319889,5.7545543 C20.7692065,5.88267825 21.1008424,6.42204411 20.9727184,6.95926166 L19.2382059,14.2319889 C19.1308139,14.6822788 18.7284065,15 18.2654875,15 L7.79487179,15 C7.32464602,15 6.91794305,14.67239 6.81780862,14.2129497 L4.80985806,5 Z"/>
</svg>
