<svg xmlns="http://www.w3.org/2000/svg" width="24" height="24" viewBox="0 0 24 24">
  <path fill="none" stroke="#000000" stroke-width="2" d="M9,21 C10.1045695,21 11,20.1045695 11,19 C11,17.8954305 10.1045695,17 9,17 C7.8954305,17 7,17.8954305 7,19 C7,20.1045695 7.8954305,21 9,21 Z M17,21 C18.1045695,21 19,20.1045695 19,19 C19,17.8954305 18.1045695,17 17,17 C15.8954305,17 15,17.8954305 15,19 C15,20.1045695 15.8954305,21 17,21 Z M20,8 L6.48717949,8 L5.61538462,4 L3,4 L5.61538462,4 L7.79487179,14 L18.2654875,14 L20,8 Z"/>
</svg>
