<svg xmlns="http://www.w3.org/2000/svg" viewBox="0 0 589.1 270.8"><path class="st0" d="M12.7 29.2c-7.7 0-7.8 12 0 12s7.7-12 0-12zm1.6 120.2c-7.7 0-7.7 12 0 12s7.7-12 0-12zM90.4 36.5c-7.7 0-7.8 12 0 12s7.7-12 0-12zM93.6 147c-7.7 0-7.7 12 0 12s7.7-12 0-12zm24.8 0c-7.7 0-7.7 12 0 12s7.8-12 0-12zm84.9-111.4c-7.7 0-7.8 12 0 12s7.8-12 0-12zm32.1-.8c-7.7 0-7.8 12 0 12s7.7-12 0-12zm5.6 113.8c-7.7 0-7.8 12 0 12s7.7-12 0-12zm26.4-113.8c-7.7 0-7.8 12 0 12s7.7-12 0-12zm4.8 115.4c-7.7 0-7.7 12 0 12s7.8-12 0-12zm75.3-4.8c-7.7 0-7.8 12 0 12s7.7-12 0-12zM281.8.4c-7.7 0-7.8 12 0 12s7.8-12 0-12zm96.9 149c-7.7 0-7.8 12 0 12s7.8-12 0-12zm78.5-113.8c-7.7 0-7.8 12 0 12s7.8-12 0-12zm31.3 110.6c-7.7 0-7.8 12 0 12s7.7-12 0-12zm45.6-110.6c-7.7 0-7.7 12 0 12s7.8-12 0-12zm-32 68.9c-7.7 0-7.7 12 0 12s7.7-12 0-12zm34.4-91.3c-7.7 0-7.8 12 0 12s7.8-12 0-12zM18.3 100.9c-5.2 0-5.2 8 0 8s5.2-8 0-8zm27.2-12c-5.2 0-5.2 8 0 8s5.2-8 0-8zM126.4 40c-5.2 0-5.2 8 0 8s5.2-8 0-8zm72.1 106.6c-5.1 0-5.2 8 0 8s5.2-8 0-8zm41.7-51.3c-5.1 0-5.2 8 0 8s5.1-8 0-8zm104.9-56.8c-5.2 0-5.2 8 0 8s5.2-8 0-8zm-40.9 53.6c-5.1 0-5.2 8 0 8s5.2-8 0-8zm4.8-72.9c-5.1 0-5.2 8 0 8s5.2-8 0-8zM333.9 0c-5.1 0-5.2 8 0 8s5.1-8 0-8zm46.4 38.5c-5.1 0-5.2 8 0 8s5.2-8 0-8zm74.5 111.3c-5.1 0-5.2 8 0 8s5.2-8 0-8zm110.6-41.7c-5.2 0-5.2 8 0 8s5.1-8 0-8zm16.8 45.7c-5.2 0-5.2 8 0 8s5.2-8 0-8zm-28-151.4c-5.2 0-5.2 8 0 8s5.1-8 0-8z"/><path class="st0" d="M12.71 154.925l4.806-50.472 2.389.228-4.807 50.471z"/><path class="st0" d="M18.19 103.409l26.399-12.004.993 2.184-26.399 12.005zm248.767-62.513l.074-2.398 77.661 2.4-.074 2.398z"/><path class="st0" d="M11.103 34.954l2.39-.22 6.405 69.707-2.39.22zm33.128 56.768l44.85-50.446 1.793 1.594-44.85 50.446z"/><path class="st0" d="M44.154 93.305l1.874-1.5 48.039 60.05-1.874 1.5zm72.636 60.777l7.999-110.512 2.394.173-8 110.512z"/><path class="st0" d="M125.053 44.3l1.987-1.346 72.078 106.503-1.988 1.345z"/><path class="st0" d="M196.892 150.108l5.611-108.16 2.397.125-5.61 108.159zM233.791 39.69l2.392-.194 4.814 59.304-2.392.194z"/><path class="st0" d="M238.6 98.946l2.399-.069 1.606 56.078-2.399.068zm64.256-3.92l40.891-53.704 1.91 1.454-40.891 53.704z"/><path class="st0" d="M270.71 155.167l32.056-60.084 2.117 1.13-32.055 60.084z"/><path class="st0" d="M271.713 154.619l75.25-4.814.152 2.395-75.249 4.814zM282.089 7.288l1.27-2.036 27.239 16.983-1.27 2.037z"/><path class="st0" d="M307.932 21.837l24.83-19.22 1.47 1.899L309.4 23.735zm69.175 133.988l1.59-113.789 2.399.034-1.589 113.789z"/><path class="st0" d="M378.934 42.643l1.995-1.335 74.528 111.363-1.995 1.335z"/><path class="st0" d="M453.208 153.396l2.408-112.178 2.4.052-2.409 112.177zm35.235-2.326l12.869-42.599 2.297.695-12.869 42.598z"/><path class="st0" d="M500.583 109.667L532.64 40.76l2.176 1.012-32.057 68.909z"/><path class="st0" d="M532.705 41.795l2.194-.972 31.233 70.49-2.194.973z"/><path class="st0" d="M563.88 112.226l2.253-.83 16.828 45.701-2.252.83z"/><path class="st0" d="M501.673 111.356l.06-2.399 63.282 1.602-.061 2.4zm33.705-93.513l17.631-12.82 1.412 1.941-17.632 12.82z"/><path class="st1" d="M42.6 185.1c24.5 0 42.6 16.5 42.6 40.7s-18.1 40.9-42.6 40.9S0 250.3 0 225.9s18.1-40.8 42.6-40.8zm0 70c14.6 0 25.4-11.8 25.4-29.3s-10.9-29.1-25.4-29.1-25.4 11.6-25.4 29.1 10.7 29.3 25.4 29.3zm62-68.2h35.2c24.4 0 42 15.7 42 39s-17.6 39.1-42 39.1h-35.2v-78.1zm34.6 66c14.9 0 25.4-10.4 25.4-27.1S154.1 199 139.2 199h-18.1v54l18.1-.1zm79.1-16.3l-32.5-49.7h18.8l14.7 23.4 7.5 14.6 7.5-14.6 14.7-23.4h18.4l-32.6 49.7V265h-16.5v-28.4zm62.8 13c8.9 3.5 18.8 5.7 25.9 5.7 8.3 0 17.5-3.2 17.5-12.2 0-6.8-7.8-8.8-16.4-11.2-13-3.4-30.5-7.6-30.5-24.6 0-13.4 11.9-22.2 31.1-22.2 9.5 0 18.9 1.7 27.7 5l-2.6 11.3c-8.4-3.1-17.8-5-24.7-5-7.7 0-15.3 2.6-15.3 10.1 0 6 6.3 8.5 13.8 10.6 13.5 3.4 33.1 7.2 33.1 24.7s-16.7 24.9-34.8 24.9c-9.3-.2-18.6-2-27.3-5.4l2.5-11.7zm80.1-62.7h60.4l-.9 12.1h-42.9v21.5l36-1v12.1l-36-1V253h45l-.9 12h-60.6v-78.1zm102.5 0H483l32.6 78.1h-18.4l-7-19.3h-34.5l-7 19.3h-17.6l32.6-78.1zm-3.7 47.2h26l-3.8-10.4-9.2-25.3-9 25.3-4 10.4z"/><path class="st2" d="M582.4 268.2l-52.6-2.2-3.1-14.4 15.4-12.2 14.3-12.5 9-13.1-1.5-10.9-10.6-5.7-9.9 2.4v14.1l-14.5 2.4-2.8-27 26.8-9.2 22.7 10 7.3 19.4-8 18.5-.1.1-14.9 16.7-10.5 7.9L586 251l-3.6 17.2zm-51-4.2l49.4 2.1 2.7-13-40.4 1.7 15.5-11.7 14.6-16.3 7.5-17.4-6.7-17.9-21.2-9.3-24.5 8.4 2.4 23.3 10.8-1.8v-14l12.2-2.9 12.2 6.6 1.7 12.7-9.7 14-14.5 12.5-14.5 11.4 2.5 11.6z"/><path class="st2" d="M530.6 210.4c-4.8 0-4.8 7.4 0 7.4s4.7-7.4 0-7.4zm12-2c-4.8 0-4.8 7.4 0 7.4s4.7-7.4 0-7.4zm-16-22c-4.8 0-4.8 7.4 0 7.4s4.7-7.4 0-7.4zm26-9c-4.8 0-4.8 7.4 0 7.4s4.7-7.4 0-7.4zm22 10c-4.8 0-4.8 7.4 0 7.4s4.7-7.4 0-7.4zm7 19c-4.8 0-4.8 7.4 0 7.4s4.7-7.4 0-7.4zm-39-11c-4.8 0-4.8 7.4 0 7.4s4.7-7.4 0-7.4zm11-3c-4.8 0-4.8 7.4 0 7.4s4.7-7.4 0-7.4zm11 6c-4.8 0-4.8 7.4 0 7.4s4.7-7.4 0-7.4zm2 12c-4.8 0-4.8 7.4 0 7.4s4.7-7.4 0-7.4zm-9 14c-4.8 0-4.8 7.4 0 7.4s4.7-7.4 0-7.4zm-30 23c-4.8 0-4.8 7.4 0 7.4s4.7-7.4 0-7.4zm4 13c-4.8 0-4.8 7.4 0 7.4s4.7-7.4 0-7.4zm51 3c-4.8 0-4.8 7.4 0 7.4s4.7-7.4 0-7.4zm3-16c-4.8 0-4.8 7.4 0 7.4s4.7-7.4 0-7.4zm-40 3c-4.8 0-4.8 7.4 0 7.4s4.7-7.4 0-7.4z"/></svg>