<svg xmlns="http://www.w3.org/2000/svg" viewBox="0 0 626.68 70.42"><g data-name="Layer 2"><g data-name="Layer 1"><path class="cls-1" d="M256.71 13.32c16.41 0 28.5 11 28.5 27.27S273.12 68 256.71 68 228.2 57 228.2 40.63s12.1-27.31 28.51-27.31zm0 46.86c9.74 0 17-7.88 17-19.59s-7.28-19.5-17-19.5-17 7.78-17 19.5 7.15 19.59 17 19.59zm41.53-45.68h23.58c16.31 0 28.1 10.53 28.1 26.09s-11.79 26.19-28.1 26.19h-23.58zm23.17 44.2c9.95 0 17-7 17-18.11s-7.08-18-17-18h-12.1V58.7zm52.92-10.93L352.59 14.5h12.61l9.85 15.65 5 9.75 5-9.75 9.85-15.65h12.3l-21.8 33.27v19h-11.07zm42.04 8.67c5.95 2.36 12.61 3.84 17.33 3.84 5.54 0 11.69-2.17 11.69-8.17 0-4.53-5.23-5.91-11-7.49C425.7 42.36 414 39.5 414 28.18c0-9 8-14.86 20.82-14.86a53.63 53.63 0 0118.56 3.34l-1.74 7.58a52.25 52.25 0 00-16.51-3.34c-5.13 0-10.26 1.77-10.26 6.79 0 4 4.21 5.71 9.23 7.09 9 2.26 22.15 4.82 22.15 16.54S445.08 68 433 68a52.91 52.91 0 01-18.25-3.64zM470 14.5h40.4l-.61 8.07h-28.71v14.37l24.1-.68v8.07l-24.1-.69V58.7h30.14l-.61 8.08H470zm68.6 0h12.92l21.85 52.28h-12.31l-4.72-12.9h-23.07l-4.71 12.9h-11.8zm-2.46 31.6h17.44l-2.57-7-6.15-16.93-6.05 16.93z"/><path class="cls-2" d="M623.1 68.5L586.16 67l-2.24-10.38 10.84-8.54 9.85-8.65 6.17-9-1-7.27-7.13-3.84-6.54 1.55v9.8l-10.65 1.78-2-19.26 18.9-6.48 16 7 5.16 13.68-5.58 12.94-.11.12-10.4 11.62L601 57l24.77-1zM587.79 65l33.7 1.39 1.75-8.39-28.58 1.18 11.48-8.69 10.06-11.21 5.13-11.91-4.58-12.13-14.48-6.37-16.65 5.7 1.63 15.57 6.88-1.14v-9.7l8.81-2.09 8.7 4.68 1.22 9.05-6.86 9.88-10 8.76-9.9 7.81z"/><path class="cls-2" d="M584.92 12.45a1.36 1.36 0 000 2.71 1.36 1.36 0 000-2.71z"/><path class="cls-2" d="M584.92 16.15a2.28 2.28 0 01-2.31-2.35 2.41 2.41 0 01.57-1.58 2.24 2.24 0 011.74-.77 2.35 2.35 0 010 4.7zm0-2.7c-.09 0-.31 0-.31.35s.22.35.31.35.31 0 .31-.35-.23-.35-.31-.35zm1.82 16.41a1.36 1.36 0 000 2.71 1.36 1.36 0 000-2.71z"/><path class="cls-2" d="M586.74 33.57a2.27 2.27 0 01-2.3-2.35 2.42 2.42 0 01.57-1.59 2.25 2.25 0 011.73-.77 2.36 2.36 0 010 4.71zm0-2.71c-.08 0-.3 0-.3.36s.22.35.3.35.31 0 .31-.35-.22-.36-.31-.36zm8.77-2.46a1.36 1.36 0 000 2.71 1.36 1.36 0 000-2.71z"/><path class="cls-2" d="M595.51 32.11a2.27 2.27 0 01-2.3-2.35 2.47 2.47 0 01.56-1.59 2.34 2.34 0 111.74 3.94zm0-2.71c-.08 0-.3 0-.3.36s.22.35.3.35.31 0 .31-.36-.22-.35-.31-.35zm22.41-16.34a1.35 1.35 0 000 2.7 1.35 1.35 0 000-2.7z"/><path class="cls-2" d="M617.92 16.76a2.28 2.28 0 01-2.31-2.35 2.41 2.41 0 01.57-1.58 2.25 2.25 0 011.74-.77 2.35 2.35 0 010 4.7zm0-2.7c-.08 0-.31 0-.31.35s.23.35.31.35.31 0 .31-.35-.23-.35-.31-.35zm-32.51 41.5a1.35 1.35 0 000 2.7 1.35 1.35 0 000-2.7z"/><path class="cls-2" d="M585.41 59.26a2.28 2.28 0 01-2.31-2.35 2.41 2.41 0 01.57-1.58 2.22 2.22 0 011.74-.77 2.35 2.35 0 010 4.7zm0-2.7c-.09 0-.31 0-.31.35s.22.35.31.35.3 0 .3-.35-.22-.35-.3-.35zM622.18 66a1.36 1.36 0 000 2.71 1.36 1.36 0 000-2.71z"/><path class="cls-2" d="M622.18 69.74a2.28 2.28 0 01-2.3-2.36 2.46 2.46 0 01.56-1.58 2.25 2.25 0 011.74-.77 2.28 2.28 0 012.31 2.35 2.37 2.37 0 01-.57 1.58 2.24 2.24 0 01-1.74.78zm0-2.71c-.08 0-.3 0-.3.35s.22.36.3.36.2-.06.22-.08a.41.41 0 00.09-.28c0-.38-.22-.38-.31-.38zm2.19-11.47a1.35 1.35 0 000 2.7 1.35 1.35 0 000-2.7z"/><path class="cls-2" d="M624.37 59.26a2.27 2.27 0 01-2.3-2.35 2.46 2.46 0 01.56-1.58 2.25 2.25 0 011.74-.77 2.35 2.35 0 010 4.7zm0-2.7c-.08 0-.3 0-.3.35s.22.35.3.35.31 0 .31-.35-.22-.35-.31-.35zm-26.3.22a1.35 1.35 0 000 2.7 1.35 1.35 0 000-2.7z"/><path class="cls-2" d="M598.07 60.48a2.28 2.28 0 01-2.31-2.35 2.39 2.39 0 01.57-1.58 2.25 2.25 0 011.74-.77 2.35 2.35 0 010 4.7zm0-2.7c-.08 0-.31 0-.31.35s.23.35.31.35.31 0 .31-.35-.23-.35-.31-.35zm-11.18 7.27a.91.91 0 000 1.81.91.91 0 000-1.81z"/><path class="cls-2" d="M586.89 67.86a1.91 1.91 0 111.87-1.86 1.85 1.85 0 01-1.87 1.86zm0-2a.19.19 0 00-.13.1.27.27 0 00.13.09.23.23 0 00.11-.05.18.18 0 00-.11-.14zm8.16-46.72a.91.91 0 000 1.81.91.91 0 000-1.81z"/><path class="cls-2" d="M595.05 22a1.91 1.91 0 111.87-2 1.84 1.84 0 01-1.87 2zm0-2a.17.17 0 00-.13.1.27.27 0 00.13.09.23.23 0 00.13-.1.22.22 0 00-.13-.09zm7.67-2.68a.9.9 0 000 1.8.9.9 0 000-1.8z"/><path class="cls-2" d="M602.72 20.12a1.9 1.9 0 111.87-1.9 1.85 1.85 0 01-1.87 1.9zm0-2a.24.24 0 00-.13.11.27.27 0 00.13.09.18.18 0 00.13-.11.27.27 0 00-.13-.09zm7.92 3.46a.9.9 0 000 1.8.9.9 0 000-1.8z"/><path class="cls-2" d="M610.64 24.38a1.9 1.9 0 111.87-1.9 1.84 1.84 0 01-1.87 1.9zm0-2a.22.22 0 00-.12.11.27.27 0 00.13.09.21.21 0 00.13-.11.26.26 0 00-.15-.09zm1.09 7.36a.9.9 0 000 1.8.9.9 0 000-1.8z"/><path class="cls-2" d="M611.73 32.54a1.85 1.85 0 01-1.87-1.9 2 2 0 01.46-1.27 1.81 1.81 0 011.41-.63 1.9 1.9 0 010 3.8zm0-2s-.12.07-.12.11.07.08.12.09a.18.18 0 00.13-.11.27.27 0 00-.13-.09zm-6.45 8.57a.91.91 0 000 1.81.91.91 0 000-1.81z"/><path class="cls-2" d="M605.28 41.92a1.91 1.91 0 111.87-1.9 1.84 1.84 0 01-1.87 1.9zm0-2s-.11.07-.12.1a.18.18 0 00.13.09.17.17 0 00.13-.1.21.21 0 00-.15-.09zm1.46 10.4a.9.9 0 000 1.8.9.9 0 000-1.8z"/><path class="cls-2" d="M606.74 53.12a1.9 1.9 0 111.87-1.9 1.85 1.85 0 01-1.87 1.9zm0-2a.21.21 0 00-.13.11.27.27 0 00.13.09.21.21 0 00.13-.11.27.27 0 00-.13-.09zM617 38.87a.9.9 0 000 1.8.9.9 0 000-1.8z"/><path class="cls-2" d="M617 41.67a1.84 1.84 0 01-1.87-1.9 1.94 1.94 0 01.46-1.27 1.81 1.81 0 011.41-.63 1.9 1.9 0 010 3.8zm0-2a.21.21 0 00-.13.11.27.27 0 00.13.09.1.1 0 100-.2zm5.33-13.22a.9.9 0 000 1.8.9.9 0 000-1.8z"/><path class="cls-2" d="M622.33 29.25a1.9 1.9 0 111.87-1.9 1.84 1.84 0 01-1.87 1.9zm0-2a.22.22 0 00-.12.11.27.27 0 00.13.09.21.21 0 00.13-.11.26.26 0 00-.15-.09zM602.24 6.84a.91.91 0 000 1.81.91.91 0 000-1.81z"/><path class="cls-2" d="M602.24 9.65a1.84 1.84 0 01-1.87-1.9 1.87 1.87 0 113.74 0 1.85 1.85 0 01-1.87 1.9zm0-2s-.11.07-.12.1a.19.19 0 00.13.09.19.19 0 00.13-.1.24.24 0 00-.15-.09z"/><path class="cls-3" d="M3.33 12.72c-3.1 0-3.11 4.81 0 4.81s3.1-4.81 0-4.81z"/><path class="cls-3" d="M3.33 18.53A3.26 3.26 0 010 15.13a3.26 3.26 0 013.33-3.41 3.23 3.23 0 012.5 1.1 3.54 3.54 0 01.82 2.3 3.26 3.26 0 01-3.32 3.41zm0-4.81A1.32 1.32 0 002 15.13a1.33 1.33 0 102.65 0 1.53 1.53 0 00-.34-1 1.22 1.22 0 00-.98-.41zM4 60.88c-3.1 0-3.11 4.81 0 4.81s3.07-4.81 0-4.81z"/><path class="cls-3" d="M4 66.69a3.22 3.22 0 01-2.5-1.1 3.45 3.45 0 01-.83-2.3A3.27 3.27 0 014 59.88a3.41 3.41 0 010 6.81zm0-4.81a1.32 1.32 0 00-1.33 1.41 1.59 1.59 0 00.34 1 1.23 1.23 0 001 .4 1.41 1.41 0 000-2.81zm30.47-46.27c-3.1 0-3.1 4.81 0 4.81s3.1-4.81 0-4.81z"/><path class="cls-3" d="M34.47 21.42A3.26 3.26 0 0131.14 18a3.27 3.27 0 013.33-3.41 3.23 3.23 0 012.5 1.1 3.54 3.54 0 01.82 2.3 3.26 3.26 0 01-3.32 3.43zm0-4.81A1.41 1.41 0 1035.79 18a1.32 1.32 0 00-1.32-1.39zm1.28 43.3c-3.1 0-3.1 4.82 0 4.82s3.11-4.82 0-4.82z"/><path class="cls-3" d="M35.75 65.73A3.41 3.41 0 1138.26 60a3.5 3.5 0 01.82 2.3 3.26 3.26 0 01-3.33 3.43zm0-4.82a1.41 1.41 0 101.33 1.41 1.32 1.32 0 00-1.33-1.41zm9.96-1c-3.1 0-3.11 4.82 0 4.82s3.1-4.82 0-4.82z"/><path class="cls-3" d="M45.71 65.73A3.41 3.41 0 1149 62.32a3.26 3.26 0 01-3.29 3.41zm0-4.82a1.41 1.41 0 000 2.82 1.41 1.41 0 000-2.82zm34.03-45.62c-3.1 0-3.11 4.81 0 4.81s3.1-4.81 0-4.81z"/><path class="cls-3" d="M79.74 21.1a3.26 3.26 0 01-3.33-3.4 3.33 3.33 0 116.65 0 3.26 3.26 0 01-3.32 3.4zm0-4.81a1.41 1.41 0 101.32 1.4 1.32 1.32 0 00-1.32-1.4zM92.58 15c-3.1 0-3.1 4.81 0 4.81s3.1-4.81 0-4.81z"/><path class="cls-3" d="M92.58 20.78a3.26 3.26 0 01-3.33-3.4 3.33 3.33 0 116.66 0 3.27 3.27 0 01-3.33 3.4zm0-4.81a1.41 1.41 0 101.33 1.4A1.32 1.32 0 0092.58 16zm2.25 44.59c-3.1 0-3.11 4.81 0 4.81s3.1-4.81 0-4.81z"/><path class="cls-3" d="M94.83 66.37A3.41 3.41 0 1198.15 63a3.26 3.26 0 01-3.32 3.37zm0-4.81A1.41 1.41 0 1096.15 63a1.32 1.32 0 00-1.32-1.44zM105.42 15c-3.1 0-3.1 4.81 0 4.81s3.11-4.81 0-4.81z"/><path class="cls-3" d="M105.42 20.78a3.26 3.26 0 01-3.32-3.4 3.35 3.35 0 015.83-2.31 3.5 3.5 0 01.82 2.3 3.26 3.26 0 01-3.33 3.41zm0-4.81a1.31 1.31 0 00-1.32 1.41 1.33 1.33 0 102.65 0 1.59 1.59 0 00-.34-1 1.23 1.23 0 00-.99-.38zm1.93 45.23c-3.1 0-3.1 4.81 0 4.81s3.1-4.81 0-4.81z"/><path class="cls-3" d="M107.35 67a3.22 3.22 0 01-2.5-1.1 3.51 3.51 0 01-.83-2.3 3.33 3.33 0 113.33 3.4zm0-4.81a1.32 1.32 0 00-1.35 1.42 1.59 1.59 0 00.34 1 1.23 1.23 0 001 .4 1.41 1.41 0 000-2.81zm30.18-2.92c-3.1 0-3.11 4.82 0 4.82s3.1-4.82 0-4.82z"/><path class="cls-3" d="M137.53 65.09a3.41 3.41 0 113.33-3.41 3.27 3.27 0 01-3.33 3.41zm0-4.82a1.41 1.41 0 101.33 1.41 1.33 1.33 0 00-1.33-1.41zM111.2 1.16c-3.1 0-3.1 4.82 0 4.82s3.11-4.82 0-4.82z"/><path class="cls-3" d="M111.2 7a3.23 3.23 0 01-2.5-1.1 3.54 3.54 0 01-.82-2.31 3.33 3.33 0 116.65 0A3.27 3.27 0 01111.2 7zm0-4.82a1.32 1.32 0 00-1.32 1.41 1.51 1.51 0 00.34 1 1.22 1.22 0 001 .41 1.33 1.33 0 001.33-1.41 1.32 1.32 0 00-1.35-1.43zm38.85 58.7c-3.1 0-3.1 4.81 0 4.81s3.1-4.81 0-4.81z"/><path class="cls-3" d="M150.05 66.69a3.41 3.41 0 010-6.81 3.23 3.23 0 012.5 1.1 3.52 3.52 0 01.83 2.3 3.27 3.27 0 01-3.33 3.41zm0-4.81a1.41 1.41 0 101.33 1.4 1.59 1.59 0 00-.34-1 1.24 1.24 0 00-.99-.4zm31.46-46.59c-3.09 0-3.1 4.81 0 4.81s3.11-4.81 0-4.81z"/><path class="cls-3" d="M181.51 21.1a3.26 3.26 0 01-3.32-3.4 3.35 3.35 0 015.81-2.31 3.5 3.5 0 01.82 2.3 3.26 3.26 0 01-3.31 3.41zm0-4.81a1.31 1.31 0 00-1.32 1.41 1.33 1.33 0 102.65 0 1.53 1.53 0 00-.34-1 1.23 1.23 0 00-.99-.41zM5.57 41.45a1.61 1.61 0 000 3.21 1.61 1.61 0 000-3.21z"/><path class="cls-3" d="M5.57 45.66A2.52 2.52 0 013 43.06a2.75 2.75 0 01.63-1.76 2.52 2.52 0 011.92-.85 2.61 2.61 0 010 5.21zm0-3.21a.61.61 0 10.55.61.69.69 0 00-.12-.45.48.48 0 00-.43-.16zm10.92-5.81a1.61 1.61 0 000 3.21 1.61 1.61 0 000-3.21z"/><path class="cls-3" d="M16.49 40.85a2.52 2.52 0 01-2.55-2.61 2.65 2.65 0 01.63-1.75 2.47 2.47 0 011.92-.85 2.61 2.61 0 010 5.21zm0-3.21a.61.61 0 10.55.6.68.68 0 00-.15-.45.47.47 0 00-.4-.15zm32.43-20.59a1.61 1.61 0 000 3.21 1.61 1.61 0 000-3.21z"/><path class="cls-3" d="M48.92 21.26a2.52 2.52 0 01-2.55-2.6A2.69 2.69 0 0147 16.9a2.47 2.47 0 011.92-.85 2.61 2.61 0 010 5.21zm0-3.21a.61.61 0 10.55.61.69.69 0 00-.15-.45.47.47 0 00-.4-.16zm28.89 41.7a1.61 1.61 0 000 3.21 1.61 1.61 0 000-3.21z"/><path class="cls-3" d="M77.81 64a2.61 2.61 0 112.55-2.6 2.52 2.52 0 01-2.55 2.6zm0-3.21a.53.53 0 00-.55.61.52.52 0 00.55.6.48.48 0 00.41-.15.73.73 0 00.14-.45.53.53 0 00-.55-.65zm16.7-21.58a1.61 1.61 0 000 3.21 1.61 1.61 0 000-3.21z"/><path class="cls-3" d="M94.51 43.42a2.61 2.61 0 112.55-2.61 2.52 2.52 0 01-2.55 2.61zm0-3.21a.53.53 0 00-.55.6.69.69 0 00.14.45.48.48 0 00.41.16.47.47 0 00.4-.16.69.69 0 00.15-.45.52.52 0 00-.55-.6zm42.06-23.8a1.61 1.61 0 000 3.21 1.61 1.61 0 000-3.21z"/><path class="cls-3" d="M136.57 20.62a2.61 2.61 0 112.55-2.6 2.52 2.52 0 01-2.55 2.6zm0-3.21a.54.54 0 00-.57.59.74.74 0 00.15.45.51.51 0 00.41.15.5.5 0 00.4-.15.74.74 0 00.15-.45.54.54 0 00-.54-.59zm-16.38 20.51a1.61 1.61 0 000 3.21 1.61 1.61 0 000-3.21z"/><path class="cls-3" d="M120.19 42.13a2.61 2.61 0 112.55-2.6 2.52 2.52 0 01-2.55 2.6zm0-3.21a.53.53 0 00-.55.61.74.74 0 00.15.45.48.48 0 00.4.15.51.51 0 00.41-.15.73.73 0 00.14-.45.53.53 0 00-.55-.61zm1.93-30.21a1.61 1.61 0 000 3.21 1.61 1.61 0 000-3.21z"/><path class="cls-3" d="M122.12 12.92a2.52 2.52 0 01-2.55-2.61 2.65 2.65 0 01.63-1.75 2.47 2.47 0 011.92-.85 2.52 2.52 0 012.55 2.6 2.52 2.52 0 01-2.55 2.61zm0-3.21a.53.53 0 00-.55.6.55.55 0 101.1 0 .69.69 0 00-.15-.45.46.46 0 00-.4-.15zM132.07 1a1.61 1.61 0 000 3.21 1.61 1.61 0 000-3.21z"/><path class="cls-3" d="M132.07 5.21a2.52 2.52 0 01-2.55-2.6 2.67 2.67 0 01.63-1.76 2.47 2.47 0 011.92-.85 2.52 2.52 0 012.55 2.6 2.52 2.52 0 01-2.55 2.61zm0-3.21a.53.53 0 00-.55.61.55.55 0 101.1 0 .53.53 0 00-.55-.61zm18.62 14.41a1.61 1.61 0 000 3.21 1.61 1.61 0 000-3.21z"/><path class="cls-3" d="M150.69 20.62a2.52 2.52 0 01-2.55-2.6 2.73 2.73 0 01.63-1.76 2.47 2.47 0 011.92-.85 2.61 2.61 0 010 5.21zm0-3.21a.61.61 0 10.55.61.74.74 0 00-.14-.46.51.51 0 00-.41-.15zM180.55 61a1.61 1.61 0 000 3.21 1.61 1.61 0 000-3.21z"/><path class="cls-3" d="M180.55 65.25a2.52 2.52 0 01-2.55-2.61 2.65 2.65 0 01.63-1.75 2.47 2.47 0 011.92-.85 2.61 2.61 0 010 5.21zm0-3.21a.61.61 0 10.55.6.73.73 0 00-.14-.45.48.48 0 00-.41-.19zM3.332 63.087L5.26 42.858l.955.091-1.926 20.229z"/><path class="cls-3" d="M2.247 63.98l2.105-22.22 2.946.278L5.194 64.26z"/><path class="cls-3" d="M5.533 42.466l10.596-4.818.397.874L5.93 43.339z"/><path class="cls-3" d="M4.207 41.966l12.419-5.641 1.224 2.695-12.419 5.64zm101.041-24.592l.03-.96 31.144.963-.03.96z"/><path class="cls-3" d="M104.226 18.341l.091-2.958 33.145 1.024-.092 2.959zM2.688 15.014l.956-.088L6.21 42.86l-.956.088z"/><path class="cls-3" d="M1.6 14.11l2.948-.271 2.75 29.924-2.948.27zm14.368 23.654l17.98-20.223.717.638-17.98 20.223z"/><path class="cls-3" d="M14.561 37.844L33.86 16.116l2.213 1.966-19.298 21.727z"/><path class="cls-3" d="M15.954 38.378l.75-.6 19.265 24.083-.75.6z"/><path class="cls-3" d="M14.548 38.222l2.311-1.849 20.515 25.644-2.31 1.849zm30.518 24.543l3.207-44.304.957.07-3.207 44.304z"/><path class="cls-3" d="M44.01 63.697l3.334-46.3 2.952.212-3.335 46.3z"/><path class="cls-3" d="M48.359 18.767l.795-.538 28.899 42.7-.795.538z"/><path class="cls-3" d="M46.97 18.5l2.451-1.66 30.02 44.357-2.451 1.659z"/><path class="cls-3" d="M77.174 61.18l2.249-43.342.958.05-2.248 43.342z"/><path class="cls-3" d="M76.134 62.126l2.353-45.339 2.956.154L79.09 62.28zM91.939 16.92l.956-.078 1.929 23.762-.957.078z"/><path class="cls-3" d="M90.86 16.02l2.95-.239 2.086 25.756-2.95.239z"/><path class="cls-3" d="M93.875 40.658l.96-.028.643 22.471-.96.027z"/><path class="cls-3" d="M92.847 39.687l2.958-.085.701 24.47-2.959.085zm26.803-.607l16.376-21.505.764.582-16.376 21.504z"/><path class="cls-3" d="M118.244 39.257l17.58-23.101 2.355 1.792L120.6 41.05z"/><path class="cls-3" d="M106.747 63.214l12.846-24.078.847.452-12.846 24.078z"/><path class="cls-3" d="M105.407 63.626l13.778-25.848 2.612 1.393-13.778 25.847zm-1.987 6.304h30.24v.96h-30.24z"/><path class="cls-3" d="M106.107 62.03l32.174-2.064.19 2.954-32.175 2.064zm4.675-58.222l.504-.817 10.916 6.742-.504.817z"/><path class="cls-3" d="M109.405 4.133l1.556-2.518 12.617 7.793-1.555 2.518z"/><path class="cls-3" d="M121.664 9.771l9.956-7.706.587.76-9.956 7.705z"/><path class="cls-3" d="M120.265 9.596L131.806.67l1.811 2.342-11.54 8.926zm29.14 53.848l.636-45.586.96.014-.636 45.585z"/><path class="cls-3" d="M148.384 64.427l.673-47.586 2.96.042-.674 47.585z"/><path class="cls-3" d="M150.12 18.107l.798-.534 29.86 44.62-.798.535z"/><path class="cls-3" d="M148.733 17.832l2.46-1.646 30.972 46.283-2.46 1.646z"/><path class="cls-3" d="M179.91 62.476l.966-44.95.96.02-.966 44.95z"/><path class="cls-3" d="M178.9 63.453l1.008-46.95 2.96.064-1.009 46.95zm19.33 1.977c-3.21 0-3.21 5 0 5s3.22-5 0-5zm1.33-45.91c-3.21 0-3.21 5 0 5s3.22-5 0-5zm1-9.31c-3.21 0-3.21 5 0 5s3.22-5 0-5zm7.32-4.49a1.66 1.66 0 000 3.32 1.66 1.66 0 000-3.32z"/><path class="cls-3" d="M197.726 68.577l1.183-46.745 1 .025-1.184 46.745z"/><path class="cls-3" d="M197.511 69.69l1.447-48.738 2.998.089-1.446 48.738zm2.598-57.55l7.32-5.323.587.81-7.32 5.321z"/><path class="cls-3" d="M198.71 11.926l8.94-6.495 1.762 2.427-8.94 6.495z"/></g></g></svg>