<svg xmlns="http://www.w3.org/2000/svg" viewBox="0 0 589.1 286.6"><path class="st0" d="M20.2 31.1c-8.2 0-8.2 12.8 0 12.8s8.2-12.8 0-12.8zm1.7 127.6c-8.2 0-8.2 12.8 0 12.8s8.2-12.8 0-12.8zm80.8-120c-8.2 0-8.2 12.8 0 12.8s8.2-12.8 0-12.8zm3.4 117.4c-8.2 0-8.2 12.8 0 12.8s8.2-12.8 0-12.8zm26.4 0c-8.2 0-8.2 12.8 0 12.8s8.2-12.8 0-12.8zm90.2-118.2c-8.2 0-8.2 12.8 0 12.8s8.2-12.8 0-12.8zm34-.9c-8.2 0-8.2 12.8 0 12.8s8.2-12.8 0-12.8zm6 120.8c-8.2 0-8.2 12.8 0 12.8s8.2-12.8 0-12.8zm28-120.8c-8.2 0-8.2 12.8 0 12.8s8.3-12.8 0-12.8zm5.2 122.6c-8.2 0-8.2 12.8 0 12.8s8.2-12.8 0-12.8zm79.9-5.2c-8.2 0-8.2 12.8 0 12.8s8.3-12.8 0-12.8zM306.1.4c-8.2 0-8.2 12.8 0 12.8s8.2-12.8 0-12.8zM409 158.7c-8.2 0-8.2 12.8 0 12.8s8.2-12.8 0-12.8zm83.4-120.8c-8.2 0-8.2 12.8 0 12.8s8.2-12.8 0-12.8zM26.1 107.2c-5.5 0-5.5 8.5 0 8.5s5.5-8.5 0-8.5zM55 94.4c-5.5 0-5.5 8.5 0 8.5s5.5-8.5 0-8.5zm86-51.9c-5.5 0-5.5 8.5 0 8.5s5.5-8.5 0-8.5zm76.6 113.2c-5.5 0-5.5 8.5 0 8.5s5.5-8.5 0-8.5zm44.2-54.4c-5.5 0-5.5 8.5 0 8.5s5.5-8.5 0-8.5zm111.5-60.5c-5.5 0-5.5 8.5 0 8.5s5.5-8.5 0-8.5zm-43.4 57c-5.5 0-5.5 8.5 0 8.5s5.5-8.5 0-8.5zm5.1-77.4c-5.5 0-5.5 8.5 0 8.5s5.5-8.5 0-8.5zM361.4 0c-5.5 0-5.5 8.5 0 8.5s5.5-8.5 0-8.5zm49.3 40.8c-5.5 0-5.5 8.5 0 8.5s5.5-8.5 0-8.5zm79.2 118.3c-5.5 0-5.5 8.5 0 8.5s5.4-8.5 0-8.5z"/><path class="st0" d="M20.186 164.488l5.11-53.657 2.588.247-5.11 53.657z"/><path class="st0" d="M25.96 109.91l28.038-12.75 1.076 2.367-28.037 12.75zm264.308-66.503l.077-2.499 82.56 2.552-.078 2.498z"/><path class="st0" d="M18.507 37.169l2.49-.23 6.799 73.99-2.49.228zm35.155 60.256l47.64-53.585 1.943 1.728-47.64 53.585z"/><path class="st0" d="M53.63 99.038l2.031-1.624 51.037 63.797-2.03 1.625zm77.137 64.683l8.497-117.394 2.593.188-8.497 117.394z"/><path class="st0" d="M139.757 47.243l2.156-1.454 76.509 113.404-2.155 1.454z"/><path class="st0" d="M215.827 159.49l5.958-114.85 2.597.135-5.958 114.85zm39.217-117.288l2.491-.203 5.113 62.992-2.491.202z"/><path class="st0" d="M260.148 105.049l2.5-.072 1.706 59.576-2.499.072zm68.246-4.117l43.375-56.966 2.069 1.575-43.375 56.966z"/><path class="st0" d="M294.296 164.849l34.032-63.79 2.294 1.224-34.032 63.79z"/><path class="st0" d="M295.315 164.27l79.94-5.113.166 2.595-79.94 5.113zm9.628-156.797l1.314-2.127 28.927 17.867-1.314 2.127z"/><path class="st0" d="M333.825 23.237l26.413-20.444 1.591 2.056-26.413 20.444zm73.477 142.259l1.687-120.788 2.6.036-1.687 120.788z"/><path class="st0" d="M409.22 45.296l2.077-1.39 79.144 118.26-2.078 1.39z"/><path class="st0" d="M488.131 162.927l2.56-119.176 2.599.055-2.56 119.177zM543.1 157.9c-8.5 0-8.5 13.2 0 13.2s8.5-13.2 0-13.2zm3.5-121.1c-8.5 0-8.5 13.2 0 13.2s8.5-13.2 0-13.2zm2.7-24.6c-8.5 0-8.5 13.2 0 13.2s8.5-13.2 0-13.2zM568.6.3c-5.7 0-5.7 8.8 0 8.8s5.7-8.8 0-8.8z"/><path class="st0" d="M541.836 166.212l3.122-123.363 2.6.066-3.123 123.363zm6.272-148.979l19.33-14.056 1.53 2.103-19.33 14.056z"/><path class="st1" d="M42.6 200.9c24.5 0 42.6 16.5 42.6 40.7s-18.1 40.9-42.6 40.9S0 266 0 241.6s18.1-40.7 42.6-40.7zm0 70c14.6 0 25.4-11.8 25.4-29.3s-10.9-29.1-25.4-29.1-25.4 11.6-25.4 29.1 10.7 29.3 25.4 29.3zm62-68.3h35.2c24.4 0 42 15.7 42 39s-17.6 39.1-42 39.1h-35.2v-78.1zm34.6 66c14.9 0 25.4-10.4 25.4-27.1s-10.6-26.9-25.4-26.9h-18.1v54h18.1zm79.1-16.2l-32.5-49.7h18.8l14.7 23.4 7.5 14.6 7.5-14.6 14.7-23.4h18.4l-32.6 49.7v28.4h-16.5v-28.4zm62.8 12.9c8.9 3.5 18.8 5.7 25.9 5.7 8.3 0 17.5-3.2 17.5-12.2 0-6.8-7.8-8.8-16.4-11.2-13-3.4-30.5-7.6-30.5-24.6 0-13.4 11.9-22.2 31.1-22.2 9.5 0 18.9 1.7 27.7 5l-2.6 11.3c-8.4-3.1-17.8-5-24.7-5-7.7 0-15.3 2.6-15.3 10.1 0 6 6.3 8.5 13.8 10.6 13.5 3.4 33.1 7.2 33.1 24.7s-16.7 24.9-34.8 24.9c-9.3-.2-18.6-2-27.3-5.4l2.5-11.7zm80.1-62.7h60.4l-.9 12.1h-42.9v21.5l36-1v12l-36-1v22.5h45l-.9 12.1h-60.6v-78.2zm102.5 0H483l32.6 78.1h-18.4l-7-19.3h-34.5l-7 19.3h-17.6l32.6-78.1zm-3.7 47.3h26l-3.8-10.4-9.2-25.3-9 25.3-4 10.4z"/><path class="st2" d="M582.4 283.9l-52.6-2.2-3.1-14.4 15.4-12.2 14.3-12.5 9-13.1-1.5-10.9-10.6-5.7-9.9 2.4v14.1l-14.5 2.4-2.8-27 26.8-9.2 22.7 10 7.3 19.4-8 18.5-.1.1-14.9 16.7-10.5 7.9 36.6-1.5-3.6 17.2zm-51-4.1l49.4 2 2.7-13-40.4 1.7 15.5-11.7 14.6-16.3 7.5-17.4-6.7-17.9-21.2-9.3-24.5 8.4 2.4 23.3 10.8-1.8v-14l12.2-2.9 12.2 6.6 1.7 12.7-9.7 14-14.4 12.7-14.5 11.4 2.4 11.5z"/><path class="st2" d="M530.6 226.2c-4.8 0-4.8 7.4 0 7.4s4.7-7.4 0-7.4zm12-2c-4.8 0-4.8 7.4 0 7.4s4.7-7.4 0-7.4zm-16-22c-4.8 0-4.8 7.4 0 7.4s4.7-7.4 0-7.4zm26-9c-4.8 0-4.8 7.4 0 7.4s4.7-7.4 0-7.4zm22 10c-4.8 0-4.8 7.4 0 7.4s4.7-7.4 0-7.4zm7 19c-4.8 0-4.8 7.4 0 7.4s4.7-7.4 0-7.4zm-39-11c-4.8 0-4.8 7.4 0 7.4s4.7-7.4 0-7.4zm11-3c-4.8 0-4.8 7.4 0 7.4s4.7-7.4 0-7.4zm11 6c-4.8 0-4.8 7.4 0 7.4s4.7-7.4 0-7.4zm2 12c-4.8 0-4.8 7.4 0 7.4s4.7-7.4 0-7.4zm-9 14c-4.8 0-4.8 7.4 0 7.4s4.7-7.4 0-7.4zm-30 23c-4.8 0-4.8 7.4 0 7.4s4.7-7.4 0-7.4zm4 13c-4.8 0-4.8 7.4 0 7.4s4.7-7.4 0-7.4zm51 3c-4.8 0-4.8 7.4 0 7.4s4.7-7.4 0-7.4zm3-16c-4.8 0-4.8 7.4 0 7.4s4.7-7.4 0-7.4zm-40 3c-4.8 0-4.8 7.4 0 7.4s4.7-7.4 0-7.4z"/></svg>