<?xml version="1.0" encoding="UTF-8" standalone="no"?>
<!DOCTYPE svg PUBLIC "-//W3C//DTD SVG 1.1//EN" "http://www.w3.org/Graphics/SVG/1.1/DTD/svg11.dtd">
<svg width="100%" height="100%" viewBox="0 0 1134 374" version="1.1" xmlns="http://www.w3.org/2000/svg" xmlns:xlink="http://www.w3.org/1999/xlink" xml:space="preserve" xmlns:serif="http://www.serif.com/" style="fill-rule:evenodd;clip-rule:evenodd;stroke-linejoin:round;stroke-miterlimit:2;">
    <g id="Artboard1" transform="matrix(0.908806,0,0,0.938895,0,0)">
        <rect x="0" y="0" width="1247.1" height="397.746" style="fill:none;"/>
        <clipPath id="_clip1">
            <rect x="0" y="0" width="1247.1" height="397.746"/>
        </clipPath>
        <g clip-path="url(#_clip1)">
            <g transform="matrix(1.10034,0,0,1.06508,-106.513,-159.762)">
                <g>
                    <g>
                        <g>
                            <path d="M131.1,251.9L96.8,158.5L117.4,158.5L135.8,215.1L142.4,236.8L149.1,215.1L167.5,158.5L187.4,158.5L153,251.9L131.1,251.9Z" style="fill:white;fill-rule:nonzero;"/>
                            <path d="M195.2,163.6C195.2,160.7 196.2,158.3 198.2,156.4C200.2,154.5 202.6,153.5 205.6,153.5C208.5,153.5 210.9,154.5 213,156.4C215,158.3 216,160.7 216,163.6C216,166.4 215,168.8 213,170.6C211,172.5 208.5,173.4 205.6,173.4C202.6,173.4 200.1,172.5 198.2,170.6C196.2,168.8 195.2,166.5 195.2,163.6ZM197,251.9L197,186.1L214.4,183.1L214.4,251.9L197,251.9Z" style="fill:white;fill-rule:nonzero;"/>
                            <path d="M225,235.2C225,221.4 237.8,213.5 263.5,211.4L263.5,206.7C263.5,199.3 260.2,195.7 253.5,195.7C247.5,195.7 240.3,197.5 231.7,201.2L229.3,188.7C239.3,185 248.7,183.2 257.4,183.2C273,183.2 280.8,191.7 280.8,208.6L280.8,232C280.8,235.1 281.5,237.2 282.9,238.4C284.3,239.6 286.7,240.2 290.1,240.2L288.3,252.7C276.5,254.2 269.1,251.1 265.9,243.5C262.8,246.6 259.3,249 255.4,250.8C251.5,252.6 247.6,253.5 244,253.5C238.4,253.5 233.8,251.9 230.3,248.6C226.7,245.3 225,240.8 225,235.2ZM242.2,233.7C242.1,236.2 242.7,238 244,239.2C245.3,240.4 247.2,241 249.7,241C253.9,241 258.5,238.9 263.5,234.6L263.5,220.7C249.3,222.4 242.2,226.7 242.2,233.7Z" style="fill:white;fill-rule:nonzero;"/>
                            <path d="M299.1,251.9L299.1,186.1L315.9,183.1L316.4,192C324.2,186 332.1,183.1 339.9,183.1C345.9,183.1 350.8,185.1 354.6,189C358.5,192.9 360.4,198.8 360.4,206.5L360.4,251.9L343,251.9L343,208.6C343,200.7 339.5,196.8 332.5,196.8C327.2,196.8 321.8,199 316.3,203.2L316.3,251.9L299.1,251.9Z" style="fill:white;fill-rule:nonzero;"/>
                            <path d="M382.1,243.7C375.6,237.2 372.4,228.8 372.4,218.3C372.4,207.9 375.6,199.4 382.1,192.9C388.6,186.4 396.9,183.1 407,183.1C417.1,183.1 425.3,186.4 431.8,192.9C438.2,199.4 441.5,207.9 441.5,218.3C441.5,228.7 438.3,237.2 431.8,243.7C425.4,250.2 417.1,253.4 407,253.4C396.9,253.5 388.6,250.2 382.1,243.7ZM390.3,218.4C390.3,225.2 391.9,230.7 395,234.9C398.1,239.1 402.1,241.1 407,241.1C411.9,241.1 415.9,239 419,234.9C422.1,230.7 423.6,225.2 423.6,218.4C423.6,211.6 422,206 419,201.8C415.9,197.6 411.9,195.5 407,195.5C402,195.5 398,197.6 394.9,201.7C391.8,205.9 390.3,211.4 390.3,218.4Z" style="fill:white;fill-rule:nonzero;"/>
                            <path d="M449.6,219C449.6,207.9 453,199.1 459.8,192.7C466.6,186.3 475.1,183.1 485.4,183.1C492.7,183.1 499.7,184.7 506.6,188L505.3,210L492.3,212.8L491.8,196.8C484.6,195.7 478.7,197 474.2,200.8C469.6,204.6 467.4,210.7 467.4,219.1C467.4,233.3 473.4,240.4 485.4,240.4C491.1,240.4 497.6,238.9 505,235.8L507.6,248.2C499,251.8 490.9,253.6 483.4,253.6C473.7,253.6 465.6,250.7 459.3,244.8C452.8,238.8 449.6,230.2 449.6,219ZM474.5,176.7L459.4,151.8L471.9,150L482.7,165.3L493.5,150L505.5,151.8L490.4,176.7L474.5,176.7Z" style="fill:white;fill-rule:nonzero;"/>
                            <path d="M519,251.9L519,186.1L535.8,183.1L536.3,192C544.1,186 552,183.1 559.8,183.1C565.8,183.1 570.7,185.1 574.5,189C578.4,192.9 580.3,198.8 580.3,206.5L580.3,251.9L562.9,251.9L562.9,208.6C562.9,200.7 559.4,196.8 552.4,196.8C547.1,196.8 541.7,199 536.2,203.2L536.2,251.9L519,251.9Z" style="fill:white;fill-rule:nonzero;"/>
                            <path d="M588.4,184.7L607.3,184.7L617.3,215.7L623.9,237L630.5,215.7L640.4,184.7L658.7,184.7L634.4,247.8C630.9,256.9 626.4,264.5 620.9,270.5C615.4,276.5 607.8,280.5 598.1,282.4L593.1,268.3C602.4,265.2 609.7,260.3 614.9,253.4L588.4,184.7ZM625.4,150L643.4,151.8L627.1,176.7L613.3,176.7L625.4,150Z" style="fill:white;fill-rule:nonzero;"/>
                        </g>
                        <path d="M609.5,393.2C596.8,381 590.5,365.1 590.5,345.5C590.5,325.9 596.8,309.9 609.5,297.8C622.2,285.6 638.3,279.5 658,279.5C677.6,279.5 693.8,285.6 706.3,297.8C718.9,310 725.2,325.9 725.2,345.5C725.2,365.1 718.9,381.1 706.3,393.2C693.7,405.4 677.6,411.5 658,411.5C638.3,411.4 622.2,405.3 609.5,393.2ZM641.7,319C637.6,325.4 635.6,334.2 635.6,345.4C635.6,356.6 637.6,365.4 641.7,371.7C645.8,378 651.2,381.2 658,381.2C664.8,381.2 670.2,378 674.2,371.6C678.2,365.2 680.2,356.5 680.2,345.4C680.2,334.2 678.2,325.4 674.2,319C670.2,312.6 664.8,309.4 658,309.4C651.2,309.4 645.7,312.6 641.7,319Z" style="fill:white;fill-rule:nonzero;"/>
                        <path d="M737.4,345.9C737.4,325.4 744,309.2 757.1,297.3C770.3,285.4 786.4,279.4 805.6,279.4C820.2,279.4 834.5,283 848.5,290.1L846.1,333.5L814,340.8L812.8,311.6C803.5,311.1 796.1,313.8 790.4,319.5C784.7,325.3 781.9,334.1 781.9,345.9C781.9,368.3 791.2,379.5 809.7,379.5C818.5,379.5 830.1,376.7 844.5,371.2L850.6,401.2C834,408 818,411.4 802.4,411.4C783.7,411.4 768.3,405.8 756,394.6C743.5,383.4 737.4,367.2 737.4,345.9Z" style="fill:white;fill-rule:nonzero;"/>
                        <path d="M867.9,408.6L867.9,286.7L910.8,279.4L911.8,295.2C927.1,284.6 941.5,279.4 955.2,279.4C966.1,279.4 975,283.1 982,290.5C989,297.9 992.5,308.4 992.5,322L992.5,408.5L948.7,408.5L948.7,328.9C948.7,318.5 943.9,313.3 934.3,313.3C927.5,313.3 920,316.1 911.9,321.6L911.9,408.6L867.9,408.6Z" style="fill:white;fill-rule:nonzero;"/>
                        <path d="M1037.4,217.1L1082,221.2L1049.1,269.2L1015.7,269.2L1037.4,217.1ZM1016.5,408.5L1016.5,286.7L1060.3,279.4L1060.3,408.5L1016.5,408.5Z" style="fill:white;fill-rule:nonzero;"/>
                        <path d="M1084.7,408.5L1084.7,225.4L1128.5,218.1L1128.5,325.8L1164.8,282.4L1215.5,282.4L1169.2,333.5L1221.8,408.5L1168.5,408.5L1141,364.9L1128.6,373.2L1128.6,408.5L1084.7,408.5Z" style="fill:white;fill-rule:nonzero;"/>
                        <path d="M562.8,290.4C556.3,283.1 547.9,279.4 537.7,279.4C523.2,279.4 508.1,285.3 492.2,297.2C485.7,285.4 475.8,279.4 462.5,279.4C449.3,279.4 436,284.7 422.3,295.2L421.3,279.4L378.4,286.7L378.4,291.3C394.9,311 403,337.4 398.5,364.6C395.8,380.7 388.8,395.7 378.4,408.1L378.4,408.5L422.2,408.5L422.2,321.5C429.3,316 435.7,313.2 441.2,313.2C449.5,313.2 453.6,318.4 453.6,328.8L453.6,408.4L497.4,408.4L497.4,328.5C497.4,327 497.2,324.8 496.9,321.9C503.9,316.1 510.4,313.1 516.4,313.1C524.5,313.1 528.6,318.3 528.6,328.7L528.6,408.3L572.4,408.3L572.4,321.8C572.5,308.3 569.3,297.7 562.8,290.4Z" style="fill:white;fill-rule:nonzero;"/>
                        <path d="M219.2,334.8C221,323.9 224.8,313.6 230.2,304.3C228.5,301.3 226.7,298.6 224.5,296.1C215.1,285.1 203.6,279.5 189.9,279.5C176.3,279.5 163.9,284.8 152.9,295.3L151.9,279.5L109,286.8L109,462.2L152.8,462.2L152.8,406.2C161.9,409.8 171,411.6 180.1,411.6C197.3,411.6 211.4,405.4 222.2,392.8C223.6,391.2 224.9,389.5 226.2,387.7C218.7,371.2 216.2,352.9 219.2,334.8ZM187.1,369.8C183,376.5 177.1,379.8 169.4,379.8C164.7,379.8 159.2,378.5 152.8,375.9L152.8,319.6C160.9,314.7 167.9,312.3 173.7,312.3C180.2,312.3 185.1,315.1 188.3,320.7C191.5,326.3 193.2,333.7 193.2,343C193.4,354.2 191.3,363.1 187.1,369.8Z" style="fill:white;fill-rule:nonzero;"/>
                        <g>
                            <path d="M426.5,492.1C429.4,490 430.1,485.9 428,483L385.9,424C383.8,421.1 379.7,420.4 376.8,422.5L371.5,426.3L361,411.6C375.6,399.3 385.5,382.3 388.7,363C396.1,319 366.2,277.2 322.2,269.8C278.2,262.4 236.4,292.3 229,336.3C221.6,380.3 251.5,422.2 295.5,429.5C314.7,432.7 333.9,429 350.4,419.1L360.9,433.8L355.6,437.6C352.7,439.7 352,443.8 354.1,446.7L396.2,505.7C398.3,508.6 402.4,509.3 405.3,507.2L426.5,492.1ZM375.9,360.9C369.7,398 334.6,422.9 297.7,416.7C260.8,410.5 235.7,375.4 241.9,338.5C248.1,301.6 283.2,276.5 320.1,282.7C357,288.9 382,324 375.9,360.9ZM413.6,485.3L403,492.9L368.5,444.5L379.1,436.9L413.6,485.3Z" style="fill:white;fill-rule:nonzero;"/>
                        </g>
                    </g>
                </g>
            </g>
        </g>
    </g>
</svg>
