<?xml version="1.0" encoding="UTF-8" standalone="no"?>
<!DOCTYPE svg PUBLIC "-//W3C//DTD SVG 1.1//EN" "http://www.w3.org/Graphics/SVG/1.1/DTD/svg11.dtd">
<svg width="100%" height="100%" viewBox="0 0 412 135" version="1.1" xmlns="http://www.w3.org/2000/svg" xmlns:xlink="http://www.w3.org/1999/xlink" xml:space="preserve" xmlns:serif="http://www.serif.com/" style="fill-rule:evenodd;clip-rule:evenodd;stroke-linejoin:round;stroke-miterlimit:2;">
    <g transform="matrix(1,0,0,1,-445,-227)">
        <g>
            <g transform="matrix(1,0,0,1,-238.456,-50.462)">
                <path d="M868.878,369.617C864.193,365.112 861.851,359.227 861.851,351.96C861.851,344.693 864.193,338.808 868.878,334.303C873.563,329.799 879.539,327.547 886.806,327.546C894.073,327.545 900.034,329.798 904.689,334.303C909.342,338.807 911.67,344.693 911.671,351.96C911.672,359.227 909.345,365.113 904.689,369.617C900.034,374.121 894.073,376.373 886.806,376.374C879.539,376.375 873.563,374.122 868.878,369.617ZM880.77,342.184C879.268,344.558 878.517,347.816 878.518,351.959C878.519,356.102 879.269,359.345 880.77,361.688C881.991,363.867 884.308,365.216 886.806,365.202C889.304,365.216 891.614,363.844 892.797,361.644C894.266,359.272 895,356.044 895,351.96C895,347.815 894.264,344.557 892.793,342.185C891.61,339.985 889.3,338.613 886.802,338.627C884.295,338.62 881.977,339.987 880.77,342.184Z" style="fill:rgb(88,53,39);fill-rule:nonzero;"/>
            </g>
            <g transform="matrix(1,0,0,1,-290.251,-50.462)">
                <path d="M967.969,352.14C967.969,344.572 970.402,338.581 975.269,334.167C980.17,329.739 986.594,327.366 993.197,327.545C998.723,327.575 1004.16,328.935 1009.05,331.509L1008.15,347.545L996.26,350.245L995.809,339.434C992.75,339.124 989.707,340.199 987.521,342.362C985.418,344.495 984.367,347.754 984.368,352.137C984.368,360.425 987.791,364.569 994.638,364.568C997.881,364.568 1002.18,363.547 1007.52,361.505L1009.77,372.587C1004.13,375.007 998.072,376.293 991.936,376.371C985.029,376.371 979.308,374.299 974.774,370.154C970.24,366.009 967.972,360.005 967.969,352.14Z" style="fill:rgb(88,53,39);fill-rule:nonzero;"/>
            </g>
            <g transform="matrix(1,0,0,1,-336.291,-50.462)">
                <path d="M1062.3,375.292L1062.3,330.247L1078.16,327.547L1078.52,333.403C1084.16,329.499 1089.51,327.547 1094.55,327.547C1098.29,327.429 1101.9,328.924 1104.46,331.647C1107.04,334.38 1108.34,338.269 1108.34,343.314L1108.34,375.296L1092.12,375.296L1092.12,345.833C1092.12,341.99 1090.35,340.068 1086.81,340.067C1084.28,340.067 1081.52,341.088 1078.52,343.13L1078.52,375.292L1062.3,375.292Z" style="fill:rgb(88,53,39);fill-rule:nonzero;"/>
            </g>
            <g transform="matrix(1,0,0,1,-388.429,-28.473)">
                <path d="M1177.13,282.493L1193.62,284.024L1181.46,301.772L1169.12,301.772L1177.13,282.493ZM1169.39,353.303L1169.39,308.258L1185.6,305.558L1185.6,353.3L1169.39,353.303Z" style="fill:rgb(88,53,39);fill-rule:nonzero;"/>
            </g>
            <g transform="matrix(1,0,0,1,-412.737,-28.816)">
                <path d="M1218.92,353.646L1218.92,285.9L1235.13,283.2L1235.13,323.02L1248.56,306.984L1267.3,306.984L1250.18,325.9L1269.64,353.648L1249.91,353.648L1239.73,337.521L1235.14,340.584L1235.14,353.647L1218.92,353.646Z" style="fill:rgb(88,53,39);fill-rule:nonzero;"/>
            </g>
            <g transform="matrix(1,0,0,1,-163.64,-50.462)">
                <path d="M776.765,331.6C774.436,328.93 771.028,327.441 767.486,327.546C762.14,327.546 756.525,329.738 750.64,334.123C748.599,329.961 744.281,327.377 739.649,327.546C734.782,327.546 729.827,329.498 724.784,333.402L724.424,327.546L708.569,330.246L708.569,331.962C719.032,344.394 719.032,362.73 708.569,375.162L708.569,375.293L724.785,375.293L724.785,343.13C727.427,341.089 729.769,340.068 731.812,340.067C734.875,340.067 736.407,341.989 736.406,345.833L736.406,375.292L752.622,375.292L752.622,345.743C752.622,345.202 752.562,344.392 752.442,343.311C755.023,341.149 757.426,340.068 759.649,340.068C762.649,340.068 764.149,341.99 764.149,345.834L764.149,375.293L780.365,375.293L780.365,343.311C780.368,338.207 779.168,334.303 776.765,331.6Z" style="fill:rgb(88,53,39);fill-rule:nonzero;"/>
            </g>
            <g transform="matrix(1,0,0,1,-68.663,-50.462)">
                <path d="M554.725,348.011C555.386,344.035 556.759,340.211 558.778,336.723C558.182,335.638 557.478,334.616 556.678,333.671C553.584,329.774 548.861,327.512 543.885,327.545C538.724,327.593 533.791,329.703 530.191,333.401L529.831,327.545L513.976,330.245L513.976,395.109L530.192,395.109L530.192,374.391C533.4,375.682 536.824,376.355 540.282,376.374C546.257,376.547 551.997,373.992 555.868,369.437C556.389,368.837 556.878,368.211 557.332,367.559C554.511,361.456 553.602,354.64 554.725,348.011ZM542.851,360.968C541.528,363.311 539.009,364.735 536.32,364.662C534.205,364.578 532.125,364.088 530.194,363.22L530.194,342.409C533.194,340.609 535.777,339.709 537.942,339.709C540.187,339.621 542.293,340.832 543.347,342.817C544.657,345.36 545.278,348.202 545.147,351.06C545.148,355.203 544.382,358.506 542.851,360.968Z" style="fill:rgb(88,53,39);fill-rule:nonzero;"/>
            </g>
            <g transform="matrix(1,0,0,1,-110.556,-46.698)">
                <path d="M673.272,402.457C674.348,401.689 674.602,400.172 673.834,399.096L658.27,377.287C657.502,376.212 655.985,375.958 654.909,376.725L652.947,378.125L649.064,372.683C655.811,366.995 659.711,358.606 659.711,349.781C659.711,333.349 646.19,319.827 629.757,319.827C613.325,319.827 599.803,333.349 599.803,349.781C599.803,366.213 613.325,379.735 629.757,379.735C635.175,379.735 640.492,378.265 645.141,375.483L649.024,380.925L647.063,382.325C645.987,383.093 645.733,384.61 646.501,385.686L662.065,407.5C662.833,408.576 664.35,408.83 665.426,408.062L673.272,402.457ZM654.548,353.926C652.534,365.989 641.991,374.917 629.761,374.917C615.975,374.917 604.631,363.573 604.631,349.787C604.631,336.001 615.975,324.657 629.761,324.657C631.148,324.657 632.532,324.772 633.9,325C647.497,327.272 656.817,340.33 654.546,353.928L654.548,353.926ZM668.511,399.934L664.588,402.734L651.824,384.848L655.747,382.048L668.511,399.934Z" style="fill:rgb(88,53,39);fill-rule:nonzero;"/>
            </g>
            <g transform="matrix(1,0,0,1,445,267)">
                <g transform="matrix(41,0,0,41,0,0)">
                    <path d="M0.062,-0L0.204,-0L0.204,-0.248L0.277,-0.303L0.504,-0L0.68,-0L0.369,-0.405L0.658,-0.71L0.489,-0.71L0.204,-0.407L0.204,-0.71L0.062,-0.71L0.062,-0Z" style="fill:rgb(88,53,39);fill-rule:nonzero;"/>
                </g>
                <g transform="matrix(41,0,0,41,27.552,0)">
                    <path d="M0.062,-0L0.194,-0L0.194,-0.37C0.233,-0.4 0.28,-0.419 0.317,-0.419C0.364,-0.419 0.397,-0.395 0.397,-0.329L0.397,-0L0.529,-0L0.529,-0.345C0.529,-0.467 0.459,-0.523 0.373,-0.523C0.315,-0.523 0.25,-0.498 0.194,-0.455L0.19,-0.523L0.062,-0.5L0.062,-0Z" style="fill:rgb(88,53,39);fill-rule:nonzero;"/>
                </g>
                <g transform="matrix(41,0,0,41,51.66,0)">
                    <path d="M0.062,-0L0.194,-0L0.194,-0.523L0.062,-0.5L0.062,-0ZM0.049,-0.671C0.049,-0.628 0.083,-0.596 0.128,-0.596C0.172,-0.596 0.207,-0.628 0.207,-0.671C0.207,-0.715 0.172,-0.748 0.128,-0.748C0.083,-0.748 0.049,-0.715 0.049,-0.671Z" style="fill:rgb(88,53,39);fill-rule:nonzero;"/>
                </g>
                <g transform="matrix(41,0,0,41,62.156,0)">
                    <path d="M0.062,-0L0.194,-0L0.194,-0.37C0.233,-0.4 0.28,-0.419 0.317,-0.419C0.364,-0.419 0.397,-0.395 0.397,-0.329L0.397,-0L0.529,-0L0.529,-0.345C0.529,-0.467 0.459,-0.523 0.373,-0.523C0.315,-0.523 0.25,-0.498 0.194,-0.455L0.194,-0.779L0.062,-0.756L0.062,-0Z" style="fill:rgb(88,53,39);fill-rule:nonzero;"/>
                </g>
                <g transform="matrix(41,0,0,41,86.264,0)">
                    <path d="M0.031,-0.255C0.031,-0.095 0.142,0.012 0.294,0.012C0.445,0.012 0.556,-0.095 0.556,-0.255C0.556,-0.415 0.445,-0.523 0.294,-0.523C0.142,-0.523 0.031,-0.415 0.031,-0.255ZM0.167,-0.255C0.167,-0.36 0.219,-0.429 0.294,-0.429C0.368,-0.429 0.42,-0.36 0.42,-0.255C0.42,-0.151 0.368,-0.082 0.294,-0.082C0.219,-0.082 0.167,-0.151 0.167,-0.255Z" style="fill:rgb(88,53,39);fill-rule:nonzero;"/>
                </g>
                <g transform="matrix(41,0,0,41,110.331,0)">
                    <path d="M0.062,-0L0.194,-0L0.194,-0.37C0.229,-0.4 0.269,-0.419 0.302,-0.419C0.343,-0.419 0.371,-0.395 0.371,-0.329L0.371,-0L0.503,-0L0.503,-0.329C0.503,-0.343 0.502,-0.356 0.5,-0.368C0.536,-0.4 0.578,-0.419 0.612,-0.419C0.652,-0.419 0.68,-0.394 0.68,-0.329L0.68,-0L0.812,-0L0.812,-0.345C0.812,-0.465 0.75,-0.523 0.669,-0.523C0.612,-0.523 0.544,-0.496 0.483,-0.446C0.458,-0.498 0.414,-0.523 0.36,-0.523C0.306,-0.523 0.245,-0.498 0.194,-0.455L0.19,-0.523L0.062,-0.5L0.062,-0Z" style="fill:rgb(88,53,39);fill-rule:nonzero;"/>
                </g>
                <g transform="matrix(41,0,0,41,146.042,0)">
                    <path d="M0.031,-0.255C0.031,-0.095 0.142,0.012 0.294,0.012C0.445,0.012 0.556,-0.095 0.556,-0.255C0.556,-0.415 0.445,-0.523 0.294,-0.523C0.142,-0.523 0.031,-0.415 0.031,-0.255ZM0.167,-0.255C0.167,-0.36 0.219,-0.429 0.294,-0.429C0.368,-0.429 0.42,-0.36 0.42,-0.255C0.42,-0.151 0.368,-0.082 0.294,-0.082C0.219,-0.082 0.167,-0.151 0.167,-0.255Z" style="fill:rgb(88,53,39);fill-rule:nonzero;"/>
                </g>
                <g transform="matrix(41,0,0,41,170.109,0)">
                    <path d="M0.23,-0.772C0.27,-0.702 0.271,-0.657 0.225,-0.591L0.291,-0.562C0.366,-0.628 0.383,-0.721 0.339,-0.801L0.23,-0.772ZM0.062,-0L0.194,-0L0.194,-0.779L0.062,-0.756L0.062,-0Z" style="fill:rgb(88,53,39);fill-rule:nonzero;"/>
                </g>
                <g transform="matrix(41,0,0,41,180.605,0)">
                    <path d="M0.042,-0.025C0.093,-0.004 0.154,0.012 0.218,0.012C0.328,0.012 0.434,-0.034 0.434,-0.153C0.434,-0.271 0.318,-0.299 0.238,-0.317C0.195,-0.329 0.158,-0.341 0.158,-0.379C0.158,-0.413 0.184,-0.434 0.231,-0.434C0.274,-0.434 0.335,-0.418 0.391,-0.396L0.408,-0.49C0.357,-0.51 0.296,-0.523 0.234,-0.523C0.117,-0.523 0.037,-0.468 0.037,-0.37C0.037,-0.252 0.149,-0.223 0.23,-0.204C0.273,-0.193 0.313,-0.181 0.313,-0.144C0.313,-0.103 0.281,-0.077 0.228,-0.077C0.18,-0.077 0.114,-0.096 0.059,-0.118L0.042,-0.025Z" style="fill:rgb(88,53,39);fill-rule:nonzero;"/>
                </g>
                <g transform="matrix(41,0,0,41,199.916,0)">
                    <path d="M0.062,-0L0.194,-0L0.194,-0.153L0.261,-0.204L0.403,-0L0.566,-0L0.347,-0.3L0.54,-0.511L0.386,-0.511L0.194,-0.293L0.194,-0.779L0.062,-0.756L0.062,-0Z" style="fill:rgb(88,53,39);fill-rule:nonzero;"/>
                </g>
                <g transform="matrix(41,0,0,41,221.769,0)">
                    <path d="M0.001,-0.511L0.202,0.012C0.158,0.069 0.105,0.102 0.036,0.125L0.074,0.232C0.234,0.2 0.306,0.086 0.35,-0.031L0.535,-0.511L0.396,-0.511L0.321,-0.275L0.271,-0.113L0.221,-0.275L0.145,-0.511L0.001,-0.511ZM0.283,-0.775L0.191,-0.572L0.296,-0.572L0.42,-0.761L0.283,-0.775Z" style="fill:rgb(88,53,39);fill-rule:nonzero;"/>
                </g>
            </g>
        </g>
    </g>
</svg>
