<?xml version="1.0" encoding="UTF-8" standalone="no"?>
<!DOCTYPE svg PUBLIC "-//W3C//DTD SVG 1.1//EN" "http://www.w3.org/Graphics/SVG/1.1/DTD/svg11.dtd">
<svg width="100%" height="100%" viewBox="0 0 1248 407" version="1.1" xmlns="http://www.w3.org/2000/svg" xmlns:xlink="http://www.w3.org/1999/xlink" xml:space="preserve" xmlns:serif="http://www.serif.com/" style="fill-rule:evenodd;clip-rule:evenodd;stroke-linejoin:round;stroke-miterlimit:2;">
    <g id="Artboard1" transform="matrix(1,0,0,1.02173,0,0)">
        <rect x="0" y="0" width="1247.1" height="397.746" style="fill:none;"/>
        <g transform="matrix(1,0,0,0.978735,-51.3,-130.172)">
            <g>
                <path d="M618.8,402.8C604.7,389.3 597.7,371.6 597.7,349.8C597.7,328 604.7,310.3 618.8,296.8C632.9,283.3 650.8,276.5 672.6,276.5C694.4,276.5 712.3,283.3 726.3,296.8C740.3,310.3 747.3,328 747.3,349.8C747.3,371.6 740.3,389.3 726.3,402.8C712.3,416.3 694.4,423.1 672.6,423.1C650.8,423 632.9,416.3 618.8,402.8ZM654.5,320.5C650,327.6 647.7,337.4 647.7,349.8C647.7,362.2 650,372 654.5,379C659,386 665,389.5 672.6,389.5C680.2,389.5 686.2,385.9 690.6,378.8C695,371.7 697.2,362 697.2,349.7C697.2,337.3 695,327.5 690.6,320.4C686.2,313.3 680.2,309.7 672.6,309.7C665.1,309.8 659,313.3 654.5,320.5Z" style="fill:white;fill-rule:nonzero;"/>
                <path d="M760.8,350.3C760.8,327.6 768.1,309.6 782.7,296.4C797.3,283.2 815.2,276.5 836.5,276.5C852.7,276.5 868.6,280.5 884.1,288.4L881.4,336.5L845.7,344.6L844.3,312.2C834,311.7 825.7,314.6 819.4,321C813.1,327.4 809.9,337.2 809.9,350.3C809.9,375.2 820.2,387.6 840.7,387.6C850.4,387.6 863.3,384.5 879.4,378.4L886.2,411.7C867.8,419.3 850,423.1 832.7,423.1C812,423.1 794.8,416.9 781.2,404.4C767.6,392 760.8,373.9 760.8,350.3Z" style="fill:white;fill-rule:nonzero;"/>
                <path d="M905.7,419.8L905.7,284.6L953.3,276.5L954.4,294.1C971.3,282.4 987.4,276.5 1002.5,276.5C1014.6,276.5 1024.5,280.6 1032.2,288.8C1039.9,297 1043.8,308.7 1043.8,323.8L1043.8,419.8L995.1,419.8L995.1,331.4C995.1,319.9 989.8,314.1 979.2,314.1C971.6,314.1 963.3,317.2 954.3,323.3L954.3,419.8L905.7,419.8Z" style="fill:white;fill-rule:nonzero;"/>
                <path d="M1093.8,207.3L1143.3,211.9L1106.8,265.2L1069.8,265.2L1093.8,207.3ZM1070.6,419.8L1070.6,284.6L1119.3,276.5L1119.3,419.8L1070.6,419.8Z" style="fill:white;fill-rule:nonzero;"/>
                <path d="M1146.2,419.9L1146.2,216.5L1194.9,208.4L1194.9,327.9L1235.2,279.8L1291.4,279.8L1240,336.6L1298.4,419.9L1239.2,419.9L1208.7,371.5L1194.9,380.7L1194.9,419.9L1146.2,419.9Z" style="fill:white;fill-rule:nonzero;"/>
                <path d="M566.9,288.7C559.7,280.6 550.4,276.5 539.1,276.5C523.1,276.5 506.2,283.1 488.5,296.2C481.3,283 470.3,276.5 455.5,276.5C440.9,276.5 426,282.4 410.9,294.1L409.8,276.5L362.2,284.6L362.2,289.8C380.5,311.6 389.5,341 384.5,371.2C381.5,389.1 373.8,405.7 362.2,419.4L362.2,419.8L411,419.8L411,323.3C418.9,317.2 426,314.1 432.1,314.1C441.3,314.1 445.9,319.9 445.9,331.4L445.9,419.8L494.6,419.8L494.6,331.1C494.6,329.5 494.4,327 494.1,323.8C501.8,317.3 509.1,314.1 515.7,314.1C524.7,314.1 529.2,319.9 529.2,331.4L529.2,419.8L577.9,419.8L577.9,323.8C577.8,308.5 574.1,296.8 566.9,288.7Z" style="fill:white;fill-rule:nonzero;"/>
                <path d="M185.7,337.9C187.7,325.8 191.9,314.4 197.9,304C196.1,300.7 194,297.6 191.6,294.8C181.1,282.5 168.4,276.4 153.2,276.4C138.1,276.4 124.4,282.3 112.1,294L111,276.4L63.4,284.5L63.4,479.1L112.1,479.1L112.1,416.9C122.2,420.9 132.3,422.8 142.4,422.8C161.5,422.8 177.1,415.9 189.2,402C190.8,400.2 192.2,398.3 193.6,396.4C185.1,378.4 182.3,358.1 185.7,337.9ZM150,376.8C145.4,384.2 138.9,387.9 130.4,387.9C125.2,387.9 119,386.5 112,383.6L112,321.2C121,315.8 128.8,313.1 135.2,313.1C142.4,313.1 147.8,316.2 151.4,322.4C155,328.6 156.8,336.9 156.8,347.1C156.9,359.5 154.6,369.4 150,376.8Z" style="fill:white;fill-rule:nonzero;"/>
                <g>
                    <path d="M415.7,512.6C419,510.3 419.7,505.8 417.4,502.5L370.7,437.1C368.4,433.8 363.9,433.1 360.6,435.4L354.7,439.6L343,423.3C359.3,409.6 370.2,390.7 373.7,369.4C381.9,320.5 348.7,274.1 299.9,265.9C251,257.7 204.6,290.9 196.4,339.7C188.2,388.6 221.4,435 270.2,443.2C291.5,446.8 312.9,442.6 331.2,431.7L342.9,448L337,452.2C333.7,454.5 333,459 335.3,462.3L382,527.7C384.3,531 388.8,531.7 392.1,529.4L415.7,512.6ZM359.5,367C352.6,408.1 313.7,435.8 272.7,429C231.7,422.1 203.9,383.2 210.8,342.2C217.7,301.2 256.6,273.4 297.6,280.3C338.6,287 366.3,326 359.5,367ZM401.4,505L389.6,513.4L351.3,459.7L363.1,451.3L401.4,505Z" style="fill:white;fill-rule:nonzero;"/>
                </g>
                <path d="M51.3,142.6L74.5,142.6L95.2,206.2L102.6,230.6L110.1,206.2L130.8,142.6L153.1,142.6L114.5,247.7L90,247.7L51.3,142.6Z" style="fill:white;fill-rule:nonzero;"/>
                <path d="M192.2,202.1L192.2,196.8C192.2,188.8 188.5,184.4 181,184.4C175.1,184.4 167.1,186 156.4,190.6L153.7,176.5C164.5,172.7 174.9,170.3 185.4,170.3C202.7,170.3 211.7,179.6 211.7,198.9L211.7,225.2C211.7,232.3 214.8,234.5 222.2,234.5L220.1,248.6C205.7,250.4 198.5,246.7 194.9,238.2C188.1,245.2 178.5,249.4 170.2,249.4C157.9,249.4 148.7,241.7 148.7,228.8C148.9,212 164.9,204.3 192.2,202.1ZM176.7,235.6C182.5,235.6 189.3,231 192.2,228.3L192.2,212.6C175.5,214.5 168.2,219.4 168.2,227.3C168.1,232.6 171.1,235.6 176.7,235.6ZM206,135.1L187.6,163.1L172.1,163.1L185.7,133.1L206,135.1Z" style="fill:white;fill-rule:nonzero;"/>
                <path d="M232.4,173.7L251.3,170.3L251.9,180.4C260.2,174 269.8,170.3 278.4,170.3C291.1,170.3 301.5,178.6 301.5,196.6L301.5,247.7L282,247.7L282,199C282,189.2 277.1,185.7 270.2,185.7C264.7,185.7 257.8,188.5 252,193L252,247.8L232.5,247.8L232.5,173.7L232.4,173.7Z" style="fill:white;fill-rule:nonzero;"/>
                <path d="M353.7,170.3C376.1,170.3 392.5,186.3 392.5,210C392.5,233.7 376.1,249.5 353.7,249.5C331.2,249.5 314.8,233.7 314.8,210C314.8,186.3 331.2,170.3 353.7,170.3ZM353.7,235.6C364.7,235.6 372.4,225.4 372.4,210C372.4,194.5 364.7,184.2 353.7,184.2C342.6,184.2 334.9,194.4 334.9,210C334.9,225.4 342.6,235.6 353.7,235.6Z" style="fill:white;fill-rule:nonzero;"/>
                <path d="M442,170.3C449.5,170.3 458,172.1 465.8,175.8L464.3,200.5L449.6,203.6L449,185.5C433.6,183 421.5,191.1 421.5,210.7C421.5,228 429.8,234.7 441.8,234.7C448.3,234.7 455.9,232.8 463.9,229.5L466.9,243.4C457.1,247.5 448,249.5 439.7,249.5C419,249.5 401.8,237.1 401.8,210.7C401.7,185 419.6,170.3 442,170.3ZM412.6,135.1L426.7,133L438.8,150.2L451,133L464.5,135.1L447.5,163.1L429.7,163.1L412.6,135.1Z" style="fill:white;fill-rule:nonzero;"/>
                <path d="M479.8,173.7L498.7,170.3L499.3,180.4C507.6,174 517.2,170.3 525.8,170.3C538.5,170.3 548.9,178.6 548.9,196.6L548.9,247.7L529.4,247.7L529.4,199C529.4,189.2 524.5,185.7 517.6,185.7C512.1,185.7 505.2,188.5 499.4,193L499.4,247.8L479.9,247.8L479.9,173.7L479.8,173.7Z" style="fill:white;fill-rule:nonzero;"/>
                <path d="M600.3,135.1L582,163L566.5,163L580.1,133L600.3,135.1ZM566.9,173.7L586.4,170.3L586.4,247.7L566.9,247.7L566.9,173.7Z" style="fill:white;fill-rule:nonzero;"/>
            </g>
        </g>
    </g>
</svg>
