<?xml version="1.0" encoding="utf-8"?>
<!-- Generator: Adobe Illustrator 27.9.0, SVG Export Plug-In . SVG Version: 6.00 Build 0)  -->
<svg version="1.1" id="Layer_1" xmlns="http://www.w3.org/2000/svg" xmlns:xlink="http://www.w3.org/1999/xlink" x="0px" y="0px"
	 viewBox="0 0 1366 768" style="enable-background:new 0 0 1366 768;" xml:space="preserve">
<style type="text/css">
	.st0{fill:#FFFFFF;}
</style>
<g>
	<g>
		<path class="st0" d="M980.5,564c1,0.6,21,0.8,21.7,0.2c0.4-0.3,0.7-1.6,0.7-2.7c0-2.5,2.9-15.8,8.7-39.6
			c1.6-6.8,3.3-13.8,3.7-15.5c3.4-14.9,11-39.2,13.7-43.8c1.8-3.1,1.8-5,0.1-6.6c-0.9-0.9-1.3-1.7-1.1-2.6c0.2-1.1-0.1-1.6-2.1-2.6
			c-1.3-0.7-4.1-2.2-6.1-3.5c-4.1-2.5-4-2.5-4.5-1.7c-0.2,0.3-1,0.4-1.8,0.2c-1.9-0.5-4.7,2.2-7.3,7c-3.8,7-11.6,32.3-16.7,54.2
			c-1.1,4.6-2.7,11.4-3.6,15.2c-3,12.3-5.7,25.1-6.5,31.7c-0.5,3.6-0.5,5.3,0.1,7.3C979.8,562.6,980.3,563.8,980.5,564z"/>
		<path class="st0" d="M1146.3,561.7c12-3.3,25.6-12.1,42.3-27.4l7-6.4l-4.4-4.5c-2.4-2.5-6.4-6.3-8.9-8.5l-4.4-4l-6,5.4
			c-15.1,13.6-26.1,20.5-33.9,21.4c-7.4,0.9-16.5-2.6-22.4-8.5c-2.9-2.9-6.6-7.6-6.6-8.3c0-0.2,1.6-0.9,3.6-1.4
			c9.8-2.9,22.3-10.3,30-17.8c7.4-7.3,14.3-18.9,16.7-28.5c2.2-8.5,0.6-17.9-4-23.5c-5.1-6.2-10.9-8.7-20.2-8.6
			c-6.1,0.1-10.6,1.1-19.8,4.7c-6.8,2.6-19.7,10.3-24.2,14.4c-1.3,1.2-1.6,1.3-1.6,0.5c0-0.5,0.2-1.5,0.6-2.3
			c0.3-0.7,2.1-5.4,4.1-10.5c8.9-23.3,19.1-44,23.3-47.3c0.8-0.6,1.4-1.4,1.4-1.9c0-0.5,0.7-1.4,1.5-2.2c1.8-1.7,1.6-4-0.8-6.5
			c-0.9-1-2-2.4-2.5-3.2c-1.1-1.8-10.5-7.5-12.4-7.5c-0.8,0-2.2,0.9-3.6,2.3c-2.9,3-8,10.7-13,19.8c-2.2,4.1-4.4,8-4.7,8.6
			c-5.1,9-21.1,50.7-26.8,70c-1.7,5.8-8.2,30.9-8.9,34.4c-0.3,1.3-1.1,5.3-1.9,9c-0.8,3.7-2,10.2-2.6,14.3c-0.6,4.2-1.4,8.5-1.6,9.6
			c-0.7,3.1,0.2,5.5,2.3,6.3c1,0.3,2.5,0.6,3.4,0.6c1.7,0,8.4,2,12.1,3.7c2,0.9,2.2,0.9,3.5-0.4c1.6-1.5,3-5.7,5.3-15.6
			c1.6-7.2,5.9-19.6,8.6-24.9l1.6-3.2l0.9,3.8c1.1,4.5,7.2,15.9,11.7,21.9c4.1,5.5,7.5,8.9,12.6,12.6c8.2,6.1,14.7,8.9,24.2,10.5
			C1131.6,563,1142.9,562.6,1146.3,561.7z M1092.8,497.9l-5.5,0.1l1.7-2.2c3.4-4.3,10.4-11.4,15.4-15.6c9.7-8.1,23.3-15.1,29.9-15.2
			c1.5,0,1.5,0,1,2.4c-0.7,3.3-4.6,10.5-7.4,13.9C1120.3,490.6,1105.5,497.6,1092.8,497.9z"/>
		<path class="st0" d="M1073.1,388.8c1.2-1.4,2.8-2.7,3.5-2.9s1.5-0.9,1.8-1.6c0.3-0.7,1.1-1.8,1.7-2.4s0.9-1.2,0.8-1.3
			c-0.1-0.1-3.1-2.9-6.7-6.3c-3.6-3.4-6.7-6.2-7.1-6.2s-1.5-0.6-2.5-1.4c-1-0.8-2-1.4-2.2-1.4c-0.2,0-3.2,3.1-6.8,6.9
			c-5.5,5.9-14.2,13.7-15.2,13.7c-0.2,0-1.6,1-3.2,2.3c-1.6,1.3-5.1,3.7-7.9,5.5c-2.7,1.8-6.7,4.4-8.8,5.7c-2.1,1.4-4.1,2.5-4.4,2.5
			c-0.3,0-2.2,1.1-4.3,2.4c-4.4,2.9-8,6.9-7.5,8.3c0.2,0.5,1.9,2.7,3.7,4.8c1.9,2.1,4.1,5.2,4.9,6.9c1.2,2.4,1.9,3.2,3.4,3.6
			c1.5,0.4,2.2,0.3,3.4-0.6c0.9-0.6,2.8-1.7,4.4-2.4c2.9-1.3,4.2-2,14.3-8.6C1055.3,405.8,1065.2,397.9,1073.1,388.8z"/>
		<path class="st0" d="M762.4,520.9c0.4,8.2,1.4,15.6,2.2,16.4c0.2,0.2,0.4,1,0.4,1.6c0,2,4,9.3,6.7,12.4c9.9,11,24.9,11.8,42,2
			c8.6-4.9,10.9-6.5,27.6-19.6c1.4-1.1,5.9-5.1,9.9-8.9c4-3.8,7.5-6.8,7.6-6.6c0.2,0.2-0.3,3-1.1,6.2c-2.9,12-3.2,15-2.4,21.8
			c0.5,4.4,0.5,4.5,3.8,7.9c1.8,1.9,3.8,3.5,4.4,3.5c0.6,0,2.2,0.4,3.6,0.9c1.6,0.6,3.2,0.7,4.6,0.5c2-0.4,6.2-2.4,8.1-3.9
			c1-0.8,6.3-8,10.2-13.8c10.9-16.5,16.5-23.5,27.5-34.4c8.4-8.3,21.1-19.3,22.3-19.3c0.1,0-0.6,2.6-1.7,5.9
			c-2.2,6.6-3.9,12.4-5.4,18.8c-1.2,5.2-2.5,10.4-4,15.8c-1.1,4.2-3.2,13.9-4.1,19.2c-0.7,4,0.3,10.8,1.7,12.4
			c0.6,0.6,1.2,1.7,1.4,2.4c0.6,2,1.7,2,7.3,0.1c4.3-1.4,5.9-1.7,8.3-1.4c3.6,0.4,5.3,0,5.3-1.4c0-0.6,0.4-1.4,0.9-1.7
			c0.6-0.5,0.8-1.4,0.5-3.7c-0.4-3.6,1.5-13.1,6.2-30c0.6-2.3,1.6-6.3,2.2-8.9c0.6-2.6,1.8-6.7,2.5-9.1c0.8-2.4,1.8-5.5,2.2-6.9
			c1.1-3.3,3.9-11.1,5.8-16.3c4.5-12.1,6.1-17.5,6.1-21.7c0.1-5.2-1.3-9.4-3.3-9.9c-0.7-0.2-1.4-0.8-1.6-1.3
			c-0.1-0.6-1.4-1.6-2.8-2.3c-2.2-1.1-3.3-1.3-7.1-1.1c-4.1,0.2-4.9,0.4-8.5,2.7c-2.2,1.4-5.1,3.1-6.4,3.9
			c-3.2,1.8-15.3,10.1-18.5,12.8c-1.4,1.2-3.4,2.6-4.3,3.2c-3.6,2.2-16,13.1-24.2,21.2l-5.3,5.2l3.7-10.6
			c4.5-12.9,7.3-20.3,9.5-25.3c1.9-4.3,2.1-6.8,0.7-8.1c-0.6-0.5-2.8-1.6-5-2.5c-4.1-1.6-8.6-4.1-11.1-6.1c-0.8-0.6-1.7-1.1-2.1-1.1
			c-1.5,0-4.2,3.2-6.7,8c-8.9,17.5-36.3,47.9-60.4,66.8c-11.3,8.9-12.6,9.8-16.8,12.3c-9.2,5.4-12.6,6.3-14.1,4
			c-2.1-3.4-3-17.4-1.5-25.1c3-15.3,7.8-26.3,15-34.1c2.8-3,7.5-6,9.5-6c0.9,0,0.9,3.9,0.1,9.2c-1.2,7.6-1.2,8.9-0.6,11.2
			c1.1,4.1,1,4,9.1,4c4,0,8.4,0.2,9.6,0.5c1.6,0.3,2.6,0.2,3.4-0.4c1-0.8,1.2-1.3,3.2-14.5c2-12.6-0.4-23-6.6-28.9
			c-7.8-7.5-21.1-8.6-33.2-2.8c-5.7,2.8-8.7,5.2-17.2,14.2c-0.6,0.6-1.5,1.1-2.1,1.1s-1.4,0.7-1.9,1.5c-0.6,1.1-3.5,2.8-11.7,6.8
			c-12.6,6.1-21.1,10-21.7,10c0,0-0.1-2.8-0.2-6.2c-0.2-9.3-1.7-16.3-4.4-20.1c-0.8-1.2-1.5-2.5-1.5-2.8c0-1.2-6.6-6.3-10.9-8.5
			c-3.9-2-4.8-2.2-9.8-2.4c-4.1-0.1-6.4,0.1-9.3,0.9c-5.1,1.4-8.6,3.5-13.4,8.2c-2.4,2.4-4.5,3.9-5.2,3.9c-0.7,0-1.9,0.5-2.7,1.1
			c-0.8,0.6-1.7,1.1-1.9,1.1c-1.3,0-7,5.2-10.5,9.6c-11.4,14.2-21.8,45.2-21.8,65c0,5.6,1.3,15.3,2.2,17.1c0.4,0.7,0.6,1.7,0.6,2.3
			c0,0.6,1,2.6,2.3,4.4c1.3,1.8,2.3,3.5,2.3,3.8c0,1.5,7.4,6.9,11.4,8.3c2.5,0.9,4.1,1,8.7,0.8c5.3-0.3,6-0.5,11-3
			c7.6-3.9,9.7-5.5,16.8-12.7c9.8-9.9,16.1-19,23.3-33.2c1.6-3.2,3.2-6,3.6-6.4c0.4-0.3,3.1-1.5,6.1-2.5c3-1,7.6-2.8,10.3-4
			c2.7-1.2,6.5-2.8,8.5-3.7c2-0.9,3.8-1.4,3.9-1.3c0.2,0.2-0.2,3.2-0.7,6.7C762.2,511.2,762.1,514.3,762.4,520.9z M704.8,512.9
			c-4.8,9.4-16.2,22.8-22.4,26.1l-2.8,1.5L679,538c-0.9-3.5-0.3-16.1,1.1-22.8c1.9-8.6,6.7-23.2,7.5-22.7c0.2,0.1,1.1,1.7,2.1,3.5
			c2.5,4.8,8.3,10.2,14.2,13.2c1,0.5,1.9,1,2,1.1C706,510.4,705.5,511.6,704.8,512.9z M717.7,482.1c-0.6,2.4-1.3,4.4-1.6,4.4
			c-1.6,0-3.9-2-5.1-4.4c-2.4-5-1.3-13.5,2.2-16.2c2-1.5,3.7-1.2,4.7,0.9C719.1,469.1,719,476.8,717.7,482.1z"/>
		<path class="st0" d="M634.3,507.6c4.3-18.7,6.5-27.3,9.3-36.1c1.5-4.8,1.8-6.5,1.7-10.6c-0.2-8-2.7-11.8-8.2-12.4
			c-1.7-0.2-3.5-0.7-4.1-1.2c-1.5-1.3-6.1-0.4-8.2,1.5c-0.9,0.8-3.1,2.6-4.9,3.9s-7.6,7-13,12.6c-13.5,14.1-20.6,22.3-32.1,37.2
			c-3,3.9-3,4.2-0.8-5.2c6.3-27.3,7-33.4,4.5-39.5c-0.7-1.6-2.2-4-3.5-5.3c-1.8-1.9-3-2.6-6-3.3c-2.1-0.5-4.5-0.8-5.5-0.6
			c-4.5,0.9-9.7,3.1-10.5,4.4c-0.3,0.4-1.5,1.5-2.8,2.4c-3.7,2.7-17.3,16.7-23.5,24.1c-6.6,7.9-10.2,12.5-14.5,18.6
			c-1.7,2.4-3,4.1-3,3.9c0-0.4,2.1-10,4-18.7c0.7-2.9,2-8.4,2.9-12c4.2-16.4,5-21.5,3.8-25c-1-2.8-1.4-3.5-4.3-6.4
			c-1.5-1.6-2.3-1.9-4.3-1.9c-1.3,0-2.8-0.4-3.3-0.8c-0.8-0.7-1.4-0.7-4.3,0.1c-3.5,0.9-7,3.4-12.2,8.6c-6,5.9-23.4,20.8-24.4,20.8
			c-0.2,0-0.5-1.2-0.7-2.7c-0.4-3.2-0.5-3.4-3.7-10.2c-4.6-9.7-13.2-16.6-23.8-19.4c-3.9-1-11.2-1.1-14.3-0.1
			c-1.6,0.5-3.9,1.1-5.2,1.5c-5.4,1.6-10.4,5.2-15.1,11c-3.7,4.6-6,9.7-7,16.1c-0.4,2.2-1.5,6.1-2.6,8.6c-1.1,2.5-2.1,5.2-2.3,6
			s-0.8,2.3-1.2,3.3c-0.8,1.8-2.1,6.2-5,16.8c-0.8,3-2.2,9.2-3.1,13.8c-1.4,7.3-1.6,9.7-1.6,20.1c0,9.6,0.2,12.6,1.1,16.3
			c1.1,4.6,5.1,13.5,6.1,13.5c0.3,0,0.5,0.4,0.5,0.8c0,2.2,8.6,7.3,13.9,8.3c3.3,0.6,4.5,0.6,8.9-0.3c12.5-2.4,21.2-9.7,35.3-29.5
			c5.4-7.6,13.5-25.7,17.1-37.8c0.7-2.4,1.4-4.7,1.7-5.1c0.2-0.5,2.1-1.8,4.3-2.9c2.1-1.1,6.7-4.2,10.1-6.7c4.7-3.5,6.3-4.4,6.3-3.7
			c0,0.6-0.5,3.4-1.2,6.4c-0.7,3-1.4,7-1.7,8.8c-0.3,1.9-0.8,4.7-1.1,6.3c-1.8,8.6-6,40.7-5.4,41.7c0.2,0.3,0.4,1.8,0.3,3.4
			c0,1.8,0.2,3,0.8,3.4c0.5,0.4,0.8,1.4,0.8,2.3c0,1.4,2.2,4,3.4,4c0.3,0,0.9,0.5,1.5,1.1c3.3,3.7,10.1,4.2,15,1.3
			c4.3-2.7,7.4-7.1,17.2-24.8c3.9-7.1,15.7-25.3,18.6-28.7c0.6-0.8,2.8-3.4,4.8-5.9c9.2-11.6,10.1-12.6,9.1-9.9
			c-0.3,0.7-0.8,3.4-1.2,5.9c-0.4,2.5-1.1,7-1.7,10c-3.7,18.8-4.9,31.6-3.9,40.6c0.1,1,1,2.9,2,4.1c1,1.2,1.8,2.8,1.8,3.4
			c0,0.7,0.7,1.4,1.9,1.8c1,0.4,2.4,1.2,3.1,1.8c1,0.9,2.1,1.1,5.2,1.1c4.6,0,7.9-1.3,11.4-4.5c2.2-2,10.9-14.7,13.2-19.1
			c0.6-1.1,2.7-4.5,4.8-7.5c2.1-3,4.3-6.2,4.9-7.2c6.9-10.1,19.2-25.8,19.7-25.3c0.1,0.1-0.2,1.9-0.7,3.9
			c-0.9,3.7-3.6,17.9-5.2,27.2c-1.1,6.7-2.1,16.4-2.3,23.1c-0.1,5,0,5.5,1.8,9.4c1.8,3.8,5.1,8,6.3,8c0.9,0,18.8-9.2,19.2-9.8
			c0.5-0.8,0-2.6-1.3-4.9c-1-1.6-1-2.3-0.5-7.2C628.8,536,631.7,519.2,634.3,507.6z M433.7,513.9c-5.3,11.3-12.8,22-19.1,27.3
			c-4.1,3.4-5.7,4.3-6.3,3.3c-2.1-3.3-2.1-17.7-0.1-28.6c1-5.6,3.9-17.5,4.5-18.5c0.1-0.2,1.3,0.3,2.6,1.2c1.3,0.9,3.4,2.2,4.7,2.8
			c2.8,1.4,10.7,3,14.7,3C438.3,504.4,438.3,504.1,433.7,513.9z M443.3,479.2l-5,0c-2.8,0-6-0.3-7.2-0.6c-2.3-0.6-7.8-5.5-7.8-7
			c0-0.4,0.9-1.8,2-3.1c1.1-1.3,2-3,2-3.8c0-0.8,0.4-1.6,0.9-1.8c0.6-0.2,0.9-0.9,0.8-1.9c-0.1-0.9-0.1-1.8,0-2
			c0.1-0.9,4.4-0.4,6.8,0.8c1.4,0.7,3.1,2.1,3.9,3.3c2,2.9,3.7,8.8,3.7,12.8V479.2z"/>
		<path class="st0" d="M314.5,448.7c-0.9-0.7-3-2.4-4.6-3.9c-3.3-3-6.5-4-8.5-2.4c-0.6,0.5-1.6,0.8-2.2,0.8c-2.1,0-5.3,3.2-7.4,7.5
			c-1.8,3.7-5.3,13.7-6.9,20.3c-0.3,1.3-1.2,4.4-2,7c-0.8,2.6-2.3,9.4-3.4,15.1c-1.1,5.7-2.1,10.6-2.3,10.9
			c-0.2,0.2-0.7,3.2-1.1,6.6c-0.5,3.4-1,6.4-1.2,6.6c-0.2,0.3-0.5,2.1-0.8,4.1c-0.3,2-1,7-1.7,11.1c-1.2,7.7-2.7,17.7-3.5,24.7
			c-3.8,30.7-6.1,53.9-6.2,61.7c-0.1,5.9,0,6.9,1.3,9.2c1.1,2.2,1.7,2.6,3.3,2.8c1.1,0.1,3.5-0.2,5.3-0.8c2.6-0.7,4.5-0.9,7.8-0.6
			c3.7,0.3,4.6,0.2,5.4-0.6c1.3-1.3,1.3-1.5,2.4-16.4c1.5-19.9,2.6-28,5.8-39.7c3.3-12.2,2.3-10.9,8.1-12
			c13.8-2.7,33.4-13.5,45.1-24.8c4.3-4.1,13.8-15.2,15.3-17.6c0.8-1.3,2.5-4,3.8-5.9c5.1-7.4,9.8-18.2,11.9-27.5
			c2.1-9.4,1.7-15.8-1.6-23c-2.6-5.7-5.4-8.6-10.9-11.2c-4.2-2-5-2.2-9.2-2.2c-11.7,0.1-21.4,5.2-33.7,17.6
			c-8,8.2-10.5,11-13.1,14.9c-1.1,1.6-2.1,2.9-2.1,2.8c-0.2-0.2,2.9-12.2,4.4-16.9c0.6-2,1.8-4.3,2.5-5.2c1.7-1.8,2.3-5.6,1.3-7.6
			c-0.5-1-0.5-1.7-0.1-2.7C316.1,450,316,449.7,314.5,448.7z M318.9,510.4c1.7-2.8,5.2-8.1,7.9-11.9c6.1-8.6,18.2-20.9,23.3-23.6
			c1.9-1,3.6-1.9,3.9-1.9c0.2,0,0.4,0.8,0.4,1.8c0,3.6-2.4,12-4.8,16.7c-5.2,10.1-14,21.5-22.2,28.7c-5.5,4.8-18.9,13.2-19.7,12.4
			C307.2,532.1,315.4,516.2,318.9,510.4z"/>
	</g>
	<g>
		<path class="st0" d="M231.4,276.9c1.7-3.4,3.2-6.4,3.2-6.6s0.6-1.4,1.3-2.7c0.7-1.3,1.8-3.6,2.5-5.2c1.6-3.6,7.5-15.2,9.9-19.5
			c1-1.8,2.1-4,2.3-4.7c0.3-0.8,1.5-3.1,2.7-5.1c1.2-2.1,2.9-5.3,3.8-7.3c0.9-2,2.3-4.8,3.3-6.3s1.7-2.9,1.7-3.2
			c0-0.3,1.9-3.8,4.2-7.9c2.3-4.1,4.2-7.6,4.2-7.7c0-0.5,7-13,14.6-26.1c4-7,7.4-13.3,7.4-14c0.1-1.1-2.4-3.8-3.5-3.8
			c-0.2,0-3.3-2-6.8-4.4c-3.5-2.4-6.7-4.4-7.1-4.4c-0.4,0-1.1,0.4-1.6,0.9c-3.2,3.3-9,12.2-16.3,25c-4.6,8.1-9,16.1-9.8,17.8
			c-0.8,1.7-2,3.8-2.6,4.8c-0.7,0.9-2,3.4-3.1,5.6c-1.9,3.9-6.6,13-12.1,23.7c-7,13.5-17.5,34.6-23.2,46.7c-1.8,3.8-3.5,7.3-3.8,7.7
			c-2.1,3.2,0.9-69.5,3.7-90.4c2.1-16.1,2.1-15.4,0.3-16.6c-1.2-0.8-1.5-1.3-1.3-2.3c0.3-1.1,0.1-1.3-2.6-1.7
			c-1.6-0.3-5.4-0.9-8.4-1.4c-6.3-1.1-6.8-0.9-8.9,3.9c-2.6,6-3.7,14-5.9,44.1c-2.7,37.6-3.1,69.6-1.1,89.3c0.2,1.9,0.6,6.3,0.9,9.8
			c0.3,3.5,0.8,6.8,1,7.4c0.3,0.5,0.4,1.4,0.4,1.9c-0.1,1.5,5.3,8.7,6.6,8.8c0.6,0,1.6,0.5,2.2,1s1.4,0.8,1.8,0.6
			c0.4-0.1,0.9,0,1.1,0.4c0.4,0.8,4.5,0.5,7-0.6c6-2.6,8.8-6.4,14.5-19.9C217.5,305.9,226.9,285.7,231.4,276.9z"/>
		<path class="st0" d="M1029.6,314.9c0.9-1.2,1-1.9,0.5-4.5c-0.4-2.1-0.4-5,0-9.1c0.6-6.4,0.4-7.6-1.7-7.6c-0.6,0-1.2-0.3-1.4-0.6
			c-0.7-1.1-10.9-0.2-15.7,1.5c-16.1,5.5-19.9,6.8-25.2,8.9c-3.3,1.3-6.1,2.2-6.3,2.1c-0.1-0.1,0.3-1.9,1-3.8c0.7-2,1.9-5.5,2.7-7.9
			c0.8-2.4,2-6.4,2.9-8.9c3.6-11.2,4.8-15.1,5.3-17.2c0.3-1.3,1.2-4.9,2.1-8c3-11.2,6.6-28.3,6.6-31.1c0-1.8-0.5-3.8-1.6-5.9
			c-1.4-2.8-1.8-3.2-4.1-3.9c-1.4-0.4-3.6-1.2-4.9-1.8c-3.6-1.6-6.2-2-7.1-0.9c-0.4,0.5-1.1,0.9-1.5,0.9c-0.9,0-8.2,7.6-12.6,13.2
			c-10.3,13-25,28.1-39,40l-5.1,4.4l0.4-3.7c0.2-2,1.2-6.8,2.1-10.6c1.7-6.8,7.1-22.9,8-24.1c0.3-0.3,0.6-2.2,0.9-4.2
			c0.3-2.7,0.2-3.9-0.4-4.6c-0.4-0.5-1.1-2-1.5-3.4c-0.7-2.3-0.8-2.4-2.8-2.4c-1.2,0-2.9,0.2-3.9,0.5c-1.6,0.5-2,0.3-4-1.7
			c-2.5-2.5-2.8-2.6-5.3-1.4c-2.5,1.3-7.6,6.5-7.6,7.8c0,0.6-3.4,5.4-12.7,18.2c-12.2,16.7-30.5,39.2-37.3,45.6
			c-3.5,3.3-6.9,6-7.6,6c-0.2,0-0.3-1.8-0.3-4.1c0-6.6,2.9-19.2,8.5-37.5c3-9.7,4.2-15.7,4-19.8c-0.6-10.4-9.4-17.2-19.1-14.6
			c-6.9,1.8-13.3,6.4-25.5,18.2c-6.7,6.6-7.8,7.7-17.2,18.7c-3,3.5-5.5,6.4-5.5,6.4c-0.2,0,1.4-6.2,3.2-12.3c1-3.5,2.5-8.4,3.1-10.9
			c0.7-2.5,2.2-7.1,3.4-10.2c2.7-7.2,2.7-9.7,0.3-11.2c-1-0.6-2.8-1.2-4.2-1.4c-1.3-0.2-4.9-1.6-8-3c-7.2-3.4-7.9-3.2-10.9,3.1
			c-2,4.3-9.8,16.8-13.7,22.1c-1.1,1.4-2.7,3.7-3.6,5c-3.9,5.6-14.5,19.4-18,23.7c-15.3,18.3-33.9,36.5-44.4,43.5
			c-5.4,3.6-8.3,4.7-11,4.4c-4.5-0.5-6.8-14.3-4.5-27.8c3.3-20,12.5-36.2,24.9-43.8l3.7-2.3l0.4,1.6c0.2,0.9,0.4,5.3,0.3,9.9
			c-0.1,12.2,0.6,13.5,7.3,12.5c1.6-0.2,5.6-0.5,9-0.5c4.3,0,6.3-0.3,6.8-0.8c1-1.2,1.9-18.7,1.1-23.2c-0.3-2.1-0.7-4.3-0.8-5
			c-0.6-4.1-6.1-13.1-8.8-14.6c-0.8-0.4-2-1.2-2.7-1.8c-3.4-2.9-14-4-19.8-2.1c-5.3,1.8-13.8,6.9-19.6,11.9
			c-2.8,2.4-3.4,2.7-4.4,2.2c-1.7-0.9-2.1-0.8-4.3,1.1c-1.1,1-3.1,2.3-4.5,3.1c-1.4,0.7-4.9,2.8-7.9,4.6c-5.8,3.4-16.7,9.1-18.6,9.7
			c-1.1,0.3-1.1,0.1-1-7c0.1-4.5-0.2-8.6-0.6-10.5c-1.1-4.5-4.2-11.5-5.8-13c-0.7-0.7-1.7-1.8-2.1-2.3c-1-1.3-7.9-5.9-9-5.9
			c-0.4,0-1.6-0.4-2.6-0.8c-2.2-1-8.3-1.4-11.8-0.9c-5.9,0.9-7.3,1.3-10,2.6c-4.3,2-10,6.9-13.4,11.5c-2.8,3.8-3.2,4.1-4.4,3.6
			c-4.1-1.9-14,10.5-19.7,24.8c-4.7,11.6-7.4,21.9-9.2,34.4c-0.7,4.7-0.8,20.3-0.2,24.2c0.9,6.3,3.3,13.3,5.7,16.6
			c1.1,1.5,2,3,2,3.3c0,0.3,1.4,1.7,3,3.1c5.4,4.6,8.2,5.6,15.1,5.6c5.3,0,8.9-0.9,14.5-3.7c3.1-1.5,10.1-7.4,13.4-11.3
			c1.4-1.6,3.1-3.7,3.9-4.5c0.7-0.8,3.3-4.5,5.7-8.1s4.8-7.3,5.4-8.2c0.6-0.9,3.3-6,6-11.5c3.1-6.3,5.3-10.2,6.2-10.6
			c0.7-0.4,5.3-2.4,10.2-4.4c4.9-2,9.9-4.2,11.1-4.9c1.2-0.6,2.3-1.1,2.5-1c0.1,0.1,0,1.3-0.3,2.7c-2.2,10-3.6,21.1-3.2,26.6
			c0.4,6.6,1.4,12.9,2.6,16.1c0.7,1.9,1.5,4.2,1.8,5.3c0.8,2.7,4.3,7.9,7.6,11.4c8.1,8.6,23,10.1,36.2,3.6
			c12.7-6.3,26.8-18.6,46.3-40.3c4.4-5,8.2-9,8.2-8.9c0.1,0.1-0.3,2.5-0.9,5.4c-1.9,9.7-3,16.5-3.2,20.9c-0.2,3.8,0,4.8,1,6.6
			c0.7,1.2,1.4,2.3,1.6,2.4c0.2,0.2,0.5,0.7,0.7,1.3c0.2,0.6,1,1.3,1.8,1.5c0.8,0.3,1.7,1.1,2,1.7c1,1.9,2.6,2.5,5.2,1.8
			c1.7-0.4,2.6-0.4,3.5,0c0.9,0.5,1.7,0.4,3.7-0.5c3.9-1.8,6.6-5.3,14.9-19.6c4-6.8,13.1-20.3,17.7-26.4c8-10.5,19.2-23.7,19.7-23.3
			c0.1,0.1-0.7,3.9-1.8,8.5c-2.5,10.4-3.2,14.5-3.6,23.2c-0.2,5.4-0.1,7.7,0.6,10.3c0.5,1.9,1,4.1,1.1,5c0.3,1.8,3.7,7.5,5.7,9.5
			c5.4,5.1,14.6,7,22,4.6c3.2-1.1,9.4-4.5,12.7-7.1c6-4.6,16-15.2,26-27.7l3.4-4.3l0.4,2.3c0.9,5.7,1.3,7,2.6,8.8
			c0.7,1.1,1.3,2.3,1.3,2.6c0,0.3,0.5,1,1.1,1.5c0.6,0.5,1.2,1.2,1.3,1.4c0.6,1.5,5.8,4.1,9.4,4.7c7.6,1.3,15-1.8,24.9-10.6
			c1.8-1.6,4.8-4.2,6.7-5.7c1.9-1.6,6.2-5.5,9.6-8.8c3.4-3.3,6.3-5.8,6.5-5.7c0.2,0.2-0.1,1.4-0.6,2.8c-1.8,5.1-5,14.1-6.3,18.3
			c-1.3,4.2-3.6,10-5.2,13.5c-0.4,0.9-1.5,3.6-2.3,5.9c-0.9,2.3-2,4.5-2.5,5c-0.5,0.4-3.7,2-7.1,3.5c-18,7.7-47.5,24.4-64.6,36.6
			c-14.6,10.4-29.2,24.4-35.8,34.2c-4.8,7.2-6.2,10.3-8.1,17.5c-1.4,5.2-1.5,6-0.9,10.2c0.6,4.6,2.5,9.1,4.7,11.6
			c5.1,5.5,8.7,7.6,16,9.3c6.2,1.4,14.9,0.6,21.5-2c1.6-0.6,4.6-1.8,6.7-2.6c2.1-0.8,5.1-2.2,6.6-3.2c1.5-0.9,3.7-2.2,5-2.9
			c3.4-1.8,8.2-5.5,18.1-13.8c5.6-4.7,18.3-18,23.8-25c12.6-15.8,23.2-32.3,30.7-47.8l3.2-6.6l3.3-1.5c1.8-0.8,6.4-2.7,10.2-4.1
			c3.8-1.5,7.8-3,8.9-3.5c6.5-2.5,22.6-8.3,31.3-11.2c0.9-0.3,3.4-0.8,5.4-1C1027.9,316.4,1028.8,316,1029.6,314.9z M609.4,289.7
			c-3.7,6.3-7.5,12.1-11.1,16.6c-3.1,3.9-8.3,8.6-9.5,8.6c-2.3,0-3.2-19.8-1.3-29c2.6-12.3,3.8-16.7,4.4-16c0.2,0.3,1.1,1.5,2,2.6
			c0.9,1.2,3.2,3.5,5.1,5c2,1.6,3.9,3.1,4.3,3.5c0.9,0.8,5.8,2.8,6.6,2.8c0.4,0,1,0.2,1.5,0.5C612,284.8,611.7,285.9,609.4,289.7z
			 M623.2,257.7c-1,3.3-1,3.4-2.8,3c-1-0.2-2.7-0.8-3.8-1.4c-3.8-1.9-5.6-8.5-3.8-14.5c1.8-6.2,7.7-10.7,10.9-8.4
			C626.1,238.2,625.9,248.6,623.2,257.7z M926,356.9c-5,8.2-17.7,24.2-26.3,33.1c-14.8,15.2-31.5,26.1-41.5,26.9
			c-3.6,0.3-3.6,0.3-3.2-1.1c1.7-5.4,6.3-11.7,14.6-20.1c7.1-7.1,11.3-10.6,24.2-19.8c7.4-5.3,18.2-11.9,30.6-18.7
			C926.5,356,926.5,356,926,356.9z"/>
		<path class="st0" d="M304.5,201.7c0,1.1,1.6,2.2,3.4,2.2c0.7,0,1.8,0.6,2.5,1.3c1,1,2,1.3,4.4,1.4c1.7,0.1,3.7-0.1,4.3-0.4
			c0.6-0.3,1.8-0.6,2.6-0.8c2.2-0.5,6-4.4,7.9-8.2c1.2-2.3,1.8-4.7,2.2-7.8c0.5-4.5,0.4-4.9-1.8-10.9c-0.2-0.6-0.5-1.4-0.6-1.9
			c-0.2-0.5-0.7-1-1.3-1.2c-0.6-0.2-1.5-0.8-2.2-1.3c-0.6-0.5-2.2-1.1-3.6-1.3c-1.3-0.2-3.2-0.7-4.2-1.2c-2.3-1.1-2.8-1.1-4.3-0.1
			c-0.6,0.4-1.8,0.9-2.5,1c-1.5,0.2-7.2,7.6-7.8,10.2c-0.2,0.8-0.7,1.8-1.1,2.3c-1.4,1.7-1.5,6.3-0.2,10.6c0.7,2.2,1.5,4.3,1.7,4.6
			C304.3,200.4,304.5,201.1,304.5,201.7z"/>
		<path class="st0" d="M296.7,220c-3.1-0.4-3.2-0.4-4.5,1.3c-2.1,2.9-4.9,13.2-7.5,27.6c-0.5,2.8-1.3,7-1.7,9.2
			c-1.2,6.4-2.4,14.1-4,25.8c-0.8,6-1.7,12.7-2,14.9c-0.6,4.1-2,16.2-2.9,25.2c-1.1,10.6-0.5,14.6,2.1,14.6c1.3,0,20.8-4.3,21.2-4.7
			c0.1-0.1,0.5-3.2,0.9-6.8c1.3-13.3,2.3-21.6,2.9-25.5c0.3-2.2,0.7-4.9,0.9-6c4.1-30.3,8.6-55.5,10.7-58.9c0.6-1,1.1-2.3,1.1-3
			c0-0.7,0.3-1.7,0.7-2.3c0.5-0.9,0.5-1.7,0-3.7c-0.4-1.4-0.7-3.1-0.7-3.7c0-0.9-0.5-1.2-2.7-1.4c-1.5-0.2-4.6-0.7-6.9-1.2
			C301.8,220.9,298.5,220.3,296.7,220z"/>
		<path class="st0" d="M542.6,270.9c1.3-7.9,1.7-11.3,2.9-20.6c0.8-6.1,0.3-14.7-0.9-16.8c-0.4-0.7-1.1-2-1.5-2.8
			c-0.9-1.9-3.4-4.6-4.3-4.6c-0.4,0-1-0.4-1.3-0.8c-0.9-1-4-1.6-8.3-1.5c-4.6,0.1-9.2,2.4-14.7,7.3c-6.1,5.5-15.3,15.9-20.2,22.9
			c-1.5,2.2-7.6,10.6-10.3,14.3c-0.7,1-0.7,0.6,0-3.4c0.5-2.5,1.9-8.5,3.1-13.5c1.3-4.9,2.7-10.5,3.1-12.4c0.5-1.9,1.5-5.1,2.3-7
			c0.8-2,1.4-4.2,1.4-5c0-1.8-2.2-3.5-6.2-4.6c-1.8-0.5-5.2-1.9-7.7-3.2c-5.9-3-7-2.9-9,0.3c-0.9,1.4-2,3.4-2.3,4.4
			c-1.6,4.3-3.9,9-6.1,12.5c-1.3,2.1-3.8,6.2-5.6,9.2c-1.8,3-5.4,8.9-8.1,13.2c-2.7,4.3-6.5,10.5-8.6,13.9
			c-4.1,6.7-9.4,14.5-26.8,40.2c-1.5,2.2-4.6,6.2-6.9,8.9l-4.2,5L402,324c-1.5-11.3,1.4-38.3,6.4-60.8c3.1-13.7,7.3-28.4,9.1-31.8
			c0.4-0.7,0.4-2-0.1-4c-0.8-3.3-1.2-3.6-5.9-4.3c-3.4-0.5-5-1.3-8.3-4c-1.3-1.1-2.8-2-3.2-2c-0.4,0-1.8,0.8-3.1,1.9
			c-1.3,1-2.3,2.1-2.4,2.4c0,0.7-3,7.2-3.3,7.2c-0.1,0-1.3-0.8-2.6-1.7c-1.3-0.9-2.8-1.7-3.3-1.7c-0.5,0-1.5-0.4-2.2-0.9
			c-1.8-1.3-9.7-1.7-14-0.8c-21.2,4.5-36.2,25.5-42.6,59.4c-3.5,18.7-1.3,36.6,5.3,43.5c4.4,4.6,13.1,6.7,18.9,4.5
			c4.4-1.6,8.3-4.3,12.8-8.9c3.9-3.9,5.8-6.2,11-13.3l2.1-2.9l0,10.3c0,7.2,0.3,11.8,0.9,15.4c1,5.6,3.3,11.9,5,13.8
			c0.6,0.7,1.1,1.5,1.1,1.8c0,1.6,5.8,5.9,9.5,7c5.9,1.8,9.9,1.6,14.9-0.8c7-3.3,16.4-13.1,25.8-27c5-7.3,16.7-24.8,17.8-26.5
			c0.8-1.2,0.7-1-0.4,7.8c-0.9,7-0.7,12.1,0.6,15.2c0.6,1.5,1.1,3.1,1.1,3.6c0,1.2,4.7,5.2,6.1,5.2c0.6,0,1.5,0.5,1.9,1
			c0.7,0.8,1.6,1,4.1,0.9c6.4-0.3,11.1-4.1,16.7-13.3c2-3.4,4.4-7.5,5.3-9.3c0.9-1.7,2.4-4.6,3.4-6.3c1-1.7,3-5.1,4.4-7.5
			s3.8-6.4,5.4-8.9c1.6-2.5,4.2-6.5,5.6-8.9c1.5-2.4,3.9-5.7,5.3-7.5c1.4-1.7,3.6-4.7,4.9-6.5c1.3-1.8,2.4-3.2,2.6-3.1
			c0.1,0.1-0.2,3.1-0.6,6.5c-2.4,17.3-4.9,37.3-6.3,51.2c-0.4,3.6,2.4,10.7,4.6,11.7c1.6,0.7,7.5-0.2,10.2-1.6
			c1-0.5,3.3-1.1,5.2-1.3c3-0.3,3.5-0.5,4.5-2.1c0.8-1.2,1-2.3,0.7-3.5c-0.5-2.5-0.5-4.4,0.2-11.5C539,296.4,540.7,283,542.6,270.9z
			 M373.1,264.7c-8,13.4-20.2,31.9-22.1,33.6c-0.7,0.5-0.7-0.1-0.3-4.3c0.2-2.7,0.6-5.8,0.8-6.7c3.7-18,9.1-30.1,16.1-36.1
			c4.2-3.6,7.4-4.6,8.8-2.9c0.4,0.5,0.8,2.7,1,4.9l0.3,4L373.1,264.7z"/>
		<path class="st0" d="M729.6,148.5c-0.3,0-4.7-0.8-9.8-1.7c-10.9-2-11.7-2.1-12.4-0.7c-0.6,1.1-2.3,7.5-3.7,13.6
			c-3.1,13.7-0.9,28.9,5.3,36c1.5,1.7,3.5,3.7,4.5,4.4c4.6,3.2,14.4,3.9,21.3,1.5c4.5-1.5,15.1-7.4,19.9-10.9
			c3.7-2.7,8-5.9,17.7-13.2c9.5-7.1,17.2-14.2,16.8-15.4c-0.4-1-9-12.7-11.3-15.2l-1.7-1.9l-1.9,1c-2.2,1.2-5.8,3.8-14.5,10.5
			c-3.5,2.7-8.1,6.2-10.3,7.8c-2.2,1.6-5.5,4-7.5,5.4c-4.5,3.2-13.5,8.6-14.5,8.6c-1.7,0-0.4-16.2,1.8-21.8
			C730.1,154.4,730.4,148.5,729.6,148.5z"/>
		<path class="st0" d="M1012.7,125.6c-1.5,0-3.2-0.3-3.9-0.8c-1.1-0.6-1.7-0.6-3.7,0c-2,0.7-3.8,2.3-9.4,8.6
			c-3.9,4.3-15.2,16-25.1,26.1c-11.1,11.2-18.3,18.9-18.6,19.9c-0.5,1.5-0.1,2.1,6.3,8.8c3.7,3.9,7.3,7.2,7.8,7.2
			c1.5,0,8.5-6,19.1-16.4c11.9-11.7,30.5-31.2,31.8-33.3c0.5-0.8,1.5-2,2.2-2.6c1.8-1.6,1.6-3.9-0.6-6.4c-1.7-2-1.8-2.1-1.4-6
			C1017.7,126.1,1017.2,125.6,1012.7,125.6z"/>
	</g>
	<g>
		<path class="st0" d="M1169.6,184.2c-0.7,0.5-2,4.1-2.3,6.2c-0.1,0.6-0.3,1.8-0.5,2.7c-0.5,2.2-0.5,8.7,0,11.6
			c0.2,1.3,0.5,3.3,0.6,4.5c0.1,1.2,0.4,2.1,0.6,2.1c0.2,0,0.2-0.2,0.1-0.4c-0.1-0.2-0.1-0.6,0-0.8c0.2-0.3,0.3-0.2,0.5,0.3
			c0.2,0.6,0.3,0.6,0.7-0.4c0.2-0.6,0.4-2,0.4-3.1c0-1.9,0.2-10.8,0.5-18c0.1-1.8,0.3-3.7,0.4-4.3
			C1171,183.6,1170.6,183.4,1169.6,184.2z"/>
		<path class="st0" d="M1299.9,155c-0.3-0.6-0.8-1.2-1.1-1.2c-0.3,0-0.4-0.2-0.3-0.5c0.3-0.7-0.5-3.1-1.1-3.1
			c-0.2,0-0.4-0.5-0.5-1.1c0-0.6-0.2-1.2-0.4-1.4c-0.2-0.1-1.1-1.6-2.1-3.3c-3.2-5.8-3.6-6.3-7-9.9c-0.4-0.4-1.5-1.7-2.3-2.8
			c-0.9-1.1-2.5-2.7-3.6-3.6c-1.1-0.9-2.4-1.8-2.8-2.1c-0.4-0.3-0.9-0.5-1.1-0.5c-0.2,0-0.5-0.3-0.6-0.6c-0.1-0.3-0.9-0.9-1.8-1.3
			c-0.9-0.4-2.1-1-2.8-1.4s-1.6-0.7-1.9-0.7c-0.4,0-0.6-0.2-0.6-0.3s-0.9-0.6-2.1-1c-1.2-0.3-2.5-0.9-2.9-1.1
			c-1.1-0.7-8.1-2.4-8.7-2.2c-0.3,0.1-0.5,0-0.6-0.2c-0.1-0.2-0.8-0.4-1.7-0.4c-0.8,0-1.5-0.1-1.5-0.3c0-0.1-1-0.5-2.3-0.7
			c-1.3-0.3-2.4-0.6-2.6-0.7c-0.5-0.4-5-1.1-8.3-1.2c-1.5-0.1-3-0.3-3.2-0.4c-0.3-0.2-12.6-0.5-12.8-0.3c-0.1,0-2.5,0.3-5.4,0.5
			c-2.9,0.2-5.9,0.5-6.6,0.6c-0.7,0.1-1.8,0.3-2.4,0.3c-0.6,0.1-1.5,0.2-2,0.3c-0.5,0.1-1.9,0.4-3.1,0.6c-3.7,0.6-7,1.9-13.1,5
			c-3.7,1.9-9.6,5.4-11.4,6.9c-0.8,0.7-2.5,1.6-3.6,2c-2.5,0.9-3.8,1.6-7.3,4.2c-4.7,3.5-9.5,8.4-11.9,12.1c-2.9,4.3-4.4,6.9-4,6.9
			c0.1,0-0.2,0.5-0.7,1.1c-0.5,0.6-0.9,1.5-0.9,2s-0.2,0.9-0.5,1c-0.3,0.1-0.8,1-1.1,2c-0.4,1-1.3,3.4-2,5.4c-1.5,3.8-2.7,8.4-2.3,9
			c0.1,0.2,0.1,0.3-0.1,0.3c-1.2,0-2.8,16-2.2,22.2c0.2,2.1,0.4,5.1,0.5,6.7c0.3,4.6,1.9,12.6,3.4,17.3c0.8,2.4,3.7,8.6,4.9,10.5
			c0.5,0.7,1.4,2.4,2.1,3.7c0.7,1.3,1.8,3.3,2.6,4.5l1.4,2.1l-2.1,1.4c-2.4,1.6-2.8,1.9-3.7,2.7c-0.4,0.3-2.4,1.8-4.5,3.2
			c-2.1,1.4-3.9,2.8-4,2.9c-0.1,0.2-0.8,0.3-1.6,0.3c-1.3,0-5,1.7-6.1,2.8c-0.3,0.3-0.7,0.5-0.9,0.5c-0.2,0-0.3,0.2-0.1,0.4
			c0.1,0.2,0,0.4-0.3,0.4c-0.3,0-1.1,0.4-1.7,1s-1.8,1.4-2.6,1.9c-0.8,0.5-3.1,2.6-5.2,4.6c-3.7,3.6-5.8,5.5-9.7,8.8
			c-1.9,1.6-3.4,2.9-8.9,7.7c-1.2,1.1-2.9,2.6-3.7,3.3c-0.8,0.7-2.6,2.3-4,3.5c-1.4,1.2-3.4,2.9-4.4,3.9c-1.6,1.5-3.3,2.9-6.6,5.3
			c-0.5,0.3-1.1,0.9-1.5,1.2c-0.4,0.3-1.4,1.1-2.2,1.8s-2.1,1.8-2.8,2.5s-1.4,1.2-1.6,1.2s-1.1,0.7-2,1.6c-0.9,0.9-1.8,1.6-2,1.6
			c-0.2,0-0.3,0.1-0.3,0.3c0,0.2-0.4,0.5-1,0.7c-0.5,0.2-1.3,0.8-1.7,1.1c-1.6,1.5-5.4,4.6-6.3,5.2c-0.5,0.3-1.3,1-1.7,1.5
			c-0.5,0.5-2.7,2.5-5.1,4.5c-4.6,4-8.9,8.2-14.5,14.2c-2,2.1-3.8,3.9-4.1,3.9s-0.5,0.2-0.5,0.4c0,0.2-0.2,0.3-0.5,0.1
			c-0.6-0.2-0.7,0.5-0.2,1.8c0.2,0.5,0.6,1.8,0.9,2.9c0.5,1.8,1.1,2.5,4.2,5.7c2,2,3.8,3.7,4,3.7c0.2,0,0.4,0.3,0.4,0.7
			c0,0.7,3.8,4.4,4.6,4.4c0.7,0,7.8-5.8,15.9-13.1c4.2-3.7,9-8,10.7-9.5c1.7-1.5,3.6-3.1,4.2-3.6c0.6-0.5,2.7-2.3,4.7-3.8
			c4.4-3.5,9-7.2,14.9-12c2.4-2,5-4,5.6-4.6c0.7-0.5,4-3.3,7.3-6.3c3.3-2.9,7.4-6.4,9.1-7.8c1.7-1.4,4.4-3.9,6.2-5.5
			c1.7-1.6,4.5-4.1,6-5.5c1.6-1.4,3.9-3.4,5.1-4.5c1.2-1.1,2.4-2.2,2.6-2.4c0.2-0.2,1.2-1,2.2-1.8c1-0.8,2.8-2.4,4.2-3.6
			c3-2.8,5.7-5,6.8-5.5c0.9-0.5,3.1-2.5,6.9-6.2c1.3-1.3,2.5-2.3,2.7-2.3s0.6-0.3,0.8-0.6c0.3-0.4,0.9-0.8,1.5-1.1
			c0.9-0.4,1.2-0.4,2.3,0.5c1,0.7,1.4,0.9,1.9,0.6c0.6-0.3,0.7-0.2,0.9,0.7c0.2,0.8,0.8,1.4,2.5,2.5c3.5,2.3,12.9,6.6,18.3,8.5
			c5.2,1.8,6.7,2.2,9.6,2.7c1.5,0.2,3.1,0.6,3.7,0.8c0.5,0.2,1.5,0.4,2.2,0.4c1.5,0,3.3,0.3,4.4,0.6c1.3,0.4,3.9,0.4,4.1,0
			c0.1-0.2,0.4-0.2,0.8,0.2c0.4,0.3,1.6,0.6,2.8,0.6c1.2,0,2.8,0.2,3.5,0.3c0.7,0.1,1,0.1,0.7,0c-1-0.3-0.8-1.1,0.3-1.3
			c0.7-0.1,1,0,1.3,0.7c0.3,0.9,0.4,0.9,3,0.7c1.5-0.1,3-0.3,3.5-0.4c0.5-0.1,1.9-0.3,3-0.4c1.2-0.1,2.1-0.4,2.1-0.6
			c0-0.2,0.7-0.3,1.6-0.3c0.9,0,1.7-0.1,1.8-0.3c0.1-0.2,1-0.4,1.9-0.6c2.2-0.3,4.5-1,5-1.4c0.2-0.2,0.7-0.3,1.2-0.3
			c0.4,0,1.1-0.2,1.4-0.5s1-0.5,1.5-0.5c0.5,0,1.2-0.2,1.5-0.5c0.3-0.3,0.8-0.5,1.2-0.5c0.4,0,1.3-0.4,2-0.9
			c0.7-0.5,1.5-0.9,1.7-0.9c0.2,0,0.9-0.5,1.6-1.1c0.7-0.6,1.4-1.1,1.7-1.1c0.5,0,6.3-4.9,9.5-7.9c1-0.9,1.6-1.8,1.5-2.1
			c-0.1-0.3,0-0.5,0.2-0.5c0.2,0,0.4-0.4,0.4-0.8c0-0.7,0.1-0.7,0.2-0.1c0.1,0.6,0.5,0.3,2.2-1.5c2.1-2.3,8.8-11.5,8.8-12.1
			c0-0.2,0.1-0.4,0.3-0.4c0.3,0,5.3-10.3,5.9-12.2c0.2-0.6,1-2.7,1.8-4.8c0.8-2,1.4-3.8,1.3-3.9s0.1-0.6,0.4-1
			c1.1-1.7,5.5-14,5.2-14.7c-0.1-0.2,0-0.5,0.2-0.6c0.5-0.2,1.4-5.4,2.2-12.3c0.6-5.8,0-15.9-1.4-21.7
			C1303.6,164.7,1300.7,156.4,1299.9,155z M1087.7,296.1c0.1-0.2,0.3-0.4,0.4-0.4c0.1,0,0.2,0.2,0.2,0.4s-0.2,0.4-0.4,0.4
			S1087.5,296.3,1087.7,296.1z M1072.5,307.6c0.1,0.1,0,0.4-0.2,0.6c-0.3,0.3-0.4,0.3-0.4,0.1
			C1071.8,307.8,1072.3,307.4,1072.5,307.6z M1051.9,347.2c-0.6,0.5-0.6,0.4-0.1-0.1c0.5-0.6,0.8-0.8,0.8-0.5
			C1052.5,346.6,1052.2,346.9,1051.9,347.2z M1076.6,326.2c-0.2,0.1-0.4,0.1-0.4-0.2c0-0.2,0.2-0.4,0.4-0.4c0.2,0,0.4,0.1,0.4,0.2
			C1076.9,325.9,1076.8,326.1,1076.6,326.2z M1141.6,269c-0.7,0.6-1.8,1.5-2.3,2.1c-0.6,0.5-1.4,1.1-1.8,1.2
			c-0.7,0.2-0.9,0.6-0.8,1.4c0,0.2-0.1,0.2-0.2,0.1c-0.2-0.1-0.5-0.1-0.7,0.1c-0.5,0.3-3.8,3.1-5.1,4.4c-0.5,0.5-1.9,1.6-3,2.5
			c-1.1,0.9-2.1,1.8-2.1,1.9c-0.1,0.2-0.7,0.8-1.3,1.5c-3,3-4.1,3.9-4.4,3.9c-0.2,0-0.6,0.4-0.9,0.9c-0.3,0.5-0.6,0.9-0.7,0.9
			c-0.1,0-1.1,0.8-2.2,1.8c-2.6,2.4-3.1,2.8-4.8,4.3c-0.8,0.7-1.5,1.4-1.5,1.6c0,0.2-0.5,0.7-1.2,1.1s-1.2,0.9-1.2,1.1
			c0,0.2-0.2,0.4-0.4,0.4c-0.5,0-4,3.5-4,4c0,0.2-0.2,0.3-0.3,0.2c-0.4-0.3-5.9,4.1-5.7,4.6c0.1,0.2-0.1,0.3-0.5,0.3
			c-0.9,0-1.3,0.6-0.7,0.9c0.3,0.1,0.1,0.1-0.3,0c-0.6-0.1-1.2,0.2-2.3,1.2c-0.8,0.8-2.6,2.3-4,3.4c-1.4,1.1-2.6,2.1-2.6,2.2
			s-0.5,0.5-1,0.7c-0.6,0.3-1.6,0.9-2.3,1.4s-1.7,1.1-2.2,1.4c-0.5,0.2-1.1,0.7-1.2,1.1c-0.1,0.4-0.5,0.8-0.9,1s-1.2,0.7-1.8,1.2
			c-0.6,0.6-1.2,0.9-1.3,0.8c-0.1-0.1-0.2-0.1-0.2,0.1c0.2,0.8-0.1,1.2-0.9,1.4c-0.5,0.1-1.3,0.6-1.9,1c-0.8,0.6-0.9,0.9-0.5,1.1
			c0.4,0.3,0.3,0.3-0.2,0.1c-0.9-0.3-2.4,1.2-1.7,1.7c0.4,0.3,0.4,0.3,0,0.2c-0.7-0.1-2.1,0.6-3.5,1.9c-3.1,2.8-4,3.6-4.3,3.6
			c-0.2,0-0.3,0.2-0.3,0.5s-0.2,0.5-0.4,0.5c-0.2,0-1.4,1-2.5,2.2c-3,3-3.4,3.2-4.5,2c-0.5-0.5-0.9-1.1-0.9-1.3c0-0.5-1.6-1-1.9-0.5
			c-0.2,0.3-0.2,0.2-0.2-0.2c0.1-0.4-0.6-1.3-1.5-2.2c-2.7-2.6-2.7-2.5-1.3-4.3c0.7-0.9,1.3-1.7,1.3-1.8c0-0.4,7.7-8,10.9-10.7
			c6-5.1,13.2-11,16.2-13.3c1.2-0.9,2.8-2.3,3.6-3c0.8-0.7,2.1-1.7,2.8-2.2c0.7-0.5,2.8-2,4.6-3.5c1.8-1.5,3.8-3.1,4.6-3.7
			c0.7-0.5,1.6-1.2,1.8-1.5c0.3-0.3,2.2-1.8,4.3-3.5c2.1-1.7,3.9-3.2,4-3.3s1.4-1.2,2.9-2.4s4.4-3.6,6.5-5.3
			c2.1-1.7,4.2-3.4,4.7-3.8c4.5-3.4,12.8-11.1,12.8-11.9c0-0.2,0.2-0.3,0.4-0.3c0.2,0,2.3-2,4.6-4.4c2.3-2.4,4.3-4.4,4.4-4.4
			c0.1,0,0,0.4-0.1,0.9c-0.1,0.5-0.1,0.9,0.1,0.9c0.5,0,2.2,1.9,2.2,2.5c0,0.3,0.2,0.6,0.5,0.7c0.5,0.2,0.9,1.4,1.7,4.3
			c0.2,0.8,0.6,1.8,0.9,2.1C1145.3,265.7,1144.8,266.3,1141.6,269z M1274.1,132.2c0.1,0.3,0.1,0.7,0,0.9c-0.1,0.3-0.2,0-0.2-0.5
			C1273.9,132.2,1274,132,1274.1,132.2z M1151.4,224.8c-0.9,0-0.6-0.7,0.5-1.1c0.1,0,0.1,0.2,0.1,0.5
			C1151.9,224.5,1151.7,224.8,1151.4,224.8z M1151.8,222c0.1,0.1,0.1,0.4,0,0.7c-0.1,0.3-0.2,0.2-0.2-0.2
			C1151.6,222.1,1151.6,221.9,1151.8,222z M1154.8,212.6c-0.4-1-0.4-1.4,0-1.1c0.2,0.1,0.4,0.6,0.3,1
			C1155.1,213.3,1155.1,213.3,1154.8,212.6z M1156.9,234.1c-0.1,0.1-0.4,0.1-0.7,0c-0.3-0.1-0.2-0.2,0.2-0.2
			C1156.8,233.9,1157,234,1156.9,234.1z M1165,251.7c-0.7,0.5-1.6,1.3-2.1,1.8c-0.5,0.5-1,0.8-1.3,0.8c-0.2,0-1.6,1-3,2.2
			c-1.4,1.2-2.6,2.2-2.7,2.2c-0.5,0-2.9-3.2-3.5-4.6c-0.6-1.4-0.6-1.4,0.2-2c0.5-0.3,1.3-1,1.8-1.5s1.1-0.9,1.2-0.8
			c0.1,0.1,0.2,0,0.2-0.2c0-0.2,0.2-0.4,0.5-0.4c0.3,0,0.7-0.3,1-0.6c0.4-0.5,0.4-0.5,0-0.5c-0.3,0.1-0.5-0.1-0.6-0.4
			c-0.1-0.4-0.1-0.4,0.1-0.1c0.4,0.5,1.6,0.3,2.1-0.3c0.5-0.7,2.1-1.7,2.6-1.7c0.2,0,1.4,1.2,2.5,2.6l2.1,2.6L1165,251.7z
			 M1161.9,228.1c0.4,0,0.6,0.1,0.5,0.2s-0.4,0.1-0.7,0C1161.4,228.2,1161.5,228.1,1161.9,228.1z M1199.1,254.5
			c-0.3,0.3-1-0.2-0.8-0.6c0.2-0.2,0.4-0.2,0.6,0C1199.2,254.1,1199.3,254.4,1199.1,254.5z M1224,272.1c-0.2,0-0.4-0.2-0.4-0.4
			s0.2-0.4,0.4-0.4c0.2,0,0.4,0.2,0.4,0.4S1224.2,272.1,1224,272.1z M1225.8,261.2c-0.4,0-1,0.3-1.3,0.6c-0.5,0.5-0.6,0.5-0.6,0
			c0-0.6,0.6-1.2,1.6-1.4c0.4-0.1,0.8-0.2,0.8-0.2c0.1,0,0.1,0.2,0.1,0.5S1226.2,261.2,1225.8,261.2z M1283.9,230.6
			c-0.3,0.4-0.6,0.9-0.6,1.2c0,0.9-2.2,4.6-3,5c-0.2,0.1-0.3,0.3-0.3,0.5c0,0.2-1.1,1.7-2.4,3.3c-1.3,1.6-2.8,3.5-3.4,4.2
			c-1.8,2.2-4.8,5-7.7,7.1c-2.8,2-8.2,4.9-8.6,4.5c-0.1-0.1,0.9-0.9,2.1-1.7c6.3-4.2,19-17.2,21.8-22.2c0.8-1.5,2.3-3.2,2.5-2.8
			C1284.4,229.8,1284.2,230.2,1283.9,230.6z M1289.8,200c0.3,0,0.2,0.3-0.1,0.8c-0.3,0.5-0.6,1.6-0.8,2.6
			c-0.3,2.4-3.6,12.2-4.8,14.6c-0.2,0.4-0.3,0.9-0.2,1.2c0.1,0.3,0,0.4-0.1,0.3c-0.2-0.2-1,1.2-1.9,2.9c-0.9,1.8-2.1,3.8-2.6,4.6
			c-0.5,0.8-1.3,2-1.6,2.6c-0.3,0.6-1.3,1.9-2.2,2.9c-0.9,1-1.9,2.2-2.3,2.8c-0.6,1-8,8.3-11.3,11.3c-1.8,1.5-2.6,3.2-1.5,3.2
			c0.2,0,0.2,0.2-0.1,0.5c-0.4,0.4-0.5,0.3-0.7-0.6l-0.2-1.1l-3.8,2.5c-3.4,2.3-6.1,3.7-6.7,3.7c-0.1,0-1.1,0.4-2.1,0.9
			c-1,0.5-2.3,0.9-2.8,0.9c-0.5,0-1.3,0.2-1.7,0.5c-0.8,0.5-2.7,1.2-4.2,1.5c-0.5,0.1-1.4,0.3-2,0.4c-2,0.4-0.1-0.4,2.2-1
			c1.2-0.3,3.7-1.2,5.6-2c3.3-1.4,9.3-4.8,9.7-5.5c0.1-0.2,0.8-0.6,1.5-0.9c0.7-0.3,1.9-1.1,2.5-1.7c0.9-0.9,1.1-1.2,0.8-1.8
			c-0.4-0.8-1-0.9-1.8-0.2c-0.3,0.3-1.5,0.8-2.6,1.1c-2.5,0.8-6.2,2.5-6.2,2.9c0,0.2-0.2,0.3-0.5,0.3c-0.3,0-1.2,0.3-2.1,0.7
			c-2.4,1.1-6.2,2.5-7.3,2.7c-0.5,0.1-1.2,0.5-1.5,0.8c-0.4,0.4-0.6,0.4-0.7,0.1c-0.1-0.3-0.3-0.3-0.9,0c-2,1.1-17.5,1.6-23.1,0.8
			c-1.7-0.2-5-0.9-7.3-1.5c-2.3-0.6-4.6-1.1-5-1.1c-0.4,0-0.8-0.2-1-0.4c-0.1-0.2-0.5-0.4-0.8-0.4c-0.3,0-1-0.2-1.6-0.5
			c-0.5-0.3-1.4-0.6-1.9-0.7c-0.5-0.1-1.7-0.7-2.6-1.3c-0.9-0.6-2.5-1.5-3.5-2.1c-3.3-1.8-3.6-1.9-6.1-3.6c-1.3-0.9-3.7-2.8-5.2-4.3
			c-1.5-1.5-3-2.7-3.4-2.7c-0.4,0-0.5-0.2-0.4-0.4c0.1-0.2-0.2-0.8-0.6-1.4c-3.1-3.4-7.8-11.5-9.5-16.4c-1.5-4.4-2.2-7-2.1-7.4
			c0-0.2-0.3-0.4-0.7-0.5c-0.4-0.1-0.6-0.3-0.5-0.5c0.1-0.2,0.4-0.2,0.5-0.1c0.4,0.3,0.4,0.4-0.2-2.9c-1.1-5.6-1.4-18.3-0.6-23.6
			c0.2-1.6,0.5-3.3,0.6-3.8s0.2-1,0.2-1c0,0,0.1-0.3,0.2-0.7c0.2-1.1,0.7-3.3,1.6-6.3c0.4-1.5,0.7-2.8,0.6-3c-0.1-0.2,0-0.3,0.2-0.3
			c0.4,0,1.1-2,1.1-3.2c0-0.5,0.1-0.8,0.3-0.7c0.2,0.1,1.2-1.5,2.4-3.6c1.1-2.1,2.5-4.4,3.1-5s1.6-2.1,2.3-3.2
			c1.4-2.1,3.1-3.8,6.8-6.7c1.7-1.3,2.3-2,2.1-2.5c-0.1-0.6-0.1-0.6,0.4-0.2c0.4,0.3,0.7,0.3,1.3-0.3c1.3-1.2,3.9-2.8,6.8-4.4
			c3-1.6,4.4-2.2,8.2-3.3c1.4-0.4,3.7-1.1,5.1-1.5c2.2-0.7,10-2.3,12.6-2.6c0.5-0.1,3.8-0.1,7.3,0c3.5,0.1,7.3,0.2,8.4,0.2
			s2.1,0.2,2.2,0.3s1.4,0.4,2.9,0.5c1.5,0.1,3.4,0.4,4.3,0.7c0.9,0.3,1.9,0.6,2.2,0.6c0.3,0,2.2,0.5,4.1,1.1
			c1.9,0.6,3.8,1.1,4.2,1.2c0.4,0,0.7,0.2,0.7,0.3c0,0.4,2.8,1.2,3.2,0.9c0.2-0.1,0.4,0,0.4,0.3c0,0.3,1.2,1.1,2.8,1.9
			c1.6,0.8,3.7,2.1,4.7,2.9c1.1,0.9,2.2,1.6,2.6,1.6s0.7,0.2,0.7,0.4c0,0.2,0.6,1,1.4,1.7c3.4,3.2,5.8,5.6,7.2,7.3
			c0.8,1,1.8,1.9,2.1,1.9c0.4,0,0.6,0.2,0.5,0.3c-0.1,0.2,0.7,1.6,1.7,3.2c2.4,3.6,2.1,3.1,4.3,7.1c3.3,6,4.8,10.4,6.4,18.2
			c0.5,2.5,0.5,13.4,0,15.4C1289.5,199.7,1289.6,200,1289.8,200z M1251.8,248.8c0.4,0,0.6,0.1,0.5,0.2s-0.4,0.1-0.7,0
			C1251.3,249,1251.4,248.9,1251.8,248.8z M1198,132.1c0.1,0.1,0.1,0.4,0,0.7c-0.1,0.3-0.2,0.2-0.2-0.2
			C1197.8,132.2,1197.9,131.9,1198,132.1z M1290.8,201.6c-0.3-0.1-0.6-0.4-0.6-0.6c0-0.5,0.2-0.4,0.7,0.2
			C1291.4,201.8,1291.3,201.8,1290.8,201.6z M1293.3,174.6c-0.1,0.4-0.3,0.7-0.5,0.7c-0.5,0-0.4-1,0.1-1.2c0.3-0.1,0.5-0.2,0.5-0.2
			C1293.4,173.8,1293.4,174.2,1293.3,174.6z M1295.4,177.5c-0.2,0-0.5-0.5-0.6-1c-0.2-1-1.7-5.6-3-9.3c-1.7-4.9-7.2-14-11.5-19
			c-3.4-4-6.9-7.5-8.6-8.6c-0.9-0.6-1.8-1.2-2-1.4c-0.9-0.7-5.3-3.4-5.6-3.4c-0.2,0-0.5-0.2-0.8-0.6c-0.3-0.3-0.6-0.5-0.9-0.5
			c-0.2,0-0.8-0.2-1.4-0.6c-0.5-0.4-1.1-0.6-1.3-0.4s-0.5,0.1-0.6-0.2c-0.1-0.2-0.5-0.4-0.8-0.4c-0.3,0-0.8-0.3-1.1-0.6
			c-0.4-0.4-0.7-0.5-1-0.2c-0.3,0.3-0.5,0.3-0.7,0c-0.1-0.2,0-0.4,0.2-0.4c1.1,0-0.8-0.7-5.9-2.1c-5-1.4-9-2.1-12.7-2.4
			c-2.5-0.2-6.6-0.6-7.8-0.8c-0.6-0.1-3.2-0.3-5.8-0.4c-3.7-0.2-5.7,0-9.1,0.5c-5.1,0.9-8.7,1.6-10.2,2.2c-0.6,0.2-2.1,0.6-3.3,0.9
			c-2.6,0.6-8.4,2.6-9.5,3.4c-0.4,0.3-0.8,0.5-0.9,0.4c-0.2-0.2-7,3.8-9.9,5.8c-8.4,6-11.2,8.9-16.4,16.7
			c-4.3,6.5-6.8,11.6-8.1,16.4c-0.3,1.3-0.8,3-0.9,3.7c-1.1,4.2-1.8,9.1-2,12.9c-0.5,11.1-0.5,12,0.3,16.5c0.4,2.5,0.7,4.6,0.6,4.6
			c-0.2,0.2-1.7-5.2-1.9-6.6c-0.1-0.6-0.2-2.9-0.4-5.1c-0.1-2.2-0.4-4.2-0.6-4.4c-0.2-0.3-0.2-0.5,0-0.6c0.2-0.1,0.4-1.6,0.4-3.2
			c0-3.3,0.6-8.9,1.1-11.9c0.2-1.1,0.4-2.5,0.4-3.2c0-1.4,0.6-3.3,2.5-8.7c2.2-6.3,4.6-10.6,8.4-15.2c2.2-2.7,2.6-3.4,2-3.1
			c-0.7,0.3-5,5.7-7.4,9.5c-2.5,3.8-3.7,5.9-6.2,11.1c-1.5,2.9-3.6,11.5-4,16c-0.4,4.2-0.7,2.5-0.5-2.5c0.3-6.4,1.8-13.8,4.3-21.6
			c1-3.1,2-6,2.2-6.4c0.2-0.4,1-1.8,1.7-3.1c3.2-6,5-8.5,8.8-12.4c4.3-4.3,6.7-6.2,10.2-8c1.9-1,2.4-1.1,3-0.8
			c0.6,0.4,1,0.2,2.6-0.8c1.6-1.1,3.4-2,6.5-3.5c1.8-0.9,8.3-3.2,10.8-3.8c0.3-0.1,0.4-0.3,0.2-0.5c-0.2-0.3,0.1-0.3,0.8-0.2
			c0.6,0.1,2.3,0.1,3.8-0.2c1.5-0.2,3.3-0.5,4-0.5c2.1-0.2,10.6-0.6,12.7-0.6c1.1,0,2.2-0.1,2.5-0.3c0.3-0.2,0.6-0.2,0.7-0.1
			c0.1,0.1,0.5,0.3,0.9,0.3c1.9,0.2,9.3,0.9,10.7,1c0.9,0.1,2.8,0.5,4.2,0.9c1.4,0.4,3,0.7,3.5,0.7c0.5,0,1.1,0.1,1.2,0.3
			c0.1,0.2,0.8,0.4,1.5,0.6c0.7,0.1,1.6,0.4,1.9,0.6c1,0.5,4.4,1.5,5.3,1.5c0.4,0,1,0.1,1.1,0.3s1,0.5,1.8,0.7
			c0.8,0.2,2.4,0.7,3.5,1.2c1.1,0.4,2.5,0.9,3.1,1.1c0.6,0.2,1.8,0.6,2.7,1.1c0.9,0.4,1.8,0.8,1.9,0.8c0.2,0,0.9,0.5,1.7,1
			c1.6,1.2,2.6,1.8,3.6,2.3c3.2,1.4,10.1,7.5,13.4,11.9c0.8,1.1,1.6,1.9,1.7,1.9c0.2,0,0.3,0.2,0.3,0.5s0.6,1.4,1.3,2.5
			c0.7,1.1,2,3.9,2.9,6.2c0.9,2.3,1.9,4.8,2.1,5.5c0.7,1.6,1.8,6.2,2.1,8.4C1295.6,173.3,1295.7,177.5,1295.4,177.5z"/>
		<path class="st0" d="M1218.9,157.5c-0.1,0-0.9,0.4-1.7,0.8c-1.6,0.9-1.9,1.7-2.6,7.2c-0.1,0.7-0.3,2.3-0.5,3.5
			c-0.9,5.4-1.2,26.6-0.6,36.3c0.2,3.6,0.4,4.3,0.9,4.6c0.6,0.3,0.7,0.1,0.7-3.4c0-2,0.1-4.1,0.1-4.6c0-0.6-0.2-1-0.8-1.4
			c-0.5-0.3-0.7-0.5-0.5-0.5c0.2,0,0.5-0.5,0.7-1s0.3-1.2,0.4-1.4c0.8-2.3,1.5-12,0.9-12.4c-0.2-0.1-0.4-0.5-0.4-0.9
			c0-0.5,0.1-0.5,0.3,0.1c0.2,0.6,0.3,0.5,0.5-0.5c0.3-2.2,1.3-12.8,1.3-15.1c0-1.2,0.1-2.3,0.2-2.4c0.1-0.1,0.3-1.4,0.5-2.9
			c0.2-1.5,0.5-2.9,0.8-3.1C1219.7,160,1219.4,157.4,1218.9,157.5z"/>
		<path class="st0" d="M1234.6,159.3c-0.9,0-1.2,0.2-1.7,1c-0.3,0.6-0.4,1.1-0.3,1.3c0.1,0.1,0,0.5-0.2,0.8
			c-0.8,0.9-1.9,23.5-1.1,23.5c0.3,0,0.3,0.2,0.1,0.7c-0.6,1.1-0.6,12.5,0,13.6l0.5,0.9l0.5-1.1c0.6-1.3,1.2-8.3,1.2-12.5
			c0-1.7,0.2-4.4,0.3-6c0.2-1.6,0.4-4.8,0.6-7.1c0.3-5.7,0.8-12.3,1.1-13.7C1235.7,159.3,1235.7,159.3,1234.6,159.3z"/>
		<path class="st0" d="M1277.9,189.5c-0.2,0-0.4,0-0.4,0.1c-0.2,0.4-0.3,3-0.5,10c-0.2,7.9-0.5,10.3-1.5,11.9
			c-0.3,0.4-0.5,0.9-0.5,1.2c0,0.3-0.3,0.9-0.7,1.4c-0.4,0.5-0.7,1.4-0.7,2c0,0.6-0.1,1-0.3,0.9c-0.2-0.1-0.6,0.4-1,1.2
			c-0.3,0.7-0.9,1.7-1.3,2.1c-0.3,0.4-1,1.5-1.5,2.4c-2,3.6-2.6,4.6-3.5,5.7c-0.5,0.7-0.8,1.3-0.7,1.5c0.1,0.2,0,0.4-0.3,0.4
			s-1.4,0.8-2.5,1.8c-1,1-2.4,2.1-2.9,2.4c-1,0.6-1.2,1-0.7,1.9c0.3,0.4,0.5,0.4,1.2,0c1.9-1,4.7-3.4,4.7-4c0-0.4,0.3-0.7,0.6-0.7
			c1,0,3.3-3.1,5.1-6.8c1.6-3.3,1.8-4,1.9-5.3c0-0.4,0.2-0.6,0.4-0.5c0.4,0.3,1.1-0.6,1.2-1.5c0.1-0.4,0.4-1,0.8-1.4
			c0.5-0.5,0.6-1,0.4-1.7c-0.1-0.7-0.1-1,0.2-0.8c0.2,0.1,0.5-0.1,0.6-0.4c0.1-0.4,0.4-0.9,0.7-1.2c1.1-1.4,3.4-10.2,3.5-13.3
			C1280.1,194.4,1278.9,189.5,1277.9,189.5z"/>
		<path class="st0" d="M1259,164.5c0.5-0.6-0.3-1.7-0.9-1.3c-0.2,0.1-0.3,0.1-0.1-0.2c0.2-0.3-1.5-1.9-2-1.9c-0.1,0-0.6,0.6-1.1,1.3
			c-1.9,2.4-2.6,5.4-2.6,11.3c0,2.8,0,2.9,0.9,3.1c0.8,0.2,0.8,0.3,0.3,0.7c-0.4,0.3-0.6,0.4-0.6,0.1c0-0.9-0.7-0.3-0.9,0.8
			c-0.4,2.3-1,15.9-1,25.8l0,4.5l1.3,0.1c1.6,0.1,1.8-0.3,2.4-3.6c0.2-1.3,0.6-3.1,0.8-4c0.2-0.9,0.6-3,0.9-4.6
			c0.3-1.6,0.6-3.1,0.7-3.3c0.1-0.2,0.3-1.5,0.4-3c0.1-1.5,0.3-3.3,0.4-4.1c0.6-5.7,0.9-11.1,0.9-16
			C1258.5,165.3,1258.5,165,1259,164.5z M1252,194.6c-0.2,0-0.4-0.2-0.4-0.4c0-0.2,0.2-0.4,0.4-0.4c0.2,0,0.4,0.2,0.4,0.4
			C1252.4,194.4,1252.2,194.6,1252,194.6z"/>
		<path class="st0" d="M1178.5,231.5c-0.6-1.2-1.2-2.3-1.3-2.5c-0.2-0.2-0.6-1.3-1-2.5c-0.5-1.5-1-2.3-1.4-2.4
			c-0.4-0.1-0.6,0.1-0.6,0.3c0,1.1,2.4,7,3.5,8.7c1.3,1.9,2.9,3.3,3.3,2.9c0.1-0.1-0.1-0.7-0.6-1.2
			C1179.9,234.2,1179.1,232.7,1178.5,231.5z"/>
	</g>
	<path class="st0" d="M1278.7,350.2c-0.3-0.6-3.3-3.6-4-4c-0.3-0.1-1.1-0.1-1.9,0.1c-1.7,0.4-6.9,1-7.2,0.8c-0.1-0.1-0.7,0-1.3,0.2
		c-0.6,0.2-1.2,0.2-1.4,0.2c-0.1-0.1-0.5-0.1-0.8,0c-0.4,0.2-1.4,0.3-2.7,0.3c-0.3,0-1.4,0-2.6,0.1c-1.2,0.1-2.6,0.1-3.2,0.1
		c-0.6,0-1.2,0-1.4,0.1c-0.2,0-0.5,0-0.6-0.1c-0.1-0.1-0.8,0-1.4,0.2c-0.6,0.2-1.1,0.2-1,0.1c0.1-0.2-0.7-0.3-2.8-0.3
		c-0.5,0-1-0.1-1.3-0.1c-0.4-0.1-0.4-0.1,0-0.4c0.3-0.1,1.1-0.5,1.9-0.7c0.8-0.2,1.5-0.6,1.6-0.7c0.1-0.2,0.6-0.3,1.1-0.3
		s1-0.2,1-0.3c0.1-0.1,0.7-0.4,1.4-0.6c0.7-0.2,1.1-0.4,1-0.4c-0.1-0.1,0-0.1,0.2-0.1c0.2,0,0.7-0.1,1.1-0.3c2.1-1,4.6-2.1,4.9-2.1
		c0.8-0.2,3.4-1.1,4.4-1.7c1.3-0.7,3.5-1.8,5.1-2.4c3.1-1.3,8.4-6.2,7.9-7.5c-0.2-0.6-1.6-1.6-2.5-1.7c-0.5-0.1-1.2,0.1-1.6,0.3
		c-0.4,0.2-0.9,0.5-1.2,0.6c-3.6,1.1-4.5,1.5-5.3,2c-0.5,0.3-1.2,0.7-1.5,0.7c-0.3,0-0.9,0.3-1.3,0.6c-0.4,0.3-1.2,0.6-1.7,0.7
		c-0.5,0.1-0.9,0.2-0.9,0.3c0,0.2-0.5,0.3-1.7,0.7c-1.8,0.5-3.9,1.3-4,1.5c-0.1,0.1-0.4,0.2-0.7,0.2c-0.5,0-2.6,1-2.9,1.4
		c-0.1,0.1,0,0.3,0.1,0.4c0.4,0.2,0.6,1.4,0.3,1.6c-0.4,0.2-0.9-0.2-0.7-0.6c0.3-0.6,0-1.4-0.5-1.4c-0.5,0-1.4,1.5-1.2,2
		c0.1,0.2,0,0.3-0.2,0.4c-0.2,0.1-0.3-0.1-0.1-0.7l0.3-0.9l-1.2,0.2c-0.6,0.1-1.2,0.3-1.3,0.4c-0.2,0.2-2.9,1.1-5.2,1.7
		c-1,0.2-1.8,0.5-1.8,0.5c0,0.1-0.8,0.3-1.6,0.6c-0.9,0.2-1.5,0.3-1.4,0.2c0.2-0.3,2.3-1.9,2.7-2c0.2,0,0.4-0.3,0.5-0.5
		c0.1-0.2,0.4-0.5,0.6-0.6c0.6-0.4,2.7-2.1,2.8-2.3c0-0.1,0.9-0.9,1.9-1.7c1-0.9,2.1-1.9,2.5-2.3c0.4-0.4,0.8-0.8,1-1
		c0.2-0.1,0.8-0.7,1.3-1.2c0.5-0.5,1.8-2,3-3.2c1.3-1.4,2.1-2.4,2-2.5c0-0.2,0.1-0.4,0.4-0.5c0.5-0.2,2.5-4.3,2.4-4.8
		c0-0.1-0.5-0.3-1.1-0.4c-0.6-0.1-1.6-0.2-2.3-0.3c-1.5-0.2-2.2,0.2-3.9,2.3c-0.7,0.8-1.4,1.6-1.6,1.7c-0.2,0.1-0.8,0.7-1.4,1.2
		c-0.5,0.5-1.6,1.5-2.3,2.1c-1.9,1.6-3.4,3-3.7,3.3c-0.5,0.5-2.5,2.3-5,4.3c-1.4,1.1-3.7,3-5.2,4.2c-2.9,2.3-6,4.7-7.2,5.4
		c-0.4,0.2-1.4,0.9-2.2,1.6c-0.8,0.6-2,1.3-2.5,1.5c-0.6,0.2-1,0.5-1,0.8c-0.1,0.3-0.2,0.4-0.4,0.2c-0.6-0.3-0.7-0.3-1.5-0.3
		c-1.7,0.1-3.8,0.6-3.8,1c0,0.2-0.1,0.2-0.1,0.1c-0.1-0.2-0.6-0.2-1.2,0c-0.6,0.1-1.5,0.3-1.9,0.3l-0.8,0l0.7-0.5
		c1.1-0.7,1.5-1.1,1.6-1.3c0-0.1,0.2-0.1,0.3,0c0.1,0.1,0.3,0,0.4-0.2c0.1-0.2,0.5-0.5,0.8-0.7c0.3-0.2,1.3-0.9,2.1-1.6
		c0.8-0.7,1.8-1.4,2.2-1.7c0.8-0.6,2.4-2,3-2.6c0.2-0.3,0.6-0.6,0.9-0.7c0.5-0.3,1.9-1.6,2.4-2.2c0.2-0.2,0.7-0.7,1.1-1.1
		c1.2-1.1,1.4-1.3,2.7-2.8c0.4-0.4,0.8-0.8,0.9-0.8c0.3-0.1,1.8-1.8,3.1-3.5c0.9-1.1,1.6-1.8,1.8-2c0.1-0.1,0.4-0.3,0.6-0.6
		c0.2-0.3,0.8-1,1.3-1.5c0.5-0.5,0.9-1.1,0.9-1.2s0.3-0.5,0.6-0.8c0.3-0.3,1-1.1,1.5-1.7c0.5-0.6,1.2-1.6,1.6-2
		c0.9-1.2,1.3-1.8,1.2-2.2c0-0.2,0.1-0.4,0.3-0.4c1-0.2,0.1-4.3-1.1-5.1c-0.7-0.4-0.8-0.4-1.9,1c-0.4,0.4-0.8,1-1.1,1.2
		c-0.4,0.4-0.4,0.5-0.1,0.7c0.3,0.2,0.3,0.2-0.2,0.2c-0.6-0.1-1.4,0.5-2.7,2.1c-0.5,0.6-1,1.1-1.1,1.2c-0.4,0.2-2.3,2.2-2.8,3
		c-0.3,0.4-0.6,0.7-0.6,0.7c-0.1,0-0.4,0.3-0.8,0.7c-0.4,0.4-1.1,1.1-1.5,1.5c-1,0.9-1.6,1.5-4,3.9c-0.9,1-2.4,2.3-3.1,3
		c-0.8,0.7-1.6,1.5-1.9,1.8c-0.7,0.9-1.5,1.6-1.6,1.5c-0.1,0-0.7,0.4-1.4,1.1c-0.7,0.6-1.7,1.5-2.2,1.8c-0.5,0.4-1.1,0.9-1.3,1.1
		c-0.2,0.2-0.9,0.8-1.6,1.2c-0.7,0.5-1.3,1-1.4,1.1c-0.1,0.2-0.3,0.2-0.4,0.2c-0.1-0.1-0.3,0.1-0.5,0.4c-0.2,0.3-0.5,0.5-0.8,0.6
		c-0.2,0-0.5,0.2-0.5,0.4c0,0.2-0.4,0.4-0.8,0.5s-0.8,0.4-1,0.6c-0.1,0.2-0.5,0.6-0.9,0.8c-2,1.2-5.4,3.5-5.9,4
		c-0.3,0.3-0.7,0.6-0.8,0.6c-0.1,0-0.4,0.2-0.5,0.4c-0.1,0.2-0.8,0.7-1.4,1.1c-0.6,0.4-1.2,0.8-1.3,0.9c-0.1,0.1-0.5,0.3-0.9,0.5
		c-0.4,0.2-0.7,0.3-0.5,0.4c0.1,0.1,0.1,0.3,0,0.4c-0.2,0.3-0.8,0.1-0.8-0.3c0-0.2-3.4-0.1-5.2,0.2c-1.2,0.2-4.2,0.5-4.3,0.4
		c-0.1,0-1.3,0.1-2.7,0.2c-2.4,0.3-2.5,0.3-2.1-0.2c0.3-0.3,0.7-0.6,1-0.7c0.7-0.2,4.8-3,5.1-3.5c0.1-0.2,0.3-0.3,0.4-0.2
		c0.1,0.1,0.3-0.1,0.5-0.3c0.1-0.2,0.3-0.4,0.5-0.4c0.1,0,1-0.5,2.1-1.2c1-0.7,2-1.4,2.3-1.5c0.4-0.3,3.7-2.7,7.2-5.4
		c1.2-0.9,2.2-1.8,2.4-2.1c0.2-0.2,0.5-0.5,0.7-0.5c0.2,0,1-0.6,1.7-1.2c0.7-0.6,1.8-1.6,2.4-2.1c4.6-3.8,11.7-11.5,13.2-14.1
		c0.5-1,0.7-2.1,0.3-2.3c-0.2-0.1-2.5,1-2.6,1.2c-0.1,0.1-0.5,0.2-0.9,0.3c-0.6,0.1-0.8,0.3-1,0.8c-0.2,0.4-0.3,0.6-0.4,0.6
		c-0.1-0.1-4.2,3.3-6.2,5.3c-2.9,2.7-5.1,4.5-10.4,8.6c-0.8,0.6-2.2,1.7-3.1,2.4c-2.7,2.2-4.2,3.3-5.6,4.3c-1.8,1.2-1.9,1.3-4.8,3.2
		c-1.5,1-2.7,1.8-2.7,1.8c0,0-1.9,1.3-4.1,2.7c-2.2,1.5-4.8,3.2-5.7,3.9c-1.4,1.1-1.8,1.2-2.8,1.2c-0.6,0-1.2,0.1-1.4,0.2
		c-0.2,0.1-0.5,0.2-0.8,0.1c-0.3-0.1-0.6,0-0.7,0.2c-0.1,0.2-0.3,0.2-0.5,0.1c-0.2-0.1-0.2-0.3,0.1-0.6c1-0.8,1.4-1.1,1.6-1
		c0.1,0.1,0.8-0.3,1.5-0.7c1.2-0.8,3-1.9,4.2-2.6c0.3-0.2,0.7-0.5,0.9-0.8c0.1-0.2,0.6-0.5,0.9-0.6c0.4-0.1,0.7-0.3,0.9-0.5
		c0.1-0.2,0.3-0.4,0.4-0.4c0.3-0.1,2.3-1.5,3.6-2.7c1.3-1.1,1.5-1.3,3.1-2.5c0.7-0.5,1.2-1.1,1.4-1.5c0.2-0.5,0.3-0.6,0.6-0.5
		c0.4,0.3,0.5,0.1,0.6-1c0-0.5,0.2-0.9,0.3-1c0.2-0.1,0.2,0,0.1,0.2c-0.5,1,1.1,0.5,2-0.6c0.3-0.4,0.7-0.7,0.9-0.7
		c0.1,0,0.4-0.3,0.7-0.7c0.2-0.4,0.5-0.7,0.7-0.7c0.1,0,0.6-0.4,0.9-0.8c0.4-0.4,1.5-1.5,2.5-2.4c2-1.7,2.8-2.6,3.4-3.3
		c2.5-3.2,2.5-3.3,3-5.5c0.3-1.1,0.4-2.1,0.3-2.2c-0.1-0.1-0.7-0.2-1.4-0.2c-1.1-0.1-1.4,0-2.1,0.7c-0.5,0.4-0.9,0.7-1,0.7
		c-0.2-0.1-1.8,1.3-2.2,1.8c-0.1,0.2-0.4,0.4-0.6,0.5c-0.2,0.1-1.1,0.8-2,1.5c-0.9,0.8-2,1.7-2.6,2c-0.5,0.4-1,0.7-1.1,0.9
		c-0.1,0.1-0.4,0.4-0.8,0.6c-0.4,0.2-1.2,1-1.9,1.6c-1.1,1.1-1.7,1.6-3.4,2.7c-0.4,0.2-1.2,0.9-1.8,1.5c-1.1,1-1.5,1.4-3.4,2.7
		c-0.6,0.4-1.1,0.8-1.2,0.9c-0.1,0.1-1.3,1-2.7,1.9c-1.4,0.9-2.8,1.8-3,2.1c-0.2,0.2-0.6,0.4-0.9,0.5c-0.2,0-0.5,0.2-0.7,0.4
		c-0.1,0.2-0.4,0.4-0.5,0.4c-0.2,0-2,1.1-4,2.3c-2.1,1.2-3.9,2.3-4.1,2.4c-0.2,0.1-0.3,0.2-0.2,0.2c0.1,0-0.1,0.2-0.3,0.4
		c-0.3,0.2-0.4,0.3-0.3,0.4c0.1,0.1,0.1,0.2,0.1,0.4c-0.1,0.1-0.3,0.1-0.5-0.1c-0.2-0.2-0.3-0.3-0.3-0.1c0,0.1-0.2,0.2-0.4,0.2
		c-0.5,0-1.2,0.4-2.2,1c-2.4,1.7-2.9,1.9-4.9,2c-1.1,0-2.1,0-2.2-0.1c-0.1-0.1-0.4-0.1-0.7,0c-0.4,0.1-2.4,0-5.2-0.2
		c-0.9-0.1-1.8-0.1-2-0.1c-1,0.1-0.3-0.3,2.6-1.8c1.7-0.9,3.1-1.6,3.1-1.7c0,0,0.8-0.4,1.6-0.9c1.5-0.8,2.4-1.3,5-3.1
		c0.7-0.5,1.5-1,1.9-1.3c2.6-1.7,6.3-4.7,6.3-5.1c0-0.2,0.2-0.3,0.5-0.4c1.5-0.2,14.5-12.5,16-15.1c0.3-0.5,0.4-0.8,0.2-0.6
		c-0.4,0.3-0.7,0.2-0.6-0.2c0-0.2-0.5-0.4-1.6-0.7c-1.6-0.5-1.7-0.5-2.9,0.3c-0.7,0.4-1.4,0.8-1.4,1c-0.1,0.1-0.6,0.6-1.1,0.9
		c-1.5,1-1.8,1.3-1.8,1.4c0,0.1-0.6,0.5-1.2,1c-0.6,0.5-1.5,1.3-1.9,1.8c-0.5,0.5-0.9,0.9-1.1,0.9c-0.3,0-1.7,1.2-2.6,2.1
		c-0.3,0.3-1,0.8-1.4,1.1c-0.4,0.2-0.9,0.6-1.1,0.8c-0.1,0.2-0.4,0.4-0.5,0.4s-0.4,0.2-0.6,0.5c-0.2,0.3-0.5,0.6-0.8,0.7
		c-0.3,0.1-1.3,0.9-2.3,1.7c-0.9,0.8-2,1.6-2.2,1.7c-0.3,0.1-0.6,0.4-0.8,0.6c-0.1,0.2-0.5,0.4-0.7,0.5s-0.6,0.3-0.7,0.5
		c-0.1,0.2-0.4,0.4-0.5,0.4c-0.2,0-0.4,0.2-0.4,0.5c-0.1,0.3-0.3,0.5-0.6,0.5c-0.2,0-0.9,0.3-1.5,0.7c-0.6,0.4-1.2,0.7-1.4,0.8
		c-0.2,0.1-1,0.6-1.8,1.1c-0.8,0.5-1.5,0.9-1.7,0.9c-0.2,0-0.4,0.2-0.5,0.4c-0.1,0.2-0.7,0.6-1.3,0.8c-0.6,0.2-1.2,0.5-1.3,0.7
		c-0.1,0.1-0.2,0.2-0.4,0.2c-0.3,0-2.2,1.1-2.4,1.5c-0.1,0.2-0.3,0.3-0.4,0.2c-0.2-0.1-0.6,0.1-2.3,1.3c-0.7,0.5-1.5,1-1.8,1.1
		c-0.2,0.1-0.7,0.4-1,0.5c-0.3,0.2-0.7,0.4-1,0.4c-0.2,0.1-0.5,0.2-0.5,0.3c-0.1,0.1-0.9,0.1-1.9,0s-1.8-0.1-1.8,0
		c-0.1,0.1-0.2,0.1-0.4,0c-0.1-0.1-1.3-0.3-2.7-0.4s-2.5-0.3-2.7-0.3s0-0.1,0.3-0.1s0.6-0.2,0.7-0.3c0.1-0.1,0.3-0.2,0.6-0.3
		s0.6-0.2,0.7-0.4c0.1-0.2,0.6-0.4,1-0.5c0.4-0.1,0.9-0.4,1.1-0.6c0.1-0.2,0.3-0.3,0.4-0.2c0.1,0.1,0.4,0.1,0.7-0.2
		c0.3-0.2,0.7-0.4,0.8-0.5c0.8-0.1,4-1.9,4.3-2.3c0.1-0.2,0.3-0.3,0.5-0.3c0.2,0,1.1-0.5,2-1.1c0.9-0.6,2-1.4,2.5-1.7
		c0.5-0.3,1-0.8,1.1-1c0.1-0.2,0.6-0.7,1.1-1c1.5-1,2.6-1.9,3-2.4c0.2-0.3,0.5-0.5,0.7-0.6c0.6-0.2,2.3-1.7,2.4-2.2
		c0.1-0.3,0-0.4-0.1-0.2c-0.1,0.2-0.2,0.2-0.2,0.1c0-0.1,0.2-0.3,0.4-0.4c0.3-0.1,0.5-0.1,0.5,0.2c0,0.2,0.4-0.1,0.9-0.5
		c0.5-0.5,1.2-1.1,1.5-1.4c1.4-1.3,3.2-3.7,3.5-4.5c0.1-0.3,0.1-1.3-0.1-2.1c-0.2-1.3-0.4-1.6-0.9-1.8c-0.5-0.3-0.7-0.2-1.2,0.3
		c-0.3,0.4-1,1-1.5,1.3c-0.5,0.4-1.1,0.9-1.2,1.2c-0.2,0.3-0.3,0.4-0.4,0.3c0-0.1-0.5,0.2-0.9,0.6c-0.5,0.4-1.8,1.4-2.9,2.1
		c-3.4,2.2-6.4,4.2-6.5,4.4c-0.1,0.1-0.3,0.2-0.6,0.2c-0.3,0-0.6,0.2-0.7,0.4c-0.1,0.2-1,0.9-2,1.5c-1,0.6-1.9,1.2-2,1.4
		s-0.3,0.2-0.5,0.2c-0.2,0-0.5,0.1-0.6,0.3c-0.1,0.2-0.3,0.4-0.4,0.4c-0.3,0-3.1,1.3-4,1.9c-0.5,0.3-1.1,0.6-1.3,0.7
		c-0.3,0-0.4,0.1-0.3,0.2c0.1,0.1-0.2,0.2-0.7,0.3c-0.5,0.1-1,0.4-1.1,0.6c-0.1,0.2-0.4,0.4-0.5,0.4c-0.2,0-0.5,0.1-0.8,0.3
		c-0.3,0.2-1,0.6-1.5,0.9c-0.6,0.3-1.1,0.8-1.2,1c-0.1,0.3-0.2,0.4-0.5,0.2c-0.4-0.2-1.3,0.2-1.7,0.8c-0.1,0.2-0.3,0.3-0.3,0.2
		s-0.6,0.4-1.2,1c-0.6,0.6-1.3,1.2-1.5,1.4c-0.5,0.3-2.5,0.1-5.4-0.6c-2.4-0.6-6.2-0.9-6.4-0.5c-0.1,0.1-0.1,0.5,0,0.8
		c0.1,0.3,0,0.6-0.1,0.6c-0.4,0.2-0.2,0.9,0.7,1.6c0.5,0.4,1.1,0.8,1.3,0.9c0.2,0.1,1.2,0.5,2.1,1c2.5,1.3,6.3,2.9,8.1,3.3
		c0.5,0.1,0.9,0.3,1,0.4c0,0.1,0.1,0.1,0.2-0.1c0.1-0.2,0.4-0.2,1.1,0.2c0.8,0.5,2.3,1,4.2,1.3c0.9,0.2,1.2,0.4,2.9,2.8
		c3.7,5.1,7,8.7,11,11.9c5.5,4.4,12.7,9,16.7,10.7c4.6,2,5.4,2.3,5.8,2.2c0.3-0.1,0.3-0.1,0.3,0.1c-0.1,0.2,0.7,0.5,2.7,1.1
		c3.8,1.1,5.1,1.4,5.7,1.5c0.3,0,1.1,0.2,1.8,0.4c0.7,0.2,1.5,0.3,1.7,0.2c0.2-0.1,0.5,0,0.6,0.1c0.2,0.3,3.5,0.5,4.6,0.4
		c0.7-0.1,2-0.7,2.2-1c0.1-0.1-0.2-0.9-0.6-1.7c-0.6-1.4-0.7-1.5-1.5-1.6c-0.4-0.1-1.3-0.3-2-0.5c-0.7-0.2-1.6-0.4-2-0.4
		c-0.4-0.1-1.4-0.4-2.1-0.7c-0.7-0.3-1.6-0.6-1.9-0.6c-0.3,0-0.9-0.1-1.3-0.3c-0.4-0.1-1.3-0.5-2.1-0.7c-0.8-0.2-1.3-0.5-1.3-0.5
		c0-0.1-0.1-0.1-0.3,0c-0.4,0.1-2-0.4-3.3-1c-0.7-0.3-1.3-0.5-2.5-0.7c-0.3-0.1-0.8-0.2-1.2-0.4c-1-0.5-2.5-1.2-3.4-1.6
		c-2.6-1.1-4.9-2.4-9.4-5.5c-5.2-3.5-11-8.6-12.8-11.4c-0.3-0.4-0.6-0.8-0.7-0.8c-0.1-0.1-0.1-0.3,0-0.4c0.1-0.2,1.1-0.2,2.2-0.1
		c1.8,0.2,2,0.2,2-0.3c-0.1-0.5,0-0.4,0.2,0c0.3,0.5,0.3,0.5,0.6,0.1c0.2-0.3,0.3-0.3,0.6-0.1c0.2,0.2,0.8,0.4,1.5,0.5
		c0.6,0,1.4,0.2,1.6,0.2c0.2,0.1,0.9,0.2,1.4,0.2c0.8,0.1,1.1,0.2,1.1,0.5c0.1,0.5,1.1,1.7,2.2,2.6c0.5,0.4,1.2,1.1,1.6,1.6
		c0.3,0.4,0.7,0.8,0.8,0.8c0.4,0.2,2.1,1.8,2.1,2c0,0.1,0.5,0.6,1.2,1c0.7,0.4,1.4,1,1.7,1.3c0.9,1.1,8.7,6.2,9.4,6.2
		c0.2,0,0.6,0.3,0.9,0.7c0.4,0.5,0.8,0.7,1,0.6c0.2,0,0.4,0,0.5,0.1c0.1,0.2,3.8,2,6,2.9c0.8,0.3,2.5,0.9,4,1.4
		c0.5,0.1,1.3,0.5,1.9,0.7c0.6,0.3,1.2,0.4,1.3,0.4c0.1-0.1,0.5,0,0.8,0.2c0.3,0.2,0.8,0.3,1.2,0.3c0.3,0,1,0.1,1.5,0.4
		c1.5,0.6,3.6,1.2,5.1,1.4c0.4,0,1,0.2,1.4,0.4c0.3,0.2,0.9,0.4,1.3,0.5c0.4,0.1,1,0.2,1.4,0.2s0.9,0.1,1.1,0.2
		c0.3,0,0.6,0.1,0.8,0.2s0.5,0.1,0.7,0c0.2-0.1,0.5-0.1,0.5,0.1c0.1,0.2,1.9,0.5,2.3,0.4c0.1,0,0.7,0,1.3,0.1c0.6,0.1,1.2,0.1,1.2,0
		c0.1-0.1,0.2-0.1,0.4,0c0.1,0.1,1,0.1,1.9,0.1c1.7-0.1,3.4-0.7,6-2.3c1-0.6,1.1-0.7,0.9-1.2c-0.1-0.3-0.6-1-1-1.7l-0.9-1.1
		l-1.3-0.1c-0.7-0.1-1.5-0.2-1.8-0.4c-0.2-0.1-0.6-0.2-0.7-0.2c-0.3,0.1-3-0.5-8-1.6c-1.7-0.4-3.5-0.7-3.9-0.8
		c-0.4,0-1.2-0.2-1.8-0.5c-0.5-0.2-1.1-0.4-1.2-0.3c-0.1,0.1-0.3,0-0.3-0.1c-0.1-0.1-0.9-0.4-1.9-0.6c-1-0.2-2-0.5-2.3-0.7
		c-0.3-0.2-0.8-0.3-1.2-0.3c-0.4,0-1.1-0.1-1.5-0.4c-0.4-0.2-1.4-0.6-2.3-0.9c-3.1-1-12.3-4.8-13.4-5.5c-0.3-0.2-2.8-1.8-5.5-3.5
		c-6.3-4-6.8-4.3-6.6-4.5c0.1-0.1,0.3-0.1,0.4,0c0.2,0.1,0.4,0.1,0.4,0s0.6,0.1,1.2,0.5c1,0.6,1.2,0.7,2.3,0.4
		c1.7-0.5,3.1-0.8,3.3-0.6c0.1,0.1,0.2,0,0.4-0.2c0.1-0.2,0.4-0.2,0.7,0c0.6,0.4,2.4,0.5,3.1,0.2c0.4-0.2,0.7-0.1,0.9,0.1
		c0.2,0.2,0.4,0.3,0.6,0.2c0.5-0.3,2,0.1,3.5,1c0.9,0.5,2,1.1,2.5,1.3c0.5,0.2,1.5,0.7,2.2,1.1s1.5,0.7,1.6,0.7
		c0.1,0,0.9,0.4,1.7,0.8c0.8,0.5,1.6,0.8,1.8,0.8c0.2,0,0.4,0,0.5,0.1c0.3,0.3,3.3,1.4,3.7,1.4c0.2,0,0.5,0.1,0.7,0.2
		c0.2,0.2,1.2,0.6,2.1,1c1.5,0.6,1.8,0.6,2.1,0.3c0.3-0.4,0.3-0.4,0.2,0.1c-0.1,0.5,0,0.6,0.7,0.8c0.6,0.1,2.2,0.6,3.3,1
		c0.5,0.2,1.5,0.5,2.3,0.7c0.7,0.2,1.9,0.6,2.6,0.8c0.7,0.3,1.4,0.5,1.6,0.4c0.2,0,0.5,0.1,0.8,0.2c0.3,0.2,0.6,0.2,0.7,0.2
		c0.1-0.1,0.4,0,0.6,0.1c0.8,0.5,5.4,1.5,5.6,1.2c0.1-0.2,0.3-0.2,0.6,0.1c0.3,0.2,0.7,0.4,0.9,0.3c0.2-0.1,0.9,0.1,1.4,0.3
		c0.6,0.2,1.1,0.4,1.3,0.4c0.3,0,1.2,0.2,2.8,0.7c0.3,0.1,0.6,0.1,0.7,0c0.1-0.1,0.3-0.1,0.5,0.1c0.2,0.1,0.7,0.3,1.1,0.4
		c0.4,0.1,0.9,0.2,1.1,0.2c1.1,0.4,1.5,0.4,1.6,0.2c0.1-0.2,0.3-0.3,0.3-0.2c1.4,0.7,2.1,1,2.4,1c0.3-0.1,0.3-0.1,0.1-0.2
		c-0.1-0.1-0.2-0.2-0.1-0.4c0.1-0.1,0.2,0,0.4,0.3c0.2,0.4,0.5,0.5,1.4,0.6c0.6,0.1,1.9,0.3,2.7,0.4c0.9,0.2,1.6,0.2,1.6,0
		c0-0.1,0.1-0.1,0.2,0c0.1,0.2,0.7,0.3,1.2,0.4c0.6,0,1.1,0.2,1.2,0.2c0.1,0.1,1,0.1,2,0.1c1,0,1.8,0,1.9,0c0.3,0.2,1.9-0.4,2.8-1
		c0.6-0.4,1.4-1.2,2.3-2.4c1.2-1.6,1.3-1.9,1.2-2.4c-0.1-0.8-1-1.3-1.4-1c-0.2,0.1-1.2,0.2-2.3,0c-1.1-0.1-2-0.1-2.1,0
		c-0.1,0.1-0.2,0.1-0.2,0c-0.1-0.3-3.4-0.9-4.1-0.8c-0.3,0-0.5,0-0.5-0.1c0-0.1-0.2-0.2-0.4-0.2c-0.8,0.1-2.5,0-3-0.3
		c-1-0.4-1.6-0.5-2.8-0.5c-0.6,0-1.3-0.1-1.5-0.2c-0.8-0.4-2.4-0.6-3.2-0.4c-0.6,0.2-0.9,0.1-1.4-0.3c-0.5-0.5-1.6-0.8-4.4-1.2
		c-0.3,0-1-0.2-1.6-0.4c-0.6-0.2-1.3-0.2-1.7-0.2c-0.3,0.1-0.6,0-0.7-0.1c0-0.2-1.4-0.6-3.1-1c-1.6-0.4-3.3-0.8-3.6-1
		c-0.3-0.1-1.3-0.4-2.1-0.6c-0.8-0.2-1.8-0.4-2.1-0.6c-0.4-0.2-1.4-0.4-2.2-0.6c-0.8-0.2-1.7-0.4-1.8-0.5c-0.4-0.2-1-0.4-3-1
		c-0.7-0.2-1.7-0.5-2.4-0.7c-0.8-0.2-1.1-0.3-1,0c0.1,0.3,0.1,0.3-0.2,0.1c-0.2-0.1-0.3-0.3-0.2-0.4c0.1-0.1,0-0.2-0.3-0.3
		c-0.4,0-0.9-0.2-3.2-1.2c-1-0.4-0.8-0.5,1.3-0.4c0.7,0.1,1.4,0,1.4-0.1c0.1-0.1,0.5-0.2,0.8-0.1c0.9,0.1,3.5,0,4-0.1
		c0.2-0.1,0.9-0.1,1.5-0.2c0.6,0,1.8-0.2,2.6-0.4c1.6-0.3,2.3-0.4,3.1-0.2c0.2,0.1,0.5,0,0.6-0.1c0.1-0.1,0.5-0.1,1-0.1
		c0.5,0.1,1.4,0,2.1-0.1c0.7-0.1,1.3-0.2,1.4-0.2c0.1,0,0.9-0.1,1.9-0.3c1-0.2,1.9-0.2,2.1-0.1c0.2,0.1,0.8,0.3,1.2,0.3
		c0.5,0,0.9,0.2,1.1,0.5c0.4,0.7,4.2,2.3,9.7,4.2c0.3,0.1,1,0.4,1.5,0.5c1.8,0.7,3.5,1,3.9,0.8c0.2-0.2,0.3-0.2,0.3,0.1
		c0,0.3,2,0.9,7.6,2.2c1,0.2,1.9,0.5,2,0.6c0.1,0.1,1.1,0.2,2.1,0.4c1.1,0.1,2.4,0.3,3.1,0.4c0.6,0.1,1.5,0.2,1.9,0.3
		c0.4,0,0.9,0.2,1.1,0.3c0.2,0.1,0.8,0.2,1.4,0.2c0.6,0,1.2,0,1.3,0.1c0.5,0.3,4.3,0.6,4.4,0.3c0.1-0.2,0.1-0.4-0.1-0.5
		c-0.1-0.1-0.1-0.2,0-0.2c0.1,0,0.3,0.1,0.4,0.4c0.1,0.3,0.4,0.5,1.4,0.6c2.3,0.3,4.2,0.5,4.6,0.5c0.2,0,0.5,0,0.7,0.1
		c0.3,0.1,2.4,0.4,3.3,0.4c0.4,0,1,0.1,1.4,0.1c2.1,0.2,3.4,0.2,5.9-0.4c1.5-0.4,2.9-0.8,3-1c0.3-0.5-1.8-3.7-2.7-4.3
		c-0.4-0.3-1.7-0.5-3-0.7c-1.3-0.1-2.4-0.3-2.5-0.3c-0.1,0-2.1-0.3-4.6-0.5c-10.5-1-14.8-1.4-14.8-1.2c0,0.1-0.2,0.1-0.5-0.1
		c-0.3-0.2-1.2-0.4-1.9-0.4c-2-0.2-5.8-0.8-9.5-1.6c-1.7-0.4-3.4-0.7-3.8-0.6c-0.4,0-0.8-0.1-1.1-0.3c-0.2-0.2-1.1-0.4-1.8-0.6
		c-1.8-0.4-7.3-1.9-7.5-2c-0.1-0.1,0.2-0.2,0.6-0.2c0.4-0.1,0.8-0.1,0.9,0c0.1,0.1,1.8-0.3,3.9-0.7s3.8-0.8,3.9-0.7
		c0.1,0.1,0.3,0,0.3-0.1c0.1-0.1,0.5-0.3,0.9-0.3c0.8-0.1,1.3-0.2,5.1-1c1-0.2,2-0.6,2.1-0.8c0.1-0.2,0.4-0.3,0.5-0.2
		s0.6,0.1,0.9-0.1c0.3-0.1,0.6-0.2,0.5-0.1c-0.1,0.2,0.6,0.1,1.5-0.1c3.1-0.9,3.7-0.9,9.3-0.4c3.1,0.3,6.1,0.5,6.7,0.5
		c0.6,0,3.6,0.2,6.7,0.4c3.1,0.2,7,0.4,8.8,0.3c1.7,0,4-0.1,4.9-0.1c1,0,2.4-0.1,3.1-0.2c0.7-0.1,1.3-0.1,1.2,0c0,0.1,0.6,0,1.4-0.1
		c0.8-0.1,2.5-0.3,3.7-0.4c2.3-0.2,3.1-0.4,4.7-1.4C1278.9,350.8,1278.9,350.7,1278.7,350.2z M1248.3,324.6c0.2,0.1,0.3,0.2,0.2,0.3
		c-0.1,0-0.3-0.1-0.4-0.2C1248,324.4,1248.1,324.4,1248.3,324.6z M1230.9,328.1c0,0.1-0.1,0.3-0.2,0.4c-0.2,0.1-0.2,0,0-0.2
		C1230.7,328.1,1230.8,328,1230.9,328.1z M1200.3,330.9c0.2,0.1,0.3,0.3,0.2,0.4c-0.1,0.1-0.2,0.2-0.3,0.1c-0.1-0.1-0.2-0.2-0.2-0.4
		C1200,330.8,1200.2,330.7,1200.3,330.9z M1178.3,340.5c0.1,0.1,0.1,0.3,0,0.4c-0.1,0.1-0.2,0.1-0.3,0.1c-0.1-0.1-0.1-0.3,0-0.4
		S1178.3,340.4,1178.3,340.5z M1158.9,332.2c0,0.1-0.1,0.3-0.2,0.4c-0.2,0.1-0.2,0,0-0.2C1158.7,332.1,1158.8,332,1158.9,332.2z
		 M1143.6,343.5c0.1,0.2,0.1,0.5,0,0.5c-0.2,0.1-0.4-0.5-0.3-0.7C1143.4,343.1,1143.5,343.3,1143.6,343.5z M1153.4,381.4
		c0.1,0.1,0.1,0.3,0,0.4c-0.1,0.2-0.2,0.3-0.3,0.3c0,0,0-0.2,0-0.4C1153.2,381.5,1153.3,381.3,1153.4,381.4z M1145.7,378
		c0.2,0.1,0.3,0.3,0.2,0.4c-0.1,0.1-0.3,0.1-0.4,0c-0.2-0.1-0.3-0.3-0.2-0.4C1145.3,377.9,1145.5,377.9,1145.7,378z M1133.5,374.8
		c0.1,0.1,0.1,0.2,0.1,0.3c-0.1,0.1-0.2,0.1-0.3,0.1c-0.1-0.1-0.1-0.2-0.1-0.3C1133.3,374.8,1133.4,374.8,1133.5,374.8z M1123,363.6
		c0,0.1-0.1,0.3-0.2,0.4c-0.2,0.1-0.2,0,0-0.2C1122.8,363.6,1123,363.5,1123,363.6z M1139.5,346.6c-0.1-0.2,0-0.2,0.2,0
		c0.2,0.1,0.3,0.2,0.2,0.3C1139.8,346.8,1139.6,346.7,1139.5,346.6z M1138.2,352.8c-0.4,0.3-1,0-0.9-0.5c0.1-0.3,0.2-0.3,0.6-0.1
		C1138.3,352.4,1138.4,352.6,1138.2,352.8z M1163.1,373.1c0.1,0.1,0.1,0.2,0.1,0.3c-0.1,0.1-0.2,0.1-0.3,0.1s-0.1-0.2-0.1-0.3
		C1162.8,373.1,1163,373,1163.1,373.1z M1144,355.8c-0.2,0.1-0.3,0.2-0.4,0.2s0-0.2,0.1-0.4c0.1-0.2,0.3-0.3,0.4-0.2
		C1144.2,355.5,1144.1,355.7,1144,355.8z M1156.3,349c-0.1-0.1-0.1-0.3,0-0.4c0.1-0.2,0.3-0.3,0.4-0.2c0.1,0.1,0.1,0.3,0,0.4
		C1156.6,349,1156.4,349.1,1156.3,349z M1160.6,349.1c-0.2-0.1-0.3-0.3-0.2-0.4c0.1-0.1,0.2-0.1,0.4,0.1c0.1,0.2,0.2,0.3,0.2,0.4
		C1161,349.3,1160.8,349.2,1160.6,349.1z M1161.8,349.5c-0.1,0.1-0.3,0.1-0.4,0c-0.1-0.1-0.1-0.2-0.1-0.3c0.1-0.1,0.3-0.1,0.4,0
		C1161.9,349.3,1161.9,349.5,1161.8,349.5z M1167,365.3c-0.2,0.1-0.2,0,0-0.2c0.1-0.2,0.2-0.3,0.3-0.2
		C1167.2,365,1167.1,365.2,1167,365.3z M1171.5,360.2c-0.1,0-0.3-0.1-0.4-0.2c-0.1-0.2,0-0.2,0.2,0
		C1171.5,360.1,1171.6,360.2,1171.5,360.2z M1188.9,372.6c0,0.1-0.1,0.3-0.2,0.4c-0.2,0.1-0.2,0,0-0.2
		C1188.8,372.6,1188.9,372.5,1188.9,372.6z M1185.7,359.2c-0.2-0.1-0.2-0.3-0.1-0.3c0.1-0.1,0.3-0.1,0.4,0c0.1,0.1,0.1,0.2,0.1,0.3
		C1186.1,359.3,1185.9,359.3,1185.7,359.2z M1205.2,351.3c-0.1,0.1-0.1,0,0.1-0.3s0.3-0.4,0.3-0.2
		C1205.5,350.9,1205.3,351.2,1205.2,351.3z M1245.9,364.1c0,0.1-0.1,0.3-0.2,0.4c-0.2,0.1-0.2,0,0-0.2
		C1245.8,364.1,1245.9,364,1245.9,364.1z M1243,364c0.1,0.1,0,0.3-0.2,0.5c-0.2,0.2-0.4,0.3-0.4,0.3c0,0,0-0.2,0.2-0.5
		S1242.9,363.9,1243,364z M1237.1,367.1c0.6,0,0.8,0.1,0.5,0.5c-0.2,0.2-0.2,0.2-0.2,0c0.1-0.3,0-0.3-0.3-0.2
		c-0.2,0.1-0.4,0.1-0.4-0.1C1236.7,367.3,1236.9,367.1,1237.1,367.1z M1230,364.6c0,0.1-0.1,0.3-0.2,0.4c-0.2,0.1-0.2,0,0-0.2
		C1229.9,364.6,1230,364.5,1230,364.6z M1228,367.3c0.3-0.2,0.4-0.2,0.4,0.1c0.1,0.3,0,0.4-0.3,0.4c-0.2,0-0.4-0.1-0.4-0.1
		C1227.6,367.7,1227.8,367.5,1228,367.3z M1215.7,360c0.2,0.1,0.3,0.3,0.2,0.4c-0.1,0.1-0.3,0.1-0.4,0c-0.2-0.1-0.3-0.3-0.2-0.4
		C1215.4,359.9,1215.6,359.9,1215.7,360z M1234.6,336.5c-0.1-0.2,0-0.2,0.2,0c0.2,0.1,0.3,0.2,0.2,0.3
		C1234.9,336.7,1234.7,336.6,1234.6,336.5z M1226.1,351.3c-0.1-0.1-0.1-0.2,0-0.3c0.1-0.1,0.3-0.1,0.3-0.1s0,0.1,0,0.3
		C1226.4,351.3,1226.2,351.3,1226.1,351.3z M1241.2,331.7c-0.1,0-0.3-0.1-0.4-0.2c-0.1-0.2,0-0.2,0.2,0
		C1241.2,331.5,1241.3,331.7,1241.2,331.7z M1236.4,344.6c0,0.1-0.1,0.3-0.2,0.4c-0.2,0.1-0.2,0,0-0.2
		C1236.2,344.6,1236.3,344.5,1236.4,344.6z M1236,345.8c-0.4,0.2-0.5,0.2-0.5,0c0-0.2,0.3-0.3,0.5-0.3
		C1236.6,345.4,1236.6,345.4,1236,345.8z M1236.8,344.5c-0.1-0.1-0.1-0.4,0.1-0.6s0.4-0.5,0.5-0.4c0.1,0.1,0.1,0.4-0.1,0.6
		S1236.9,344.6,1236.8,344.5z M1239.8,343.5c-0.2,0-0.6,0-1-0.2c-0.5-0.2-0.6-0.3-0.3-0.3c0.2,0,0.6,0.1,0.8,0.2
		c0.2,0.1,0.4,0.1,0.5,0c0.1-0.1,0.2-0.1,0.2,0S1240,343.4,1239.8,343.5z M1241.7,343.7c-0.2,0-0.4-0.2-0.5-0.3
		c-0.1-0.1,0-0.1,0.3,0.1C1241.7,343.6,1241.8,343.7,1241.7,343.7z M1246.5,339.9c-0.1-0.1-0.1-0.2-0.1-0.3c0.1-0.1,0.2-0.1,0.3-0.1
		s0.1,0.2,0.1,0.3C1246.7,339.9,1246.6,340,1246.5,339.9z M1248.3,339.8c0.2-0.4,0.2-0.4,0.3,0.1c0,0.3,0.2,0.6,0.4,0.7
		c0.2,0.1,0.3,0.4,0.2,0.6c0,0.2-0.2,0.3-0.3,0.3c-0.1-0.1-0.1-0.2-0.1-0.3c0.1-0.1-0.1-0.4-0.3-0.5
		C1248.3,340.4,1248.2,340,1248.3,339.8z M1245.2,345.5c0.3-0.1,0.5,0.1,0.6,0.5c0.1,0.6-0.1,0.8-0.5,0.5
		C1244.9,346.3,1244.8,345.6,1245.2,345.5z M1262.6,349.7c-0.1,0-0.3-0.1-0.4-0.2c-0.1-0.2,0-0.2,0.2,0
		C1262.6,349.5,1262.7,349.7,1262.6,349.7z"/>
	<path class="st0" d="M1175,597.3c-3.4,0.4-18.1,1.6-26.7,2.2c-2.1,0.2-7.3,0.6-11.5,1c-4.2,0.4-9.8,0.9-12.4,1
		c-4.9,0.4-10.1,0.8-16.7,1.6c-2.1,0.2-5.9,0.5-8.3,0.6c-5.4,0.2-7.9,0.4-13.5,0.9c-5.5,0.5-10.7,0.9-19.5,1.5
		c-3.9,0.3-9.8,0.7-13.3,0.9c-8.5,0.6-12.9,0.9-19.9,1.6c-3.3,0.3-8.4,0.7-11.3,0.9c-2.9,0.2-7.5,0.4-10.1,0.6
		c-2.6,0.2-6.8,0.4-9.4,0.6c-2.6,0.2-5.5,0.4-6.4,0.6s-4.6,0.4-8.1,0.6c-3.5,0.2-7.1,0.5-8,0.6c-0.9,0.1-3.9,0.4-6.8,0.5
		c-2.9,0.2-6.1,0.3-7.2,0.4s-4.5,0.3-7.7,0.4c-7,0.4-9.4,0.5-14.3,0.9c-5.5,0.4-6.5,0.5-9.6,0.8c-1.5,0.2-5.7,0.4-9.2,0.6
		c-3.5,0.2-8.1,0.5-10.3,0.6c-2.1,0.2-6.3,0.4-9.3,0.5s-6,0.3-6.7,0.4c-1.2,0.2-6.7,0.5-16.6,1c-2.8,0.1-8.1,0.5-11.8,0.7
		c-3.6,0.2-8.8,0.5-11.5,0.6c-2.7,0.1-6.7,0.4-9,0.6c-2.2,0.2-5.8,0.5-7.9,0.6c-2.1,0.1-4.5,0.3-5.3,0.4c-0.8,0.1-3.4,0.3-5.8,0.3
		c-2.4,0-5.4,0.2-6.8,0.3c-3.1,0.3-9.8,0.7-20.3,1.3c-4.4,0.2-9.1,0.5-10.5,0.7c-1.4,0.2-5.6,0.4-9.3,0.5c-3.7,0.1-7.4,0.3-8.1,0.5
		c-0.7,0.2-4,0.4-7.1,0.5c-3.2,0.1-7.8,0.4-10.3,0.6c-2.5,0.2-7,0.5-10.1,0.6c-9,0.5-13.1,0.8-15.2,1.1c-1.1,0.2-3.2,0.3-4.8,0.3
		c-1.6,0-5.7,0.2-9.2,0.4c-3.5,0.2-9,0.6-12.3,0.8c-3.3,0.2-6.6,0.4-7.3,0.5c-0.7,0.1-3.5,0.2-6.2,0.4c-2.7,0.1-6,0.4-7.3,0.5
		c-1.3,0.2-4.2,0.4-6.4,0.5c-2.2,0.1-4.2,0.3-4.4,0.3c-0.2,0.1-3.4,0.3-7.1,0.4c-9.2,0.4-17.5,0.9-29.2,1.9
		c-2.7,0.2-7.6,0.5-10.9,0.7s-6.5,0.3-7.1,0.4c-0.6,0.1-2.7,0.2-4.7,0.3s-3.8,0.3-4,0.4c-0.2,0.1-2.6,0.3-5.4,0.4
		c-2.7,0.1-6.3,0.4-8,0.5c-1.6,0.2-4.8,0.4-7.1,0.6s-6,0.4-8.3,0.6c-4.3,0.3-7,0.5-11.1,0.7c-1.2,0.1-3.9,0.3-6,0.4
		c-7.8,0.6-11.7,0.9-16.5,1.2c-2.7,0.1-5.8,0.4-6.8,0.6c-2.1,0.3-11.9,1.1-17.3,1.4c-3.4,0.2-8.3,0.5-15,1c-1.9,0.2-5.4,0.4-7.9,0.4
		s-5.3,0.3-6.2,0.4c-0.9,0.1-3,0.3-4.5,0.3c-1.5,0-4.3,0.2-6.1,0.4c-1.8,0.2-4.4,0.4-5.8,0.4c-2.3,0-6.3,0.3-20,1.3
		c-10.8,0.9-13.3,1.1-15.6,1.3c-1.3,0.1-4.4,0.3-6.8,0.4c-6.1,0.2-21.6,1.3-23.8,1.6c-1,0.2-4.3,0.4-7.3,0.6c-3,0.2-6.1,0.4-6.8,0.6
		c-0.7,0.2-2.7,0.4-4.5,0.4c-1.8,0.1-5.1,0.3-7.5,0.5c-2.4,0.2-8.6,0.7-13.9,1c-5.3,0.3-10.8,0.7-12.2,0.9c-1.4,0.2-5.6,0.5-9.4,0.7
		c-3.8,0.3-8.5,0.7-10.6,0.9c-2,0.3-4.5,0.5-5.6,0.5c-3.6,0.2-11.8,2-14.1,3.1c-1.4,0.7-1.6,0.9-1.6,2.1c0,0.7,0.2,1.9,0.4,2.5
		c0.2,0.6,0.5,2.8,0.6,4.7c0.1,1.9,0.3,4.6,0.5,5.9c0.3,2.4,0.4,2.4,1.9,3.2c0.9,0.4,1.8,1.1,2.1,1.6c0.9,1.5,1.8,1.8,4.1,1.7
		c5.8-0.5,8.3-0.7,10.5-1.2c1.4-0.3,3-0.4,3.5-0.3c0.6,0.1,1.9,0,2.9-0.2c1-0.2,3.2-0.4,5-0.4c6.6-0.2,11-0.5,13-0.9
		c1.2-0.2,3.3-0.4,4.8-0.4c1.5,0,3.7-0.1,4.9-0.3c1.3-0.2,4.2-0.3,6.4-0.4c2.3-0.1,4.3-0.2,4.6-0.3c0.8-0.3,9.6-1.1,10.8-0.9
		c0.6,0.1,2.6,0,4.5-0.2c5.4-0.5,11.4-0.9,12.8-0.9c0.7,0,2.2-0.2,3.4-0.4c1.2-0.3,4.1-0.5,6.6-0.5c2.5,0,5-0.2,5.6-0.3
		c1.3-0.2,8.9-0.7,13.5-0.9c1.9-0.1,4.1-0.2,4.9-0.3c1.3-0.2,4.6-0.4,7.1-0.4c0.5,0,2.2-0.2,3.8-0.4c1.6-0.2,5-0.5,7.5-0.6
		c6.7-0.2,9.8-0.4,12.2-0.7c1.2-0.1,2.6-0.2,3.3-0.1c0.6,0.1,2.5,0,4.3-0.2c1.7-0.2,4-0.4,5.1-0.4c1.1,0,2.8-0.2,3.9-0.4
		c2.4-0.4,10.4-0.9,16.6-1c2.5-0.1,6-0.3,7.9-0.6c1.9-0.3,5.1-0.5,7.1-0.5c2,0,5.5-0.2,7.9-0.4s5.1-0.4,6.2-0.4
		c1.1,0,2.7-0.1,3.7-0.3c1.5-0.3,8.2-0.7,13.9-1c3.3-0.2,11.2-0.8,13.5-1c1.2-0.1,3.6-0.3,5.3-0.3c1.8,0,3.9-0.2,4.7-0.3
		c0.8-0.2,2.5-0.3,3.7-0.3c1.2,0,3.6-0.2,5.3-0.3c1.8-0.2,4.3-0.3,5.6-0.4c4.3-0.1,16.2-1,16.7-1.2c0.3-0.1,2.2-0.3,4.4-0.3
		c6.5-0.2,7.7-0.3,8.7-0.5c0.5-0.1,3.3-0.3,6.2-0.5c5.4-0.3,10-0.7,14.9-1.3c1.5-0.2,4.8-0.4,7.3-0.4c2.5,0,5.1-0.1,5.8-0.2
		c0.7-0.1,2.8-0.2,4.7-0.3c8.7-0.4,19.5-1.1,21.6-1.4c1.1-0.2,4.4-0.4,7.5-0.6s6.6-0.3,7.9-0.4c1.3-0.1,4-0.2,6-0.3
		c2-0.1,5-0.3,6.6-0.4c3.9-0.3,13.4-0.9,16.9-1c3.9-0.2,10.2-0.7,10.7-0.9c0.4-0.2,6.2-0.5,15.7-0.9c1.7-0.1,3.3-0.2,3.5-0.3
		c0.2-0.1,3.4-0.3,6.9-0.5c3.6-0.2,8.3-0.4,10.6-0.6c2.2-0.2,7-0.4,10.7-0.6c3.6-0.1,7.5-0.4,8.5-0.6c1-0.2,3.3-0.3,4.9-0.3
		c3.4,0.1,15.9-0.7,19.4-1.2c1.3-0.2,3.7-0.3,5.3-0.3c1.7,0,3.8-0.1,4.8-0.3c0.9-0.1,4.3-0.3,7.5-0.4c3.2-0.1,6.8-0.3,7.9-0.5
		c2.3-0.3,12.9-0.9,18.4-1c1.9,0,4.1-0.2,4.9-0.4c1.4-0.3,4.6-0.5,13.3-0.8c2.5-0.1,6.5-0.3,9-0.5c2.5-0.2,4.9-0.3,5.3-0.3
		c0.5,0,4.2-0.3,8.3-0.5c4.1-0.3,7.6-0.5,7.8-0.4c0.2,0.1,1.2,0,2.4-0.2c2.3-0.3,10.4-0.9,14.8-1.1c3.3-0.1,17.2-1.2,18.2-1.5
		c0.3-0.1,3.6-0.3,7.3-0.4s9.3-0.5,12.6-0.8c3.3-0.3,6.7-0.5,7.6-0.4c0.9,0,2.4-0.1,3.4-0.3c1-0.2,4.2-0.4,7-0.6
		c2.8-0.1,6.6-0.4,8.3-0.6c1.8-0.2,4.6-0.4,6.2-0.4c1.6-0.1,4.4-0.2,6.2-0.4c7.1-0.6,11.5-1,13.9-1.1c2.9-0.1,2.9-0.1,11.1-1
		c3.3-0.4,7.5-0.7,9.4-0.8c1.9-0.1,5.5-0.3,8.1-0.6c2.6-0.3,5.3-0.4,6.1-0.3c0.8,0.1,2.5,0,3.8-0.2c2.4-0.4,8.4-0.9,11-0.8
		c2.2,0,9.2-0.5,12.4-1c1.7-0.2,3.3-0.3,3.7-0.2c0.4,0.1,1.4,0,2.2-0.1c0.8-0.2,2.6-0.3,4-0.3c1.4,0,4.6-0.2,7.2-0.4
		c2.6-0.2,6.8-0.6,9.4-0.7c2.6-0.2,5.8-0.4,7.1-0.6c5.9-0.7,12.9-1.2,13.8-1.1c0.5,0.1,1.8,0,2.9-0.1c1.1-0.2,3.3-0.4,4.9-0.6
		c1.6-0.2,4.1-0.5,5.6-0.7c1.4-0.2,3.9-0.5,5.6-0.5c1.6,0,4.7-0.2,6.8-0.5c2.1-0.2,4.9-0.5,6.2-0.5c1.3-0.1,3.7-0.3,5.3-0.6
		c6-0.9,12.4-1.7,13.8-1.9c0.8-0.1,1.5-0.3,1.8-0.5c0.5-0.4,1.4-11.7,1.4-17.9c0-3.6-0.2-5-0.5-5.2
		C1185.5,597,1178.8,596.9,1175,597.3z"/>
	<path class="st0" d="M224.1,459.2c0.5-0.4,1.3-1.3,1.8-2c0.5-0.7,1.2-1.5,1.4-1.7c0.3-0.3,0.5-0.7,0.4-1c0-0.3,0.1-0.5,0.2-0.5
		c0.6,0,1.2-0.2,1.2-0.4c0-0.2,0.3-0.7,0.6-1.2c0.4-0.5,0.7-1,0.6-1.1c0-0.1,0.5-0.8,1-1.5c0.6-0.7,1.1-1.4,1-1.6
		c0-0.1,0.4-0.8,0.9-1.5c0.5-0.7,1.1-1.6,1.2-2c0.1-0.4,0.4-0.8,0.6-0.8c0.2,0,0.5-0.4,0.6-0.9c0.2-0.5,0.6-1.4,0.9-2.1
		c0.3-0.7,0.6-1.5,0.6-1.9c0-0.3,0.1-0.7,0.2-0.8c0.1-0.1-0.3-1.4-1-3c-0.7-1.6-1.4-3.1-1.5-3.5c-0.1-0.4-0.7-0.8-1.5-1.1
		c-1.1-0.4-1.4-0.4-1.8-0.1c-0.9,0.7-4.5,6.7-4.4,7.4c0,0.2-0.1,0.3-0.3,0.3c-0.2,0-0.3,0.2-0.3,0.4c0,0.2-0.3,0.7-0.6,1.1
		c-0.4,0.4-0.6,0.9-0.5,1c0.1,0.1,0,0.3-0.3,0.5c-0.4,0.2-1.5,2.2-1.5,2.8c0,0.1-0.3,0.5-0.5,0.9c-0.3,0.4-0.9,1.2-1.4,1.9
		c-0.5,0.7-1.3,2-2,2.9c-0.6,0.9-1.1,1.9-1,2.1c0.1,0.2,0,0.3-0.3,0.2c-0.2-0.1-0.7,0.4-1.2,1c-0.4,0.6-1.9,2.5-3.3,4.2
		c-4.1,5.1-6.7,8.3-7.2,9.2c-0.2,0.4-1,1.4-1.7,2.1c-1.5,1.6-2.6,1.9-9.8,2.8c-5.5,0.7-8.7,0.9-18.8,1.5c-6.6,0.4-7.2,0.4-9.5,0.2
		c-3.5-0.2-8.2,0-10.2,0.5c-2.5,0.6-5.7,1.7-5.8,2c-0.1,0.2,0.2,0.8,0.5,1.4c0.4,0.6,0.7,1.4,0.7,1.8s0.2,0.6,0.3,0.6
		c0.1,0,0.3,0.3,0.4,0.6s0.3,0.6,0.5,0.5c0.2-0.1,0.3,0.1,0.3,0.3c0,0.2,0.2,0.4,0.5,0.4c6.7,0.1,9,0,9.2-0.3c0.1-0.3,0.2-0.3,0.4,0
		c0.1,0.3,0.8,0.4,2.2,0.3c1.1-0.1,2.3-0.1,2.7-0.1c2.1-0.1,3.2-0.4,3.2-0.8c0-0.6,0.4-0.6,0.7,0c0.2,0.4,0.8,0.4,5.1-0.1
		c3.7-0.4,5-0.6,5.4-1c0.3-0.3,0.5-0.4,0.7-0.1c0.3,0.4,4.8-0.1,10.6-1.4c1.4-0.3,2.6-0.6,2.7-0.6c0.6-0.1,0.5,0.2-0.7,1.5
		c-1.2,1.4-2.9,3.1-3.6,3.6c-0.1,0.1-0.2,0.4,0,0.7c0.2,0.4,0.1,0.5-0.3,0.5c-0.3,0-0.9,0.1-1.2,0.3c-0.5,0.3-0.9,0.2-1.6,0
		c-0.8-0.3-0.9-0.3-1.3,0.3c-0.5,0.8-3.2,2.5-5.6,3.5c-3.8,1.6-11.8,2.9-16.8,2.7c-1.7-0.1-3.6-0.1-4.2-0.1c-0.6,0-1.2-0.1-1.3-0.2
		c-0.1-0.1-0.9-0.1-1.7,0.1c-1.3,0.2-1.6,0.2-1.6-0.1c0-0.3-0.5-0.5-1.4-0.5c-0.8-0.1-1.6-0.1-1.8-0.2c-0.2,0-1-0.1-1.8-0.1
		c-0.7,0-2.9-0.3-4.9-0.5c-2-0.2-4.4-0.4-5.3-0.4c-1,0-2.8-0.1-4.1-0.1c-3.8-0.1-7.7,0.3-9.3,1c-0.7,0.3-1.3,0.7-1.3,0.9
		c0,0.3,1.5,2,2.4,2.7c0.3,0.3,0.6,0.6,0.6,0.7c0,0.1,0.5,0.6,1.1,1.1c1.2,1,3.5,1.6,4.3,1c0.3-0.2,0.8-0.2,1.4-0.1
		c0.5,0.1,1.2,0.1,1.6-0.1c0.4-0.2,0.8-0.2,1.1,0.1c0.3,0.2,1,0.3,1.9,0.2c2-0.2,5.1-0.1,8.2,0.3c3.4,0.4,4.9,0.4,5.1-0.1
		c0.2-0.3,0.2-0.3,0.4-0.1c0.2,0.4,1.4,0.6,4.7,0.8c2.3,0.2,2.5,0.2,4,0.4c0.9,0.1,1.2,0,1.4-0.3c0.2-0.4,0.3-0.4,0.5,0
		c0.2,0.3,1.3,0.3,4.9,0.1c2.5-0.2,5.2-0.5,5.9-0.7c0.7-0.2,1.7-0.5,2.2-0.6s1.2-0.3,1.5-0.4c0.4-0.2,0.7-0.1,0.7,0.1
		c0,0.2-0.1,0.3-0.3,0.4c-0.2,0-1.3,1-2.4,2.3s-2.1,2.2-2.2,2.2c-0.1,0-0.6,0.5-1.2,1.1l-1,1.1l-4.6,0.3c-2.5,0.1-7.5,0.4-11.1,0.7
		c-4.6,0.3-6.7,0.3-7,0.1c-0.3-0.2-1.1-0.3-2-0.2c-0.8,0.1-2.3,0-3.3-0.2c-1-0.2-2.5-0.4-3.4-0.5c-0.9,0-2.3-0.2-3.1-0.3
		s-2.6-0.4-3.9-0.4c-1.3-0.1-2.8-0.3-3.2-0.5c-0.6-0.3-1.4-0.3-2.6-0.1c-0.9,0.1-1.7,0.2-1.7,0.1c0-0.4-1.8-0.8-3.1-0.6
		c-1.3,0.1-5.9,1.9-6.4,2.4c-0.3,0.3,0.7,1.4,3.1,3.7c2.1,1.9,2.6,2.2,3.6,2.3c4.6,0.3,8,0.7,10.2,1.1c1.2,0.2,4.1,0.5,6.2,0.7
		c2.2,0.1,4.7,0.3,5.5,0.4c0.8,0.1,2.3,0.2,3.2,0.2c1,0,2.5,0,3.3,0.1c1.1,0,1.5,0,1.5-0.3c0-0.2,0.2-0.3,0.4-0.4
		c0.3,0,0.4,0.1,0.3,0.3c-0.1,0.2,1.2,0.2,4.1-0.1c2.3-0.2,4.3-0.4,4.3-0.3c0,0.1-0.3,0.4-0.6,0.7c-0.3,0.3-1,0.9-1.4,1.3
		c-0.4,0.5-0.9,0.8-1,0.8c-0.1,0-1,0.8-2,1.8c-2.7,2.7-4.1,3.3-8.2,3.9c-1.9,0.2-3.5,0.5-3.6,0.6c-0.3,0.2-5.9,0.8-6.3,0.6
		c-0.6-0.2-2.4-0.1-3.1,0.3c-0.5,0.2-0.8,0.3-0.8,0.1c0-0.2-0.9-0.2-2.3-0.1c-1.2,0.1-3,0.2-4,0.2c-1.2-0.1-1.7,0-1.7,0.3
		c0,0.2-0.1,0.3-0.5,0.1c-0.3-0.1-1.1-0.3-1.7-0.3c-1.4-0.1-1.9-0.2-2.5-0.3c-0.4-0.1-2.9-0.3-3.8-0.2c-0.2,0-1-0.1-1.8-0.2
		c-0.7-0.1-3-0.4-5-0.6c-2-0.2-4.4-0.5-5.3-0.7c-0.9-0.2-2.2-0.3-2.9-0.2c-0.7,0.1-1.3,0-1.4-0.1c-0.1-0.1-0.6-0.2-1.2-0.2
		c-0.9,0-1,0.1-1,0.6c0,0.3-0.1,0.5-0.2,0.5c-0.3-0.1-0.7,1-0.9,2.1c0,0.3-0.3,1.3-0.6,2.1c-0.5,1.4-0.5,1.5,0.1,2.7
		c0.6,1.3,2,2.1,2.8,1.7c0.2-0.1,1,0,1.8,0.2c0.8,0.2,2.1,0.3,2.8,0.4s1.9,0.2,2.5,0.4c0.8,0.2,1.5,0.2,2.2,0
		c0.8-0.2,1.1-0.2,1.4,0.1c0.2,0.3,0.9,0.4,1.8,0.3c0.8,0,1.6,0.1,1.9,0.3c0.2,0.2,0.8,0.3,1.3,0.3c0.5,0,1.3,0,1.8,0
		c0.5,0,1.5,0,2.2,0s1.3,0,1.3,0c0,0,1,0,2.3,0c1.3,0,2.6,0,2.9,0.1c0.4,0.1,1.8,0,3.1-0.1c1.4-0.2,2.8-0.3,3.2-0.3
		c2-0.1,7.2-1,7.1-1.2c-0.1-0.1-0.1-0.3,0.1-0.4c0.1-0.1,0.4-0.1,0.5,0.1c0.1,0.2,0.9,0.2,1.8,0.2c1.5-0.1,1.6-0.1,1.3,0.6
		c-0.3,0.8-1,1.7-3.7,5c-2.4,2.9-1.9,2.8-13.6,4c-0.2,0-1.7,0.1-3.5,0.1c-1.8,0.1-5.9,0.3-9.1,0.4c-3.2,0.2-6.2,0.3-6.6,0.3
		c-0.7-0.1-5-0.3-9.7-0.5c-1.6-0.1-2.3,0-2.6,0.3c-0.3,0.3-0.5,0.3-0.7-0.1c-0.2-0.3-0.6-0.4-1-0.4c-0.4,0-1,0-1.4-0.1
		c-0.5-0.1-0.9,0-1.2,0.3c-0.5,0.4-1.4,3.8-1.3,4.7c0,0.3-0.1,0.9-0.3,1.4c-0.3,0.7-0.3,0.9,0.4,2.1c0.8,1.4,1,1.5,4.2,1.3
		c1.2-0.1,2.3,0,2.3,0.1c0,0.2,1.6,0.3,4.6,0.3c0.8,0,2.1,0,2.9,0.1c1,0,1.5-0.1,1.8-0.3c0.3-0.3,0.5-0.3,0.7-0.1
		c0.1,0.2,0.5,0.3,0.8,0.3c2.3-0.1,4.5-0.1,4.8,0c0.2,0.1,0.3,0,0.3-0.1s-0.2-0.3-0.4-0.3c-0.2,0-0.3-0.1-0.2-0.2
		c0.1-0.1,0.4-0.1,0.6,0c0.4,0.2,9.9-0.6,14.1-1.2c1-0.1,2.2-0.3,2.7-0.4c0.5-0.1,1.1-0.3,1.3-0.6c0.2-0.3,0.6-0.4,0.7-0.3
		c0.2,0.1,0.5,0,0.7-0.2c0.3-0.3,0.4-0.3,0.4,0.1c0,0.2-0.3,0.7-0.7,1c-0.4,0.3-1.3,1.3-2,2.2c-0.7,0.9-1.4,1.7-1.6,1.9
		c-0.2,0.2-1.2,1.3-2.2,2.5c-1.8,2.1-1.9,2.1-2.4,1.7c-0.6-0.4-3.5-0.8-5.2-0.6c-0.5,0-1.8,0.1-2.8,0.1c-3.1,0.1-9.7,0.5-9.8,0.7
		c-0.1,0.1-0.5,0.1-0.9,0c-0.5-0.2-1-0.1-1.6,0.3c-0.7,0.4-0.9,0.4-1.5,0.2c-0.5-0.2-2.2-0.2-5.8,0c-6.3,0.4-6.6,0.6-7.7,3.3
		c-0.4,1-0.7,2-0.7,2.3c0,0.2-0.1,0.4-0.2,0.4c-0.1,0-0.4,0.5-0.5,1c-0.2,0.8-0.2,1.2,0.2,1.8c0.6,1.1,0.9,1.2,2.2,0.9
		c0.6-0.1,3.7-0.5,6.8-0.8c9.1-1,12.8-1.4,13.1-1.7c0.4-0.3,1-0.4,4.4-0.9c1.3-0.2,3.2-0.6,4.2-1c1.1-0.4,2-0.6,2.2-0.5
		c0.1,0.1,0.1,0.6-0.1,1.1c-0.3,0.8-0.2,1,0.1,1.2c0.6,0.3,2.5,0.1,3.2-0.3c0.5-0.3,0.5-0.3,0.4,0.5c-0.1,0.5-0.4,1.6-0.7,2.6
		c-0.3,1-0.6,2.2-0.6,2.7c-0.1,0.5-0.3,1.4-0.5,2c-0.4,1.1-0.4,1.1-2.1,1.3c-0.9,0.1-1.7,0.3-1.7,0.4c0,0.2-0.6,0.6-1.4,0.9
		c-0.8,0.4-1.5,0.9-1.6,1.2c-0.1,0.5-0.2,0.5-0.4,0.1c-0.2-0.4-1.4-0.3-2.1,0.2c-0.5,0.4-17.1,1.3-17.8,1c-0.3-0.2-5.9-0.5-9.2-0.5
		c-1.3,0-2.8,0.1-3.3,0.3c-0.9,0.3-0.9,0.4-0.7,1.1c0.1,0.4,0.6,1.2,1.1,1.8c0.5,0.6,0.7,1.2,0.7,1.5c-0.2,0.8,1.1,3,2.1,3.4
		c1.3,0.6,3.4,0.9,4.9,0.7c0.7-0.1,1.8,0,2.5,0.1c1.6,0.3,17.2-1.1,17.9-1.6c0.1-0.1,1.1-0.3,2.1-0.5c1.3-0.2,2.4-0.7,4-1.5
		c1.2-0.7,2.2-1.4,2.3-1.5c0.2-0.4,1.4-1.1,1.6-0.9c0.1,0.1,0,0.6-0.1,1.3c-0.2,1-0.5,3.9-0.7,7.7c-0.3,4.2-0.3,8.5-0.1,11.2
		c0.1,1.8,0.3,3.9,0.4,4.7c0.1,0.8,0.3,1.9,0.5,2.3c0.2,0.4,0.5,1.3,0.6,2c0.3,2.2,2,4,3.7,3.9c0.2,0,1,0,1.6,0.1
		c0.9,0.1,1.4-0.1,1.8-0.5c0.5-0.4,0.5-0.6,0.3-0.9c-0.4-0.4-1-10.5-0.8-12.6c0.2-1.5,0.5-7.5,0.6-9.7c0-0.6,0.1-1.3,0.2-1.6
		c0.1-0.3,0.1-0.8-0.1-1.1c-0.2-0.3-0.3-0.8-0.3-1c0-0.4,0-0.4,0.3,0c0.2,0.3,0.3,0.2,0.4-0.5c0.1-0.5,0.2-1.1,0.2-1.5
		s0.1-0.9,0.2-1.2c0-0.3,0.1-1.2,0.3-1.9c0.1-0.7,0.1-1.6,0-2c-0.1-0.4,0-0.7,0.2-0.7c0.3,0,0.6-1.1,0.7-2.6c0-0.4,0.3-1.2,0.6-2
		c0.3-0.7,0.5-1.4,0.5-1.4c0,0,0-0.4,0.1-0.9c0.6-2.4,0.7-2.7,0.3-2.8c-0.2-0.1-0.2-0.3,0.1-0.6c0.3-0.3,0.5-0.8,0.4-1
		c0-0.3,0.1-0.8,0.4-1.1c0.2-0.3,0.4-0.8,0.3-1.1c0-0.3,0.4-1.6,0.9-2.9c0.5-1.3,1-2.6,0.9-2.9c0-0.3,0.2-1.1,0.4-1.9
		c1-3,1-2.9,2.7-4.7c0.3-0.3,0.8-1,1.1-1.4s0.7-0.8,0.8-0.7c0.2,0.1-0.4,3-1,4.9c-0.6,2-0.7,2.5-0.6,2.7c0.1,0.1-0.1,0.8-0.3,1.4
		c-0.2,0.6-0.4,1.5-0.5,2.1c-0.1,0.6-0.3,1.5-0.5,2.1c-0.2,0.6-0.4,2.1-0.4,3.3s-0.1,2.4-0.3,2.7c-0.4,0.7-0.4,4.3,0,10.2
		c0.3,4.1,0.5,5.3,0.8,5.3c0.5,0,0.5,0,0,1.1c-0.3,0.8-0.3,1.3,0.4,4.3c0.4,1.9,0.8,3.8,0.9,4.2c0.3,1.7,1.6,5.4,2.4,6.8
		c0.4,0.8,0.8,1.5,0.8,1.6c0,0.2,1.6,1.3,3.4,2.4c1,0.6,1.7,0.8,2.3,0.7c0.8-0.1,0.9-0.2,0.7-1.6c-0.4-3.4-1-6.4-1.5-7
		c-0.3-0.4-0.4-0.6-0.2-0.7c0.2-0.1,0.2-0.9-0.1-2.6c-0.5-2.9-1.6-16.7-1.4-17.1c0.1-0.2,0.3-1.8,0.5-3.7c0.2-1.8,0.4-4.2,0.6-5.1
		c0.2-1,0.2-2.1,0.1-2.5c-0.2-0.5-0.1-0.6,0.1-0.3c0.2,0.3,0.3,0.2,0.5-0.5c0.1-0.5,0.1-1.1,0.1-1.4s0.1-0.7,0.3-0.9
		s0.3-0.5,0.2-0.6c-0.1-0.1,0-0.3,0.1-0.4c0.2-0.1,0.2-0.7,0.2-1.2c0-0.6,0-1,0.2-1c0.2,0,0.3-0.2,0.3-0.3c0-0.2,0.2-0.7,0.4-1.1
		c0.5-0.9,1.4-4.6,1.4-5.4c0-0.3,0.1-0.8,0.3-1.1c0.2-0.3,0.4-1.1,0.5-1.6c0.1-0.6,0.2-1.2,0.3-1.3c0.1-0.2,0.2-0.9,0.3-1.6
		c0-1-0.1-1.5-0.8-2.6c-0.5-0.7-0.9-1.4-1.1-1.4c-0.1-0.1-0.6-0.6-1-1.2l-0.7-1l0.6-1c0.3-0.5,1.5-2.1,2.7-3.4
		c1.1-1.3,2.1-2.6,2-2.9c0-0.3,0.1-0.5,0.3-0.5c0.6,0,2.7-2,2.5-2.3c-0.1-0.1,0-0.5,0.3-0.8c0.4-0.5,0.5-0.5,0.6-0.1
		c0.1,0.3-0.1,0.9-0.4,1.3c-0.3,0.5-0.5,1-0.5,1.2c0,0.2-0.3,1.4-0.8,2.7c-0.4,1.3-0.9,2.8-0.9,3.4c-0.1,0.6-0.4,1.8-0.7,2.7
		c-0.4,1.1-0.5,2-0.4,2.7c0.1,0.6,0.1,1,0,0.9c-0.1-0.1-0.2,0.1-0.2,0.3c0,0.2-0.1,0.5-0.3,0.6c-0.2,0.1-0.3,0.6-0.3,1.1
		c0,0.5,0,1-0.2,1c-0.2,0-0.4,0.7-0.6,2.2c0,0.2-0.1,0.4-0.1,0.4c0,0.1-0.1,0.5-0.1,0.9c0,0.4-0.2,1.9-0.3,3.4
		c-0.1,1.5-0.3,3.9-0.3,5.3c0,3,1.2,16.8,1.5,17.3c0.1,0.2,0.3,0.9,0.5,1.7c0.4,2.1,0.7,2.9,1.7,5.5c1.1,2.9,5.1,8.5,6.6,9.3
		c0.7,0.4,0.8,0.4,1.8-0.4c0.6-0.5,1.4-1.3,1.8-1.8c0.7-0.8,0.7-1,0.4-2.2c-0.2-1.1-0.5-1.4-1.2-1.7c-0.9-0.4-1.1-0.6-1.6-2.8
		c-1.2-5.4-1.7-8.3-1.7-9.9c0-0.8-0.1-1.8-0.3-2.3c-0.2-0.4-0.3-0.7-0.1-0.7c0.1,0.1,0.2-0.6,0.1-1.5c-0.1-0.9-0.2-3-0.3-4.7
		c-0.1-1.7-0.1-3.3,0-3.5c0.1-0.3,0.2-1.2,0.2-2.1c0-0.9,0.1-1.8,0.2-2c0.1-0.2,0.1-0.9,0.1-1.6c0-0.7,0-1.4,0.2-1.5
		c0.1-0.1,0.2-0.3,0-0.5c-0.1-0.1-0.1-0.4,0-0.6c0.1-0.2,0.3-0.8,0.4-1.3c0.1-0.5,0.2-1,0.2-1s0.1-0.6,0.2-1
		c0.1-0.5,0.2-1.2,0.4-1.6c0.1-0.4,0.2-1,0.3-1.3s0.3-1.3,0.6-2.3c0.3-0.9,0.5-1.7,0.5-1.7c-0.1,0,0.3-1.9,0.6-3.1
		c0.2-0.7,0.7-2.2,1-3.3c0.3-1.1,0.8-2.5,1.1-3.2c0.3-0.7,0.5-1.4,0.5-1.5c0-0.1,0.3-1,0.6-1.8c0.3-0.9,0.6-1.8,0.6-2s0.2-1,0.4-1.6
		c0.3-0.6,0.5-1.6,0.6-2.2c0.1-0.9,0-1.1-0.6-1.5c-0.4-0.2-1.1-0.4-1.5-0.5c-1-0.2-1-0.4-0.3-1.3c0.5-0.6,3.8-3.4,4.5-4
		c0.1-0.1,0.1,1-0.2,2.4c-0.8,4.6-2.2,17.3-2.4,21.7c-0.1,2.4-0.2,6.3-0.1,8.7c0.2,5.2,1.4,19.3,1.7,19.8c0.1,0.2,0.2,0.7,0.2,1.1
		c0,1.2,1.4,4.7,2.1,5.2c0.3,0.2,1.4,0.5,2.3,0.5c3.1,0.1,2.9,0.3,2.9-2c0-1.1,0.1-2.9,0.2-3.9c0.2-1.5,0.1-2-0.2-2.6
		c-0.3-0.4-0.5-0.9-0.5-1.1c0-0.1-0.2-0.3-0.4-0.3c-0.2,0-0.4,0.5-0.6,1.3c-0.1,0.7-0.3,1.4-0.4,1.4c-0.2,0-1.2-13.6-1.2-17.1
		c0-1.6,0-3.9,0-5.1c0-2.8,0.3-7.8,0.6-8.8c0.1-0.4,0.4-2.6,0.6-4.9c0.5-4.6,1-8,1.7-10.7c0.3-1,0.4-1.8,0.3-1.9
		c-0.1-0.1-0.2,0-0.2,0.2c0,0.2-0.1,0.4-0.3,0.4c-0.5,0-0.4-0.5,0.2-0.7c0.4-0.2,0.6-0.6,0.7-1.6c0.1-0.8,0.1-1.5,0.1-1.5
		c0-0.1,0.3-0.8,0.6-1.7c0.7-1.9,0.9-4.4,0.6-5.8c-0.2-0.8-0.1-1.1,0.2-1.3c0.5-0.3,3.3-3.2,5.8-6l1.7-1.9l-0.8,2.6
		c-0.5,1.4-1,2.8-1.1,3.1c-0.1,0.3-0.7,2.2-1.3,4.2c-0.6,2-1.2,4.3-1.5,5c-0.4,1.2-1,4.1-1.2,5.4c0,0.3-0.2,1-0.4,1.6
		c-0.2,0.6-0.3,1.5-0.3,2c0,0.4-0.1,1.3-0.3,2c-0.2,0.7-0.3,2.2-0.3,3.4c0,1.2,0,2.5-0.1,2.8c-0.1,0.5,0,0.7,0.3,0.8
		c0.3,0.1,0.5,0.3,0.5,0.4s-0.2,0.2-0.4,0.2c-0.3-0.1-0.4,0.1-0.5,0.7c-0.1,1,0.3,1.8,0.7,1.7c0.2,0,0.3,0.2,0.4,0.4
		c0.1,0.3,0,0.4-0.2,0.3c-0.5-0.3-0.7,0.5-0.5,1.9c0.1,0.8,0.4,1.4,0.6,1.5c0.2,0.1,0.4,0.3,0.3,0.5c-0.1,0.2-0.3,0.2-0.4,0.1
		c-0.2-0.1-0.3,0-0.3,0.3c0,0.2,0.2,0.5,0.4,0.5c0.3,0.1,0.3,0.2,0.1,0.5c-0.2,0.2-0.2,0.7,0,1.2c0.2,0.4,0.3,1.1,0.2,1.6
		c0,0.4,0,1,0.2,1.3c0.1,0.3,0.3,0.6,0.2,0.8c-0.1,0.8,1.1,5.9,1.5,6.5c0.3,0.4,0.6,1.3,0.7,2.2c0.1,0.8,0.6,2.1,1,2.8
		c0.8,1.5,3.1,3.3,3.9,3.1c0.3-0.1,0.5-0.2,0.5-0.4c-0.1-0.1,0.1-0.4,0.3-0.5c0.5-0.4,0.7-2.8,0.3-3.3c-0.3-0.3-1.7-5.1-1.6-5.6
		c0-0.1-0.2-1.9-0.5-4c-0.5-4-1.5-11.7-1.5-12.2c0-0.2,0-0.9,0-1.6c0-0.7,0.1-2.7,0.1-4.3c0.1-4.3,0.1-4.5,0.8-7.7
		c0.7-3.2,1.1-5.1,1.5-6c0.5-1.3,0.9-2.8,1.2-4.3c0.1-0.9,0.4-2,0.5-2.5c0.2-0.5,0.5-1.6,0.8-2.4c1-2.8,1.4-6.2,1.3-10.4
		c0-1.1,0.2-1.4,2-3.5c1.1-1.3,2.5-2.8,3.1-3.3c1.6-1.5,3.8-4.1,4.1-4.7c0.1-0.3,0.3-0.4,0.3-0.2c0,0.2,0.2,0.3,0.3,0.2
		c0.4-0.3,0.4-0.1-1,3.6c-2.1,5.5-4.4,15.2-4.6,19.1c-0.1,1.4,0,1.7,0.3,1.5c0.2-0.1,0.1,0.1-0.2,0.5c-0.5,0.7-0.6,1.4-0.7,5
		c0,2.3-0.1,4.5-0.2,4.9c-0.1,0.4-0.1,2,0,3.7c0,1.7,0,4.2-0.1,5.5c-0.1,1.4-0.2,3.6-0.2,4.9c0,1.3,0,2.6,0,3
		c-0.1,0.5,0.1,0.7,0.5,0.7c0.8,0.1,0.8,0.7,0,0.8c-0.3,0-0.5,0.2-0.4,0.3c0.1,0.2,0.1,0.3-0.1,0.3s-0.3,0.5-0.2,1.2
		c0.1,0.6,0,1.8-0.1,2.6c-0.1,0.8-0.2,2.2-0.2,3.2c0,1,0,2.4-0.1,3.3l0,1.5l2.3,0.2c1.9,0.2,2.3,0.1,2.5-0.2c0.2-0.4,0.2-0.3,0.3,0
		c0.1,0.8,2.1,0.7,3.1-0.2c0.8-0.7,0.8-0.8,0.7-3.2c-0.1-1.4-0.1-2.6,0-2.8c0.1-0.2,0-0.5-0.1-0.8c-0.2-0.4-0.3-0.4-0.5-0.1
		c-0.2,0.3-0.2,0-0.1-0.6c0.1-0.6,0.2-1.1,0.3-1.2c0.1-0.1,0.2-0.4,0.2-0.7c0-0.3,0-1.7,0-3.1c0-1.4,0-3.2,0-4c0-0.8,0-2.1,0.1-2.8
		c0.1-0.7,0.1-1.8,0.1-2.4s0-1.4,0.1-1.9c0.1-0.5,0-1-0.2-1.2c-0.3-0.3-0.3-0.5-0.1-0.8c0.1-0.2,0.2-1.8,0-3.5s-0.2-5-0.1-7.3
		c0.1-2.3,0.1-4.4,0-4.8c-0.1-0.3,0-0.8,0-1.1c0.1-0.2,0.2-0.9,0.2-1.5c0.1-2.2,0.3-4.3,0.5-4.7c0.1-0.2,0.2-0.8,0.2-1.2
		s0.2-1.3,0.4-2.1c0.2-0.7,0.5-2.2,0.7-3.1c0.2-1,0.4-2.1,0.6-2.4c0.3-0.8,0.5-2,0.5-2.5c0-0.2,0.3-1.1,0.6-2c0.3-0.8,0.8-2.3,1-3.2
		s0.5-2.1,0.7-2.7c1.2-4.2,1.5-5.3,1.4-5.7c0-0.3,0.8-1.5,1.9-2.8c1.1-1.3,1.9-2.4,1.8-2.5c-0.1-0.1,0.1-0.2,0.3-0.3
		c0.7-0.1,1.5-1.5,1.5-2.5c-0.1-1.1,0.5-1.6,1.5-1.2c0.4,0.2,0.7,0,1.3-0.7c0.4-0.5,1.2-1.4,1.7-2c0.5-0.6,0.9-1.2,0.8-1.3
		C223.3,460,223.6,459.6,224.1,459.2z M166.2,479.7c-0.1-0.1-0.1-0.3-0.1-0.6c0.1-0.2,0.1-0.2,0.2,0.2
		C166.3,479.6,166.3,479.8,166.2,479.7z M172.4,478.1c-0.2,0-0.3,0.3-0.2,0.7c0.1,0.6,0,0.6-0.5,0.1c-0.4-0.4-0.5-0.5-0.2-0.6
		c0.2-0.1,0.4-0.2,0.4-0.4c0-0.1,0.2-0.3,0.4-0.3c0.2,0,0.4,0.1,0.5,0.3C172.7,478,172.6,478.1,172.4,478.1z M185.8,473.2
		c-0.2,0-0.3-0.1-0.3-0.3s0.1-0.3,0.3-0.3c0.2,0,0.3,0.1,0.3,0.3C186.1,473,186,473.2,185.8,473.2z M130.8,492.1
		c-0.4,0-0.7-0.1-0.8-0.2s0.3-0.3,0.7-0.4c0.4,0,0.7,0.1,0.8,0.2C131.5,491.9,131.2,492.1,130.8,492.1z M144.8,490.9
		c-0.1-0.1-0.1-0.3-0.1-0.6c0.1-0.2,0.1-0.2,0.2,0.2C144.9,490.8,144.9,491,144.8,490.9z M168.2,494.9c-0.2,0-0.3-0.1-0.3-0.3
		c0-0.2,0.1-0.3,0.3-0.3c0.2,0,0.3,0.1,0.3,0.3C168.5,494.8,168.3,494.9,168.2,494.9z M123.5,521.4c0-0.1-0.3-0.3-0.5-0.6
		c-0.4-0.4-0.4-0.5,0-0.5c0.2,0,0.5,0.2,0.5,0.6C123.6,521.3,123.6,521.5,123.5,521.4z M133,522.7c-0.3,0-0.5,0-0.4-0.1
		c0.1-0.1,0.3-0.1,0.6-0.1C133.4,522.6,133.4,522.7,133,522.7z M102.6,543.7c-0.1-0.1-0.1-0.3-0.1-0.6c0.1-0.2,0.1-0.2,0.2,0.2
		C102.8,543.6,102.7,543.8,102.6,543.7z M91.4,559.9c-0.3,0-0.5,0-0.4-0.1s0.3-0.1,0.6-0.1C91.8,559.8,91.7,559.9,91.4,559.9z
		 M112.2,556.7c-0.1-0.1-0.1-0.3-0.1-0.6c0.1-0.2,0.1-0.2,0.2,0.2C112.4,556.6,112.3,556.8,112.2,556.7z M112,554.8
		c0-0.3,0.6-0.7,1.1-0.7c0.1,0,0.2,0.2,0.1,0.4C113.1,555,112,555.2,112,554.8z M113.5,555.8c-0.2,0-0.3-0.1-0.3-0.3
		c0-0.2,0.1-0.3,0.3-0.3c0.2,0,0.3,0.1,0.3,0.3S113.7,555.8,113.5,555.8z M115.8,554.7c-0.2,0-0.3-0.1-0.3-0.3s0.1-0.3,0.3-0.3
		c0.2,0,0.3,0.1,0.3,0.3C116.1,554.6,115.9,554.7,115.8,554.7z M92,580.8c-0.2,0-0.3-0.1-0.3-0.3c0-0.2,0.1-0.3,0.3-0.3
		c0.2,0,0.3,0.1,0.3,0.3S92.2,580.8,92,580.8z M103.2,580.5c-0.2-0.2-0.3-0.6-0.4-0.9c0-0.4,0-0.4,0.3,0c0.2,0.2,0.3,0.6,0.4,0.9
		C103.5,580.8,103.5,580.8,103.2,580.5z M111.4,575c0.2-0.1,0.5,0,0.6,0.4c0.2,0.6,0.2,0.6-0.5,0.4
		C110.9,575.6,110.9,575.2,111.4,575z M112.5,577.6c-0.2,0-0.4-0.2-0.5-0.4c0-0.2,0.1-0.4,0.2-0.5c0.1,0,0.4,0.2,0.5,0.4
		C112.8,577.4,112.8,577.6,112.5,577.6z M113.2,574.6c-0.3,0-0.5,0-0.4-0.1c0.1-0.1,0.3-0.1,0.6-0.1
		C113.6,574.5,113.5,574.6,113.2,574.6z M117,575.7c-0.1-0.1-0.1-0.3-0.1-0.6c0.1-0.2,0.1-0.2,0.2,0.2
		C117.2,575.6,117.1,575.8,117,575.7z M125.4,572.2c-0.2,0-0.3,0-0.3-0.1c0-0.1,0.1-0.2,0.3-0.3c0.2-0.1,0.3-0.1,0.3,0.1
		S125.6,572.2,125.4,572.2z M133.8,563.6c-0.2,0-0.3,0-0.3-0.1s0.1-0.2,0.3-0.3s0.3-0.1,0.3,0.1C134.1,563.4,134,563.5,133.8,563.6z
		 M139.2,571.9c-0.2,0-0.3-0.1-0.3-0.3s0.1-0.3,0.3-0.3c0.2,0,0.3,0.1,0.3,0.3S139.4,571.9,139.2,571.9z M156.1,564.6
		c-0.3,0-0.5,0-0.4-0.1c0.1-0.1,0.3-0.1,0.6-0.1C156.5,564.5,156.5,564.6,156.1,564.6z M159.9,528.1c-0.1-0.1-0.1-0.3-0.1-0.6
		c0.1-0.2,0.1-0.2,0.2,0.2C160,528,160,528.2,159.9,528.1z M174.4,554.6c-0.3,0-0.5,0-0.4-0.1c0.1-0.1,0.3-0.1,0.6-0.1
		C174.8,554.5,174.8,554.6,174.4,554.6z M202.9,478.3c-0.1,0-0.2-0.2-0.3-0.4c-0.1-0.2-0.1-0.4,0.1-0.4c0.2,0,0.3,0.2,0.3,0.4
		C203,478.1,202.9,478.3,202.9,478.3z M202.9,536.4c-0.2,0-0.5-0.2-0.5-0.4c0-0.3,0.1-0.4,0.4-0.3c0.2,0.1,0.5,0.2,0.5,0.4
		C203.3,536.3,203.1,536.4,202.9,536.4z M204.3,487.8c-0.2,0-0.3-0.1-0.3-0.3s0.1-0.3,0.3-0.3c0.2,0,0.3,0.1,0.3,0.3
		C204.6,487.7,204.5,487.8,204.3,487.8z"/>
	<path class="st0" d="M118.8,428.5c-0.2,0.2-0.4,0.2-0.5,0.1c-0.2-0.2-2.3-0.4-4.9-0.4c-1.2,0-2.4,0-2.7,0c-0.3,0-1.3,0-2.3,0
		c-0.9,0-2,0-2.3,0c-0.3,0-1.1,0-1.7,0c-0.6,0-1.3,0-1.4-0.1c-0.2-0.1-0.5-0.1-0.6,0c-0.2,0.1-1,0.1-1.9,0c-0.9-0.1-1.8-0.1-2.1,0
		c-0.3,0.1-0.7,0.1-1.1,0c-0.3-0.1-1.8-0.1-3.3-0.1c-1.5,0-2.9,0.1-3.1,0.1c-0.2,0-0.5,0-0.6,0.1c-0.1,0.1-0.6,0.1-1.1,0
		c-0.5-0.1-1,0-1.2,0.1c-0.2,0.1-1,0.2-1.9,0.2c-0.9,0-2,0.1-2.4,0.2c-0.4,0.1-0.8,0.2-1,0.1c-0.2-0.1-1,0-1.9,0.2
		c-0.9,0.2-1.8,0.4-2,0.4c-0.9,0-4.1,1-6.3,1.9c-0.4,0.2-0.8,0.9-1.2,2.1c-0.3,1-0.8,2.3-1,2.8c-0.4,0.9-0.3,1.4,0.5,2.3
		c0.4,0.4,2.4,0.5,4.2,0.1c0.8-0.2,1.9-0.4,2.5-0.6s1.7-0.4,2.4-0.7c0.7-0.3,1.4-0.4,1.4-0.3c0.1,0.2,1.6,0.3,2.3,0.1
		c0.2-0.1,0.6-0.1,0.9-0.1c0.4,0,1.3-0.2,3.1-0.5c0.8-0.2,2.7-0.2,3.1,0c0.2,0.1,0.6,0,0.9-0.1c0.3-0.1,0.7-0.1,0.8,0
		c0.1,0.1,0.4,0.1,0.5,0c0.2-0.1,0.4-0.2,0.6-0.1c0.5,0.2,2-0.1,2.1-0.5c0.1-0.5,0.4-0.5,0.9,0c0.3,0.3,1,0.4,2.3,0.3
		c1-0.1,2.5-0.1,3.4-0.1c3,0,3.6,0,5.8-0.1c1.2,0,2.3-0.2,2.5-0.3c0.2-0.2,0.7-0.2,1.1-0.1c0.4,0.1,1,0.1,1.4,0.1
		c0.3,0,1.2-0.1,1.8-0.1c0.6,0,1.4-0.1,1.7-0.2c0.3-0.1,0.7-0.1,1,0.1s0.8,0.1,1.2,0c0.4-0.1,0.8-0.2,0.8-0.1
		c0.1,0.2-1.6,0.8-2.3,0.8c-0.8,0-3.5,0.6-3.3,0.7c0.1,0.1-0.4,0.2-1.1,0.2c-2.1,0.1-4.5,0.8-13.2,4c-8.4,3-11.6,4.4-13.1,5.5
		c-0.8,0.6-2.3,2.9-2.3,3.5c0,0.8,3.8,2,4.2,1.3c0-0.1,0.8-0.3,1.7-0.5c0.9-0.2,2.2-0.4,3-0.7c5.9-1.5,9-2.5,11.2-3.3
		c1.4-0.5,2.3-0.8,2.1-0.6c-0.6,0.5,3.4-0.6,4-1c0.3-0.2,0.5-0.3,0.5-0.2c0,0.1,0.3,0.1,0.7,0s0.9-0.2,1.3-0.2c0.4,0,1.3-0.2,2-0.3
		c0.7-0.1,2.2-0.3,3.4-0.5c1.7-0.2,2-0.3,2.1-0.7c0.1-0.3,0.1-0.3,0.2,0c0.1,0.3,0.6,0.3,2.1,0c1.1-0.2,2.3-0.3,2.7-0.3
		c0.4,0,1.3-0.1,2.1-0.2c0.7-0.2,1.6-0.3,1.9-0.3c2.5-0.2,5.3-0.6,5.9-0.8c0.4-0.1,0.8-0.2,1-0.1c0.3,0.2,2.3,0,3.5-0.3
		c0.6-0.2,1.2-0.2,2.4-0.1c0.6,0,3.9-0.3,6.8-0.6c0.8-0.1,1.8-0.2,2.2-0.2c0.6,0,2-0.2,3.9-0.6c0.6-0.1,3.6-0.1,5.3,0
		c0.6,0,1.2,0.2,1.2,0.5c0.1,0.2,0.2,0.3,0.4,0.3c0.1,0,0.6,0.1,1,0.3c0.5,0.2,0.9,0.4,1,0.3c0.3-0.1,1.5,0.6,1.6,0.9
		c0,0.1-0.1,0.2-0.4,0.2c-0.3,0-1.1,0-1.8,0.1c-0.7,0.1-2.3,0.2-3.6,0.3c-2.2,0.2-3.3,0.3-8.2,1c-1,0.1-2.5,0.3-3.4,0.4
		c-0.9,0.1-1.8,0.2-2.1,0.3c-0.2,0.1-1.3,0.2-2.2,0.3c-4.2,0.3-12.4,1.3-14,1.8c-0.7,0.2-1.4,0.4-1.6,0.3c-0.5-0.1-1.8,0.1-3.5,0.6
		c-1.7,0.5-3.8,1-7.2,1.9c-2.2,0.6-5.2,1.8-6.7,2.6c-0.5,0.3-1.4,0.7-2,1c-0.7,0.3-1.3,0.6-1.3,0.8c-0.1,0.2-0.2,1.3-0.2,2.5
		c-0.1,1.8,0,2.2,0.4,2.2c0.2,0,3.5-0.9,7.3-2.2c6.6-2.2,12.6-3.8,15.6-4.3c2.1-0.3,7.3-1,10.6-1.5c3.3-0.4,2.7-0.3,9.2-1.4
		c6.9-1.1,9.4-1.5,14.8-2.3c3.3-0.5,5.3-0.9,6.6-1.4c1.4-0.5,2-0.7,2.4-0.5c1.7,0.7,2.1,0.9,2.4,0.8c0.2-0.1,4.1,1.1,5.4,1.7
		c0.2,0.1,0.6,0.2,0.7,0.1c0.1-0.1,0.8,0.1,1.5,0.4l1.2,0.5l-1.2,0.2c-0.7,0.1-2.3,0.5-3.7,0.8c-1.4,0.3-3.3,0.7-4.2,1
		c-0.9,0.3-3.1,0.8-4.8,1.2c-1.7,0.4-4.5,1.1-6.2,1.5s-5.6,1.4-8.8,2.2c-3.2,0.7-6.3,1.5-7,1.7c-0.6,0.2-2.1,0.5-3.1,0.8
		c-6.2,1.5-12.7,3.4-17.8,5.2l-1.9,0.7l0.7,2c0.4,1.1,0.9,2.1,1.1,2.2c0.3,0.2,2-0.1,4.6-0.8c0.7-0.2,1.7-0.5,2.2-0.6
		c1.2-0.3,6.3-1.6,9.1-2.3l2.2-0.6L146,463c-0.1-1,0.4-1.2,0.9-0.3c0.3,0.6,0.5,0.6,1.2,0.4c0.5-0.2,0.9-0.2,1.1-0.2
		c0.4,0.2,0.7,0,0.5-0.5c-0.1-0.4-0.1-0.4,0.2-0.2c0.2,0.2,0.4,0.2,0.5,0.1c0.1-0.1,0.3-0.1,0.6,0c0.3,0.2,1,0,2-0.4
		c0.8-0.3,1.5-0.5,1.5-0.4c0,0.1,0.4,0,0.7-0.2c0.4-0.2,0.8-0.3,1-0.2c0.4,0.1,3.9-0.9,8.3-2.4l2.9-1l-0.3-0.7
		c-0.1-0.4-0.1-1,0.1-1.4c0.2-0.4,0.4-0.6,0.4-0.4c0.1,0.1,0.3,0.2,0.5,0.1c0.6-0.2,0.7,0.6,0.2,1c-0.5,0.4-0.5,0.5,0,0.9
		c0.3,0.2,0.9,0.1,2.7-0.6c1.3-0.5,2.5-0.8,2.6-0.8c0.3,0.1,3.6-0.9,8.3-2.3c3.1-1,7.3-2,8.3-2c0.9,0,1.6-0.4,2.3-1.2
		c0.4-0.4,0.7-0.5,2-0.3c0.9,0.1,1.8,0.3,2.1,0.4c0.3,0.1,0.8,0.1,1.2,0c0.5-0.2,0.8-0.2,0.7,0.1c0,0.3,0.3,0.4,0.8,0.4
		c0.5,0,1.4,0.1,2.2,0.3c0.7,0.2,1.6,0.3,1.8,0.3c0.3,0,0.5,0.1,0.6,0.2c0,0.1,1,0.3,2,0.3c1.1,0.1,2.4,0.2,2.9,0.3
		c0.5,0.1,1.1,0.1,1.3,0c0.2-0.1,0.5,0,0.7,0.2c0.2,0.2,0.5,0.2,0.8,0.2s0.8,0,1.1,0.2c0.4,0.2,1,0.3,1.5,0.3c0.5,0,2,0,3.3,0
		c2.6,0,4,0,4.2-0.1c0.1,0,0.6-0.5,1.1-1c0.5-0.5,1-1.1,0.9-1.2c-0.1-0.4-2-1.7-2.3-1.6c-0.1,0.1-0.9-0.1-1.8-0.4
		c-0.8-0.3-2-0.6-2.5-0.7c-2-0.4-8.9-3.2-9.5-3.9c-0.2-0.3-0.6-1.1-0.9-2c-0.3-0.8-0.7-1.7-0.8-1.9c-0.3-0.3-2.1-4.2-2.6-5.8
		c-0.4-1.2-1.8-4.4-2.6-6c-0.3-0.6-0.9-2-1.4-3.2c-0.5-1.2-1.2-2.9-1.7-3.8c-0.4-0.9-1.1-2.5-1.5-3.5c-0.9-2.4-5-11.5-5.3-11.7
		c-0.1-0.1-0.3-0.1-0.4,0c-0.1,0.1-0.2,0-0.3-0.3c-0.1-0.6-3.7-2.7-4.5-2.8c-0.6,0-1.9,3.2-1.8,4.5c0.2,2.2,1.5,6.3,3.4,10.6
		c0.5,1.1,1.2,2.7,1.6,3.6c0.4,0.9,0.8,1.9,1,2.2c0.4,0.9,3,6,4.1,8.2c0.5,1,1.3,2.7,1.8,3.8c0.5,1.1,1.2,2.5,1.6,3.1
		c0.4,0.6,0.9,1.6,1.2,2.1c0.5,0.9,0.4,0.9-0.1,0.7c-0.3-0.1-0.7-0.2-0.7-0.2c-0.1,0-1.1-0.2-2.2-0.5c-1.2-0.3-2.2-0.5-2.4-0.4
		c-0.2,0.1-0.3-0.3-0.5-1c-0.4-2.4-4.2-11.8-4.8-11.9c-0.2-0.1-0.3-0.1-0.1-0.2c0.2-0.1,0.1-0.5-0.1-1c-0.2-0.5-1-2.4-1.8-4.1
		c-1.4-3.3-1.7-3.9-3.1-6.7c-0.4-0.9-0.8-1.7-0.8-1.8c0-0.1-0.1-0.3-0.3-0.5c-0.2-0.1-0.5-0.6-0.7-1.1c-0.2-0.5-0.8-1.9-1.4-3.2
		c-0.6-1.3-1.4-3.1-1.8-3.9c-2.2-4.9-3.9-8.4-4.5-8.8c-0.1-0.1-0.4-0.4-0.5-0.7c-0.5-0.9-0.7-1-2.5-1c-3-0.1-3.4,0-3.9,1.1
		c-0.5,1-0.3,2.1,0.8,4.7c1,2.5,1,2.4,1.1,1.9c0.1-0.3,0.2-0.3,0.2-0.2c0.1,0.1,0,0.4-0.1,0.6c-0.2,0.4,0.3,2,1.4,4.2
		c0.4,0.7,1.1,2.4,1.7,3.7c0.6,1.3,1.4,3,1.9,3.9c1,1.8,2.5,4.8,3.4,6.7c0.4,0.7,1.1,2.2,1.6,3.3c0.5,1.1,1.4,2.8,1.9,3.9
		c0.5,1.1,1,2,1.2,2.1c0.1,0.1,0.7,1.2,1.2,2.4c0.6,1.2,1.1,2.3,1.3,2.4c0.1,0.1,0.4,0.6,0.6,1.1c0.2,0.5,0.6,1.3,0.9,1.7
		c0.3,0.5,0.4,0.9,0.3,0.9c-0.5,0.1-4.5-1-7.1-2c-0.8-0.3-1.7-0.5-2.1-0.3c-0.4,0.2-0.6,0.1-0.6-0.2c0-0.2-0.3-0.5-0.6-0.6
		c-0.5-0.1-0.8-0.5-1.6-2.5c-0.5-1.3-1.4-3.2-1.9-4.3c-2.3-5.2-5.7-13.9-10.4-26.3c-2.4-6.3-3.4-8.8-3.7-8.9
		c-0.2-0.1-0.5-0.5-0.5-0.9c0-0.3-0.3-0.9-0.6-1.3c-0.4-0.4-0.5-0.9-0.5-1.2c0.1-0.8-0.2-0.9-2.8-1.1c-2.5-0.2-3.4,0-3.9,1.4
		c-0.5,1.3,0.8,6.3,4.1,15.1c2.6,7,7.1,17.6,7.4,17.6c0.1,0,0.4,0.7,0.7,1.6c0.3,0.9,0.7,1.7,0.9,1.9c0.3,0.2,0.3,0.2,0.3,0
		c-0.1-0.2,0-0.4,0.1-0.4c0.4-0.1,0.5,0.6,0.2,0.9c-0.3,0.3,0.1,1.4,1.1,2.7c0.3,0.3,0.4,0.6,0.3,0.7c-0.1,0,0,0.4,0.2,0.9l0.4,0.8
		l-1.1-0.5c-2.7-1.2-6.5-2.6-7.1-2.7c-1-0.1-1.6-0.8-1.7-2c-0.2-2.7-3.9-15.4-4.5-15.5c-0.2,0-0.3-0.2-0.4-0.4c-0.1-0.2,0-0.2,0.2,0
		c0.7,0.6-1-4.6-9.7-28.4c-0.4-1.2-1.5-3.9-2.5-6.1l-1.7-4l-0.7,0.3c-0.8,0.4-2.5,2.4-2.8,3.3c-0.3,0.9-0.1,2.9,0.5,4.4
		c0.2,0.7,0.5,1.9,0.7,2.6c0.7,3.6,4.6,15.6,5.1,15.4c0.2-0.1,0.3,0,0.2,0.2c-0.1,0.4,0.7,2.6,5.9,16.5c2.1,5.6,3.8,10.3,3.7,10.4
		c0,0.1-1.1-0.3-2.4-0.8c-1.9-0.8-2.3-1.1-2.4-1.6c0-0.3-0.4-1.7-0.8-3.1c-0.4-1.3-1-3.4-1.3-4.7c-0.3-1.2-0.9-3.3-1.4-4.6
		c-0.5-1.3-1.6-4.6-2.5-7.3c-0.9-2.7-2-5.4-2.3-6.1c-0.4-0.7-0.6-1.2-0.4-1.3c0.1,0,0.1-0.1,0-0.2c-0.2-0.2-3.4-7.8-4.7-11.5
		c-0.6-1.6-1.1-3-1.2-3s-0.6-1.1-1.1-2.3c-2.4-5.7-3.8-8.3-5-9.2c-0.3-0.2-0.8-0.8-1.1-1.3c-0.3-0.5-0.7-0.9-0.9-1
		c-0.5-0.2-2.6,1.9-2.6,2.5c0,0.3,0,0.7,0,1c-0.1,0.7,1.2,5.2,1.6,5.4c0.2,0.1,0.5,0.7,0.6,1.3c0.8,2.5,2.7,7.6,3.8,10.2
		c0.7,1.6,1.4,3.2,1.6,3.7c0.2,0.5,0.6,0.9,0.9,1c0.4,0.1,0.5,0.2,0.3,0.5c-0.2,0.2-0.1,0.8,0.2,1.5c0.3,0.7,0.6,1.2,0.9,1.3
		c0.3,0.1,0.3,0.1,0.1,0.2c-0.2,0.1,0.1,1.1,1.2,3.8c1.4,3.5,6.3,16.2,6.8,17.6c0.2,0.4,0.4,0.7,0.7,0.6c0.5,0,0.5,0,0.1,0.1
		c-0.3,0.1-0.3,0.4-0.1,0.9c0.2,0.4,0.3,0.5,0.2,0.2c0-0.3,0.1-0.5,0.4-0.5c0.6,0,0.6,0.3,0.1,0.7c-0.3,0.2-0.7,0.1-1.5-0.3
		c-0.6-0.4-1.5-0.9-2.1-1.2s-1.2-0.6-1.2-0.7c0-0.1-0.5-0.4-1.1-0.8c-0.6-0.4-1.9-1.2-3-1.9l-1.9-1.2l-1.4-4.2
		c-1.8-5.2-2.4-6.6-2.9-6.2c-0.3,0.3-0.3,0.2-0.1-0.2c0.2-0.4,0.1-0.8-0.3-1.8c-1-2.3-2.1-4.5-2.4-4.8c-0.4-0.4-0.5-0.7-1.6-3
		c-0.5-1.1-1.1-2.2-1.4-2.5c-0.3-0.3-0.7-1.1-0.9-1.7c-0.2-0.6-0.6-1.2-0.7-1.3s-0.4-0.5-0.4-0.9c0-0.4-0.3-0.9-0.6-1.1
		c-0.3-0.2-0.9-1.4-1.4-2.6c-0.5-1.2-1.1-2.5-1.3-2.9c-0.2-0.4-0.9-2-1.6-3.6c-0.7-1.6-1.5-3.4-1.9-4.2c-0.4-0.7-0.8-1.7-0.9-2.2
		s-0.6-1.9-1.1-3.1c-0.6-1.2-1.3-3.1-1.6-4.1c-0.6-1.7-0.6-1.9-0.1-2.9c0.3-0.6,0.4-1.1,0.3-1.2c-0.2-0.1-1.4-0.3-2.7-0.4
		c-1.7-0.2-2.4-0.2-2.4,0.1c-0.1,0.3-0.2,0.3-0.6,0.2c-0.4-0.1-0.6,0-1.3,0.6c-0.9,0.9-1,1.7-0.3,1.1c0.3-0.2,0.5-0.2,0.6,0
		c0.1,0.2-0.2,0.4-0.5,0.5c-0.5,0.2-0.9,0-1.7-0.6c-2-1.6-3-2.3-3.2-2.2c-0.3,0.1-1.5,2-2,3.2c-0.4,0.9-0.2,4.7,0.3,6.3
		c0.2,0.6,0.3,1.4,0.3,1.7c-0.1,0.5,0.1,1.7,0.9,4.8c0.1,0.4,0.4,1.6,0.7,2.5c0.3,1,0.5,1.9,0.4,2c0,0.2,0.9,3.3,2.2,6.8
		c1.2,3.6,2.2,6.6,2.2,6.6c0,0-1.1-0.6-2.5-1.5c-1.3-0.9-3-1.9-3.8-2.2c-0.8-0.3-1.4-0.7-1.4-0.8c0-0.1-0.6-0.5-1.3-1
		c-1.2-0.8-3.6-1.5-4.2-1.3c-0.3,0.1-1.1,2.2-1.6,4.3c-0.4,1.4,0.3,3.3,1.4,4.1c0.4,0.3,1,0.8,1.5,1.2c0.4,0.4,1.2,1,1.7,1.2
		c0.5,0.3,1.6,1,2.4,1.6c0.8,0.6,1.8,1.3,2.3,1.5c0.4,0.2,1.4,0.8,2.1,1.3c0.7,0.5,1.9,1.2,2.5,1.5c0.6,0.3,1.2,0.7,1.2,0.9
		c0.1,0.2,0.5,0.5,0.9,0.6c0.4,0.1,0.9,0.4,0.9,0.5s0.5,0.5,0.9,0.6c0.8,0.3,0.8,0.3,0.8-0.2c0-0.3,0-0.3,0.2,0.1
		c0.1,0.4,0.4,0.8,0.7,1.1c0.6,0.6,0.5,0.6-0.5,0.3c-4.2-1.5-6.9-2.4-11.1-3.5c-1.6-0.4-3.1-0.9-3.5-1c-0.8-0.3-4.9-1.2-5-1.2
		c-0.2,0.1-4.9-0.9-5.4-1.1c-0.3-0.1-1.6-0.3-2.8-0.5c-1.3-0.1-2.6-0.3-2.9-0.4c-1.1-0.4-6.2-0.7-9.2-0.5c-2.9,0.2-3.1,0.2-3.7,0.9
		c-0.4,0.4-0.6,0.8-0.6,1c0.1,0.4,6,3.2,6.4,3.1c0.1,0,1,0.1,1.8,0.3c2.3,0.5,2.5,0.5,5.2,0.8c1.3,0.2,2.6,0.4,2.7,0.5
		c0.1,0.1,0.9,0.3,1.8,0.3c0.8,0.1,2,0.2,2.7,0.4c0.6,0.1,2,0.3,3,0.5c1,0.2,2.3,0.4,2.9,0.6c0.5,0.2,1.1,0.3,1.2,0.2
		c0.1,0,0.8,0.1,1.6,0.4c1.5,0.5,5.9,1.5,6.1,1.4c0.1,0,1.1,0.2,2.2,0.6c2.6,0.8,9.2,2.5,13.6,3.5c1.8,0.4,3.3,0.8,3.3,0.9
		c0,0.1,0.5,0.5,1.1,0.9c0.7,0.4,1.8,1.2,2.6,1.9c0.8,0.6,1.5,1.1,1.6,1.1c0.1,0,0.4,0.1,0.6,0.3c0.4,0.4-3.2,0.2-9.7-0.4
		c-6.4-0.6-9.3-0.9-9.9-0.8c-0.4,0-1.6-0.1-2.7-0.2c-1.1-0.1-2.4-0.1-2.7-0.1c-0.4,0.1-1.4,0.1-2.4,0c-1-0.1-2-0.1-2.3,0.1
		c-0.3,0.1-0.6,0.1-0.7,0c0-0.1-0.3-0.2-0.5-0.1c-0.2,0.1-0.7,0.1-1.1,0c-1.3-0.3-4.2,0-5,0.4c-0.5,0.3-0.9,0.4-0.9,0.2
		c-0.1-0.2,0-0.3,0.2-0.4c0.7-0.3-1.1-0.4-3.5-0.3c-1.4,0.1-3.1,0.1-3.9,0.1c-2.4-0.1-7.1,0.5-8.2,1c-1,0.5-1.1,0.5-0.8,1.4
		c0.2,0.6,0.4,0.9,0.5,0.9c0.1-0.1,0.3,0.1,0.4,0.3c0.3,0.7,2.7,2.5,3.7,2.7c0.6,0.1,1.6,0.2,2.4,0.1c0.7-0.1,1.5-0.1,1.6,0
		c0.2,0.1,0.6,0,0.8-0.1c0.3-0.1,0.7-0.1,0.9,0c0.2,0.1,0.6,0.1,1,0c0.4-0.1,0.8-0.1,1-0.1c0.2,0.1,0.4-0.1,0.5-0.3
		c0.1-0.3,0.2-0.3,0.7,0c0.3,0.2,1.1,0.4,1.8,0.3c0.6-0.1,1.6-0.1,2.2,0c1,0.1,2.4,0.1,3-0.1c0.1,0,0.8,0,1.4,0
		c1.1,0.1,2.6,0,4.9-0.2c0.5-0.1,1.1,0,1.3,0.1c0.2,0.1,0.8,0.1,1.2,0c0.9-0.2,1.5-0.2,3.2-0.1c0.7,0.1,1.7,0,2.1-0.1
		s1.1-0.1,1.6-0.1c0.5,0.1,1,0,1.3,0c0.2-0.1,0.4,0,0.5,0.1c0.1,0.2,0.5,0.2,1.7,0.1c0.1,0,0.5,0,1,0c0.5,0,1.3,0,1.9,0
		c0.6,0,1.5,0.1,2.1,0.2c0.6,0.1,1.2,0.2,1.4,0.1c0.2-0.1,0.7-0.1,1.1-0.1c0.4,0,0.9,0,1,0s0.3,0,0.4,0c0.1,0,0.2,0,0.4,0
		c0.1,0,0.8,0,1.6,0.1c0.8,0.1,1.6,0,1.8,0c0.2-0.1,0.6-0.1,0.9,0c0.3,0,1.3,0.1,2.3,0.2c0.9,0.1,2,0.3,2.3,0.5
		c0.3,0.2,0.8,0.3,1.1,0.2c0.4-0.1,0.5-0.1,0.3,0.1c-0.7,0.9,0.9,0.9,1.7,0c0.3-0.4,0.6-0.4,1.2-0.1c0.5,0.2,0.9,0.4,0.9,0.6
		c0.1,0.3,2.4,1.7,3,1.9c0.3,0.1,0.6,0.3,0.7,0.5c0.1,0.2,0.6,0.5,1.1,0.8c0.6,0.2,1,0.5,1.1,0.6s-0.3,0.3-0.8,0.5s-0.8,0.2-0.7,0.1
		c0.2-0.3-1.8-0.4-4.8-0.3c-2.6,0.1-4,0.1-5.4,0c-1.7-0.1-2.2-0.1-2.1,0.2c0.1,0.1,0,0.2-0.2,0.2c-0.2,0-0.3-0.2-0.2-0.4
		C119.1,428.3,119,428.3,118.8,428.5z M90,436.1c-0.1,0.1-0.3,0-0.3-0.2c-0.1-0.1,0-0.3,0.2-0.3c0.1-0.1,0.3,0,0.3,0.2
		C90.2,435.9,90.1,436.1,90,436.1z M92.1,448.2c-0.1,0.1-0.3,0-0.3-0.2c-0.1-0.1,0-0.3,0.2-0.3c0.1-0.1,0.3,0,0.3,0.2
		C92.3,448,92.2,448.1,92.1,448.2z M120.2,442.5c-0.2,0.1-0.4,0-0.5-0.1c-0.1-0.1,0.1-0.3,0.3-0.4c0.2-0.1,0.4,0,0.5,0.1
		C120.5,442.3,120.4,442.4,120.2,442.5z M145,462.9c0,0.2-0.2,0.4-0.4,0.4c-0.2,0.1-0.4,0-0.5-0.1s0.1-0.3,0.4-0.4
		C144.8,462.6,145,462.7,145,462.9z M152.7,461.8c-0.1,0.1-0.3-0.1-0.4-0.3c-0.1-0.2,0-0.4,0.1-0.5c0.1-0.1,0.3,0.1,0.4,0.3
		S152.9,461.7,152.7,461.8z M196.1,430.2c0.2-0.1,0.4,0,0.5,0.1c0.1,0.1,0,0.3-0.1,0.3s-0.3,0-0.5-0.1
		C195.9,430.4,195.9,430.3,196.1,430.2z M199,438c0.2-0.1,0.4,0,0.5,0.1c0.1,0.1-0.1,0.3-0.3,0.4c-0.2,0.1-0.4,0-0.5-0.1
		C198.7,438.3,198.8,438.1,199,438z M185.4,403.6c0.1-0.1,0.3,0.1,0.4,0.3c0.1,0.2,0,0.4-0.1,0.5c-0.1,0.1-0.3-0.1-0.4-0.3
		C185.3,403.8,185.3,403.6,185.4,403.6z M200.3,450.2c0.1-0.1,0.3-0.2,0.5-0.2c0.2,0,0.2,0.1-0.1,0.2
		C200.4,450.4,200.2,450.3,200.3,450.2z M174.7,407.6c0.1-0.1,0.3-0.2,0.5-0.2c0.2,0,0.2,0.1-0.1,0.2
		C174.8,407.7,174.7,407.7,174.7,407.6z M170,426.3c0.1-0.1,0.3,0,0.3,0.2c0.1,0.1,0,0.3-0.2,0.3c-0.1,0.1-0.3,0-0.3-0.2
		C169.8,426.5,169.9,426.4,170,426.3z M168.3,426.7c-0.2,0.1-0.4,0-0.4-0.3c0-0.2,0.1-0.5,0.2-0.5c0.1,0,0.3,0.1,0.4,0.3
		C168.6,426.4,168.5,426.6,168.3,426.7z M156.7,394.9c0.2-0.1,0.5,0,0.6,0.3c0.1,0.2,0,0.3-0.1,0.3c-0.1-0.1-0.4-0.2-0.6-0.3
		C156.4,395.2,156.4,395,156.7,394.9z M167.4,427c0.1,0,0.2,0.1,0.2,0.3c0,0.2-0.1,0.4-0.1,0.5c-0.1,0-0.2-0.1-0.2-0.3
		C167.2,427.2,167.3,427,167.4,427z M155.5,408.6c-0.2,0.6-0.3,0.6-0.4,0.2c-0.1-0.2,0-0.4,0.2-0.5
		C155.7,408.2,155.7,408.2,155.5,408.6z M169.6,440.4c0.5,0.2,0.4,0.8-0.1,1c-0.3,0.1-0.6,0-0.6-0.2
		C168.8,440.8,169.3,440.2,169.6,440.4z M72.8,403c-0.1,0.1-0.3,0-0.4-0.2c-0.1-0.1,0-0.3,0-0.3c0.1,0,0.2,0,0.4,0.2
		S72.9,402.9,72.8,403z M116.7,406.2c-0.5-0.3-1-0.6-1-0.7c0-0.1-0.4-0.4-0.8-0.7c-0.4-0.3-1.2-0.9-1.9-1.4c-1.3-1-1.8-1.3-3.8-2.8
		l-1.5-1.1l-1.2-3.9c-1-3.1-1.3-3.9-1.6-3.9c-0.3,0-0.3-0.1-0.1-0.4c0.2-0.2,0-1-0.5-2.3c-1-2.8-1.3-3.7-1.2-4.2
		c0-0.2,0-0.5-0.1-0.6c-0.1-0.1-0.3-0.7-0.4-1.4c-0.1-0.6-0.3-1.9-0.6-2.7c-0.2-0.9-0.4-1.9-0.5-2.4l0-0.8l0.3,0.9
		c0.2,0.5,0.6,1.3,1,1.8s1.1,2,1.6,3.2c0.5,1.3,1.1,2.4,1.3,2.5c0.1,0.1,0.5,0.8,0.8,1.5c0.3,0.7,0.7,1.4,0.9,1.6
		c0.2,0.2,0.4,0.5,0.5,0.7c0.8,1.5,1.6,2.9,2.3,4c0.5,0.7,0.9,1.5,0.9,1.7c0,0.3,0.2,0.5,0.3,0.5c0.2,0,0.3,0.3,0.3,0.6
		c0,0.3,0.2,0.5,0.4,0.4c0.2-0.1,0.4,0.1,0.4,0.7c0.2,1,0.7,1.7,0.8,1.1c0.1-0.3,0.1-0.3,0.1,0.1c0,0.3,0,0.6,0,0.7
		c0.1,0.4,1.8,3.5,2.7,4.8c0.6,0.8,1,1.6,0.8,1.6s0,0.4,0.2,0.7l0.4,0.6L116.7,406.2z M113.7,385.7c-0.3,0.1-0.4,0.1-0.4,0
		s0.3-0.2,0.5-0.2C114.1,385.5,114,385.6,113.7,385.7z M125.1,408.9c-0.3,0-0.5-0.1-0.4-0.2c0-0.1,0.3-0.1,0.5,0
		C125.5,408.8,125.5,408.9,125.1,408.9z M138.3,434.8c-0.1,0.1-0.3,0-0.3,0c0-0.1,0-0.2,0.2-0.4c0.1-0.1,0.2-0.1,0.3,0
		C138.5,434.5,138.4,434.7,138.3,434.8z M141.1,418.9c0.1,0.1,0,0.3,0,0.3c-0.1,0-0.2,0-0.4-0.2c-0.1-0.1-0.1-0.2,0-0.3
		C140.9,418.7,141,418.8,141.1,418.9z M138.2,412c0.3,0,0.1,0.1-0.3,0.2c-0.4,0.2-0.6,0.2-0.5,0C137.6,412.2,137.9,412.1,138.2,412z
		 M136.5,409.8c0.2-0.3,0.5,0,0.4,0.4c-0.1,0.3-0.1,0.3-0.3,0.1C136.5,410.2,136.4,409.9,136.5,409.8z M138.1,416.2
		c0.3-0.8,0.5-0.7,0.4,0.2c-0.1,0.5-0.5,1-0.6,0.6C137.8,417,137.9,416.6,138.1,416.2z M138.2,417.7c0.2-0.1,0.4,0,0.3,0.2
		c0,0.2-0.1,0.3-0.2,0.3c-0.1,0-0.2-0.1-0.3-0.2S138,417.7,138.2,417.7z M138.5,419.4c0.1-0.1,0.3-0.2,0.5-0.2
		c0.2,0,0.2,0.1-0.1,0.2C138.6,419.5,138.4,419.5,138.5,419.4z M138.4,424.2c0.4-0.1,0.4-0.1,0.2,0.2c-0.4,0.5-0.4,0.5-0.5,0.2
		C138,424.4,138.1,424.3,138.4,424.2z M132.7,434.1c2.3-0.1,5.5-1,6.9-1.9c0.6-0.4,0.8-0.4,0.7-0.1c0,0.2,0.1,0.3,0.3,0.2
		c0.2-0.1,0.9,0.3,1.6,0.7c0.7,0.5,1.3,0.8,1.5,0.7c0.1-0.1,0.3,0,0.3,0.2c0.1,0.3,0.1,0.3-1.2,0.2c-0.6-0.1-1.4-0.1-1.7,0
		c-0.3,0.1-1.2,0.1-2,0c-0.8-0.1-1.6,0-1.7,0.1c-0.2,0.1-0.5,0.2-0.8,0.1c-0.3-0.1-0.7-0.2-0.8-0.1c-0.2,0-0.8,0.1-1.5,0.2
		c-0.6,0.1-1.3,0.2-1.4,0.3c-0.2,0.1-0.4,0-0.5-0.1C132.1,434.2,132.2,434.1,132.7,434.1z M130.6,434.2c0.3-0.1,0.7-0.1,0.8,0
		c0.3,0.2-0.3,0.5-0.9,0.3C130.1,434.4,130.1,434.3,130.6,434.2z M128.4,434.8c0.1-0.1,0.3-0.2,0.5-0.2c0.2,0,0.2,0.1-0.1,0.2
		C128.5,434.9,128.3,434.9,128.4,434.8z M127.2,434.5c0.1,0,0.2,0,0.4,0.2c0.1,0.1,0.1,0.2,0,0.3c-0.1,0.1-0.3,0-0.4-0.2
		C127.1,434.7,127.1,434.5,127.2,434.5z M126.4,434.5c0.1,0,0.2,0,0.4,0.2s0.1,0.2,0,0.3s-0.3,0-0.4-0.2
		C126.3,434.7,126.3,434.6,126.4,434.5z M123.2,434.6c0-0.2,0.2-0.3,0.4-0.2c0.2,0,0.4,0.3,0.3,0.5
		C123.8,435.3,123.2,435.1,123.2,434.6z M126,442.5c0.2,0,0.2,0.1-0.1,0.2c-0.3,0.1-0.4,0.1-0.4,0S125.8,442.5,126,442.5z
		 M122.3,435.3c0.1-0.1,0.3-0.2,0.5-0.2c0.2,0,0.2,0.1-0.1,0.2C122.4,435.4,122.2,435.4,122.3,435.3z M121.3,439.6
		c-0.1,0.3-0.1,0.3-0.3,0.1c-0.1-0.2-0.2-0.4-0.1-0.5C121.1,438.8,121.4,439.1,121.3,439.6z M121.5,435.2c0.1,0.1,0,0.3-0.4,0.4
		c-0.3,0.1-0.7,0.1-0.9,0c-0.1-0.1,0-0.3,0.4-0.4C120.9,435.1,121.3,435.1,121.5,435.2z"/>
</g>
</svg>
