<?xml version="1.0" encoding="utf-8"?>
<!-- Generator: Adobe Illustrator 25.2.1, SVG Export Plug-In . SVG Version: 6.00 Build 0)  -->
<svg version="1.1" id="Layer_1" xmlns="http://www.w3.org/2000/svg" xmlns:xlink="http://www.w3.org/1999/xlink" x="0px" y="0px"
	 viewBox="0 0 411.9 134.8" style="enable-background:new 0 0 411.9 134.8;" xml:space="preserve">
<style type="text/css">
	.st0{fill:#583527;}
	.st1{enable-background:new    ;}
</style>
<g transform="translate(-556.098 -173.193)">
	<g transform="translate(111.098 -53.807)">
		<path class="st0" d="M630.4,319.2c-4.7-4.5-7-10.4-7-17.7c0-7.3,2.3-13.2,7-17.7c4.7-4.5,10.7-6.8,17.9-6.8
			c7.3,0,13.2,2.3,17.9,6.8c4.7,4.5,7,10.4,7,17.7s-2.3,13.2-7,17.7c-4.7,4.5-10.6,6.8-17.9,6.8
			C641.1,325.9,635.1,323.7,630.4,319.2z M642.3,291.7c-1.5,2.4-2.3,5.6-2.3,9.8c0,4.1,0.8,7.4,2.3,9.7c1.2,2.2,3.5,3.5,6,3.5
			c2.5,0,4.8-1.4,6-3.6c1.5-2.4,2.2-5.6,2.2-9.7c0-4.1-0.7-7.4-2.2-9.8c-1.2-2.2-3.5-3.6-6-3.6C645.8,288.2,643.5,289.5,642.3,291.7
			z"/>
		<path class="st0" d="M677.7,301.7c0-7.6,2.4-13.6,7.3-18c4.9-4.4,11.3-6.8,17.9-6.6c5.5,0,11,1.4,15.9,4l-0.9,16l-11.9,2.7
			l-0.5-10.8c-3.1-0.3-6.1,0.8-8.3,2.9c-2.1,2.1-3.2,5.4-3.2,9.8c0,8.3,3.4,12.4,10.3,12.4c3.2,0,7.5-1,12.9-3.1l2.3,11.1
			c-5.6,2.4-11.7,3.7-17.8,3.8c-6.9,0-12.6-2.1-17.2-6.2C680,315.5,677.7,309.5,677.7,301.7z"/>
		<path class="st0" d="M726,324.8v-45l15.9-2.7l0.4,5.9c5.6-3.9,11-5.9,16-5.9c3.7-0.1,7.3,1.4,9.9,4.1c2.6,2.7,3.9,6.6,3.9,11.7v32
			h-16.2v-29.5c0-3.8-1.8-5.8-5.3-5.8c-2.5,0-5.3,1-8.3,3.1v32.2H726z"/>
		<path class="st0" d="M788.7,254l16.5,1.5L793,273.3h-12.3L788.7,254z M781,324.8v-45l16.2-2.7v47.7L781,324.8z"/>
		<path class="st0" d="M806.2,324.8v-67.7l16.2-2.7v39.8l13.4-16h18.7l-17.1,18.9l19.5,27.7h-19.7L827,308.7l-4.6,3.1v13.1
			L806.2,324.8z"/>
		<path class="st0" d="M613.1,281.1c-2.3-2.7-5.7-4.2-9.3-4.1c-5.3,0-11,2.2-16.8,6.6c-2-4.2-6.4-6.7-11-6.6c-4.9,0-9.8,2-14.9,5.9
			l-0.4-5.9l-15.9,2.7v1.7c10.5,12.5,10.5,30.7,0,43.2v0.1h16.2v-32.2c2.6-2,5-3.1,7-3.1c3.1,0,4.6,1.9,4.6,5.8v29.5H589v-29.5
			c0-0.5-0.1-1.4-0.2-2.4c2.6-2.2,5-3.2,7.2-3.2c3,0,4.5,1.9,4.5,5.8v29.5h16.2v-32C616.7,287.7,615.5,283.8,613.1,281.1z"/>
		<path class="st0" d="M486.1,297.5c0.7-4,2-7.8,4.1-11.3c-0.6-1.1-1.3-2.1-2.1-3.1c-3.1-3.9-7.8-6.2-12.8-6.1
			c-5.2,0-10.1,2.2-13.7,5.9l-0.4-5.9l-15.9,2.7v64.9h16.2v-20.7c3.2,1.3,6.6,2,10.1,2c6,0.2,11.7-2.4,15.6-6.9
			c0.5-0.6,1-1.2,1.5-1.9C485.8,311,484.9,304.2,486.1,297.5z M474.2,310.5c-1.3,2.3-3.8,3.8-6.5,3.7c-2.1-0.1-4.2-0.6-6.1-1.4
			v-20.8c3-1.8,5.6-2.7,7.7-2.7c2.2-0.1,4.3,1.1,5.4,3.1c1.3,2.5,1.9,5.4,1.8,8.2C476.5,304.7,475.7,308,474.2,310.5L474.2,310.5z"
			/>
		<g transform="translate(489.253 273.134)">
			<path class="st0" d="M73.5,82.6c1.1-0.8,1.3-2.3,0.6-3.4L58.5,57.5c-0.8-1.1-2.3-1.3-3.4-0.6l-2,1.4l-3.9-5.4
				c12.6-10.7,14.3-29.6,3.6-42.2C42.2-2,23.3-3.6,10.6,7S-3.6,36.6,7,49.3c9.5,11.2,25.7,13.9,38.3,6.4l3.9,5.4l-2,1.4
				c-1.1,0.8-1.3,2.3-0.6,3.4l15.6,21.8c0.8,1.1,2.3,1.3,3.4,0.6L73.5,82.6z M54.7,34.1C52.5,47.8,39.5,57,25.8,54.7
				C12.1,52.5,2.9,39.5,5.2,25.8C7.5,12.1,20.4,2.9,34.1,5.2C47.8,7.5,57,20.4,54.7,34.1L54.7,34.1z M68.7,80.1l-3.9,2.8L52,65
				l3.9-2.8L68.7,80.1z"/>
		</g>
		<g class="st1">
			<path class="st0" d="M447.5,267v-29.1h5.8v12.4l11.7-12.4h6.9l-11.8,12.5l12.8,16.6h-7.2l-9.3-12.4l-3,2.3V267H447.5z"/>
			<path class="st0" d="M475.1,267v-20.5l5.2-0.9l0.2,2.8c2.4-1.9,4.9-2.8,7.3-2.8c1.9,0,3.4,0.6,4.6,1.8c1.2,1.2,1.8,3,1.8,5.5V267
				h-5.4v-13.5c0-2.5-1.1-3.7-3.3-3.7c-1.7,0-3.3,0.7-5,2V267H475.1z"/>
			<path class="st0" d="M498.7,239.5c0-0.9,0.3-1.7,0.9-2.3c0.6-0.6,1.4-0.9,2.3-0.9c0.9,0,1.7,0.3,2.3,0.9c0.6,0.6,0.9,1.4,0.9,2.3
				c0,0.9-0.3,1.6-0.9,2.2c-0.6,0.6-1.4,0.9-2.3,0.9c-0.9,0-1.7-0.3-2.3-0.9C499,241.1,498.7,240.4,498.7,239.5z M499.2,267v-20.5
				l5.4-0.9V267H499.2z"/>
			<path class="st0" d="M509.7,267v-31l5.4-0.9v13.3c2.4-1.9,4.9-2.8,7.3-2.8c1.9,0,3.4,0.6,4.6,1.8c1.2,1.2,1.8,3,1.8,5.5V267h-5.4
				v-13.5c0-2.5-1.1-3.7-3.3-3.7c-1.7,0-3.3,0.7-5,2V267H509.7z"/>
			<path class="st0" d="M535.6,264.5c-2-2-3-4.7-3-7.9c0-3.3,1-5.9,3-7.9c2-2,4.6-3.1,7.7-3.1c3.1,0,5.7,1,7.7,3.1c2,2,3,4.7,3,7.9
				c0,3.3-1,5.9-3,7.9c-2,2-4.6,3-7.7,3C540.2,267.5,537.6,266.5,535.6,264.5z M538.1,256.5c0,2.1,0.5,3.8,1.5,5.1
				c1,1.3,2.2,1.9,3.8,1.9c1.5,0,2.8-0.6,3.7-1.9c1-1.3,1.4-3,1.4-5.1c0-2.1-0.5-3.9-1.4-5.2c-1-1.3-2.2-2-3.7-2
				c-1.6,0-2.8,0.6-3.8,1.9C538.6,252.7,538.1,254.4,538.1,256.5z"/>
			<path class="st0" d="M557.9,267v-20.5l5.2-0.9l0.2,2.8c2.2-1.9,4.5-2.8,6.8-2.8c2.4,0,4,1.1,5,3.2c2.5-2.1,5.1-3.2,7.6-3.2
				c1.7,0,3.2,0.6,4.2,1.9c1.1,1.2,1.6,3.1,1.6,5.4V267h-5.4v-13.5c0-2.5-0.9-3.7-2.8-3.7c-1.5,0-3,0.7-4.6,2.1
				c0.1,0.5,0.1,1,0.1,1.6V267h-5.4v-13.5c0-2.5-0.9-3.7-2.8-3.7c-1.4,0-2.9,0.7-4.4,2V267H557.9z"/>
			<path class="st0" d="M595.3,264.5c-2-2-3-4.7-3-7.9c0-3.3,1-5.9,3-7.9c2-2,4.6-3.1,7.7-3.1c3.1,0,5.7,1,7.7,3.1c2,2,3,4.7,3,7.9
				c0,3.3-1,5.9-3,7.9c-2,2-4.6,3-7.7,3C600,267.5,597.4,266.5,595.3,264.5z M597.9,256.5c0,2.1,0.5,3.8,1.5,5.1
				c1,1.3,2.2,1.9,3.8,1.9c1.5,0,2.8-0.6,3.7-1.9c1-1.3,1.4-3,1.4-5.1c0-2.1-0.5-3.9-1.4-5.2c-1-1.3-2.2-2-3.7-2
				c-1.6,0-2.8,0.6-3.8,1.9C598.4,252.7,597.9,254.4,597.9,256.5z"/>
			<path class="st0" d="M617.6,267v-31l5.4-0.9V267H617.6z"/>
			<path class="st0" d="M627.3,266l0.7-3.8c2.7,1.1,5,1.7,6.9,1.7c1.1,0,1.9-0.2,2.6-0.7c0.6-0.5,0.9-1.2,0.9-2
				c0-0.7-0.3-1.2-0.9-1.5c-0.6-0.4-1.4-0.7-2.5-0.9c-0.9-0.2-1.6-0.4-2.1-0.6c-0.5-0.1-1.2-0.4-2-0.8c-0.8-0.4-1.5-0.8-1.9-1.2
				c-0.5-0.4-0.9-1-1.3-1.8c-0.4-0.7-0.6-1.6-0.6-2.5c0-2,0.7-3.5,2.2-4.6c1.5-1.1,3.4-1.6,5.9-1.6c2.5,0,4.8,0.5,7.1,1.4l-0.7,3.9
				c-2.5-1-4.7-1.6-6.6-1.6c-2,0-3,0.8-3,2.3c0,0.7,0.3,1.2,0.8,1.6c0.6,0.4,1.4,0.7,2.4,1c0.9,0.2,1.6,0.4,2.1,0.6
				c0.5,0.2,1.2,0.4,2.1,0.8c0.9,0.4,1.5,0.8,2,1.2c0.5,0.4,0.9,1,1.3,1.7c0.4,0.7,0.6,1.6,0.6,2.5c0,2.3-0.9,4-2.6,5.1
				c-1.7,1.1-3.8,1.7-6.3,1.7C632.2,267.5,629.8,267,627.3,266z"/>
			<path class="st0" d="M647.5,267v-31l5.4-0.9V255l7.9-8.9h6.3l-7.9,8.7l9,12.3h-6.7l-5.8-8.4l-2.7,2.1v6.3H647.5z"/>
			<path class="st0" d="M666.8,246h5.9l3.1,9.7l2,6.6l2-6.6l3.1-9.7h5.7l-7.6,19.7c-1.1,2.8-2.5,5.2-4.2,7.1
				c-1.7,1.9-4.1,3.1-7.1,3.7l-1.6-4.4c2.9-1,5.2-2.5,6.8-4.6L666.8,246z M678.4,235.2l5.6,0.6l-5.1,7.7h-4.3L678.4,235.2z"/>
		</g>
	</g>
</g>
</svg>
