<svg width="46" height="50" viewBox="0 0 46 50" fill="none" xmlns="http://www.w3.org/2000/svg"><path d="M9.68 23.784c.267.521.614 1.424.885 2.291.261.838.266.913.095 1.008-.22.12-.22.12-.442-.26-.281-.482-.738-1.796-.91-2.608-.13-.627-.13-.697-.014-.812.12-.116.15-.086.392.386m14.848-1.094c.412.09 1.306.482 1.381.602.025.04-.01.095-.08.126-.15.055-.387-.116-.317-.231.03-.05-.015-.06-.115-.03a.3.3 0 0 1-.272-.05c-.06-.055-.145-.106-.19-.106-.176 0-.689-.215-.689-.285 0-.076.015-.08.282-.02m-3.669-.733c-.06.026-.13.02-.155-.005-.026-.025.02-.045.105-.04.095 0 .116.02.05.05m-12.23 5.923c-.256 0-.613-.622-.904-1.575a13.212 13.212 0 0 0-.317-.943c-.075-.14.046-.31.216-.31.056 0 .136.065.176.14.166.31.588 1.439.955 2.547.035.105 0 .14-.126.14ZM22.704 11.87a29.476 29.476 0 0 0-.92-.216c-1.08-.241-2.466-.657-2.426-.728.02-.035-.03-.045-.116-.02-.135.035-.658-.165-.658-.255 0-.02.04-.126.096-.241.1-.22.11-.22.798-.12.538.08 1.066.295 1.804.737.302.18.774.41 1.05.511.277.1.513.226.533.286.025.075-.02.085-.16.05m1.301.356c-.11-.09-.15-.17-.1-.2.045-.03.16.015.256.095.306.266.166.36-.156.105Z" fill="#474440"/><path d="M15.51 19.747c.2.11.602.33.899.491.522.291 1.175.542 2.14.823 1.05.306 2.623.993 1.904.827-.11-.025-.532-.105-.93-.18-.401-.076-.929-.186-1.175-.251s-.653-.166-.904-.23c-.453-.111-1.256-.402-1.89-.683a14.39 14.39 0 0 0-.97-.366c-.713-.245-.848-.326-.848-.486 0-.256.879-.436 1.215-.251l.568.31m2.055-3.931c.176.056.523.181.769.281.422.166.88.321 2.266.763.336.105.88.29 1.216.41.603.216 1.01.332 2.387.678.416.105.798.255.889.346.107.107-.055.144-.488.11-.572-.045-2.336-.446-2.994-.682-.136-.05-1.01-.33-1.945-.627-.934-.296-1.834-.607-2-.692-.165-.085-.356-.15-.427-.15-.07 0-.582-.216-1.14-.487-.558-.265-1.045-.486-1.08-.486-.136 0-.262-.24-.211-.401.085-.276.422-.2 1.457.33.532.277 1.115.547 1.296.603m-2.261 1.794c.211.036 1.286.527 1.321.608.015.035.09.06.171.06.126 0 .638.145 1.704.491.155.05.391.136.527.19.483.196 1.764.633 2.593.883.357.106 1.286.411 2.065.677.779.266 1.744.582 2.145.702 1.02.306 1.09.341 1.09.527 0 .09-.014.165-.03.165-.1 0-1.607-.456-2.436-.737-.915-.31-1.246-.436-2.367-.912-.89-.377-2.331-.868-2.974-1.018-1.186-.271-1.568-.382-1.744-.507-.095-.07-.221-.105-.276-.085-.146.055-1.754-.406-2.035-.582-.236-.15-.352-.27-.357-.366 0-.065.392-.12.608-.09m11.773-2.327c.291.09.964.27 1.497.396 1.407.326 3.145.818 3.24.913.106.105-1.054.03-1.336-.09-1.402-.587-3.115-1.063-4.411-1.224-1.09-.135-2.166-.351-3.683-.747a42.153 42.153 0 0 0-1.538-.351c-.512-.105-1.02-.23-1.135-.276-.11-.045-.568-.175-1.01-.286-1.277-.326-2.568-.802-2.694-.993-.246-.37.166-.436 1.036-.165.286.09.582.215.653.276a.5.5 0 0 0 .266.115c.075 0 .583.11 1.126.24.542.131 1.351.317 1.798.412 1.05.22 1.98.481 3.482.968a42.55 42.55 0 0 0 1.704.516c.266.07.723.2 1.01.291m2.663-4.438c-.297 0-.96-.19-.915-.26.025-.04-.02-.066-.105-.056-.221.025-.679-.095-.679-.175 0-.04-.095-.07-.21-.07-.227 0-.714-.447-.634-.572.06-.1.136-.09.337.05.095.065.196.09.221.05.055-.09.86.11 1.276.321.166.085.347.155.397.155.05 0 .196.076.322.166.251.175.246.401-.005.401m5.567 10.501c-.1-.04-.216-.08-.246-.086l-.97-.26a225.59 225.59 0 0 0-2.085-.552c-.648-.17-1.447-.381-1.779-.476-.331-.09-.688-.17-.788-.17-.196 0-.257-.201-.08-.267.054-.02.075-.06.044-.095-.03-.035-.12.01-.2.09a.427.427 0 0 1-.553.03c-.046-.035-.216-.085-.382-.115s-.332-.11-.372-.18c-.075-.13-.03-.517.055-.507.03 0 .362.095.739.206.377.11.98.235 1.336.28.357.046.774.116.93.156.156.04.502.115.769.17.728.146 1.964.467 2.467.632.246.08.754.251 1.135.371.81.261 1.608.647 1.669.808.025.06-.026.185-.106.27-.176.186-.502.106-.568-.14-.04-.165-.266-.3-.266-.165 0 .1-.492.1-.744.005m-1.889 2.367a9.559 9.559 0 0 1-.387-.08 1.01 1.01 0 0 0-.13-.026c-.04-.005-.091-.085-.116-.18-.04-.15-.06-.16-.16-.056-.106.106-.222.086-.95-.15-.458-.145-.885-.27-.95-.27-.241 0-1.553-.442-1.553-.522 0-.045-.2-.09-.447-.105a4.21 4.21 0 0 1-1.492-.377c-.156-.07-.231-.125-.171-.13.09 0 .09-.025.01-.125-.085-.1-.07-.12.09-.116.106 0 .523.096.92.2a39.08 39.08 0 0 0 1.497.357c.784.165 2.502.622 3.156.837.2.066.763.241 1.256.386.492.146.94.301.995.341a.76.76 0 0 0 .301.1c.251.026.628.211.663.322.015.045-.07.13-.196.19-.155.07-.23.076-.25.015-.016-.05-.061-.07-.096-.045-.07.04-.955-.21-1.417-.406a3.647 3.647 0 0 0-.568-.165m-.161-6.574c0-.046.015-.151.02-.241.015-.176.216-.206.578-.08.11.04.794.25 1.517.476 1.503.466 3.347 1.118 3.457 1.223.086.086-.311.698-.527.808a.816.816 0 0 1-.317.075c-.251 0-1.24-.416-2.713-1.138-1.603-.788-2.025-1.023-2.015-1.129m2.583-1.975c.136.055.407.145.603.2.2.055.598.21.884.346.286.136.673.261.864.286.267.03.357.08.392.21.086.312.05.362-.261.412-.306.05-1.095-.09-1.035-.19.02-.03-.136-.06-.347-.076a3.61 3.61 0 0 1-.784-.17 7.504 7.504 0 0 0-.93-.251c-.29-.055-.562-.136-.602-.176-.04-.04-.171-.07-.282-.07-.115 0-.517-.095-.894-.21a24.623 24.623 0 0 0-1.351-.362 10.398 10.398 0 0 1-.85-.225 14.24 14.24 0 0 0-.874-.256 20.08 20.08 0 0 1-1.256-.376c-.312-.11-.729-.246-.93-.306-.487-.14-.95-.34-1.01-.446-.03-.045-.095-.075-.145-.065-.13.025-.462-.09-.462-.16 0-.03-.086-.061-.192-.066-.246-.015-1.04-.411-1.125-.562-.035-.065-.1-.095-.14-.07-.121.075-.724-.14-.724-.255 0-.13.1-.13.547.01a14.57 14.57 0 0 1 .649.215c.01 0 .23.055.487.12.256.066.668.17.915.231.246.06.693.17.99.236.3.07.668.175.823.24.151.066.297.096.322.076.025-.025.166 0 .317.05.15.05.542.14.874.205.331.06.748.15.924.201.176.05.689.166 1.136.256.447.095 1.045.24 1.336.326 1.598.476 1.925.576 2.146.672m2.778-2.152c0 .05-.085.09-.186.09-.23 0-1.673-.31-1.793-.385a.739.739 0 0 0-.166-.07c-.312-.05-1.15-.301-1.226-.367-.05-.04-.126-.07-.161-.06-.13.035-2.698-.837-2.698-.912 0-.046.035-.146.08-.231.106-.19.417-.19 1.226.015.327.08.83.236 1.12.34.292.106 1 .347 1.578.532.578.19 1.09.392 1.141.452.05.06.11.09.136.065.08-.08.974.125 1.125.26.196.176.191.266-.015.211-.09-.025-.16 0-.16.05M35.31 34.404c.086-.035.247.076.488.316.196.2.357.417.357.482s.045.16.1.22c.277.301.629 1.033.634 1.334 0 .2.015.206.075.066.065-.156.07-.156.075.014 0 .1.04.196.076.221.125.08.18.587.08.802-.176.382-.291.321-.718-.37-.226-.362-.407-.698-.407-.738 0-.12-.734-1.604-.87-1.765-.145-.165-.08-.506.106-.581m-.733.601c.1-.165.19-.07.437.452.135.295.25.566.25.606 0 .04.061.166.132.276.075.11.11.22.09.246-.025.025.015.115.085.2.141.166.75 1.49.774 1.685.005.06.096.206.196.316.186.2.231.341.12.336-.255-.005-.969-1.098-.873-1.344.03-.075.01-.095-.05-.06-.061.04-.076.015-.041-.075.03-.085.01-.136-.055-.136-.196 0-1.181-2.316-1.065-2.502Zm-.895-9.051s.06-.035.085-.08c.025-.045.01-.08-.035-.08-.045 0-.085.035-.085.08s.015.08.035.08Zm-1.126-.206c-.311-.12-.783-.3-1.055-.4-1.085-.402-1.281-.492-1.311-.567-.04-.12.251-.276.382-.201.065.035.246.09.402.12.155.03.331.096.387.14.055.046.226.096.381.111.151.015.397.085.543.165.146.076.357.146.472.156.11.01.438.11.729.216.412.155.532.235.553.386.025.18.01.185-.447.14a4.536 4.536 0 0 1-1.04-.266" fill="#474440"/><path d="M1.822 38.391c.11.085.312.175.447.196.493.08.734.15.92.27.105.07.296.136.432.156.291.035 1.588.421 1.789.526.075.04.206.076.281.08.08 0 .287.06.467.126.181.065.724.23 1.216.361.493.13.955.276 1.03.32a.705.705 0 0 0 .307.081c.21 0 1.457.401 1.608.517.06.05.246.09.407.09.281 0 .984.186 1.447.376.12.05.276.095.341.105.166.025.93.261 1.417.447.222.08.659.225.97.31.312.09.895.261 1.297.382 1.2.36 2.873.807 3.316.887.13.025.281.075.326.115.05.04.161.07.247.066.085 0 .321.035.522.09.201.055.528.135.729.175.386.086 2.01.572 2.552.763.181.065.382.115.447.115.066 0 .573.15 1.13.331.559.18 1.121.361 1.257.396.945.256 2.065.587 2.753.803.448.14.955.29 1.136.33.176.04.608.18.95.311.346.13.628.221.628.2 0-.02.075.006.17.056.096.05.267.105.387.125.221.04 3.327 1.028 3.618 1.154.322.14.653.245.955.296.367.065.382.14-.307-1.3-.573-1.203-1.175-2.526-1.175-2.597 0-.03-.096-.27-.212-.546-.301-.707-.381-.898-.758-1.695-.186-.391-.352-.787-.367-.873a1.325 1.325 0 0 0-.18-.376c-.292-.416-1.081-2.131-1.041-2.246.025-.066 0-.116-.06-.116-.09 0-.709-1.093-.749-1.328-.015-.086-.608-1.099-1.136-1.941a10.843 10.843 0 0 1-.547-1.008c-.136-.29-.302-.587-.367-.662-.065-.075-.322-.532-.568-1.008a32.978 32.978 0 0 0-.829-1.504 13.159 13.159 0 0 1-.387-.662c0-.015-.16-.291-.356-.617-.196-.326-.347-.607-.327-.627.02-.02.136 0 .256.045.236.08.427.056.427-.055 0-.035-.07-.085-.16-.105-.09-.025-.161-.01-.161.03s-.066.05-.14.02c-.277-.1-.604-.481-.986-1.158-.447-.798-.517-.968-.407-.968.046 0 .06-.035.035-.08-.03-.046-.075-.066-.11-.046-.035.02-.181-.15-.337-.38-.311-.477-.281-.437-.748-.998-.603-.728-.729-.793-1.473-.783-.356 0-.773.035-.924.07-.216.05-.292.035-.352-.07-.04-.075-.11-.11-.15-.085-.046.025-.026.1.045.17.17.171.15.246-.08.306a.97.97 0 0 0-.368.211c-.19.19-.643.22-.643.04 0-.25-.226-.02-.276.286-.04.26-.085.32-.236.32-.1 0-.246.076-.322.166-.186.216-.99.727-1.145.727-.07 0-.126.03-.126.066 0 .08-.523.336-.683.336-.06 0-.131.055-.156.12-.025.065-.13.12-.236.12a.5.5 0 0 0-.297.1c-.085.08-.115.08-.145 0-.02-.055-.106-.1-.191-.1-.086 0-.156-.045-.156-.1 0-.055-.04-.035-.085.045a.479.479 0 0 0-.056.281c.03.145-.145.316-.543.517-.592.3-1.215.656-1.256.707-.085.12-.422.255-.537.21-.066-.025-.1-.01-.076.03.066.106-.542.502-.763.502-.026 0-.116.07-.211.16-.352.331-.729.456-1.292.436-.316-.01-.492.01-.427.05.06.04.191.07.292.07.266 0 .236.277-.056.482-.13.09-.276.166-.321.166-.045 0-.09.035-.09.08s-.056.08-.121.08c-.066 0-.12.035-.12.08s-.091.08-.202.08c-.11 0-.2.04-.2.086 0 .045-.036.06-.086.035-.045-.03-.07 0-.06.055.025.12-1.608 1.264-1.82 1.274-.075 0-.14.045-.14.09s-.156.156-.342.24c-.19.086-.306.156-.261.161.045 0-.136.126-.402.276-.387.22-.507.256-.608.18-.105-.08-.105-.075-.015.04.095.121.055.171-.347.427-.246.16-.467.29-.487.29-.065 0-.81.517-1.015.708-.226.205-.322.23-.332.085 0-.055-.04-.02-.08.085-.04.1-.191.246-.327.321a3.43 3.43 0 0 0-.477.321c-.126.1-.266.18-.312.18-.045 0-.09.036-.09.076s-.12.135-.261.205c-.146.07-.407.236-.588.367-.457.34-1.156.666-1.307.611-.07-.025-.18.01-.25.076-.071.07-.187.105-.257.08-.07-.025-.04.025.065.11m15.928 5.692c.045-.026.08-.086.08-.126 0-.115-.06-.09-.11.05-.025.07-.015.106.03.076Zm13.436 4.402c.04 0 .055-.055.03-.12s-.06-.12-.08-.12c-.02 0-.03.055-.03.12s.035.12.08.12Zm2.643-8.394c-.086 0-.13.015-.106.04.025.025.096.03.156.005.065-.025.045-.045-.05-.05m-12.185-15.48c0 .085.015.13.046.105.03-.03.12-.015.206.03.155.086.386.015.256-.075-.04-.025-.141-.16-.226-.29-.141-.221-.156-.226-.216-.08-.036.084-.066.23-.07.31m-1.197 1.174c.08 0 .141-.06.141-.136 0-.075-.025-.1-.06-.06-.035.04-.096.1-.14.135-.046.035-.021.06.06.06Zm-2.904 2.055c.08-.21.055-.45-.045-.42-.05.014-.106.145-.12.29-.03.27.08.356.165.13Zm13.124 3.195c.468-.241.493-.246.709-.116.2.12.22.12.22.005 0-.07-.04-.125-.085-.125-.045 0-.065-.03-.045-.065.035-.06.915-.592 1.548-.938.136-.075.372-.21.527-.3.156-.096.483-.282.729-.417s.482-.27.528-.3c.045-.036.427-.252.849-.487 2.442-1.344 2.206-1.144 2.472-2.137.136-.521.472-1.464.683-1.93.09-.2.166-.381.166-.401 0-.055.548-1.264.693-1.52.066-.12.12-.265.12-.326 0-.06.071-.25.162-.42.186-.362.537-1.41.608-1.826.03-.155.08-.356.12-.446.04-.09.151-.437.246-.768.257-.867.498-1.56.583-1.674.04-.056.05-.16.026-.236-.066-.166.095-.677.21-.677.046 0 .066-.08.04-.176-.024-.095-.014-.215.026-.26.04-.046.09-.231.115-.406.026-.176.136-.612.247-.968.11-.356.291-.973.407-1.374.115-.402.281-.948.371-1.224.262-.807.407-.712-1.703-1.123a24.629 24.629 0 0 1-1.527-.371c-1.262-.356-3.307-.858-3.884-.958a12.84 12.84 0 0 1-1.056-.246 233.875 233.875 0 0 1-3.532-1.078c-1.06-.33-3.698-1.013-5.949-1.54a36.295 36.295 0 0 1-2.593-.691 7.746 7.746 0 0 0-.728-.2 1.966 1.966 0 0 1-.538-.212 3.63 3.63 0 0 0-.673-.28c-.282-.086-.437-.18-.488-.301-.04-.1-.075-.13-.075-.075 0 .055-.06.1-.125.1-.116 0-.709-.186-1.096-.346-.11-.045-.241-.09-.281-.105-.045-.01-.372-.096-.729-.186-1.015-.256-1.688-.401-1.814-.386-.075.005-.166.226-.256.617-.15.647-.553 1.89-1.166 3.595-.206.577-.392 1.153-.412 1.274a1.68 1.68 0 0 1-.13.406c-.056.1-.11.25-.126.341-.015.09-.136.436-.271.767a11.14 11.14 0 0 0-.277.727 8 8 0 0 0-.1.407 6.93 6.93 0 0 1-.291.807c-.121.29-.237.607-.257.707-.065.32-.19.587-.271.587-.045 0-.06.05-.04.105.025.06 0 .216-.055.346a4.43 4.43 0 0 0-.121.316c-.075.27-.563 1.349-.81 1.795l-.29.532.145.531c.08.291.191.622.251.732.06.116.106.246.106.296 0 .05.055.196.12.321.066.125.121.29.121.366 0 .075.03.155.07.18.04.026.151.291.252.592.18.532.819 2.162.974 2.488.121.25.694 1.83.76 2.086.034.145.02.275-.051.356-.09.11-.086.12.025.08.1-.04.176.07.342.491.115.296.21.597.21.662a.68.68 0 0 0 .106.281c.156.236.407 1.138.342 1.244-.03.05-.015.09.03.09s.085.055.085.12c0 .166.016.16.548-.14.417-.23.759-.472 1.719-1.199.155-.12.377-.245.487-.276.166-.055.653-.37.809-.526.02-.02.1-.075.17-.12.071-.046.282-.18.463-.301.186-.12.387-.22.447-.22s.252-.126.422-.282c.171-.155.372-.28.448-.28.075 0 .18-.056.24-.126.056-.07.307-.22.558-.336.247-.115.538-.25.649-.3.105-.05.527-.09.934-.09.678 0 .784.024 1.302.275.346.17.753.466 1.065.767.532.522 1.653 2.01 1.653 2.197 0 .06.035.11.075.11.106 0 .834 1.439.779 1.534-.025.045-.015.08.03.08.1 0 .739 1.008.739 1.169 0 .07.03.125.065.125s.291.386.578.853c.497.827.517.847.688.727.096-.07.392-.236.659-.371m8.004-4.604c.03 0 .366-.195.748-.436.382-.24.804-.496.94-.566.291-.156.372-.206 1.21-.753.358-.23.855-.611 1.101-.852a46.285 46.285 0 0 1 2.02-1.78l.276-.226-.24-.461c-.131-.256-.327-.562-.438-.682a4.901 4.901 0 0 1-.367-.497c-.432-.712-1.603-2.146-1.753-2.146-.035 0-.086.11-.116.246-.045.215-.306.917-.522 1.409-.116.27-.191.476-.221.642a.59.59 0 0 1-.101.24c-.04.046-.095.19-.126.316-.03.126-.266.672-.522 1.214-.925 1.945-1.226 2.597-1.226 2.672 0 .04-.086.261-.191.487-.397.852-.533 1.178-.482 1.178m5.818-7.015c-.025.025-.03.095-.005.155.025.066.045.046.05-.05 0-.085-.015-.13-.04-.105m-8.974-11.93a84.984 84.984 0 0 1-3.05-3.695c-.633-.813-1.839-2.081-2.065-2.177-.206-.085-.608-.095-.608-.015 0 .035-.115.116-.261.176a4.863 4.863 0 0 0-.598.34c-.186.126-.362.227-.392.227-.03 0-.276.155-.543.346-.748.521-1.311.867-1.427.867-.055 0-.24.09-.407.2-.165.11-.376.211-.462.226-.09.015-.407.14-.708.286-.302.14-.573.26-.608.26-.035 0-.201.071-.372.161l-.312.156.232.05c.125.025.321.08.437.12.11.04.547.15.97.246 1.06.246 1.663.426 1.552.461-.136.045-.116.261.025.261.065 0 .12-.06.12-.13 0-.2.684-.106 1.865.255.362.11.713.176.995.191.09 0 .125.045.09.1-.035.055-.02.07.035.035.05-.03.302 0 .558.076.256.07.613.16.794.195.18.035.563.14.85.236.29.095.763.246 1.054.33 1.613.482 1.94.577 2.322.678l.422.11-.503-.572h-.005ZM29.915.181c-.04 0-.08.054-.08.12 0 .065.014.12.03.12.014 0 .055-.055.08-.12.025-.066.01-.12-.03-.12Zm-4.417 2.767c-.025.025-.03.096-.005.156.025.065.045.045.05-.05 0-.086-.015-.136-.04-.106m-1.492.301a.08.08 0 0 0-.08.08c0 .045.034.08.08.08a.08.08 0 0 0 .08-.08.08.08 0 0 0-.08-.08Zm-.528.893a.122.122 0 0 0-.12.12c0 .065-.036.12-.08.12-.046 0-.081.056-.081.126 0 .105.03.105.2-.02.227-.16.267-.346.086-.346m-10.813 8.595s.055.055.12.08c.066.025.121.01.121-.03s-.055-.08-.12-.08c-.066 0-.12.015-.12.03Zm-.146-3.13c-.296.206-.904.658-1.351.993-.447.341-.935.687-1.085.773a3.09 3.09 0 0 0-.427.296c-.08.08-.186.14-.232.14-.09 0 .046.266.267.516.075.09.14.191.14.231 0 .04.076.22.166.411.211.431.503 1.324.699 2.151.035.151.115.296.18.316.076.026.096 0 .066-.09-.045-.11.115-.932.241-1.268.025-.066.055-.176.07-.241.026-.126.146-.396.322-.732.06-.11.156-.2.211-.2.055 0 .116-.066.13-.141.016-.075-.01-.14-.06-.14-.05 0-.085-.046-.085-.101 0-.125.367-1.128.573-1.565a8.93 8.93 0 0 0 .316-.832c.186-.587.257-.727.367-.727.045 0 .09-.04.105-.085.05-.15-.06-.1-.617.29m-3.251 3.52c0 .04.055.02.12-.044.066-.066.12-.146.12-.176s-.054-.01-.12.045c-.065.055-.12.136-.12.176Zm4.29 10.692c0-.065-.035-.12-.08-.12s-.08.055-.08.12.035.12.08.12.08-.055.08-.12ZM5.39 35.362s.035.06.08.085c.045.026.08.01.08-.035 0-.045-.035-.085-.08-.085s-.08.015-.08.035Zm-.488.722s.055.055.12.08c.066.026.121.01.121-.03s-.055-.08-.12-.08c-.066 0-.12.015-.12.03Zm3.603-23.563c-.136.837-.382 2.126-.477 2.487-.06.22-.146.587-.186.808-.262 1.348-.623 2.752-.724 2.813-.075.045-.09.1-.04.16.05.06-.005.401-.16.983-.132.486-.262.978-.287 1.088-.025.11-.176.637-.332 1.174a54.451 54.451 0 0 0-.367 1.293 9.549 9.549 0 0 1-.226.727c-.08.221-.206.602-.276.848-.07.246-.166.506-.211.587a.758.758 0 0 0-.076.296c0 .085-.055.26-.115.386a4.9 4.9 0 0 0-.256.712c-.076.265-.191.516-.252.551-.06.04-.09.13-.06.216.025.085-.075.526-.231.983a44.42 44.42 0 0 0-.543 1.8c-.145.532-.301 1.043-.351 1.133a.979.979 0 0 0-.1.286c-.011.115-.227.838-.338 1.128-.025.066-.05.156-.06.2-.03.202-.15.367-.276.372-.086 0-.096.02-.03.045.14.055.125.527-.02.717a.667.667 0 0 0-.121.341c0 .1-.035.18-.075.18-.04 0-.09.101-.116.221-.055.301-.342 1.32-.417 1.495-.055.12-.035.135.13.07a4.75 4.75 0 0 0 .634-.366c.246-.16.507-.291.588-.291.08 0 .145-.045.145-.105 0-.106.669-.622.81-.622.04 0 .12-.065.18-.15.06-.08.196-.196.307-.256.165-.086.588-.381 1.015-.707.085-.066.552-.366 1.738-1.114.377-.24.739-.476.799-.531.06-.05.276-.186.487-.296.206-.11.558-.31.784-.456.618-.386.709-.447.945-.577.12-.065.316-.21.432-.32.116-.111.337-.242.492-.292.151-.05.277-.125.277-.17 0-.045.065-.1.14-.13.076-.03.312-.181.518-.342.206-.16.533-.39.729-.511.195-.12.582-.366.869-.547.281-.18.542-.326.578-.326.07 0-.121-.917-.242-1.173-.07-.145-.537-1.5-1.226-3.555a16.405 16.405 0 0 0-.366-.998 2.714 2.714 0 0 1-.141-.366c-.01-.05-.09-.256-.181-.462-.09-.2-.211-.511-.266-.687a17.322 17.322 0 0 0-.538-1.444c-.06-.13-.09-.266-.065-.306.02-.035-.035-.16-.126-.276-.09-.115-.166-.255-.166-.31 0-.056-.11-.366-.246-.697-.231-.557-.477-1.219-.517-1.404a1.812 1.812 0 0 0-.066-.201 2.697 2.697 0 0 1-.085-.28c-.02-.086-.156-.472-.297-.848-.14-.376-.276-.763-.296-.848-.02-.09-.07-.236-.11-.32a44.677 44.677 0 0 1-.699-2.002c-.07-.235-.176-.16-.226.16M5.716 23.128c-.04 0-.1.035-.125.08-.03.045.005.08.075.08.07 0 .126-.035.126-.08s-.036-.08-.076-.08Zm37.85 10.906s-.055.035-.085.08c-.025.046-.01.08.035.08.045 0 .086-.034.086-.08 0-.044-.016-.08-.036-.08Zm-1.743 5.496c-.045 0-.08.015-.08.035 0 .02.035.06.08.086.045.025.08.01.08-.035 0-.046-.035-.086-.08-.086ZM1.365 34.836c.1 0 .13-.025.075-.045-.12-.05-.135-.452-.025-.652a4.5 4.5 0 0 0 .206-.627c.076-.266.256-.883.407-1.374.15-.486.407-1.38.573-1.98.166-.603.332-1.124.367-1.17.04-.04.07-.15.07-.24s.055-.27.12-.396c.066-.125.106-.256.086-.286-.02-.03.04-.306.13-.617.091-.31.342-1.218.558-2.016.217-.802.433-1.539.478-1.64.045-.1.085-.275.085-.38 0-.106.05-.316.116-.462.11-.26.743-2.417.824-2.808.02-.11.07-.29.11-.401.04-.11.206-.782.372-1.494.166-.713.367-1.53.447-1.82.337-1.21 1.211-4.118 1.302-4.333.055-.13.11-.306.125-.391.066-.341.382-.853.588-.933.267-.11.89-.461 1.055-.597a2.32 2.32 0 0 1 .327-.2c.11-.056.367-.221.568-.376.547-.422 1.311-.868 1.512-.883.096-.005.161-.025.146-.04-.04-.04.678-.426.829-.446.06-.01.15-.06.206-.11.055-.05.136-.096.19-.096.167 0 .368-.296.574-.858.547-1.469 1.336-3.89 1.331-4.091 0-.12.035-.221.076-.221.04 0 .155-.16.25-.356.167-.336.187-.351.403-.276.18.065.23.13.23.316 0 .13.026.226.061.216.035-.01.297.04.588.11s.87.196 1.291.27c.422.076 1.257.302 1.854.497 1.066.346 1.09.351 1.297.21.311-.21 1.08-.586 1.2-.586.056 0 .418-.145.8-.32.381-.181.738-.327.788-.327a.65.65 0 0 0 .257-.11c.09-.06.397-.196.688-.3.292-.106.558-.237.593-.297a.229.229 0 0 1 .176-.105c.125 0 .859-.371 1.718-.873.322-.185.613-.34.648-.34.036 0 .252-.09.473-.201.22-.11.462-.2.527-.2a.32.32 0 0 0 .201-.071c.14-.13.719-.15 1.005-.03.402.165 2.296 2.111 2.94 3.014.301.42.638.867.748.988.11.12.201.24.201.27 0 .05.472.657.754.968.08.09.271.366.422.617.15.25.407.597.568.767.16.17.477.597.708.938.382.571.633.782.985.827.412.05 1.256.246 1.417.326.11.055.342.126.517.156.176.03.372.085.448.125.17.09.552.23 1.793.652.558.19 1.03.371 1.05.401.06.085.568.165.568.09 0-.035.136-.105.302-.16.427-.13.527-.005.527.642 0 .927-.447 2.923-.688 3.074-.07.045-.07.06 0 .065.105 0 .1.015-.342 1.254a18.6 18.6 0 0 0-.361 1.088c-.04.155-.121.316-.181.36-.196.151-.076.367.21.367.307 0 .503.185 1.05.993.207.3.373.561.373.576 0 .015.15.291.331.622.498.893.885 1.615.885 1.655 0 .02-.066.035-.141.04-.11.005-.116.015-.025.05.13.05.402.351.407.451 0 .035.08.17.176.296.16.216.165.301.12 1.149-.025.506-.05 1.173-.05 1.484 0 .31-.04.948-.085 1.414-.046.466-.1 1.013-.116 1.214-.055.692-.276 1.95-.362 2.055-.045.056-.065.126-.04.151.05.05-.216 1.359-.422 2.081-.07.246-.14.517-.16.607-.086.426-.302 1.138-.368 1.208a.363.363 0 0 0-.075.22c0 .156-.432 1.425-.97 2.854-.186.487-.377.998-.427 1.133-.05.136-.135.316-.19.402a2.68 2.68 0 0 0-.197.486c-.17.572-.26.757-.356.737-.05-.01-.066-.005-.036.01.106.055.066.266-.055.311-.065.025-.1.09-.08.14.02.056-.02.261-.096.457-.447 1.213-.783 2.191-.89 2.567-.064.236-.175.487-.24.552-.066.065-.106.15-.08.185.07.116-.528 2.016-.82 2.608-.105.21-.19.451-.19.541 0 .09-.076.211-.171.281-.096.066-.146.16-.116.211.055.085-.12.707-.312 1.123-.075.166-.13.186-.401.146-.458-.06-.513-.146-.387-.597.055-.21.15-.492.21-.627.327-.727.488-1.123.734-1.82.151-.421.327-.873.392-1.003.07-.13.106-.266.08-.301-.055-.085.131-.637.277-.807.06-.076.09-.176.06-.226-.03-.045 0-.145.076-.21.07-.07.105-.166.08-.206-.075-.12.025-.421.206-.632.116-.135.14-.216.08-.286-.055-.07-.05-.17.016-.33.055-.126.09-.272.08-.322-.01-.05.13-.511.311-1.028.181-.516.327-.998.327-1.073 0-.075.126-.486.281-.918a11.4 11.4 0 0 0 .337-1.058c.03-.15.1-.36.16-.476a.97.97 0 0 0 .111-.376c0-.095.03-.196.06-.23a.247.247 0 0 0 .066-.116c.015-.23.231-.662.337-.662.095 0 .105-.025.03-.11-.07-.086-.07-.17 0-.341a1.71 1.71 0 0 0 .115-.437c.025-.275.07-.456.342-1.273.13-.386.281-.913.332-1.169.055-.26.16-.501.236-.551.09-.055.105-.1.045-.126-.07-.03-.065-.14.015-.42.06-.211.13-.482.156-.602.025-.126.1-.221.166-.221.095 0 .105-.035.035-.16-.116-.211.14-1.214.311-1.214.08 0 .09-.03.03-.1-.055-.07-.06-.221-.005-.467.046-.2.126-.637.186-.968.096-.546.387-2.02.493-2.487.025-.1.07-.17.1-.15.035.02.06-.085.06-.24 0-.156-.025-.277-.05-.277-.045 0-.598.552-1.216 1.214a5.78 5.78 0 0 1-.517.456l-.327.256-.105-.236c-.106-.236-.372-.346-.282-.115.025.065.076.12.11.12.036 0 .081.075.106.166.035.125-.045.23-.346.456-.216.16-.412.286-.438.28-.025-.004-.12.061-.206.146-.09.085-.386.271-.658.411-.573.286-.954.532-2.733 1.71-.116.08-.256.126-.312.106-.055-.02-.1 0-.1.04s-.12.135-.261.21c-.146.076-.282.16-.302.186-.02.03-.336.206-.703.391-.362.186-.895.471-1.176.637-.281.16-.734.411-1 .552-.266.14-.648.356-.85.486-.2.125-.552.316-.788.421-.231.105-.442.226-.467.26-.02.036-.13.091-.241.116-.11.025-.327.136-.483.24-.155.106-.547.257-.874.332-.327.075-.638.15-.698.17-.08.026-.056.13.11.417.12.21.483.857.799 1.434.317.576.764 1.339.985 1.695.226.356.563.957.753 1.334.191.376.518.977.73 1.333.21.356.592 1.084.848 1.615.257.532.508 1.043.558 1.133.533.953.708 1.29.708 1.37 0 .05.036.13.076.17.04.045.246.511.452 1.048.819 2.111 1.115 2.843 1.301 3.254.106.236.231.562.272.727.04.166.155.557.25.868.187.602.237.908.177 1.073-.045.125-.241.135-.277.015-.02-.055-.206-.03-.547.085-.588.2-.78.19-2.271-.125-2.076-.436-3.397-.787-4.94-1.314a80.513 80.513 0 0 0-2.065-.662c-.623-.19-2.3-.717-3.723-1.173-3.422-1.098-4.592-1.46-5.26-1.615a44.444 44.444 0 0 1-1.9-.526c-.739-.221-1.527-.452-1.748-.517-.221-.065-1.151-.35-2.066-.637-.914-.285-2.13-.657-2.713-.822a77.593 77.593 0 0 1-1.537-.451 19.372 19.372 0 0 0-1.136-.311c-.633-.15-1.216-.336-1.537-.492-.126-.06-1-.24-1.156-.24-.015 0-.01-.08.02-.18.03-.101.02-.141-.015-.096-.13.17-.317.17-.834-.015-.291-.1-.744-.241-1.015-.306-.789-.196-1.784-.587-1.759-.692.015-.06-.035-.08-.12-.05-.08.025-.397-.045-.709-.156-.311-.11-.648-.2-.743-.2-.226 0-.297-.12-.191-.321.065-.126.055-.176-.05-.236-.121-.065-.066-.28.487-1.986.558-1.71.643-1.91.799-1.915" fill="#474440"/><path d="M29.03 26.587c0-.176-.005-.176.608.005.266.08.759.21 1.096.29 1.246.301 3.075 1.074 3.075 1.294 0 .221-.216.216-1.066-.04-.462-.135-1.02-.3-1.24-.366l-1.01-.296c-.97-.285-1.458-.581-1.458-.892" fill="#474440"/></svg>