<svg width="46" height="50" viewBox="0 0 46 50" fill="none" xmlns="http://www.w3.org/2000/svg"><path d="M3.458 47.769c1.108-.914 2.17-1.868 3.136-2.93.32-.354.65-.697 1.005-1.023.771-.708 1.474-1.473 1.982-2.404a.793.793 0 0 1 .343-.315c.125-.057.342-.097.422-.028.115.097.212.326.172.451-.075.252-.235.486-.383.703-.297.422-.64.817-.92 1.25-1.028 1.594-2.244 3.034-3.575 4.382-.509.514-1.04 1.005-1.765 1.216h-.411c-.223-.131-.446-.257-.749-.434.286-.343.474-.657.749-.88m8.693-23.041c.971.446 2.022.663 3.062.891.177.04.365.069.52.154.474.28.856.132 1.222-.2 1-.902 2.022-1.776 2.999-2.695 1.662-1.566 3.295-3.153 4.935-4.736.325-.314.622-.662.942-.982.314-.32.668-.571 1.177-.48-.069-.051-.143-.108-.257-.188 3.73-3.981 7.853-7.523 12.103-10.938-1.45.474-2.759 1.24-4.101 1.913-1.354.68-2.782 1.188-4.078 2.005-1.28.805-2.685 1.416-4.147 2.176-.074-.137-.149-.268-.217-.394l-.097.034c.017.155.034.303.063.537-.68.217-1.383.446-2.085.674-.04.012-.103.029-.114.063-.24.583-.84.554-1.297.788-.566.286-1.108.611-1.668.908-1.062.572-2.125 1.131-3.187 1.697-1.297.697-2.593 1.4-3.895 2.096-.44.234-.903.428-1.337.668-1.354.743-2.696 1.502-4.05 2.24-.77.422-1.56.816-2.342 1.222.018.045.029.091.046.137.857.017 1.64.217 2.4.662 1.096.646 2.244 1.206 3.403 1.742m4.49 5.547c.131 1.73.171 3.46.28 5.192.057.862.2 1.719.285 2.576.057.565.092 1.13.149 1.845.223-.486.44-.834.548-1.223.314-1.16.537-2.342.885-3.49.509-1.696 1.091-3.37 1.651-5.049.069-.211.149-.451.297-.611.737-.8 1.28-1.748 2.13-2.468.772-.65 1.389-1.49 2.068-2.25.206-.229.337-.554.743-.514.063.006.16-.126.217-.211 1.4-2.12 3.221-3.884 4.803-5.85a229.654 229.654 0 0 1 2.994-3.626c.61-.731 1.273-1.423 1.873-2.165a52.789 52.789 0 0 0 1.8-2.41c.708-.994 1.387-2.011 2.153-3.13-.389.245-.692.4-.943.61-.628.515-1.222 1.069-1.845 1.594-.977.823-1.953 1.634-2.941 2.445-1.388 1.142-2.605 2.462-3.873 3.73-1.148 1.136-2.336 2.239-3.496 3.364-1.142 1.108-2.267 2.245-3.415 3.353-1.034.994-2.045 2.022-3.153 2.93-.925.765-1.725 1.685-2.793 2.279-.383.217-.686.577-1.063.902.663.617.583 1.428.64 2.177M5.526 24.99c-.663.052-1.274-.091-1.856-.337-.44-.188-.966-.32-1.217-.914.206-.24.388-.548.651-.736.977-.703 1.948-1.411 2.982-2.034 1.456-.874 2.97-1.662 4.455-2.502 1.502-.85 2.987-1.742 4.495-2.587.611-.343 1.262-.623 1.896-.931.098-.046.189-.103.28-.166.417-.268.806-.617 1.263-.8.634-.256 1.188-.633 1.776-.97a90.514 90.514 0 0 1 3.113-1.68c.32-.165.674-.257 1.01-.388.104-.04.212-.074.31-.131.725-.412 1.444-.846 2.175-1.24.886-.474 1.783-.914 2.674-1.376 2.221-1.166 4.432-2.337 6.648-3.507.543-.286 1.074-.6 1.628-.863 1.228-.594 2.479-1.154 3.707-1.748.76-.365 1.49-.788 2.245-1.154.348-.17.708-.28.902-.668.137-.274.406-.314.703-.194.297.12.645.194.634.605a26.05 26.05 0 0 1-.086 1.634c-.086 1.017-.217 2.028-.285 3.044-.058.903-.03 1.817-.092 2.72-.034.565-.171 1.119-.245 1.684-.08.588-.092 1.183-.212 1.76a131.094 131.094 0 0 1-.97 4.192c-.07.291-.24.554-.378.862-.034.309-.034.674-.12 1.017-.422 1.702-.914 3.387-1.296 5.095-.429 1.925-.772 3.867-1.149 5.803a159.415 159.415 0 0 0-.674 3.662 115.21 115.21 0 0 0-.553 3.695c-.178 1.302-.32 2.616-.492 3.918-.16 1.2-.28 2.4-.148 3.61.057.526 0 .628-.52.754-.486.114-.977.206-1.468.303-.263.051-.468-.017-.68-.206-.862-.77-1.713-1.56-2.633-2.256-1.536-1.17-2.93-2.49-4.335-3.798a26.083 26.083 0 0 1-1.537-1.542c-1.285-1.417-2.45-2.942-3.975-4.124-.303-.24-.623-.463-.908-.72-.354-.314-.411-.726-.297-1.245.245.063.485.074.663.183.988.605 2.033 1.148 2.93 1.862 2.05 1.633 4.02 3.358 6.037 5.037.697.583 1.41 1.154 2.136 1.703.777.588 1.577 1.148 2.365 1.713.228.166.474.314.742.485.069-.154.138-.25.16-.36.189-.93.395-1.861.537-2.804.132-.874.177-1.759.274-2.644.092-.863.229-1.72.303-2.576.08-.977.103-1.96.172-2.936.177-2.49.365-4.98.554-7.471.108-1.383.217-2.77.348-4.153.206-2.107.468-4.21.868-6.289.097-.49.206-.982.337-1.462.332-1.205.674-2.404 1.023-3.61.022-.085.097-.154.131-.24.08-.205.16-.41.228-.622.32-.914.389-1.92 1.023-2.719.074-.091-.04-.331-.069-.502a5.99 5.99 0 0 0-.148-.035c-.063.092-.126.189-.194.28-.406.548-.817 1.097-1.223 1.645-.76 1.023-1.576 2.01-2.273 3.079-1.057 1.622-2 3.318-3.21 4.843-.634.794-1.2 1.651-1.81 2.462-.206.269-.486.48-.692.754-.611.817-1.176 1.668-1.805 2.473-.834 1.074-1.759 2.085-2.553 3.188-1.09 1.525-2.405 2.838-3.633 4.238-.308.348-.69.634-1.022.96-.274.268-.514.576-.794.839-.36.343-.823.611-1.091 1.01-.4.606-.948 1.04-1.445 1.537-.114.109-.166.309-.194.474-.069.446-.057.909-.177 1.337a126.042 126.042 0 0 1-1.217 4.038c-.405 1.28-.84 2.548-1.25 3.822-.092.285-.155.576-.23.862.612-.486 1.114-1.028 1.606-1.582.628-.714 1.233-1.451 1.856-2.165a70.36 70.36 0 0 1 1.645-1.816c.217-.229.457-.44.714-.629.086-.063.286-.08.36-.023.074.058.097.24.074.36a1.17 1.17 0 0 1-.2.429c-.331.49-.65.988-1.017 1.45-.445.572-.942 1.103-1.405 1.657-.45.537-.84 1.142-1.348 1.622-.822.788-1.496 1.697-2.193 2.582-.571.72-1.222 1.405-1.52 2.319-.068.217-.245.308-.496.217-.777-.291-.994-.588-1.005-1.417-.012-.634 0-1.273-.035-1.907-.028-.64.092-1.28-.011-1.931-.103-.663.011-1.354-.046-2.028-.08-.925-.263-1.845-.337-2.776-.171-2.09-.348-4.18.074-6.265.029-.149 0-.309 0-.372-.348-.257-.736-.405-.902-.69-.171-.298-.371-.35-.64-.406-.8-.16-1.622-.252-2.387-.514-1.417-.492-2.8-1.074-4.187-1.64-.594-.245-1.205-.485-1.84-.434M.454 40.578c.588-.143 1.176-.332 1.776-.383.874-.08 1.674-.383 2.473-.68.908-.342 1.76-.84 2.65-1.222.566-.246 1.109-.663 1.948-.354-.171.223-.28.445-.457.583-.462.36-.948.685-1.439 1.016-1.188.8-2.49 1.371-3.816 1.897-.388.154-.828.228-1.25.257-.612.034-1.228 0-1.845-.018-.389-.011-.514-.177-.492-.565.018-.297.189-.463.452-.526" fill="#474440"/></svg>