<?xml version="1.0" encoding="utf-8"?>
<!-- Generator: Adobe Illustrator 16.0.0, SVG Export Plug-In . SVG Version: 6.00 Build 0)  -->
<!DOCTYPE svg PUBLIC "-//W3C//DTD SVG 1.1//EN" "http://www.w3.org/Graphics/SVG/1.1/DTD/svg11.dtd">
<svg version="1.1" id="Layer_1" xmlns="http://www.w3.org/2000/svg" xmlns:xlink="http://www.w3.org/1999/xlink" x="0px" y="0px"
	 width="595.28px" height="275.501px" viewBox="0 0 595.28 275.501" enable-background="new 0 0 595.28 275.501"
	 xml:space="preserve">
<g>
	<path d="M208.854,78.393c14.366-22.881-6.398-39.122-7.949-40.289l0.003-0.004c0,0-22.958-16.602-40.855,4.999
		c-23.728,2.956-49.751,6.304-53.914,7.303L94.937,26.79L79.94,33.169l7.458,25.493c0,0-21.219,10.076-22.943,11.223L46.643,59.446
		L38.854,74.27c0,0,12.498,9.273,13.144,10.383c0,0-7.416,23.651-8.353,24.947l-22.573-8.245l-6.292,17.475l22.971,9.016l-0.11,0.5
		c-0.624,2.905-1.281,16.613-1.281,16.613c-1.331-0.124-25.541,4.441-25.541,4.441l2.434,19.191l24.032-4.522l28.062,61.258
		l-0.04,0.055l0.069,0.008l0.03,0.065l0.042-0.057l66.958,7.469l3.124,23.583l18.995-3.701c0,0-3.145-23.761-3.678-24.988
		c0,0,12.809-4.92,15.381-6.419l0.433-0.258l15.762,18.992l14.622-11.449l-14.897-18.858c0.935-1.293,21.077-15.743,21.077-15.743
		c1.258,0.266,13.971,9.229,13.971,9.229l11.643-12.037l-15.494-13.646c0.557-1.997,3.477-25.302,3.477-25.302l24.661,2.837
		l4.175-17.166l-26.861-6.06C218.442,127.618,213.48,101.852,208.854,78.393z M142.47,211.494l-56.11-4.94l-6.917-0.608l-2.75-6.384
		l-22.259-51.74l19.459-61.958l62.416-18.128l0.713,0.462l-24.401,40.976l29.875,6.405l-48.915,72.467l100.905-54.171l0.73,39.734
		L142.47,211.494z"/>
	<path d="M278.926,90.089h-11.509c-2.553,0-3.402-0.78-3.402-3.549V50.471c0-0.781-0.641-1.423-1.424-1.423H251.02
		c-0.779,0-1.491,0.643-1.491,1.423V86.54c0,13.773,9.159,15.903,18.245,15.903c3.768,0,8.594-0.355,11.153-0.852
		c0.919-0.142,1.415-0.565,1.415-1.418V91.51C280.341,90.729,279.706,90.089,278.926,90.089z"/>
	<path d="M288.002,101.805h11.648c0.786,0,1.422-0.639,1.422-1.419V50.397c0-0.782-0.636-1.349-1.422-1.349h-11.648
		c-0.773,0-1.415,0.567-1.415,1.349v49.988C286.587,101.167,287.229,101.805,288.002,101.805z"/>
	<path d="M348.213,99.107V75.319c0-0.778-0.642-1.417-1.422-1.417H335.57c-0.773,0-1.346,0.638-1.346,1.417v14.557
		c-1.207,0.142-2.554,0.212-3.906,0.212c-2.767,0-6.817-1.348-6.817-10.862v-7.525c0-8.595,3.058-10.653,9.805-10.653
		c5.252,0,11.002,0.429,13.699,0.639h0.22c0.636,0,0.988-0.283,0.988-1.135v-8.946c0-0.922-0.353-1.066-1.347-1.348
		c-2.911-0.782-8.17-1.917-15.553-1.917c-9.869,0-22.435,3.901-22.435,23.361v7.455c0,19.24,12.918,23.287,21.439,23.287
		c6.889,0,12.36-0.852,16.403-1.704C347.86,100.53,348.213,100.174,348.213,99.107z"/>
	<path d="M387.691,101.805h11.567c0.781,0,1.422-0.639,1.422-1.419V50.397c0-0.782-0.641-1.349-1.422-1.349h-11.567
		c-0.786,0-1.427,0.567-1.427,1.349v18.179h-14.831V50.397c0-0.782-0.647-1.349-1.427-1.349h-11.573c-0.78,0-1.49,0.567-1.49,1.349
		v49.988c0,0.781,0.71,1.419,1.49,1.419h11.573c0.779,0,1.427-0.639,1.427-1.419V81.07h14.831v19.315
		C386.265,101.167,386.905,101.805,387.691,101.805z"/>
	<path d="M408.487,60.835h10.791v39.549c0,0.783,0.636,1.423,1.417,1.423h11.578c0.78,0,1.415-0.64,1.415-1.423V60.835h10.579
		c0.785,0,1.497-0.564,1.497-1.349v-9.087c0-0.782-0.712-1.35-1.497-1.35h-35.78c-0.781,0-1.422,0.567-1.422,1.35v9.087
		C407.065,60.271,407.706,60.835,408.487,60.835z"/>
	<path d="M453.495,101.805h11.642c0.786,0,1.422-0.639,1.422-1.419V50.397c0-0.782-0.636-1.349-1.422-1.349h-11.642
		c-0.781,0-1.422,0.567-1.422,1.349v49.988C452.073,101.167,452.714,101.805,453.495,101.805z"/>
	<path d="M489.346,100.386V76.172c0-0.497,0.146-0.638,0.365-0.638c0.212,0,0.421,0.073,0.704,0.57l13.988,23.784
		c0.779,1.349,1.704,1.917,2.98,1.917h9.51c1.429,0,2.635-1.208,2.635-2.627V50.468c0-0.778-0.642-1.42-1.427-1.42H507.46
		c-0.786,0-1.427,0.642-1.427,1.42v25.139c0,0.565-0.141,0.636-0.354,0.636c-0.214,0-0.352-0.139-0.643-0.636l-14.414-24.5
		c-0.7-1.274-1.491-2.059-2.837-2.059h-9.371c-1.423,0-2.623,1.207-2.623,2.63v48.707c0,0.781,0.71,1.419,1.484,1.419h10.647
		C488.715,101.805,489.346,101.167,489.346,100.386z"/>
	<path d="M551.758,61.049c5.252,0,11,0.429,13.699,0.639h0.213c0.641,0,0.993-0.283,0.993-1.135v-8.946
		c0-0.922-0.353-1.066-1.346-1.348c-2.911-0.782-8.169-1.917-15.554-1.917c-9.869,0-22.435,3.901-22.435,23.361v7.455
		c0,19.24,12.919,23.287,21.441,23.287c6.887,0,12.358-0.852,16.403-1.704c1.137-0.209,1.489-0.565,1.489-1.632V75.319
		c0-0.778-0.641-1.417-1.415-1.417h-11.227c-0.772,0-1.347,0.638-1.347,1.417v14.557c-1.207,0.142-2.554,0.212-3.904,0.212
		c-2.768,0-6.817-1.348-6.817-10.862v-7.525C541.953,63.107,545.009,61.049,551.758,61.049z"/>
	<path d="M322.717,150.203c3.726-2.071,6.377-6.543,6.377-11.762v-1.409c0-13.915-10.607-17.725-26.918-17.725
		c-4.143,0-12.261,0.41-15.739,0.994c-3.813,0.579-5.136,1.74-5.136,6.211v48.622c0,4.473,1.323,5.633,5.217,6.296
		c3.9,0.658,11.682,0.994,15.901,0.994c13.254,0,27.006-3.147,27.006-19.135v-1.076
		C329.425,156.912,326.442,152.356,322.717,150.203z M297.866,133.057c0.583,0,5.887-0.084,6.539-0.084
		c6.472,0,8.454,2.071,8.454,5.302v1.325c0,2.9-1.491,5.219-6.963,5.219h-8.03V133.057z M313.193,162.792
		c0,3.562-2.068,5.964-8.538,5.964h-6.789V156.08h8.03c5.472,0,7.297,2.653,7.297,5.967V162.792z"/>
	<path d="M375.393,120.3c-3.145-0.413-8.28-0.994-16.317-0.994c-10.603,0-21.204,2.568-21.204,18.554v26.009
		c0,16.069,10.602,18.554,21.204,18.554c8.037,0,13.173-0.579,16.317-0.993c1.079-0.166,1.663-0.663,1.663-1.657v-10.105
		c0-0.91-0.751-1.655-1.663-1.655h-16.728c-2.982,0-3.98-0.912-3.98-4.143v-6.874h20.377c0.913,0,1.658-0.746,1.658-1.657v-9.774
		c0-0.911-0.745-1.656-1.658-1.656h-20.377v-6.047c0-3.229,0.998-4.141,3.98-4.141h16.728c0.912,0,1.663-0.746,1.663-1.656v-10.106
		C377.056,120.965,376.472,120.466,375.393,120.3z"/>
	<path d="M423.85,120.3c-3.149-0.413-8.285-0.994-16.317-0.994c-10.601,0-21.203,2.568-21.203,18.554v26.009
		c0,16.069,10.603,18.554,21.203,18.554c8.032,0,13.168-0.579,16.317-0.993c1.079-0.166,1.658-0.663,1.658-1.657v-10.105
		c0-0.91-0.746-1.655-1.658-1.655h-16.732c-2.981,0-3.976-0.912-3.976-4.143v-6.874h20.379c0.906,0,1.651-0.746,1.651-1.657v-9.774
		c0-0.911-0.745-1.656-1.651-1.656h-20.379v-6.047c0-3.229,0.994-4.141,3.976-4.141h16.732c0.912,0,1.658-0.746,1.658-1.656v-10.106
		C425.508,120.965,424.929,120.466,423.85,120.3z"/>
	<path d="M475.37,120.136h-41.744c-0.913,0-1.658,0.66-1.658,1.575v10.603c0,0.906,0.745,1.569,1.658,1.569h12.59v46.14
		c0,0.908,0.745,1.652,1.65,1.652h13.509c0.908,0,1.653-0.745,1.653-1.652v-46.14h12.342c0.912,0,1.739-0.663,1.739-1.569v-10.603
		C477.109,120.796,476.282,120.136,475.37,120.136z"/>
	<path d="M518.777,168.011h-13.421c-2.987,0-3.98-0.912-3.98-4.143v-42.077c0-0.912-0.74-1.656-1.653-1.656h-13.502
		c-0.914,0-1.739,0.745-1.739,1.656v42.077c0,16.069,10.683,18.554,21.285,18.554c4.396,0,10.023-0.413,13.011-0.993
		c1.069-0.166,1.653-0.663,1.653-1.657v-10.105C520.431,168.756,519.685,168.011,518.777,168.011z"/>
	<path d="M564.74,120.3c-3.149-0.413-8.285-0.994-16.317-0.994c-10.601,0-21.203,2.568-21.203,18.554v26.009
		c0,16.069,10.603,18.554,21.203,18.554c8.032,0,13.168-0.579,16.317-0.993c1.074-0.166,1.658-0.663,1.658-1.657v-10.105
		c0-0.91-0.746-1.655-1.658-1.655h-16.732c-2.977,0-3.976-0.912-3.976-4.143v-6.874h20.379c0.906,0,1.651-0.746,1.651-1.657v-9.774
		c0-0.911-0.745-1.656-1.651-1.656h-20.379v-6.047c0-3.229,0.999-4.141,3.976-4.141h16.732c0.912,0,1.658-0.746,1.658-1.656v-10.106
		C566.398,120.965,565.814,120.466,564.74,120.3z"/>
</g>
</svg>
