<svg width="1559" height="661" viewBox="0 0 1559 661" fill="none" xmlns="http://www.w3.org/2000/svg">
<path d="M393.6 204.2C384.6 237.2 374.1 277.7 371.8 281.1C363.9 293.9 318.9 317.1 298.7 317.1C276.2 317.1 219.2 261.6 219.2 250.3C219.2 243.9 245.8 223.3 254.1 223.3C257.1 223.3 259 224.8 260.1 227.1C268.7 243.6 293.5 282.2 302.1 282.2C306.6 282.2 316.4 275.4 318.6 270.6C320.5 266.8 333.6 218.8 341.5 189.2C350.5 156.6 356.9 129.9 361 117.9C365.5 104.8 372.3 99.4999 373 98.7999C371.5 99.1999 337.7 107.8 314.1 120.9C310.7 122.8 309.6 126.5 309.6 129.9C309.6 138.5 317.1 162.9 317.1 168.2C317.1 173.5 297.6 184.3 291.6 184.3C284.1 184.3 256.3 145.3 256.3 135.9C256.3 122.8 287.4 85.5999 299.1 83.3999C324.2 78.4999 348.6 73.9999 387.2 64.5999C391.7 63.4999 404.8 50.7 411.2 50.7C419.8 50.7 443.1 69.8 443.1 75.5C443.1 78.9 425.8 92.7999 422.5 102.9C419.1 111.9 410.9 140.8 401.9 173.4C407.2 170.8 410.9 167.8 413.2 165.1C439.5 132.5 470.2 82.6 485.2 65.7C488.2 61.9 513.3 50.7 518.2 50.7C523.1 50.7 542.2 74.3 542.2 78.5C542.2 81.5 527.2 90.0999 524.2 92.7999C511.8 103.7 471.3 155.8 446.6 179.8C444.7 181.7 442.5 183.2 439.5 185.1C442.9 188.5 445.9 191.9 447.8 196.7C458.7 226 464.3 263.5 475.2 284.5C479.7 292.8 495.1 295.8 495.1 299.9C495.1 304 483.1 317.2 471.1 317.2C461.3 317.2 428.3 306.7 422 294.7C411.1 273.7 413.7 236.9 407.4 213.3C406.3 208.8 404 205 400.6 202L393.6 204.2Z" fill="white"/>
<path d="M650.5 284.9C661.8 284.9 681.6 262.4 700 228.6C700 228.6 703.4 221.8 708.3 221.8C713.2 221.8 721.1 227.8 721.1 232.3C721.1 236.8 716.2 245.4 716.2 245.4C695.6 282.9 673.4 317 646.4 317C629.5 317 592 301.2 592 284.4C592 260.4 613 200.4 613 186.1C613 182.7 609.6 178.6 605.5 178.6C597.6 178.6 583 185 578.1 197C568 221.8 551.1 297.5 548.8 308.4C547.3 313.3 541.3 317 534.5 317C525.9 317 498.9 307.6 498.9 297.5C498.9 287.7 527.4 174.1 535.3 148.6C537.6 143.3 545.1 140.7 550.7 140.7C559.3 140.7 575.8 159.1 575.8 159.1C575.8 159.1 610.7 140.7 632.1 140.7C646.4 140.7 670.7 157.2 670.7 171.1C670.7 188.7 647.4 260.7 647.4 280.6C647.5 282.3 648.7 284.9 650.5 284.9Z" fill="white"/>
<path d="M720.7 148.7C722.2 143.4 727.5 140.8 735.7 140.8C743.2 140.8 773.2 158.4 773.2 165.6C773.2 174.2 743.2 256 743.2 282.2C743.2 283.7 745.8 285.6 747 285.6C757.9 285.6 777.4 262.3 796.5 228.6C796.5 228.6 799.5 221.8 804.4 221.8C809.3 221.8 817.2 227.8 817.2 232.3C817.2 236.8 811.9 245.4 811.9 245.4C791.6 282.9 769.1 317 742.1 317C721.1 317 687.7 301.2 687.7 284.4C687.7 266.9 714.3 172 720.7 148.7ZM738.7 108.2C738.7 93.2001 748.1 65.8 763.5 65.8C773.6 65.8 793.1 72.9 793.1 85.3C793.1 100.3 783.3 127.7 768.3 127.7C758.2 127.7 738.7 120.6 738.7 108.2Z" fill="white"/>
<path d="M804.3 252.3C799 252.3 791.2 246.3 791.2 242.2C791.2 238.8 794.6 232.8 796.5 228.7C807.8 203.6 823.5 170.2 823.5 170.2C835.1 145.4 841.9 140.9 850.1 140.9C864 140.9 907.9 146.2 916.9 146.2C926.7 146.2 940.5 140.9 946.9 140.9C952.2 140.9 963 158.2 963 167.5C963 174.6 904.5 229 869.2 269.5C886.1 269.5 912.3 278.5 921.7 278.5C937.1 278.5 955.5 262.4 973.8 228.6C973.8 228.6 976.8 221.8 981.7 221.8C986.6 221.8 994.8 227.8 994.8 232.3C994.8 236.8 989.9 245.4 989.9 245.4C968.9 282.9 946 317 913 317C903.6 317 861.2 312.1 854.1 312.1C846.6 312.1 831.2 317 824.8 317C818 317 807.5 299.7 807.5 294.5C807.5 284.7 870.1 221.4 897.1 189.5C882.8 185.7 870.8 184.2 862.6 184.2C856.6 184.2 847.2 186.1 835.6 204.5C829.2 214.6 821.7 228.1 812 246.1C809.9 250.4 808.8 252.3 804.3 252.3Z" fill="white"/>
<path d="M1108.5 284.9C1119.8 284.9 1139.6 262.4 1158 228.6C1158 228.6 1161.4 221.8 1166.3 221.8C1171.2 221.8 1179.1 227.8 1179.1 232.3C1179.1 236.8 1174.2 245.4 1174.2 245.4C1153.6 282.9 1131.4 317 1104.4 317C1087.5 317 1050 301.2 1050 284.4C1050 260.4 1071 200.4 1071 186.1C1071 182.7 1067.6 178.6 1063.5 178.6C1055.6 178.6 1041 185 1036.1 197C1026 221.8 1009.1 297.5 1006.8 308.4C1005.3 313.3 999.3 317 992.5 317C983.9 317 956.9 307.6 956.9 297.5C956.9 287.7 985.4 174.1 993.3 148.6C995.5 143.3 1003.1 140.7 1008.7 140.7C1017.3 140.7 1033.8 159.1 1033.8 159.1C1033.8 159.1 1068.7 140.7 1090.1 140.7C1104.4 140.7 1128.7 157.2 1128.7 171.1C1128.7 188.7 1105.4 260.7 1105.4 280.6C1105.5 282.3 1106.6 284.9 1108.5 284.9Z" fill="white"/>
<path d="M1268.7 256.8C1268.7 256.8 1275.5 247.4 1280 247.4C1285.3 247.4 1295.8 256 1295.8 260.5C1295.8 265 1287.5 275.9 1287.5 275.9C1272.5 295.8 1247.4 317.2 1215.5 317.2C1190 317.2 1149.1 294.7 1149.1 265.4C1149.1 223 1188.5 140.9 1228.2 140.9C1247.3 140.9 1286.3 163 1286.3 179.2C1286.3 199.1 1260 257.6 1234.9 257.6C1220.3 257.6 1206.8 254.2 1206.8 254.2C1206.8 254.2 1205.3 257.6 1205.3 264C1205.3 274.5 1215.1 283.9 1222.6 283.9C1240.1 283.8 1255.1 275.1 1268.7 256.8ZM1247.3 180.2C1247.3 179.1 1244.3 176.1 1241.7 176.1C1229.7 176.1 1210.9 213.2 1207.6 229C1233.4 224.9 1247.3 190 1247.3 180.2ZM1341 87.6C1341 92.5 1337.6 95.1 1334.6 97.4C1311 113.2 1270.8 137.5 1266.7 137.5C1261.8 137.5 1253.2 126.6 1253.2 123.6C1253.2 120.2 1255.8 116.1 1258.1 113.5C1267.1 104.1 1294.9 68.5 1299.7 62.1C1303.5 58 1306.1 55 1309.8 55C1316.3 55 1341 81.6 1341 87.6Z" fill="white"/>
<path d="M896.6 105.9L827.6 34.8999L815.1 46.4999L875.6 112.9C875.6 112.9 883.6 121.6 896.6 121.6V105.9Z" fill="#EBCDBA"/>
<path d="M896.6 105.9L827.6 34.9001C827.6 34.9001 851.6 27.9001 876.6 52.9001C876.6 52.9001 911.6 83.9001 896.6 105.9Z" fill="white"/>
<path d="M896.6 105.9L965.6 34.8999L978.1 46.4999L917.6 112.9C917.6 112.9 909.6 121.6 896.6 121.6V105.9Z" fill="#EBCDBA"/>
<path d="M896.6 105.9L965.6 34.9001C965.6 34.9001 941.6 27.9001 916.6 52.9001C916.6 52.9001 881.6 83.9001 896.6 105.9Z" fill="white"/>
<path d="M955 0C955 0 948.6 10.9 931.6 17.9C931.6 17.9 882.6 35.5 896.6 91.2C896.6 91.2 893.6 48.9 934.6 29.9C934.6 29.9 956.6 21.9 965.6 8.2L955 0Z" fill="#D22121"/>
<path d="M72 418.3C80.8 413.5 91.1 411.1 102.9 411.1C116.7 411.1 129.2 414.6 140.4 421.6C151.6 428.6 160.4 438.6 166.9 451.6C173.4 464.6 176.7 479.7 176.7 496.9C176.7 514.1 173.4 529.3 166.9 542.4C160.4 555.5 151.5 565.6 140.4 572.7C129.2 579.8 116.7 583.4 102.9 583.4C91.3 583.4 81 581 72.1 576.2C63.2 571.4 56.2 565.2 51.2 557.6V660.8H0V413.5H51.3V437.2C56.3 429.4 63.2 423.1 72 418.3ZM113.8 466.8C106.7 459.5 97.9 455.9 87.6 455.9C77.4 455.9 68.7 459.6 61.6 467C54.5 474.4 51 484.5 51 497.3C51 510.1 54.5 520.2 61.6 527.6C68.7 535 77.4 538.7 87.6 538.7C97.8 538.7 106.5 534.9 113.7 527.5C120.9 520 124.5 509.9 124.5 497C124.5 484.1 120.9 474.1 113.8 466.8Z" fill="white"/>
<path d="M369 413.5V580.9H317.7V558.1C312.5 565.5 305.4 571.4 296.6 575.9C287.7 580.4 277.8 582.7 267 582.7C254.2 582.7 242.9 579.9 233.1 574.2C223.3 568.5 215.7 560.2 210.3 549.4C204.9 538.6 202.2 525.9 202.2 511.3V413.5H253.2V504.4C253.2 515.6 256.1 524.3 261.9 530.5C267.7 536.7 275.5 539.8 285.3 539.8C295.3 539.8 303.2 536.7 309 530.5C314.8 524.3 317.7 515.6 317.7 504.4V413.5H369Z" fill="white"/>
<path d="M499.2 537.4V580.9H473.1C454.5 580.9 440 576.4 429.6 567.2C419.2 558.1 414 543.3 414 522.7V456.1H393.6V413.5H414V372.7H465.3V413.5H498.9V456.1H465.3V523.3C465.3 528.3 466.5 531.9 468.9 534.1C471.3 536.3 475.3 537.4 480.9 537.4H499.2Z" fill="white"/>
<path d="M798.1 532.9L834.4 413.5H889L829.6 580.9H766.3L706.9 413.5H761.8L798.1 532.9Z" fill="white"/>
<path d="M906.1 451.6C912.6 438.6 921.4 428.6 932.6 421.6C943.8 414.6 956.3 411.1 970.1 411.1C981.9 411.1 992.2 413.5 1001.1 418.3C1010 423.1 1016.9 429.4 1021.6 437.2V413.5H1072.9V580.9H1021.6V557.2C1016.6 565 1009.6 571.3 1000.8 576.1C991.9 580.9 981.5 583.3 969.8 583.3C956.2 583.3 943.8 579.8 932.6 572.6C921.4 565.5 912.5 555.4 906.1 542.3C899.6 529.2 896.3 514.1 896.3 496.8C896.4 479.7 899.6 464.6 906.1 451.6ZM1011.1 466.9C1004 459.5 995.3 455.8 985.1 455.8C974.9 455.8 966.2 459.5 959.1 466.7C952 474 948.4 484.1 948.4 496.9C948.4 509.7 951.9 519.9 959.1 527.4C966.2 534.9 974.9 538.6 985.1 538.6C995.3 538.6 1003.9 534.9 1011.1 527.5C1018.2 520.1 1021.7 510 1021.7 497.2C1021.8 484.4 1018.2 474.3 1011.1 466.9Z" fill="white"/>
<path d="M1259.2 430.8C1270.9 443.5 1276.7 461 1276.7 483.2V580.9H1225.7V490C1225.7 478.8 1222.8 470.1 1217 463.9C1211.2 457.7 1203.4 454.6 1193.6 454.6C1183.8 454.6 1176 457.7 1170.2 463.9C1164.4 470.1 1161.5 478.8 1161.5 490V580.9H1110.2V413.5H1161.5V435.7C1166.7 428.3 1173.7 422.5 1182.5 418.2C1191.3 413.9 1201.2 411.7 1212.2 411.7C1231.9 411.7 1247.5 418.1 1259.2 430.8Z" fill="white"/>
<path d="M1316.2 388.2C1310.5 382.9 1307.7 376.4 1307.7 368.5C1307.7 360.5 1310.6 353.9 1316.2 348.6C1321.9 343.3 1329.3 340.6 1338.3 340.6C1347.1 340.6 1354.3 343.3 1360.1 348.6C1365.8 353.9 1368.6 360.6 1368.6 368.5C1368.6 376.3 1365.7 382.9 1360.1 388.2C1354.4 393.5 1347.1 396.2 1338.3 396.2C1329.3 396.1 1321.9 393.5 1316.2 388.2ZM1363.8 413.5V580.9H1312.5V413.5H1363.8Z" fill="white"/>
<path d="M1557.9 509.5H1441.8C1442.6 519.9 1445.9 527.9 1451.8 533.4C1457.7 538.9 1464.9 541.6 1473.6 541.6C1486.4 541.6 1495.3 536.2 1500.3 525.4H1554.9C1552.1 536.4 1547 546.3 1539.7 555.1C1532.4 563.9 1523.2 570.8 1512.3 575.8C1501.3 580.8 1489 583.3 1475.4 583.3C1459 583.3 1444.4 579.8 1431.6 572.8C1418.8 565.8 1408.8 555.8 1401.6 542.8C1394.4 529.8 1390.8 514.6 1390.8 497.2C1390.8 479.8 1394.3 464.6 1401.4 451.6C1408.5 438.6 1418.4 428.6 1431.3 421.6C1444.1 414.6 1458.8 411.1 1475.4 411.1C1491.6 411.1 1506 414.5 1518.6 421.3C1531.2 428.1 1541 437.8 1548.1 450.4C1555.2 463 1558.8 477.7 1558.8 494.5C1558.8 499.3 1558.5 504.3 1557.9 509.5ZM1506.3 481C1506.3 472.2 1503.3 465.2 1497.3 460C1491.3 454.8 1483.8 452.2 1474.8 452.2C1466.2 452.2 1458.9 454.7 1453 459.7C1447.1 464.7 1443.4 471.8 1442 481H1506.3Z" fill="white"/>
<path d="M603.3 448L597.4 440.6C597.7 441.8 597.9 443 598.1 443.9L599 448.8L596.8 449.2L594.9 438.4L597.8 437.9L603.8 445.4C603.5 444.3 603.3 443 603.1 442L602.2 437.1L604.3 436.7L606.2 447.5L603.3 448Z" fill="white"/>
<path d="M622.2 541.8L620 542.2C619.7 541.1 619 540.6 617.8 540.8C616.9 541 616.4 541.5 616.5 542.3C616.7 543.2 617.3 543.6 619.1 543.7C621.6 543.8 622.8 544.7 623.1 546.5C623.5 548.5 621.8 550 619.7 550.4C617.1 550.9 615.2 550 614.6 547.8L616.8 547.4C617.2 548.5 618.3 549 619.3 548.8C620.3 548.6 621 548 620.8 547.1C620.6 546.2 620 545.8 618.3 545.7C616 545.6 614.5 545 614.1 543.1C613.7 541.1 615.3 539.6 617.4 539.3C620.2 538.7 621.6 539.9 622.2 541.8Z" fill="white"/>
<path d="M563.3 497.1L563.8 500L555.2 503.4L564.5 503.8L565 506.7L554.7 511.3L554.3 509L563.1 505.6L553.8 505.3L553.3 502.3L562 498.9L552.5 498.6L552.1 496.4L563.3 497.1Z" fill="white"/>
<path d="M655.6 489.6L654.2 481.8L665 479.9L666.3 487.5L664.6 487.8L663.6 482.3L660.8 482.8L661.7 487.9L660 488.2L659.1 483.1L656.3 483.6L657.3 489.2L655.6 489.6Z" fill="white"/>
<path d="M615.7 528.9C596.4 532.3 578 519.4 574.6 500.2C571.2 480.9 584.1 462.5 603.3 459.1C622.6 455.7 641 468.6 644.4 487.8C647.9 507 635 525.5 615.7 528.9ZM603.6 460.2C585 463.5 572.6 481.3 575.8 499.9C579.1 518.5 596.9 530.9 615.5 527.7C634.1 524.4 646.5 506.6 643.3 488C640 469.4 622.2 456.9 603.6 460.2Z" fill="white"/>
<path d="M564.7 501.9L574.8 497.6L575.7 502.4L564.7 501.9Z" fill="white"/>
<path d="M617.5 538.8L613.2 528.7L618 527.9L617.5 538.8Z" fill="white"/>
<path d="M654.4 486L644.3 490.3L643.4 485.5L654.4 486Z" fill="white"/>
<path d="M601.6 449.1L605.9 459.2L601.1 460.1L601.6 449.1Z" fill="white"/>
<path d="M590 478.1C589.2 477.5 588.1 477.7 587.5 478.5C586.9 479.3 587.1 480.4 587.9 481C588.7 481.6 589.8 481.4 590.4 480.6C591 479.8 590.8 478.7 590 478.1Z" fill="white"/>
<path d="M593.7 513.5C593.1 514.3 593.3 515.4 594.1 516C594.9 516.6 596 516.4 596.6 515.6C597.2 514.8 597 513.7 596.2 513.1C595.4 512.5 594.3 512.7 593.7 513.5Z" fill="white"/>
<path d="M629.1 509.8C629.9 510.4 631 510.2 631.6 509.4C632.2 508.6 632 507.5 631.2 506.9C630.4 506.3 629.3 506.5 628.7 507.3C628.1 508.1 628.3 509.2 629.1 509.8Z" fill="white"/>
<path d="M625.4 474.4C626 473.6 625.8 472.5 625 471.9C624.2 471.3 623.1 471.5 622.5 472.3C621.9 473.1 622.1 474.2 622.9 474.8C623.7 475.4 624.8 475.2 625.4 474.4Z" fill="white"/>
<path d="M597.18 455.637L595.762 456.126L597.523 461.23L598.941 460.741L597.18 455.637Z" fill="white"/>
<path d="M591.366 458.115L590.042 458.82L592.58 463.587L593.904 462.882L591.366 458.115Z" fill="white"/>
<path d="M585.9 461.368L584.703 462.271L587.954 466.582L589.152 465.679L585.9 461.368Z" fill="white"/>
<path d="M581.135 465.43L580.094 466.51L583.98 470.259L585.022 469.18L581.135 465.43Z" fill="white"/>
<path d="M577.083 470.286L576.223 471.515L580.648 474.611L581.508 473.381L577.083 470.286Z" fill="white"/>
<path d="M573.688 475.602L573.031 476.951L577.885 479.315L578.542 477.967L573.688 475.602Z" fill="white"/>
<path d="M571.246 481.498L570.808 482.932L575.973 484.508L576.41 483.074L571.246 481.498Z" fill="white"/>
<path d="M569.84 487.578L569.632 489.063L574.979 489.812L575.187 488.327L569.84 487.578Z" fill="white"/>
<path d="M574.764 493.825L569.365 493.922L569.391 495.422L574.79 495.325L574.764 493.825Z" fill="white"/>
<path d="M576.443 504.614L571.338 506.376L571.827 507.794L576.932 506.032L576.443 504.614Z" fill="white"/>
<path d="M612.6 493.4L603.9 462.2L606.3 494.5L615.1 525.7L612.6 493.4Z" fill="white"/>
<path d="M610 497.1L641.3 488.4L608.9 490.8L577.7 499.6L610 497.1Z" fill="white"/>
<path d="M611.3 495.2L622.2 475.9L607.7 492.7L596.8 512.1L611.3 495.2Z" fill="white"/>
<path d="M608.2 495.8L627.6 506.6L610.7 492.2L591.4 481.3L608.2 495.8Z" fill="white"/>
<path d="M578.493 509.696L573.726 512.233L574.431 513.557L579.198 511.02L578.493 509.696Z" fill="white"/>
<path d="M612.3 509.3C603.9 510.8 595.8 505.1 594.3 496.7C592.8 488.3 598.5 480.2 606.9 478.7C615.3 477.2 623.4 482.9 624.9 491.3C626.4 499.7 620.7 507.8 612.3 509.3ZM606.9 479.1C598.7 480.5 593.3 488.4 594.7 496.5C596.1 504.7 604 510.1 612.1 508.7C620.3 507.3 625.7 499.4 624.3 491.3C622.9 483.2 615.1 477.7 606.9 479.1Z" fill="white"/>
<path d="M581.335 514.328L577.023 517.58L577.927 518.778L582.238 515.526L581.335 514.328Z" fill="white"/>
<path d="M584.768 518.492L581.018 522.377L582.098 523.419L585.847 519.533L584.768 518.492Z" fill="white"/>
<path d="M589.031 522.055L585.935 526.48L587.165 527.34L590.26 522.915L589.031 522.055Z" fill="white"/>
<path d="M593.659 525.031L591.293 529.885L592.641 530.542L595.007 525.688L593.659 525.031Z" fill="white"/>
<path d="M598.689 527.056L597.114 532.221L598.548 532.659L600.124 527.494L598.689 527.056Z" fill="white"/>
<path d="M604.021 528.321L603.271 533.669L604.757 533.877L605.507 528.53L604.021 528.321Z" fill="white"/>
<path d="M610.929 528.762L609.429 528.79L609.527 534.188L611.027 534.161L610.929 528.762Z" fill="white"/>
<path d="M621.758 526.68L620.34 527.169L622.101 532.274L623.519 531.785L621.758 526.68Z" fill="white"/>
<path d="M626.657 524.359L625.333 525.064L627.87 529.831L629.194 529.126L626.657 524.359Z" fill="white"/>
<path d="M631.15 521.312L629.952 522.216L633.204 526.527L634.402 525.624L631.15 521.312Z" fill="white"/>
<path d="M635.13 517.587L634.088 518.666L637.975 522.415L639.016 521.336L635.13 517.587Z" fill="white"/>
<path d="M638.565 513.304L637.705 514.533L642.13 517.628L642.99 516.399L638.565 513.304Z" fill="white"/>
<path d="M641.249 508.493L640.592 509.841L645.446 512.207L646.103 510.858L641.249 508.493Z" fill="white"/>
<path d="M643.032 503.415L642.594 504.849L647.759 506.426L648.197 504.991L643.032 503.415Z" fill="white"/>
<path d="M644.148 498.015L643.94 499.5L649.288 500.249L649.496 498.764L644.148 498.015Z" fill="white"/>
<path d="M649.761 492.526L644.362 492.623L644.389 494.123L649.788 494.026L649.761 492.526Z" fill="white"/>
<path d="M647.378 480.138L642.273 481.897L642.762 483.315L647.867 481.556L647.378 480.138Z" fill="white"/>
<path d="M644.687 474.409L639.921 476.947L640.626 478.271L645.392 475.733L644.687 474.409Z" fill="white"/>
<path d="M641.201 469.19L636.889 472.441L637.792 473.639L642.104 470.388L641.201 469.19Z" fill="white"/>
<path d="M636.95 464.457L633.201 468.344L634.281 469.385L638.029 465.498L636.95 464.457Z" fill="white"/>
<path d="M632.049 460.576L628.954 465.001L630.183 465.861L633.278 461.436L632.049 460.576Z" fill="white"/>
<path d="M626.507 457.45L624.142 462.304L625.49 462.961L627.855 458.106L626.507 457.45Z" fill="white"/>
<path d="M620.606 455.248L619.03 460.413L620.465 460.851L622.041 455.686L620.606 455.248Z" fill="white"/>
<path d="M614.493 453.954L613.745 459.302L615.23 459.51L615.979 454.162L614.493 453.954Z" fill="white"/>
<path d="M609.527 453.763L608.028 453.79L608.124 459.188L609.623 459.162L609.527 453.763Z" fill="white"/>
<path d="M608 485C607.9 485 607.7 485.1 607.6 485.1L572.6 468.1L600.5 495.1C600.5 495.2 600.5 495.4 600.5 495.5C601.4 500.5 606.1 503.8 611.1 502.9C611.2 502.9 611.4 502.8 611.5 502.8L646.4 519.7L618.5 492.7C618.5 492.6 618.5 492.4 618.5 492.3C617.7 487.4 612.9 484.1 608 485Z" fill="#009CD0"/>
<path d="M607.6 485.1L572.6 468.1L600.5 495.1C600.5 495.2 600.5 495.4 600.5 495.5C600.9 498 602.3 500 604.3 501.4L614.8 486.5C612.9 485.2 610.5 484.6 608 485C607.8 485 607.7 485 607.6 485.1Z" fill="#D22121"/>
<path opacity="0.15" d="M609.6 494L604.4 501.5C603.7 501 603 500.4 602.5 499.7C604.5 502.2 607.8 503.6 611.2 503C611.3 503 611.5 502.9 611.6 502.9L646.5 519.8L609.6 494Z" fill="black"/>
<path d="M609.6 494L614.8 486.5C614.5 486.3 614.2 486.1 613.9 485.9C613.2 485.5 612.4 485.2 611.6 485C610.4 484.7 609.2 484.7 608 484.9C607.9 484.9 607.7 485 607.6 485L572.6 468.1L609.6 494Z" fill="white"/>
<path d="M609.6 499.9C612.858 499.9 615.5 497.259 615.5 494C615.5 490.742 612.858 488.1 609.6 488.1C606.341 488.1 603.7 490.742 603.7 494C603.7 497.259 606.341 499.9 609.6 499.9Z" fill="#D7E6D6"/>
<path d="M609.1 488.6C610.9 488.3 612.7 488.8 614 489.9C612.7 488.5 610.7 487.7 608.6 488.1C605.4 488.7 603.2 491.8 603.8 495C604.1 496.4 604.8 497.7 605.8 498.5C605.1 497.7 604.5 496.7 604.3 495.5C603.7 492.3 605.8 489.2 609.1 488.6Z" fill="white"/>
<path opacity="0.15" d="M612.3 488.7C613.3 489.6 613.9 490.7 614.2 492.1C614.8 495.3 612.6 498.4 609.4 499C608 499.2 606.7 499 605.6 498.4C606.9 499.6 608.7 500.2 610.6 499.8C613.8 499.2 616 496.1 615.4 492.9C615.1 491.1 613.9 489.5 612.3 488.7Z" fill="black"/>
<path d="M585.2 354.8C573.6 356.9 565.8 368 567.8 379.6C569.1 387.2 574.4 393.2 581.1 395.8C583.1 396.6 585.3 397.1 587.6 397.2C589.3 397.3 590.9 397.2 592.6 396.9C594.3 396.6 595.9 396.1 597.4 395.4C599.5 394.5 601.4 393.3 603 391.8C608.4 387 611.3 379.6 609.9 372C608 360.5 596.9 352.7 585.2 354.8ZM602.1 386.4C599.6 389.5 596.1 391.8 591.8 392.5C587.6 393.2 583.4 392.3 580.1 390.3C576.1 387.9 573.2 383.8 572.3 378.9C570.7 369.8 576.8 361 586 359.4C595.1 357.8 603.9 363.9 605.5 373.1C606.4 377.9 605 382.7 602.1 386.4Z" fill="white"/>
<path d="M602.1 386.4C599.6 389.5 596.1 391.8 591.8 392.5C587.7 393.2 583.6 392.4 580.3 390.4C580.9 390.9 581.5 391.3 582.1 391.7C585.5 393.8 589.6 394.7 593.8 393.9C598 393.2 601.6 390.9 604.1 387.8C607 384.2 608.4 379.3 607.5 374.4C606.6 369.4 603.6 365.3 599.5 362.8C602.5 365.3 604.7 368.8 605.4 372.9C606.4 377.9 605 382.7 602.1 386.4Z" fill="white"/>
<path d="M587.3 356.2C592.7 355.3 597.9 356.4 602.3 359.1C597.7 355.4 591.5 353.7 585.3 354.8C573.7 356.9 565.9 368 567.9 379.6C569 385.9 572.8 391 577.8 394.1C573.8 391 570.9 386.4 570 381C567.9 369.4 575.7 358.3 587.3 356.2Z" fill="white"/>
<path opacity="0.15" d="M606.1 363.1C607.6 365.4 608.6 368 609.1 370.9C610.4 378.5 607.6 385.9 602.2 390.7C600.6 392.2 598.7 393.4 596.6 394.3C595.1 395 593.5 395.5 591.8 395.8C590.1 396.1 588.4 396.2 586.8 396.1C584.5 396 582.3 395.5 580.3 394.7C576.6 393.2 573.3 390.7 570.9 387.5C573.4 391.3 577 394.3 581.2 396C583.2 396.8 585.4 397.3 587.7 397.4C589.4 397.5 591 397.4 592.7 397.1C594.4 396.8 596 396.3 597.5 395.6C599.6 394.7 601.5 393.5 603.1 392C608.5 387.2 611.4 379.8 610 372.2C609.5 368.8 608.1 365.7 606.1 363.1Z" fill="white"/>
<path d="M601.9 385.1L604.4 399.2L582.4 403.1L579.9 389C585.7 383.2 594.5 381.6 601.9 385.1Z" fill="white"/>
<path opacity="0.1" d="M601.9 385.1C599.7 384.1 597.4 383.5 595 383.3L598 400.3L604.3 399.2L601.9 385.1Z" fill="white"/>
<path opacity="0.59" d="M587.152 385.432L585.379 385.746L587.608 398.35L589.38 398.036L587.152 385.432Z" fill="white"/>
<path d="M541.3 446.1C554.8 426.8 575.1 413.9 598.3 409.7C620.8 405.7 643.4 410.4 662.4 423C661.8 422.5 661.1 422.1 660.5 421.6C641.2 408.1 617.7 402.9 594.5 407C571.3 411.1 551 424 537.5 443.4C524 462.7 518.8 486.2 522.9 509.4C527 532.6 539.9 552.9 559.3 566.4C559.9 566.9 560.6 567.3 561.3 567.7C543 554.2 530.8 534.5 526.9 512.1C522.6 488.9 527.8 465.5 541.3 446.1Z" fill="white"/>
<path d="M594.7 408.7C547.6 417 516.1 462.1 524.4 509.2C532.7 556.3 577.8 587.8 624.9 579.5C672 571.2 703.5 526.1 695.2 479C686.9 431.9 641.8 400.4 594.7 408.7ZM623.8 573C580.3 580.7 538.6 551.6 530.9 508C523.2 464.5 552.3 422.8 595.9 415.1C639.4 407.4 681.1 436.5 688.8 480.1C696.4 523.6 667.3 565.3 623.8 573Z" fill="white"/>
<path d="M665.8 414.1C654.6 406.3 642.2 401 629.2 398.4C620.9 396.7 612.5 396.1 603.9 396.7C600.2 396.9 596.5 397.4 592.8 398C589.1 398.7 585.5 399.5 581.9 400.6C560.8 406.8 542.6 419.9 529.8 438.2C514.7 459.8 509.6 485.6 513.6 509.9V510.1C517.8 535.1 531.6 558.4 553.9 574C575.3 588.9 601.2 594.7 626.9 590.1C652.6 585.6 674.9 571.3 689.9 549.9C720.7 505.9 709.9 444.9 665.8 414.1ZM524.5 509.2C516.2 462.1 547.7 417.1 594.8 408.7C641.9 400.4 686.9 431.9 695.3 479C703.6 526.1 672.1 571.1 625 579.5C577.9 587.8 532.8 556.2 524.5 509.2Z" fill="white"/>
<path opacity="0.7" d="M664.3 416.3C643.5 401.8 618.3 396.2 593.4 400.6C568.4 405 546.7 418.9 532.1 439.7C517.6 460.5 512 485.7 516.4 510.6C520.8 535.6 534.7 557.3 555.5 571.9C576.3 586.4 601.5 592 626.4 587.6C651.4 583.2 673.1 569.3 687.7 548.5C717.7 505.6 707.2 446.3 664.3 416.3ZM626.1 585.8C575.5 594.7 527.1 560.9 518.1 510.3C509.2 459.7 543 411.3 593.6 402.4C644.2 393.5 692.6 427.3 701.6 477.9C710.5 528.4 676.7 576.9 626.1 585.8Z" fill="white"/>
<path opacity="0.5" d="M529.8 438.1C514.7 459.8 509.6 485.6 513.6 509.9V510.1C518.2 534.3 531.8 556.8 553.5 571.9C554.2 572.4 554.8 572.8 555.5 573.2C513 541.9 503 482.1 533.4 438.6C545.5 421.2 562.3 406.9 582 400.3C560.9 406.7 542.6 419.8 529.8 438.1Z" fill="white"/>
<path d="M609.8 574.3C654.093 574.3 690 538.393 690 494.1C690 449.807 654.093 413.9 609.8 413.9C565.507 413.9 529.6 449.807 529.6 494.1C529.6 538.393 565.507 574.3 609.8 574.3Z" stroke="#EBCDBA" stroke-width="35" stroke-miterlimit="10"/>
</svg>
