<?xml version="1.0" encoding="utf-8"?>
<!-- Generator: Adobe Illustrator 28.1.0, SVG Export Plug-In . SVG Version: 6.00 Build 0)  -->
<svg version="1.1" id="Layer_1" xmlns="http://www.w3.org/2000/svg" xmlns:xlink="http://www.w3.org/1999/xlink" x="0px" y="0px"
	 viewBox="0 0 1372.7 660.8" style="enable-background:new 0 0 1372.7 660.8;" xml:space="preserve">
<style type="text/css">
	.st0{fill:#FFFFFF;}
	.st1{display:none;fill:#FFFFFF;}
	.st2{fill:#EBCDBA;}
	.st3{fill:#D22121;}
	.st4{fill:#009CD0;}
	.st5{opacity:0.15;}
	.st6{fill:#D7E6D6;}
	.st7{opacity:0.15;fill:#FFFFFF;}
	.st8{opacity:0.1;fill:#FFFFFF;}
	.st9{opacity:0.59;fill:#FFFFFF;}
	.st10{opacity:0.7;fill:#FFFFFF;}
	.st11{opacity:0.5;fill:#FFFFFF;}
	.st12{fill:none;stroke:#EBCDBA;stroke-width:35;stroke-miterlimit:10;}
</style>
<g>
	<g id="knizne">
		<path class="st0" d="M299.8,204.3c-9,33-19.5,73.5-21.8,76.9c-7.9,12.8-52.9,36-73.1,36c-22.5,0-79.5-55.5-79.5-66.8
			c0-6.4,26.6-27,34.9-27c3,0,4.9,1.5,6,3.8c8.6,16.5,33.4,55.1,42,55.1c4.5,0,14.3-6.8,16.5-11.6c1.9-3.8,15-51.8,22.9-81.4
			c9-32.6,15.4-59.3,19.5-71.3c4.5-13.1,11.3-18.4,12-19.1c-1.5,0.4-35.3,9-58.9,22.1c-3.4,1.9-4.5,5.6-4.5,9c0,8.6,7.5,33,7.5,38.3
			c0,5.3-19.5,16.1-25.5,16.1c-7.5,0-35.3-39-35.3-48.4c0-13.1,31.1-50.3,42.8-52.5c25.1-4.9,49.5-9.4,88.1-18.8
			c4.5-1.1,17.6-13.9,24-13.9c8.6,0,31.9,19.1,31.9,24.8c0,3.4-17.3,17.3-20.6,27.4c-3.4,9-11.6,37.9-20.6,70.5
			c5.3-2.6,9-5.6,11.3-8.3c26.3-32.6,57-82.5,72-99.4c3-3.8,28.1-15,33-15c4.9,0,24,23.6,24,27.8c0,3-15,11.6-18,14.3
			c-12.4,10.9-52.9,63-77.6,87c-1.9,1.9-4.1,3.4-7.1,5.3c3.4,3.4,6.4,6.8,8.3,11.6c10.9,29.3,16.5,66.8,27.4,87.8
			c4.5,8.3,19.9,11.3,19.9,15.4c0,4.1-12,17.3-24,17.3c-9.8,0-42.8-10.5-49.1-22.5c-10.9-21-8.3-57.8-14.6-81.4
			c-1.1-4.5-3.4-8.3-6.8-11.3L299.8,204.3z"/>
		<path class="st0" d="M556.8,284.9c11.3,0,31.1-22.5,49.5-56.3c0,0,3.4-6.8,8.3-6.8c4.9,0,12.8,6,12.8,10.5
			c0,4.5-4.9,13.1-4.9,13.1c-20.6,37.5-42.8,71.6-69.8,71.6c-16.9,0-54.4-15.8-54.4-32.6c0-24,21-84,21-98.3c0-3.4-3.4-7.5-7.5-7.5
			c-7.9,0-22.5,6.4-27.4,18.4c-10.1,24.8-27,100.5-29.3,111.4c-1.5,4.9-7.5,8.6-14.3,8.6c-8.6,0-35.6-9.4-35.6-19.5
			c0-9.8,28.5-123.4,36.4-148.9c2.3-5.3,9.8-7.9,15.4-7.9c8.6,0,25.1,18.4,25.1,18.4s34.9-18.4,56.3-18.4
			c14.3,0,38.6,16.5,38.6,30.4c0,17.6-23.3,89.6-23.3,109.5C553.8,282.3,554.9,284.9,556.8,284.9z"/>
		<path class="st0" d="M626.9,148.8c1.5-5.3,6.8-7.9,15-7.9c7.5,0,37.5,17.6,37.5,24.8c0,8.6-30,90.4-30,116.6
			c0,1.5,2.6,3.4,3.8,3.4c10.9,0,30.4-23.3,49.5-57c0,0,3-6.8,7.9-6.8s12.8,6,12.8,10.5c0,4.5-5.3,13.1-5.3,13.1
			c-20.3,37.5-42.8,71.6-69.8,71.6c-21,0-54.4-15.8-54.4-32.6C593.9,266.9,620.5,172,626.9,148.8z M644.9,108.3
			c0-15,9.4-42.4,24.8-42.4c10.1,0,29.6,7.1,29.6,19.5c0,15-9.8,42.4-24.8,42.4C664.4,127.8,644.9,120.6,644.9,108.3z"/>
		<path class="st0" d="M710.5,252.3c-5.3,0-13.1-6-13.1-10.1c0-3.4,3.4-9.4,5.3-13.5c11.3-25.1,27-58.5,27-58.5
			c11.6-24.8,18.4-29.3,26.6-29.3c13.9,0,57.8,5.3,66.8,5.3c9.8,0,23.6-5.3,30-5.3c5.3,0,16.1,17.3,16.1,26.6
			c0,7.1-58.5,61.5-93.8,102c16.9,0,43.1,9,52.5,9c15.4,0,33.8-16.1,52.1-49.9c0,0,3-6.8,7.9-6.8c4.9,0,13.1,6,13.1,10.5
			c0,4.5-4.9,13.1-4.9,13.1c-21,37.5-43.9,71.6-76.9,71.6c-9.4,0-51.8-4.9-58.9-4.9c-7.5,0-22.9,4.9-29.3,4.9
			c-6.8,0-17.3-17.3-17.3-22.5c0-9.8,62.6-73.1,89.6-105c-14.3-3.8-26.3-5.3-34.5-5.3c-6,0-15.4,1.9-27,20.3
			c-6.4,10.1-13.9,23.6-23.6,41.6C716.2,250.4,715,252.3,710.5,252.3z"/>
		<path class="st0" d="M1014.7,284.9c11.3,0,31.1-22.5,49.5-56.3c0,0,3.4-6.8,8.3-6.8c4.9,0,12.8,6,12.8,10.5
			c0,4.5-4.9,13.1-4.9,13.1c-20.6,37.5-42.8,71.6-69.8,71.6c-16.9,0-54.4-15.8-54.4-32.6c0-24,21-84,21-98.3c0-3.4-3.4-7.5-7.5-7.5
			c-7.9,0-22.5,6.4-27.4,18.4c-10.1,24.8-27,100.5-29.3,111.4c-1.5,4.9-7.5,8.6-14.3,8.6c-8.6,0-35.6-9.4-35.6-19.5
			c0-9.8,28.5-123.4,36.4-148.9c2.2-5.3,9.8-7.9,15.4-7.9c8.6,0,25.1,18.4,25.1,18.4s34.9-18.4,56.3-18.4
			c14.3,0,38.6,16.5,38.6,30.4c0,17.6-23.3,89.6-23.3,109.5C1011.7,282.3,1012.8,284.9,1014.7,284.9z"/>
		<path class="st1" d="M1174.9,256.8c0,0,6.8-9.4,11.3-9.4c5.3,0,15.8,8.6,15.8,13.1c0,4.5-8.3,15.4-8.3,15.4
			c-15,19.9-40.1,41.3-72,41.3c-25.5,0-66.4-22.5-66.4-51.8c0-42.4,39.4-124.5,79.1-124.5c19.1,0,58.1,22.1,58.1,38.3
			c0,19.9-26.3,78.4-51.4,78.4c-14.6,0-28.1-3.4-28.1-3.4s-1.5,3.4-1.5,9.8c0,10.5,9.8,19.9,17.3,19.9
			C1146.4,283.8,1161.4,275.2,1174.9,256.8z M1153.5,180.3c0-1.1-3-4.1-5.6-4.1c-12,0-30.8,37.1-34.1,52.9
			C1139.6,224.9,1153.5,190,1153.5,180.3z M1247.3,87.6c0,4.9-3.4,7.5-6.4,9.8c-23.6,15.8-63.8,40.1-67.9,40.1
			c-4.9,0-13.5-10.9-13.5-13.9c0-3.4,2.6-7.5,4.9-10.1c9-9.4,36.8-45,41.6-51.4c3.8-4.1,6.4-7.1,10.1-7.1
			C1222.5,55,1247.3,81.6,1247.3,87.6z"/>
		<g id="iiii">
			<path class="st0" d="M1084.2,149.2c1.5-5.2,6.7-7.8,14.9-7.8c7.4,0,37.2,17.5,37.2,24.6c0,8.6-29.8,89.7-29.8,115.7
				c0,1.5,2.6,3.3,3.7,3.3c10.8,0,30.1-23.1,49.1-56.6c0,0,3-6.7,7.8-6.7c4.8,0,12.7,6,12.7,10.4c0,4.5-5.2,13-5.2,13
				c-20.1,37.2-42.4,71.1-69.2,71.1c-20.8,0-53.9-15.6-53.9-32.4C1051.5,266.4,1077.9,172.3,1084.2,149.2z M1175.4,80.8
				c0,4.8-3.3,7.4-6.3,9.7c-23.4,15.6-63.3,39.8-67.3,39.8c-4.8,0-13.4-10.8-13.4-13.8c0-3.3,2.6-7.4,4.8-10
				c8.9-9.3,36.5-44.6,41.3-51c3.7-4.1,6.3-7.1,10-7.1C1150.8,48.4,1175.4,74.8,1175.4,80.8z"/>
		</g>
	</g>
	<g id="kniha">
		<path class="st2" d="M802.8,105.9l-69-71l-12.5,11.6l60.5,66.4c0,0,8,8.7,21,8.7V105.9z"/>
		<path class="st0" d="M802.8,105.9l-69-71c0,0,24-7,49,18C782.8,52.9,817.8,83.9,802.8,105.9z"/>
		<path class="st2" d="M802.8,105.9l69-71l12.5,11.6l-60.5,66.4c0,0-8,8.7-21,8.7V105.9z"/>
		<path class="st0" d="M802.8,105.9l69-71c0,0-24-7-49,18C822.8,52.9,787.8,83.9,802.8,105.9z"/>
		<path class="st3" d="M861.2,0c0,0-6.4,10.9-23.4,17.9c0,0-49,17.6-35,73.3c0,0-3-42.3,38-61.3c0,0,22-8,31-21.7L861.2,0z"/>
	</g>
</g>
<g>
	<path id="p" class="st0" d="M72,418.4c8.8-4.8,19.1-7.2,30.9-7.2c13.8,0,26.3,3.5,37.5,10.5c11.2,7,20,17,26.5,30
		c6.5,13,9.8,28.1,9.8,45.3c0,17.2-3.3,32.4-9.8,45.5c-6.5,13.1-15.4,23.2-26.5,30.3c-11.2,7.1-23.7,10.7-37.5,10.7
		c-11.6,0-21.9-2.4-30.8-7.2c-8.9-4.8-15.9-11-20.9-18.6v103.2H0V413.6h51.3v23.7C56.3,429.5,63.2,423.2,72,418.4z M113.9,466.8
		c-7.1-7.3-15.9-10.9-26.2-10.9c-10.2,0-18.9,3.7-26,11.1c-7.1,7.4-10.6,17.5-10.6,30.3c0,12.8,3.5,22.9,10.6,30.3
		c7.1,7.4,15.8,11.1,26,11.1c10.2,0,18.9-3.8,26.1-11.2c7.2-7.5,10.8-17.6,10.8-30.5C124.5,484.2,120.9,474.1,113.9,466.8z"/>
	<path id="u" class="st0" d="M369,413.6V581h-51.3v-22.8c-5.2,7.4-12.3,13.3-21.1,17.8c-8.9,4.5-18.8,6.8-29.6,6.8
		c-12.8,0-24.1-2.8-33.9-8.5c-9.8-5.7-17.4-14-22.8-24.8c-5.4-10.8-8.1-23.5-8.1-38.1v-97.8h51v90.9c0,11.2,2.9,19.9,8.7,26.1
		c5.8,6.2,13.6,9.3,23.4,9.3c10,0,17.9-3.1,23.7-9.3c5.8-6.2,8.7-14.9,8.7-26.1v-90.9H369z"/>
	<path id="t" class="st0" d="M499.2,537.5V581h-26.1c-18.6,0-33.1-4.5-43.5-13.7c-10.4-9.1-15.6-23.9-15.6-44.5v-66.6h-20.4v-42.6
		H414v-40.8h51.3v40.8h33.6v42.6h-33.6v67.2c0,5,1.2,8.6,3.6,10.8c2.4,2.2,6.4,3.3,12,3.3H499.2z"/>
	<path id="v" class="st0" d="M798.1,533l36.3-119.4H889L829.6,581h-63.3l-59.4-167.4h54.9L798.1,533z"/>
	<g id="á">
		<path class="st0" d="M906.5,452c6.5-13,15.3-23,26.6-30c11.2-7,23.7-10.5,37.5-10.5c11.8,0,22.1,2.4,31,7.2
			c8.9,4.8,15.8,11.1,20.5,18.9v-23.7h51.3v167.4h-51.3v-23.7c-5,7.8-12,14.1-20.8,18.9c-8.9,4.8-19.3,7.2-31.1,7.2
			c-13.6,0-26-3.5-37.2-10.6c-11.2-7.1-20.1-17.2-26.6-30.3c-6.5-13.1-9.8-28.2-9.8-45.5C896.8,480.1,900,465,906.5,452z
			 M1011.5,467.3c-7.1-7.4-15.8-11.1-25.9-11.1c-10.2,0-18.9,3.7-26,11c-7.1,7.3-10.6,17.4-10.6,30.1c0,12.8,3.5,23,10.6,30.5
			c7.1,7.5,15.8,11.2,26,11.2c10.2,0,18.8-3.7,25.9-11.1c7.1-7.4,10.6-17.5,10.6-30.3C1022.2,484.8,1018.6,474.7,1011.5,467.3z
			 M1026.1,372.2l-72.3,30.3v-35.4l72.3-34.8V372.2z"/>
	</g>
	<path id="n" class="st0" d="M1259.2,430.8c11.7,12.7,17.5,30.2,17.5,52.4V581h-51v-90.9c0-11.2-2.9-19.9-8.7-26.1
		c-5.8-6.2-13.6-9.3-23.4-9.3c-9.8,0-17.6,3.1-23.4,9.3c-5.8,6.2-8.7,14.9-8.7,26.1V581h-51.3V413.6h51.3v22.2
		c5.2-7.4,12.2-13.2,21-17.5c8.8-4.3,18.7-6.5,29.7-6.5C1231.9,411.8,1247.5,418.1,1259.2,430.8z"/>
	<g id="í">
		<path class="st0" d="M1372.7,372l-72.3,30.3v-35.4l72.3-34.8V372z M1363.4,413.7v167.4h-51.3V413.7H1363.4z"/>
	</g>
	<g id="cifernik">
		<g>
			<path class="st0" d="M603.3,448l-5.9-7.4c0.3,1.2,0.5,2.4,0.7,3.3l0.9,4.9l-2.2,0.4l-1.9-10.8l2.9-0.5l6,7.5
				c-0.3-1.1-0.5-2.4-0.7-3.4l-0.9-4.9l2.1-0.4l1.9,10.8L603.3,448z"/>
			<path class="st0" d="M622.2,541.8l-2.2,0.4c-0.3-1.1-1-1.6-2.2-1.4c-0.9,0.2-1.4,0.7-1.3,1.5c0.2,0.9,0.8,1.3,2.6,1.4
				c2.5,0.1,3.7,1,4,2.8c0.4,2-1.3,3.5-3.4,3.9c-2.6,0.5-4.5-0.4-5.1-2.6l2.2-0.4c0.4,1.1,1.5,1.6,2.5,1.4c1-0.2,1.7-0.8,1.5-1.7
				c-0.2-0.9-0.8-1.3-2.5-1.4c-2.3-0.1-3.8-0.7-4.2-2.6c-0.4-2,1.2-3.5,3.3-3.8C620.2,538.7,621.6,540,622.2,541.8z"/>
			<path class="st0" d="M563.3,497.1l0.5,2.9l-8.6,3.4l9.3,0.4l0.5,2.9l-10.3,4.6l-0.4-2.3l8.8-3.4l-9.3-0.3l-0.5-3l8.7-3.4
				l-9.5-0.3l-0.4-2.2L563.3,497.1z"/>
			<path class="st0" d="M655.6,489.6l-1.4-7.8l10.8-1.9l1.3,7.6l-1.7,0.3l-1-5.5l-2.8,0.5l0.9,5.1l-1.7,0.3l-0.9-5.1l-2.8,0.5l1,5.6
				L655.6,489.6z"/>
			<path class="st0" d="M615.7,528.9c-19.3,3.4-37.7-9.5-41.1-28.7c-3.4-19.3,9.5-37.7,28.7-41.1c19.3-3.4,37.7,9.5,41.1,28.7
				C647.9,507.1,635,525.5,615.7,528.9z M603.6,460.3c-18.6,3.3-31,21.1-27.8,39.7c3.3,18.6,21.1,31,39.7,27.8
				c18.6-3.3,31-21.1,27.8-39.7C640,469.4,622.2,457,603.6,460.3z"/>
			<g>
				<g>
					<polygon class="st0" points="564.7,501.9 574.8,497.6 575.7,502.5 					"/>
					<polygon class="st0" points="617.5,538.8 613.2,528.7 618,527.9 					"/>
					<polygon class="st0" points="654.4,486 644.3,490.3 643.5,485.5 					"/>
					<polygon class="st0" points="601.6,449.1 605.9,459.2 601.1,460.1 					"/>
				</g>
			</g>
			<g>
				<path class="st0" d="M590,478.2c-0.8-0.6-1.9-0.4-2.5,0.4c-0.6,0.8-0.4,1.9,0.4,2.5c0.8,0.6,1.9,0.4,2.5-0.4
					C591,479.8,590.8,478.7,590,478.2z"/>
				<path class="st0" d="M593.7,513.5c-0.6,0.8-0.4,1.9,0.4,2.5c0.8,0.6,1.9,0.4,2.5-0.4c0.6-0.8,0.4-1.9-0.4-2.5
					C595.4,512.5,594.3,512.7,593.7,513.5z"/>
				<path class="st0" d="M629.1,509.8c0.8,0.6,1.9,0.4,2.5-0.4c0.6-0.8,0.4-1.9-0.4-2.5c-0.8-0.6-1.9-0.4-2.5,0.4
					C628.1,508.1,628.3,509.2,629.1,509.8z"/>
				<path class="st0" d="M625.4,474.5c0.6-0.8,0.4-1.9-0.4-2.5c-0.8-0.6-1.9-0.4-2.5,0.4c-0.6,0.8-0.4,1.9,0.4,2.5
					C623.7,475.5,624.8,475.3,625.4,474.5z"/>
			</g>
			
				<rect x="596.6" y="455.8" transform="matrix(0.9453 -0.3261 0.3261 0.9453 -116.8532 219.8179)" class="st0" width="1.5" height="5.4"/>
			
				<rect x="591.2" y="458.2" transform="matrix(0.8827 -0.4699 0.4699 0.8827 -147.13 332.1797)" class="st0" width="1.5" height="5.4"/>
			
				<rect x="586.2" y="461.3" transform="matrix(0.7983 -0.6022 0.6022 0.7983 -161.0679 447.0372)" class="st0" width="1.5" height="5.4"/>
			
				<rect x="581.8" y="465.2" transform="matrix(0.6943 -0.7197 0.7197 0.6943 -158.6755 562.2565)" class="st0" width="1.5" height="5.4"/>
			
				<rect x="578.1" y="469.8" transform="matrix(0.5732 -0.8194 0.8194 0.5732 -140.1118 675.9322)" class="st0" width="1.5" height="5.4"/>
			
				<rect x="575.1" y="474.9" transform="matrix(0.4379 -0.899 0.899 0.4379 -105.6677 786.0704)" class="st0" width="1.5" height="5.4"/>
			
				<rect x="572.9" y="480.3" transform="matrix(0.2919 -0.9564 0.9564 0.2919 -55.7943 890.6777)" class="st0" width="1.5" height="5.4"/>
			
				<rect x="571.7" y="486.1" transform="matrix(0.1387 -0.9903 0.9903 0.1387 8.9372 987.8209)" class="st0" width="1.5" height="5.4"/>
			
				<rect x="569.4" y="493.9" transform="matrix(0.9998 -1.788426e-02 1.788426e-02 0.9998 -8.755 10.3095)" class="st0" width="5.4" height="1.5"/>
			
				<rect x="571.4" y="505.5" transform="matrix(0.9453 -0.3262 0.3262 0.9453 -133.7127 214.9218)" class="st0" width="5.4" height="1.5"/>
			<g>
				<g>
					<polygon class="st0" points="612.6,493.4 603.9,462.2 606.3,494.5 615.1,525.8 					"/>
					<polygon class="st0" points="610,497.1 641.3,488.4 608.9,490.8 577.7,499.6 					"/>
				</g>
				<g>
					<polygon class="st0" points="611.3,495.2 622.2,475.9 607.7,492.7 596.8,512.1 					"/>
					<polygon class="st0" points="608.2,495.8 627.6,506.7 610.7,492.2 591.4,481.3 					"/>
				</g>
			</g>
			
				<rect x="573.8" y="510.9" transform="matrix(0.8828 -0.4698 0.4698 0.8828 -172.7732 330.7384)" class="st0" width="5.4" height="1.5"/>
			<path class="st0" d="M612.3,509.3c-8.4,1.5-16.5-4.2-18-12.6s4.2-16.5,12.6-18c8.4-1.5,16.5,4.2,18,12.6
				C626.4,499.7,620.7,507.8,612.3,509.3z M606.9,479.2c-8.2,1.4-13.6,9.3-12.2,17.4c1.4,8.2,9.3,13.6,17.4,12.2
				c8.2-1.4,13.6-9.3,12.2-17.4C622.9,483.2,615.1,477.7,606.9,479.2z"/>
			
				<rect x="576.9" y="515.8" transform="matrix(0.7984 -0.6022 0.6022 0.7984 -194.2041 453.1765)" class="st0" width="5.4" height="1.5"/>
			
				<rect x="580.8" y="520.3" transform="matrix(0.6943 -0.7196 0.7196 0.6943 -196.5753 579.1599)" class="st0" width="5.4" height="1.5"/>
			
				<rect x="585.4" y="524" transform="matrix(0.5732 -0.8194 0.8194 0.5732 -178.9955 705.811)" class="st0" width="5.4" height="1.5"/>
			
				<rect x="590.4" y="527" transform="matrix(0.4381 -0.8989 0.8989 0.4381 -141.0933 829.7267)" class="st0" width="5.4" height="1.5"/>
			
				<rect x="595.9" y="529.1" transform="matrix(0.2918 -0.9565 0.9565 0.2918 -82.8745 947.8229)" class="st0" width="5.4" height="1.5"/>
			
				<rect x="601.7" y="530.4" transform="matrix(0.1389 -0.9903 0.9903 0.1389 -5.5777 1055.8781)" class="st0" width="5.4" height="1.5"/>
			
				<rect x="609.5" y="528.8" transform="matrix(0.9998 -1.808185e-02 1.808185e-02 0.9998 -9.5108 11.1209)" class="st0" width="1.5" height="5.4"/>
			
				<rect x="621.1" y="526.8" transform="matrix(0.9454 -0.3261 0.3261 0.9454 -138.6508 231.6689)" class="st0" width="1.5" height="5.4"/>
			
				<rect x="626.5" y="524.4" transform="matrix(0.8828 -0.4698 0.4698 0.8828 -174.1131 356.4531)" class="st0" width="1.5" height="5.4"/>
			
				<rect x="631.4" y="521.3" transform="matrix(0.7984 -0.6022 0.6022 0.7984 -188.039 486.3197)" class="st0" width="1.5" height="5.4"/>
			
				<rect x="635.8" y="517.4" transform="matrix(0.6943 -0.7197 0.7197 0.6943 -179.6654 617.0993)" class="st0" width="1.5" height="5.4"/>
			
				<rect x="639.6" y="512.8" transform="matrix(0.5732 -0.8194 0.8194 0.5732 -149.1156 744.6956)" class="st0" width="1.5" height="5.4"/>
			
				<rect x="642.6" y="507.7" transform="matrix(0.438 -0.899 0.899 0.438 -97.3091 865.1783)" class="st0" width="1.5" height="5.4"/>
			
				<rect x="644.7" y="502.3" transform="matrix(0.2919 -0.9564 0.9564 0.2919 -25.9109 974.8696)" class="st0" width="1.5" height="5.4"/>
			
				<rect x="646" y="496.5" transform="matrix(0.1387 -0.9903 0.9903 0.1387 62.6406 1070.3966)" class="st0" width="1.5" height="5.4"/>
			
				<rect x="644.4" y="492.6" transform="matrix(0.9998 -1.788426e-02 1.788426e-02 0.9998 -8.7189 11.6514)" class="st0" width="5.4" height="1.5"/>
			
				<rect x="642.4" y="481" transform="matrix(0.9454 -0.3258 0.3258 0.9454 -121.765 236.4596)" class="st0" width="5.4" height="1.5"/>
			
				<rect x="640" y="475.6" transform="matrix(0.8826 -0.47 0.47 0.8826 -148.4787 357.9924)" class="st0" width="5.4" height="1.5"/>
			
				<rect x="636.8" y="470.6" transform="matrix(0.7985 -0.602 0.602 0.7985 -154.9034 480.0218)" class="st0" width="5.4" height="1.5"/>
			
				<rect x="632.9" y="466.2" transform="matrix(0.6942 -0.7198 0.7198 0.6942 -141.7488 600.2805)" class="st0" width="5.4" height="1.5"/>
			
				<rect x="628.4" y="462.5" transform="matrix(0.5732 -0.8194 0.8194 0.5732 -110.2315 714.8176)" class="st0" width="5.4" height="1.5"/>
			
				<rect x="623.3" y="459.5" transform="matrix(0.4379 -0.899 0.899 0.4379 -61.9086 821.4553)" class="st0" width="5.4" height="1.5"/>
			
				<rect x="617.8" y="457.3" transform="matrix(0.2919 -0.9565 0.9565 0.2919 1.2619 917.8689)" class="st0" width="5.4" height="1.5"/>
			
				<rect x="612.1" y="456.1" transform="matrix(0.1386 -0.9904 0.9904 0.1386 77.1607 1002.3307)" class="st0" width="5.4" height="1.5"/>
			
				<rect x="608.1" y="453.8" transform="matrix(0.9998 -1.776572e-02 1.776572e-02 0.9998 -8.0131 10.8893)" class="st0" width="1.5" height="5.4"/>
		</g>
		<g>
			<g>
				<g>
					<path class="st4" d="M608,485c-0.1,0-0.3,0.1-0.4,0.1l-34.9-16.9l27.9,27c0,0.1,0,0.3,0,0.4c0.9,5,5.6,8.3,10.6,7.4
						c0.1,0,0.3-0.1,0.4-0.1l34.9,16.9l-27.9-27c0-0.1,0-0.3,0-0.4C617.7,487.4,612.9,484.1,608,485z"/>
					<path class="st3" d="M607.6,485.1l-34.9-16.9l27.9,27c0,0.1,0,0.3,0,0.4c0.4,2.5,1.8,4.5,3.8,5.9l10.5-14.9
						c-1.9-1.3-4.3-1.9-6.8-1.5C607.8,485,607.7,485.1,607.6,485.1z"/>
				</g>
				<g>
					<path class="st5" d="M609.6,494l-5.2,7.5c-0.7-0.5-1.4-1.1-1.9-1.8c2,2.5,5.3,3.9,8.7,3.3c0.1,0,0.3-0.1,0.4-0.1l34.9,16.9
						L609.6,494z"/>
					<path class="st0" d="M609.6,494l5.2-7.5c-0.3-0.2-0.6-0.4-0.9-0.6c-0.7-0.4-1.5-0.7-2.3-0.9c-1.2-0.3-2.4-0.3-3.6-0.1
						c-0.1,0-0.3,0.1-0.4,0.1l-34.9-16.9l0,0L609.6,494z"/>
				</g>
			</g>
			<g>
				<circle class="st6" cx="609.6" cy="494" r="5.9"/>
				<path class="st0" d="M609.1,488.7c1.8-0.3,3.6,0.2,4.9,1.3c-1.3-1.4-3.3-2.2-5.4-1.8c-3.2,0.6-5.4,3.7-4.8,6.9
					c0.3,1.4,1,2.7,2,3.5c-0.7-0.8-1.3-1.8-1.5-3C603.7,492.3,605.9,489.2,609.1,488.7z"/>
				<path class="st5" d="M612.3,488.7c1,0.9,1.6,2,1.9,3.4c0.6,3.2-1.6,6.3-4.8,6.9c-1.4,0.2-2.7,0-3.8-0.6c1.3,1.2,3.1,1.8,5,1.4
					c3.2-0.6,5.4-3.7,4.8-6.9C615.1,491.1,613.9,489.6,612.3,488.7z"/>
			</g>
		</g>
	</g>
	<g>
		<path class="st0" d="M585.2,354.8c-11.6,2.1-19.4,13.2-17.4,24.8c1.3,7.6,6.6,13.6,13.3,16.2c2,0.8,4.2,1.3,6.5,1.4
			c1.7,0.1,3.3,0,5-0.3c1.7-0.3,3.3-0.8,4.8-1.5c2.1-0.9,4-2.1,5.6-3.6c5.4-4.8,8.3-12.2,6.9-19.8
			C608,360.5,596.9,352.8,585.2,354.8z M602.1,386.4c-2.5,3.1-6,5.4-10.3,6.1c-4.2,0.7-8.4-0.2-11.7-2.2c-4-2.4-6.9-6.5-7.8-11.4
			c-1.6-9.1,4.5-17.9,13.7-19.5s17.9,4.5,19.5,13.7C606.4,377.9,605,382.7,602.1,386.4z"/>
		<path class="st0" d="M602.1,386.4c-2.5,3.1-6,5.4-10.3,6.1c-4.1,0.7-8.2-0.1-11.5-2.1c0.6,0.5,1.2,0.9,1.8,1.3
			c3.4,2.1,7.5,3,11.7,2.2c4.2-0.7,7.8-3,10.3-6.1c2.9-3.6,4.3-8.5,3.4-13.4c-0.9-5-3.9-9.1-8-11.6c3,2.5,5.2,6,5.9,10.1
			C606.4,377.9,605,382.7,602.1,386.4z"/>
		<path class="st0" d="M587.3,356.3c5.4-0.9,10.6,0.2,15,2.9c-4.6-3.7-10.8-5.4-17-4.3c-11.6,2.1-19.4,13.2-17.4,24.8
			c1.1,6.3,4.9,11.4,9.9,14.5c-4-3.1-6.9-7.7-7.8-13.1C567.9,369.5,575.7,358.3,587.3,356.3z"/>
		<path class="st7" d="M606.1,363.1c1.5,2.3,2.5,4.9,3,7.8c1.3,7.6-1.5,15-6.9,19.8c-1.6,1.5-3.5,2.7-5.6,3.6
			c-1.5,0.7-3.1,1.2-4.8,1.5c-1.7,0.3-3.4,0.4-5,0.3c-2.3-0.1-4.5-0.6-6.5-1.4c-3.7-1.5-7-4-9.4-7.2c2.5,3.8,6.1,6.8,10.3,8.5
			c2,0.8,4.2,1.3,6.5,1.4c1.7,0.1,3.3,0,5-0.3c1.7-0.3,3.3-0.8,4.8-1.5c2.1-0.9,4-2.1,5.6-3.6c5.4-4.8,8.3-12.2,6.9-19.8
			C609.5,368.8,608.1,365.7,606.1,363.1z"/>
		<path class="st0" d="M601.9,385.1l2.5,14.1l-22,3.9l-2.5-14.1l0,0C585.7,383.2,594.5,381.6,601.9,385.1L601.9,385.1z"/>
		<path class="st8" d="M601.9,385.1L601.9,385.1c-2.2-1-4.5-1.6-6.9-1.8l3,17l6.3-1.1L601.9,385.1z"/>
		
			<rect x="586.5" y="385.5" transform="matrix(0.9847 -0.1741 0.1741 0.9847 -59.2654 108.2577)" class="st9" width="1.8" height="12.8"/>
		<path class="st0" d="M541.3,446.2c13.5-19.3,33.8-32.2,57-36.4c22.5-4,45.1,0.7,64.1,13.3c-0.6-0.5-1.3-0.9-1.9-1.4
			c-19.3-13.5-42.8-18.7-66-14.6c-23.2,4.1-43.5,17-57,36.4c-13.5,19.3-18.7,42.8-14.6,66c4.1,23.2,17,43.5,36.4,57
			c0.6,0.5,1.3,0.9,2,1.3c-18.3-13.5-30.5-33.2-34.4-55.6C522.6,488.9,527.8,465.5,541.3,446.2z"/>
		<path class="st0" d="M594.7,408.7c-47.1,8.3-78.6,53.4-70.3,100.5c8.3,47.1,53.4,78.6,100.5,70.3c47.1-8.3,78.6-53.4,70.3-100.5
			C686.9,431.9,641.8,400.4,594.7,408.7z M623.8,573c-43.5,7.7-85.2-21.4-92.9-65c-7.7-43.5,21.4-85.2,65-92.9
			c43.5-7.7,85.2,21.4,92.9,65C696.4,523.7,667.3,565.3,623.8,573z"/>
		<path class="st0" d="M665.8,414.1c-11.2-7.8-23.6-13.1-36.6-15.7c-8.3-1.7-16.7-2.3-25.3-1.7c-3.7,0.2-7.4,0.7-11.1,1.3
			c-3.7,0.7-7.3,1.5-10.9,2.6c-21.1,6.2-39.3,19.3-52.1,37.6c-15.2,21.7-20.3,47.5-16.3,71.8l0,0.2c4.2,25,18,48.3,40.3,63.9
			c21.4,14.9,47.3,20.7,73,16.1c25.7-4.5,48-18.8,63-40.2C720.7,505.9,709.9,445,665.8,414.1z M524.5,509.2
			c-8.3-47.1,23.2-92.1,70.3-100.5c47.1-8.3,92.1,23.2,100.5,70.3c8.3,47.1-23.2,92.1-70.3,100.5
			C577.9,587.8,532.8,556.3,524.5,509.2z"/>
		<path class="st10" d="M664.3,416.3c-20.8-14.5-46-20.1-70.9-15.7c-25,4.4-46.7,18.3-61.3,39.1c-14.5,20.8-20.1,46-15.7,70.9
			c4.4,25,18.3,46.7,39.1,61.3c20.8,14.5,46,20.1,70.9,15.7c25-4.4,46.7-18.3,61.3-39.1C717.7,505.6,707.2,446.3,664.3,416.3z
			 M626.1,585.8c-50.6,8.9-99-24.9-108-75.5c-8.9-50.6,24.9-99,75.5-107.9c50.6-8.9,99,24.9,108,75.5
			C710.5,528.5,676.7,576.9,626.1,585.8z"/>
		<path class="st11" d="M529.9,438.1c-15.2,21.7-20.3,47.5-16.3,71.8l0,0.2c4.6,24.2,18.2,46.7,39.9,61.8c0.7,0.5,1.3,0.9,2,1.3
			c-42.5-31.3-52.5-91.1-22.1-134.6c12.1-17.4,28.9-31.7,48.6-38.3l0,0C560.9,406.8,542.6,419.8,529.9,438.1z"/>
	</g>
	<circle class="st12" cx="609.9" cy="494.2" r="80.2"/>
</g>
</svg>
