<?xml version="1.0" encoding="UTF-8"?>
<svg xmlns="http://www.w3.org/2000/svg" xmlns:xlink="http://www.w3.org/1999/xlink" version="1.1" viewBox="0 0 2811.9 789.7">
  <!-- Generator: Adobe Illustrator 29.7.1, SVG Export Plug-In . SVG Version: 2.1.1 Build 8)  -->
  <defs>
    <style>
      .st0, .st1 {
        fill: none;
      }

      .st2 {
        fill: #f1cdb8;
      }

      .st3 {
        fill: #010101;
      }

      .st4 {
        fill: #d16614;
      }

      .st5 {
        opacity: .1;
      }

      .st5, .st6 {
        mix-blend-mode: multiply;
      }

      .st6 {
        opacity: .1;
      }

      .st7 {
        fill: #eaccb9;
      }

      .st8 {
        opacity: .5;
      }

      .st8, .st9, .st10, .st11 {
        mix-blend-mode: soft-light;
      }

      .st9 {
        opacity: .6;
      }

      .st10 {
        opacity: .7;
      }

      .st12 {
        isolation: isolate;
      }

      .st13 {
        clip-path: url(#clippath-1);
      }

      .st14 {
        clip-path: url(#clippath-3);
      }

      .st15 {
        clip-path: url(#clippath-4);
      }

      .st16 {
        clip-path: url(#clippath-2);
      }

      .st17 {
        clip-path: url(#clippath-7);
      }

      .st18 {
        clip-path: url(#clippath-6);
      }

      .st19 {
        clip-path: url(#clippath-9);
      }

      .st20 {
        clip-path: url(#clippath-8);
      }

      .st21 {
        clip-path: url(#clippath-5);
      }

      .st1 {
        stroke: #f1cdb8;
        stroke-miterlimit: 10;
        stroke-width: 35px;
      }

      .st22 {
        fill: #fff;
      }

      .st23 {
        fill: #d22223;
      }

      .st24 {
        fill: #009fd5;
      }

      .st25 {
        fill: #e30613;
      }

      .st26 {
        fill: #d4e7d5;
      }

      .st27 {
        fill: #691903;
      }

      .st28 {
        clip-path: url(#clippath);
      }
    </style>
    <clipPath id="clippath">
      <rect class="st0" x="1725.4" y="548.7" width="38.9" height="22.8"/>
    </clipPath>
    <clipPath id="clippath-1">
      <rect class="st0" x="1699.1" y="525.9" width="37.2" height="22.8"/>
    </clipPath>
    <clipPath id="clippath-2">
      <rect class="st0" x="1728.2" y="544.1" width="8.8" height="9.9"/>
    </clipPath>
    <clipPath id="clippath-3">
      <rect class="st0" x="1706" y="433" width="24.3" height="27.7"/>
    </clipPath>
    <clipPath id="clippath-4">
      <rect class="st0" x="1694.6" y="425.5" width="30.7" height="35.1"/>
    </clipPath>
    <clipPath id="clippath-5">
      <rect class="st0" x="1697.6" y="433.2" width="34.9" height="30.2"/>
    </clipPath>
    <clipPath id="clippath-6">
      <rect class="st0" x="1718.9" y="451" width="8.2" height="15"/>
    </clipPath>
    <clipPath id="clippath-7">
      <rect class="st0" x="1710.4" y="452.9" width="3.6" height="11.4"/>
    </clipPath>
    <clipPath id="clippath-8">
      <rect class="st0" x="1648.2" y="465" width="167.6" height="167.7"/>
    </clipPath>
    <clipPath id="clippath-9">
      <rect class="st0" x="1645.8" y="466.2" width="61.6" height="152.6"/>
    </clipPath>
  </defs>
  <g class="st12">
    <g id="Layer_1">
      <g>
        <g>
          <g>
            <path class="st4" d="M2615.1,647.8c28.4,18.2,63.3,26,96.7,21.4-6-7.4-3.4-19,2.9-26.1,6.3-7.2,15.3-11.2,23.7-15.7,31.9-17.3,58.1-45,73.4-77.9-12.7.5-25.3,1-38,1.5-4.1.2-8.5.3-12.2-1.7-8.4-4.7-7.7-17-4.6-26.2,6.6-19.8,18.6-37.8,34.4-51.5-10.2.4-20.3-6.2-24.1-15.7-2.1-5.2-2.3-10.9-2.6-16.5-1-24.5-2.1-49-3.1-73.5-35.4,22-69.8,45.6-103,70.9-2.1,1.6-4.3,3.3-7,3.7-8,1.3-12.6-8.6-14.9-16.4-11.4-38.2-35.4-72.6-67.4-96.5-4.5-3.3-9.8-6.6-15.3-5.5-4.9,1-8.5,5.3-10.6,9.8-7,14.8-3.2,32.3-5.8,48.4-2.7,16.1-19.3,33-33.5,24.8,4.3,22.6,8.7,45.2,13,67.9,2.2,11.4-90.7-17.7-96.3-18.8-58.1-10.9-2.3,37.8-5.2,64.2-1,9-6.9,17.9-4,26.6,2.3,7.2,9.8,11.2,16.4,14.9,12,6.8,23.2,15.1,33.2,24.6,3.4,3.3,6.9,7,7.9,11.6,4.7,22.2-44.6,26.5-39.8,48.7,1.3,5.9,6.4,10,11.3,13.5,24.7,17.2,53.2,28.9,82.9,33.9-10,8.2-16.5,20.5-17.9,33.3-.3,3.2-.2,6.9,2.3,9.1,2.7,2.3,6.8,1.7,10.2.7,43.5-12,80.5-45.6,96.6-87.8.2.1.4.2.5.4Z"/>
            <path class="st27" d="M2723.5,786.3c0,0,0,.2,0,.3-.3,1.9-.9,3.3-1.3,3.1-34.2-17.1-65.9-53.5-91.8-105.2-24.7-49.3-37.5-138.2-49.8-224.2-1.2-8.5-2.4-16.9-3.7-25.3-.2-1.3,0-3.5.5-4.9.5-1.4,1-1.5,1.2-.3,1.2,8.4,2.4,16.9,3.7,25.3,12.3,85.6,25,174,49.5,222.9,25.8,51.5,57.4,87.8,91.5,104.8.4.2.5,1.8.3,3.6Z"/>
          </g>
          <path class="st22" d="M2539.4,586.2c23.1,10.3,38.3,13.2,50.4,13.2,16.1,0,25-7.8,25-18.5,0-9.2-6.8-17.8-23.4-17.8h-22.8c0,.1-.2-34.4-.2-34.4h17.4c15.4-.1,23-9.4,23-18.8,0-9.2-6.5-16.8-20.9-16.8-10.9,0-22.6,2.1-46.8,12.4l-7.1-34.4c19.3-8.5,40.1-12.8,61.5-12.9,37.2-.2,59.6,17.6,59.7,45.9s-8.8,31-24.4,39.8c17.6,7.1,30.6,21.2,30.7,41.3.1,30.3-24.3,49-66,49.2-21.6,0-45.7-4.8-63.1-13.1l7-35Z"/>
        </g>
        <g id="LOGO_CZ_CMYK">
          <g>
            <polygon class="st22" points="596.6 21.8 684.3 21.8 719.4 153.5 732 205.7 744.2 153.5 780.1 21.8 867.4 21.8 904.4 284.5 832.7 284.5 820.1 154.7 816 101.4 802.3 154.7 768.3 284.5 691.3 284.5 656.5 154.7 642.8 101.4 639.1 154.7 627.3 284.5 560 284.5 596.6 21.8"/>
            <g>
              <path class="st22" d="M1025.2,165v-8.9c0-13-6.7-21.5-21.1-21.5s-34,3.3-63.3,15.5l-8.5-45.1c34-11.5,61-16.6,89.9-16.6,45.9,0,69.6,24.8,69.6,76.6v57.7c0,12.9,5.2,17.8,21.8,17.8l-6.7,46.2c-41.4,5.6-61.4-3-71.8-22.6-17.8,17.8-40.7,24.8-58.5,24.8-31.4,0-57-20.3-57-54.4s32.9-64,105.4-69.6M1000.4,244.2c8.9,0,19.2-6.3,24.8-10.7v-35.1c-29.6,3-40,14.4-40,28.9-.4,11.1,5.5,17,15.2,17"/>
              <path class="st22" d="M1133.3,99.5l65.1-11.1,1.9,51.8c10-30,31.4-49.9,62.2-55.1l10.4,68.8c-29.6-.7-55.9,8.5-72.9,30v100.6h-66.6V99.5Z"/>
              <path class="st22" d="M1376.5,34.8v58.1h44.4l-3,48.1h-41.4v72.9c0,19.6,5.9,24,17.4,24s18.5-1.9,28.1-3.7l6.7,48.1c-18.9,4.4-35.9,6.7-50.7,6.7-52.2,0-68.1-34.8-68.1-72.5v-75.5h-29.6v-41.8l29.6-6.3,11.5-50.7,55.1-7.4Z"/>
              <path class="st22" d="M1485.1,0c21.1,0,37.4,15.5,37.4,35.9s-16.3,35.9-37.4,35.9-37.4-15.5-37.4-35.9S1464,0,1485.1,0M1451.8,99.5l66.6-11.1v196.1h-66.6V99.5Z"/>
              <path class="st22" d="M1554.8,99.5l65.1-11.1,1.5,24c21.5-15.2,45.1-24,65.9-24,31.8,0,56.6,21.5,56.6,64.7v131.3h-66.6v-121c0-17.4-8.5-23.7-21.8-23.7s-22.6,4.8-34,12.6v132.1h-66.6V99.5Z"/>
              <path class="st22" d="M1845.8,88.4v125.4c0,17,8.5,23.7,21.8,23.7s22.6-4.8,34-12.9v-125.1l66.6-11.1v196.1h-63.6l-3-19.6c-21.5,14.8-45.1,24-65.9,24-31.8,0-56.6-21.5-56.6-64.7v-124.7l66.6-11.1Z"/>
              <path class="st22" d="M2007.2,230.1c20.3,8.1,48.8,15.9,68.4,15.9s21.5-5.2,21.5-15.2-9.6-12.2-20-14.4c-31.1-5.9-79.9-17-79.9-66.6s37-61.4,79.5-61.4,50.7,5.5,70.7,13l-8.1,44.8c-20.4-8.1-45.9-15.2-62.9-15.2s-19.2,4.4-19.2,13.3,8.9,12.2,19.2,14.8c29.6,5.5,80.7,17,80.7,66.2s-42.6,63.6-85.1,63.6-53.3-6.7-72.5-14.4l7.8-44.4Z"/>
              <path class="st2" d="M677.2,424.2l-69-71-12.5,11.6,60.5,66.4s8,8.7,21,8.7v-15.7Z"/>
              <path class="st22" d="M677.2,424.2l-69-71s24-7,49,18c0,0,35,31,20,53"/>
              <path class="st2" d="M677.2,424.2l69-71,12.5,11.6-60.5,66.4s-8,8.7-21,8.7v-15.7Z"/>
              <path class="st22" d="M677.2,424.2l69-71s-24-7-49,18c0,0-35,31-20,53"/>
              <path class="st25" d="M735.5,318.3s-6.4,10.9-23.4,17.9c0,0-49,17.6-35,73.3,0,0-3-42.3,38-61.3,0,0,22-8,31-21.7l-10.6-8.2Z"/>
              <path class="st22" d="M174.4,522.8c-9,33-19.5,73.5-21.8,76.9-7.9,12.8-52.9,36-73.1,36S0,580.2,0,568.9s26.6-27,34.9-27,4.9,1.5,6,3.8c8.6,16.5,33.4,55.1,42,55.1s14.3-6.8,16.5-11.6c1.9-3.8,15-51.8,22.9-81.4,9-32.6,15.4-59.3,19.5-71.3,4.5-13.1,11.3-18.4,12-19.1-1.5.4-35.3,9-58.9,22.1-3.4,1.9-4.5,5.6-4.5,9,0,8.6,7.5,33,7.5,38.3s-19.5,16.1-25.5,16.1-35.3-39-35.3-48.4,31.1-50.3,42.8-52.5c25.1-4.9,49.5-9.4,88.1-18.8,4.5-1.1,17.6-13.9,24-13.9s31.9,19.1,31.9,24.8-17.3,17.3-20.6,27.4c-3.4,9-11.6,37.9-20.6,70.5,5.3-2.6,9-5.6,11.3-8.3,26.3-32.6,57-82.5,72-99.4,3-3.8,28.1-15,33-15s24,23.6,24,27.8-15,11.6-18,14.3c-12.4,10.9-52.9,63-77.6,87-1.9,1.9-4.1,3.4-7.1,5.3,3.4,3.4,6.4,6.8,8.3,11.6,10.9,29.3,16.5,66.8,27.4,87.8,4.5,8.3,19.9,11.3,19.9,15.4s-12,17.3-24,17.3-42.8-10.5-49.1-22.5c-10.9-21-8.3-57.8-14.6-81.4-1.1-4.5-3.4-8.3-6.8-11.3l-6.8,2.2Z"/>
              <path class="st22" d="M431.3,603.4c11.3,0,31.1-22.5,49.5-56.3,0,0,3.4-6.8,8.3-6.8s12.8,6,12.8,10.5-4.9,13.1-4.9,13.1c-20.6,37.5-42.8,71.6-69.8,71.6s-54.4-15.8-54.4-32.6c0-24,21-84,21-98.3s-3.4-7.5-7.5-7.5c-7.9,0-22.5,6.4-27.4,18.4-10.1,24.8-27,100.5-29.3,111.4-1.5,4.9-7.5,8.6-14.3,8.6s-35.6-9.4-35.6-19.5,28.5-123.4,36.4-148.9c2.2-5.3,9.8-7.9,15.4-7.9,8.6,0,25.1,18.4,25.1,18.4,0,0,34.9-18.4,56.3-18.4s38.6,16.5,38.6,30.4-23.3,89.6-23.3,109.5,1.1,4.1,3,4.1"/>
              <path class="st22" d="M501.5,467.3c1.5-5.3,6.8-7.9,15-7.9s37.5,17.6,37.5,24.8-30,90.4-30,116.6,2.6,3.4,3.8,3.4c10.9,0,30.4-23.3,49.5-57,0,0,3-6.8,7.9-6.8s12.8,6,12.8,10.5-5.3,13.1-5.3,13.1c-20.3,37.5-42.8,71.6-69.8,71.6s-54.4-15.8-54.4-32.6,26.6-112.5,33-135.8M519.5,426.8c0-15,9.4-42.4,24.8-42.4s29.6,7.1,29.6,19.5-9.8,42.4-24.8,42.4-29.6-7.1-29.6-19.5"/>
              <path class="st22" d="M585.1,570.8c-5.3,0-13.1-6-13.1-10.1s3.4-9.4,5.3-13.5c11.3-25.1,27-58.5,27-58.5,11.6-24.8,18.4-29.3,26.6-29.3,13.9,0,57.8,5.2,66.8,5.2s23.6-5.2,30-5.2,16.1,17.3,16.1,26.6-58.5,61.5-93.8,102c16.9,0,43.1,9,52.5,9,15.4,0,33.8-16.1,52.1-49.9,0,0,3-6.8,7.9-6.8s13.1,6,13.1,10.5-4.9,13.1-4.9,13.1c-21,37.5-43.9,71.6-76.9,71.6s-51.8-4.9-58.9-4.9-22.9,4.9-29.3,4.9-17.3-17.3-17.3-22.5c0-9.8,62.6-73.1,89.6-105-14.3-3.8-26.3-5.3-34.5-5.3s-15.4,1.9-27,20.3c-6.4,10.1-13.9,23.6-23.6,41.6-2.3,4.1-3.4,6-7.9,6"/>
              <path class="st22" d="M889.3,603.4c11.3,0,31.1-22.5,49.5-56.3,0,0,3.4-6.8,8.3-6.8s12.8,6,12.8,10.5-4.9,13.1-4.9,13.1c-20.6,37.5-42.8,71.6-69.8,71.6s-54.4-15.8-54.4-32.6c0-24,21-84,21-98.3s-3.4-7.5-7.5-7.5c-7.9,0-22.5,6.4-27.4,18.4-10.1,24.8-27,100.5-29.3,111.4-1.5,4.9-7.5,8.6-14.3,8.6s-35.6-9.4-35.6-19.5,28.5-123.4,36.4-148.9c2.2-5.3,9.8-7.9,15.4-7.9,8.6,0,25.1,18.4,25.1,18.4,0,0,34.9-18.4,56.3-18.4s38.6,16.5,38.6,30.4-23.3,89.6-23.3,109.5,1.1,4.1,3,4.1"/>
              <path class="st22" d="M958.8,467.7c1.5-5.2,6.7-7.8,14.9-7.8s37.2,17.5,37.2,24.6-29.8,89.7-29.8,115.7,2.6,3.3,3.7,3.3c10.8,0,30.1-23.1,49.1-56.6,0,0,3-6.7,7.8-6.7s12.7,6,12.7,10.4-5.2,13-5.2,13c-20.1,37.2-42.4,71.1-69.2,71.1s-53.9-15.6-53.9-32.4,26.4-111.6,32.7-134.7M1049.9,399.3c0,4.8-3.3,7.4-6.3,9.7-23.4,15.6-63.2,39.8-67.3,39.8s-13.4-10.8-13.4-13.8,2.6-7.4,4.8-10c8.9-9.3,36.5-44.6,41.3-51,3.7-4.1,6.3-7.1,10-7.1,6.3,0,30.9,26.4,30.9,32.4"/>
              <path class="st7" d="M677.4,424.4l-69-71-12.5,11.6,60.5,66.4s8,8.7,21,8.7v-15.7Z"/>
              <path class="st22" d="M677.4,424.4l-69-71s24-7,49,18c0,0,35,31,20,53"/>
              <path class="st7" d="M677.4,424.4l69-71,12.5,11.6-60.5,66.4s-8,8.7-21,8.7v-15.7Z"/>
              <path class="st22" d="M677.4,424.4l69-71s-24-7-49,18c0,0-35,31-20,53"/>
              <path class="st23" d="M735.8,318.5s-6.4,10.9-23.4,17.9c0,0-49,17.6-35,73.3,0,0-3-42.3,38-61.3,0,0,22-8,31-21.7l-10.6-8.2Z"/>
              <path class="st22" d="M1220.9,637.2c-24.4,0-41.8-11.8-41.8-11.8,0,0-17.4,70.3-20,88.1-1.1,4.8-10,8.1-15.9,8.1-9.2,0-32.6-10.7-32.6-20.3s44-184.6,57.7-232.4c1.1-5.2,9.2-7.8,14.4-7.8,7.4,0,27,18.1,27,18.1,0,0,21.8-18.1,43.3-18.1s47.4,20.7,47.4,39.6-7,52.5-20,80.7c0,0,2.6,1.5,6.3,1.5,25.9,0,42.5-35.1,42.5-35.1,0,0,3.3-6.7,7.8-6.7s13.3,5.9,13.3,10.4-5.2,13-5.2,13c0,0-22.2,45.5-69.2,45.5s-11.1-.4-11.1-.4c-11.1,14.4-26.6,27.8-44,27.8M1209.4,603.5c1.5,0,3.7-1.5,5.2-3-6.7-3-11.1-7-11.1-11.1,0-7.8,17.4-26.3,25.2-26.3s3,.4,4.4.4c8.1-22.6,12.6-44.4,12.6-58.5s-4.4-8.1-6.7-8.1c-9.2,0-25.5,10.7-31.1,27-7.4,20.7-16.6,51.4-16.6,63.6s12.9,15.9,18.1,15.9"/>
              <path class="st22" d="M1423.6,610.5s-33.3,24.4-48.8,24.4c-22.9,0-51.4-22.9-51.4-38.5s24.8-105.1,32.2-128.4c2.2-5.2,6.7-7,10-7,10.7,0,39.6,17,39.6,23.7s-.7,6.7-1.5,8.9c-2.6,9.6-25.2,84.4-25.2,101.4s1.5,3.7,3,3.7c14.8,0,38.1-25.5,41.4-37.4,9.2-30,21.5-77.7,26.3-93.2,1.5-5.2,4.8-7,9.6-7,11.8,0,39.6,17,39.6,23.7s-.7,6.7-1.5,8.9c-3.3,9.6-26.6,85.8-26.6,105.4s1.5,4.1,3,4.1c11.8,0,30.7-22.2,48.8-55.5,0,0,3.3-6.7,8.1-6.7s12.6,5.9,12.6,10.4-4.8,12.9-4.8,12.9c-20.7,37-42.2,70.7-68.8,70.7s-42.9-13.7-45.5-24.4"/>
              <path class="st22" d="M1606.5,461.8h27.4c2.2,0,4.4,1.1,4.4,3.3,0,6.7-8.1,25.5-14.1,25.5h-25.5c-12.2,41.8-25.2,89.5-25.2,98s10.7,14.4,13.3,14.4c12.2,0,31.1-22.2,49.2-55.5,0,0,3.3-6.7,8.1-6.7s12.6,5.9,12.6,10.4-4.8,12.9-4.8,12.9c-20.3,37-42.2,70.7-69.2,70.7s-63.3-19.2-63.3-37.7,12.2-58.5,24.8-106.6h-12.6c-1.8,0-4.1-1.5-4.1-3.7,0-4.4,8.5-25.2,15.2-25.2h9.2c7-25.9,12.2-44.4,14.8-52.5,1.5-5.2,4.8-8.1,9.6-8.1,12.9,0,39.6,18.1,39.6,24.8s-1.1,8.1-1.5,8.9l-8.1,27Z"/>
              <path class="st22" d="M1948.2,615.3c-10.7,0-30-1.8-45.5-5.6-18.1,16.7-36.6,25.2-52.2,25.2s-38.1-14.8-38.1-32.9,25.9-109.1,34-133.2c2.2-5.2,8.1-7.8,13.7-7.8,10.7,0,36.3,17.8,36.3,24.8,0,11.8-27.7,85.8-27.7,108.8s3,4.8,4.8,4.8,4.8-3.3,4.8-3.3c-1.1-1.1-1.8-2.6-1.8-4.8,0-7.8,14.1-26.6,23.3-26.6,14.8-22.9,29.6-54,37.4-95.5,1.1-5.6,5.9-8.1,12.6-8.1,11.1,0,31.8,19.6,31.8,30,0,19.2-19.6,54.8-47.7,89.2,5.9,4.1,9.6,4.8,13.3,4.8,24.4,0,44.4-37.4,44.4-37.4,0,0,3.7-6.7,8.1-6.7s13,5.9,13,10.4-5.2,12.9-5.2,12.9c0,0-26.3,51.1-59.2,51.1"/>
              <path class="st22" d="M2192,541c4.8,0,12.6,5.9,12.6,10.4s-4.8,12.9-4.8,12.9c-20.3,37-42.2,70.7-68.8,70.7s-45.1-11.5-50.3-21.8c0,0-21.1,21.8-41.1,21.8s-51.4-23.3-51.4-43.3c0-48.5,42.2-130.6,81.4-130.6s48.8,20.3,48.8,20.3c13.3,0,35.5,4.4,35.5,13.7s-25.2,72.9-25.2,102.5,3,6.3,5.9,6.3c12.9,0,31.1-22.9,49.2-56.2,0,0,3.3-6.7,8.1-6.7M2083.3,497.7c-13,0-42.6,61.4-42.6,94s4.1,8.1,7.4,8.1,18.5-6.3,28.9-27.8c7.4-15.5,19.6-54.8,19.6-65.1s-7.4-9.2-13.3-9.2M2167.6,407c0,4.8-3.3,7.4-6.3,9.6-23.3,15.5-62.9,39.6-67,39.6s-13.3-10.7-13.3-13.7,2.6-7.4,4.8-10c8.9-9.2,36.3-44.4,41.1-50.7,3.7-4.1,6.3-7,10-7,6.3,0,30.7,26.3,30.7,32.2"/>
              <path class="st22" d="M2325.2,603.1c11.1,0,30.7-22.2,48.8-55.5,0,0,3.3-6.7,8.1-6.7s12.6,5.9,12.6,10.4-4.8,12.9-4.8,12.9c-20.4,37-42.2,70.7-68.8,70.7s-53.6-15.5-53.6-32.2c0-23.7,20.7-82.9,20.7-96.9s-3.3-7.4-7.4-7.4c-7.8,0-22.2,6.3-27,18.1-10,24.4-26.6,99.2-28.9,109.9-1.5,4.8-7.4,8.5-14.1,8.5s-35.2-9.2-35.2-19.2,28.1-121.7,35.9-146.9c2.2-5.2,9.6-7.8,15.2-7.8,8.5,0,24.8,18.1,24.8,18.1,0,0,34.4-18.1,55.5-18.1s38.1,16.3,38.1,30-22.9,88.4-22.9,108,1.1,4.1,3,4.1"/>
              <path class="st22" d="M2401.7,468.8c1.5-5.2,6.7-7.8,14.8-7.8s37,17.4,37,24.4-29.6,89.2-29.6,115.1,2.6,3.3,3.7,3.3c10.7,0,30-22.9,48.8-56.2,0,0,3-6.7,7.8-6.7s12.6,5.9,12.6,10.4-5.2,12.9-5.2,12.9c-20,37-42.2,70.7-68.8,70.7s-53.6-15.5-53.6-32.2,26.3-111,32.6-133.9M2492.4,400.7c0,4.8-3.3,7.4-6.3,9.6-23.3,15.5-62.9,39.6-67,39.6s-13.3-10.7-13.3-13.7,2.6-7.4,4.8-10c8.9-9.2,36.3-44.4,41.1-50.7,3.7-4.1,6.3-7,10-7,6.3,0,30.7,26.3,30.7,32.2"/>
              <path class="st22" d="M1726.2,508.2l-5.2-6.5c.2,1,.4,2.1.6,2.9l.8,4.3-1.9.3-1.7-9.5,2.5-.4,5.3,6.6c-.2-1-.5-2.2-.6-3l-.8-4.4,1.9-.3,1.7,9.5-2.6.5Z"/>
              <path class="st22" d="M1742.9,591l-1.9.3c-.3-.9-.9-1.5-1.9-1.3-.8.1-1.3.6-1.1,1.4.1.8.7,1.1,2.3,1.2,2.2.1,3.3.9,3.6,2.4.3,1.8-1.1,3.1-3,3.4-2.3.4-3.9-.3-4.5-2.3l1.9-.3c.4,1,1.3,1.4,2.2,1.2.9-.2,1.5-.7,1.3-1.5-.1-.8-.7-1.2-2.2-1.3-2-.1-3.4-.6-3.7-2.3-.3-1.7,1.1-3.1,2.9-3.4,2.3-.4,3.5.7,4,2.4"/>
              <polygon class="st22" points="1690.9 551.5 1691.3 554 1683.7 557 1691.9 557.4 1692.4 559.9 1683.3 563.9 1682.9 561.9 1690.7 558.9 1682.5 558.6 1682 555.9 1689.6 552.9 1681.3 552.6 1680.9 550.7 1690.9 551.5"/>
              <polygon class="st22" points="1772.4 544.9 1771.2 538 1780.7 536.3 1781.9 543.1 1780.4 543.3 1779.6 538.5 1777.1 538.9 1777.8 543.4 1776.3 543.7 1775.6 539.2 1773 539.7 1773.9 544.6 1772.4 544.9"/>
              <path class="st22" d="M1737.2,579.6c-17,3-33.3-8.4-36.3-25.4-3-17,8.4-33.3,25.4-36.3,17-3,33.3,8.4,36.3,25.4,3,17-8.4,33.3-25.4,36.3M1726.5,518.9c-16.4,2.9-27.4,18.6-24.5,35,2.9,16.4,18.6,27.4,35,24.5,16.4-2.9,27.4-18.6,24.5-35-2.9-16.4-18.6-27.4-35-24.5"/>
              <polygon class="st22" points="1692.1 555.7 1701.1 552 1701.8 556.2 1692.1 555.7"/>
              <polygon class="st22" points="1738.7 588.3 1735 579.4 1739.2 578.7 1738.7 588.3"/>
              <polygon class="st22" points="1771.4 541.7 1762.4 545.5 1761.7 541.2 1771.4 541.7"/>
              <polygon class="st22" points="1724.7 509.1 1728.5 518 1724.3 518.8 1724.7 509.1"/>
              <path class="st22" d="M1714.5,534.8c-.7-.5-1.7-.3-2.2.4-.5.7-.3,1.7.4,2.2.7.5,1.7.3,2.2-.4.5-.7.3-1.7-.4-2.2"/>
              <path class="st22" d="M1717.8,566c-.5.7-.3,1.7.4,2.2.7.5,1.7.3,2.2-.4.5-.7.3-1.7-.4-2.2-.7-.5-1.7-.3-2.2.4"/>
              <path class="st22" d="M1749,562.7c.7.5,1.7.3,2.2-.4.5-.7.3-1.7-.4-2.2-.7-.5-1.7-.3-2.2.4-.5.7-.3,1.7.4,2.2"/>
              <path class="st22" d="M1745.7,531.5c.5-.7.3-1.7-.4-2.2-.7-.5-1.7-.3-2.2.4-.5.7-.3,1.7.4,2.2.7.5,1.7.3,2.2-.4"/>
              <rect class="st22" x="1720.3" y="515" width="1.3" height="4.7" transform="translate(-74.6 589.5) rotate(-19)"/>
              <rect class="st22" x="1715.5" y="517.1" width="1.3" height="4.7" transform="translate(-42.9 867.2) rotate(-28)"/>
              <rect class="st22" x="1711.1" y="519.9" width="1.3" height="4.7" transform="translate(30.8 1136.3) rotate(-37)"/>
              <rect class="st22" x="1707.2" y="523.4" width="1.3" height="4.7" transform="translate(143.8 1389.9) rotate(-46)"/>
              <rect class="st22" x="1703.9" y="527.4" width="1.3" height="4.7" transform="translate(293.4 1622.7) rotate(-55)"/>
              <rect class="st22" x="1701.3" y="531.9" width="1.3" height="4.7" transform="translate(476.4 1830.4) rotate(-64)"/>
              <rect class="st22" x="1699.4" y="536.7" width="1.3" height="4.7" transform="translate(688.1 2007.6) rotate(-73)"/>
              <rect class="st22" x="1698.3" y="541.8" width="1.3" height="4.7" transform="translate(924.2 2151.1) rotate(-82)"/>
              <rect class="st22" x="1696.2" y="548.7" width="4.7" height="1.3" transform="translate(-9.6 30.6) rotate(-1)"/>
              <rect class="st22" x="1698" y="558.9" width="4.7" height="1.3" transform="translate(-89.5 585.6) rotate(-19)"/>
              <polygon class="st22" points="1734.5 548.2 1726.7 520.7 1728.9 549.2 1736.6 576.8 1734.5 548.2"/>
              <polygon class="st22" points="1732.2 551.5 1759.7 543.8 1731.2 545.9 1703.6 553.7 1732.2 551.5"/>
              <polygon class="st22" points="1733.3 549.9 1742.9 532.7 1730.1 547.6 1720.5 564.7 1733.3 549.9"/>
              <polygon class="st22" points="1730.6 550.3 1747.7 559.9 1732.8 547.1 1715.7 537.5 1730.6 550.3"/>
              <rect class="st22" x="1700.1" y="563.7" width="4.7" height="1.3" transform="translate(-65.5 866.2) rotate(-28)"/>
              <path class="st22" d="M1734.1,562.3c-7.5,1.3-14.6-3.7-15.9-11.1-1.3-7.5,3.7-14.6,11.1-15.9,7.5-1.3,14.6,3.7,15.9,11.1,1.3,7.5-3.7,14.6-11.1,15.9M1729.4,535.6c-7.2,1.3-12,8.2-10.8,15.4,1.3,7.2,8.2,12,15.4,10.8,7.2-1.3,12-8.2,10.8-15.4-1.3-7.2-8.2-12-15.4-10.8"/>
              <rect class="st22" x="1702.9" y="568" width="4.7" height="1.3" transform="translate(1.5 1141.9) rotate(-37)"/>
              <rect class="st22" x="1706.4" y="571.9" width="4.7" height="1.3" transform="translate(110.3 1404.9) rotate(-46)"/>
              <rect class="st22" x="1710.4" y="575.2" width="4.7" height="1.3" transform="translate(259 1649.2) rotate(-55)"/>
              <rect class="st22" x="1714.9" y="577.9" width="4.7" height="1.3" transform="translate(444.7 1868.6) rotate(-64)"/>
              <rect class="st22" x="1719.7" y="579.8" width="4.7" height="1.3" transform="translate(664.4 2058.2) rotate(-73)"/>
              <rect class="st22" x="1724.8" y="580.9" width="4.7" height="1.3" transform="translate(911.3 2211.1) rotate(-82)"/>
              <rect class="st22" x="1731.7" y="579.5" width="1.3" height="4.7" transform="translate(-10.1 30.8) rotate(-1)"/>
              <rect class="st22" x="1741.9" y="577.7" width="1.3" height="4.7" transform="translate(-93.9 600) rotate(-19)"/>
              <rect class="st22" x="1746.7" y="575.6" width="1.3" height="4.7" transform="translate(-66.7 888.5) rotate(-28)"/>
              <rect class="st22" x="1751.1" y="572.8" width="1.3" height="4.7" transform="translate(6.9 1170.8) rotate(-37)"/>
              <rect class="st22" x="1754.9" y="569.4" width="1.3" height="4.7" transform="translate(125.2 1438.3) rotate(-46)"/>
              <rect class="st22" x="1758.3" y="565.4" width="1.3" height="4.7" transform="translate(285.6 1683.7) rotate(-55)"/>
              <rect class="st22" x="1760.9" y="560.9" width="1.3" height="4.7" transform="translate(483.6 1900.1) rotate(-64)"/>
              <rect class="st22" x="1762.8" y="556" width="1.3" height="4.7" transform="translate(714.4 2081.9) rotate(-73)"/>
              <rect class="st22" x="1763.9" y="551" width="1.3" height="4.7" transform="translate(971.6 2224) rotate(-82)"/>
              <rect class="st22" x="1762.5" y="547.5" width="4.7" height="1.3" transform="translate(-9.6 31.8) rotate(-1)"/>
              <rect class="st22" x="1760.7" y="537.3" width="4.7" height="1.3" transform="translate(-79.1 603.6) rotate(-19)"/>
              <rect class="st22" x="1758.6" y="532.5" width="4.7" height="1.3" transform="translate(-44 890) rotate(-28)"/>
              <rect class="st22" x="1755.8" y="528.1" width="4.7" height="1.3" transform="translate(35.9 1164.7) rotate(-37)"/>
              <rect class="st22" x="1752.4" y="524.2" width="4.7" height="1.3" transform="translate(158.7 1423.4) rotate(-46)"/>
              <rect class="st22" x="1748.4" y="520.9" width="4.7" height="1.3" transform="translate(319.8 1657.1) rotate(-55)"/>
              <rect class="st22" x="1743.9" y="518.3" width="4.7" height="1.3" transform="translate(514.6 1861.2) rotate(-64)"/>
              <rect class="st22" x="1739.1" y="516.4" width="4.7" height="1.3" transform="translate(739.1 2032) rotate(-73)"/>
              <rect class="st22" x="1734" y="515.3" width="4.7" height="1.3" transform="translate(984.2 2163.7) rotate(-82)"/>
              <rect class="st22" x="1730.5" y="513.2" width="1.3" height="4.7" transform="translate(-8.9 30.8) rotate(-1)"/>
              <path class="st24" d="M1730.3,540.8c-.1,0-.2,0-.3,0l-30.9-15,24.6,23.9c0,.1,0,.2,0,.3.8,4.4,5,7.3,9.3,6.5.1,0,.2,0,.3,0l30.9,15-24.6-23.9c0-.1,0-.2,0-.3-.8-4.4-5-7.3-9.3-6.5"/>
              <path class="st25" d="M1730,540.9l-30.9-15,24.6,23.9c0,.1,0,.2,0,.3.4,2.2,1.6,4,3.3,5.2l9.2-13.2c-1.7-1.2-3.8-1.7-6-1.3-.1,0-.2,0-.3,0"/>
              <g class="st5">
                <g class="st28">
                  <path class="st3" d="M1731.7,548.7l-4.6,6.6c-.6-.4-1.2-1-1.7-1.6,1.8,2.2,4.7,3.5,7.7,2.9.1,0,.2,0,.3,0l30.9,15-32.6-22.8Z"/>
                </g>
              </g>
              <g class="st11">
                <g class="st13">
                  <path class="st22" d="M1731.7,548.7l4.6-6.6c-.3-.2-.5-.3-.8-.5-.6-.3-1.3-.6-2-.8-1-.2-2.1-.3-3.2,0-.1,0-.2,0-.3,0l-30.9-15h0l32.6,22.8Z"/>
                </g>
              </g>
              <path class="st26" d="M1726.6,549.6c.5,2.9,3.2,4.8,6.1,4.3,2.9-.5,4.8-3.2,4.3-6.1-.5-2.9-3.2-4.8-6.1-4.3-2.9.5-4.8,3.2-4.3,6.1"/>
              <path class="st22" d="M1731.3,544c1.6-.3,3.1.2,4.3,1.1-1.2-1.3-2.9-2-4.8-1.6-2.9.5-4.8,3.2-4.3,6.1.2,1.3.9,2.3,1.8,3.1-.7-.7-1.1-1.6-1.3-2.6-.5-2.9,1.4-5.6,4.3-6.1"/>
              <g class="st5">
                <g class="st16">
                  <path class="st3" d="M1734.2,544.1c.8.8,1.5,1.8,1.7,3,.5,2.9-1.4,5.6-4.3,6.1-1.2.2-2.4,0-3.4-.5,1.2,1,2.8,1.6,4.4,1.3,2.9-.5,4.8-3.2,4.3-6.1-.3-1.7-1.3-3-2.7-3.7"/>
                </g>
              </g>
              <path class="st22" d="M1710.3,425.8c-10.3,1.8-17.2,11.7-15.3,21.9,1.2,6.7,5.8,12,11.7,14.3,1.8.7,3.7,1.2,5.7,1.3,1.5,0,3,0,4.5-.3,1.5-.3,2.9-.7,4.3-1.3,1.8-.8,3.5-1.9,5-3.2,4.8-4.2,7.3-10.8,6.1-17.5-1.8-10.3-11.7-17.2-21.9-15.3M1725.2,453.7c-2.2,2.8-5.3,4.8-9.1,5.4-3.7.7-7.4-.1-10.4-2-3.5-2.1-6.1-5.7-6.9-10.1-1.4-8.1,4-15.8,12.1-17.2,8.1-1.4,15.8,4,17.2,12.1.8,4.4-.4,8.6-3,11.8"/>
              <g class="st11">
                <g class="st14">
                  <path class="st22" d="M1725.2,453.7c-2.2,2.8-5.3,4.8-9.1,5.4-3.6.6-7.2-.1-10.2-1.9.5.4,1.1.8,1.6,1.2,3,1.8,6.6,2.6,10.4,2,3.7-.7,6.9-2.7,9.1-5.4,2.6-3.2,3.8-7.5,3-11.8-.8-4.4-3.5-8.1-7.1-10.2,2.7,2.2,4.6,5.3,5.2,8.9.8,4.4-.4,8.6-3,11.8"/>
                </g>
              </g>
              <g class="st11">
                <g class="st15">
                  <path class="st22" d="M1712.1,427.1c4.7-.8,9.4.2,13.2,2.5-4.1-3.2-9.5-4.8-15-3.8-10.3,1.8-17.2,11.7-15.3,21.9,1,5.5,4.3,10.1,8.8,12.8-3.5-2.8-6.1-6.8-6.9-11.5-1.8-10.3,5.1-20.1,15.3-21.9"/>
                </g>
              </g>
              <g class="st5">
                <g class="st21">
                  <path class="st22" d="M1728.7,433.2c1.3,2,2.2,4.4,2.7,6.9,1.2,6.7-1.3,13.3-6.1,17.5-1.5,1.3-3.1,2.4-5,3.2-1.3.6-2.8,1-4.3,1.3-1.5.3-3,.3-4.5.3-2-.1-3.9-.6-5.7-1.3-3.3-1.3-6.2-3.5-8.3-6.3,2.2,3.4,5.4,6,9.1,7.5,1.8.7,3.7,1.2,5.7,1.3,1.5,0,3,0,4.5-.3,1.5-.3,2.9-.7,4.3-1.3,1.8-.8,3.5-1.9,5-3.2,4.8-4.2,7.3-10.8,6.1-17.5-.5-3-1.8-5.7-3.5-8"/>
                </g>
              </g>
              <path class="st22" d="M1725,452.6l2.2,12.4-19.4,3.4-2.2-12.4h0c5.1-5.1,12.9-6.5,19.4-3.4h0Z"/>
              <g class="st6">
                <g class="st18">
                  <path class="st22" d="M1725,452.6h0c-1.9-.9-4-1.4-6-1.6l2.6,15,5.6-1-2.2-12.4Z"/>
                </g>
              </g>
              <g class="st9">
                <g class="st17">
                  <rect class="st22" x="1711.4" y="453" width="1.6" height="11.3" transform="translate(-53.7 304.6) rotate(-10)"/>
                </g>
              </g>
              <path class="st22" d="M1671.5,506.5c11.9-17.1,29.8-28.5,50.3-32.1,19.8-3.5,39.8.7,56.6,11.7-.6-.4-1.1-.8-1.7-1.2-17.1-11.9-37.8-16.5-58.3-12.9-20.5,3.6-38.4,15-50.3,32.1-11.9,17.1-16.5,37.8-12.9,58.3,3.6,20.5,15,38.4,32.1,50.3.6.4,1.1.8,1.7,1.2-16.1-11.9-26.9-29.3-30.4-49.1-3.6-20.5.9-41.2,12.9-58.3"/>
              <path class="st22" d="M1718.7,473.5c-41.6,7.3-69.4,47.1-62.1,88.7,7.3,41.6,47.1,69.4,88.7,62.1,41.6-7.3,69.4-47.1,62.1-88.7-7.3-41.6-47.1-69.4-88.7-62.1M1744.3,618.5c-38.4,6.8-75.2-18.9-82-57.4-6.8-38.4,18.9-75.2,57.4-82,38.4-6.8,75.2,18.9,82,57.4,6.8,38.4-18.9,75.2-57.4,82"/>
              <path class="st22" d="M1781.4,478.2c-9.9-6.9-20.8-11.6-32.3-13.9-7.3-1.5-14.8-2-22.3-1.5-3.3.2-6.5.6-9.8,1.2-3.3.6-6.5,1.3-9.6,2.3-18.6,5.5-34.7,17.1-46,33.2-13.4,19.2-17.9,42-14.4,63.4v.2c3.7,22,15.9,42.6,35.6,56.4,18.9,13.2,41.7,18.3,64.4,14.2,22.7-4,42.4-16.6,55.6-35.5,27.2-38.9,17.7-92.8-21.2-120M1656.6,562.2c-7.3-41.6,20.5-81.4,62.1-88.7,41.6-7.3,81.4,20.5,88.7,62.1,7.3,41.6-20.5,81.4-62.1,88.7-41.6,7.3-81.4-20.5-88.7-62.1"/>
              <g class="st10">
                <g class="st20">
                  <path class="st22" d="M1780.1,480.1c-18.3-12.8-40.6-17.8-62.6-13.9-22.1,3.9-41.3,16.1-54.1,34.5-12.8,18.3-17.8,40.6-13.9,62.6,3.9,22.1,16.1,41.3,34.5,54.1,18.3,12.8,40.6,17.8,62.6,13.9,22-3.9,41.3-16.2,54.1-34.5,26.5-37.9,17.2-90.2-20.6-116.7M1746.3,629.8c-44.7,7.9-87.4-22-95.3-66.7-7.9-44.7,22-87.4,66.7-95.3,44.7-7.9,87.4,22,95.3,66.7,7.9,44.7-22,87.4-66.7,95.3"/>
                </g>
              </g>
              <g class="st8">
                <g class="st19">
                  <path class="st22" d="M1661.4,499.4c-13.4,19.2-17.9,42-14.4,63.4v.2c4.1,21.3,16.1,41.2,35.3,54.6.6.4,1.2.8,1.7,1.2-37.5-27.6-46.4-80.5-19.6-118.8,10.7-15.3,25.5-28,42.9-33.8-18.6,5.5-34.7,17.1-46,33.2"/>
                </g>
              </g>
              <circle class="st1" cx="1732" cy="548.9" r="70.9" transform="translate(1177.2 2279) rotate(-89.8)"/>
            </g>
          </g>
        </g>
      </g>
    </g>
  </g>
</svg>