<?xml version="1.0" encoding="UTF-8"?>
<svg xmlns="http://www.w3.org/2000/svg" version="1.1" viewBox="0 0 2574.8 720.2">
  <!-- Generator: Adobe Illustrator 29.1.0, SVG Export Plug-In . SVG Version: 2.1.0 Build 142)  -->
  <defs>
    <style>
      .st0 {
        fill: #d22121;
      }

      .st1, .st2, .st3 {
        mix-blend-mode: multiply;
      }

      .st1, .st3 {
        opacity: .1;
      }

      .st4 {
        fill: #009cd0;
      }

      .st5 {
        isolation: isolate;
      }

      .st6 {
        fill: #ebcdba;
      }

      .st7, .st8, .st9, .st10, .st11, .st2, .st3 {
        fill: #fff;
      }

      .st7, .st9, .st10, .st11 {
        mix-blend-mode: soft-light;
      }

      .st12 {
        fill: #d7e6d6;
      }

      .st9 {
        opacity: .6;
      }

      .st10 {
        opacity: .5;
      }

      .st11 {
        opacity: .7;
      }

      .st13 {
        fill: none;
        stroke: #ebcdba;
        stroke-miterlimit: 10;
        stroke-width: 35px;
      }

      .st2 {
        opacity: 0;
      }
    </style>
  </defs>
  <g class="st5">
    <g id="Layer_1">
      <g>
        <g id="knizne">
          <path class="st8" d="M174.4,522.6c-9,33-19.5,73.5-21.8,76.9-7.9,12.8-52.9,36-73.1,36S0,580,0,568.7s26.6-27,34.9-27,4.9,1.5,6,3.8c8.6,16.5,33.4,55.1,42,55.1s14.3-6.8,16.5-11.6c1.9-3.8,15-51.8,22.9-81.4,9-32.6,15.4-59.3,19.5-71.3,4.5-13.1,11.3-18.4,12-19.1-1.5.4-35.3,9-58.9,22.1-3.4,1.9-4.5,5.6-4.5,9,0,8.6,7.5,33,7.5,38.3s-19.5,16.1-25.5,16.1-35.3-39-35.3-48.4,31.1-50.3,42.8-52.5c25.1-4.9,49.5-9.4,88.1-18.8,4.5-1.1,17.6-13.9,24-13.9s31.9,19.1,31.9,24.8-17.3,17.3-20.6,27.4c-3.4,9-11.6,37.9-20.6,70.5,5.3-2.6,9-5.6,11.3-8.3,26.3-32.6,57-82.5,72-99.4,3-3.8,28.1-15,33-15s24,23.6,24,27.8-15,11.6-18,14.3c-12.4,10.9-52.9,63-77.6,87-1.9,1.9-4.1,3.4-7.1,5.3,3.4,3.4,6.4,6.8,8.3,11.6,10.9,29.3,16.5,66.8,27.4,87.8,4.5,8.3,19.9,11.3,19.9,15.4s-12,17.3-24,17.3-42.8-10.5-49.1-22.5c-10.9-21-8.3-57.8-14.6-81.4-1.1-4.5-3.4-8.3-6.8-11.3l-6.8,2.3Z"/>
          <path class="st8" d="M431.3,603.2c11.3,0,31.1-22.5,49.5-56.3,0,0,3.4-6.8,8.3-6.8s12.8,6,12.8,10.5-4.9,13.1-4.9,13.1c-20.6,37.5-42.8,71.6-69.8,71.6s-54.4-15.8-54.4-32.6c0-24,21-84,21-98.3s-3.4-7.5-7.5-7.5c-7.9,0-22.5,6.4-27.4,18.4-10.1,24.8-27,100.5-29.3,111.4-1.5,4.9-7.5,8.6-14.3,8.6s-35.6-9.4-35.6-19.5,28.5-123.4,36.4-148.9c2.3-5.3,9.8-7.9,15.4-7.9,8.6,0,25.1,18.4,25.1,18.4,0,0,34.9-18.4,56.3-18.4s38.6,16.5,38.6,30.4-23.3,89.6-23.3,109.5,1.1,4.1,3,4.1Z"/>
          <path class="st8" d="M501.5,467.1c1.5-5.3,6.8-7.9,15-7.9s37.5,17.6,37.5,24.8-30,90.4-30,116.6,2.6,3.4,3.8,3.4c10.9,0,30.4-23.3,49.5-57,0,0,3-6.8,7.9-6.8s12.8,6,12.8,10.5-5.3,13.1-5.3,13.1c-20.3,37.5-42.8,71.6-69.8,71.6s-54.4-15.8-54.4-32.6,26.6-112.5,33-135.8ZM519.5,426.6c0-15,9.4-42.4,24.8-42.4s29.6,7.1,29.6,19.5-9.8,42.4-24.8,42.4-29.6-7.1-29.6-19.5Z"/>
          <path class="st8" d="M585.1,570.6c-5.3,0-13.1-6-13.1-10.1s3.4-9.4,5.3-13.5c11.3-25.1,27-58.5,27-58.5,11.6-24.8,18.4-29.3,26.6-29.3,13.9,0,57.8,5.3,66.8,5.3s23.6-5.3,30-5.3,16.1,17.3,16.1,26.6-58.5,61.5-93.8,102c16.9,0,43.1,9,52.5,9,15.4,0,33.8-16.1,52.1-49.9,0,0,3-6.8,7.9-6.8s13.1,6,13.1,10.5-4.9,13.1-4.9,13.1c-21,37.5-43.9,71.6-76.9,71.6s-51.8-4.9-58.9-4.9-22.9,4.9-29.3,4.9-17.3-17.3-17.3-22.5c0-9.8,62.6-73.1,89.6-105-14.3-3.8-26.3-5.3-34.5-5.3s-15.4,1.9-27,20.3c-6.4,10.1-13.9,23.6-23.6,41.6-2.3,4.1-3.4,6-7.9,6Z"/>
          <path class="st8" d="M889.3,603.2c11.3,0,31.1-22.5,49.5-56.3,0,0,3.4-6.8,8.3-6.8s12.8,6,12.8,10.5-4.9,13.1-4.9,13.1c-20.6,37.5-42.8,71.6-69.8,71.6s-54.4-15.8-54.4-32.6c0-24,21-84,21-98.3s-3.4-7.5-7.5-7.5c-7.9,0-22.5,6.4-27.4,18.4-10.1,24.8-27,100.5-29.3,111.4-1.5,4.9-7.5,8.6-14.3,8.6s-35.6-9.4-35.6-19.5,28.5-123.4,36.4-148.9c2.2-5.3,9.8-7.9,15.4-7.9,8.6,0,25.1,18.4,25.1,18.4,0,0,34.9-18.4,56.3-18.4s38.6,16.5,38.6,30.4-23.3,89.6-23.3,109.5,1.1,4.1,3,4.1Z"/>
          <path class="st8" d="M1049.4,575.1s6.8-9.4,11.3-9.4,15.8,8.6,15.8,13.1-8.3,15.4-8.3,15.4c-15,19.9-40.1,41.3-72,41.3s-66.4-22.5-66.4-51.8c0-42.4,39.4-124.5,79.1-124.5s58.1,22.1,58.1,38.3-26.3,78.4-51.4,78.4-28.1-3.4-28.1-3.4c0,0-1.5,3.4-1.5,9.8,0,10.5,9.8,19.9,17.3,19.9,17.6,0,32.6-8.6,46.1-27ZM1028.1,498.6c0-1.1-3-4.1-5.6-4.1-12,0-30.8,37.1-34.1,52.9,25.9-4.1,39.8-39,39.8-48.8ZM1121.8,405.9c0,4.9-3.4,7.5-6.4,9.8-23.6,15.8-63.8,40.1-67.9,40.1s-13.5-10.9-13.5-13.9,2.6-7.5,4.9-10.1c9-9.4,36.8-45,41.6-51.4,3.8-4.1,6.4-7.1,10.1-7.1,6.4,0,31.1,26.6,31.1,32.6Z"/>
        </g>
        <g id="kniha">
          <path class="st6" d="M677.4,424.2l-69-71-12.5,11.6,60.5,66.4s8,8.7,21,8.7v-15.7Z"/>
          <path class="st8" d="M677.4,424.2l-69-71s24-7,49,18c0,0,35,31,20,53Z"/>
          <path class="st6" d="M677.4,424.2l69-71,12.5,11.6-60.5,66.4s-8,8.7-21,8.7v-15.7Z"/>
          <path class="st8" d="M677.4,424.2l69-71s-24-7-49,18c0,0-35,31-20,53Z"/>
          <path class="st0" d="M735.8,318.3s-6.4,10.9-23.4,17.9c0,0-49,17.6-35,73.3,0,0-3-42.3,38-61.3,0,0,22-8,31-21.7l-10.6-8.2Z"/>
        </g>
        <path class="st8" d="M1233,635.8c-24.4,0-41.8-11.8-41.8-11.8,0,0-17.4,70.3-20,88.1-1.1,4.8-10,8.1-15.9,8.1-9.2,0-32.6-10.7-32.6-20.4s44-184.6,57.7-232.4c1.1-5.2,9.2-7.8,14.4-7.8,7.4,0,27,18.1,27,18.1,0,0,21.8-18.1,43.3-18.1s47.4,20.7,47.4,39.6-7,52.5-20,80.7c0,0,2.6,1.5,6.3,1.5,25.9,0,42.5-35.1,42.5-35.1,0,0,3.3-6.7,7.8-6.7s13.3,5.9,13.3,10.4-5.2,13-5.2,13c0,0-22.2,45.5-69.2,45.5s-11.1-.4-11.1-.4c-11.1,14.4-26.6,27.8-44,27.8ZM1221.5,602.2c1.5,0,3.7-1.5,5.2-3-6.7-3-11.1-7-11.1-11.1,0-7.8,17.4-26.3,25.2-26.3s3,.4,4.4.4c8.1-22.6,12.6-44.4,12.6-58.5s-4.4-8.1-6.7-8.1c-9.2,0-25.5,10.7-31.1,27-7.4,20.7-16.6,51.4-16.6,63.6s12.9,15.9,18.1,15.9Z"/>
        <path class="st8" d="M1429.5,609.2s-33.3,24.4-48.8,24.4c-22.9,0-51.4-22.9-51.4-38.5s24.8-105.1,32.2-128.4c2.2-5.2,6.7-7,10-7,10.7,0,39.6,17,39.6,23.7s-.7,6.7-1.5,8.9c-2.6,9.6-25.2,84.4-25.2,101.4s1.5,3.7,3,3.7c14.8,0,38.1-25.5,41.4-37.4,9.2-30,21.5-77.7,26.3-93.2,1.5-5.2,4.8-7,9.6-7,11.8,0,39.6,17,39.6,23.7s-.7,6.7-1.5,8.9c-3.3,9.6-26.6,85.8-26.6,105.4s1.5,4.1,3,4.1c11.8,0,30.7-22.2,48.8-55.5,0,0,3.3-6.7,8.1-6.7s12.6,5.9,12.6,10.4-4.8,13-4.8,13c-20.7,37-42.2,70.7-68.8,70.7s-42.9-13.7-45.5-24.4Z"/>
        <path class="st8" d="M1602.3,460.4h27.4c2.2,0,4.4,1.1,4.4,3.3,0,6.7-8.1,25.5-14.1,25.5h-25.5c-12.2,41.8-25.2,89.5-25.2,98s10.7,14.4,13.3,14.4c12.2,0,31.1-22.2,49.2-55.5,0,0,3.3-6.7,8.1-6.7s12.6,5.9,12.6,10.4-4.8,13-4.8,13c-20.3,37-42.2,70.7-69.2,70.7s-63.3-19.2-63.3-37.7,12.2-58.5,24.8-106.6h-12.6c-1.9,0-4.1-1.5-4.1-3.7,0-4.4,8.5-25.2,15.2-25.2h9.2c7-25.9,12.2-44.4,14.8-52.5,1.5-5.2,4.8-8.1,9.6-8.1,12.9,0,39.6,18.1,39.6,24.8s-1.1,8.1-1.5,8.9l-8.1,27Z"/>
        <path class="st8" d="M1930.5,614c-10.7,0-30-1.8-45.5-5.5-18.1,16.7-36.6,25.2-52.2,25.2s-38.1-14.8-38.1-32.9,25.9-109.1,34-133.2c2.2-5.2,8.1-7.8,13.7-7.8,10.7,0,36.3,17.8,36.3,24.8,0,11.8-27.7,85.8-27.7,108.8s3,4.8,4.8,4.8,4.8-3.3,4.8-3.3c-1.1-1.1-1.8-2.6-1.8-4.8,0-7.8,14.1-26.6,23.3-26.6,14.8-22.9,29.6-54,37.4-95.5,1.1-5.5,5.9-8.1,12.6-8.1,11.1,0,31.8,19.6,31.8,30,0,19.2-19.6,54.8-47.7,89.2,5.9,4.1,9.6,4.8,13.3,4.8,24.4,0,44.4-37.4,44.4-37.4,0,0,3.7-6.7,8.1-6.7s13,5.9,13,10.4-5.2,13-5.2,13c0,0-26.3,51.1-59.2,51.1Z"/>
        <path class="st8" d="M2168.4,539.6c4.8,0,12.6,5.9,12.6,10.4s-4.8,13-4.8,13c-20.3,37-42.2,70.7-68.8,70.7s-45.1-11.5-50.3-21.8c0,0-21.1,21.8-41.1,21.8s-51.4-23.3-51.4-43.3c0-48.5,42.2-130.6,81.4-130.6s48.8,20.3,48.8,20.3c13.3,0,35.5,4.4,35.5,13.7s-25.2,72.9-25.2,102.5,3,6.3,5.9,6.3c12.9,0,31.1-22.9,49.2-56.2,0,0,3.3-6.7,8.1-6.7ZM2059.6,496.3c-13,0-42.5,61.4-42.5,94s4.1,8.1,7.4,8.1,18.5-6.3,28.9-27.8c7.4-15.5,19.6-54.8,19.6-65.1s-7.4-9.2-13.3-9.2Z"/>
        <path class="st8" d="M2293.1,601.8c11.1,0,30.7-22.2,48.8-55.5,0,0,3.3-6.7,8.1-6.7s12.6,5.9,12.6,10.4-4.8,13-4.8,13c-20.3,37-42.2,70.7-68.8,70.7s-53.6-15.5-53.6-32.2c0-23.7,20.7-82.9,20.7-96.9s-3.3-7.4-7.4-7.4c-7.8,0-22.2,6.3-27,18.1-10,24.4-26.6,99.2-28.9,109.9-1.5,4.8-7.4,8.5-14.1,8.5s-35.1-9.2-35.1-19.2,28.1-121.7,35.9-146.9c2.2-5.2,9.6-7.8,15.2-7.8,8.5,0,24.8,18.1,24.8,18.1,0,0,34.4-18.1,55.5-18.1s38.1,16.3,38.1,30-22.9,88.4-22.9,108,1.1,4.1,3,4.1Z"/>
        <path class="st8" d="M2362.2,467.5c1.5-5.2,6.7-7.8,14.8-7.8s37,17.4,37,24.4-29.6,89.2-29.6,115.1,2.6,3.3,3.7,3.3c10.7,0,30-22.9,48.8-56.2,0,0,3-6.7,7.8-6.7s12.6,5.9,12.6,10.4-5.2,13-5.2,13c-20,37-42.2,70.7-68.8,70.7s-53.6-15.5-53.6-32.2,26.3-111,32.6-133.9ZM2380,427.5c0-14.8,9.2-41.8,24.4-41.8s29.2,7,29.2,19.2-9.6,41.8-24.4,41.8-29.2-7-29.2-19.2Z"/>
        <path class="st8" d="M2548.1,574s6.7-9.2,11.1-9.2,15.5,8.5,15.5,13-8.1,15.2-8.1,15.2c-14.8,19.6-39.6,40.7-71,40.7s-65.5-22.2-65.5-51.1c0-41.8,38.8-122.8,78.1-122.8s57.3,21.8,57.3,37.7-25.9,77.3-50.7,77.3-27.7-3.3-27.7-3.3c0,0-1.5,3.3-1.5,9.6,0,10.4,9.6,19.6,17,19.6,17.4,0,32.2-8.5,45.5-26.6ZM2527,498.6c0-1.1-3-4.1-5.5-4.1-11.8,0-30.3,36.6-33.7,52.2,25.5-4.1,39.2-38.5,39.2-48.1Z"/>
        <g id="kompas">
          <g id="cifernik">
            <g>
              <path class="st8" d="M1708.4,512.2l-5.2-6.5c.2,1,.4,2.1.6,2.9l.8,4.3-1.9.3-1.7-9.5,2.5-.4,5.3,6.6c-.2-1-.5-2.2-.6-3l-.8-4.4,1.9-.3,1.7,9.5-2.6.5Z"/>
              <path class="st8" d="M1725.1,595l-1.9.3c-.3-.9-.9-1.5-1.9-1.3s-1.3.6-1.1,1.4.7,1.1,2.3,1.2c2.2.1,3.3.9,3.6,2.4s-1.1,3.1-3,3.4c-2.3.4-3.9-.3-4.5-2.3l1.9-.3c.4,1,1.3,1.4,2.2,1.2.9-.2,1.5-.7,1.3-1.5s-.7-1.2-2.2-1.3c-2-.1-3.4-.6-3.7-2.3s1.1-3.1,2.9-3.4c2.3-.4,3.5.7,4,2.4Z"/>
              <path class="st8" d="M1673.1,555.5l.4,2.5-7.6,3,8.2.3.4,2.5-9.1,4.1-.4-2.1,7.8-3-8.2-.3-.5-2.7,7.6-3-8.4-.3-.3-2,9.9.8Z"/>
              <path class="st8" d="M1754.6,548.9l-1.2-6.9,9.5-1.7,1.2,6.7-1.5.3-.9-4.8-2.5.4.8,4.5-1.5.3-.8-4.5-2.5.4.9,5-1.5.3Z"/>
              <path class="st8" d="M1719.4,583.6c-17,3-33.3-8.4-36.3-25.4s8.4-33.3,25.4-36.3c17-3,33.3,8.4,36.3,25.4s-8.4,33.3-25.4,36.3ZM1708.7,522.9c-16.4,2.9-27.4,18.6-24.5,35,2.9,16.4,18.6,27.4,35,24.5,16.4-2.9,27.4-18.6,24.5-35-2.9-16.4-18.6-27.4-35-24.5Z"/>
              <g>
                <polygon class="st8" points="1674.3 559.7 1683.3 556 1684 560.2 1674.3 559.7"/>
                <polygon class="st8" points="1721 592.3 1717.2 583.4 1721.4 582.7 1721 592.3"/>
                <polygon class="st8" points="1753.6 545.7 1744.6 549.5 1743.9 545.2 1753.6 545.7"/>
                <polygon class="st8" points="1707 513.1 1710.7 522 1706.5 522.8 1707 513.1"/>
              </g>
              <g>
                <path class="st8" d="M1696.7,538.8c-.7-.5-1.7-.3-2.2.4-.5.7-.3,1.7.4,2.2.7.5,1.7.3,2.2-.4.5-.7.3-1.7-.4-2.2Z"/>
                <path class="st8" d="M1700,570c-.5.7-.3,1.7.4,2.2.7.5,1.7.3,2.2-.4s.3-1.7-.4-2.2c-.7-.5-1.7-.3-2.2.4Z"/>
                <path class="st8" d="M1731.2,566.7c.7.5,1.7.3,2.2-.4.5-.7.3-1.7-.4-2.2-.7-.5-1.7-.3-2.2.4-.5.7-.3,1.7.4,2.2Z"/>
                <path class="st8" d="M1727.9,535.5c.5-.7.3-1.7-.4-2.2s-1.7-.3-2.2.4c-.5.7-.3,1.7.4,2.2.7.5,1.7.3,2.2-.4Z"/>
              </g>
              <rect class="st8" x="1702.5" y="519" width="1.3" height="4.7" transform="translate(-76.9 583.8) rotate(-19)"/>
              <rect class="st8" x="1697.7" y="521.1" width="1.3" height="4.7" transform="translate(-46.8 859.4) rotate(-28)"/>
              <rect class="st8" x="1693.4" y="523.9" width="1.3" height="4.7" transform="translate(24.7 1126.3) rotate(-37)"/>
              <rect class="st8" x="1689.5" y="527.4" width="1.3" height="4.7" transform="translate(135.4 1378.2) rotate(-46)"/>
              <rect class="st8" x="1686.2" y="531.4" width="1.3" height="4.7" transform="translate(282.6 1610) rotate(-55)"/>
              <rect class="st8" x="1683.5" y="535.9" width="1.3" height="4.7" transform="translate(462.7 1816.6) rotate(-64)"/>
              <rect class="st8" x="1681.6" y="540.7" width="1.3" height="4.7" transform="translate(671.7 1993.5) rotate(-73)"/>
              <rect class="st8" x="1680.5" y="545.8" width="1.3" height="4.7" transform="translate(905.1 2137) rotate(-82)"/>
              <rect class="st8" x="1678.5" y="552.7" width="4.7" height="1.3" transform="translate(-9.6 30.1) rotate(-1)"/>
              <rect class="st8" x="1680.3" y="562.9" width="4.7" height="1.3" transform="translate(-91.8 579.6) rotate(-19)"/>
              <g>
                <g>
                  <polygon class="st8" points="1716.7 552.2 1708.9 524.7 1711.1 553.2 1718.9 580.8 1716.7 552.2"/>
                  <polygon class="st8" points="1714.4 555.5 1741.9 547.8 1713.4 549.9 1685.8 557.7 1714.4 555.5"/>
                </g>
                <g>
                  <polygon class="st8" points="1715.5 553.9 1725.1 536.7 1712.3 551.6 1702.7 568.7 1715.5 553.9"/>
                  <polygon class="st8" points="1712.8 554.3 1729.9 563.9 1715 551.1 1697.9 541.5 1712.8 554.3"/>
                </g>
              </g>
              <rect class="st8" x="1682.3" y="567.7" width="4.7" height="1.3" transform="translate(-69.5 858) rotate(-28)"/>
              <path class="st8" d="M1716.3,566.3c-7.5,1.3-14.6-3.7-15.9-11.1s3.7-14.6,11.1-15.9c7.5-1.3,14.6,3.7,15.9,11.1,1.3,7.5-3.7,14.6-11.1,15.9ZM1711.6,539.6c-7.2,1.3-12,8.2-10.8,15.4s8.2,12,15.4,10.8c7.2-1.3,12-8.2,10.8-15.4-1.3-7.2-8.2-12-15.4-10.8Z"/>
              <rect class="st8" x="1685.1" y="572" width="4.7" height="1.3" transform="translate(-4.6 1131.6) rotate(-37)"/>
              <rect class="st8" x="1688.6" y="575.9" width="4.7" height="1.3" transform="translate(101.9 1393.1) rotate(-46)"/>
              <rect class="st8" x="1692.6" y="579.2" width="4.7" height="1.3" transform="translate(248.2 1636.4) rotate(-55)"/>
              <rect class="st8" x="1697.1" y="581.9" width="4.7" height="1.3" transform="translate(431.3 1855) rotate(-64)"/>
              <rect class="st8" x="1701.9" y="583.8" width="4.7" height="1.3" transform="translate(648 2044) rotate(-73)"/>
              <rect class="st8" x="1707" y="584.9" width="4.7" height="1.3" transform="translate(892.1 2197) rotate(-82)"/>
              <rect class="st8" x="1713.9" y="583.5" width="1.3" height="4.7" transform="translate(-10.3 31.1) rotate(-1)"/>
              <rect class="st8" x="1724.1" y="581.7" width="1.3" height="4.7" transform="translate(-96.2 594.3) rotate(-19)"/>
              <rect class="st8" x="1728.9" y="579.6" width="1.3" height="4.7" transform="translate(-70.7 880.8) rotate(-28)"/>
              <rect class="st8" x="1733.3" y="576.8" width="1.3" height="4.7" transform="translate(.9 1160.9) rotate(-37)"/>
              <rect class="st8" x="1737.2" y="573.4" width="1.3" height="4.7" transform="translate(116.9 1426.7) rotate(-46)"/>
              <rect class="st8" x="1740.5" y="569.4" width="1.3" height="4.7" transform="translate(274.6 1670.7) rotate(-55)"/>
              <rect class="st8" x="1743.1" y="564.9" width="1.3" height="4.7" transform="translate(470.1 1886.4) rotate(-64)"/>
              <rect class="st8" x="1745" y="560" width="1.3" height="4.7" transform="translate(698.2 2067.8) rotate(-73)"/>
              <rect class="st8" x="1746.1" y="555" width="1.3" height="4.7" transform="translate(952.5 2209.9) rotate(-82)"/>
              <rect class="st8" x="1744.7" y="551.5" width="4.7" height="1.3" transform="translate(-9.6 31.3) rotate(-1)"/>
              <rect class="st8" x="1742.9" y="541.3" width="4.7" height="1.3" transform="translate(-81.3 598.2) rotate(-19)"/>
              <rect class="st8" x="1740.8" y="536.5" width="4.7" height="1.3" transform="translate(-47.9 882.4) rotate(-28)"/>
              <rect class="st8" x="1738.1" y="532.1" width="4.7" height="1.3" transform="translate(30 1155.2) rotate(-37)"/>
              <rect class="st8" x="1734.6" y="528.2" width="4.7" height="1.3" transform="translate(150.5 1411.9) rotate(-46)"/>
              <rect class="st8" x="1730.6" y="524.9" width="4.7" height="1.3" transform="translate(309 1644.3) rotate(-55)"/>
              <rect class="st8" x="1726.1" y="522.3" width="4.7" height="1.3" transform="translate(501.4 1847.8) rotate(-64)"/>
              <rect class="st8" x="1721.3" y="520.4" width="4.7" height="1.3" transform="translate(722.2 2017.5) rotate(-73)"/>
              <rect class="st8" x="1716.2" y="519.3" width="4.7" height="1.3" transform="translate(965.5 2149.8) rotate(-82)"/>
              <rect class="st8" x="1712.7" y="517.2" width="1.3" height="4.7" transform="translate(-9 30.5) rotate(-1)"/>
            </g>
            <g>
              <g>
                <g>
                  <path class="st4" d="M1712.6,544.8c-.1,0-.2,0-.3,0l-30.9-15,24.6,23.9c0,.1,0,.2,0,.3.8,4.4,5,7.3,9.3,6.5.1,0,.2,0,.3,0l30.9,15-24.6-23.9c0-.1,0-.2,0-.3-.8-4.4-5-7.3-9.3-6.5Z"/>
                  <path class="st0" d="M1712.2,544.9l-30.9-15,24.6,23.9c0,.1,0,.2,0,.3.4,2.2,1.6,4,3.3,5.2l9.2-13.2c-1.7-1.2-3.8-1.7-6-1.3s-.2,0-.3,0Z"/>
                </g>
                <g>
                  <path class="st1" d="M1714,552.7l-4.6,6.6c-.6-.4-1.2-1-1.7-1.6,1.8,2.2,4.7,3.4,7.7,2.9s.2,0,.3,0l30.9,15-32.6-22.8Z"/>
                  <path class="st7" d="M1714,552.7l4.6-6.6c-.3-.2-.5-.3-.8-.5-.6-.3-1.3-.6-2-.8-1-.2-2.1-.3-3.2,0s-.2,0-.3,0l-30.9-15h0s32.6,22.8,32.6,22.8Z"/>
                </g>
              </g>
              <g>
                <circle class="st12" cx="1714" cy="552.7" r="5.2"/>
                <path class="st8" d="M1713.5,548c1.6-.3,3.1.2,4.3,1.1-1.2-1.3-2.9-2-4.8-1.6-2.9.5-4.8,3.2-4.3,6.1s.9,2.3,1.8,3.1c-.7-.7-1.1-1.6-1.3-2.6-.5-2.9,1.4-5.6,4.3-6.1Z"/>
                <path class="st1" d="M1716.4,548.1c.8.8,1.5,1.8,1.7,3,.5,2.9-1.4,5.6-4.3,6.1-1.2.2-2.4,0-3.4-.5,1.2,1,2.8,1.6,4.4,1.3,2.9-.5,4.8-3.2,4.3-6.1-.3-1.7-1.3-3-2.7-3.7Z"/>
              </g>
            </g>
          </g>
          <g>
            <path class="st8" d="M1692.5,429.8c-10.3,1.8-17.2,11.7-15.3,21.9,1.2,6.7,5.8,12,11.7,14.3,1.8.7,3.7,1.2,5.7,1.3,1.5,0,3,0,4.5-.3s2.9-.7,4.3-1.3c1.8-.8,3.5-1.9,5-3.2,4.8-4.2,7.3-10.8,6.1-17.5-1.8-10.3-11.7-17.2-21.9-15.3ZM1707.4,457.7c-2.2,2.8-5.3,4.8-9.1,5.4-3.7.7-7.4-.1-10.4-2-3.5-2.1-6.1-5.7-6.9-10.1-1.4-8.1,4-15.8,12.1-17.2,8.1-1.4,15.8,4,17.2,12.1.8,4.4-.4,8.6-3,11.8Z"/>
            <path class="st7" d="M1707.4,457.7c-2.2,2.8-5.3,4.8-9.1,5.4-3.6.6-7.2-.1-10.2-1.9.5.4,1.1.8,1.6,1.2,3,1.8,6.6,2.6,10.4,2,3.7-.7,6.9-2.7,9.1-5.4,2.6-3.2,3.8-7.5,3-11.8s-3.5-8.1-7.1-10.2c2.7,2.2,4.6,5.3,5.2,8.9.8,4.4-.4,8.6-3,11.8Z"/>
            <path class="st7" d="M1694.3,431.1c4.7-.8,9.4.2,13.2,2.5-4.1-3.2-9.5-4.8-15-3.8-10.3,1.8-17.2,11.7-15.3,21.9,1,5.5,4.3,10.1,8.8,12.8-3.5-2.8-6.1-6.8-6.9-11.5-1.8-10.3,5.1-20.1,15.3-21.9Z"/>
            <path class="st3" d="M1710.9,437.2c1.3,2,2.2,4.4,2.7,6.9,1.2,6.7-1.3,13.3-6.1,17.5-1.5,1.3-3.1,2.4-5,3.2-1.3.6-2.8,1-4.3,1.3s-3,.3-4.5.3c-2-.1-3.9-.6-5.7-1.3-3.3-1.3-6.2-3.5-8.3-6.3,2.2,3.4,5.4,6,9.1,7.5,1.8.7,3.7,1.2,5.7,1.3,1.5,0,3,0,4.5-.3s2.9-.7,4.3-1.3c1.8-.8,3.5-1.9,5-3.2,4.8-4.2,7.3-10.8,6.1-17.5-.5-3-1.8-5.7-3.5-8Z"/>
            <path class="st8" d="M1707.2,456.6l2.2,12.4-19.4,3.4-2.2-12.4h0c5.1-5.1,12.9-6.5,19.4-3.4h0Z"/>
            <path class="st2" d="M1707.2,456.6h0c-1.9-.9-4-1.4-6-1.6l2.6,15,5.6-1-2.2-12.4Z"/>
            <rect class="st9" x="1693.6" y="457" width="1.6" height="11.3" transform="translate(-54.7 302.1) rotate(-10)"/>
            <path class="st8" d="M1653.7,510.5c11.9-17.1,29.8-28.5,50.3-32.1,19.8-3.5,39.8.7,56.6,11.7-.6-.4-1.1-.8-1.7-1.2-17.1-11.9-37.8-16.5-58.3-12.9-20.5,3.6-38.4,15-50.3,32.1-11.9,17.1-16.5,37.8-12.9,58.3,3.6,20.5,15,38.4,32.1,50.3.6.4,1.1.8,1.7,1.2-16.1-11.9-26.9-29.3-30.4-49.1-3.6-20.5.9-41.2,12.9-58.3Z"/>
            <path class="st8" d="M1700.9,477.5c-41.6,7.3-69.4,47.1-62.1,88.7,7.3,41.6,47.1,69.4,88.7,62.1,41.6-7.3,69.4-47.1,62.1-88.7-7.3-41.6-47.1-69.4-88.7-62.1ZM1726.5,622.5c-38.4,6.8-75.2-18.9-82-57.4-6.8-38.4,18.9-75.2,57.4-82,38.4-6.8,75.2,18.9,82,57.4,6.8,38.4-18.9,75.2-57.4,82Z"/>
            <path class="st8" d="M1763.6,482.2c-9.9-6.9-20.8-11.6-32.3-13.9-7.3-1.5-14.8-2-22.3-1.5-3.3.2-6.5.6-9.8,1.2s-6.5,1.3-9.6,2.3c-18.6,5.5-34.7,17.1-46,33.2-13.4,19.2-17.9,42-14.4,63.4v.2c3.7,22,15.9,42.6,35.6,56.4,18.9,13.2,41.7,18.3,64.4,14.2,22.7-4,42.4-16.6,55.6-35.5,27.2-38.9,17.7-92.8-21.2-120ZM1638.8,566.2c-7.3-41.6,20.5-81.4,62.1-88.7,41.6-7.3,81.4,20.5,88.7,62.1,7.3,41.6-20.5,81.4-62.1,88.7-41.6,7.3-81.4-20.5-88.7-62.1Z"/>
            <path class="st11" d="M1762.3,484.1c-18.3-12.8-40.6-17.8-62.6-13.9-22.1,3.9-41.3,16.1-54.1,34.5-12.8,18.3-17.8,40.6-13.9,62.6s16.1,41.3,34.5,54.1c18.3,12.8,40.6,17.8,62.6,13.9,22-3.9,41.3-16.2,54.1-34.5,26.5-37.9,17.2-90.2-20.6-116.7ZM1728.5,633.8c-44.7,7.9-87.4-22-95.3-66.7-7.9-44.7,22-87.4,66.7-95.3,44.7-7.9,87.4,22,95.3,66.7,7.9,44.7-22,87.4-66.7,95.3Z"/>
            <path class="st10" d="M1643.6,503.4c-13.4,19.2-17.9,42-14.4,63.4v.2c4.1,21.3,16.1,41.2,35.3,54.6.6.4,1.2.8,1.7,1.2-37.5-27.6-46.4-80.5-19.6-118.8,10.7-15.3,25.5-28,42.9-33.8h0c-18.6,5.5-34.7,17.1-46,33.2Z"/>
          </g>
          <circle class="st13" cx="1714.2" cy="552.9" r="70.9"/>
        </g>
      </g>
      <g>
        <path class="st8" d="M525.5,21.8h87.7l35.1,131.7,12.6,52.2,12.2-52.2,35.9-131.7h87.3l37,262.7h-71.8l-12.6-129.9-4.1-53.3-13.7,53.3-34,129.9h-77l-34.8-129.9-13.7-53.3-3.7,53.3-11.8,129.9h-67.3l36.6-262.7Z"/>
        <path class="st8" d="M954.1,165v-8.9c0-13-6.7-21.5-21.1-21.5s-34,3.3-63.3,15.5l-8.5-45.1c34-11.5,61-16.6,89.9-16.6,45.9,0,69.6,24.8,69.6,76.6v57.7c0,12.9,5.2,17.8,21.8,17.8l-6.7,46.2c-41.4,5.5-61.4-3-71.8-22.6-17.8,17.8-40.7,24.8-58.5,24.8-31.4,0-57-20.3-57-54.4s32.9-64,105.4-69.6ZM929.3,244.2c8.9,0,19.2-6.3,24.8-10.7v-35.1c-29.6,3-40,14.4-40,28.9-.4,11.1,5.5,17,15.2,17Z"/>
        <path class="st8" d="M1062.2,99.5l65.1-11.1,1.9,51.8c10-30,31.4-49.9,62.2-55.1l10.4,68.8c-29.6-.7-55.9,8.5-72.9,30v100.6h-66.6V99.5Z"/>
        <path class="st8" d="M1305.4,34.8v58.1h44.4l-3,48.1h-41.4v72.9c0,19.6,5.9,24,17.4,24s18.5-1.8,28.1-3.7l6.7,48.1c-18.9,4.4-35.9,6.7-50.7,6.7-52.2,0-68.1-34.8-68.1-72.5v-75.5h-29.6v-41.8l29.6-6.3,11.5-50.7,55.1-7.4Z"/>
        <path class="st8" d="M1414,0c21.1,0,37.4,15.5,37.4,35.9s-16.3,35.9-37.4,35.9-37.4-15.5-37.4-35.9S1392.9,0,1414,0ZM1380.7,99.5l66.6-11.1v196.1h-66.6V99.5Z"/>
        <path class="st8" d="M1483.7,99.5l65.1-11.1,1.5,24c21.5-15.2,45.1-24,65.9-24,31.8,0,56.6,21.5,56.6,64.7v131.3h-66.6v-121c0-17.4-8.5-23.7-21.8-23.7s-22.6,4.8-34,12.6v132.1h-66.6V99.5Z"/>
        <path class="st8" d="M1774.7,88.4v125.4c0,17,8.5,23.7,21.8,23.7s22.6-4.8,34-12.9v-125.1l66.6-11.1v196.1h-63.6l-3-19.6c-21.5,14.8-45.1,24-65.9,24-31.8,0-56.6-21.5-56.6-64.7v-124.7l66.6-11.1Z"/>
        <path class="st8" d="M1936.1,230.1c20.3,8.1,48.8,15.9,68.4,15.9s21.5-5.2,21.5-15.2-9.6-12.2-20-14.4c-31.1-5.9-79.9-17-79.9-66.6s37-61.4,79.5-61.4,50.7,5.5,70.7,12.9l-8.1,44.8c-20.4-8.1-45.9-15.2-62.9-15.2s-19.2,4.4-19.2,13.3,8.9,12.2,19.2,14.8c29.6,5.5,80.7,17,80.7,66.2s-42.5,63.6-85.1,63.6-53.3-6.7-72.5-14.4l7.8-44.4Z"/>
      </g>
    </g>
  </g>
</svg>