<svg width="212" height="213" viewBox="0 0 212 213" fill="none" xmlns="http://www.w3.org/2000/svg">
<path d="M8 206.3L1 199.1L2.1 167.9L4.5 13.2L8 4.2H21H200.4L205.1 9.2V27L202.9 194.4L200.7 204.1L191.7 208H181.7L8 206.3Z" fill="white"/>
<path d="M209.3 128.1C209.6 128.3 209.8 128.5 209.6 128.9C209.2 129.9 209.1 130.2 209.5 131C209.6 131.2 209.7 131.5 209.7 131.7C209.7 132.7 209.7 133.6 209.7 134.6C209.7 135.1 209.2 135.4 209.3 136C209.4 136.5 209.3 137 209.3 137.5C209.3 138 209.3 138.5 209.3 139C209.3 139.5 209.3 140 209.3 140.5C209.3 140.7 209.1 140.9 209 141.2C209.1 141.3 209.2 141.4 209.3 141.6C208.8 141.9 208.8 142.4 209 142.8C209.5 143.6 209.5 144.3 209 145.1C208.9 145.2 209 145.5 208.9 145.7C208.8 146 209.6 146.4 208.9 146.7C208.9 147.1 208.9 147.5 208.9 147.9C208.9 148.2 209 148.4 209.2 148.6C209.3 148.7 209.3 149 209.3 149.1C208.9 149.4 208.9 149.7 209 150.1C209 151.5 209 152.8 209 154.2C209 155.7 209 157.3 209 158.8C209 159.5 209.2 160.2 208.6 160.8C208.5 160.9 208.5 161.2 208.6 161.4C209.3 162.2 208.8 163.2 209 164.2C208.4 164.7 208.7 165.4 208.6 166C208.6 166.3 208.9 166.4 209 166.6C208.5 166.9 208.6 167.4 208.6 167.8C207.9 168.4 208.3 169.1 208.3 169.8C208.8 170.1 208.6 170.6 208.6 171C208.6 171.7 208.7 172.4 208.2 173C208.1 173.1 208.1 173.5 208.2 173.6C208.8 174.2 208.5 174.9 208.6 175.6C208.6 176.4 208.6 177.1 208.6 177.9C207.9 178.4 208.4 179.2 208.1 179.9C208 180 207.8 180.1 207.8 180.2C208.1 181.6 208.3 182.7 208.1 183.3C208 183.5 207.8 183.6 207.8 183.9C207.8 184.7 207.8 185.4 207.8 186.2C208.1 186.5 208.3 186.9 208.2 187.4C208.2 187.7 208.2 187.9 208 188.1C207.7 188.4 207.9 188.6 208.1 188.9C208.2 189 208.3 189.4 208.2 189.4C207.6 189.8 207.9 190.5 207.9 191C207.9 191.5 207.7 192 208.2 192.4C208.2 193.2 208.3 193.9 208.3 194.7C207.6 195.6 208 196.7 207.9 197.6C207.8 198.1 208.1 198.6 207.6 199C207.5 199.1 207.5 199.5 207.6 199.7C207.7 200.2 207.4 200.6 207.2 201.1C206.8 201.9 206.8 201.9 206.8 202.7C206.8 203.1 206.9 203.5 206.7 203.8C206.2 204.4 206.2 205.2 205.6 205.7C205.2 206 204.9 206.4 204.5 206.8C204.6 207.4 204.4 208 203.7 208.1C203.3 208.2 203.2 208.7 202.7 208.5C202.5 208.8 202.2 208.8 201.9 208.9C201.6 209 201.4 209.2 201.1 209.3C200.8 209.4 200.6 209.7 200.4 210C200 210.4 199.4 210.7 198.6 210.8C198.2 210.9 198.1 211.3 197.6 211.2C197.3 211.1 196.9 211.2 196.5 211.5C196.3 211.7 195.7 211.5 195.4 211.6C194.3 212.3 193.2 211.8 192.1 212C191.9 212 191.8 211.9 191.6 211.8C191.2 211.6 191.2 211.6 190.7 212C188.3 212 185.8 212 183.4 212C183.3 211.9 183.1 211.8 183 211.7C182.8 211.8 182.6 212 182.3 212C181.2 212 180.1 212 179 212C178.6 212 178.5 211.7 178.2 211.6C177.9 211.5 177.6 211.6 177.2 211.6C176.9 211.6 176.6 211.7 176.4 211.9C176.3 212 176.1 212 176.1 212C175.3 211.3 174.3 211.7 173.4 211.6C172.4 211.5 171.5 211.6 170.5 211.6C170.1 211.6 170 212.1 169.5 212C169.2 211.9 168.9 212 168.5 212C168.1 212 167.8 211.5 167.3 211.6C166.9 211.7 166.4 211.6 166 211.6C165.6 211.6 165.1 211.6 164.6 211.6C164.2 211.6 163.7 211.6 163.3 211.6C163.1 211.4 162.8 211 162.5 211.3C162.2 211.5 162 211.6 161.7 211.6C159.6 211.6 157.4 211.6 155.3 211.6C155 211.6 154.7 211.6 154.5 211.3C154.5 211.3 154.2 211.5 154.1 211.6C154 211.5 153.9 211.4 153.7 211.3C153.3 211.3 152.8 211.3 152.4 211.3C152 211.3 151.7 211.8 151.2 211.7C150.8 211.6 150.4 211.7 150 211.7C149.5 211.7 149.1 211.7 148.6 211.7C148.2 211.7 147.8 211.7 147.5 211.7C147.3 211.6 147.2 211.5 147 211.4C146.7 211.9 146.2 211.7 145.8 211.7C145.7 211.7 145.7 211.7 145.6 211.7C144.5 211.5 143.3 212.1 142.3 211.3C141.5 211.5 140.5 210.9 139.7 211.7C139.7 211.7 139.6 211.7 139.5 211.7C138.9 211.7 138.2 211.7 137.6 211.7C137 211.7 136.3 212 135.8 211.3C135 211.3 134.3 211.3 133.5 211.3C133.4 211.3 133.3 211.5 133.2 211.5C133 211.6 132.8 211.7 132.7 211.6C132.2 211.1 131.7 211.1 131.2 211.5C131.1 211.6 130.8 211.6 130.7 211.5C130.3 211 129.8 211.3 129.3 211.2C128.6 211.9 127.7 211.5 126.9 211.6C126.1 211.7 125.4 211.6 124.6 211.6C124.5 211.6 124.4 211.4 124.3 211.4C124 211.2 124 211.2 123.6 211.4C123.4 211.5 123.3 211.7 123.1 211.6C122.4 211.5 121.6 211.9 120.9 211.2C120.1 211.2 119.2 211.2 118.4 211.2C118.3 211.2 118.2 211.3 118.1 211.4C117.7 211.8 117.3 211.5 116.8 211.6C116.2 211 115.4 211.3 114.6 211.2C113.9 211.2 113.2 211.2 112.5 211.2C111.8 211.9 110.9 211.5 110.1 211.6C109.7 211.1 109.2 211.2 108.7 211.2C108.2 211.2 107.7 211.1 107.3 211.6C107.2 211.7 106.7 211.7 106.6 211.6C106.3 211 105.4 211.5 105.1 210.9C104.7 210.9 104.2 210.9 103.8 210.9C103.6 211.3 103.1 211.2 102.8 211.2C102.4 211.2 102 211.2 101.6 211.5C101.3 211.8 100.7 211.6 100.4 211.2C98.9 211.2 97.3 211.2 95.8 211.2C95 211.2 94.1 211.6 93.4 210.8C91.2 210.8 89 210.8 86.8 210.8L86.7 210.9C86.3 211.3 85.7 211.3 85.3 211C84.9 210.8 84.6 210.7 84.3 210.7C82.3 210.7 80.3 210.7 78.3 210.7C77.9 210.7 77.6 210.7 77.3 211C77 211.3 76.7 210.9 76.5 210.7C70.3 210.7 64 210.7 57.8 210.7C57.3 210.7 56.8 210.8 56.4 210.3C56.3 210.2 55.8 210.2 55.7 210.3C55.3 210.7 54.9 210.7 54.5 210.7C53.7 210.7 52.8 210.7 52 210.7C51.3 210.7 50.8 210 50 210.3C49.6 210.4 49.1 210.1 48.8 210.6C48.1 210.7 47.3 210.8 46.6 210.5C46.1 210.2 45.6 210.2 45 210.5C44.9 210.6 44.5 210.7 44.5 210.7C44.1 210.2 43.6 210.3 43.1 210.3C42.9 210.3 42.8 210.1 42.6 210C42.3 209.8 41.9 209.8 41.7 209.9C41.4 210.1 41.2 210.2 40.9 210.3C40 210.7 40 210.8 39.3 210.1C39 209.8 38.7 209.7 38.3 210.1C38.2 210.2 38 210.2 37.8 210.2C37.3 210.3 36.6 210 36.2 210.6C35.8 210.6 35.5 210.7 35.2 210.3C34.8 209.8 34.4 209.5 33.8 210C33.7 210.1 33.6 210.2 33.5 210.2C32.8 210.1 32 210.6 31.3 209.8C30.8 209.8 30.1 209.6 29.7 210.2C29.6 210.1 29.4 209.9 29.3 209.8C28.5 209.8 27.7 209.8 27 209.8C26.7 209.8 26.6 210 26.3 210.1C26 210.2 25.7 210.1 25.4 210.2C25.1 209.7 24.6 209.9 24.2 209.9C23.8 209.9 23.5 209.9 23.2 210.2C23 210.4 22.5 210.4 22.2 210.1C21.8 209.8 21.4 209.8 21 210.2C20.9 210.3 20.5 210.4 20.5 210.3C20.2 209.8 19.7 209.9 19.3 209.9C18.1 209.9 16.9 209.9 15.6 209.9C15.2 209.9 14.7 210.1 14.4 209.6H14.3C13.7 210.2 12.8 209.9 12.1 209.9C11.1 209.9 10.1 210.2 9.19997 209.5C8.49997 209.5 7.79997 209.5 6.99997 209.5C6.49997 208.6 5.39997 208.6 4.59997 208C4.19997 208 4.19997 207.7 4.09997 207.4C3.89997 207 3.49997 206.7 3.19997 206.4C2.79997 206.1 2.69997 205.5 2.39997 205.2C2.09997 204.9 1.89997 204.5 1.69997 204.1C1.59997 203.9 1.49997 203.8 1.49997 203.6C1.49997 203.2 1.49997 202.8 1.49997 202.4C1.49997 201.9 1.59997 201.4 1.09997 201C1.09997 200.4 1.09997 199.8 1.09997 199.3C1.09997 198.8 1.09997 198.3 1.09997 197.8C0.499969 197 0.79997 196 0.69997 195.1C1.19997 194.6 1.09997 193.9 1.09997 193.3C1.09997 192.8 1.29997 192.3 0.69997 191.9C0.79997 191.4 0.39997 190.9 0.89997 190.5C0.99997 190.4 0.999969 190.3 0.999969 190.2C0.999969 189.6 0.999969 189 0.999969 188.5C1.49997 188.2 1.49997 187.8 1.29997 187.3C0.999969 186 0.999969 186 1.29997 185C1.39997 184.7 1.39997 184.3 1.29997 184.1C1.09997 183.8 0.999969 183.6 0.999969 183.2C1.09997 182.5 0.59997 181.7 1.39997 181C1.39997 179.8 1.39997 178.7 1.39997 177.5C0.69997 177 1.09997 176.2 0.999969 175.5C1.49997 175.2 1.39997 174.7 1.39997 174.3C1.39997 173.9 1.49997 173.5 1.09997 173.2C0.999969 173.3 0.999969 173 0.999969 172.8C1.09997 171.9 0.69997 170.9 1.39997 170.1C1.39997 168.7 1.39997 167.4 1.39997 166C1.39997 165.9 1.29997 165.8 1.19997 165.7C0.79997 165.3 1.09997 165 1.39997 164.7C1.39997 162.5 1.39997 160.2 1.39997 158C1.39997 157.6 1.39997 157.2 0.999969 157C0.999969 156.5 0.999969 156 0.999969 155.5C1.09997 155.4 1.29997 155.2 1.39997 155.1C1.19997 154.9 0.799969 154.6 1.09997 154.3C1.29997 154 1.39997 153.8 1.39997 153.5C1.39997 152.9 1.39997 152.2 1.39997 151.6C1.39997 151.2 2.09997 150.9 1.39997 150.6C1.29997 150.2 1.49997 149.9 1.09997 149.5C0.799969 149.2 0.999969 148.7 0.999969 148.2C1.59997 147.8 1.39997 147.2 1.39997 146.6C1.39997 144.9 1.39997 143.3 1.39997 141.6C1.39997 141.2 1.39997 140.9 1.09997 140.5C0.799969 140.1 0.89997 139.5 1.19997 139.1C1.49997 138.7 1.49997 138.3 1.19997 137.9C0.89997 137.4 0.899969 137 1.09997 136.5C1.09997 136.4 1.29997 136.3 1.39997 136.2C1.19997 136 0.799969 135.7 1.09997 135.4C1.39997 135.1 1.49997 134.8 1.49997 134.4C1.49997 132.2 1.49997 130 1.49997 127.8C1.49997 127.2 1.29997 126.5 1.89997 126C1.99997 125.9 1.99997 125.6 1.89997 125.4C1.39997 124.8 1.49997 124.1 1.49997 123.4C1.49997 122 1.49997 120.6 1.49997 119.1C1.49997 118.1 1.49997 118.1 2.09997 116.9C2.19997 116.6 2.19997 116.4 2.19997 116.2C2.19997 116.1 2.09997 115.9 2.09997 115.9C1.79997 115.8 1.29997 115.8 1.49997 115.2C1.59997 114.7 1.09997 114.6 1.09997 114.2C1.09997 114 1.09997 113.8 1.09997 113.6C0.999969 113.5 0.899969 113.3 0.799969 113.2C1.09997 112.9 1.29997 112.7 1.49997 112.5C1.49997 112.2 1.59997 111.9 1.49997 111.6C1.39997 111.3 1.19997 111.1 1.09997 110.8C0.999969 110 0.999969 109.2 1.09997 108.5C1.19997 108 1.59997 107.7 1.49997 107.1C1.39997 106.5 1.49997 105.9 1.49997 105.4C1.49997 104.9 1.49997 104.4 1.49997 103.9C1.49997 103.4 1.49997 102.9 1.49997 102.4C1.49997 102.3 1.49997 102.3 1.49997 102.2C1.39997 102 1.19997 101.8 1.19997 101.8C1.89997 101.1 1.49997 100.3 1.49997 99.6C1.49997 99.2 1.19997 98.9 0.89997 98.5C0.79997 98.4 0.69997 98.3 0.89997 98.2C0.99997 98.1 1.09997 98 1.19997 97.9C1.19997 97.3 1.19997 96.7 1.19997 96.2C1.19997 96 0.999969 95.9 0.999969 95.7C0.899969 95.5 0.89997 95.3 0.89997 95.2C0.99997 95 1.19997 94.9 1.29997 94.6C1.39997 94.1 0.999969 93.4 1.59997 93C1.59997 92.4 1.69997 91.9 1.69997 91.3C1.69997 90.8 1.69997 90.3 1.69997 89.8C1.69997 89.2 1.69997 88.6 1.69997 88.1C1.69997 87.8 1.69997 87.6 1.69997 87.3C1.69997 86.9 1.79997 86.4 1.39997 86.1C0.89997 85.8 0.999969 85.3 0.999969 85C1.19997 84.5 1.39997 84 1.39997 83.4C1.29997 82.8 1.29997 82.2 1.39997 81.7C1.49997 81 1.09997 80.3 1.79997 79.7C1.69997 79.1 1.99997 78.5 1.59997 77.9C1.29997 77.5 1.19997 76.8 1.69997 76.3C1.79997 76.2 1.79997 75.9 1.69997 75.8C1.29997 75.5 1.39997 75.1 1.39997 74.8C1.39997 74 1.39997 73.3 1.39997 72.5C1.39997 72 1.19997 71.4 1.59997 71C1.99997 70.7 1.59997 70.1 1.99997 69.8C2.09997 69.7 2.19997 69.5 2.19997 69.3C2.19997 68.9 2.19997 68.4 2.19997 67.9C2.19997 67.7 1.99997 67.5 1.79997 67.2C1.79997 66.4 1.79997 65.4 1.79997 64.4C1.79997 63.8 1.49997 63.1 2.19997 62.6C2.19997 62.2 2.29997 61.7 2.09997 61.5C1.79997 61.2 1.79997 60.9 1.79997 60.5C1.79997 59.8 1.79997 59.1 1.79997 58.4C2.29997 58 2.09997 57.5 2.09997 57C2.09997 56.7 2.29997 56.4 2.39997 56.2C2.49997 56 2.39997 55.6 2.49997 55.3C2.59997 54.9 1.99997 54.8 2.09997 54.3C2.19997 53.9 2.19997 53.5 2.09997 53.1C2.09997 52.9 1.89997 52.8 1.69997 52.7C1.99997 52.4 2.49997 52.2 1.99997 51.7C1.79997 51.5 1.69997 51.3 1.79997 51C1.89997 50.7 2.19997 50.3 2.09997 50C2.09997 49.7 1.69997 49.4 1.69997 49C1.69997 48.8 1.59997 48.5 1.69997 48.4C2.39997 47.5 1.89997 46.4 2.09997 45.5C2.09997 45.4 1.89997 45.2 1.89997 45C1.69997 44.7 1.69997 44.6 1.89997 44.4C2.09997 44.2 2.09997 44 2.09997 43.7C2.09997 41.3 2.09997 38.9 2.09997 36.5C2.09997 36 2.09997 35.6 2.09997 35.1C2.09997 34.8 2.19997 34.6 2.39997 34.4C2.59997 34.2 2.49997 33.9 2.29997 33.7C2.09997 33.5 2.09997 33.4 2.29997 33.3C2.69997 32.9 2.39997 32.4 2.49997 32C1.89997 31.4 2.09997 30.7 2.09997 30C2.09997 28.8 2.09997 27.6 2.09997 26.3C2.09997 25.8 1.99997 25.3 2.49997 24.9C2.59997 24.8 2.59997 24.3 2.49997 24.2C2.09997 23.9 2.09997 23.4 2.09997 23C2.09997 22 2.09997 21.1 2.09997 20.1C2.09997 19.8 2.19997 19.5 2.39997 19.2C2.59997 18.8 2.49997 18.4 2.49997 17.9C1.99997 17.9 2.19997 17.4 2.19997 17C2.19997 15.9 2.19997 14.8 2.19997 13.7C2.19997 13.2 1.99997 12.6 2.39997 12.3C2.79997 12 2.29997 11.4 2.79997 11.1C2.89997 11 2.89997 10.7 2.99997 10.6C2.99997 10.1 2.99997 9.6 2.99997 9.1C2.99997 8.7 2.99997 8.2 3.39997 7.9C3.49997 7.8 3.39997 7.4 3.39997 7.2C3.89997 6.7 4.39997 6.2 4.89997 5.7C4.89997 5.5 4.89997 5.2 4.89997 4.9C5.59997 4 6.29997 3.3 6.99997 2.6C7.19997 2.4 7.39997 2.3 7.59997 2.2C8.49997 1.7 9.29997 1.3 10.4 1.4C11 1.5 11.6 1.4 12.1 1.4C12.7 1.4 13.4 1.7 13.9 1C13.9 1 14 1 14.1 1C14.6 1 15 1 15.5 1C16 1 16.4 1 16.9 1C17.3 1 17.6 0.5 18.1 0.6C18.5 0.7 19 0.6 19.4 0.6C20.4 0.6 21.5 0.6 22.5 0.6C22.9 1.1 23.3 1.2 23.8 0.799999C24.3 0.399999 24.7 0.6 25.2 0.6C26 1.3 26.9 0.8 27.8 0.9C28.1 0.6 28.5 0.5 29 0.5C29.5 0.5 29.6 0.9 30 0.9C30.3 0.9 30.5 0.9 30.8 0.9C34.3 0.9 37.9 0.9 41.4 0.9C41.8 0.9 42.3 1 42.6 0.5C42.7 0.4 42.9 0.4 43.1 0.6C43.2 0.7 43.4 0.799999 43.6 0.799999C44 0.799999 44.2 3.57628e-07 44.7 0.6C45.1 1 45.5 0.799999 46 0.799999C46.4 0.799999 46.9 0.799999 47.4 0.799999C47.7 0.799999 47.8 1 48 1.1C48.2 1.2 48.6 1.3 48.7 1.1C49.2 0.6 49.7 0.700001 50.3 0.700001C51.8 0.700001 53.3 0.700001 54.7 0.700001C55.2 0.700001 55.7 0.5 56.1 1.1C56.7 0.4 57.5 0.800001 58.3 0.700001C58.9 0.600001 59.5 0.5 60.1 1C60.2 1.1 60.6 1 60.8 1C62 1 62 1 63 1.4C63.4 1.6 63.6 1.3 63.8 1.1C64.9 1.1 66.1 1.1 67.3 1.1C67.7 1.1 67.9 1.3 68.1 1.5C68.4 1 69 1.2 69.5 1.1C69.8 1.1 70.1 1.2 70.4 1.4C70.8 1.6 71.4 1.6 71.7 1.4C72.1 1.2 72.4 1.1 72.7 1.1C73.5 1.1 74.4 1.1 75.2 1.1C75.6 1.1 75.9 1.1 76.2 1.4C76.3 1.5 76.8 1.6 76.9 1.4C77.8 0.7 78.7 1.2 79.7 1C79.8 1 79.9 1.2 80 1.2C80.3 1.4 80.7 1.5 81 1.2C81.4 0.800001 81.8 1 82.3 1C83.2 1.7 84.3 1.3 85.2 1.4C85.4 1.4 85.6 1.4 85.8 1.4C86.1 1.4 86.4 1.3 86.6 1.1C86.9 0.9 87.3 0.900001 87.6 1.2C88 1.7 88.3 1.3 88.5 1C88.9 1 89.4 1 89.8 1C90.2 1 90.5 1.5 91 1.4C91.4 1.3 91.9 1.4 92.3 1.4C92.8 1.4 93.2 1.4 93.7 1.4C94.2 1.4 94.6 1.4 95.1 1.4C95.7 1.4 96.2 1.5 96.7 1C96.8 0.9 97.3 0.9 97.4 1C97.7 1.3 98 1.3 98.4 1.3C99.5 1.3 100.6 1.3 101.7 1.3C102 1.3 102.1 1.1 102.3 1C102.4 1 102.7 1.3 102.9 1.3C103.1 1.3 103.4 1.3 103.6 1.2C103.7 1.2 103.7 1.1 103.7 1.1C104 0.8 104.3 1 104.6 1C104.9 1.5 105.5 1.4 106 1.4C106.1 1.4 106.2 1.5 106.3 1.5C106.4 1.6 106.5 1.8 106.7 1.6C106.9 1.3 107.3 1.5 107.6 1.4C107.8 1.3 108 1.1 108.2 1C108.3 1 108.5 0.9 108.6 1C109.8 1.7 111.1 1.3 112.3 1.4C112.5 1.4 112.6 1.6 112.7 1.8C112.9 1.4 113.3 1.4 113.7 1.4C114 1.4 114.3 1.4 114.7 1.4C114.9 1.7 115.2 2 115.5 1.7C115.8 1.5 116 1.4 116.3 1.4C117.4 1.4 118.5 1.4 119.6 1.4C119.9 1.4 120.2 1.5 120.4 1.7C120.6 1.8 121 1.9 121.1 1.8C122.1 0.999999 123.2 1.6 124.2 1.4C124.3 1.4 124.4 1.6 124.5 1.6C124.7 1.7 125 1.8 125 1.7C125.4 1.2 125.9 1.3 126.4 1.3C126.7 1.3 127 1.3 127.3 1.3C127.5 1.4 127.7 1.7 127.8 1.6C128 1.5 128.1 1.3 128.4 1.3C129.1 1.3 129.8 1.3 130.5 1.4C130.7 1.8 131 1.7 131.2 1.3C132 1.3 132.9 1.3 133.7 1.3C134.1 1.3 134.2 1.8 134.7 1.7C135 1.6 135.3 1.7 135.7 1.7C136 1.7 136.1 1.4 136.3 1.3C136.6 1.8 137.1 1.7 137.5 1.7C137.9 1.7 138.3 1.8 138.5 1.4C138.5 1.4 138.6 1.3 138.7 1.3C139.4 1.1 139.9 1.5 140.5 1.7C140.9 1.2 141.5 1.3 142.1 1.3C142.4 1.9 143.2 1.4 143.6 1.9C143.7 2 144.1 2 144.1 2C144.4 1.4 145.3 1.9 145.6 1.3C146 1.3 146.5 1.3 146.9 1.3C147.1 1.7 147.6 1.6 147.9 1.6C148.2 1.6 148.5 1.5 148.8 1.5C149.2 0.9 149.3 1.7 149.7 1.6C150 1.5 150.3 1.6 150.7 1.6C151.1 1.6 151.3 1.6 151.7 1.6C152.1 1.6 152.5 1.6 152.9 1.6C153.2 1.6 153.5 1.6 153.9 1.6C154.2 1.2 154.7 1.1 155.1 1.3C155.4 1.4 155.6 1.6 155.9 1.6C157.3 1.6 158.7 1.6 160.2 1.6C160.4 1.6 160.6 1.5 160.7 1.4C160.9 1.2 160.9 1.3 161.1 1.4C161.5 1.7 161.6 1.6 162.6 1.6C163.4 1.6 164.3 1.6 165.1 1.6C165.9 1.6 166.6 1.6 167.4 1.6C167.7 2.1 168.2 2.1 168.6 1.9C168.9 1.8 169.1 1.6 169.4 1.6C170.7 1.6 172 1.6 173.3 1.6C173.6 1.6 173.8 1.8 174.1 1.9C175 1.2 176 1.8 176.9 1.6C177.2 1.5 177.3 1.9 177.5 1.9C177.7 1.9 177.8 1.5 178.1 1.6C178.7 1.7 179.4 1.4 179.9 2C180.6 1.9 181.4 2.2 182.1 1.7C182.4 1.5 183 1.5 183.4 1.7C184.5 2 184.5 2 185.6 1.7C186 1.6 186.4 1.7 186.7 1.6C187.3 2.2 188 2 188.7 2C189.9 2 191 2.1 192.2 2C193 2 193.9 2.4 194.6 1.6C195.4 1.6 196.1 1.6 196.9 1.6C197 1.6 197.1 1.8 197.2 1.9C197.5 2 197.8 2.1 198.1 2C199.4 1.6 199.4 1.6 201.1 2C201.3 2.1 201.6 2.1 201.8 2.1C202.3 2 202.7 2.3 203.2 2.5C203.5 2.6 203.7 3.1 204.2 2.9C204.6 2.8 204.8 3.1 205 3.3C205.7 3.1 206 3.6 206.5 4C206.9 4.4 207.2 4.8 207.8 5C208 5 208.2 5.2 208.2 5.4C208.3 6.2 209.1 6.4 209.4 7.1C209.4 7.4 209.4 7.7 209.6 8.1C209.8 8.5 210.3 9 210.1 9.6C210.5 10 210.5 10.5 210.5 11C210.5 11.2 210.6 11.3 210.7 11.5C211 12 211 12.5 210.8 12.9C210.7 13.1 210.5 13.2 210.8 13.5C211 13.8 211 14.2 211.3 14.4C211.2 14.9 211.5 15.2 211.7 15.6C211.9 15.9 211.7 16.4 211.7 16.7C211.7 16.8 211.7 17 211.7 17.1C211.6 18 212 19 211.3 19.8C211.3 20.5 211.4 21.2 210.9 21.8V22C211.5 22.5 211.2 23.2 211.3 23.8C211.3 24 211.5 24.1 211.5 24.3C211.7 24.8 211.7 25.2 211.5 25.7C211.2 26.5 211.1 27.4 211.4 28C211.6 28.3 211.7 28.5 211.4 28.8C211.1 29.1 211.1 29.5 210.9 29.8C210.7 30 210.7 30.5 211.1 30.8C211.3 30.9 211.3 31 211.1 31.1C211 31.2 210.8 31.4 210.8 31.6C210.9 32.3 210.5 33.1 211.2 33.8C211.1 34.3 211.4 34.8 210.9 35.2C210.8 35.3 210.8 35.6 210.9 35.7C211.4 36.1 211.2 36.6 211.2 37.1C210.6 37.7 210.8 38.4 210.8 39.1C210.8 40 210.8 40.9 210.8 41.8C210.8 42.5 210.5 43.2 211.2 43.8C211.1 44.4 211.5 45.1 211 45.6C210.9 45.7 210.9 45.9 210.9 46.1C210.9 47.8 210.9 49.5 210.9 51.1C210.9 51.3 210.9 51.5 211.1 51.6C211.5 52 211.3 52.6 211.3 53C210.6 53.7 211 54.6 211 55.3C211.5 55.6 211.2 56.1 211.3 56.5C211.5 57.3 210.8 57.9 210.9 58.7C211 59.5 210.9 60.2 210.9 61C210.9 61.1 210.8 61.2 210.7 61.3C210.4 61.6 210.6 61.9 210.6 62.2C211.1 62.5 211 63.1 211 63.6C211 64.2 211.1 64.9 211 65.5C210.9 66.4 211.3 67.3 210.6 68C210.6 68.7 210.6 69.4 210.6 70.1C210.6 70.6 210.9 71.3 210.3 71.7C210.3 71.7 210.4 71.9 210.4 72C210.7 72.8 210.7 73.4 210.3 73.9C209.9 74.4 210.3 74.6 210.5 74.9C210.5 76.3 210.5 77.7 210.5 79.1C210.5 79.5 210.5 80 210.1 80.3C210.9 81.1 210.3 82 210.5 82.9C210.6 83.5 210.7 84.1 210.2 84.7C210.1 84.8 210.1 85.3 210.3 85.4C210.6 85.7 210.5 85.9 210.3 86.1C210.2 86.2 210.3 86.5 210.6 86.9C210.6 87.5 210.6 88.1 210.6 88.6C210.6 89 210.1 89.3 210.2 89.8C210.3 90.2 210.2 90.6 210.2 91C210.2 91.4 210.2 91.9 210.2 92.3C209.9 92.5 209.6 92.8 209.9 93.1C210.1 93.4 210.2 93.6 210.2 93.9C210.3 94.6 209.9 95.4 210.5 96.1C210.5 96.1 210.4 96.3 210.3 96.4C209.9 96.8 210.3 97.1 210.5 97.3C210.4 97.5 210.2 97.7 210.2 98C210.2 99.2 210.2 100.4 210.2 101.6C210.5 101.9 210.9 102.1 210.4 102.6C210.1 102.9 210.2 103.3 209.9 103.6C209.8 103.6 209.9 103.9 209.9 104.1C210.3 105.1 210.3 105.3 209.8 106.3C209.8 106.9 209.2 107.2 209.4 107.9C209.5 108.4 209.3 109 209.8 109.5C209.9 109.6 209.8 110 209.8 110.3C209.8 112.4 209.8 114.4 209.8 116.5C209.8 116.9 209.8 117.2 210.1 117.6C210.3 117.8 210.2 118.3 210.2 118.7C209.7 119.2 209.8 119.9 209.8 120.5C209.8 120.8 209.5 120.9 209.5 121.1C209.5 121.6 209.2 122.1 209.7 122.5C209.8 122.6 209.9 122.8 209.8 123C209.7 123.8 210.2 124.7 209.4 125.4C209.3 126.3 209.3 127.2 209.3 128.1ZM202.8 159.4C202.8 155.3 202.8 151.2 202.8 147C202.8 146.5 202.6 145.8 203.2 145.4C203.1 145.1 203.3 144.8 203.1 144.5C202.7 143.9 202.8 143.9 203 143.3C203.1 143.1 203.2 143 203.2 142.8C203.2 142.1 203.4 141.3 202.8 140.6C202.7 140.5 202.8 140.1 202.9 139.9C203 139.7 203.3 139.5 202.9 139.3C202.7 139.2 202.8 138.9 202.8 138.8C202.6 138.2 203.1 137.9 203.2 137.4C203.2 136.7 203.5 135.9 202.8 135.2C202.8 134.5 202.7 133.8 202.8 133.1C202.9 132.7 203.2 132.4 203.4 132C203.6 131.5 203.6 131.5 203.3 130.8C203.3 130.7 203.2 130.7 203.2 130.7C203.2 130 203.2 129.3 203.2 128.6C203.2 128.3 203.5 128.2 203.6 128C203.7 127.9 203.7 127.7 203.6 127.6C203.1 127.3 203.3 126.8 203.2 126.4C203 125.7 203.6 125.4 203.6 124.8C203.6 123 203.6 121.2 203.6 119.5C203.3 119.2 203.1 119 202.8 118.7C202.8 118.6 202.8 118.4 202.8 118.2C202.8 118 202.9 117.9 203 117.7C203.2 117.4 203.2 117 203.5 116.7C203.7 116.5 203.5 116.1 203.5 115.8C203.5 115.6 203.5 115.4 203.5 115.2C203.2 114.9 202.8 114.7 203.3 114.3C203.5 114.1 203.5 113.9 203.5 113.6C203.5 111.1 203.5 108.6 203.5 106.1C203.5 105.8 203.4 105.5 203.2 105.3C203.1 105.2 203.1 104.9 203.2 104.8C203.5 104.6 203.5 104.3 203.5 103.9C203.5 103.5 203.5 103.2 203.1 102.9C203 102.8 203 102.3 203.1 102.2C203.6 101.8 203.5 101.3 203.5 100.8C203.5 98.6 203.5 96.4 203.5 94.2C203.5 93.9 203.6 93.6 203.8 93.3C204.1 92.9 204 92.4 203.8 91.9C203.7 91.7 203.6 91.6 203.6 91.4C203.6 90.6 203.6 89.7 203.6 88.9C203.6 88.1 203.3 87.2 204 86.5C203.9 86 204.1 85.4 203.8 84.8C203.5 84.3 203.5 82 203.7 81.5C203.9 81.2 204 81 204 80.6C204 80.1 204.2 79.6 203.6 79.2C203.6 78.4 203.6 77.7 203.6 76.9C203.6 76.5 203.9 76.4 204 76.1C204.1 75.7 204 75.3 204 75C203.5 74.7 203.7 74.2 203.7 73.8C203.7 73.2 203.6 72.7 204.1 72.2C204.1 71.2 204.1 70.3 204.1 69.3C203.4 68.5 203.8 67.5 203.7 66.6C203.6 65.6 203.7 64.5 203.7 63.5C203.7 63.1 203.6 62.6 204.1 62.3C204.1 62 204.3 61.6 204 61.4C203.8 61.2 203.7 61 203.7 60.7C203.7 59.4 203.7 58.1 203.7 56.8C203.7 56.7 203.7 56.5 203.7 56.4C204.1 56.1 204.1 55.8 204.1 55.4C204.1 55 204.3 54.5 203.8 54.2C203.8 53.6 203.8 52.9 203.7 52.3C203.7 52 203.8 51.7 204 51.5C204.2 51.2 204.2 50.8 203.9 50.5C203.4 50.1 203.9 49.8 204.1 49.6C204.1 48.8 204.1 47.9 204.1 47.1C204.1 46.9 203.9 46.8 203.9 46.6C203.8 46.4 203.7 46.1 203.8 46.1C204.2 45.8 204.1 45.5 204.2 45.1C204.2 44.4 203.9 43.6 204.6 42.9C204.5 42.3 204.8 41.6 204.3 41.1C204.1 40.9 204.2 40.6 204.5 40.5C204.7 40.3 204.8 40.1 204.6 39.8C204.1 39.3 204.3 38.7 204.5 38.2C204.6 38 204.7 37.8 204.7 37.5C204.7 37 204.7 36.5 204.7 36C204.7 35.5 204.6 35 204.7 34.5C204.8 33.9 204.4 33.6 204.3 33.1C204.1 32.4 204.5 31.8 204.9 31.2C205.1 30.8 204.7 30.8 204.7 30.6C204.7 30.1 204.6 29.6 204.7 29.1C204.8 28.5 204.5 28.2 204.3 27.7C204.2 27.4 204.2 27.1 204.6 26.9C204.7 26.8 204.7 26.7 204.6 26.6C204.2 26.3 204.2 25.8 204.4 25.6C204.7 25.3 204.8 24.9 204.7 24.6C204.5 24.1 205.1 23.9 205.1 23.4C205.1 22.4 205.1 21.5 205.1 20.6C204.8 20.3 204.6 20.1 204.3 19.8C204.3 19.3 204.3 18.8 204.3 18.3C204.3 17.8 204.2 17.3 204.3 16.8C204.4 16.2 204 15.9 203.9 15.4C203.8 14.7 203.9 14 203.9 13.3C203.9 12.8 204 12.2 203.9 11.8C203.8 11.4 203.3 11 203.2 10.5C203.1 10.1 202.9 9.9 202.7 9.8C202.4 9.6 202.5 9.2 202.3 8.9C201.8 8.9 201.2 8.9 200.6 8.9C200.1 8.9 199.6 8.9 199.1 8.8C198.6 8 198.1 9 197.7 8.9C197.6 8.9 197.4 9 197.3 8.9C196.6 8.2 195.7 8.6 194.9 8.5C194.7 8.5 194.5 8.5 194.4 8.6C194 9.1 193.4 8.8 193 8.8C192.8 8.8 192.7 8.4 192.4 8.5C191.5 8.6 190.6 8.2 189.8 8.9C189.7 9 189.3 8.9 189.1 8.8C188.9 8.7 188.7 8.5 188.5 8.5C186.8 8.5 185 8.5 183.3 8.5C183.1 8.5 182.9 8.6 182.8 8.7C182.4 9.1 182.1 8.7 181.9 8.5C180.2 8.5 178.4 8.5 176.7 8.5C176.5 8.5 176.2 8.4 176 8.6C175.6 9.1 175 8.8 174.6 8.8C174.3 8.2 173.7 8.4 173.2 8.4C170 8.4 166.8 8.4 163.5 8.4C162.5 8.4 161.5 8 160.6 8.8C160.5 8.9 160.3 8.8 160.3 8.7C160.1 8.4 159.8 8.4 159.5 8.4C158 8.4 156.5 8.4 155.1 8.4C154.8 8.4 154.6 8.4 154.4 8.2C154.1 7.9 154.1 8.4 153.7 8.4C153 8.4 152.1 8.4 151.2 8.4C151 8.4 150.8 8.4 150.7 8.3C150.3 7.8 149.7 8.2 149.3 8.1C148.6 8.8 147.7 8.4 147 8.4C146.5 7.8 145.8 8.1 145.2 8.1C144.9 8.1 144.6 8.5 144.2 8.5C142.5 8.5 140.7 8.5 139 8.5C138.7 8.5 138.5 8.4 138.3 8.3C137.6 8 136.8 8 136.1 8.3C135.5 8.6 135 8.6 134.4 8.3C133.9 8 133.2 8 132.6 8.3C132.1 8.6 131.5 8.6 131 8.3C130.5 8 130.1 8.1 129.6 8.2C129.2 8.7 128.7 8.5 128.2 8.5C127.6 8.5 127.1 8.5 126.5 8.4C126.4 8.4 126.3 8.2 126.2 8.2C126 8.2 125.8 8.2 125.7 8.3C125.5 8.5 125.3 8.6 125 8.6C124.1 8.6 123.2 8.6 122.3 8.6C122.2 8.5 122.1 8.4 122 8.3C121.5 8.1 121 8.1 120.6 8.4C120.1 8.7 119.6 8.6 119.2 8.6C118.9 8.1 118.4 8.3 118 8.3C112.9 8.3 107.8 8.3 102.7 8.3C102 8.3 101.2 8.5 100.5 7.9C100.4 7.8 100.1 7.8 99.9 7.9C99.5 8.2 99.2 8.3 98.7 8.3C98.6 8.3 98.4 8.6 98.3 8.6C98.2 8.6 98 8.3 97.9 8.3C97.5 8.2 97.1 8.3 96.8 8.3C96.4 7.6 96.1 8.4 95.8 8.3C95 8.2 94.3 8.2 93.5 8.3C92.6 8.3 91.7 8.1 90.9 8.7C90.8 8.8 90.4 8.7 90.2 8.6C89 8.2 88.9 8 88.6 8C88.1 8 87.6 7.9 87.1 8C86.5 8.1 86.2 7.8 85.7 7.6C85.5 7.5 85.3 7.5 85.1 7.6C84.8 7.8 84.7 8 84.3 8C83.9 7.9 83.6 8 83.2 7.7C82.8 7.4 82.3 7.5 81.8 7.8C81.2 8.2 80.6 8 80 7.9C79.7 7.4 79.2 7.6 78.8 7.6C77.5 7.6 76.2 7.6 74.9 7.6C74.6 7.6 74.3 7.6 73.9 7.6C73.7 7.6 73.6 7.1 73.4 7.3C73.1 7.6 72.8 7.6 72.5 7.6C71.9 7.6 71.3 7.6 70.8 7.6C70.4 8.1 70 8.2 69.5 7.8C69 7.5 68.5 7.5 68.1 7.7C67.7 7.9 67.4 8 67.1 8C66.6 7.9 65.9 8.2 65.5 7.7C65.1 7.7 64.6 7.7 64.2 7.6C63.7 7.5 63.4 7.1 62.8 7.2C62.4 7.3 61.9 7.2 61.5 7.2C61.1 7.2 60.6 7.2 60.1 7.2C59.7 7.2 59.3 7.2 58.9 7.2C58.4 7.2 58 7.3 57.6 7.2C57.1 7.1 56.8 7.6 56.4 7.6C55.8 7.6 55.1 7.8 54.6 7.2C54.5 7.1 54 7.1 53.9 7.2C53.6 7.5 53.3 7.5 52.9 7.5C51.9 7.5 51 7.5 50 7.5C49.6 7.5 49.3 7.4 48.9 7.2C48.6 7 48 7.1 47.6 7.2C47.3 7.3 47.1 7.5 46.7 7.5C45.7 7.5 44.6 7.5 43.6 7.5C43.2 7.5 42.8 7.5 42.6 7.1C42.6 7 42.2 7.1 42.1 7.2C41.7 7.6 41.3 7.5 40.9 7.3C40.2 7 39.2 6.9 38.6 7.2C38.1 7.5 37.7 7.5 37.3 7.1C37.2 7 36.9 7 36.8 7.1C36.6 7.3 36.4 7.4 36.1 7.4C35.6 7.3 34.9 7.6 34.5 7C33.6 7.2 32.6 6.6 31.7 7.4C31.6 7.5 31.1 7.5 31 7.4C30.7 7.1 30.4 7 30 7C29.4 7 28.8 7 28.3 7C27.7 7 27 7 26.4 7C25.8 7 25.2 7 24.7 7C24.1 7 23.4 7.1 22.8 7C22.2 6.9 21.7 7.3 21.2 7.4C20.3 7.4 19.4 7.7 18.6 7.1C18.5 7 18.1 7 18 7.1C17.5 7.6 16.8 7.5 16.2 7.5C15.7 7.5 15.2 7.7 14.8 7.1C14.3 7.1 13.8 7.1 13.3 7.1C13.1 7.1 12.9 7.1 12.8 7.2C12.5 7.6 12.1 7.4 11.9 7.4C10.7 8.1 10.3 9.4 9.69997 10.4C9.39997 10.9 9.29997 11.4 9.29997 12C9.39997 13.2 9.29997 14.4 9.29997 15.7C9.29997 16.1 9.39997 16.6 8.89997 16.9C8.89997 17.3 8.79997 17.6 9.09997 18C9.29997 18.2 9.29997 18.4 9.09997 18.6C8.79997 18.9 8.89997 19.3 8.89997 19.7C8.89997 19.8 9.09997 19.9 9.19997 20C9.29997 20.3 9.29997 20.6 9.59997 20.8C9.49997 21 9.29997 21.2 9.29997 21.4C9.19997 21.8 9.19997 22.2 9.29997 22.6C9.39997 23.1 8.99997 23.4 8.89997 23.8C8.89997 24 8.79997 24.3 8.99997 24.5C9.49997 25 9.29997 25.5 9.09997 26.1C8.99997 26.3 8.89997 26.4 8.89997 26.6C8.89997 27.4 8.89997 28.1 8.89997 28.9C8.89997 29.6 8.79997 30.3 8.89997 31C9.09997 31.8 8.39997 32.4 8.49997 33.2C8.49997 33.9 8.49997 34.6 8.49997 35.3C8.49997 35.7 8.59997 36 8.79997 36.3C8.99997 36.7 8.99997 37.2 8.69997 37.7C8.29997 38.3 8.39997 38.9 8.69997 39.5C8.79997 39.8 8.99997 40 8.89997 40.4C8.89997 40.7 8.99997 41.1 8.89997 41.3C8.59997 41.6 8.49997 41.9 8.49997 42.3C8.49997 44.2 8.49997 46 8.49997 47.9C8.69997 48.1 9.09997 48.4 8.79997 48.7C8.29997 49.3 8.29997 49.9 8.79997 50.6C8.89997 50.8 8.89997 51.2 8.79997 51.5C8.69997 51.7 8.49997 51.9 8.49997 52.2C8.49997 52.8 8.49997 53.4 8.49997 53.9C8.49997 54.3 8.49997 54.6 8.09997 54.9C7.99997 55 7.99997 55.3 7.79997 55.5C7.49997 56 7.99997 56.1 7.99997 56.4C7.99997 56.8 8.39997 57.1 8.39997 57.6C8.29997 59 8.39997 60.3 8.39997 61.7C8.39997 62.1 8.49997 62.5 8.09997 62.7C7.99997 62.7 7.99997 63 8.09997 63C8.79997 63.8 8.39997 64.7 8.49997 65.6C8.59997 66.4 8.49997 67.1 8.49997 67.9C8.49997 68.7 8.49997 69.4 8.49997 70.2C8.49997 71 8.49997 71.7 8.49997 72.5C8.49997 73.3 8.59997 74.1 8.49997 74.8C8.39997 75.5 8.89997 76.3 8.09997 77C8.59997 77.3 8.49997 77.7 8.49997 78.2C8.49997 79 8.49997 79.7 8.49997 80.5C8.49997 81.1 8.59997 81.6 8.09997 82.1C8.09997 82.4 7.99997 82.7 8.29997 83C8.39997 83.1 8.49997 83.2 8.49997 83.3C8.49997 84.8 8.49997 86.3 8.49997 87.7C8.49997 87.8 8.49997 87.8 8.39997 87.9C7.89997 88.2 8.09997 88.7 8.09997 89.1C8.09997 90 7.79997 91 8.49997 91.8C8.49997 94 8.49997 96.2 8.49997 98.4C8.49997 98.5 8.49997 98.7 8.39997 98.7C7.79997 99.1 8.39997 99.9 7.69997 100.2C7.69997 100.5 7.59997 100.8 7.69997 100.9C8.09997 101.3 7.99997 101.7 8.09997 102.1C8.29997 102.7 7.69997 103 7.69997 103.5C7.69997 104.1 7.69997 104.8 7.69997 105.4C7.69997 105.8 7.79997 106.2 7.69997 106.6C7.59997 107 7.99997 107.3 8.09997 107.6C8.09997 108 8.09997 108.4 8.49997 108.6C8.59997 108.6 8.49997 108.9 8.39997 109.1C8.29997 109.3 8.09997 109.3 8.09997 109.6C8.09997 110.2 8.39997 110.9 7.69997 111.4C7.69997 111.9 7.69997 112.4 7.69997 112.9C8.39997 113.3 7.89997 113.7 7.69997 114.1C7.49997 114.6 7.19997 115.1 7.29997 115.7C7.39997 117 7.29997 118.3 7.29997 119.6C7.29997 120.1 7.09997 120.6 7.69997 121C7.69997 121.4 7.69997 121.8 7.69997 122.2C7.09997 122.7 7.39997 123.4 7.29997 124C7.29997 124.2 7.29997 124.4 7.29997 124.6C6.69997 124.9 6.89997 125.5 6.89997 126C6.89997 126.4 7.39997 126.5 7.29997 127C7.19997 127.4 7.29997 127.9 7.29997 128.3C7.29997 128.6 7.29997 128.9 7.59997 129.1C7.69997 129.2 7.69997 129.5 7.59997 129.6C7.29997 129.8 7.29997 130.1 7.29997 130.5C7.29997 131.8 7.29997 133.1 7.29997 134.4C7.29997 134.6 7.09997 134.8 6.99997 135.1C7.09997 135.2 7.19997 135.3 7.29997 135.4C7.19997 135.5 7.09997 135.7 6.89997 135.8C7.29997 136.3 7.39997 136.6 7.19997 137C6.69997 138.1 6.79997 138.1 7.19997 139.2C7.29997 139.5 7.29997 139.9 7.09997 140.1C6.69997 140.6 6.69997 141 7.09997 141.4C7.29997 141.7 7.39997 142.1 7.09997 142.4C6.79997 142.8 6.69997 143.2 6.99997 143.6C7.09997 143.8 7.19997 143.8 6.99997 144C6.59997 144.3 6.99997 145 6.49997 145.3C6.59997 145.4 6.69997 145.6 6.89997 145.8C6.89997 146.5 6.89997 147.2 6.89997 147.9C6.89997 149 6.89997 149 6.69997 149.4C6.59997 149.6 6.49997 149.7 6.49997 149.9C6.59997 150.4 6.29997 151.1 6.79997 151.5C6.79997 152.2 6.79997 152.9 6.79997 153.6C6.39997 153.8 6.49997 154.3 6.49997 154.6C6.49997 155.2 6.49997 155.8 6.49997 156.3C6.49997 156.8 6.49997 157.3 6.49997 157.8C6.49997 158.4 6.49997 159 6.49997 159.5C6.49997 160 6.59997 160.6 6.49997 161C6.29997 161.6 6.89997 162 6.89997 162.6C6.89997 163.2 6.89997 163.8 6.89997 164.3C6.89997 164.8 6.89997 165.3 6.89997 165.8C6.89997 166.4 6.89997 167 6.89997 167.5C6.89997 168 6.99997 168.6 6.89997 169C6.69997 169.7 7.39997 170 7.29997 170.6C7.29997 171.5 7.29997 172.4 7.29997 173.3C7.19997 173.5 6.99997 173.6 6.89997 173.7C7.19997 173.9 7.49997 174.2 7.19997 174.5C6.99997 174.8 6.89997 175 6.89997 175.3C6.89997 176.9 6.89997 178.5 6.89997 180.1C6.89997 180.5 6.99997 181 6.49997 181.3C6.59997 181.4 6.69997 181.6 6.89997 181.7C6.89997 184.2 6.89997 186.7 6.89997 189.2C6.89997 189.7 6.99997 190.2 6.49997 190.6C6.39997 190.6 6.49997 190.9 6.49997 191C6.89997 191.3 6.89997 191.6 6.89997 192C6.89997 192.8 6.89997 193.5 6.89997 194.3C6.89997 194.5 6.79997 194.8 6.89997 194.8C7.39997 195.3 7.19997 195.9 7.19997 196.4C7.19997 197.4 7.19997 198.4 7.19997 199.3C7.69997 200.1 8.39997 200.5 9.09997 200.7C9.49997 200.9 9.49997 201 9.59997 201.3C9.69997 201.5 9.89997 201.7 10.1 201.9C10.5 201.9 10.9 201.9 11.2 201.9C11.6 201.9 12.1 201.8 12.3 201.9C12.6 202.1 12.9 202.3 13.3 202.3C13.6 202.3 13.8 202.5 14.1 202.7C14.9 203.1 14.9 203.1 15.5 203.1C19 203.1 22.5 203.1 25.9 203.1C26.4 203.1 26.9 202.9 27.3 203.4C28.1 203.4 28.9 203.4 29.8 203.4C30.1 202.9 30.6 203.1 31 203.1C31.4 203.1 31.8 203.1 32 203.5C32.3 203.1 32.7 203.1 33.2 203.1C33.6 203.1 34 203.1 34.3 203.1C34.8 203.5 34.8 203.5 35.2 203.3C35.4 203.2 35.5 203.1 35.7 203.1C36.7 203.2 37.7 202.8 38.6 203.5C38.8 203.7 39 203.2 39.2 203.2C40 203.1 40.7 203.2 41.5 203.1C42.3 203.8 43.2 203.4 44 203.5C44.4 203.5 44.8 203.5 45.2 203.5C45.7 203.5 46.2 203.4 46.6 203.9C46.6 204 47 203.9 47.1 203.8C47.4 203.3 48.2 203.9 48.4 203.3C48.4 203.2 48.6 203.2 48.7 203.2C48.9 203.2 49.1 203.2 49.3 203.2C49.6 203.2 49.7 203.4 49.9 203.5C50 203.5 50.3 203.2 50.5 203.2C50.7 203.2 50.9 203.4 51.3 203.6C51.3 203.6 51.4 203.6 51.5 203.6C52.2 203.5 52.9 203.9 53.5 203.2C53.5 203.1 53.8 203.2 53.9 203.2C54.1 203.6 54.6 203.5 54.8 203.7C54.9 203.8 55.1 203.9 55.2 203.7C55.4 203.4 55.7 203.6 55.9 203.5C56.2 203.4 56.4 203.2 56.7 203.1C57.1 203 57.5 203.1 57.7 203.5C58.7 203.5 59.8 203.5 60.8 203.5C60.9 203.4 61.1 203.3 61.2 203.1C61.4 203.2 61.5 203.4 61.6 203.5C62.3 203.6 63 203.3 63.6 203.9C64.3 203.9 65 203.9 65.7 203.9C66.4 203.9 67.2 204.1 67.9 203.5C68 203.4 68.4 203.5 68.6 203.6C68.8 203.6 68.9 203.9 69.1 203.9C69.8 203.9 70.5 203.9 71.2 203.9C71.3 203.9 71.5 203.7 71.7 203.5C72.4 203.7 73.3 203.1 74 203.9C74.9 203.7 75.9 204.3 76.7 203.5C77.1 203.5 77.5 203.5 77.8 203.5C78.1 204 78.6 203.8 79 203.8C80.2 203.8 81.3 203.8 82.5 203.8C82.9 203.8 83.2 203.8 83.5 203.5C83.6 203.4 84.1 203.4 84.4 203.5C85.3 203.8 85.6 203.9 86.4 203.7C86.5 203.7 86.6 203.5 86.7 203.4C86.8 203.5 87 203.7 87.1 203.8C88.3 203.8 89.4 203.8 90.5 203.8C90.7 203.9 90.9 204.1 90.9 204.1C91.3 203.6 91.6 203.7 92 204.1C92.3 204.4 92.6 204 92.8 203.8C94.3 203.8 95.9 203.8 97.4 203.8C97.5 203.9 97.7 204 97.8 204.1C98 204 98.2 203.8 98.5 203.8C99.1 203.8 99.8 203.6 100.3 204.2C100.3 204.3 100.6 204.2 100.7 204.2C100.9 204 101 203.9 101.3 203.9C102.1 203.9 103 203.9 103.8 203.9C104.1 203.9 104.3 204.2 104.6 204.2C104.9 204.2 105.1 203.9 105.4 203.9C105.7 203.8 106 203.8 106.3 204.1C106.4 204.2 106.8 204.3 106.8 204.2C107.1 203.7 107.4 204.1 107.7 204.2C108 204.3 108.5 204.2 108.8 204.2C109.3 203.6 110 204 110.6 203.9C111.4 204.6 112.3 204.2 113.1 204.3C113.5 204.3 113.9 204.3 114.1 203.9C114.1 203.8 114.4 203.9 114.6 204C114.8 204.1 114.9 204.2 115.1 204.3C115.8 204.4 116.6 204 117.3 204.7C118.3 204.7 119.4 204.7 120.4 204.7C121.2 204 122 204.2 122.8 204.7C123.2 204.6 123.6 204.8 124.1 204.5C124.9 204.1 125.8 204.3 126.7 204.4C127.2 204.9 127.7 204.8 128.2 204.3C128.3 204.2 128.5 204.2 128.6 204.3C128.9 204.7 129.2 204.7 129.6 204.7C129.8 204.7 130 204.7 130.2 204.7C131.1 204.8 132.1 204.3 132.9 205.1C133.5 205.1 134.2 205.1 134.8 205C135.1 204.5 135.6 204.7 136 204.7C136.7 204.7 137.4 204.7 138.1 204.7C138.3 204.7 138.5 204.7 138.6 204.8C139 205.3 139.3 205.1 139.7 204.7C139.8 204.6 140 204.6 140.1 204.7C140.4 205.1 140.9 205.1 141.3 205.1C141.9 205.1 142.5 205.1 143 205.1C143.5 205.1 144.2 205.1 144.7 205.1C145.2 205.1 145.9 205.1 146.4 205.1C147 205.1 147.5 204.9 148 204.7C148.6 204.6 149.3 204.7 149.9 204.7C150.5 204.7 151.2 204.5 151.7 205.1C153.2 205.1 154.7 205.1 156.1 205.1C156.2 205.1 156.3 205 156.4 204.9C156.9 204.6 157.4 204.6 157.8 204.8C158.1 205 158.3 205.1 158.7 205.1C159.5 205.1 160.4 205.1 161.2 205.1C161.5 205.1 161.7 205.2 161.9 205.3C162.5 205.6 163.1 205.6 163.7 205.3C164 205.1 164 205.2 164.3 205.3C164.5 205.4 165 205.5 165.2 205.4C165.5 205.1 165.9 205.1 166.2 205.1C167.4 205.1 168.5 205.1 169.7 205.1C170 205.1 170.3 205.2 170.5 205.4C170.6 205.5 170.9 205.4 171 205.4C171.8 205.1 172.4 204.9 172.9 205.2C173.2 205.4 173.5 205.5 173.8 205.4C174.2 205.4 174.6 205.6 174.9 205.3C175.3 204.8 175.5 205.6 175.8 205.5C176 205.4 176.3 205.5 176.5 205.3C176.9 204.9 177.5 204.9 177.9 205.2C178.3 205.4 178.6 205.5 179 205.5C180.4 205.5 181.7 205.5 183.1 205.5C183.3 205.5 183.7 205.5 183.8 205.4C184.4 204.8 184.9 205.3 185.5 205.5C185.8 205.6 185.9 205.9 186.1 205.9C186.3 205.9 186.4 205.5 186.7 205.6C187.3 205.6 187.8 205.6 188.4 205.6C188.9 205 189.6 205.3 190.2 205.3C190.3 205.3 190.3 205.3 190.4 205.2C190.7 204.8 191.1 205 191.4 204.9C191.8 204.7 192.2 204.4 192.6 204.6C193.1 204.7 193.2 204.2 193.6 204.2C193.9 204.2 194.2 204.2 194.5 203.9C194.8 203.6 195.2 203.8 195.6 203.8C196 203.7 196.1 203.3 196.6 203.4C197.1 202.9 197.6 202.4 198.1 201.9C198.9 201.9 199.3 201.1 199.7 200.6C200.1 200.1 200.2 199.4 200.6 198.9C200.3 198.2 200.9 197.6 201 196.9C201 196.6 201.3 196.4 201.4 196.1C201.5 195.3 201.4 194.5 201.4 193.8C201.5 193.1 201 192.2 201.8 191.6C201.7 191.4 201.4 191.3 201.4 191C201.5 190.4 201.2 189.7 201.8 189.2C201.8 188.9 201.9 188.5 201.6 188.3C201.3 188.1 201.3 187.6 201.4 187.4C201.9 186.8 201.7 186.1 201.8 185.4C201.8 185 201.8 184.6 201.8 184.2C202.5 183.5 202.1 182.6 202.2 181.8C202.2 181.6 202.2 181.4 202.1 181.3C201.6 180.9 201.9 180.3 201.8 179.9C202.4 179.5 202.2 178.9 202.2 178.3C202.2 174.1 202.2 169.8 202.2 165.6C202.5 165.3 202.9 165.1 202.4 164.6C202.2 164.4 202.1 164.2 202.3 163.9C202.4 163.7 202.6 163.6 202.6 163.5C202.6 162.3 202.6 161.1 202.6 159.8C202.6 159.7 202.4 159.5 202.3 159.3C202.5 159.7 202.6 159.5 202.8 159.4Z" fill="white"/>
<path d="M201.1 127.8C201.3 128 201.6 128.2 201.4 128.5C201 129.4 201 129.7 201.3 130.4C201.4 130.6 201.4 130.8 201.4 131.1C201.4 132 201.4 132.9 201.4 133.8C201.4 134.3 200.9 134.6 201 135.1C201.1 135.6 201 136 201 136.5C201 137 201 137.4 201 137.9C201 138.4 201 138.9 201 139.3C201 139.5 200.8 139.7 200.7 139.9C200.8 140 200.9 140.1 201 140.2C200.6 140.5 200.5 141 200.7 141.3C201.1 142 201.2 142.7 200.7 143.4C200.6 143.5 200.7 143.7 200.6 143.9C200.5 144.2 201.3 144.5 200.6 144.9C200.6 145.3 200.6 145.6 200.6 146C200.6 146.3 200.7 146.4 200.9 146.6C201 146.7 201 147 201 147.1C200.7 147.4 200.7 147.7 200.7 148C200.7 149.2 200.7 150.5 200.7 151.7C200.7 153.1 200.7 154.5 200.7 156C200.7 156.6 200.9 157.3 200.4 157.8C200.3 157.9 200.3 158.2 200.4 158.3C201.1 159.1 200.6 160 200.7 160.8C200.2 161.3 200.4 161.9 200.3 162.4C200.3 162.7 200.5 162.8 200.7 163C200.3 163.3 200.4 163.7 200.3 164.1C199.7 164.6 200 165.3 200 165.9C200.4 166.2 200.3 166.6 200.3 167C200.3 167.6 200.4 168.3 200 168.8C199.9 168.9 199.9 169.2 200 169.3C200.5 169.8 200.3 170.5 200.3 171.1C200.3 171.8 200.3 172.5 200.3 173.2C199.6 173.7 200.1 174.4 199.9 175.1C199.9 175.2 199.6 175.3 199.7 175.4C200 176.7 200.1 177.7 199.9 178.3C199.8 178.5 199.6 178.6 199.6 178.9C199.6 179.6 199.6 180.3 199.6 181C199.9 181.3 200 181.7 200 182.1C200 182.3 200 182.5 199.8 182.7C199.5 183 199.7 183.2 199.9 183.4C200 183.5 200.1 183.8 200 183.9C199.4 184.3 199.7 184.9 199.7 185.4C199.7 185.8 199.5 186.4 200 186.7C200 187.4 200 188.1 200.1 188.8C199.5 189.6 199.9 190.6 199.7 191.5C199.6 191.9 199.9 192.4 199.4 192.8C199.3 192.9 199.3 193.3 199.4 193.5C199.5 194 199.2 194.4 199 194.8C198.6 195.6 198.7 195.6 198.6 196.3C198.6 196.6 198.7 197 198.5 197.3C198.1 197.8 198 198.6 197.5 199C197.1 199.3 196.8 199.7 196.5 200C196.6 200.6 196.4 201.1 195.8 201.2C195.5 201.3 195.3 201.7 194.9 201.6C194.7 201.8 194.4 201.9 194.2 202C194 202.1 193.7 202.2 193.5 202.4C193.2 202.5 193.1 202.8 192.9 203C192.6 203.3 192 203.6 191.3 203.7C191 203.8 190.8 204.2 190.4 204.1C190.1 204 189.8 204.1 189.4 204.3C189.2 204.5 188.7 204.3 188.4 204.4C187.4 205.1 186.3 204.6 185.3 204.7C185.2 204.7 185 204.6 184.8 204.5C184.4 204.3 184.4 204.3 183.9 204.7C181.7 204.7 179.4 204.7 177.1 204.7C177 204.6 176.9 204.5 176.8 204.4C176.6 204.5 176.4 204.7 176.2 204.7C175.2 204.7 174.2 204.7 173.2 204.7C172.8 204.7 172.7 204.4 172.5 204.3C172.2 204.2 171.9 204.3 171.6 204.3C171.3 204.3 171 204.3 170.8 204.6C170.7 204.7 170.5 204.7 170.5 204.7C169.7 204 168.8 204.4 168 204.4C167.1 204.3 166.2 204.4 165.3 204.4C164.9 204.4 164.8 204.9 164.4 204.8C164.1 204.7 163.8 204.8 163.5 204.8C163.1 204.8 162.9 204.3 162.4 204.4C162 204.5 161.6 204.4 161.2 204.4C160.8 204.4 160.4 204.4 160 204.4C159.6 204.4 159.2 204.4 158.8 204.4C158.6 204.2 158.4 203.9 158.1 204.1C157.9 204.3 157.7 204.4 157.3 204.4C155.3 204.4 153.4 204.4 151.4 204.4C151.1 204.4 150.8 204.4 150.6 204.1C150.6 204.1 150.4 204.3 150.2 204.4C150.1 204.3 150 204.2 149.8 204.1C149.4 204.1 149 204.1 148.6 204.1C148.2 204.1 148 204.6 147.5 204.5C147.2 204.4 146.8 204.5 146.4 204.5C146 204.5 145.6 204.5 145.2 204.5C144.8 204.5 144.5 204.5 144.2 204.5C144 204.4 143.9 204.3 143.8 204.2C143.5 204.6 143.1 204.5 142.7 204.5C142.6 204.5 142.6 204.5 142.5 204.5C141.5 204.3 140.4 204.9 139.4 204.1C138.6 204.3 137.8 203.7 137 204.4C137 204.4 136.9 204.4 136.8 204.4C136.2 204.4 135.6 204.4 135 204.4C134.4 204.4 133.8 204.7 133.4 204.1C132.7 204.1 132 204.1 131.3 204.1C131.2 204.1 131.1 204.3 131 204.3C130.9 204.4 130.6 204.5 130.5 204.4C130 204 129.6 203.9 129.1 204.3C129 204.4 128.7 204.4 128.6 204.3C128.2 203.8 127.7 204.1 127.3 204C126.7 204.6 125.9 204.3 125.1 204.3C124.4 204.3 123.7 204.3 123 204.3C122.9 204.3 122.8 204.1 122.7 204.1C122.4 203.9 122.4 203.9 122.1 204.1C122 204.2 121.8 204.3 121.7 204.3C121 204.2 120.3 204.6 119.7 204C118.9 204 118.2 204 117.4 204C117.3 204 117.2 204.1 117.1 204.2C116.8 204.6 116.3 204.3 115.9 204.4C115.3 203.8 114.6 204.1 113.9 204.1C113.2 204.1 112.6 204.1 111.9 204.1C111.3 204.7 110.5 204.4 109.7 204.5C109.4 204 108.9 204.1 108.4 204.1C107.9 204.1 107.5 204 107.1 204.4C107 204.5 106.5 204.5 106.4 204.4C106.1 203.8 105.3 204.3 105 203.8C104.6 203.8 104.2 203.8 103.8 203.8C103.6 204.2 103.2 204.1 102.9 204.1C102.5 204.1 102.1 204.1 101.8 204.4C101.5 204.6 101 204.5 100.7 204.1C99.3 204.1 97.9 204.1 96.4 204.1C95.7 204.1 94.9 204.5 94.2 203.8C92.2 203.8 90.2 203.8 88.2 203.8L88.1 203.9C87.7 204.3 87.2 204.2 86.8 204C86.5 203.8 86.2 203.7 85.8 203.7C84 203.7 82.1 203.7 80.3 203.7C80 203.7 79.6 203.7 79.3 204C79 204.2 78.8 203.9 78.6 203.7C72.9 203.7 67.1 203.7 61.4 203.7C60.9 203.7 60.4999 203.8 60.0999 203.4C59.9999 203.3 59.5 203.3 59.4 203.4C59.1 203.8 58.6999 203.7 58.2999 203.7C57.4999 203.7 56.8 203.7 56 203.7C55.4 203.7 54.9 203.1 54.2 203.3C53.8 203.4 53.3999 203.1 53.0999 203.6C52.3999 203.7 51.6999 203.8 51.0999 203.5C50.5999 203.3 50.1 203.2 49.7 203.5C49.6 203.6 49.3 203.7 49.2 203.6C48.8 203.1 48.4 203.3 47.9 203.3C47.7 203.3 47.6 203.1 47.5 203C47.2 202.8 46.9 202.8 46.7 202.9C46.5 203 46.2 203.2 46 203.3C45.1 203.7 45.1 203.7 44.5 203.2C44.2 202.9 43.9999 202.8 43.5999 203.2C43.4999 203.3 43.2999 203.3 43.0999 203.3C42.5999 203.4 41.9999 203.1 41.5999 203.7C41.2999 203.7 40.8999 203.8 40.5999 203.4C40.2999 202.9 39.7999 202.7 39.2999 203.1C39.1999 203.2 39.1 203.3 39 203.3C38.3 203.2 37.6 203.6 37 203C36.5 203 35.8999 202.8 35.5999 203.3C35.4999 203.2 35.3 203.1 35.2 203C34.5 203 33.7999 203 33.0999 203C32.7999 203 32.7 203.2 32.5 203.3C32.3 203.4 32 203.3 31.7 203.4C31.4 203 30.9999 203.1 30.5999 203.1C30.1999 203.1 30 203.1 29.6 203.4C29.4 203.6 29 203.5 28.6 203.3C28.3 203 27.9 203 27.5 203.4C27.4 203.5 27.1 203.6 27 203.5C26.7 203.1 26.3 203.2 25.9 203.2C24.8 203.2 23.6 203.2 22.5 203.2C22.1 203.2 21.7 203.4 21.4 202.9H21.3C20.7 203.5 20 203.2 19.3 203.2C18.4 203.2 17.4 203.5 16.6 202.9C15.9 202.9 15.3 202.9 14.6 202.9C14.1 202.1 13.1 202.1 12.4 201.5C12 201.5 12 201.3 11.9 201C11.7 200.6 11.4 200.4 11 200.1C10.6 199.8 10.5 199.3 10.2 199C9.89995 198.7 9.79995 198.4 9.59995 198C9.49995 197.9 9.39995 197.7 9.39995 197.6C9.39995 197.2 9.39995 196.9 9.39995 196.5C9.39995 196 9.49995 195.6 8.99995 195.2C8.99995 194.7 8.99995 194.1 8.99995 193.6C8.99995 193.1 8.99995 192.7 8.99995 192.2C8.39995 191.4 8.69995 190.5 8.59995 189.7C9.09995 189.2 8.99995 188.6 8.89995 188.1C8.89995 187.7 9.09995 187.1 8.59995 186.8C8.69995 186.4 8.39995 185.9 8.79995 185.5C8.89995 185.4 8.89995 185.3 8.89995 185.2C8.89995 184.7 8.89995 184.1 8.89995 183.6C9.29995 183.3 9.29995 182.9 9.19995 182.5C8.89995 181.4 8.89995 181.4 9.19995 180.4C9.29995 180.1 9.29995 179.8 9.19995 179.6C8.99995 179.3 8.89995 179.1 8.89995 178.8C8.99995 178.1 8.59995 177.4 9.19995 176.8C9.19995 175.7 9.19995 174.7 9.19995 173.6C8.59995 173.1 8.89995 172.4 8.79995 171.8C9.19995 171.5 9.19995 171.1 9.09995 170.7C9.09995 170.4 9.19995 170 8.79995 169.7C8.69995 169.6 8.69995 169.4 8.69995 169.2C8.79995 168.4 8.39995 167.4 8.99995 166.7C8.99995 165.5 8.99995 164.2 8.99995 163C8.99995 162.9 8.89995 162.8 8.79995 162.7C8.39995 162.3 8.69995 162.1 8.99995 161.8C8.99995 159.7 8.99995 157.7 8.99995 155.6C8.99995 155.2 8.99995 154.9 8.59995 154.7C8.59995 154.2 8.59995 153.8 8.59995 153.3C8.69995 153.2 8.79995 153 8.89995 152.9C8.69995 152.7 8.39995 152.5 8.59995 152.2C8.79995 152 8.89995 151.7 8.89995 151.4C8.89995 150.8 8.89995 150.2 8.89995 149.6C8.89995 149.3 9.59995 149 8.89995 148.6C8.79995 148.3 8.99995 147.9 8.69995 147.6C8.39995 147.3 8.59995 146.8 8.59995 146.4C9.19995 146 8.89995 145.4 8.89995 144.9C8.89995 143.4 8.89995 141.8 8.89995 140.3C8.89995 140 8.89995 139.7 8.69995 139.3C8.49995 139 8.49995 138.4 8.79995 138C9.09995 137.6 8.99995 137.3 8.79995 136.9C8.49995 136.5 8.59995 136.1 8.69995 135.6C8.69995 135.5 8.89995 135.4 8.89995 135.3C8.69995 135.1 8.39995 134.8 8.59995 134.6C8.89995 134.3 8.89995 134 8.89995 133.7C8.89995 131.7 8.89995 129.7 8.89995 127.6C8.89995 127 8.79995 126.4 9.19995 126C9.29995 125.9 9.29995 125.6 9.19995 125.5C8.69995 125 8.89995 124.3 8.89995 123.7C8.89995 122.4 8.89995 121.1 8.89995 119.8C8.89995 118.9 8.89995 118.9 9.49995 117.7C9.59995 117.5 9.59995 117.3 9.59995 117C9.59995 116.9 9.59995 116.7 9.49995 116.7C9.19995 116.6 8.79995 116.6 8.89995 116.1C8.99995 115.7 8.49995 115.6 8.49995 115.2C8.49995 115 8.49995 114.8 8.49995 114.7C8.49995 114.6 8.29995 114.5 8.19995 114.3C8.39995 114.1 8.59995 113.9 8.89995 113.6C8.89995 113.3 8.89995 113 8.89995 112.8C8.79995 112.5 8.59995 112.3 8.59995 112.1C8.59995 111.4 8.49995 110.7 8.59995 110C8.69995 109.6 8.99995 109.2 8.89995 108.7C8.79995 108.2 8.89995 107.6 8.89995 107.1C8.89995 106.6 8.89995 106.2 8.89995 105.7C8.89995 105.2 8.89995 104.8 8.89995 104.3C8.89995 104.2 8.89995 104.2 8.89995 104.2C8.79995 104.1 8.59995 103.8 8.59995 103.8C9.19995 103.2 8.89995 102.4 8.89995 101.8C8.89995 101.5 8.59995 101.1 8.39995 100.8C8.29995 100.7 8.19995 100.6 8.39995 100.5C8.49995 100.4 8.59995 100.3 8.69995 100.2C8.69995 99.7 8.69995 99.1 8.69995 98.6C8.69995 98.5 8.49995 98.3 8.49995 98.2C8.39995 98 8.39995 97.9 8.39995 97.7C8.49995 97.5 8.69995 97.4 8.69995 97.1C8.79995 96.6 8.39995 96 8.99995 95.6C8.99995 95.1 9.09995 94.6 9.09995 94C9.09995 93.5 9.09995 93.1 9.09995 92.6C9.09995 92.1 9.09995 91.5 9.09995 91C9.09995 90.8 9.09995 90.5 9.09995 90.3C9.09995 89.9 9.19995 89.5 8.79995 89.2C8.59995 89.1 8.69995 88.6 8.69995 88.4C8.89995 87.9 9.09995 87.5 9.09995 86.9C8.99995 86.4 9.09995 85.8 9.09995 85.3C9.19995 84.7 8.79995 84 9.39995 83.5C9.29995 82.9 9.59995 82.4 9.19995 81.8C8.89995 81.4 8.89995 80.8 9.29995 80.4C9.39995 80.3 9.39995 80 9.29995 79.9C8.99995 79.6 8.99995 79.3 8.99995 78.9C8.99995 78.2 8.99995 77.5 8.99995 76.8C8.99995 76.4 8.79995 75.8 9.19995 75.5C9.49995 75.2 9.09995 74.7 9.59995 74.4C9.69995 74.3 9.69995 74.1 9.79995 73.9C9.79995 73.5 9.79995 73.1 9.79995 72.7C9.79995 72.5 9.59995 72.3 9.49995 72C9.49995 71.2 9.49995 70.3 9.49995 69.4C9.49995 68.8 9.29995 68.2 9.79995 67.8C9.79995 67.4 9.89995 67 9.69995 66.8C9.49995 66.5 9.39995 66.2 9.39995 65.8C9.39995 65.2 9.39995 64.5 9.39995 63.9C9.89995 63.6 9.69995 63.1 9.69995 62.6C9.69995 62.3 9.79995 62.1 9.99995 61.8C10.1 61.6 9.99995 61.2 10.1 60.9C10.2 60.5 9.59995 60.4 9.69995 60C9.79995 59.7 9.69995 59.3 9.69995 58.9C9.69995 58.8 9.49995 58.6 9.39995 58.5C9.59995 58.3 9.99995 58 9.59995 57.7C9.39995 57.5 9.29995 57.3 9.39995 57.1C9.49995 56.8 9.69995 56.5 9.69995 56.2C9.69995 55.9 9.29995 55.7 9.39995 55.3C9.39995 55.1 9.29995 54.9 9.39995 54.8C10.1 54 9.59995 53 9.69995 52.1C9.69995 52 9.59995 51.8 9.49995 51.7C9.29995 51.4 9.29995 51.4 9.49995 51.1C9.69995 50.9 9.69995 50.7 9.69995 50.5C9.69995 48.3 9.69995 46.1 9.69995 43.9C9.69995 43.5 9.69995 43.1 9.69995 42.7C9.69995 42.4 9.79995 42.3 9.99995 42.1C10.2 41.9 10.1 41.7 9.89995 41.5C9.69995 41.4 9.79995 41.3 9.89995 41.1C10.3 40.8 9.99995 40.3 10.1 39.9C9.49995 39.4 9.79995 38.7 9.79995 38.1C9.79995 37 9.79995 35.8 9.79995 34.7C9.79995 34.2 9.69995 33.8 10.1 33.4C10.2 33.3 10.2 32.8 10.1 32.7C9.69995 32.4 9.79995 32 9.79995 31.6C9.79995 30.7 9.79995 29.8 9.79995 28.9C9.79995 28.6 9.89995 28.4 9.99995 28.1C10.2 27.8 10.1 27.3 10.1 26.9C9.69995 26.6 9.79995 26.2 9.79995 25.8C9.79995 24.8 9.79995 23.8 9.79995 22.8C9.79995 22.4 9.59995 21.8 9.99995 21.5C10.3 21.2 9.89995 20.7 10.4 20.4C10.5 20.3 10.5 20.1 10.5 19.9C10.5 19.4 10.5 19 10.5 18.5C10.5 18.1 10.5 17.7 10.8 17.4C10.9 17.3 10.8 16.9 10.8 16.7C11.3 16.2 11.7 15.8 12.2 15.3C12.2 15.1 12.2 14.9 12.2 14.6C12.9 13.9 13.5 13.3 14.2 12.6C14.4 12.4 14.6 12.4 14.8 12.2C15.6 11.7 16.4 11.4 17.4 11.5C17.9 11.6 18.5 11.5 19 11.5C19.6 11.5 20.2 11.7 20.6 11.2C20.6 11.2 20.7 11.2 20.8 11.2C21.2 11.2 21.6 11.2 22 11.2C22.4 11.2 22.8 11.2 23.2 11.2C23.6 11.2 23.7999 10.7 24.2999 10.8C24.6999 10.9 25.1 10.8 25.5 10.8C26.4 10.8 27.3999 10.8 28.2999 10.8C28.5999 11.2 29.1 11.3 29.5 11C29.9 10.7 30.3999 10.8 30.7999 10.8C31.4999 11.5 32.4 11 33.2 11.1C33.5 10.8 33.8999 10.7 34.2999 10.7C34.6999 10.7 34.9 11.1 35.2 11.1C35.4 11.1 35.7 11.1 35.9 11.1C39.2 11.1 42.4 11.1 45.7 11.1C46.1 11.1 46.4999 11.2 46.7999 10.8C46.7999 10.7 47.0999 10.7 47.2999 10.9C47.3999 11 47.6 11.1 47.7 11.1C48 11.1 48.3 10.4 48.7 10.9C49 11.3 49.5 11 49.9 11.1C50.3 11.1 50.6999 11.1 51.0999 11.1C51.3999 11.1 51.5 11.3 51.7 11.4C51.9 11.5 52.3 11.5 52.4 11.4C52.8 11 53.4 11.1 53.9 11.1C55.3 11.1 56.6 11.1 58 11.1C58.5 11.1 58.9999 11 59.2999 11.4C59.8999 10.7 60.5999 11.1 61.2999 11.1C61.8999 11 62.5 10.9 62.9 11.4C63 11.5 63.3999 11.4 63.5999 11.4C64.6999 11 64.6999 11 65.6999 11.4C65.9999 11.5 66.2 11.3 66.4 11.1C67.5 11.1 68.4999 11.1 69.5999 11.1C69.8999 11.1 70.1 11.3 70.3 11.5C70.6 11 71.0999 11.2 71.5999 11.1C71.8999 11.1 72.1 11.2 72.4 11.3C72.7 11.5 73.3 11.5 73.6 11.3C73.9 11.1 74.2 11 74.6 11C75.4 11 76.1 11 76.9 11C77.3 11 77.6 11 77.9 11.3C78 11.4 78.4 11.4 78.6 11.3C79.4 10.6 80.3 11.1 81.1 11C81.2 11 81.3 11.2 81.4 11.2C81.7 11.4 82.1 11.4 82.4 11.2C82.8 10.8 83.2 11.1 83.6 11C84.4 11.6 85.4 11.3 86.3 11.4C86.5 11.4 86.7 11.4 86.8 11.4C87.1 11.4 87.3 11.3 87.6 11.1C87.9 10.9 88.3 10.9 88.5 11.2C88.9 11.6 89.1 11.3 89.4 11C89.8 11 90.2 11 90.6 11C91 11 91.2 11.5 91.7 11.4C92.1 11.3 92.5 11.4 92.9 11.4C93.3 11.4 93.7 11.4 94.1 11.4C94.5 11.4 94.9 11.4 95.3 11.4C95.8 11.4 96.3 11.5 96.8 11.1C96.9 11 97.4 11 97.5 11.1C97.8 11.4 98.1 11.4 98.5 11.4C99.5 11.4 100.5 11.4 101.5 11.4C101.8 11.4 101.9 11.2 102.1 11.1C102.2 11.1 102.4 11.3 102.6 11.4C102.8 11.4 103 11.4 103.3 11.3L103.4 11.2C103.6 10.9 104 11.1 104.2 11.1C104.5 11.6 105 11.4 105.5 11.5C105.6 11.5 105.7 11.6 105.8 11.6C105.9 11.7 106 11.9 106.2 11.7C106.4 11.4 106.7 11.6 107 11.5C107.2 11.4 107.4 11.3 107.6 11.2C107.7 11.2 107.9 11.1 107.9 11.2C109 11.8 110.2 11.4 111.3 11.6C111.4 11.6 111.6 11.8 111.7 11.9C111.9 11.6 112.2 11.5 112.6 11.5C112.9 11.5 113.2 11.5 113.5 11.5C113.7 11.7 113.9 12 114.2 11.8C114.4 11.6 114.6 11.5 115 11.5C116 11.5 117 11.5 118 11.5C118.3 11.5 118.5 11.6 118.8 11.8C118.9 11.9 119.3 12 119.5 11.9C120.4 11.2 121.4 11.7 122.4 11.6C122.5 11.6 122.6 11.8 122.7 11.8C122.8 11.9 123.1 12 123.2 11.9C123.5 11.4 124 11.6 124.5 11.6C124.8 11.6 125.1 11.6 125.3 11.6C125.5 11.7 125.7 11.9 125.7 11.9C125.9 11.8 126 11.6 126.3 11.6C126.9 11.6 127.6 11.6 128.2 11.7C128.4 12.1 128.6 11.9 128.8 11.6C129.6 11.6 130.3 11.6 131.1 11.6C131.5 11.6 131.6 12.1 132 12C132.3 11.9 132.6 12 132.9 12C133.2 12 133.3 11.7 133.5 11.7C133.8 12.1 134.2 12 134.6 12C134.9 12 135.3 12.1 135.6 11.7L135.7 11.6C136.3 11.4 136.8 11.8 137.3 12C137.7 11.5 138.2 11.7 138.8 11.6C139.1 12.2 139.8 11.7 140.2 12.2C140.3 12.3 140.6 12.3 140.7 12.3C141 11.7 141.8 12.2 142.1 11.7C142.5 11.7 142.9 11.7 143.3 11.7C143.5 12.1 143.9 12 144.2 12C144.5 12 144.8 11.9 145.1 11.9C145.4 11.3 145.6 12.1 145.9 12C146.2 11.9 146.5 12 146.8 12C147.1 12 147.4 12 147.7 12C148.1 12 148.4 12 148.8 12C149.1 12 149.4 12 149.7 12C150 11.6 150.4 11.5 150.8 11.7C151.1 11.8 151.2 12 151.6 12C152.9 12 154.2 12 155.5 12C155.7 12 155.8 11.9 156 11.8C156.2 11.7 156.2 11.7 156.4 11.8C156.8 12 156.8 12 157.8 12C158.6 12 159.3 12 160.1 12C160.8 12 161.5 12 162.2 12C162.5 12.4 162.9 12.5 163.3 12.3C163.6 12.2 163.7 12 164.1 12C165.3 12 166.5 12 167.7 12C167.9 12 168.2 12.2 168.4 12.3C169.2 11.7 170.1 12.2 170.9 12C171.2 11.9 171.3 12.3 171.5 12.3C171.7 12.3 171.8 11.9 172.1 12C172.7 12.1 173.3 11.8 173.7 12.4C174.4 12.3 175.1 12.6 175.7 12.2C176 12 176.5 12.1 176.9 12.2C177.9 12.5 177.9 12.5 179 12.2C179.3 12.1 179.7 12.2 180.1 12.2C180.6 12.8 181.3 12.5 181.9 12.5C183 12.5 184 12.6 185.1 12.5C185.8 12.5 186.6 12.9 187.3 12.2C188 12.2 188.7 12.2 189.4 12.2C189.5 12.2 189.6 12.4 189.7 12.4C190 12.5 190.3 12.5 190.5 12.5C191.7 12.1 191.7 12.1 193.3 12.5C193.5 12.6 193.8 12.6 194 12.6C194.5 12.5 194.9 12.8 195.3 12.9C195.6 13 195.8 13.4 196.2 13.3C196.5 13.2 196.7 13.4 196.9 13.7C197.5 13.5 197.9 14 198.2 14.3C198.6 14.7 198.9 15.1 199.4 15.2C199.5 15.2 199.7 15.4 199.8 15.6C199.9 16.3 200.6 16.6 201 17.2C201 17.5 201 17.8 201.2 18.1C201.4 18.5 201.8 18.9 201.7 19.5C202 19.9 202.1 20.3 202.1 20.8C202.1 20.9 202.2 21.1 202.3 21.3C202.5 21.7 202.6 22.2 202.4 22.6C202.3 22.8 202.1 22.9 202.4 23.1C202.6 23.3 202.6 23.7 202.9 24C202.8 24.4 203 24.7 203.2 25.1C203.3 25.4 203.2 25.8 203.2 26.2C203.2 26.3 203.2 26.4 203.2 26.6C203.1 27.4 203.5 28.4 202.8 29.1C202.8 29.7 202.9 30.4 202.4 30.9C202.4 30.9 202.4 31 202.4 31.1C202.9 31.6 202.7 32.2 202.8 32.7C202.8 32.9 203 33 203 33.1C203.2 33.5 203.2 34 203 34.4C202.7 35.1 202.6 36 203 36.5C203.2 36.8 203.3 37 203 37.2C202.7 37.4 202.8 37.8 202.5 38.1C202.3 38.3 202.3 38.8 202.7 39C202.8 39.1 202.8 39.1 202.7 39.3C202.6 39.4 202.4 39.6 202.5 39.7C202.6 40.4 202.2 41.1 202.8 41.7C202.7 42.1 203 42.6 202.5 43C202.4 43.1 202.4 43.4 202.5 43.5C203 43.9 202.7 44.4 202.8 44.8C202.2 45.3 202.5 46 202.5 46.6C202.5 47.4 202.5 48.3 202.5 49.1C202.5 49.7 202.2 50.4 202.8 50.9C202.7 51.5 203 52.1 202.6 52.6C202.5 52.7 202.5 52.9 202.5 53.1C202.5 54.6 202.5 56.2 202.5 57.7C202.5 57.9 202.5 58.1 202.6 58.2C203 58.6 202.8 59.1 202.8 59.5C202.2 60.2 202.6 60.9 202.5 61.7C203 62 202.7 62.4 202.8 62.8C203 63.5 202.3 64.1 202.4 64.8C202.5 65.5 202.4 66.2 202.4 66.9C202.4 67 202.3 67.1 202.2 67.2C201.9 67.4 202.1 67.8 202.1 68C202.6 68.3 202.4 68.8 202.5 69.3C202.5 69.9 202.5 70.5 202.5 71.1C202.4 71.9 202.8 72.7 202.2 73.4C202.2 74.1 202.2 74.7 202.2 75.4C202.2 75.9 202.5 76.5 201.9 76.9L202 77.1C202.3 77.9 202.3 78.4 202 78.9C201.7 79.4 202 79.5 202.2 79.8C202.2 81.1 202.2 82.4 202.2 83.7C202.2 84.1 202.2 84.5 201.9 84.8C202.6 85.5 202.1 86.4 202.2 87.2C202.3 87.8 202.3 88.3 201.9 88.8C201.8 88.9 201.8 89.3 202 89.5C202.3 89.8 202.2 89.9 202 90.2C201.9 90.3 202 90.5 202.3 90.9C202.3 91.4 202.3 92 202.3 92.5C202.3 92.9 201.8 93.1 201.9 93.6C202 93.9 201.9 94.3 201.9 94.7C201.9 95.1 201.9 95.5 201.9 95.9C201.7 96.1 201.4 96.3 201.6 96.6C201.8 96.8 201.9 97.1 201.9 97.4C202 98.1 201.6 98.8 202.2 99.4C202.2 99.4 202.1 99.6 202 99.6C201.6 100 202 100.2 202.2 100.4C202.1 100.6 201.9 100.8 201.9 101C201.9 102.1 201.9 103.2 201.9 104.4C202.2 104.7 202.5 104.9 202.1 105.3C201.8 105.5 201.9 106 201.6 106.2C201.5 106.2 201.6 106.5 201.6 106.7C202 107.6 202 107.8 201.5 108.8C201.5 109.3 201 109.7 201.1 110.3C201.2 110.8 201 111.3 201.5 111.8C201.6 111.9 201.5 112.3 201.5 112.5C201.5 114.4 201.5 116.3 201.5 118.2C201.5 118.5 201.5 118.8 201.8 119.2C202 119.4 201.9 119.9 201.9 120.2C201.4 120.7 201.5 121.3 201.6 121.8C201.6 122.1 201.3 122.2 201.3 122.4C201.3 122.8 201 123.3 201.5 123.7C201.6 123.8 201.6 124 201.6 124.2C201.5 124.9 201.9 125.7 201.3 126.4C201.1 126.1 201.1 127 201.1 127.8ZM195 156.6C195 152.8 195 149 195 145.2C195 144.7 194.8 144.1 195.3 143.7C195.2 143.4 195.4 143.2 195.2 142.9C194.9 142.4 194.9 142.3 195.1 141.8C195.2 141.6 195.3 141.5 195.3 141.3C195.3 140.6 195.5 139.9 195 139.3C194.9 139.2 195 138.8 195.1 138.6C195.2 138.4 195.4 138.3 195.1 138.1C194.9 138 195 137.8 195 137.6C194.8 137.1 195.3 136.7 195.3 136.3C195.3 135.6 195.6 134.9 195 134.3C195 133.6 194.9 133 195 132.3C195 131.9 195.3 131.6 195.5 131.3C195.7 130.9 195.7 130.9 195.5 130.2C195.5 130.1 195.4 130.1 195.4 130.1C195.4 129.4 195.4 128.8 195.4 128.1C195.4 127.8 195.7 127.7 195.8 127.5C195.8 127.4 195.9 127.2 195.8 127.2C195.4 126.9 195.5 126.5 195.4 126.1C195.2 125.5 195.8 125.2 195.8 124.6C195.8 122.9 195.8 121.3 195.8 119.7C195.5 119.4 195.3 119.2 195.1 119C195.1 118.9 195.1 118.7 195.1 118.5C195.1 118.3 195.2 118.2 195.3 118.1C195.5 117.8 195.5 117.5 195.8 117.2C195.9 117 195.8 116.6 195.8 116.3C195.8 116.1 195.8 115.9 195.8 115.8C195.6 115.5 195.2 115.3 195.6 114.9C195.8 114.7 195.8 114.5 195.8 114.3C195.8 112 195.8 109.7 195.8 107.4C195.8 107.1 195.7 106.8 195.5 106.6C195.4 106.5 195.4 106.2 195.5 106.1C195.8 105.9 195.8 105.6 195.8 105.3C195.8 104.9 195.8 104.6 195.5 104.4C195.4 104.3 195.4 103.8 195.5 103.7C196 103.3 195.8 102.9 195.8 102.4C195.8 100.4 195.8 98.4 195.8 96.3C195.8 96 195.8 95.8 196 95.5C196.2 95.1 196.2 94.7 196 94.2C195.9 94 195.8 93.9 195.8 93.7C195.8 92.9 195.8 92.2 195.8 91.4C195.8 90.7 195.5 89.9 196.1 89.2C196 88.7 196.2 88.2 195.9 87.7C195.6 87.3 195.6 85.1 195.8 84.6C195.9 84.3 196 84.1 196 83.8C196 83.3 196.1 82.8 195.6 82.5C195.6 81.8 195.6 81.1 195.6 80.4C195.6 80 195.9 79.9 195.9 79.7C196 79.4 195.9 79 195.9 78.6C195.4 78.3 195.6 77.9 195.6 77.5C195.6 77 195.5 76.4 196 76C196 75.1 196 74.2 196 73.3C195.3 72.5 195.7 71.6 195.7 70.8C195.6 69.9 195.7 68.9 195.7 68C195.7 67.6 195.6 67.2 196 66.9C196 66.6 196.1 66.3 195.9 66.1C195.7 65.9 195.7 65.7 195.7 65.5C195.7 64.3 195.7 63.1 195.7 61.9C195.7 61.8 195.7 61.6 195.7 61.6C196 61.4 196.1 61 196 60.7C196 60.3 196.2 59.9 195.7 59.6C195.7 59 195.7 58.4 195.6 57.9C195.6 57.6 195.7 57.4 195.9 57.1C196.1 56.8 196.1 56.4 195.8 56.1C195.4 55.7 195.8 55.5 196 55.2C196 54.4 196 53.7 196 52.9C196 52.8 195.8 52.6 195.8 52.5C195.7 52.3 195.7 52.1 195.7 52C196 51.7 196 51.4 196 51.1C196 50.4 195.8 49.7 196.3 49.1C196.2 48.5 196.5 47.9 196 47.4C195.8 47.2 195.9 47 196.1 46.8C196.3 46.6 196.3 46.4 196.2 46.2C195.8 45.7 195.9 45.2 196.1 44.8C196.2 44.6 196.3 44.4 196.3 44.2C196.3 43.7 196.3 43.3 196.3 42.8C196.3 42.3 196.2 41.8 196.3 41.4C196.4 40.9 196 40.5 195.9 40.1C195.7 39.4 196.1 38.9 196.5 38.4C196.7 38.1 196.3 38.1 196.3 37.9C196.3 37.5 196.2 37 196.3 36.5C196.4 36 196.1 35.6 195.9 35.2C195.8 34.9 195.8 34.6 196.1 34.4C196.2 34.3 196.2 34.3 196.1 34.1C195.8 33.8 195.8 33.4 196 33.2C196.3 32.9 196.4 32.6 196.3 32.2C196.2 31.7 196.7 31.5 196.7 31.1C196.7 30.2 196.7 29.3 196.7 28.5C196.4 28.2 196.2 28 196 27.8C196 27.3 196 26.9 196 26.4C196 25.9 195.9 25.4 196 25C196.1 24.5 195.7 24.1 195.7 23.7C195.6 23.1 195.7 22.4 195.7 21.7C195.7 21.2 195.8 20.7 195.7 20.3C195.6 19.9 195.2 19.6 195.1 19.1C195 18.8 194.8 18.6 194.6 18.4C194.3 18.2 194.4 17.9 194.2 17.6C193.7 17.6 193.2 17.6 192.7 17.6C192.2 17.6 191.8 17.6 191.3 17.5C190.8 16.7 190.4 17.7 190 17.6C189.9 17.6 189.7 17.6 189.7 17.6C189.1 16.9 188.2 17.4 187.5 17.3C187.3 17.3 187.1 17.3 187 17.4C186.6 17.8 186.1 17.6 185.7 17.6C185.5 17.6 185.4 17.2 185.1 17.3C184.3 17.4 183.5 17 182.7 17.6C182.6 17.7 182.2 17.6 182 17.5C181.8 17.4 181.7 17.2 181.4 17.2C179.8 17.2 178.2 17.2 176.6 17.2C176.4 17.2 176.3 17.3 176.2 17.4C175.8 17.8 175.6 17.4 175.3 17.2C173.7 17.2 172.1 17.2 170.5 17.2C170.3 17.2 170 17.1 169.8 17.3C169.4 17.8 168.9 17.4 168.5 17.5C168.2 17 167.7 17.2 167.2 17.2C164.2 17.2 161.3 17.2 158.3 17.2C157.4 17.2 156.4 16.8 155.6 17.5C155.5 17.5 155.3 17.5 155.3 17.4C155.1 17.1 154.8 17.1 154.5 17.1C153.1 17.1 151.8 17.1 150.4 17.1C150.2 17.1 150 17.1 149.8 16.9C149.5 16.6 149.5 17.1 149.2 17.1C148.5 17.1 147.7 17.1 146.9 17.1C146.7 17.1 146.5 17.1 146.4 17C146 16.6 145.5 16.9 145.1 16.8C144.5 17.5 143.7 17 142.9 17.1C142.4 16.6 141.8 16.8 141.3 16.8C141 16.8 140.8 17.2 140.4 17.1C138.8 17.1 137.2 17.1 135.6 17.1C135.4 17.1 135.2 17 135 16.9C134.4 16.6 133.6 16.6 133 16.9C132.4 17.2 132 17.2 131.4 16.9C130.9 16.6 130.3 16.6 129.7 16.9C129.2 17.2 128.7 17.2 128.3 16.9C127.9 16.6 127.4 16.7 127 16.8C126.7 17.3 126.1 17.1 125.7 17.1C125.2 17.1 124.7 17.1 124.1 17C124 17 123.9 16.8 123.8 16.8C123.6 16.8 123.4 16.8 123.3 16.9C123.1 17.1 122.9 17.2 122.7 17.1C121.9 17.1 121 17.1 120.2 17.1C120.1 17 120 16.9 119.9 16.9C119.4 16.7 119 16.7 118.6 17C118.2 17.3 117.7 17.2 117.3 17.1C117 16.7 116.6 16.8 116.2 16.8C111.5 16.8 106.8 16.8 102.1 16.8C101.4 16.8 100.7 17 100.1 16.5C100 16.4 99.7 16.4 99.6 16.5C99.3 16.8 98.9 16.9 98.5 16.9C98.4 16.9 98.2 17.2 98.1 17.2C98 17.2 97.9 16.9 97.7 16.9C97.4 16.8 97 16.9 96.6 16.9C96.3 16.2 96 17 95.6 16.9C94.9 16.8 94.2 16.9 93.5 16.9C92.7 16.9 91.9 16.7 91.1 17.2C91 17.3 90.6 17.2 90.4 17.1C90.2 17 90.1 16.8 89.8 16.8C89.3 16.8 88.8 16.7 88.4 16.8C87.9 16.9 87.5 16.6 87.1 16.4C86.9 16.3 86.7 16.3 86.6 16.4C86.4 16.6 86.2 16.8 85.8 16.7C85.5 16.6 85.2 16.7 84.8 16.4C84.5 16.1 83.9 16.2 83.5 16.5C83 16.8 82.4 16.7 81.8 16.6C81.5 16.1 81.1 16.3 80.7 16.3C79.5 16.3 78.3 16.3 77.1 16.3C76.8 16.3 76.5 16.3 76.2 16.3C76 16.3 75.9 15.8 75.7 16.1C75.5 16.4 75.2 16.3 74.9 16.3C74.4 16.3 73.8 16.3 73.3 16.3C72.9 16.7 72.4999 16.8 72.0999 16.5C71.6999 16.2 71.1 16.2 70.8 16.4C70.5 16.6 70.2 16.7 69.8 16.7C69.3 16.6 68.7 16.9 68.3 16.4C67.9 16.4 67.4999 16.4 67.0999 16.4C66.6999 16.3 66.3 15.9 65.8 16C65.4 16.1 64.9999 16 64.5999 16C64.1999 16 63.8 16 63.4 16C63 16 62.7 16 62.3 16C61.9 16 61.4999 16.1 61.0999 16C60.5999 15.9 60.4 16.4 60 16.4C59.4 16.4 58.8 16.6 58.4 16.1C58.3 16 57.8 16 57.7 16.1C57.4 16.4 57.1 16.4 56.7 16.4C55.8 16.4 54.9 16.4 54 16.4C53.7 16.4 53.4 16.4 53 16.1C52.7 15.9 52.1999 16 51.7999 16.1C51.4999 16.2 51.3 16.4 51 16.4C50.1 16.4 49.1 16.4 48.2 16.4C47.8 16.4 47.4999 16.4 47.2999 16.1C47.2999 16 46.8999 16.1 46.7999 16.2C46.3999 16.6 46.1 16.5 45.7 16.3C45.1 16 44.0999 15.9 43.5999 16.3C43.0999 16.6 42.8 16.6 42.4 16.2C42.3 16.1 42 16.1 41.9 16.2C41.7 16.3 41.5999 16.5 41.2999 16.5C40.7999 16.4 40.1999 16.7 39.7999 16.2C38.9999 16.3 38.0999 15.8 37.2999 16.5C37.1999 16.6 36.6999 16.6 36.5999 16.5C36.2999 16.2 36 16.2 35.7 16.2C35.2 16.2 34.5999 16.2 34.0999 16.2C33.4999 16.2 32.8999 16.2 32.2999 16.2C31.7999 16.2 31.2 16.2 30.7 16.2C30.1 16.2 29.5 16.2 28.9 16.2C28.3 16.1 27.9 16.5 27.4 16.5C26.6 16.5 25.8 16.7 25 16.2C24.9 16.1 24.6 16.1 24.5 16.2C24 16.7 23.4 16.5 22.9 16.5C22.5 16.5 21.9 16.7 21.6 16.2C21.1 16.2 20.7 16.2 20.2 16.2C20 16.2 19.8 16.2 19.7 16.3C19.4 16.6 19.1 16.5 18.8 16.5C17.7 17.2 17.3 18.3 16.8 19.3C16.6 19.7 16.4 20.2 16.4 20.7C16.5 21.8 16.4 23 16.4 24.1C16.4 24.5 16.5 24.9 16.1 25.2C16.1 25.5 16 25.9 16.3 26.2C16.5 26.4 16.5 26.5 16.3 26.8C16 27.1 16.1 27.4 16.1 27.8C16.1 27.9 16.3 28 16.3 28.1C16.4 28.3 16.4 28.7 16.7 28.8C16.6 29 16.4 29.2 16.4 29.3C16.4 29.6 16.3 30 16.4 30.4C16.5 30.9 16.1 31.1 16 31.5C16 31.7 15.9 32 16.1 32.2C16.5 32.6 16.4 33.1 16.2 33.6C16.1 33.8 16 33.9 16 34C16 34.7 16 35.4 16 36.1C16 36.8 15.9 37.4 16 38.1C16.1 38.9 15.6 39.4 15.6 40.1C15.6 40.8 15.6 41.4 15.6 42.1C15.6 42.4 15.7 42.7 15.9 43.1C16.1 43.4 16.1 44 15.8 44.4C15.5 44.9 15.5 45.5 15.8 46.1C15.9 46.4 16 46.6 16 46.9C16 47.2 16.1 47.6 16 47.8C15.8 48.1 15.7 48.4 15.7 48.7C15.7 50.4 15.7 52.1 15.7 53.9C15.9 54.1 16.2 54.3 16 54.6C15.6 55.2 15.6 55.7 16 56.3C16.1 56.5 16.1 56.9 16 57.1C15.9 57.3 15.7 57.4 15.7 57.7C15.7 58.2 15.7 58.8 15.7 59.3C15.7 59.7 15.7 60 15.4 60.2C15.3 60.3 15.3 60.6 15.1 60.8C14.9 61.1 15.4 61.2 15.4 61.5C15.4 61.9 15.8 62.2 15.7 62.6C15.7 63.8 15.7 65.1 15.7 66.3C15.7 66.6 15.8 67 15.4 67.2C15.3 67.2 15.3 67.5 15.4 67.5C16.1 68.2 15.7 69.1 15.7 69.9C15.8 70.6 15.7 71.3 15.7 72C15.7 72.7 15.7 73.4 15.7 74.1C15.7 74.8 15.7 75.5 15.7 76.2C15.7 76.9 15.8 77.6 15.7 78.3C15.6 79 16 79.7 15.4 80.3C15.8 80.6 15.8 81 15.8 81.4C15.8 82.1 15.8 82.8 15.8 83.5C15.8 84 15.9 84.6 15.4 85C15.4 85.3 15.3 85.6 15.6 85.8C15.7 85.9 15.8 86 15.8 86.1C15.8 87.5 15.8 88.8 15.8 90.2C15.8 90.3 15.8 90.3 15.7 90.3C15.2 90.6 15.4 91 15.4 91.4C15.4 92.2 15.1 93.1 15.7 93.9C15.7 95.9 15.7 97.9 15.7 100C15.7 100.1 15.7 100.3 15.6 100.3C15.1 100.6 15.6 101.4 15 101.7C15 101.9 14.9 102.3 15 102.4C15.4 102.7 15.2 103.2 15.3 103.5C15.5 104 15 104.3 14.9 104.8C14.9 105.4 14.9 106 14.9 106.6C14.9 107 14.9 107.3 14.9 107.7C14.8 108.1 15.2 108.3 15.3 108.6C15.3 109 15.3 109.3 15.6 109.5C15.7 109.5 15.6 109.8 15.5 110C15.4 110.1 15.3 110.2 15.2 110.4C15.2 111 15.4 111.6 14.9 112C14.9 112.5 14.9 112.9 14.9 113.4C15.5 113.8 15.1 114.1 14.9 114.5C14.7 114.9 14.5 115.4 14.5 115.9C14.6 117.1 14.5 118.3 14.5 119.5C14.5 119.9 14.3 120.5 14.8 120.8C14.8 121.2 14.8 121.5 14.8 121.9C14.2 122.3 14.5 123 14.4 123.5C14.4 123.7 14.4 123.9 14.4 124C13.9 124.3 14 124.8 14.1 125.3C14.1 125.6 14.5 125.8 14.5 126.2C14.4 126.6 14.5 127 14.5 127.4C14.5 127.7 14.5 128 14.8 128.2C14.9 128.3 14.9 128.6 14.8 128.7C14.5 128.9 14.5 129.2 14.5 129.5C14.5 130.7 14.5 131.9 14.5 133.1C14.5 133.3 14.3 133.5 14.2 133.7C14.3 133.8 14.4 133.9 14.5 134C14.4 134.1 14.3 134.2 14.2 134.4C14.6 134.9 14.6 135.1 14.5 135.5C14.1 136.5 14.1 136.5 14.5 137.6C14.6 137.8 14.6 138.2 14.4 138.4C14.1 138.8 14.1 139.2 14.4 139.6C14.6 139.9 14.6 140.3 14.4 140.6C14.1 141 14.1 141.3 14.3 141.7C14.4 141.8 14.5 141.9 14.3 142.1C13.9 142.4 14.3 143.1 13.8 143.3C13.9 143.4 14 143.6 14.1 143.7C14.1 144.3 14.1 145 14.1 145.6C14.1 146.6 14.1 146.6 13.9 147C13.8 147.1 13.7 147.3 13.7 147.5C13.8 148 13.5 148.6 14 149C14 149.6 14 150.3 14 150.9C13.6 151.1 13.7 151.5 13.7 151.9C13.7 152.4 13.7 153 13.7 153.5C13.7 154 13.7 154.4 13.7 154.9C13.7 155.4 13.7 156 13.7 156.5C13.7 157 13.8 157.5 13.7 157.9C13.6 158.5 14.1 158.8 14.1 159.4C14.1 159.9 14.1 160.5 14.1 161C14.1 161.5 14.1 161.9 14.1 162.4C14.1 162.9 14.1 163.5 14.1 164C14.1 164.5 14.2 165 14.1 165.4C13.9 166 14.5 166.3 14.5 166.9C14.5 167.7 14.5 168.6 14.5 169.4C14.4 169.5 14.3 169.7 14.2 169.8C14.5 170 14.7 170.2 14.5 170.5C14.3 170.7 14.2 171 14.2 171.3C14.2 172.8 14.2 174.3 14.2 175.8C14.2 176.2 14.3 176.6 13.9 176.9C14 177 14.1 177.2 14.2 177.3C14.2 179.6 14.2 181.9 14.2 184.2C14.2 184.7 14.3 185.1 13.9 185.5C13.8 185.5 13.9 185.8 13.9 185.8C14.2 186 14.2 186.4 14.2 186.7C14.2 187.4 14.2 188.1 14.2 188.8C14.2 189 14.2 189.2 14.2 189.3C14.7 189.7 14.5 190.3 14.5 190.8C14.5 191.7 14.5 192.7 14.5 193.5C15 194.3 15.6 194.6 16.2 194.8C16.6 194.9 16.6 195.1 16.7 195.4C16.8 195.6 17 195.7 17.2 195.9C17.5 195.9 17.9 195.9 18.2 195.9C18.6 195.9 19 195.8 19.2 195.9C19.5 196.1 19.8 196.2 20.1 196.2C20.4 196.2 20.6 196.4 20.8 196.5C21.6 196.9 21.6 196.9 22.1 196.9C25.3 196.9 28.5 196.9 31.7 196.9C32.1 196.9 32.7 196.7 33 197.2C33.8 197.2 34.4999 197.2 35.2999 197.2C35.5999 196.7 36 197 36.4 196.9C36.8 196.9 37.0999 196.9 37.2999 197.2C37.5999 196.8 38 196.8 38.4 196.9C38.8 196.9 39.1 196.9 39.5 196.9C40 197.3 40 197.3 40.4 197.1C40.5 197 40.6999 196.9 40.7999 196.9C41.6999 197 42.7 196.6 43.5 197.2C43.7 197.4 43.8999 196.9 44.0999 196.9C44.7999 196.8 45.5 196.9 46.2 196.8C46.9 197.5 47.8 197.1 48.5 197.1C48.9 197.1 49.1999 197.1 49.5999 197.1C50.0999 197.1 50.5 197 50.9 197.4C50.9 197.4 51.2999 197.4 51.2999 197.3C51.5999 196.8 52.3 197.4 52.5 196.8C52.5 196.7 52.6999 196.7 52.7999 196.7C52.9999 196.7 53.1999 196.7 53.2999 196.7C53.5999 196.7 53.7 196.9 53.9 197C54 197 54.3 196.7 54.4 196.7C54.6 196.7 54.7999 196.9 55.0999 197C55.0999 197 55.1999 197 55.2999 197C55.8999 196.9 56.5999 197.3 57.0999 196.7C57.0999 196.6 57.4 196.7 57.4 196.7C57.6 197 57.9999 197 58.2999 197.2C58.3999 197.3 58.5 197.4 58.7 197.2C58.9 197 59.0999 197.1 59.2999 197C59.5999 196.9 59.8 196.7 60 196.7C60.4 196.6 60.7 196.7 60.9 197C61.8 197 62.7999 197 63.6999 197C63.7999 196.9 63.9999 196.8 64.0999 196.7C64.1999 196.8 64.4 197 64.5 197C65.1 197.1 65.8 196.8 66.3 197.4C67 197.4 67.6 197.4 68.3 197.4C69 197.4 69.7 197.6 70.3 197.1C70.4 197 70.7 197.1 71 197.2C71.2 197.2 71.3 197.4 71.4 197.5C72.1 197.5 72.7 197.5 73.4 197.5C73.5 197.5 73.7 197.3 73.8 197.1C74.5 197.3 75.3 196.8 75.9 197.5C76.7 197.4 77.7 197.8 78.4 197.1C78.8 197.1 79.1 197.1 79.5 197.1C79.8 197.5 80.2 197.4 80.6 197.4C81.7 197.4 82.7 197.4 83.8 197.4C84.1 197.4 84.5 197.4 84.8 197.1C84.9 197 85.4 197 85.6 197.1C86.4 197.4 86.7 197.4 87.4 197.3C87.5 197.3 87.6 197.1 87.7 197.1C87.8 197.2 88 197.3 88.1 197.5C89.2 197.5 90.2 197.5 91.2 197.5C91.4 197.6 91.6 197.8 91.6 197.8C91.9 197.4 92.2 197.4 92.6 197.8C92.9 198 93.1 197.7 93.3 197.5C94.7 197.5 96.1 197.5 97.6 197.5C97.7 197.6 97.8 197.7 97.9 197.8C98.1 197.7 98.3 197.5 98.5 197.5C99.1 197.5 99.7 197.3 100.1 197.8C100.1 197.8 100.3 197.8 100.4 197.8C100.6 197.7 100.7 197.5 101 197.5C101.8 197.5 102.5 197.5 103.3 197.5C103.6 197.5 103.8 197.8 104 197.8C104.2 197.8 104.5 197.5 104.7 197.5C105 197.4 105.3 197.4 105.5 197.7C105.6 197.8 105.9 197.9 106 197.8C106.3 197.3 106.5 197.7 106.8 197.8C107.1 197.9 107.5 197.8 107.8 197.8C108.3 197.2 108.9 197.6 109.5 197.5C110.2 198.1 111.1 197.8 111.8 197.9C112.2 197.9 112.5 197.9 112.7 197.6C112.7 197.5 113 197.6 113.2 197.7C113.4 197.8 113.5 197.9 113.6 197.9C114.3 198 115 197.6 115.6 198.3C116.5 198.3 117.5 198.3 118.4 198.3C119.1 197.7 119.9 197.9 120.6 198.3C121 198.2 121.4 198.4 121.8 198.1C122.5 197.7 123.4 197.9 124.2 198C124.7 198.5 125.1 198.3 125.6 197.9C125.7 197.8 125.9 197.9 125.9 197.9C126.1 198.2 126.5 198.3 126.8 198.2C127 198.2 127.2 198.2 127.3 198.2C128.1 198.3 129.1 197.9 129.8 198.6C130.4 198.6 131 198.6 131.6 198.5C131.9 198.1 132.3 198.2 132.7 198.2C133.4 198.2 134 198.2 134.7 198.2C134.9 198.2 135.1 198.2 135.2 198.3C135.6 198.8 135.9 198.6 136.2 198.2C136.3 198.1 136.5 198.1 136.5 198.2C136.8 198.6 137.2 198.6 137.6 198.6C138.1 198.6 138.7 198.6 139.2 198.6C139.7 198.6 140.3 198.6 140.8 198.6C141.3 198.6 141.9 198.6 142.4 198.6C142.9 198.6 143.4 198.4 143.9 198.3C144.5 198.2 145.1 198.3 145.7 198.3C146.3 198.3 146.9 198.1 147.3 198.7C148.7 198.7 150 198.7 151.4 198.7C151.5 198.7 151.6 198.6 151.7 198.5C152.1 198.2 152.6 198.2 153 198.4C153.3 198.5 153.5 198.7 153.8 198.7C154.6 198.7 155.3 198.7 156.1 198.7C156.3 198.7 156.5 198.8 156.7 198.9C157.2 199.2 157.8 199.2 158.4 198.9C158.7 198.8 158.7 198.8 158.9 198.9C159.1 199 159.6 199.1 159.7 199C160 198.7 160.3 198.7 160.7 198.7C161.8 198.7 162.8 198.7 163.9 198.7C164.2 198.7 164.5 198.8 164.7 199C164.8 199.1 165 199 165.2 199C166 198.7 166.5 198.6 167 198.9C167.3 199 167.5 199.2 167.8 199.1C168.1 199.1 168.6 199.3 168.8 199C169.2 198.5 169.3 199.3 169.6 199.1C169.8 199 170 199.1 170.2 198.9C170.6 198.6 171.1 198.6 171.5 198.8C171.8 199 172.1 199.1 172.5 199.1C173.7 199.1 175 199.1 176.2 199.1C176.4 199.1 176.7 199.1 176.9 199C177.5 198.4 177.9 198.9 178.4 199.1C178.7 199.2 178.8 199.5 178.9 199.4C179.1 199.4 179.2 199.1 179.5 199.1C180 199.1 180.6 199.1 181.1 199.1C181.6 198.6 182.2 198.9 182.7 198.8C182.8 198.8 182.8 198.8 182.8 198.7C183 198.3 183.5 198.5 183.7 198.4C184.1 198.2 184.4 198 184.8 198.1C185.2 198.2 185.4 197.7 185.7 197.7C186 197.7 186.3 197.7 186.5 197.5C186.8 197.2 187.2 197.4 187.5 197.4C187.8 197.3 188 196.9 188.4 197C188.9 196.5 189.3 196.1 189.8 195.6C190.6 195.6 190.9 194.9 191.3 194.4C191.7 194 191.8 193.3 192.2 192.8C191.9 192.1 192.5 191.6 192.6 191C192.6 190.7 192.9 190.5 192.9 190.3C192.9 189.6 192.9 188.9 192.9 188.2C193 187.5 192.6 186.8 193.2 186.2C193.1 186 192.8 185.9 192.8 185.6C192.8 185 192.6 184.4 193.2 184C193.2 183.7 193.3 183.4 193 183.2C192.7 183 192.7 182.6 192.8 182.4C193.3 181.8 193.1 181.2 193.1 180.6C193.1 180.2 193.1 179.9 193.1 179.5C193.7 178.9 193.4 178.1 193.4 177.3C193.4 177.1 193.4 176.9 193.3 176.8C192.9 176.4 193.1 175.9 193.1 175.5C193.7 175.1 193.4 174.5 193.4 174C193.4 170.1 193.4 166.2 193.4 162.3C193.7 162 194 161.8 193.6 161.4C193.4 161.2 193.3 161 193.5 160.8C193.6 160.7 193.8 160.5 193.8 160.4C193.8 159.3 193.8 158.1 193.8 157C193.8 156.9 193.6 156.7 193.5 156.6C194.8 156.9 194.9 156.7 195 156.6Z" fill="#7F7F7F"/>
<path d="M181.7 128.7C181.4 128.7 181.1 128.8 180.9 128.8C177.9 129.3 174.9 129.6 172 128.4C171.3 128.1 170.6 127.7 170 127.3C169.5 127.3 168.9 127.3 168.4 127.3C168.1 127.6 167.8 128 167.2 127.6C166.5 127.2 165.5 127.2 164.7 127.5C164.4 127.6 164 127.8 163.7 128C163.4 128.2 163.3 128 163.2 127.9C162.5 127.6 161.9 127.6 161.4 127.9C161.1 128 160.9 128.2 160.5 128.2C156.6 128.2 152.6 128.2 148.7 128.2C148.3 128.2 148.1 128.1 147.8 127.9C147.4 127.6 146.9 127.6 146.5 127.9C146.4 128 146.3 128 146.2 128.1C145.8 127.5 145.2 127.7 144.7 127.7C144.2 127.7 143.8 127.7 143.4 128.1C143.1 128.3 142.5 128.4 142.1 127.9C142 127.7 141.9 127.7 141.7 127.9C141.4 128.3 141 128.2 140.6 128.2C140.1 128.2 139.9 127.6 139.3 127.7C138.7 127.8 138.2 127.7 137.6 127.7C137.1 127.7 136.6 127.7 136.1 127.7C135.9 127.7 135.5 127.6 135.4 127.7C134.5 128.5 133.4 128 132.4 128.1C131.9 128.2 131.5 128.1 131.1 127.8C130.6 127.5 129.9 127.6 129.3 127.9C128.6 128.3 128.5 128.2 127.8 127.9C127.6 127.8 127.2 127.7 127.2 127.7C126.5 128.5 125.5 128 124.7 128.1C124.2 127.4 123.4 127.7 122.7 127.6C122.3 127.6 122.1 127.7 121.9 127.9C121.8 128 121.4 128 121.3 127.9C121 127.5 120.8 127.6 120.4 127.9C120 128.2 119.7 127.8 119.4 127.5C117.4 127.5 115.3 127.5 113.3 127.5C112.7 127.5 112 127.7 111.5 127.1C111.4 127 110.7 127 110.6 127.1C110.2 127.6 109.6 127.5 109 127.5C108.5 127.5 108.1 127.5 107.6 127.2C107.1 126.9 106.4 126.9 105.8 127.3C105.2 127.7 104.6 127.6 104 127.4C103.7 127.3 103.5 127 103.2 127.1C102.3 127.2 101.4 127.2 100.5 127.2C100.4 127.2 100.3 127.4 100.1 127.5C99.8999 127.4 99.7999 127.2 99.5999 127.1H91.6999C91.4999 126.9 91.2999 126.7 91.0999 126.7C90.2999 126.8 89.3999 126.3 88.7999 127C87.8999 127.1 87.0999 127.3 86.2999 126.8C85.9999 126.6 85.3999 126.6 84.9999 126.9C84.4999 127.4 84.1999 127 83.7999 126.7C82.1999 126.7 80.4999 126.7 78.8999 126.7C78.2999 126.7 77.7999 126.8 77.3999 126.3C77.3999 126.2 76.9999 126.4 76.7999 126.5C76.5999 126.6 76.3999 126.8 76.1999 126.8C75.7999 126.7 75.4999 126.4 75.1999 126.4C74.7999 126.3 74.6999 126.9 74.1999 126.8C73.9999 126.8 73.7999 126.9 73.6999 126.8C72.9999 126.1 71.9999 126.4 71.1999 126.4C69.0999 126.4 67.0999 126.4 64.9999 126.4C64.5999 126.4 64.2999 126.4 63.8999 126.2C62.9999 125.8 61.9999 125.8 61.0999 126.2C60.5999 126.4 60.2999 126.6 59.8999 126.2C59.7999 126.1 59.4999 126.1 59.1999 126.1C57.9999 126.1 56.8999 126.1 55.6999 126.1C55.2999 126.1 55.0999 126 54.8999 125.7C54.5999 125.5 54.3999 125.6 54.0999 125.8C53.3999 126.2 53.3999 126.1 52.5999 125.8C51.8999 125.5 51.8999 125.5 51.0999 125.9C50.4999 126.2 49.9999 126.3 49.5999 125.8C49.3999 125.6 49.3999 125.6 49.1999 125.8C48.9999 126.1 48.5999 126 48.3999 126.1C47.5999 126.6 47.0999 125.1 46.1999 125.8C45.5999 126.3 44.7999 126.1 44.0999 126C42.4999 125.9 40.8999 126.5 39.3999 125.6C39.0999 125.4 38.5999 125.6 38.1999 125.6C36.1999 125.6 34.2999 125.6 32.2999 125.6C32.0999 125.6 31.8999 125.5 31.5999 125.4C31.2999 127.1 29.9999 128.5 28.2999 129.3C28.3999 129.4 28.4999 129.5 28.5999 129.5C28.6999 129.6 28.6999 129.7 28.7999 129.6C29.1999 129.6 29.3999 129.7 29.6999 129.9C29.9999 130.1 30.3999 130.1 30.6999 130.4C31.0999 130.7 31.8999 130.3 32.1999 130.9C32.1999 130.9 32.2999 131 32.3999 131C32.4999 131 32.5999 131 32.5999 131C33.0999 130.9 33.5999 131.2 33.9999 130.8C34.3999 130.4 34.3999 131 34.7999 131H38.5999C38.7999 131.2 38.9999 131.3 39.0999 131.4C39.2999 131.3 39.5999 131 39.5999 131C40.1999 131.6 40.7999 131.6 41.4999 131C41.5999 130.9 41.9999 131 42.0999 131C43.2999 131.4 43.5999 131.5 44.5999 131.2C44.6999 131.2 44.7999 131 44.9999 130.9C45.1999 131 45.2999 131.3 45.4999 131.3C46.1999 131.4 46.7999 131.3 47.4999 131.3C48.1999 131.3 48.7999 131.4 49.4999 131.3C50.1999 131.2 50.6999 131.6 51.2999 131.8C51.5999 131.9 51.8999 131.9 52.1999 131.6C52.5999 131.2 53.0999 131.3 53.4999 131.4C54.6999 131.8 55.7999 132 56.4999 131.6C57.0999 131.2 57.6999 131.3 58.2999 131.3C58.5999 131.3 58.7999 131.7 59.0999 131.7C61.5999 131.7 63.9999 131.7 66.4999 131.7C66.6999 131.7 66.8999 131.5 67.0999 131.4C67.2999 131.3 67.6999 131.2 67.6999 131.3C67.9999 131.7 68.4999 131.7 68.9999 131.7C70.3999 131.7 71.7999 131.6 73.1999 131.7C74.4999 131.8 75.9999 131.2 77.1999 132.1C77.2999 132.2 77.5999 132.1 77.5999 132C77.8999 131.7 78.1999 131.6 78.6999 131.6C79.6999 131.6 80.6999 131.6 81.6999 131.6C82.1999 131.6 82.5999 131.7 82.9999 132C83.3999 132.3 84.0999 132.1 84.4999 131.6C85.0999 131.6 85.6999 131.7 86.1999 131.6C86.8999 131.5 87.2999 132.1 87.9999 132.1C88.6999 132 89.4999 132.1 90.1999 132.1H99.2999C99.9999 132.1 100.8 132.2 101.5 132.1C102.3 132 102.7 132.6 103.5 132.6C106.2 132.5 108.9 132.6 111.6 132.6C111.9 132.6 112.4 132.7 112.5 132.5C113 131.9 113.7 132.1 114.3 132.1C115.5 132.1 116.6 132.1 117.8 132.1C118.3 132.1 119 132.3 119.3 131.7C119.8 131.7 120.4 131.8 120.7 131.6C121.2 131.3 121.7 131.1 122.2 131.2C123 131.3 124 130.8 124.7 131.7C125.5 131.7 126.3 131.7 127.2 131.7C127.5 132 127.9 132.4 128.4 132C128.7 131.8 129 131.6 129.2 131.8C129.5 132.1 129.8 132.2 130.3 132.2C131.9 132.2 133.4 132.2 135 132.2C135.9 132.2 136.9 132 137.8 132.6C138 132.7 138.5 132.6 138.7 132.5C139 132.3 139.2 132.2 139.5 132.2C140.6 132.2 141.6 132.2 142.7 132.2C142.9 132.2 143.1 132.4 143.3 132.5C143.7 132.7 143.7 132.7 144.1 132.5C144.2 132.5 144.2 132.4 144.3 132.3C144.5 132.3 144.9 132.1 144.9 132.2C145.3 132.7 145.9 132.6 146.5 132.6C147.1 132.5 147.5 132.8 148 133C148.3 132.5 148.8 132.6 149.3 132.6C150 132.6 150.8 132.6 151.5 132.6H156.2C157 132.6 157.9 132.5 158.7 132.6C159.5 132.7 160 132.1 160.7 132.1C161.4 132.1 162 132.1 162.7 132.1H164.7C165.4 132.1 166 132.1 166.7 132.1C167.4 132.2 167.8 131.5 168.5 131.6C169.1 131.7 169.7 131.7 170.2 131.6C170.9 131.5 171.2 132.1 172 132.1C174 132 176.1 132.1 178.2 132.1C178.5 132.1 179 132.2 179.1 132C179.5 131.5 180.2 131.8 180.6 131.5C181.2 131.1 182 130.9 182.6 130.6C182.8 130.5 183.1 130.3 183.1 130.1C183.2 129.8 183.3 129.6 183.4 129.4C182.6 129.3 182.1 129 181.7 128.7Z" fill="#7F7F7F"/>
<path d="M121.5 136.4H118.6C117.7 135.5 116.6 136 115.6 136C113.5 135.9 111.3 136 109.2 136C109 135.8 108.8 135.7 108.7 135.6C108.5 135.7 108.2 136 108.2 135.9C107.9 135.6 107.6 135.5 107.1 135.5C106.4 135.5 105.6 135.5 104.9 135.5C104.1 135.5 103.2 135.4 102.4 135.5C101.6 135.6 101.1 135.1 100.4 135C99.5 135 98.6 135 97.7 135C97.2 135 96.7 135 96.4 135.4C96.3 135.5 96 135.5 95.9 135.4C95.4 134.7 94.6 135 93.9 135C90.4 135 87 135 83.5 135C83.2 134.7 83 134.4 82.5 134.6C81.3 135.1 81.4 135.1 80.1 134.6C79.7 134.4 79.2 134.4 78.8 134.8C78.4 135.2 78.3 134.6 77.9 134.6H71.7C71 134.6 70.4 134.5 69.7 134.6C68.9 134.8 68.4 134.1 67.7 134.1C67 134.2 66.2 133.9 65.7 134.6C65 134.6 64.2 134.7 63.5 134.6C62.7 134.5 62.3 135.2 61.5 135.1C60.5 135 59.4 135.1 58.3 135.1C58.1 135.1 57.7 135.2 57.6 135.1C56.5 134.4 55.3 134.8 54.1 134.7C53.9 134.7 53.5 134.7 53.4 134.6C53 134 52.4 134.3 51.8 134.3C48.9 134.3 46 134.3 43.2 134.3C42.9 134.3 42.5 134.3 42.3 134C42.2 133.8 42.1 133.8 41.9 133.9C41.4 134.6 41 134.1 40.6 133.8C40.4 133.9 40.1 134.1 40.1 134.1C39.8 133.8 39.5 133.7 39 133.7C37.9 133.7 36.9 133.7 35.8 133.7C35.4 133.7 35.1 133.9 34.7 134.1C34.3 134.4 34 134 33.7 133.7H32C31.3 133.7 30.7 133.6 30 133.7C29.3 133.8 29 133.3 28.5 133.2C27.8 133.2 27 133.2 26.3 133.2C25.9 132.6 25.2 132.8 24.6 132.7C24.6 132.9 24.6 133 24.6 133.2C24.6 133.5 24.6 133.8 24.6 134.2C24.7 134.3 24.8 134.4 25 134.5C25.7 135.1 26.2 135.7 26.5 136.4C27 136.4 27.4 136.4 27.9 136.4C28.6 136.4 29.4 136.3 30.1 136.4C30.9 136.5 31.3 135.9 32.1 135.9C33.8 136 35.5 135.9 37.2 135.9C37.4 136.1 37.6 136.2 37.7 136.3C38 136.2 38 135.7 38.4 136.1C38.5 136.2 38.7 136.3 38.8 136.3C39.5 136.3 40.3 136.4 41 136.3C41.8 136.2 42.3 136.7 43 136.8C43.4 136.8 43.8 136.8 44.2 136.8C44.6 136.8 45 136.8 45.4 136.8C45.9 136.8 46.4 136.6 46.8 137.1C47.2 137.5 47.3 136.7 47.7 136.8C48.2 136.9 48.8 136.8 49.4 136.8C49.8 137.1 50.1 137.6 50.6 137.1C50.7 137 50.9 136.9 50.9 136.9C51.8 137.7 52.9 137.1 53.9 137.3C54.1 137.3 54.4 137.2 54.5 137.1C55.1 136.6 55.4 137 55.7 137.4C57.2 137.4 58.6 137.4 60.1 137.4C60.8 137.4 61.6 137.1 62.2 137.6C63 138.1 63.8 137.8 64.5 137.9C65.2 138 66 137.7 66.5 138.4C66.9 138.3 67.3 138.6 67.6 138.2C67.8 137.9 68.2 137.8 68.4 138C68.8 138.4 69.2 138.4 69.7 138.4C70.2 138.4 70.7 138.4 71.2 138.4C71.7 138.4 71.9 138.2 72.3 138C72.8 137.6 73.1 138.4 73.5 138.4C73.7 138.4 73.9 138.2 74.1 138.1C74.5 137.9 74.5 137.9 74.9 138.1C75.2 138.3 75.5 138.5 75.7 138.3C76.1 137.9 76.5 137.9 77 137.9C79.9 137.9 82.8 137.9 85.6 137.9C86.1 137.9 86.6 137.9 87.1 137.9C87.5 137.9 87.9 138 88.2 137.7C88.7 137.2 88.9 138.1 89.4 137.9C89.7 137.8 90 137.8 90.3 137.6C90.7 137.3 90.8 137.3 91.1 137.6C91.4 137.8 91.6 137.9 92 137.9C94.6 137.9 97.3 137.9 99.8 137.9C100 137.7 100.2 137.6 100.4 137.5C100.7 138 101.2 137.9 101.7 137.9C107.4 137.9 113 137.9 118.7 137.9C119 137.9 119.5 138 119.6 137.8C120.1 137.2 120.8 137.5 121.4 137.4C121.5 137.4 121.6 137.2 121.7 137.2C122 136.8 121.8 136.6 121.5 136.4Z" fill="#7F7F7F"/>
<path d="M186.3 132.4C186.6 132.9 186.6 133.5 186.3 133.9C185.9 134.4 185.9 135 185.3 135.4C184.7 135.8 184.2 136.3 183.7 136.8C183.1 137 182.4 136.6 181.9 137.1C181.8 137.2 181.6 137.3 181.5 137.3C180.9 137.4 180.2 137.4 179.6 137.4C179.1 138 178.4 137.7 177.8 137.7C177.1 137.7 176.5 137.7 175.8 137.7C171.2 137.7 166.6 137.7 162 137.7C161.4 137.7 160.8 137.6 160.5 138.1C160 138.1 159.5 138.3 159.1 137.8C159 137.7 158.5 137.6 158.5 137.7C158.1 138.2 157.5 138.1 156.9 138.1C148.4 138.1 140 138.1 131.5 138.1C131 138.1 130.5 138.3 130.1 137.9C129.8 137.6 129.4 137.7 129 137.6C128.5 137.5 128.3 137 127.8 137.1C127.8 137.1 127.7 136.9 127.6 136.7C127.5 136.4 127.8 136.2 128 136.3C128.8 136.5 129.2 136 129.6 135.6C129.7 135.5 129.7 135.5 129.8 135.4C130.6 135.4 131.4 135.5 132.2 135.4C133.2 135.3 134.3 135.9 135.2 135C135.7 135 136.2 135 136.7 135C149.5 135 162.3 135 175.1 135C175.9 135 176.9 135.4 177.6 134.6C178.5 134.6 179.4 134.5 180.3 134.6C181.1 134.7 181.6 134.1 182.2 134C182.9 133.1 184.1 133.1 184.9 132.4C185.4 132.2 185.9 132.2 186.3 132.4Z" fill="#7F7F7F"/>
<path d="M57.8 77.5L88.7 111.7C88.7 111.7 92.9 117.3 99.4 112.1L166.5 56C166.5 56 171.1 51.6 167.4 47.8L154.4 36.3C154.4 36.3 149.4 30.4 144.6 35.7L99 76.7C99 76.7 94.5 82.7 88.1 76.1L71.5 63.1C71.5 63.1 67.8 59.1 63.3 63.7L57.9 69.5C57.8 69.6 52.5 73 57.8 77.5Z" fill="#45AE54"/>
<path d="M17.2 72.6C17.2 72 17.2 71.4 17.2 70.8C17.2 70.4 17 69.9 17.5 69.5C17.9 69.2 17.4 68.6 17.9 68.3C18.5 67.9 17.8 67 18.6 66.7C18.6 66.2 18.6 65.6 18.7 65.1C18.9 64.3 18.1 63.9 18.2 63.2C18.3 62.5 18.2 61.8 18.2 61.1C17.2 60 17.9 58.6 17.7 57.4C17.7 57.4 17.8 57.3 17.8 57.2C18.6 57.1 18.7 57.2 18.6 57.6C18.5 58.2 19.1 58.5 19.1 59C19.1 59.6 19.1 60.2 19.1 60.8C19.1 61.3 19 61.9 19.2 62.4C19.3 62.8 20 63 19.4 63.5C19 64 19 64.5 19.2 64.8C19.7 65.3 19.6 65.6 19.1 66.1C18.8 66.4 19.2 66.8 19.5 67C19.5 67.8 19.5 68.5 19.5 69.3C19.5 70 20.2 70.4 20 71.2C19.8 71.9 20 72.6 20 73.3C20 74 20 74.7 20 75.4C20 76.1 20 76.8 20 77.5C20 78.3 20 79 20 79.8C20 80.5 20 81.2 20 81.9C20 82.6 20 83.3 20 84C20 84.7 20 85.4 20 86.1C20 86.8 20 87.5 20 88.2C20 88.9 20 89.6 20 90.1C19.8 90.5 19.6 90.8 19.5 91.1C19.4 91.4 20.3 91.7 19.5 92.1C19.5 92.6 19.4 93 19.4 93.5C19.4 94 19.4 94.4 19.4 94.9C18.5 95.9 19 97.1 18.9 98.2C18.8 101.4 18.9 104.5 18.9 107.7C18.9 108.3 19.1 108.9 18.4 109.4C19.1 109.8 18.9 110.5 18.9 111.1C18.9 111.7 18.9 112.3 18.9 112.9C18.9 113.3 18.8 113.6 18.6 113.9C18.3 114.4 18.3 115.1 18.7 115.6C18.8 115.8 19 115.9 18.7 116.1C18.3 116.4 18.4 116.7 18.7 117C19.3 117.5 18.7 117.8 18.4 118.1C18.4 119.8 18.4 121.5 18.4 123.2C18.4 123.5 18.5 123.8 18.7 124C18.8 124.1 18.9 124.5 18.8 124.6C18.3 125 18.2 125.3 18.7 125.9C19 126.3 19 127.1 18.6 127.6C18.2 128 18.8 128 18.9 128.4C18.9 136 18.9 143.8 18.9 151.6C18.9 152.2 18.8 152.8 18.9 153.4C19 154 19.5 154.4 19.4 155.1C19.3 155.8 19.4 156.5 19.4 157.2C19.4 157.8 19.5 158.4 19.4 159C19.3 159.7 20.1 160.2 19.9 160.9C19.8 161.6 19.9 162.3 19.9 163C19.9 163.6 19.9 164.2 19.9 164.8C19.9 165.5 19.9 166.2 19.9 166.9C19.9 167.4 20.5 167.7 20.4 168.3C20.3 168.8 20.4 169.4 20.4 169.9C20.4 170.4 20.4 171 20.4 171.5C20.4 172 20.6 172.6 20 173C20 173 20.3 173.4 20.4 173.7C20.4 174.5 20.4 175.4 20.4 176.2C20.4 176.8 20.1 177.6 20.8 178.1C21 178.2 20.9 178.7 20.9 179C20.9 180 21 181 20.9 182C20.8 182.6 21.3 182.9 21.4 183.4C21.5 183.9 21.2 184.5 21.7 184.9C21.8 185 21.9 185.3 21.9 185.5C21.9 186 21.9 186.4 21.9 186.9C22.1 187.1 22.4 187.3 22.6 187.6C23.3 187.7 24.1 187.4 24.6 188.1C25.3 188.1 26.1 188.1 26.8 188.1C27.3 188.1 27.7 188.7 28.3 188.6C28.9 188.5 29.6 188.6 30.3 188.6C30.9 188.6 31.4 188.6 32 188.6C32.3 188.9 32.6 189.3 33 189C33.3 188.8 33.6 188.6 34.1 188.6C35.2 188.6 36.2 188.6 37.3 188.6C37.7 188.6 38.1 188.7 38.4 189C38.4 189 38.7 188.8 38.9 188.7C39.3 189 39.7 189.5 40.2 188.8C40.3 188.6 40.4 188.7 40.6 188.9C40.8 189.2 41.1 189.2 41.5 189.2C44.4 189.2 47.3 189.2 50.1 189.2C50.6 189.2 51.2 189 51.7 189.6C51.8 189.7 52.1 189.7 52.4 189.7C53.6 189.8 54.8 189.4 55.9 190.1C56.1 190.2 56.4 190.1 56.6 190.1C57.7 190.1 58.8 190 59.8 190.1C60.6 190.2 61 189.4 61.8 189.6C62.5 189.7 63.3 189.6 64 189.6C64.5 188.9 65.3 189.2 66 189.1C66.7 189 67.2 189.8 68 189.6C68.6 189.4 69.3 189.6 70 189.6C70.7 189.6 71.5 189.6 72.2 189.6C72.9 189.6 73.5 189.6 74.2 189.6C74.9 189.6 75.7 189.6 76.2 189.6C76.6 189.7 76.7 190.3 77.1 189.8C77.5 189.4 78 189.5 78.4 189.6C79.6 190 79.6 190 80.8 189.5C81.3 189.3 81.5 189.6 81.8 189.9C85.3 189.9 88.7 189.9 92.2 189.9C92.9 189.9 93.7 189.6 94.2 190.3C94.3 190.4 94.6 190.4 94.7 190.3C95 189.8 95.5 189.9 96 189.9C96.9 189.9 97.8 189.9 98.7 189.9C99.4 189.9 99.9 190.5 100.7 190.4C101.5 190.3 102.3 190.4 103.2 190.4C103.9 190.4 104.7 190.4 105.4 190.4C105.8 190.4 106.2 190.5 106.5 190.8C106.5 190.8 106.8 190.6 107 190.5C107.1 190.6 107.3 190.8 107.5 190.9C109.6 190.9 111.8 190.8 113.9 190.9C114.9 190.9 116 190.4 116.9 191.3C117.9 191.3 118.9 191.3 119.8 191.3C120.1 191.5 120.3 191.8 120.5 192C120.4 192.1 120.3 192.2 120.2 192.2C119.6 192.3 118.9 192 118.4 192.6C118.3 192.8 117.8 192.7 117.5 192.7C111.8 192.7 106.2 192.7 100.5 192.7C100 192.7 99.5 192.8 99.2 192.3C99 192.4 98.8 192.6 98.6 192.7C96 192.7 93.4 192.7 90.8 192.7C90.5 192.7 90.2 192.6 89.9 192.4C89.6 192.1 89.5 192.1 89.1 192.4C88.8 192.6 88.5 192.6 88.2 192.7C87.7 192.9 87.5 192 87 192.5C86.7 192.8 86.2 192.7 85.9 192.7C85.4 192.7 84.9 192.7 84.4 192.7C81.5 192.7 78.6 192.7 75.8 192.7C75.3 192.7 74.9 192.7 74.5 193.1C74.3 193.3 73.9 193.1 73.7 192.9C73.3 192.6 73.3 192.7 72.9 192.9C72.7 193 72.5 193.2 72.3 193.2C71.8 193.3 71.6 192.4 71.1 192.8C70.8 193 70.5 193.2 70 193.2C69.5 193.2 69 193.2 68.5 193.2C68 193.2 67.6 193.2 67.2 192.8C67 192.6 66.6 192.7 66.4 193C66.1 193.4 65.6 193.1 65.3 193.2C64.8 192.6 64 192.8 63.3 192.7C62.5 192.6 61.7 193 61 192.4C60.4 192 59.6 192.3 58.9 192.2C57.4 192.2 55.9 192.2 54.5 192.2C54.1 191.9 53.8 191.4 53.3 191.9C53.1 192 52.9 192.2 52.7 192.1C51.7 192 50.6 192.5 49.7 191.7C49.7 191.7 49.5 191.8 49.4 191.9C48.8 192.4 48.6 191.9 48.2 191.6C47.6 191.6 47 191.7 46.5 191.6C46 191.5 46 192.3 45.6 191.9C45.2 191.5 44.7 191.7 44.2 191.6C43.8 191.6 43.4 191.6 43 191.6C42.6 191.6 42.2 191.6 41.8 191.6C41.1 191.5 40.6 191 39.8 191.1C39.1 191.2 38.3 191.1 37.6 191.1C37.5 191.1 37.3 191 37.2 190.9C36.8 190.5 36.7 191 36.5 191.1C36.3 191 36.2 190.8 36 190.7C34.3 190.7 32.6 190.8 30.9 190.7C30.1 190.7 29.7 191.3 28.9 191.2C28.2 191.1 27.4 191.2 26.7 191.2C26.1 191.2 25.5 191.3 25 191.2C24.5 191.1 24.1 190.6 23.5 190.7C23.3 190.7 23 190.3 22.7 190.3C22.1 190.2 21.6 190.3 20.8 190.3C20.5 190 20.2 189.6 19.8 189.4C19.4 189.3 19.1 189.2 18.8 188.9C18.2 189 17.8 188.6 17.7 188.2C17.5 187.6 17 187.2 17.1 186.6C17.2 186.2 17.3 185.6 17 185.3C16.5 184.9 16.5 184.5 17 184.2C17.1 184.1 17.1 183.9 17.1 183.8C17.2 183.1 16.9 182.3 17.6 181.7C17.6 180.9 17.6 180.2 17.6 179.4C17.6 178.6 17.6 177.9 17.6 177.1C17.6 176.7 17.5 176.2 18 175.8C18.2 175.7 18.1 175.2 18.1 174.9C18.1 169.7 18.1 164.6 18.1 159.4C18.1 158.9 18.1 158.5 17.7 158.2C17.5 158.1 17.6 157.6 17.6 157.3C17.6 155.4 17.6 153.4 17.6 151.5C17.6 150.8 17.9 150 17.2 149.3C17 149.2 17.1 148.7 17.1 148.4C17.1 146.9 17.1 145.5 17.1 144C17.1 143.7 16.8 143.5 16.6 143.1C16.6 140.9 16.6 138.6 16.6 136.3C16.6 136 16.5 135.7 16.2 135.5C16.1 135.5 16.1 135.4 16.1 135.3C15.8 134.7 17 134.5 16.5 133.9C16.2 133.5 15.8 133.2 16.3 132.8C16.7 132.5 16.5 132.1 16.5 131.7C16.5 129.1 16.5 126.5 16.5 123.8C16.5 123.4 16.6 123.1 17 122.8C16.8 122.6 16.7 122.5 16.5 122.3C16.7 122.1 16.8 122 17 121.8C16.9 121.7 16.7 121.6 16.7 121.5C16.5 120.6 16.5 120.1 17 118.7C17.2 118.1 17.3 117.5 16.8 117C16.4 116.6 16.6 116.1 16.6 115.7C16.5 115.2 16.6 114.8 17 114.5C17.2 114.3 17 113.9 16.7 113.7C16.6 113.7 16.6 113.6 16.5 113.5C16.5 111.6 16.5 109.6 16.5 107.7C16.5 107.2 16.6 106.8 17 106.5C16.3 106.1 16.6 105.4 16.5 104.8C16.5 104.2 16.5 103.6 16.5 103C16.5 102.5 16.3 101.9 16.9 101.5C17 101.4 17 101.1 17 100.9C17 99.9 17 98.9 17 97.9C17 97.2 16.3 96.8 16.5 96C16.7 95.3 16.5 94.5 16.5 93.7C16.5 93 16.7 92.3 16.5 91.6C16.2 90.8 16 90.1 16 89.2C16.1 88.6 15.8 88 16.5 87.5C16.4 86.7 16.9 85.8 16 85.1C16.2 84.2 15.6 83.1 16.5 82.3C16.6 82.2 16.5 82 16.5 81.8C16.6 81.2 15.4 80.7 16.4 80.1C16.4 79.4 16.4 78.7 16.5 78C16.5 77.3 16.6 76.6 16.5 75.9C16.4 75.3 17.2 74.9 17 74.2C16.9 73.7 16.9 73.1 17 72.6C16.7 73 17 72.8 17.2 72.6Z" fill="#7F7F7F"/>
<path d="M185 24.8C186 24.8 186.9 24.8 187.9 24.8C189.1 26 190.3 27.1 191.8 28.5C192 28.8 191.4 29.6 192.2 30.1C192.3 30.2 192.3 30.4 192.3 30.5C192.3 31.3 192.3 32 192.3 32.8C193 33.4 192.7 34.2 192.8 34.9C192.9 35.5 193.4 35.9 193.3 36.6C193.2 37.1 193.3 37.7 193.3 38.2C193.3 38.8 193.3 39.4 193.3 40C193.3 40.5 193.3 41.1 193.3 41.6C193.3 41.9 193.2 42.2 193 42.4C192.9 42.5 192.8 42.7 192.8 42.8C192.9 43.3 193.8 43.8 192.9 44.3C192.9 44.8 192.8 45.4 192.8 45.9C192.8 46.5 192.8 47.1 192.8 47.7C192.8 48.3 193 48.9 192.4 49.4C192.2 49.6 192.3 50.1 192.3 50.5C192.3 53 192.3 55.6 192.3 58.1C192.3 58.7 192.6 59.5 191.9 60C191.8 60.1 191.8 60.4 191.8 60.7C191.8 61.9 191.9 63 191.8 64.2C191.8 64.8 192.5 65.2 192.3 65.9C192.2 66.4 192.2 67 192.3 67.5C192.3 67.7 192.6 67.8 192.8 68C192.5 68.3 192.1 68.5 192.4 68.9C192.6 69.2 192.8 69.5 192.8 69.9C192.8 72.6 192.8 75.3 192.8 78C192.8 78.8 192.1 79.5 192.3 80.4C192.5 81.1 192.4 81.9 192.3 82.7C192.3 83.1 191.6 83.3 192.3 83.7C192.5 83.8 192.5 84.4 192.3 84.6C191.7 85.1 191.8 85.7 191.8 86.3C191.8 87.1 191.9 87.8 191.8 88.6C191.7 89.6 192.2 90.7 191.3 91.7C191.2 91.8 191.3 92.1 191.3 92.4C191.3 93.4 191.4 94.4 191.3 95.4C191.2 96.5 191.7 97.7 190.9 98.7C190.7 98.9 190.9 99.4 190.9 99.8C190.9 103.1 190.9 106.4 190.9 109.7C190.9 110.4 191.3 111.2 190.5 111.9C190.5 111.9 190.6 112.1 190.7 112.2C191 112.4 191 112.8 190.9 113C190.6 113.7 190.3 114.4 190.4 115.1C190.5 115.9 190.3 116.7 190.4 117.4C190.5 118 189.9 118.1 189.9 118.6C189.9 119 189.9 119.4 189.9 119.8C189.9 124.4 189.9 129 189.9 133.7C190.2 134 190.8 134.3 190.2 134.8C190 135 190 135 190.1 135.3C190.5 136 190.5 136 190.1 136.7C189.8 137.2 189.8 137.2 190.4 137.8C190.4 138.8 190.5 139.8 190.4 140.8C190.3 141.3 189.8 141.8 189.9 142.5C190 143 189.9 143.6 189.9 144.1C189.9 144.7 189.9 145.3 189.9 145.9C189.9 146.4 189.9 147 189.9 147.5C189.2 148.1 189.2 148.9 189.6 149.5C189.8 149.9 190 150.3 189.8 150.5C189.1 151.3 189.4 152.2 189.3 153.1C189.3 155.3 189.3 157.4 189.3 159.6C189.3 160.2 189.6 160.8 188.9 161.3C188.9 161.8 188.8 162.2 188.8 162.7C188.8 168.7 188.8 174.7 188.8 180.7C188.8 181.3 189 181.9 188.5 182.4C188.1 182.9 188.6 183.6 188.2 183.9C187.8 184.4 187.8 185 187.2 185.4C186.8 185.7 186.4 185.6 186 185.6C185.9 185.6 185.7 185.4 185.7 185.3C185.6 184.9 185.8 184.4 185.3 184.1C185.2 184 185.2 183.6 185.3 183.5C185.6 183.2 185.7 182.9 185.7 182.5C185.7 181.6 185.6 180.6 185.7 179.7C185.7 179 185.4 178.2 186.1 177.5C186.3 177.4 186.2 176.9 186.2 176.6C186.2 175.4 186.2 174.1 186.2 172.9C186.2 172.2 186.1 171.5 186.2 170.8C186.3 170.2 186.7 169.8 186.7 169.1C186.6 167.3 186.7 165.4 186.7 163.6C186.7 163.3 186.8 163 187 162.8C187.1 162.7 187.2 162.3 187.1 162.2C186.6 161.9 186.6 161.4 186.6 161C186.6 159.2 186.6 157.5 186.6 155.7C186.6 155.3 186.5 154.8 187 154.4C187.1 154.3 187.1 154 187.1 153.8C187.1 152.7 187.1 151.7 187 150.6C186.5 150.3 186.6 150 187.1 149.7C186.8 148.8 187.6 147.7 186.6 146.9C186.8 146.7 186.9 146.6 187.1 146.4C186.9 146.2 186.7 146.1 186.7 145.9C186.6 145.6 186.7 145.3 186.7 145C186.7 144.5 186.7 143.9 186.7 143.4C186.7 143.1 187.6 142.8 186.8 142.4C186.8 141.9 186.7 141.3 186.7 140.8C186.7 140.2 186.7 139.6 186.7 139C186.7 138.4 186.4 137.7 187.1 137.3C187 137.2 186.9 137.1 186.8 137C186.7 136.8 186.6 136.5 186.6 136.4C187 136.1 187.1 135.7 187.1 135.2C187.1 134.5 186.9 133.7 187.6 133.1C187.6 132.4 187.6 131.7 187.6 131C187.6 130.9 187.8 130.8 187.8 130.6C188.2 129.7 188.2 129.7 187.6 128.6C187.4 128.2 187.7 127.9 188 127.6C187.8 127.4 187.7 127.3 187.5 127.1C187.5 126.4 187.5 125.7 187.5 125C187.5 124.8 187.7 124.6 187.8 124.4C188 124 188.1 124 187.7 123.6C187.4 123.3 187.3 123 187.6 122.6C187.9 122.4 188 122.1 187.8 121.8C187.7 121.6 187.5 121.5 187.4 121.3C187.2 120.7 187.6 119.9 187.1 119.3C186.6 118.8 187 118.1 186.9 117.5C186.8 117.2 186.6 117 186.4 116.6C186.4 114.4 186.4 112 186.4 109.6C186.4 109.1 186.2 108.6 186.7 108.1C187.1 107.8 186.8 107.2 186.9 106.8C186.9 106.3 186.9 105.7 186.9 105.2C186.9 104.1 186.9 103 186.9 102C187.3 101.7 187.7 101.4 187.2 100.9C186.9 100.7 186.8 100.3 187 100.1C187.6 99.7 187.4 99.1 187.4 98.6C187.4 92.9 187.4 87.2 187.4 81.5C187.4 80.9 187.1 80.3 187.8 79.8C187.8 79.2 188.1 78.6 187.5 78.1C187.1 77.8 187.4 77.4 187.3 77C188 76.6 187.8 75.9 187.8 75.3C187.8 75 187.8 74.7 187.8 74.4C187.8 73.4 187.8 72.4 187.8 71.4C188.7 70.7 188.1 69.7 188.3 68.8C188.4 68.4 188.9 68.1 188.8 67.6C188.7 67.2 188.7 66.7 189.2 66.4C189.4 66.3 189.3 65.8 189.3 65.5C189.3 64.1 189.3 62.7 189.3 61.3C189.3 60.7 189.6 60 188.9 59.4C188.7 59.2 188.8 58.7 188.8 58.3C188.8 53 188.8 47.7 188.8 42.3C188.8 41.8 188.9 41.2 188.3 40.8C188.2 40.8 188.3 40.4 188.4 40.2C188.5 40 188.7 39.8 188.7 39.6C188.7 38.8 188.8 38.1 188.7 37.3C188.7 37 188.4 36.7 188.2 36.3C188.1 36 188.3 35.7 188 35.4C187.8 35.1 187.7 34.7 187.4 34.5C187 34.1 187.6 34.1 187.5 33.7C187.5 33.7 187.3 33.5 187.2 33.3C187.2 33.2 187.2 33 187.2 32.9C187.1 32.2 187.4 31.5 187 30.9C186.7 30.3 186.4 29.7 185.8 29.3C185.5 29.1 185.9 28.5 185.2 28.5C184.4 28.6 184.9 27.8 184.4 27.5C184.1 27.3 184.1 26.9 183.9 26.6C183.6 26.2 183.5 25.7 183.9 25.4C184.9 25.5 184.7 25.1 185 24.8Z" fill="#7F7F7F"/>
<path d="M64.1999 22.9C65.2999 22.9 66.4999 22.9 67.5999 22.9C68.2999 22.9 68.8999 22.9 69.5999 22.9C70.2999 22.8 70.7 23.4 71.4 23.4C74.1 23.3 76.8 23.4 79.5 23.4C79.9 23.1 80.1999 22.6 80.6999 23.1C81.0999 23.5 81.7 23.5 82 23.2C82.7 22.6 83.3999 22.9 84.0999 22.9C84.6999 22.9 85.4 22.6 85.9 23.3C86.4 23.3 86.8999 23.5 87.1999 23C87.2999 22.8 87.3999 22.8 87.5999 23C87.6999 23.1 87.8 23.3 88 23.3C88.2 23.3 88.5 23.3 88.7 23.3C97.7 23.3 106.6 23.3 115.5 23.3C115.9 23 116.2 22.5 116.7 23C116.8 23.1 116.8 23.2 116.9 23.2C118.4 23.2 120 23.2 121.5 23.2C121.6 23.2 121.7 22.9 121.9 22.9C122.1 22.9 122.4 22.8 122.6 22.9C122.9 23.1 123 23.3 123.3 23C123.7 22.7 124.2 22.7 124.6 23C125.1 23.4 125.4 23.4 125.8 23C125.9 22.9 126.3 23 126.5 22.9C127.3 22.4 128 24.1 128.8 23C129.7 23 130.6 22.9 131.5 22.9C132.4 22.9 133.3 22.9 134.2 22.9C135.1 22.9 136 22.9 136.9 22.9C137.8 22.9 138.7 22.9 139.6 22.9C139.9 22.9 140.2 22.9 140.5 23.2C140.6 23.3 140.8 23.4 140.9 23.4C142 23.4 143 23.4 144.1 23.4C144.9 24.2 145.9 23.7 146.9 23.9C147.5 24 148.1 24 148.6 23.9C149.2 23.8 149.4 24.4 149.9 24.4C151.1 24.4 152.4 24.4 153.6 24.4C154.1 24.4 154.8 24.6 155.2 24.2C155.8 23.7 156.6 24.2 157 23.9C157.5 23.4 158.2 23.7 158.5 23.4C158.9 23 159.4 23 159.8 23C161.1 23 162.4 23 163.7 23C164 23 164.3 23 164.6 22.7C165.1 22.1 165.4 22.6 165.8 23C167.3 23 168.7 23 170.2 23C170.8 23 171.3 22.9 171.7 23.5C171.8 23.6 172.1 23.6 172.2 23.5C172.6 23 173.1 22.8 173.6 23.4C173.7 23.5 174 23.5 174.3 23.5C175.1 23.5 175.9 23.4 176.8 23.5C178.1 23.6 179.6 23.1 180.8 23.9C181.6 23.9 182.4 23.9 183.3 23.9C183.8 23.9 184 24.2 184.3 24.5C184.6 24.8 184.5 25 184.2 25.3C184 25.5 183.9 25.6 183.7 25.8C181.7 25.8 179.8 25.8 178 25.8C177.2 25.8 176.4 26 175.7 25.3C175.2 25.4 174.5 25 174.1 25.5C173.8 25.8 173.3 25.6 173 25.8C172.3 26.1 171.9 24.8 171.1 25.6C170.6 26.1 169.9 25.8 169.2 25.8C168.5 25.9 167.7 25.9 167 25.8C166.2 25.7 165.2 26.1 164.5 25.4C164.3 25.2 163.9 25.4 163.5 25.4C162 25.4 160.5 25.4 159.1 25.4C158.4 25.4 157.9 24.7 157.1 24.9C156.3 25.1 155.5 24.9 154.6 24.9C153.9 24.9 153.1 24.9 152.4 24.9C151.6 24.9 150.8 24.9 149.9 24.9C149.2 24.9 148.4 24.9 147.7 24.9C147 24.9 146.2 24.7 145.6 25.1C145 25.6 144.4 25.3 143.7 25.4C143 25.5 142.2 25.3 141.5 25.4C141 25.5 140.6 26 140 25.9C139.5 25.8 139 25.9 138.5 25.9C137.9 25.9 137.3 25.9 136.8 25.9C136.3 25.9 135.9 25.8 135.5 26.3C135.4 26.5 134.9 26.4 134.6 26.4C133.4 26.4 132.3 26.3 131.2 26.4C130.4 26.5 129.4 26 128.7 26.8C128.4 26.7 128.1 26.2 127.7 26.4C127.4 26.6 127.2 26.9 126.7 26.9C126.4 26.9 126.1 26.8 125.9 26.5C125.8 26.3 125.7 26.5 125.5 26.6C124.7 27 124.6 27 124 26.6C123.5 26.3 123 26.3 122.7 26.5C122.3 26.7 122 26.9 121.6 26.8C121.3 26.8 120.9 26.8 120.6 26.8C120 26.8 119.4 26.7 118.9 26.8C118.4 26.9 118.1 26.2 117.7 26.5C117.2 26.9 116.6 26.7 116.1 26.8C115.6 26.8 115.1 26.8 114.6 26.8C113.2 26.8 111.8 26.8 110.4 26.8C110.2 27 110 27.1 109.8 27.2C109.4 26.5 108.6 26.8 108 26.8C104.5 26.8 100.9 26.8 97.3999 26.8C96.4999 26.8 95.5999 27 94.8999 26.4C94.7999 26.3 94.3 26.3 94.2 26.4C93.6 27 92.9 26.8 92.2 26.9C91.5 27 91 26.2 90.2 26.4C89.6 26.6 88.8999 26.4 88.1999 26.4C87.4999 26.4 86.7 26.4 86 26.4C85.3 26.4 84.7 26.4 84 26.4C83.3 26.4 82.5 26.4 81.8 26.4C81.6 26.3 81.5 26.1 81.3 25.9C80.7 26.6 79.8999 26.5 79.0999 26.1C78.4999 25.8 78.0999 25.7 77.5999 26.1C77.1999 26.4 76.6 26.5 76.3 26.2C75.9 25.8 75.4 25.9 75 25.9C73.1 25.9 71.2 25.9 69.3 25.9C68.5 25.9 67.7 26.2 67 25.5C66.2 25.5 65.4 25.5 64.5 25.5C64.4 25.6 64.2 25.8 64 25.9C63.7 25.6 63.5 25.4 63 25.4C59.5 25.4 56.0999 25.4 52.5999 25.4C51.7999 25.4 50.9999 25.4 50.2999 25.4C49.8999 25.3 49.8 24.7 49.4 25.2C49.2 25.5 48.8999 25.6 48.5999 25.4C48.2999 25.2 48.0999 25 47.7999 25C43.5999 25 39.4 25 35.2 25C34.9 25 34.5999 25.2 34.2999 25.4C34.1999 25.3 33.9999 25.2 33.7999 25C33.1999 25 32.6999 25 32.0999 25C31.2999 25 30.4 24.7 29.7 25.2C29 25.7 28.3 25.3 27.6 25.5C27.4 25.5 27.2 25.7 27 25.8C26.3 26.2 25.5 26.2 25 26.8C24.7 27.1 24.2 26.8 24.2 26.4C24.2 25.9 24.2 25.3 24.2 24.8C24.5 24.5 24.8 24.2 25.1 23.9C25.4 23.6 25.7 23.4 26 23.1C26.8 23.3 27.3999 22.5 28.2999 22.6C29.3999 22.7 30.4 22.6 31.5 22.6C31.8 22.6 32.3 22.7 32.4 22.5C32.9 22 33.4 22.2 34 22.1C34.5 22.1 34.9999 22.1 35.2999 22.5C35.3999 22.6 35.6999 22.6 35.7999 22.5C36.3999 21.8 37.0999 22.1 37.7999 22.1C38.2999 22.1 38.7999 22.1 39.2999 22.1C39.7999 22.1 40.2999 22.2 40.7999 22.1C41.3999 22 41.5999 22.6 42.0999 22.6C42.5999 22.5 43.2 22.8 43.7 22.3C43.9 22.1 44.3999 22.2 44.7999 22.2C45.1999 22.8 45.7999 22.6 46.2999 22.6C50.7999 22.6 55.3 22.6 59.9 22.6C60.4 22.6 61 22.5 61.5 23C61.8 23.2 62.4 23.2 62.8 22.8C63.2 22.2 63.7999 22.3 64.1999 22.9Z" fill="#7F7F7F"/>
<path d="M184.7 187.2C185 187.7 185 188.4 184.7 188.7C184.3 189.2 184.3 189.8 183.7 190.2C183.1 190.6 182.6 191.2 182.1 191.7C181.5 191.9 180.8 191.5 180.3 192C180.2 192.1 180 192.2 179.9 192.2C179.3 192.3 178.6 192.3 178 192.3C177.5 192.9 176.8 192.6 176.2 192.6C175.5 192.6 174.9 192.6 174.2 192.6C169.6 192.6 165 192.6 160.4 192.6C159.8 192.6 159.2 192.5 158.9 193.1C158.4 193.1 157.9 193.3 157.5 192.8C157.4 192.7 156.9 192.6 156.9 192.7C156.5 193.2 155.9 193.1 155.3 193.1C146.9 193.1 138.4 193.1 130 193.1C129.5 193.1 129 193.3 128.6 192.9C128.3 192.5 127.9 192.7 127.5 192.6C127 192.5 126.8 192 126.3 192.1C126.3 192.1 126.2 191.9 126.1 191.7C126 191.4 126.3 191.2 126.5 191.3C127.3 191.5 127.7 191 128.1 190.5C128.2 190.4 128.2 190.4 128.3 190.3C129.1 190.3 129.9 190.4 130.7 190.3C131.7 190.2 132.8 190.8 133.7 189.9C134.2 189.9 134.7 189.9 135.2 189.9C148 189.9 160.8 189.9 173.6 189.9C174.4 189.9 175.4 190.3 176.1 189.5C177 189.5 177.9 189.4 178.8 189.5C179.6 189.6 180.1 189 180.7 188.9C181.4 188 182.6 187.9 183.4 187.3C183.8 187 184.3 187.1 184.7 187.2Z" fill="#7F7F7F"/>
<path d="M17.6 41.2C17.6 40.2 17.6 39.1 17.6 38C17.6 37.4 17.8999 36.8 17.2999 36.3C16.7999 35.9 17.3999 35.2 16.7999 34.9C16.6999 34.8 16.7 34.5 16.6 34.3C16.5 33.9 16.8 33.4 16.2 33C16.2 33 16.1999 32.8 16.2999 32.7C16.3999 32.5 16.5 32.3 16.6 32.1C16.6 31.5 16.5 30.8 16.6 30.3C16.7 29.8 17.4 29.3 17.5 28.8C17.6 27.6 18.1999 26.9 19.4 26.6C19.7 26.5 19.9 26.2 20.1 26C20.4 25.8 21.1 25.7 21.4 26C21.8 26.3 22.2 26.6 22 27.1C21.7 27.8 21.4 28.4 21.5 29.2C21.6 29.9 21.4 30.6 21.5 31.3C21.6 31.9 21.1 32.2 21 32.7C20.9 33.2 21 33.8 21 34.3C21 34.4 20.8999 34.4 20.7999 34.5C20.2999 34.7 20.5 35.3 20.1 35.7C19.8 36 20.1 36.7 19.9 37C19.2 38 19.5 39 19.4 40.1C19.4 40.5 19.2999 41 19.7999 41.3C19.8999 41.4 19.9 41.7 19.9 41.9C19.9 43 19.9 44.1 19.9 45.1C19.9 45.5 19.6 45.6 19.5 45.9C19.4 46.1 19.9 46.4 19.9 46.6C19.9 46.9 19.7 47.1 19.4 47.5C19.4 49.2 19.4 51 19.4 52.8C19.4 52.9 19.2999 52.9 19.2999 53C18.4999 53.1 18.5 53.1 18.5 52.6C18.5 52.1 18.5 51.5 18.5 51C17.9 50.7 18 50.1 18 49.6C18 49.1 18.1 48.5 18 48C17.8 47.4 17.4 47 17.5 46.3C17.6 45.7 17.5 45.1 17.5 44.5C17.5 44.2 17.3 44 17.1 43.7C17 43.6 17 43.2 17.1 43.1C17.5 42.8 17.5 42.5 17.1 42.3C17 42.2 17 42 17.1 41.9C17.3 41.5 17.5 41.4 17.6 41.2Z" fill="#7F7F7F"/>
</svg>
