<?xml version="1.0" encoding="utf-8"?>
<!-- Generator: Adobe Illustrator 23.0.0, SVG Export Plug-In . SVG Version: 6.00 Build 0)  -->
<svg version="1.1" id="Layer_1" xmlns="http://www.w3.org/2000/svg" xmlns:xlink="http://www.w3.org/1999/xlink" x="0px" y="0px"
	 viewBox="0 0 589.1 286.6" style="enable-background:new 0 0 589.1 286.6;" xml:space="preserve">
<style type="text/css">
	.st0{fill:#FFFFFF;}
	.st1{fill:#00FFFF;}
	.st2{fill:#FF00FF;}
</style>
<title>Asset 6</title>
<g>
	<g id="Layer_1-2">
		<g>
			<path class="st0" d="M20.2,31.1c-8.2,0-8.2,12.8,0,12.8S28.4,31.1,20.2,31.1z"/>
		</g>
		<g>
			<path class="st0" d="M21.9,158.7c-8.2,0-8.2,12.8,0,12.8S30.1,158.7,21.9,158.7z"/>
		</g>
		<g>
			<path class="st0" d="M102.7,38.7c-8.2,0-8.2,12.8,0,12.8S110.9,38.7,102.7,38.7z"/>
		</g>
		<g>
			<path class="st0" d="M106.1,156.1c-8.2,0-8.2,12.8,0,12.8S114.3,156.1,106.1,156.1z"/>
		</g>
		<g>
			<path class="st0" d="M132.5,156.1c-8.2,0-8.2,12.8,0,12.8S140.7,156.1,132.5,156.1z"/>
		</g>
		<g>
			<path class="st0" d="M222.7,37.9c-8.2,0-8.2,12.8,0,12.8S230.9,37.9,222.7,37.9z"/>
		</g>
		<g>
			<path class="st0" d="M256.7,37c-8.2,0-8.2,12.8,0,12.8C264.9,49.8,264.9,37,256.7,37z"/>
		</g>
		<g>
			<path class="st0" d="M262.7,157.8c-8.2,0-8.2,12.8,0,12.8S270.9,157.8,262.7,157.8z"/>
		</g>
		<g>
			<path class="st0" d="M290.7,37c-8.2,0-8.2,12.8,0,12.8S299,37,290.7,37z"/>
		</g>
		<g>
			<path class="st0" d="M295.9,159.6c-8.2,0-8.2,12.8,0,12.8S304.1,159.6,295.9,159.6z"/>
		</g>
		<g>
			<path class="st0" d="M375.8,154.4c-8.2,0-8.2,12.8,0,12.8S384.1,154.4,375.8,154.4z"/>
		</g>
		<g>
			<path class="st0" d="M306.1,0.4c-8.2,0-8.2,12.8,0,12.8S314.3,0.4,306.1,0.4z"/>
		</g>
		<g>
			<path class="st0" d="M409,158.7c-8.2,0-8.2,12.8,0,12.8S417.2,158.7,409,158.7z"/>
		</g>
		<g>
			<path class="st0" d="M492.4,37.9c-8.2,0-8.2,12.8,0,12.8S500.6,37.9,492.4,37.9z"/>
		</g>
		<g>
			<path class="st0" d="M26.1,107.2c-5.5,0-5.5,8.5,0,8.5S31.6,107.2,26.1,107.2z"/>
		</g>
		<g>
			<path class="st0" d="M55,94.4c-5.5,0-5.5,8.5,0,8.5S60.5,94.4,55,94.4z"/>
		</g>
		<g>
			<path class="st0" d="M141,42.5c-5.5,0-5.5,8.5,0,8.5S146.5,42.5,141,42.5z"/>
		</g>
		<g>
			<path class="st0" d="M217.6,155.7c-5.5,0-5.5,8.5,0,8.5S223.1,155.7,217.6,155.7z"/>
		</g>
		<g>
			<path class="st0" d="M261.8,101.3c-5.5,0-5.5,8.5,0,8.5S267.3,101.3,261.8,101.3z"/>
		</g>
		<g>
			<path class="st0" d="M373.3,40.8c-5.5,0-5.5,8.5,0,8.5S378.8,40.8,373.3,40.8z"/>
		</g>
		<g>
			<path class="st0" d="M329.9,97.8c-5.5,0-5.5,8.5,0,8.5S335.4,97.8,329.9,97.8z"/>
		</g>
		<g>
			<path class="st0" d="M335,20.4c-5.5,0-5.5,8.5,0,8.5S340.5,20.4,335,20.4z"/>
		</g>
		<g>
			<path class="st0" d="M361.4,0c-5.5,0-5.5,8.5,0,8.5S366.9,0,361.4,0z"/>
		</g>
		<g>
			<path class="st0" d="M410.7,40.8c-5.5,0-5.5,8.5,0,8.5S416.2,40.8,410.7,40.8z"/>
		</g>
		<g>
			<path class="st0" d="M489.9,159.1c-5.5,0-5.5,8.5,0,8.5S495.3,159.1,489.9,159.1z"/>
		</g>
		<g>
			
				<rect x="-2.9" y="136.6" transform="matrix(9.480336e-02 -0.9955 0.9955 9.480336e-02 -115.5255 148.6525)" class="st0" width="53.9" height="2.6"/>
		</g>
		<g>
			
				<rect x="25.1" y="103.4" transform="matrix(0.9103 -0.4139 0.4139 0.9103 -39.6848 26.1734)" class="st0" width="30.8" height="2.6"/>
		</g>
		<g>
			
				<rect x="330.3" y="2.1" transform="matrix(3.088736e-02 -0.9995 0.9995 3.088736e-02 277.9664 373.4763)" class="st0" width="2.5" height="82.6"/>
		</g>
		<g>
			
				<rect x="21.9" y="36.9" transform="matrix(0.9958 -9.150162e-02 9.150162e-02 0.9958 -6.6771 2.4272)" class="st0" width="2.5" height="74.3"/>
		</g>
		<g>
			
				<rect x="42.6" y="70.2" transform="matrix(0.6644 -0.7473 0.7473 0.6644 -27.1049 82.6135)" class="st0" width="71.7" height="2.6"/>
		</g>
		<g>
			
				<rect x="78.9" y="89.3" transform="matrix(0.7809 -0.6247 0.6247 0.7809 -63.766 78.5951)" class="st0" width="2.6" height="81.7"/>
		</g>
		<g>
			
				<rect x="77.4" y="103.8" transform="matrix(7.219376e-02 -0.9974 0.9974 7.219376e-02 21.6488 233.4268)" class="st0" width="117.7" height="2.6"/>
		</g>
		<g>
			
				<rect x="177.8" y="34.8" transform="matrix(0.829 -0.5593 0.5593 0.829 -27.0992 117.8386)" class="st0" width="2.6" height="136.8"/>
		</g>
		<g>
			
				<rect x="162.6" y="100.8" transform="matrix(5.181309e-02 -0.9987 0.9987 5.181309e-02 106.7336 316.6568)" class="st0" width="115" height="2.6"/>
		</g>
		<g>
			
				<rect x="257.6" y="42" transform="matrix(0.9967 -8.089478e-02 8.089478e-02 0.9967 -5.1044 21.18)" class="st0" width="2.5" height="63.2"/>
		</g>
		<g>
			
				<rect x="261" y="105" transform="matrix(0.9996 -2.861949e-02 2.861949e-02 0.9996 -3.7518 7.5606)" class="st0" width="2.5" height="59.6"/>
		</g>
		<g>
			
				<rect x="315.3" y="71.9" transform="matrix(0.6058 -0.7956 0.7956 0.6058 80.1817 308.2269)" class="st0" width="71.6" height="2.6"/>
		</g>
		<g>
			
				<rect x="276.3" y="132.3" transform="matrix(0.4707 -0.8823 0.8823 0.4707 47.5142 346.3546)" class="st0" width="72.3" height="2.6"/>
		</g>
		<g>
			
				<rect x="295.3" y="161.7" transform="matrix(0.998 -6.383562e-02 6.383562e-02 0.998 -9.7167 21.7442)" class="st0" width="80.1" height="2.6"/>
		</g>
		<g>
			
				<rect x="318.8" y="-1.7" transform="matrix(0.5255 -0.8508 0.8508 0.5255 138.8604 279.6006)" class="st0" width="2.5" height="34"/>
		</g>
		<g>
			
				<rect x="331.1" y="12.8" transform="matrix(0.7908 -0.6121 0.6121 0.7908 64.1559 215.7813)" class="st0" width="33.4" height="2.6"/>
		</g>
		<g>
			
				<rect x="349" y="103.8" transform="matrix(1.396223e-02 -0.9999 0.9999 1.396223e-02 298.638 513.0115)" class="st0" width="120.8" height="2.6"/>
		</g>
		<g>
			
				<rect x="448.6" y="32.6" transform="matrix(0.8311 -0.5562 0.5562 0.8311 18.2731 267.7148)" class="st0" width="2.5" height="142.3"/>
		</g>
		<g>
			
				<rect x="431.1" y="102.1" transform="matrix(2.146596e-02 -0.9998 0.9998 2.146596e-02 376.7979 591.7496)" class="st0" width="119.2" height="2.6"/>
		</g>
		<g>
			<path class="st0" d="M543.1,157.9c-8.5,0-8.5,13.2,0,13.2S551.6,157.9,543.1,157.9z"/>
		</g>
		<g>
			<path class="st0" d="M546.6,36.8c-8.5,0-8.5,13.2,0,13.2S555.1,36.8,546.6,36.8z"/>
		</g>
		<g>
			<path class="st0" d="M549.3,12.2c-8.5,0-8.5,13.2,0,13.2S557.8,12.2,549.3,12.2z"/>
		</g>
		<g>
			<path class="st0" d="M568.6,0.3c-5.7,0-5.7,8.8,0,8.8S574.3,0.3,568.6,0.3z"/>
		</g>
		<g>
			
				<rect x="483" y="103.3" transform="matrix(2.530452e-02 -0.9997 0.9997 2.530452e-02 426.3435 646.4537)" class="st0" width="123.4" height="2.6"/>
		</g>
		<g>
			
				<rect x="546.6" y="10" transform="matrix(0.8088 -0.5881 0.5881 0.8088 100.137 330.6001)" class="st0" width="23.9" height="2.6"/>
		</g>
		<g>
			<path class="st1" d="M42.6,200.9c24.5,0,42.6,16.5,42.6,40.7s-18.1,40.9-42.6,40.9S0,266,0,241.6S18.1,200.9,42.6,200.9z
				 M42.6,270.9c14.6,0,25.4-11.8,25.4-29.3s-10.9-29.1-25.4-29.1s-25.4,11.6-25.4,29.1S27.9,270.9,42.6,270.9L42.6,270.9z"/>
		</g>
		<g>
			<path class="st1" d="M104.6,202.6h35.2c24.4,0,42,15.7,42,39s-17.6,39.1-42,39.1h-35.2V202.6z M139.2,268.6
				c14.9,0,25.4-10.4,25.4-27.1s-10.6-26.9-25.4-26.9h-18.1v54L139.2,268.6z"/>
		</g>
		<g>
			<path class="st1" d="M218.3,252.4l-32.5-49.7h18.8l14.7,23.4l7.5,14.6l7.5-14.6l14.7-23.4h18.4l-32.6,49.7v28.4h-16.5V252.4z"/>
		</g>
		<g>
			<path class="st1" d="M281.1,265.3c8.9,3.5,18.8,5.7,25.9,5.7c8.3,0,17.5-3.2,17.5-12.2c0-6.8-7.8-8.8-16.4-11.2
				c-13-3.4-30.5-7.6-30.5-24.6c0-13.4,11.9-22.2,31.1-22.2c9.5,0,18.9,1.7,27.7,5l-2.6,11.3c-8.4-3.1-17.8-5-24.7-5
				c-7.7,0-15.3,2.6-15.3,10.1c0,6,6.3,8.5,13.8,10.6c13.5,3.4,33.1,7.2,33.1,24.7s-16.7,24.9-34.8,24.9c-9.3-0.2-18.6-2-27.3-5.4
				L281.1,265.3z"/>
		</g>
		<g>
			<path class="st1" d="M361.2,202.6h60.4l-0.9,12.1h-42.9v21.5l36-1v12l-36-1v22.5h45l-0.9,12.1h-60.6V202.6z"/>
		</g>
		<g>
			<path class="st1" d="M463.7,202.6H483l32.6,78.1h-18.4l-7-19.3h-34.5l-7,19.3h-17.6L463.7,202.6z M460,249.9h26l-3.8-10.4
				l-9.2-25.3l-9,25.3L460,249.9z"/>
		</g>
		<g>
			<path class="st2" d="M582.4,283.9l-52.6-2.2l-3.1-14.4l15.4-12.2l14.3-12.5l9-13.1l-1.5-10.9l-10.6-5.7l-9.9,2.4v14.1l-14.5,2.4
				l-2.8-27l26.8-9.2l22.7,10l7.3,19.4l-8,18.5l-0.1,0.1l-14.9,16.7l-10.5,7.9l36.6-1.5L582.4,283.9z M531.4,279.8l49.4,2l2.7-13
				l-40.4,1.7l15.5-11.7l14.6-16.3l7.5-17.4l-6.7-17.9l-21.2-9.3l-24.5,8.4l2.4,23.3l10.8-1.8v-14l12.2-2.9l12.2,6.6l1.7,12.7
				l-9.7,14l-14.4,12.7l-14.5,11.4L531.4,279.8z"/>
		</g>
		<g>
			<path class="st2" d="M530.6,226.2c-4.8,0-4.8,7.4,0,7.4S535.3,226.2,530.6,226.2z"/>
		</g>
		<g>
			<path class="st2" d="M542.6,224.2c-4.8,0-4.8,7.4,0,7.4S547.3,224.2,542.6,224.2z"/>
		</g>
		<g>
			<path class="st2" d="M526.6,202.2c-4.8,0-4.8,7.4,0,7.4S531.3,202.2,526.6,202.2z"/>
		</g>
		<g>
			<path class="st2" d="M552.6,193.2c-4.8,0-4.8,7.4,0,7.4S557.3,193.2,552.6,193.2z"/>
		</g>
		<g>
			<path class="st2" d="M574.6,203.2c-4.8,0-4.8,7.4,0,7.4S579.3,203.2,574.6,203.2z"/>
		</g>
		<g>
			<path class="st2" d="M581.6,222.2c-4.8,0-4.8,7.4,0,7.4S586.3,222.2,581.6,222.2z"/>
		</g>
		<g>
			<path class="st2" d="M542.6,211.2c-4.8,0-4.8,7.4,0,7.4S547.3,211.2,542.6,211.2z"/>
		</g>
		<g>
			<path class="st2" d="M553.6,208.2c-4.8,0-4.8,7.4,0,7.4S558.3,208.2,553.6,208.2z"/>
		</g>
		<g>
			<path class="st2" d="M564.6,214.2c-4.8,0-4.8,7.4,0,7.4S569.3,214.2,564.6,214.2z"/>
		</g>
		<g>
			<path class="st2" d="M566.6,226.2c-4.8,0-4.8,7.4,0,7.4S571.3,226.2,566.6,226.2z"/>
		</g>
		<g>
			<path class="st2" d="M557.6,240.2c-4.8,0-4.8,7.4,0,7.4S562.3,240.2,557.6,240.2z"/>
		</g>
		<g>
			<path class="st2" d="M527.6,263.2c-4.8,0-4.8,7.4,0,7.4S532.3,263.2,527.6,263.2z"/>
		</g>
		<g>
			<path class="st2" d="M531.6,276.2c-4.8,0-4.8,7.4,0,7.4S536.3,276.2,531.6,276.2z"/>
		</g>
		<g>
			<path class="st2" d="M582.6,279.2c-4.8,0-4.8,7.4,0,7.4S587.3,279.2,582.6,279.2z"/>
		</g>
		<g>
			<path class="st2" d="M585.6,263.2c-4.8,0-4.8,7.4,0,7.4S590.3,263.2,585.6,263.2z"/>
		</g>
		<g>
			<path class="st2" d="M545.6,266.2c-4.8,0-4.8,7.4,0,7.4S550.3,266.2,545.6,266.2z"/>
		</g>
	</g>
</g>
</svg>
