<svg xmlns="http://www.w3.org/2000/svg" viewBox="0 0 646.68 69.74"><defs><style>.cls-1{fill:#fff;}.cls-2{fill:aqua;}.cls-3{fill:#f0f;}</style></defs><title>Asset 7</title><g id="Layer_2" data-name="Layer 2"><g id="Layer_1-2" data-name="Layer 1"><path class="cls-1" d="M3.33,12.72c-3.1,0-3.11,4.81,0,4.81S6.43,12.72,3.33,12.72Z"/><path class="cls-1" d="M3.33,18.53A3.26,3.26,0,0,1,0,15.13a3.26,3.26,0,0,1,3.33-3.41,3.23,3.23,0,0,1,2.5,1.1,3.54,3.54,0,0,1,.82,2.3A3.26,3.26,0,0,1,3.33,18.53Zm0-4.81A1.32,1.32,0,0,0,2,15.13a1.33,1.33,0,1,0,2.65,0,1.53,1.53,0,0,0-.34-1A1.22,1.22,0,0,0,3.33,13.72Z"/><path class="cls-1" d="M4,60.88c-3.1,0-3.11,4.81,0,4.81S7.07,60.88,4,60.88Z"/><path class="cls-1" d="M4,66.69a3.22,3.22,0,0,1-2.5-1.1,3.45,3.45,0,0,1-.83-2.3A3.27,3.27,0,0,1,4,59.88a3.41,3.41,0,0,1,0,6.81Zm0-4.81a1.32,1.32,0,0,0-1.33,1.41,1.59,1.59,0,0,0,.34,1,1.23,1.23,0,0,0,1,.4,1.41,1.41,0,0,0,0-2.81Z"/><path class="cls-1" d="M34.47,15.61c-3.1,0-3.1,4.81,0,4.81S37.57,15.61,34.47,15.61Z"/><path class="cls-1" d="M34.47,21.42A3.26,3.26,0,0,1,31.14,18a3.27,3.27,0,0,1,3.33-3.41,3.23,3.23,0,0,1,2.5,1.1,3.54,3.54,0,0,1,.82,2.3A3.26,3.26,0,0,1,34.47,21.42Zm0-4.81A1.41,1.41,0,1,0,35.79,18,1.32,1.32,0,0,0,34.47,16.61Z"/><path class="cls-1" d="M35.75,59.91c-3.1,0-3.1,4.82,0,4.82S38.86,59.91,35.75,59.91Z"/><path class="cls-1" d="M35.75,65.73A3.41,3.41,0,1,1,38.26,60a3.5,3.5,0,0,1,.82,2.3A3.26,3.26,0,0,1,35.75,65.73Zm0-4.82a1.41,1.41,0,1,0,1.33,1.41A1.32,1.32,0,0,0,35.75,60.91Z"/><path class="cls-1" d="M45.71,59.91c-3.1,0-3.11,4.82,0,4.82S48.81,59.91,45.71,59.91Z"/><path class="cls-1" d="M45.71,65.73A3.41,3.41,0,1,1,49,62.32,3.26,3.26,0,0,1,45.71,65.73Zm0-4.82a1.41,1.41,0,0,0,0,2.82,1.41,1.41,0,0,0,0-2.82Z"/><path class="cls-1" d="M79.74,15.29c-3.1,0-3.11,4.81,0,4.81S82.84,15.29,79.74,15.29Z"/><path class="cls-1" d="M79.74,21.1a3.26,3.26,0,0,1-3.33-3.4,3.33,3.33,0,1,1,6.65,0A3.26,3.26,0,0,1,79.74,21.1Zm0-4.81a1.41,1.41,0,1,0,1.32,1.4A1.32,1.32,0,0,0,79.74,16.29Z"/><path class="cls-1" d="M92.58,15c-3.1,0-3.1,4.81,0,4.81S95.68,15,92.58,15Z"/><path class="cls-1" d="M92.58,20.78a3.26,3.26,0,0,1-3.33-3.4,3.33,3.33,0,1,1,6.66,0A3.27,3.27,0,0,1,92.58,20.78Zm0-4.81a1.41,1.41,0,1,0,1.33,1.4A1.32,1.32,0,0,0,92.58,16Z"/><path class="cls-1" d="M94.83,60.56c-3.1,0-3.11,4.81,0,4.81S97.93,60.56,94.83,60.56Z"/><path class="cls-1" d="M94.83,66.37A3.41,3.41,0,1,1,98.15,63,3.26,3.26,0,0,1,94.83,66.37Zm0-4.81A1.41,1.41,0,1,0,96.15,63,1.32,1.32,0,0,0,94.83,61.56Z"/><path class="cls-1" d="M105.42,15c-3.1,0-3.1,4.81,0,4.81S108.53,15,105.42,15Z"/><path class="cls-1" d="M105.42,20.78a3.26,3.26,0,0,1-3.32-3.4,3.35,3.35,0,0,1,5.83-2.31,3.5,3.5,0,0,1,.82,2.3A3.26,3.26,0,0,1,105.42,20.78Zm0-4.81a1.31,1.31,0,0,0-1.32,1.41,1.33,1.33,0,1,0,2.65,0,1.59,1.59,0,0,0-.34-1A1.23,1.23,0,0,0,105.42,16Z"/><path class="cls-1" d="M107.35,61.2c-3.1,0-3.1,4.81,0,4.81S110.45,61.2,107.35,61.2Z"/><path class="cls-1" d="M107.35,67a3.22,3.22,0,0,1-2.5-1.1,3.51,3.51,0,0,1-.83-2.3,3.33,3.33,0,1,1,3.33,3.4Zm0-4.81A1.32,1.32,0,0,0,106,63.61a1.59,1.59,0,0,0,.34,1,1.23,1.23,0,0,0,1,.4,1.41,1.41,0,0,0,0-2.81Z"/><path class="cls-1" d="M137.53,59.27c-3.1,0-3.11,4.82,0,4.82S140.63,59.27,137.53,59.27Z"/><path class="cls-1" d="M137.53,65.09a3.41,3.41,0,1,1,3.33-3.41A3.27,3.27,0,0,1,137.53,65.09Zm0-4.82a1.41,1.41,0,1,0,1.33,1.41A1.33,1.33,0,0,0,137.53,60.27Z"/><path class="cls-1" d="M111.2,1.16c-3.1,0-3.1,4.82,0,4.82S114.31,1.16,111.2,1.16Z"/><path class="cls-1" d="M111.2,7a3.23,3.23,0,0,1-2.5-1.1,3.54,3.54,0,0,1-.82-2.31,3.33,3.33,0,1,1,6.65,0A3.27,3.27,0,0,1,111.2,7Zm0-4.82a1.32,1.32,0,0,0-1.32,1.41,1.51,1.51,0,0,0,.34,1,1.22,1.22,0,0,0,1,.41,1.33,1.33,0,0,0,1.33-1.41A1.32,1.32,0,0,0,111.2,2.16Z"/><path class="cls-1" d="M150.05,60.88c-3.1,0-3.1,4.81,0,4.81S153.15,60.88,150.05,60.88Z"/><path class="cls-1" d="M150.05,66.69a3.41,3.41,0,0,1,0-6.81,3.23,3.23,0,0,1,2.5,1.1,3.52,3.52,0,0,1,.83,2.3A3.27,3.27,0,0,1,150.05,66.69Zm0-4.81a1.41,1.41,0,1,0,1.33,1.4,1.59,1.59,0,0,0-.34-1A1.24,1.24,0,0,0,150.05,61.88Z"/><path class="cls-1" d="M181.51,15.29c-3.09,0-3.1,4.81,0,4.81S184.62,15.29,181.51,15.29Z"/><path class="cls-1" d="M181.51,21.1a3.26,3.26,0,0,1-3.32-3.4A3.35,3.35,0,0,1,184,15.39a3.5,3.5,0,0,1,.82,2.3A3.26,3.26,0,0,1,181.51,21.1Zm0-4.81a1.31,1.31,0,0,0-1.32,1.41,1.33,1.33,0,1,0,2.65,0,1.53,1.53,0,0,0-.34-1A1.23,1.23,0,0,0,181.51,16.29Z"/><path class="cls-1" d="M194,59.59c-3.1,0-3.11,4.82,0,4.82S197.14,59.59,194,59.59Z"/><path class="cls-1" d="M194,65.41A3.41,3.41,0,1,1,197.36,62,3.27,3.27,0,0,1,194,65.41Zm0-4.82A1.41,1.41,0,1,0,195.36,62,1.33,1.33,0,0,0,194,60.59Z"/><path class="cls-1" d="M212.34,15.29c-3.1,0-3.11,4.81,0,4.81S215.44,15.29,212.34,15.29Z"/><path class="cls-1" d="M212.33,21.1A3.26,3.26,0,0,1,209,17.7a3.35,3.35,0,0,1,5.83-2.31,3.5,3.5,0,0,1,.82,2.3A3.26,3.26,0,0,1,212.33,21.1Zm0-4.81a1.41,1.41,0,1,0,1.33,1.4A1.32,1.32,0,0,0,212.33,16.29Z"/><path class="cls-1" d="M199.49,42.9c-3.1,0-3.1,4.81,0,4.81S202.6,42.9,199.49,42.9Z"/><path class="cls-1" d="M199.49,48.71a3.23,3.23,0,0,1-2.5-1.1,3.5,3.5,0,0,1-.82-2.3,3.33,3.33,0,1,1,3.32,3.4Zm0-4.81a1.31,1.31,0,0,0-1.32,1.41,1.53,1.53,0,0,0,.34,1,1.22,1.22,0,0,0,1,.4,1.41,1.41,0,0,0,0-2.81Z"/><path class="cls-1" d="M213.3,6.3c-3.1,0-3.11,4.81,0,4.81S216.4,6.3,213.3,6.3Z"/><path class="cls-1" d="M213.3,12.11a3.22,3.22,0,0,1-2.5-1.1,3.45,3.45,0,0,1-.83-2.3,3.33,3.33,0,1,1,6.65,0A3.26,3.26,0,0,1,213.3,12.11Zm0-4.81A1.32,1.32,0,0,0,212,8.71a1.59,1.59,0,0,0,.34,1,1.23,1.23,0,0,0,1,.4,1.31,1.31,0,0,0,1.32-1.41A1.31,1.31,0,0,0,213.3,7.3Z"/><path class="cls-1" d="M5.57,41.45a1.61,1.61,0,0,0,0,3.21A1.61,1.61,0,0,0,5.57,41.45Z"/><path class="cls-1" d="M5.57,45.66A2.52,2.52,0,0,1,3,43.06a2.75,2.75,0,0,1,.63-1.76,2.52,2.52,0,0,1,1.92-.85,2.61,2.61,0,0,1,0,5.21Zm0-3.21a.61.61,0,1,0,.55.61A.69.69,0,0,0,6,42.61.48.48,0,0,0,5.57,42.45Z"/><path class="cls-1" d="M16.49,36.64a1.61,1.61,0,0,0,0,3.21A1.61,1.61,0,0,0,16.49,36.64Z"/><path class="cls-1" d="M16.49,40.85a2.52,2.52,0,0,1-2.55-2.61,2.65,2.65,0,0,1,.63-1.75,2.47,2.47,0,0,1,1.92-.85,2.61,2.61,0,0,1,0,5.21Zm0-3.21a.61.61,0,1,0,.55.6.68.68,0,0,0-.15-.45A.47.47,0,0,0,16.49,37.64Z"/><path class="cls-1" d="M48.92,17.05a1.61,1.61,0,0,0,0,3.21A1.61,1.61,0,0,0,48.92,17.05Z"/><path class="cls-1" d="M48.92,21.26a2.52,2.52,0,0,1-2.55-2.6A2.69,2.69,0,0,1,47,16.9a2.47,2.47,0,0,1,1.92-.85,2.61,2.61,0,0,1,0,5.21Zm0-3.21a.61.61,0,1,0,.55.61.69.69,0,0,0-.15-.45A.47.47,0,0,0,48.92,18.05Z"/><path class="cls-1" d="M77.81,59.75a1.61,1.61,0,0,0,0,3.21A1.61,1.61,0,0,0,77.81,59.75Z"/><path class="cls-1" d="M77.81,64a2.61,2.61,0,1,1,2.55-2.6A2.52,2.52,0,0,1,77.81,64Zm0-3.21a.53.53,0,0,0-.55.61.52.52,0,0,0,.55.6.48.48,0,0,0,.41-.15.73.73,0,0,0,.14-.45A.53.53,0,0,0,77.81,60.75Z"/><path class="cls-1" d="M94.51,39.21a1.61,1.61,0,0,0,0,3.21A1.61,1.61,0,0,0,94.51,39.21Z"/><path class="cls-1" d="M94.51,43.42a2.61,2.61,0,1,1,2.55-2.61A2.52,2.52,0,0,1,94.51,43.42Zm0-3.21a.53.53,0,0,0-.55.6.69.69,0,0,0,.14.45.48.48,0,0,0,.41.16.47.47,0,0,0,.4-.16.69.69,0,0,0,.15-.45A.52.52,0,0,0,94.51,40.21Z"/><path class="cls-1" d="M136.57,16.41a1.61,1.61,0,0,0,0,3.21A1.61,1.61,0,0,0,136.57,16.41Z"/><path class="cls-1" d="M136.57,20.62a2.61,2.61,0,1,1,2.55-2.6A2.52,2.52,0,0,1,136.57,20.62Zm0-3.21A.54.54,0,0,0,136,18a.74.74,0,0,0,.15.45.51.51,0,0,0,.41.15.5.5,0,0,0,.4-.15.74.74,0,0,0,.15-.45A.54.54,0,0,0,136.57,17.41Z"/><path class="cls-1" d="M120.19,37.92a1.61,1.61,0,0,0,0,3.21A1.61,1.61,0,0,0,120.19,37.92Z"/><path class="cls-1" d="M120.19,42.13a2.61,2.61,0,1,1,2.55-2.6A2.52,2.52,0,0,1,120.19,42.13Zm0-3.21a.53.53,0,0,0-.55.61.74.74,0,0,0,.15.45.48.48,0,0,0,.4.15.51.51,0,0,0,.41-.15.73.73,0,0,0,.14-.45A.53.53,0,0,0,120.19,38.92Z"/><path class="cls-1" d="M122.12,8.71a1.61,1.61,0,0,0,0,3.21A1.61,1.61,0,0,0,122.12,8.71Z"/><path class="cls-1" d="M122.12,12.92a2.52,2.52,0,0,1-2.55-2.61,2.65,2.65,0,0,1,.63-1.75,2.47,2.47,0,0,1,1.92-.85,2.52,2.52,0,0,1,2.55,2.6A2.52,2.52,0,0,1,122.12,12.92Zm0-3.21a.53.53,0,0,0-.55.6.55.55,0,1,0,1.1,0,.69.69,0,0,0-.15-.45A.46.46,0,0,0,122.12,9.71Z"/><path class="cls-1" d="M132.07,1a1.61,1.61,0,0,0,0,3.21A1.61,1.61,0,0,0,132.07,1Z"/><path class="cls-1" d="M132.07,5.21a2.52,2.52,0,0,1-2.55-2.6,2.67,2.67,0,0,1,.63-1.76A2.47,2.47,0,0,1,132.07,0a2.52,2.52,0,0,1,2.55,2.6A2.52,2.52,0,0,1,132.07,5.21Zm0-3.21a.53.53,0,0,0-.55.61.55.55,0,1,0,1.1,0A.53.53,0,0,0,132.07,2Z"/><path class="cls-1" d="M150.69,16.41a1.61,1.61,0,0,0,0,3.21A1.61,1.61,0,0,0,150.69,16.41Z"/><path class="cls-1" d="M150.69,20.62a2.52,2.52,0,0,1-2.55-2.6,2.73,2.73,0,0,1,.63-1.76,2.47,2.47,0,0,1,1.92-.85,2.61,2.61,0,0,1,0,5.21Zm0-3.21a.61.61,0,1,0,.55.61.74.74,0,0,0-.14-.46A.51.51,0,0,0,150.69,17.41Z"/><path class="cls-1" d="M180.55,61a1.61,1.61,0,0,0,0,3.21A1.61,1.61,0,0,0,180.55,61Z"/><path class="cls-1" d="M180.55,65.25A2.52,2.52,0,0,1,178,62.64a2.65,2.65,0,0,1,.63-1.75,2.47,2.47,0,0,1,1.92-.85,2.61,2.61,0,0,1,0,5.21Zm0-3.21a.61.61,0,1,0,.55.6.73.73,0,0,0-.14-.45A.48.48,0,0,0,180.55,62Z"/><path class="cls-1" d="M224.86,44.34a1.61,1.61,0,0,0,0,3.21A1.61,1.61,0,0,0,224.86,44.34Z"/><path class="cls-1" d="M224.86,48.55a2.61,2.61,0,1,1,2.55-2.6A2.52,2.52,0,0,1,224.86,48.55Zm0-3.21a.53.53,0,0,0-.55.61.71.71,0,0,0,.14.45.48.48,0,0,0,.41.15.47.47,0,0,0,.4-.15.74.74,0,0,0,.15-.45A.53.53,0,0,0,224.86,45.34Z"/><path class="cls-1" d="M231.6,62.64a1.61,1.61,0,0,0,0,3.21A1.61,1.61,0,0,0,231.6,62.64Z"/><path class="cls-1" d="M231.6,66.85a2.61,2.61,0,1,1,2.55-2.6A2.52,2.52,0,0,1,231.6,66.85Zm0-3.21a.53.53,0,0,0-.55.61.71.71,0,0,0,.14.45.48.48,0,0,0,.41.15.46.46,0,0,0,.4-.15.74.74,0,0,0,.15-.45A.53.53,0,0,0,231.6,63.64Z"/><path class="cls-1" d="M220.36,2a1.61,1.61,0,0,0,0,3.21A1.61,1.61,0,0,0,220.36,2Z"/><path class="cls-1" d="M220.36,6.17a2.52,2.52,0,0,1-2.55-2.6,2.75,2.75,0,0,1,.63-1.76,2.56,2.56,0,0,1,4.47,1.76A2.52,2.52,0,0,1,220.36,6.17Zm0-3.21a.53.53,0,0,0-.55.61.55.55,0,1,0,1.1,0,.69.69,0,0,0-.14-.45A.48.48,0,0,0,220.36,3Z"/><rect class="cls-1" x="-5.39" y="52.53" width="20.32" height="0.96" transform="translate(-48.45 52.74) rotate(-84.56)"/><rect class="cls-1" x="-6.39" y="51.53" width="22.32" height="2.96" transform="translate(-48.45 52.76) rotate(-84.59)"/><rect class="cls-1" x="5.21" y="40.01" width="11.64" height="0.96" transform="translate(-15.77 8.2) rotate(-24.45)"/><rect class="cls-1" x="4.21" y="39.01" width="13.64" height="2.96" transform="translate(-15.76 8.19) rotate(-24.43)"/><rect class="cls-1" x="120.35" y="1.8" width="0.96" height="31.16" transform="translate(99.73 137.61) rotate(-88.23)"/><rect class="cls-1" x="119.35" y="0.8" width="2.96" height="33.16" transform="translate(99.74 137.61) rotate(-88.23)"/><rect class="cls-1" x="3.97" y="14.91" width="0.96" height="28.05" transform="translate(-2.63 0.53) rotate(-5.25)"/><rect class="cls-1" x="2.97" y="13.91" width="2.96" height="30.05" transform="translate(-2.63 0.53) rotate(-5.25)"/><rect class="cls-1" x="11.79" y="27.49" width="27.06" height="0.96" transform="translate(-12.41 28.31) rotate(-48.36)"/><rect class="cls-1" x="10.79" y="26.49" width="29.06" height="2.96" transform="translate(-12.41 28.32) rotate(-48.39)"/><rect class="cls-1" x="25.48" y="34.7" width="0.96" height="30.84" transform="translate(-25.62 27.2) rotate(-38.66)"/><rect class="cls-1" x="24.48" y="33.7" width="2.96" height="32.84" transform="translate(-25.62 27.2) rotate(-38.66)"/><rect class="cls-1" x="24.94" y="40.17" width="44.42" height="0.96" transform="translate(3.2 84.74) rotate(-85.86)"/><rect class="cls-1" x="23.94" y="39.17" width="46.42" height="2.96" transform="translate(3.22 84.76) rotate(-85.88)"/><rect class="cls-1" x="62.72" y="14.07" width="0.96" height="51.56" transform="translate(-11.47 42.27) rotate(-34.09)"/><rect class="cls-1" x="61.72" y="13.07" width="2.96" height="53.56" transform="translate(-11.47 42.27) rotate(-34.09)"/><rect class="cls-1" x="57.07" y="39.05" width="43.4" height="0.96" transform="translate(35.22 116.15) rotate(-87.03)"/><rect class="cls-1" x="56.07" y="38.05" width="45.4" height="2.96" transform="translate(35.23 116.15) rotate(-87.03)"/><rect class="cls-1" x="92.9" y="16.85" width="0.96" height="23.84" transform="matrix(1, -0.08, 0.08, 1, -2.02, 7.64)"/><rect class="cls-1" x="91.9" y="15.85" width="2.96" height="25.84" transform="translate(-2.02 7.64) rotate(-4.63)"/><rect class="cls-1" x="94.19" y="40.65" width="0.96" height="22.48" transform="translate(-1.44 2.72) rotate(-1.64)"/><rect class="cls-1" x="93.19" y="39.65" width="2.96" height="24.48" transform="translate(-1.44 2.72) rotate(-1.64)"/><rect class="cls-1" x="114.7" y="28.13" width="27.03" height="0.96" transform="translate(27.78 113.29) rotate(-52.71)"/><rect class="cls-1" x="113.7" y="27.13" width="29.03" height="2.96" transform="translate(27.8 113.31) rotate(-52.73)"/><rect class="cls-1" x="99.96" y="50.92" width="27.29" height="0.96" transform="translate(14.77 127.44) rotate(-61.92)"/><rect class="cls-1" x="98.97" y="49.92" width="29.29" height="2.96" transform="translate(14.8 127.48) rotate(-61.94)"/><rect class="cls-1" x="107.16" y="62" width="30.24" height="0.96" transform="matrix(1, -0.06, 0.06, 1, -3.74, 7.93)"/><rect class="cls-1" x="106.16" y="61" width="32.24" height="2.96" transform="translate(-3.74 7.95) rotate(-3.67)"/><rect class="cls-1" x="116.02" y="0.36" width="0.96" height="12.83" transform="translate(49.51 102.33) rotate(-58.3)"/><rect class="cls-1" x="115.02" y="-0.64" width="2.96" height="14.83" transform="translate(49.51 102.33) rotate(-58.3)"/><rect class="cls-1" x="120.64" y="5.82" width="12.59" height="0.96" transform="translate(22.7 79.01) rotate(-37.74)"/><rect class="cls-1" x="119.64" y="4.82" width="14.59" height="2.96" transform="translate(22.68 78.98) rotate(-37.72)"/><rect class="cls-1" x="127.41" y="40.17" width="45.59" height="0.96" transform="translate(107.46 190.28) rotate(-89.2)"/><rect class="cls-1" x="126.41" y="39.17" width="47.59" height="2.96" transform="translate(107.43 190.27) rotate(-89.19)"/><rect class="cls-1" x="164.98" y="13.32" width="0.96" height="53.69" transform="translate(5.6 98.79) rotate(-33.79)"/><rect class="cls-1" x="163.98" y="12.32" width="2.96" height="55.69" transform="translate(5.6 98.79) rotate(-33.79)"/><rect class="cls-1" x="158.39" y="39.53" width="44.96" height="0.96" transform="translate(136.99 219.98) rotate(-88.77)"/><rect class="cls-1" x="157.39" y="38.53" width="46.96" height="2.96" transform="translate(137 219.98) rotate(-88.77)"/><rect class="cls-1" x="187.88" y="53.17" width="17.77" height="0.96" transform="translate(88.51 226.5) rotate(-73.19)"/><rect class="cls-1" x="186.88" y="52.17" width="19.77" height="2.96" transform="translate(88.35 226.4) rotate(-73.14)"/><rect class="cls-1" x="190.53" y="30.86" width="30.45" height="0.96" transform="translate(90.55 204.68) rotate(-65.05)"/><rect class="cls-1" x="189.53" y="29.86" width="32.45" height="2.96" transform="translate(90.62 204.72) rotate(-65.07)"/><rect class="cls-1" x="217.95" y="16.21" width="0.96" height="30.9" transform="translate(5.9 91.22) rotate(-23.9)"/><rect class="cls-1" x="216.95" y="15.21" width="2.96" height="32.9" transform="translate(5.9 91.22) rotate(-23.9)"/><rect class="cls-1" x="227.59" y="45.19" width="0.96" height="19.5" transform="translate(-4.93 82.23) rotate(-20.22)"/><rect class="cls-1" x="226.59" y="44.19" width="2.96" height="21.5" transform="translate(-4.93 82.23) rotate(-20.22)"/><rect class="cls-1" x="211.53" y="32.78" width="0.96" height="25.37" transform="translate(161.2 256.26) rotate(-88.55)"/><rect class="cls-1" x="210.53" y="31.78" width="2.96" height="27.37" transform="translate(161.2 256.26) rotate(-88.55)"/><rect class="cls-1" x="212.3" y="5.49" width="8.73" height="0.96" transform="matrix(0.81, -0.59, 0.59, 0.81, 37.91, 128.56)"/><rect class="cls-1" x="211.3" y="4.49" width="10.73" height="2.96" transform="translate(37.9 128.55) rotate(-36.02)"/><path class="cls-2" d="M276.71,13.32c16.41,0,28.5,11,28.5,27.27S293.12,68,276.71,68s-28.51-11-28.51-27.37S260.3,13.32,276.71,13.32Zm0,46.86c9.74,0,17-7.88,17-19.59s-7.28-19.5-17-19.5-17,7.78-17,19.5S266.86,60.18,276.71,60.18Z"/><path class="cls-2" d="M318.24,14.5h23.58c16.31,0,28.1,10.53,28.1,26.09s-11.79,26.19-28.1,26.19H318.24Zm23.17,44.2c9.95,0,17-7,17-18.11s-7.08-18-17-18h-12.1V58.7Z"/><path class="cls-2" d="M394.33,47.77,372.59,14.5H385.2l9.85,15.65,5,9.75,5-9.75,9.85-15.65h12.3L405.4,47.77v19H394.33Z"/><path class="cls-2" d="M436.37,56.44c5.95,2.36,12.61,3.84,17.33,3.84,5.54,0,11.69-2.17,11.69-8.17,0-4.53-5.23-5.91-11-7.49C445.7,42.36,434,39.5,434,28.18c0-9,8-14.86,20.82-14.86a53.63,53.63,0,0,1,18.56,3.34l-1.74,7.58a52.25,52.25,0,0,0-16.51-3.34c-5.13,0-10.26,1.77-10.26,6.79,0,4,4.21,5.71,9.23,7.09,9,2.26,22.15,4.82,22.15,16.54S465.08,68,453,68a52.91,52.91,0,0,1-18.25-3.64Z"/><path class="cls-2" d="M490,14.5h40.4l-.61,8.07H501.08V36.94l24.1-.68v8.07l-24.1-.69V58.7h30.14l-.61,8.08H490Z"/><path class="cls-2" d="M558.6,14.5h12.92l21.85,52.28H581.06l-4.72-12.9H553.27l-4.71,12.9h-11.8Zm-2.46,31.6h17.44l-2.57-7-6.15-16.93-6.05,16.93Z"/><path class="cls-3" d="M643.1,68.5,606.16,67l-2.24-10.38,10.84-8.54,9.85-8.65,6.17-9-1-7.27-7.13-3.84-6.54,1.55v9.8l-10.65,1.78-2-19.26,18.9-6.48,16,7,5.16,13.68-5.58,12.94-.11.12L627.43,52.07,621,57l24.77-1ZM607.79,65l33.7,1.39L643.24,58l-28.58,1.18,11.48-8.69L636.2,39.28l5.13-11.91-4.58-12.13L622.27,8.87l-16.65,5.7,1.63,15.57L614.13,29V19.3l8.81-2.09,8.7,4.68,1.22,9.05L626,40.82l-10,8.76-9.9,7.81Z"/><path class="cls-3" d="M604.92,12.45a1.36,1.36,0,0,0,0,2.71A1.36,1.36,0,0,0,604.92,12.45Z"/><path class="cls-3" d="M604.92,16.15a2.28,2.28,0,0,1-2.31-2.35,2.41,2.41,0,0,1,.57-1.58,2.24,2.24,0,0,1,1.74-.77,2.35,2.35,0,0,1,0,4.7Zm0-2.7c-.09,0-.31,0-.31.35s.22.35.31.35.31,0,.31-.35S605,13.45,604.92,13.45Z"/><path class="cls-3" d="M606.74,29.86a1.36,1.36,0,0,0,0,2.71A1.36,1.36,0,0,0,606.74,29.86Z"/><path class="cls-3" d="M606.74,33.57a2.27,2.27,0,0,1-2.3-2.35,2.42,2.42,0,0,1,.57-1.59,2.25,2.25,0,0,1,1.73-.77,2.36,2.36,0,0,1,0,4.71Zm0-2.71c-.08,0-.3,0-.3.36s.22.35.3.35.31,0,.31-.35S606.83,30.86,606.74,30.86Z"/><path class="cls-3" d="M615.51,28.4a1.36,1.36,0,0,0,0,2.71A1.36,1.36,0,0,0,615.51,28.4Z"/><path class="cls-3" d="M615.51,32.11a2.27,2.27,0,0,1-2.3-2.35,2.47,2.47,0,0,1,.56-1.59,2.34,2.34,0,1,1,1.74,3.94Zm0-2.71c-.08,0-.3,0-.3.36s.22.35.3.35.31,0,.31-.36S615.6,29.4,615.51,29.4Z"/><path class="cls-3" d="M637.92,13.06a1.35,1.35,0,0,0,0,2.7A1.35,1.35,0,0,0,637.92,13.06Z"/><path class="cls-3" d="M637.92,16.76a2.28,2.28,0,0,1-2.31-2.35,2.41,2.41,0,0,1,.57-1.58,2.25,2.25,0,0,1,1.74-.77,2.35,2.35,0,0,1,0,4.7Zm0-2.7c-.08,0-.31,0-.31.35s.23.35.31.35.31,0,.31-.35S638,14.06,637.92,14.06Z"/><path class="cls-3" d="M605.41,55.56a1.35,1.35,0,0,0,0,2.7A1.35,1.35,0,0,0,605.41,55.56Z"/><path class="cls-3" d="M605.41,59.26a2.28,2.28,0,0,1-2.31-2.35,2.41,2.41,0,0,1,.57-1.58,2.22,2.22,0,0,1,1.74-.77,2.35,2.35,0,0,1,0,4.7Zm0-2.7c-.09,0-.31,0-.31.35s.22.35.31.35.3,0,.3-.35S605.49,56.56,605.41,56.56Z"/><path class="cls-3" d="M642.18,66a1.36,1.36,0,0,0,0,2.71A1.36,1.36,0,0,0,642.18,66Z"/><path class="cls-3" d="M642.18,69.74a2.28,2.28,0,0,1-2.3-2.36,2.46,2.46,0,0,1,.56-1.58,2.25,2.25,0,0,1,1.74-.77,2.28,2.28,0,0,1,2.31,2.35,2.37,2.37,0,0,1-.57,1.58A2.24,2.24,0,0,1,642.18,69.74Zm0-2.71c-.08,0-.3,0-.3.35s.22.36.3.36.2-.06.22-.08a.41.41,0,0,0,.09-.28C642.49,67,642.27,67,642.18,67Z"/><path class="cls-3" d="M644.37,55.56a1.35,1.35,0,0,0,0,2.7A1.35,1.35,0,0,0,644.37,55.56Z"/><path class="cls-3" d="M644.37,59.26a2.27,2.27,0,0,1-2.3-2.35,2.46,2.46,0,0,1,.56-1.58,2.25,2.25,0,0,1,1.74-.77,2.35,2.35,0,0,1,0,4.7Zm0-2.7c-.08,0-.3,0-.3.35s.22.35.3.35.31,0,.31-.35S644.46,56.56,644.37,56.56Z"/><path class="cls-3" d="M618.07,56.78a1.35,1.35,0,0,0,0,2.7A1.35,1.35,0,0,0,618.07,56.78Z"/><path class="cls-3" d="M618.07,60.48a2.28,2.28,0,0,1-2.31-2.35,2.39,2.39,0,0,1,.57-1.58,2.26,2.26,0,0,1,1.74-.78,2.36,2.36,0,0,1,0,4.71Zm0-2.71c-.08,0-.31,0-.31.36s.23.35.31.35.31,0,.31-.35S618.15,57.77,618.07,57.77Z"/><path class="cls-3" d="M606.89,65.05a.91.91,0,0,0,0,1.81A.91.91,0,0,0,606.89,65.05Z"/><path class="cls-3" d="M606.89,67.86A1.91,1.91,0,1,1,608.76,66,1.85,1.85,0,0,1,606.89,67.86Zm0-2a.19.19,0,0,0-.13.1.27.27,0,0,0,.13.09A.23.23,0,0,0,607,66,.18.18,0,0,0,606.89,65.86Z"/><path class="cls-3" d="M615.05,19.14a.91.91,0,0,0,0,1.81A.91.91,0,0,0,615.05,19.14Z"/><path class="cls-3" d="M615.05,22A1.91,1.91,0,1,1,616.92,20,1.84,1.84,0,0,1,615.05,22Zm0-2a.19.19,0,0,0-.13.1.27.27,0,0,0,.13.09.23.23,0,0,0,.13-.1A.22.22,0,0,0,615.05,20Z"/><path class="cls-3" d="M622.72,17.32a.9.9,0,0,0,0,1.8A.9.9,0,0,0,622.72,17.32Z"/><path class="cls-3" d="M622.72,20.12a1.9,1.9,0,1,1,1.87-1.9A1.85,1.85,0,0,1,622.72,20.12Zm0-2a.24.24,0,0,0-.13.11.27.27,0,0,0,.13.09.18.18,0,0,0,.13-.11A.27.27,0,0,0,622.72,18.12Z"/><path class="cls-3" d="M630.64,21.58a.9.9,0,0,0,0,1.8A.9.9,0,0,0,630.64,21.58Z"/><path class="cls-3" d="M630.64,24.38a1.9,1.9,0,1,1,1.87-1.9A1.84,1.84,0,0,1,630.64,24.38Zm0-2a.22.22,0,0,0-.12.11.27.27,0,0,0,.13.09.21.21,0,0,0,.13-.11A.26.26,0,0,0,630.63,22.38Z"/><path class="cls-3" d="M631.73,29.74a.9.9,0,0,0,0,1.8A.9.9,0,0,0,631.73,29.74Z"/><path class="cls-3" d="M631.73,32.54a1.85,1.85,0,0,1-1.87-1.9,2,2,0,0,1,.46-1.27,1.81,1.81,0,0,1,1.41-.63,1.9,1.9,0,0,1,0,3.8Zm0-2s-.12.07-.12.11.07.08.12.09a.18.18,0,0,0,.13-.11A.27.27,0,0,0,631.73,30.54Z"/><path class="cls-3" d="M625.28,39.11a.91.91,0,0,0,0,1.81A.91.91,0,0,0,625.28,39.11Z"/><path class="cls-3" d="M625.28,41.92a1.91,1.91,0,1,1,1.87-1.9A1.84,1.84,0,0,1,625.28,41.92Zm0-2s-.11.07-.12.1a.22.22,0,0,0,.13.09.19.19,0,0,0,.13-.1A.21.21,0,0,0,625.27,39.92Z"/><path class="cls-3" d="M626.74,50.32a.9.9,0,0,0,0,1.8A.9.9,0,0,0,626.74,50.32Z"/><path class="cls-3" d="M626.74,53.12a1.9,1.9,0,1,1,1.87-1.9A1.85,1.85,0,0,1,626.74,53.12Zm0-2a.21.21,0,0,0-.13.11.27.27,0,0,0,.13.09.21.21,0,0,0,.13-.11A.27.27,0,0,0,626.74,51.12Z"/><path class="cls-3" d="M637,38.87a.9.9,0,0,0,0,1.8A.9.9,0,0,0,637,38.87Z"/><path class="cls-3" d="M637,41.68a1.85,1.85,0,0,1-1.87-1.91,1.94,1.94,0,0,1,.46-1.27,1.81,1.81,0,0,1,1.41-.63,1.91,1.91,0,0,1,0,3.81Zm0-2a.17.17,0,0,0-.13.1.27.27,0,0,0,.13.09.23.23,0,0,0,.13-.1A.18.18,0,0,0,637,39.68Z"/><path class="cls-3" d="M642.33,26.45a.9.9,0,0,0,0,1.8A.9.9,0,0,0,642.33,26.45Z"/><path class="cls-3" d="M642.33,29.25a1.9,1.9,0,1,1,1.87-1.9A1.84,1.84,0,0,1,642.33,29.25Zm0-2a.22.22,0,0,0-.12.11.27.27,0,0,0,.13.09.21.21,0,0,0,.13-.11A.26.26,0,0,0,642.32,27.25Z"/><path class="cls-3" d="M622.24,6.84a.91.91,0,0,0,0,1.81A.91.91,0,0,0,622.24,6.84Z"/><path class="cls-3" d="M622.24,9.65a1.84,1.84,0,0,1-1.87-1.9,1.87,1.87,0,1,1,3.74,0A1.85,1.85,0,0,1,622.24,9.65Zm0-2s-.11.07-.12.1a.19.19,0,0,0,.13.09.19.19,0,0,0,.13-.1A.24.24,0,0,0,622.23,7.65Z"/></g></g></svg>