<?xml version="1.0" encoding="utf-8"?>
<!-- Generator: Adobe Illustrator 23.0.0, SVG Export Plug-In . SVG Version: 6.00 Build 0)  -->
<svg version="1.1" id="Layer_1" xmlns="http://www.w3.org/2000/svg" xmlns:xlink="http://www.w3.org/1999/xlink" x="0px" y="0px"
	 viewBox="0 0 589.1 270.8" style="enable-background:new 0 0 589.1 270.8;" xml:space="preserve">
<style type="text/css">
	.st0{fill:#FFFFFF;}
	.st1{fill:#00FFFF;}
	.st2{fill:#FF00FF;}
</style>
<title>Asset 5</title>
<g>
	<g id="Layer_1-2">
		<g>
			<path class="st0" d="M12.7,29.2c-7.7,0-7.8,12,0,12S20.4,29.2,12.7,29.2z"/>
		</g>
		<g>
			<path class="st0" d="M14.3,149.4c-7.7,0-7.7,12,0,12S22,149.4,14.3,149.4z"/>
		</g>
		<g>
			<path class="st0" d="M90.4,36.5c-7.7,0-7.8,12,0,12S98.1,36.5,90.4,36.5z"/>
		</g>
		<g>
			<path class="st0" d="M93.6,147c-7.7,0-7.7,12,0,12S101.3,147,93.6,147z"/>
		</g>
		<g>
			<path class="st0" d="M118.4,147c-7.7,0-7.7,12,0,12S126.2,147,118.4,147z"/>
		</g>
		<g>
			<path class="st0" d="M203.3,35.6c-7.7,0-7.8,12,0,12S211.1,35.6,203.3,35.6z"/>
		</g>
		<g>
			<path class="st0" d="M235.4,34.8c-7.7,0-7.8,12,0,12S243.1,34.8,235.4,34.8z"/>
		</g>
		<g>
			<path class="st0" d="M241,148.6c-7.7,0-7.8,12,0,12S248.7,148.6,241,148.6z"/>
		</g>
		<g>
			<path class="st0" d="M267.4,34.8c-7.7,0-7.8,12,0,12S275.1,34.8,267.4,34.8z"/>
		</g>
		<g>
			<path class="st0" d="M272.2,150.2c-7.7,0-7.7,12,0,12S280,150.2,272.2,150.2z"/>
		</g>
		<g>
			<path class="st0" d="M347.5,145.4c-7.7,0-7.8,12,0,12S355.2,145.4,347.5,145.4z"/>
		</g>
		<g>
			<path class="st0" d="M281.8,0.4c-7.7,0-7.8,12,0,12S289.6,0.4,281.8,0.4z"/>
		</g>
		<g>
			<path class="st0" d="M378.7,149.4c-7.7,0-7.8,12,0,12S386.5,149.4,378.7,149.4z"/>
		</g>
		<g>
			<path class="st0" d="M457.2,35.6c-7.7,0-7.8,12,0,12S465,35.6,457.2,35.6z"/>
		</g>
		<g>
			<path class="st0" d="M488.5,146.2c-7.7,0-7.8,12,0,12S496.2,146.2,488.5,146.2z"/>
		</g>
		<g>
			<path class="st0" d="M534.1,35.6c-7.7,0-7.7,12,0,12S541.9,35.6,534.1,35.6z"/>
		</g>
		<g>
			<path class="st0" d="M502.1,104.5c-7.7,0-7.7,12,0,12S509.8,104.5,502.1,104.5z"/>
		</g>
		<g>
			<path class="st0" d="M536.5,13.2c-7.7,0-7.8,12,0,12S544.3,13.2,536.5,13.2z"/>
		</g>
		<g>
			<path class="st0" d="M18.3,100.9c-5.2,0-5.2,8,0,8S23.5,100.9,18.3,100.9z"/>
		</g>
		<g>
			<path class="st0" d="M45.5,88.9c-5.2,0-5.2,8,0,8S50.7,88.9,45.5,88.9z"/>
		</g>
		<g>
			<path class="st0" d="M126.4,40c-5.2,0-5.2,8,0,8S131.6,40,126.4,40z"/>
		</g>
		<g>
			<path class="st0" d="M198.5,146.6c-5.1,0-5.2,8,0,8S203.7,146.6,198.5,146.6z"/>
		</g>
		<g>
			<path class="st0" d="M240.2,95.3c-5.1,0-5.2,8,0,8S245.3,95.3,240.2,95.3z"/>
		</g>
		<g>
			<path class="st0" d="M345.1,38.5c-5.2,0-5.2,8,0,8S350.3,38.5,345.1,38.5z"/>
		</g>
		<g>
			<path class="st0" d="M304.2,92.1c-5.1,0-5.2,8,0,8S309.4,92.1,304.2,92.1z"/>
		</g>
		<g>
			<path class="st0" d="M309,19.2c-5.1,0-5.2,8,0,8S314.2,19.2,309,19.2z"/>
		</g>
		<g>
			<path class="st0" d="M333.9,0c-5.1,0-5.2,8,0,8S339,0,333.9,0z"/>
		</g>
		<g>
			<path class="st0" d="M380.3,38.5c-5.1,0-5.2,8,0,8S385.5,38.5,380.3,38.5z"/>
		</g>
		<g>
			<path class="st0" d="M454.8,149.8c-5.1,0-5.2,8,0,8S460,149.8,454.8,149.8z"/>
		</g>
		<g>
			<path class="st0" d="M565.4,108.1c-5.2,0-5.2,8,0,8S570.5,108.1,565.4,108.1z"/>
		</g>
		<g>
			<path class="st0" d="M582.2,153.8c-5.2,0-5.2,8,0,8S587.4,153.8,582.2,153.8z"/>
		</g>
		<g>
			<path class="st0" d="M554.2,2.4c-5.2,0-5.2,8,0,8S559.3,2.4,554.2,2.4z"/>
		</g>
		<g>
			
				<rect x="-9.1" y="128.6" transform="matrix(9.480336e-02 -0.9955 0.9955 9.480336e-02 -114.4495 133.6735)" class="st0" width="50.7" height="2.4"/>
		</g>
		<g>
			
				<rect x="17.4" y="97.3" transform="matrix(0.9103 -0.4139 0.4139 0.9103 -37.9217 22.038)" class="st0" width="29" height="2.4"/>
		</g>
		<g>
			
				<rect x="304.6" y="2" transform="matrix(3.088736e-02 -0.9995 0.9995 3.088736e-02 255.5477 345.2817)" class="st0" width="2.4" height="77.7"/>
		</g>
		<g>
			
				<rect x="14.3" y="34.7" transform="matrix(0.9958 -9.150162e-02 9.150162e-02 0.9958 -6.312 1.7081)" class="st0" width="2.4" height="70"/>
		</g>
		<g>
			
				<rect x="33.8" y="66.1" transform="matrix(0.6644 -0.7473 0.7473 0.6644 -27.6248 73.0579)" class="st0" width="67.5" height="2.4"/>
		</g>
		<g>
			
				<rect x="67.9" y="84.1" transform="matrix(0.7809 -0.6247 0.6247 0.7809 -61.4051 70.0509)" class="st0" width="2.4" height="76.9"/>
		</g>
		<g>
			
				<rect x="66.6" y="97.7" transform="matrix(7.219376e-02 -0.9974 0.9974 7.219376e-02 14.5362 213.456)" class="st0" width="110.8" height="2.4"/>
		</g>
		<g>
			
				<rect x="160.9" y="32.6" transform="matrix(0.8282 -0.5605 0.5605 0.8282 -26.4724 107.4863)" class="st0" width="2.4" height="128.6"/>
		</g>
		<g>
			
				<rect x="146.8" y="94.9" transform="matrix(5.181309e-02 -0.9987 0.9987 5.181309e-02 94.5093 291.8001)" class="st0" width="108.3" height="2.4"/>
		</g>
		<g>
			
				<rect x="236.2" y="39.5" transform="matrix(0.9967 -8.089478e-02 8.089478e-02 0.9967 -4.8254 19.4288)" class="st0" width="2.4" height="59.5"/>
		</g>
		<g>
			
				<rect x="239.4" y="98.9" transform="matrix(0.9996 -2.861949e-02 2.861949e-02 0.9996 -3.5344 6.9368)" class="st0" width="2.4" height="56.1"/>
		</g>
		<g>
			
				<rect x="290.5" y="67.7" transform="matrix(0.6058 -0.7956 0.7956 0.6058 73.0086 285.1344)" class="st0" width="67.5" height="2.4"/>
		</g>
		<g>
			
				<rect x="253.8" y="124.5" transform="matrix(0.4707 -0.8823 0.8823 0.4707 41.401 320.4925)" class="st0" width="68.1" height="2.4"/>
		</g>
		<g>
			
				<rect x="271.7" y="152.2" transform="matrix(0.998 -6.383562e-02 6.383562e-02 0.998 -9.1595 20.0671)" class="st0" width="75.4" height="2.4"/>
		</g>
		<g>
			
				<rect x="295.1" y="-1.3" transform="matrix(0.5291 -0.8486 0.8486 0.5291 127.0641 258.3982)" class="st0" width="2.4" height="32.1"/>
		</g>
		<g>
			
				<rect x="305.4" y="12" transform="matrix(0.7908 -0.6121 0.6121 0.7908 59.0761 199.2828)" class="st0" width="31.4" height="2.4"/>
		</g>
		<g>
			
				<rect x="322.2" y="97.7" transform="matrix(1.396223e-02 -0.9999 0.9999 1.396223e-02 274.9171 476.6289)" class="st0" width="113.8" height="2.4"/>
		</g>
		<g>
			
				<rect x="416" y="30.7" transform="matrix(0.8311 -0.5562 0.5562 0.8311 16.1379 248.5094)" class="st0" width="2.4" height="134"/>
		</g>
		<g>
			
				<rect x="399.5" y="96.1" transform="matrix(2.146596e-02 -0.9998 0.9998 2.146596e-02 348.5511 550.7532)" class="st0" width="112.2" height="2.4"/>
		</g>
		<g>
			
				<rect x="473.8" y="128.9" transform="matrix(0.2892 -0.9573 0.9573 0.2892 228.0385 567.3644)" class="st0" width="44.5" height="2.4"/>
		</g>
		<g>
			
				<rect x="479.7" y="74.5" transform="matrix(0.4218 -0.9067 0.9067 0.4218 230.6961 513.1882)" class="st0" width="76" height="2.4"/>
		</g>
		<g>
			
				<rect x="548.2" y="38" transform="matrix(0.9143 -0.4051 0.4051 0.9143 16.1056 229.129)" class="st0" width="2.4" height="77.1"/>
		</g>
		<g>
			
				<rect x="572.2" y="110.3" transform="matrix(0.9384 -0.3456 0.3456 0.9384 -11.1925 206.473)" class="st0" width="2.4" height="48.7"/>
		</g>
		<g>
			
				<rect x="532.1" y="79.3" transform="matrix(2.530452e-02 -0.9997 0.9997 2.530452e-02 408.932 641.2902)" class="st0" width="2.4" height="63.3"/>
		</g>
		<g>
			
				<rect x="534" y="11.2" transform="matrix(0.8088 -0.5881 0.5881 0.8088 96.8916 322.8304)" class="st0" width="21.8" height="2.4"/>
		</g>
		<g>
			<path class="st1" d="M42.6,185.1c24.5,0,42.6,16.5,42.6,40.7s-18.1,40.9-42.6,40.9S0,250.3,0,225.9S18.1,185.1,42.6,185.1z
				 M42.6,255.1c14.6,0,25.4-11.8,25.4-29.3s-10.9-29.1-25.4-29.1s-25.4,11.6-25.4,29.1S27.9,255.1,42.6,255.1z"/>
		</g>
		<g>
			<path class="st1" d="M104.6,186.9h35.2c24.4,0,42,15.7,42,39s-17.6,39.1-42,39.1h-35.2V186.9z M139.2,252.9
				c14.9,0,25.4-10.4,25.4-27.1S154.1,199,139.2,199h-18.1v54L139.2,252.9z"/>
		</g>
		<g>
			<path class="st1" d="M218.3,236.6l-32.5-49.7h18.8l14.7,23.4l7.5,14.6l7.5-14.6l14.7-23.4h18.4l-32.6,49.7V265h-16.5V236.6z"/>
		</g>
		<g>
			<path class="st1" d="M281.1,249.6c8.9,3.5,18.8,5.7,25.9,5.7c8.3,0,17.5-3.2,17.5-12.2c0-6.8-7.8-8.8-16.4-11.2
				c-13-3.4-30.5-7.6-30.5-24.6c0-13.4,11.9-22.2,31.1-22.2c9.5,0,18.9,1.7,27.7,5l-2.6,11.3c-8.4-3.1-17.8-5-24.7-5
				c-7.7,0-15.3,2.6-15.3,10.1c0,6,6.3,8.5,13.8,10.6c13.5,3.4,33.1,7.2,33.1,24.7s-16.7,24.9-34.8,24.9c-9.3-0.2-18.6-2-27.3-5.4
				L281.1,249.6z"/>
		</g>
		<g>
			<path class="st1" d="M361.2,186.9h60.4l-0.9,12.1h-42.9v21.5l36-1v12.1l-36-1V253h45l-0.9,12h-60.6V186.9z"/>
		</g>
		<g>
			<path class="st1" d="M463.7,186.9H483l32.6,78.1h-18.4l-7-19.3h-34.5l-7,19.3h-17.6L463.7,186.9z M460,234.1h26l-3.8-10.4
				l-9.2-25.3l-9,25.3L460,234.1z"/>
		</g>
		<g>
			<path class="st2" d="M582.4,268.2l-52.6-2.2l-3.1-14.4l15.4-12.2l14.3-12.5l9-13.1l-1.5-10.9l-10.6-5.7l-9.9,2.4v14.1l-14.5,2.4
				l-2.8-27l26.8-9.2l22.7,10l7.3,19.4l-8,18.5l-0.1,0.1l-14.9,16.7l-10.5,7.9l36.6-1.5L582.4,268.2z M531.4,264l49.4,2.1l2.7-13
				l-40.4,1.7l15.5-11.7l14.6-16.3l7.5-17.4l-6.7-17.9l-21.2-9.3l-24.5,8.4l2.4,23.3l10.8-1.8v-14l12.2-2.9l12.2,6.6l1.7,12.7
				l-9.7,14L543.4,241l-14.5,11.4L531.4,264z"/>
		</g>
		<g>
			<path class="st2" d="M530.6,210.4c-4.8,0-4.8,7.4,0,7.4S535.3,210.4,530.6,210.4z"/>
		</g>
		<g>
			<path class="st2" d="M542.6,208.4c-4.8,0-4.8,7.4,0,7.4S547.3,208.4,542.6,208.4z"/>
		</g>
		<g>
			<path class="st2" d="M526.6,186.4c-4.8,0-4.8,7.4,0,7.4S531.3,186.4,526.6,186.4z"/>
		</g>
		<g>
			<path class="st2" d="M552.6,177.4c-4.8,0-4.8,7.4,0,7.4S557.3,177.4,552.6,177.4z"/>
		</g>
		<g>
			<path class="st2" d="M574.6,187.4c-4.8,0-4.8,7.4,0,7.4S579.3,187.4,574.6,187.4z"/>
		</g>
		<g>
			<path class="st2" d="M581.6,206.4c-4.8,0-4.8,7.4,0,7.4S586.3,206.4,581.6,206.4z"/>
		</g>
		<g>
			<path class="st2" d="M542.6,195.4c-4.8,0-4.8,7.4,0,7.4S547.3,195.4,542.6,195.4z"/>
		</g>
		<g>
			<path class="st2" d="M553.6,192.4c-4.8,0-4.8,7.4,0,7.4S558.3,192.4,553.6,192.4z"/>
		</g>
		<g>
			<path class="st2" d="M564.6,198.4c-4.8,0-4.8,7.4,0,7.4S569.3,198.4,564.6,198.4z"/>
		</g>
		<g>
			<path class="st2" d="M566.6,210.4c-4.8,0-4.8,7.4,0,7.4S571.3,210.4,566.6,210.4z"/>
		</g>
		<g>
			<path class="st2" d="M557.6,224.4c-4.8,0-4.8,7.4,0,7.4S562.3,224.4,557.6,224.4z"/>
		</g>
		<g>
			<path class="st2" d="M527.6,247.4c-4.8,0-4.8,7.4,0,7.4S532.3,247.4,527.6,247.4z"/>
		</g>
		<g>
			<path class="st2" d="M531.6,260.4c-4.8,0-4.8,7.4,0,7.4S536.3,260.4,531.6,260.4z"/>
		</g>
		<g>
			<path class="st2" d="M582.6,263.4c-4.8,0-4.8,7.4,0,7.4S587.3,263.4,582.6,263.4z"/>
		</g>
		<g>
			<path class="st2" d="M585.6,247.4c-4.8,0-4.8,7.4,0,7.4S590.3,247.4,585.6,247.4z"/>
		</g>
		<g>
			<path class="st2" d="M545.6,250.4c-4.8,0-4.8,7.4,0,7.4S550.3,250.4,545.6,250.4z"/>
		</g>
	</g>
</g>
</svg>
