<?xml version="1.0" encoding="UTF-8"?><svg width="120px" height="171px" viewBox="0 0 120 171" version="1.1" xmlns="http://www.w3.org/2000/svg" xmlns:xlink="http://www.w3.org/1999/xlink"><title>Group 4</title><desc>Created with Sketch.</desc><defs><rect id="a" x="0" y="0" width="120" height="171" rx="3"/><path d="M3 0h5v171H3a3 3 0 0 1-3-3V3a3 3 0 0 1 3-3Z" id="b"/><path id="c" d="m0 7 7.5-7H18l7 7v36H0z"/></defs><g stroke="none" stroke-width="1" fill="none" fill-rule="evenodd"><use fill="#DEDEDE" fill-rule="evenodd" xlink:href="#a"/><rect stroke="#625D58" stroke-width="2" x="1" y="1" width="118" height="169" rx="3"/><use fill="#DEDEDE" fill-rule="evenodd" xlink:href="#b"/><path stroke="#625D58" stroke-width="2" d="M7 170V1H3a2 2 0 0 0-2 2v165a2 2 0 0 0 2 2h4Z"/><path d="M90.708 68.623C85.904 58.881 76.001 64.54 61 85.602c24.61-1.577 34.513-7.236 29.708-16.979ZM27.876 78.51c1.747-10.72 12.871-8.204 33.375 7.552-23.996 5.687-35.121 3.17-33.375-7.551Z" stroke="#625D58" stroke-width="2" stroke-linecap="round" stroke-linejoin="round"/><path d="M2 86h117" stroke="#635D58" stroke-width="2" stroke-linecap="square"/><path d="M61 2.997V170" stroke="#645D58" stroke-width="2" stroke-linecap="square"/><g transform="rotate(-16 432.688 -138.727)"><use fill="#FFFFFF" fill-rule="evenodd" xlink:href="#c"/><path stroke="#625D58" stroke-width="2" d="M1 7.435V42h23V7.414L17.586 1H7.894L1 7.435Z"/><circle stroke="#635D58" stroke-width="2" fill="#DEDEDE" cx="13" cy="12" r="4"/></g><path d="m61.5 86 8 32" stroke="#645D58" stroke-width="2"/><path d="M60.659 86c-9.112 11.263-11.478 21.015-7.096 29.256" stroke="#645D58" stroke-width="2" stroke-linecap="round" stroke-linejoin="round"/></g></svg>