<svg viewBox="0 0 2252 1926" xmlns="http://www.w3.org/2000/svg" style="fill-rule:evenodd;clip-rule:evenodd;stroke-linejoin:round;stroke-miterlimit:2"><path d="M376.75 52.479C152.295 150.474-.011 374.014-.011 628.506v25.55c0 182.447 75.625 357.023 209.305 481.434l167.456 156.298V52.479z" style="fill:#d22527"/><path d="M376.733 1291.806l377.284 352.23V12.725c-74.41-15.233-151.979-17.001-229.03-4.159-43.45 7.252-85.235 18.854-124.921 34.375l-.467.182c-7.712 2.945-15.33 6.095-22.866 9.386v1239.297z" style="fill:#e27526"/><path d="M754.017 1644.036l249.79 233.2c32.98 30.78 76.5 47.93 121.79 47.93V236.757l-52.76-52.756c-83.84-83.84-188.44-141.055-301-167.356l-.67-.154a542.448 542.448 0 00-17.15-3.766v1631.311z" style="fill:#fec45c"/><path d="M1148.107 1923.706l.35-.05c36.9-4.71 71.56-20.86 98.94-46.42l255.48-238.52V11.537c-121.42 23.578-234.84 82.792-324.52 172.464l-52.76 52.762v-.006 1688.409c7.57 0 15.08-.48 22.51-1.46z" style="fill:#2e8f44"/><path d="M1502.877 1638.716l371.58-346.9V52.503c-46.54-20.321-96.2-35.251-148.25-43.937-68.91-11.486-138.23-11.284-205.39-.217l-.79.131c-5.73.92-11.45 1.949-17.15 3.057v1627.179z" style="fill:#1e4688"/><path d="M1874.457 1291.816l167.45-156.33c133.67-124.43 209.29-298.99 209.29-481.46v-25.5c0-245.54-141.72-462.173-353.26-565.165l-.62-.302-2.04-1.003c-3.45-1.622-6.9-3.245-10.36-4.867l-10.46-4.686v1239.313z" style="fill:#734e91"/></svg>