<?xml version="1.0" encoding="UTF-8" standalone="no"?><!DOCTYPE svg PUBLIC "-//W3C//DTD SVG 1.1//EN" "http://www.w3.org/Graphics/SVG/1.1/DTD/svg11.dtd"><svg width="100%" height="100%" viewBox="0 0 2252 1926" version="1.1" xmlns="http://www.w3.org/2000/svg" xmlns:xlink="http://www.w3.org/1999/xlink" xml:space="preserve" style="fill-rule:evenodd;clip-rule:evenodd;stroke-linejoin:round;stroke-miterlimit:2"><g transform="translate(-371.263 -556.404)"><path d="M35.71 5.732c-1.469-3.615-4.82-6.068-8.635-6.068h-.383c-2.735 0-5.352 1.218-7.217 3.371l-2.343 2.697H35.71Z" style="fill:rgb(210,37,39)" transform="matrix(0 -66.7084 62.0898 0 392.114 2991.04)"/><path d="m747.996 1848.21 377.284 352.23V569.129c-74.41-15.233-151.979-17.001-229.03-4.159-43.45 7.252-85.235 18.854-124.921 34.375l-.467.182c-7.712 2.945-15.33 6.095-22.866 9.386V1848.21Z" style="fill:rgb(226,117,38)"/><path d="m1125.28 2200.44 249.79 233.2c32.98 30.78 76.5 47.93 121.79 47.93V793.161l-52.76-52.756c-83.84-83.84-188.44-141.055-301-167.356l-.67-.154a542.448 542.448 0 0 0-17.15-3.766V2200.44Z" style="fill:rgb(254,196,92)"/><path d="m1519.37 2480.11.35-.05c36.9-4.71 71.56-20.86 98.94-46.42l255.48-238.52V567.941c-121.42 23.578-234.84 82.792-324.52 172.464l-52.76 52.762v-.006V2481.57c7.57 0 15.08-.48 22.51-1.46Z" style="fill:rgb(46,143,68)"/><path d="m1874.14 2195.12 371.58-346.9V608.907c-46.54-20.321-96.2-35.251-148.25-43.937-68.91-11.486-138.23-11.284-205.39-.217l-.79.131c-5.73.92-11.45 1.949-17.15 3.057V2195.12Z" style="fill:rgb(30,70,136)"/><path d="m2245.72 1848.22 167.45-156.33c133.67-124.43 209.29-298.99 209.29-481.46v-25.5c0-245.54-141.72-462.173-353.26-565.165l-.62-.302-2.04-1.003c-3.45-1.622-6.9-3.245-10.36-4.867l-10.46-4.686V1848.22Z" style="fill:rgb(115,78,145)"/></g></svg>