<svg version="1.1" id="Layer_1" xmlns="http://www.w3.org/2000/svg" xmlns:xlink="http://www.w3.org/1999/xlink" x="0" y="0" viewBox="0 0 161 38" style="enable-background:new 0 0 161 38" xml:space="preserve"><style>.st0{fill:#fff}</style><path class="st0" d="M91.1 26.6h3.8v-10c0-.7.2-1.2.6-1.5.8-.7 2.3-.8 4.2-.7v-3.1c-3.6-.5-6.1 0-7.3 1.4v.1s-1.1 1.1-1.1 3.8l-.2 10zm-21.7 0h3.8v-10c0-3.6-2.2-5.6-6-5.6-1.6 0-3 .4-4 1.1l-.2.2-.1-.1c-1-.7-2.4-1.1-4-1.1-3.9 0-6 2-6 5.6v10h3.8V16.4c0-1.3.9-2.1 2.3-2.1s2.2.7 2.2 2.1v10.2H65V16.4c0-1.3.9-2.1 2.3-2.1s2.2.7 2.2 2.1l-.1 10.2zm42.1 0h3.8V11.4h-3.8v15.2zm15.8 0h3.8v-9.5c0-3.8-2.4-6-6.5-6s-6.5 2.2-6.5 6v9.5h3.8v-9.8c0-1.5 1-2.5 2.7-2.5 1.7 0 2.7.9 2.7 2.5v9.8zm6-15.2v9.5c0 3.8 2.4 6 6.5 6s6.5-2.2 6.5-6v-9.5h-3.8v9.8c0 1.5-1 2.5-2.7 2.5-1.7 0-2.7-.9-2.7-2.5v-9.8h-3.8zm15.1 10.7v.2c0 3 2.2 4.6 6.3 4.6 2.9 0 6.3-.8 6.3-4.8 0-2.2-1.5-3.8-4.3-4.4l-2.8-.6c-1.1-.2-1.6-.7-1.6-1.4 0-1 .8-1.6 2.4-1.6.6 0 2.4 0 2.4 1.6h3.8v-.2c0-3-2.2-4.6-6.2-4.6s-6.2 1.6-6.2 4.7c0 2.3 1.5 3.9 4.3 4.4l2.8.6c1.1.2 1.6.7 1.6 1.4s-.4 1.6-2.6 1.6c-2.1 0-2.5-.9-2.5-1.6l-3.7.1zM113.5 4.5c-1.3 0-2.3 1.1-2.3 2.3 0 1.3 1 2.3 2.3 2.3 1.3 0 2.3-1.1 2.3-2.3 0-1.3-1.1-2.3-2.3-2.3zm-12.2 10.1v6.6c0 2.3.4 3.7 1.4 4.6 1.2 1 3.2 1.3 6.2.9v-3.1c-1.7.1-2.8.1-3.3-.5-.4-.4-.5-.9-.5-1.7v-6.7h3.9v-3.2h-3.9V6.8l-3.7 1.1v3.5l-.1 3.2zm-19.2-3.5c-3.9 0-6 1.8-6.1 4.6h3.8c.1-1.2.8-1.7 2.3-1.7 1.5 0 2.5.9 2.5 2.3v1h-3.9c-3.8 0-5.5 1.9-5.5 4.8 0 3 1.8 4.8 5 4.8 2.1 0 3.7-.7 4.5-2l.1-.3v2h3.3v-9.9c.1-3.6-2.1-5.6-6-5.6zm2.7 9.3v1.2c0 .7-.9 2-3.2 2-2.1 0-2.7-.7-2.7-1.9 0-1.3.7-1.8 2.8-1.8h3s.1.3.1.5z"/><defs><path id="SVGID_1_" d="M22.3 0C11.9 0 0 .9 0 19s13.4 19 22.3 19 22.2-.8 22.2-19S32.7 0 22.3 0"/></defs><clipPath id="SVGID_00000088092443499876209340000014268518015491679157_"><use xlink:href="#SVGID_1_" style="overflow:visible"/></clipPath><g id="XMLID_00000024703697079561550780000015667752104026950553_" style="clip-path:url(#SVGID_00000088092443499876209340000014268518015491679157_)"><path id="XMLID_00000183933668975762454470000008014112992336848299_" style="fill:#d22527" d="M0-.8h44.5v6.9H0z"/><path id="XMLID_00000160872705612735059970000004422416481214147235_" style="fill:#e27526" d="M0 5.7h44.5v6.9H0z"/><path id="XMLID_00000007415659011225727380000009343008761854168448_" style="fill:#fec45c" d="M0 12.3h44.5v6.9H0z"/><path id="XMLID_00000165930506450269900290000015568135864864240028_" style="fill:#2e8f44" d="M0 18.8h44.5v6.9H0z"/><path id="XMLID_00000070807354559340217250000016415822985724028853_" style="fill:#1e4688" d="M0 25.4h44.5v6.9H0z"/><path id="XMLID_00000116219864768774953170000003653942601464649909_" style="fill:#734e91" d="M0 31.9h44.5v6.9H0z"/></g><path class="st0" d="M36.7 18.8l-4.3-4.4c-1.8-1.9-3.6-4-7.1.2l7.8 8-3.6 3.7-11.6-12c-1.9-2-3.7-3.8-7 .3l15 15.4-3.6 3.7-18-18.5C14.1.9 18.8 7.8 21.9 11.1c7-7.5 10.2-4.5 14.5.1l3.9 4-3.6 3.6z"/></svg>