<?xml version="1.0" encoding="UTF-8" standalone="no"?><!DOCTYPE svg PUBLIC "-//W3C//DTD SVG 1.1//EN" "http://www.w3.org/Graphics/SVG/1.1/DTD/svg11.dtd"><svg width="100%" height="100%" viewBox="0 0 45 40" version="1.1" xmlns="http://www.w3.org/2000/svg" xmlns:xlink="http://www.w3.org/1999/xlink" xml:space="preserve" style="fill-rule:evenodd;clip-rule:evenodd;stroke-linejoin:round;stroke-miterlimit:2"><g transform="translate(0 .8)"><clipPath id="a"><path d="M22.3 0C11.9 0 0 .9 0 19s13.4 19 22.3 19 22.2-.8 22.2-19S32.7 0 22.3 0"/></clipPath><g clip-path="url(#a)"><path style="fill:rgb(210,37,39)" d="M0-.8h44.5v6.9H0z"/><path style="fill:rgb(226,117,38)" d="M0 5.7h44.5v6.9H0z"/><path style="fill:rgb(254,196,92)" d="M0 12.3h44.5v6.9H0z"/><path style="fill:rgb(46,143,68)" d="M0 18.8h44.5v6.9H0z"/><path style="fill:rgb(30,70,136)" d="M0 25.4h44.5v6.9H0z"/><path style="fill:rgb(115,78,145)" d="M0 31.9h44.5v6.9H0z"/></g><path d="m36.7 18.8-4.3-4.4c-1.8-1.9-3.6-4-7.1.2l7.8 8-3.6 3.7-11.6-12c-1.9-2-3.7-3.8-7 .3l15 15.4-3.6 3.7-18-18.5C14.1.9 18.8 7.8 21.9 11.1c7-7.5 10.2-4.5 14.5.1l3.9 4-3.6 3.6Z" style="fill:white;fill-rule:nonzero"/></g></svg>