<?xml version="1.0" encoding="UTF-8"?><svg id="Logo" xmlns="http://www.w3.org/2000/svg" width="1.902in" height="2.7793in" version="1.1" viewBox="0 0 136.941 200.1086"><defs><style>.st0 {
        fill: #fff;
      }</style></defs><path class="st0" d="M102.752 137.06a6.763 6.763 0 0 1 1.592-2.216 7.148 7.148 0 0 1 2.31-1.414 7.647 7.647 0 0 1 2.743-.5c.956 0 1.87.167 2.743.5s1.643.804 2.309 1.414a6.767 6.767 0 0 1 1.594 2.216c.396.867.594 1.835.594 2.903 0 1.081-.198 2.054-.594 2.922a6.905 6.905 0 0 1-1.594 2.225c-.666.615-1.436 1.086-2.31 1.413s-1.787.491-2.742.491a7.774 7.774 0 0 1-2.744-.49 6.963 6.963 0 0 1-2.309-1.414 6.9 6.9 0 0 1-1.592-2.224c-.396-.869-.594-1.842-.594-2.923 0-1.068.198-2.036.594-2.903Zm1.743 5.127a5.504 5.504 0 0 0 1.132 1.763 5.087 5.087 0 0 0 1.686 1.16 5.256 5.256 0 0 0 2.084.414 5.21 5.21 0 0 0 2.065-.414 5.109 5.109 0 0 0 1.688-1.16c.477-.497.857-1.084 1.14-1.763s.423-1.42.423-2.224-.141-1.544-.423-2.216-.663-1.253-1.14-1.744c-.48-.49-1.04-.873-1.688-1.15s-1.336-.414-2.065-.414c-.741 0-1.436.138-2.084.415s-1.209.66-1.686 1.149c-.479.49-.856 1.072-1.132 1.744s-.415 1.412-.415 2.216.138 1.546.415 2.224Zm5.072-6.184c.993 0 1.755.176 2.29.528.535.352.802.955.802 1.81 0 .365-.054.677-.16.933a1.66 1.66 0 0 1-.443.632c-.19.164-.408.29-.66.377s-.522.145-.812.17l2.113 3.45h-1.64l-1.924-3.374h-.98v3.374h-1.566v-7.9h2.98Zm-.018 3.3c.45 0 .822-.063 1.11-.189.29-.126.435-.426.435-.905 0-.213-.051-.384-.15-.51a1.024 1.024 0 0 0-.387-.29 1.906 1.906 0 0 0-.528-.142 4.196 4.196 0 0 0-.557-.039h-1.32v2.075h1.396ZM48.27 66.919h19.982c4.863 0 11.267 0 14.584 2.006 3.627 2.16 6.479 6.094 6.479 11.497 0 5.862-3.083 10.26-8.176 12.341v.156c6.792 1.387 10.493 6.48 10.493 13.271 0 8.098-5.788 15.815-16.742 15.815H48.27V66.92Zm7.326 23.686h14.667c8.33 0 11.727-3.01 11.727-8.797 0-7.639-5.398-8.717-11.727-8.717H55.596v17.514Zm0 25.227h18.369c6.324 0 10.339-3.857 10.339-9.873 0-7.177-5.787-9.183-11.963-9.183H55.597v19.056Z"/><path class="st0" d="M110.372 94.485c0 23.143-18.758 41.903-41.906 41.903s-41.898-18.76-41.898-41.903 18.759-41.897 41.898-41.897 41.906 18.757 41.906 41.897ZM68.466 46.197c-26.653 0-48.262 21.61-48.262 48.265s21.61 48.264 48.262 48.264 48.27-21.61 48.27-48.264-21.609-48.265-48.27-48.265ZM20.304 152.906h96.333v6.333H20.304zM31.978 24.975a3.871 3.871 0 0 0-.854-.963 4 4 0 0 0-2.513-.878c-.862 0-1.595.166-2.196.5a4.154 4.154 0 0 0-1.464 1.341 5.913 5.913 0 0 0-.818 1.915 9.515 9.515 0 0 0-.255 2.221c0 .731.084 1.443.255 2.134.172.692.444 1.314.818 1.867.374.553.862.996 1.464 1.33.601.333 1.334.5 2.196.5 1.171 0 2.086-.358 2.744-1.073.659-.716 1.061-1.66 1.208-2.83h3.709c-.098 1.089-.35 2.073-.756 2.95a7.075 7.075 0 0 1-1.61 2.245 6.832 6.832 0 0 1-2.343 1.416c-.895.325-1.879.488-2.952.488-1.334 0-2.534-.232-3.6-.696-1.064-.463-1.964-1.101-2.695-1.915a8.48 8.48 0 0 1-1.684-2.866c-.39-1.098-.585-2.282-.585-3.55 0-1.301.195-2.51.585-3.624a8.701 8.701 0 0 1 1.684-2.915 7.682 7.682 0 0 1 2.696-1.952c1.065-.471 2.265-.708 3.599-.708.96 0 1.867.14 2.72.415a7.36 7.36 0 0 1 2.293 1.208 6.521 6.521 0 0 1 1.671 1.964c.44.78.716 1.676.83 2.683h-3.709a3.145 3.145 0 0 0-.438-1.207Zm9.288 9.747c.52.504 1.269.756 2.245.756.7 0 1.301-.175 1.805-.525.504-.349.813-.719.928-1.11h3.05c-.489 1.513-1.237 2.596-2.245 3.246-1.01.65-2.229.975-3.66.975-.993 0-1.887-.158-2.684-.475a5.578 5.578 0 0 1-2.025-1.355 6.09 6.09 0 0 1-1.281-2.097c-.301-.813-.451-1.708-.451-2.684 0-.943.154-1.822.463-2.635a6.194 6.194 0 0 1 1.317-2.11 6.216 6.216 0 0 1 2.038-1.403c.79-.342 1.663-.512 2.623-.512 1.073 0 2.008.207 2.806.621a5.6 5.6 0 0 1 1.964 1.672 6.88 6.88 0 0 1 1.11 2.391c.227.894.308 1.83.243 2.805h-9.1c.05 1.123.333 1.936.854 2.44Zm3.916-6.636c-.415-.455-1.046-.683-1.891-.683-.553 0-1.013.094-1.378.28a2.629 2.629 0 0 0-.879.695c-.22.278-.374.57-.464.88a3.896 3.896 0 0 0-.157.829h5.635c-.162-.88-.451-1.546-.866-2.001Zm9.185-2.952v2.343h.05a4.343 4.343 0 0 1 1.61-1.94c.357-.236.74-.42 1.147-.55a4.14 4.14 0 0 1 1.268-.194c.228 0 .48.04.757.121v3.22a6.954 6.954 0 0 0-1.245-.121c-.635 0-1.17.106-1.61.317-.44.211-.793.5-1.061.866-.268.366-.46.793-.574 1.28a6.961 6.961 0 0 0-.17 1.586v5.685h-3.465V25.134h3.294Zm14.103 0v2.317h-2.538v6.246c0 .587.098.976.294 1.172.195.194.586.292 1.17.292.195 0 .382-.008.56-.024.18-.016.35-.04.514-.074v2.684a8.17 8.17 0 0 1-.977.097c-.357.017-.706.026-1.049.026a10.15 10.15 0 0 1-1.525-.11 3.574 3.574 0 0 1-1.268-.427 2.266 2.266 0 0 1-.866-.903c-.212-.39-.316-.903-.316-1.537v-7.442h-2.1v-2.317h2.1v-3.782h3.463v3.782h2.538Zm2.018-1.952v-2.855h3.465v2.855h-3.465Zm3.465 1.952v12.614h-3.465V25.134h3.465Zm1.373 2.317v-2.317H77.4v-.977c0-1.121.35-2.04 1.049-2.755.699-.717 1.758-1.075 3.172-1.075.308 0 .618.012.928.037.307.025.608.046.9.061v2.587a10.38 10.38 0 0 0-1.268-.074c-.47 0-.809.11-1.011.33-.204.219-.305.589-.305 1.11v.756h2.39v2.317h-2.39v10.296H77.4V27.452h-2.074Zm10.278-4.269v-2.855h3.465v2.855h-3.465Zm3.465 1.952v12.614h-3.465V25.134h3.465Zm5.463 9.588c.522.504 1.27.756 2.245.756.7 0 1.301-.175 1.806-.525.504-.349.814-.719.927-1.11h3.049c-.487 1.513-1.236 2.596-2.242 3.246-1.012.65-2.23.975-3.661.975-.994 0-1.888-.158-2.684-.475a5.568 5.568 0 0 1-2.025-1.355 6.088 6.088 0 0 1-1.282-2.097c-.3-.813-.451-1.708-.451-2.684 0-.943.156-1.822.464-2.635a6.174 6.174 0 0 1 1.318-2.11 6.196 6.196 0 0 1 2.037-1.403c.788-.342 1.663-.512 2.623-.512 1.073 0 2.009.207 2.806.621a5.607 5.607 0 0 1 1.964 1.672c.512.7.881 1.496 1.108 2.391.23.894.31 1.83.246 2.805h-9.1c.048 1.123.333 1.936.853 2.44Zm3.916-6.636c-.414-.455-1.046-.683-1.89-.683-.554 0-1.012.094-1.379.28a2.625 2.625 0 0 0-.878.695c-.22.278-.374.57-.464.88a4 4 0 0 0-.158.829h5.635c-.16-.88-.45-1.546-.866-2.001Zm14.847 8.051c-.408.683-.94 1.176-1.599 1.476-.658.3-1.401.451-2.231.451-.945 0-1.774-.182-2.488-.549a4.984 4.984 0 0 1-1.77-1.487 6.716 6.716 0 0 1-1.05-2.16 9.07 9.07 0 0 1-.352-2.537c0-.845.117-1.663.352-2.452a6.353 6.353 0 0 1 1.05-2.087 5.25 5.25 0 0 1 1.744-1.45c.7-.367 1.513-.55 2.44-.55.749 0 1.46.158 2.134.476a3.716 3.716 0 0 1 1.6 1.403h.048v-6.344h3.464v17.42h-3.293v-1.61h-.049Zm-.147-6.234a3.674 3.674 0 0 0-.5-1.269 2.822 2.822 0 0 0-.915-.89c-.374-.228-.845-.341-1.414-.341s-1.05.113-1.44.341a2.71 2.71 0 0 0-.94.903 4.013 4.013 0 0 0-.511 1.28 6.894 6.894 0 0 0-.158 1.502c0 .487.056.975.169 1.463.114.489.297.923.549 1.306.253.383.57.69.953.927.381.236.842.353 1.378.353.569 0 1.045-.113 1.427-.341.382-.228.687-.533.915-.915.226-.382.39-.817.487-1.305.098-.488.147-.992.147-1.513s-.05-1.02-.147-1.5ZM28.755 171.671c-.175-1.22-1.343-2.148-2.683-2.148-2.42 0-3.333 2.064-3.333 4.212 0 2.042.912 4.104 3.333 4.104 1.648 0 2.58-1.134 2.782-2.75h2.616c-.276 3.06-2.39 5.018-5.398 5.018-3.795 0-6.028-2.835-6.028-6.372 0-3.644 2.233-6.48 6.028-6.48 2.698 0 4.965 1.582 5.293 4.416h-2.61Zm8.346-.978c2.801 0 4.605 1.853 4.605 4.69 0 2.817-1.804 4.673-4.605 4.673-2.783 0-4.586-1.856-4.586-4.673 0-2.837 1.803-4.69 4.586-4.69Zm0 7.524c1.667 0 2.164-1.427 2.164-2.834 0-1.426-.497-2.852-2.164-2.852-1.648 0-2.15 1.426-2.15 2.852 0 1.407.502 2.834 2.15 2.834Zm6.11-7.3h2.317v1.649h.036c.444-1.116 1.648-1.888 2.836-1.888.171 0 .376.033.533.084v2.268a4.54 4.54 0 0 0-.877-.084c-1.789 0-2.408 1.289-2.408 2.85v4.004H43.21v-8.883Zm6.675.016h2.32v1.133h.033c.584-.944 1.545-1.373 2.644-1.373 2.786 0 4.037 2.25 4.037 4.774 0 2.372-1.303 4.588-3.899 4.588-1.064 0-2.077-.464-2.661-1.34h-.036v4.227h-2.439v-12.01Zm6.595 4.468c0-1.412-.567-2.87-2.13-2.87-1.597 0-2.111 1.426-2.111 2.87 0 1.441.549 2.816 2.13 2.816 1.599 0 2.111-1.375 2.111-2.816Zm7.794-4.708c2.801 0 4.608 1.853 4.608 4.69 0 2.817-1.807 4.673-4.608 4.673-2.782 0-4.585-1.856-4.585-4.673 0-2.837 1.803-4.69 4.585-4.69Zm0 7.524c1.666 0 2.166-1.427 2.166-2.834 0-1.426-.5-2.852-2.166-2.852-1.647 0-2.147 1.426-2.147 2.852 0 1.407.5 2.834 2.147 2.834Zm6.113-7.3h2.319v1.649h.037c.444-1.116 1.647-1.888 2.832-1.888.172 0 .379.033.533.084v2.268a4.502 4.502 0 0 0-.876-.084c-1.787 0-2.406 1.289-2.406 2.85v4.004h-2.439v-8.883Zm6.437 2.748c.14-2.286 2.183-2.972 4.176-2.972 1.769 0 3.901.394 3.901 2.523v4.623c0 .809.084 1.615.312 1.977h-2.478a3.866 3.866 0 0 1-.173-.861c-.771.81-1.904 1.1-2.987 1.1-1.684 0-3.023-.84-3.023-2.664 0-2.008 1.514-2.489 3.023-2.695 1.495-.225 2.888-.172 2.888-1.17 0-1.046-.725-1.202-1.582-1.202-.928 0-1.528.378-1.616 1.34h-2.44Zm5.639 1.802c-.415.364-1.272.377-2.03.516-.755.152-1.442.414-1.442 1.306 0 .911.704 1.133 1.496 1.133 1.904 0 1.976-1.51 1.976-2.044v-.91Zm7.366-4.534h1.787v1.632H89.83v4.395c0 .828.208 1.033 1.03 1.033.259 0 .5-.017.758-.066v1.906c-.414.069-.948.086-1.428.086-1.49 0-2.797-.346-2.797-2.115v-5.239h-1.48v-1.632h1.48v-2.664h2.437v2.664Zm6.067-1.375h-2.44v-2.011h2.44v2.01Zm-2.44 1.375h2.44v8.882h-2.44v-8.882Zm8.663-.24c2.802 0 4.61 1.853 4.61 4.69 0 2.817-1.808 4.673-4.61 4.673-2.78 0-4.583-1.856-4.583-4.673 0-2.837 1.802-4.69 4.583-4.69Zm0 7.524c1.67 0 2.166-1.427 2.166-2.834 0-1.426-.496-2.852-2.166-2.852-1.648 0-2.147 1.426-2.147 2.852 0 1.407.499 2.834 2.147 2.834Zm6.185-7.284h2.32v1.237h.05c.62-.997 1.684-1.477 2.716-1.477 2.594 0 3.246 1.46 3.246 3.659v5.463h-2.439v-5.017c0-1.46-.43-2.184-1.562-2.184-1.325 0-1.892.741-1.892 2.546v4.655h-2.439v-8.882Z"/></svg>