<svg viewBox="0 0 45 40" xmlns="http://www.w3.org/2000/svg" style="fill-rule:evenodd;clip-rule:evenodd;stroke-linejoin:round;stroke-miterlimit:2"><g transform="translate(0 .8)"><clipPath id="a"><path d="M22.3 0C11.9 0 0 .9 0 19s13.4 19 22.3 19 22.2-.8 22.2-19S32.7 0 22.3 0"/></clipPath><g clip-path="url(#a)"><path style="fill:#d22527" d="M0-.8h44.5v6.9H0z"/><path style="fill:#e27526" d="M0 5.7h44.5v6.9H0z"/><path style="fill:#fec45c" d="M0 12.3h44.5v6.9H0z"/><path style="fill:#2e8f44" d="M0 18.8h44.5v6.9H0z"/><path style="fill:#1e4688" d="M0 25.4h44.5v6.9H0z"/><path style="fill:#734e91" d="M0 31.9h44.5v6.9H0z"/></g></g><path d="M36.7 19.6l-4.3-4.4c-1.8-1.9-3.6-4-7.1.2l7.8 8-3.6 3.7-11.6-12c-1.9-2-3.7-3.8-7 .3l15 15.4-3.6 3.7L4.3 16c9.8-14.3 14.5-7.4 17.6-4.1 7-7.5 10.2-4.5 14.5.1l3.9 4-3.6 3.6z" style="fill:#fff;fill-rule:nonzero"/></svg>