<svg width="60" height="60" viewBox="0 0 60 60" fill="none" xmlns="http://www.w3.org/2000/svg"><g clip-path="url(#a)"><path fill-rule="evenodd" clip-rule="evenodd" d="M14.386 45.1v6.828h43.07V15.315h-21.47l-.774-3.23h22.4a3.077 3.077 0 0 1 3.076 3.076v36.924a3.076 3.076 0 0 1-3.076 3.076h-43.38a3.076 3.076 0 0 1-3.076-3.076v-6.2l3.23-.785ZM37 34.46l3.366-.865-.51-2.128h14.372V48.7H37v-9.09l.068-.015-.068-.256V34.46Zm-19.383 9.854 17.229-4.184v8.57h-17.23v-4.386ZM37 19.547v-1h17.228v4.307H37.793L37 19.547Zm1.307 5.461h15.92v4.306H39.339l-1.032-4.306Z" fill="#0094E7"/><path fill-rule="evenodd" clip-rule="evenodd" d="M17.649 24.416a4.49 4.49 0 0 0-3.183 3.041c-.04.57.1 1.14.4 1.626a1.719 1.719 0 0 0 1.432.541l1.35-.229.001-4.979ZM-.689 16.249l12.436-2.771a10.055 10.055 0 0 0-4.3 4.958l8.135.667a3.269 3.269 0 0 1 2.066-2.187v2.978c-5.587.562-11.573 2.6-12.669 8.666-.21 4.394 2.487 6.269 6.64 6.269a12.63 12.63 0 0 0 6.029-1.5v7.082L5.487 43.143-.689 16.249Zm22.048-4.937 5.163-1.145.463 1.978a16.834 16.834 0 0 0-5.626-.829v-.004ZM17.65 29.393l.148-.041c2.381-.584 2.7-3.459 3.056-5.458a9.944 9.944 0 0 0-3.2.52v4.979h-.004Zm0 3.937a6.263 6.263 0 0 0 2.339-2.145l-.253 2.435.127.854h8.494a12.17 12.17 0 0 1 .043-4.458c.358-1.958.841-4.061 1.264-6.144L32.7 37.06l-15.05 3.353V33.33Zm0-16.413a4.464 4.464 0 0 1 1.622-.312c2.087 0 2.719 1.416 2.213 3.1-1.222 0-2.509.062-3.836.187l.001-2.975Z" fill="#0094E7"/><path fill-rule="evenodd" clip-rule="evenodd" d="m15.709 36.247-7.02 1.564-.865-3.711a8.867 8.867 0 0 0 3.794.729 13.643 13.643 0 0 0 4.09-.646v2.062l.001.002Zm0-10.768a3.507 3.507 0 0 0-1.244 1.978c-.04.57.1 1.14.4 1.626.21.264.51.442.843.5l.001-4.104Zm-13.2-14.56 13.2-2.958V11.9c-3.584.875-6.745 2.833-8.262 6.541l8.135.667c.043-.146.085-.271.127-.4v1.462c-4.006.667-7.9 2.229-9.781 5.645L2.516 10.919h-.007Zm13.2 18.662c.196.026.393.04.59.042l1.5-.27c2.382-.584 2.7-3.459 3.056-5.458a8.436 8.436 0 0 0-5.143 1.583l-.003 4.103Zm0 6.665 7.882-1.77h-3.73l-.127-.854.253-2.437a7.7 7.7 0 0 1-4.278 3v2.061Zm0-16.08a35.04 35.04 0 0 1 5.775-.458c.506-1.687-.126-3.1-2.213-3.1a3.833 3.833 0 0 0-3.562 2.1v1.458Zm0-12.206 14.017-3.121L35.9 31.705l-7.714 1.729a15.325 15.325 0 0 1 .21-3.416c.717-4.062 2.066-8.6 2.066-12.747 0-5.416-5.375-5.958-9.612-5.958a21.216 21.216 0 0 0-5.143.584V7.961l.002-.001Z" fill="#0094E7"/></g><defs><clipPath id="a"><path fill="white" d="M0 0h60v60H0z"/></clipPath></defs></svg>