<svg width="60" height="60" viewBox="0 0 60 60" fill="none" xmlns="http://www.w3.org/2000/svg"><g clip-path="url(#clip0_436_1377)" fill-rule="evenodd" clip-rule="evenodd" fill="#BA1B02"><path d="M31.1 24.15l-1.35.6-1.35-.6L8.9 14.4l9.3-3.6 20.1 9.75-7.2 3.6zm19.65-9.75l-7.05 3.45-20.25-9 6.3-2.4 21 7.95z"/><path d="M30.5 0l25.8 9.9-3.6 2.85-22.8-9L6.8 12.9l-3.6-3L29 0h1.5zm22.65 13.65l4.2-1.65-3.15 26.4-.6 1.2L31.1 60l-.75-4.65 20.1-18 2.7-23.7zm-47.4 26.1l-.6-1.2L2 12.15l4.2 1.65 2.85 23.55 20.1 18L28.4 60 5.75 39.75z"/><path d="M44.3 18.6l6.45-4.05-2.55 21.3L29.9 52.5l.9-25.5 8.1-4.95-.45 12.45 4.95-3.45.9-12.45zm-15.75 8.25l.9 25.5-18.3-16.5L8.6 14.7l19.95 12.15z"/></g><defs><clipPath id="clip0_436_1377"><path fill="#fff" transform="translate(2)" d="M0 0h55.5v60H0z"/></clipPath></defs></svg>