<svg width="60" height="60" viewBox="0 0 60 60" fill="none" xmlns="http://www.w3.org/2000/svg"><path d="M49.6 48.946H21.836V41.1h17.43v4.38c0 .24.13.464.336.58.206.116.46.11.66-.02l3.744-2.434 3.744 2.434a.644.644 0 00.348.104.65.65 0 00.312-.082.666.666 0 00.336-.58v-4.38h.854c2.118 0 3.84 1.76 3.84 3.922s-1.722 3.922-3.84 3.922zM20.54 27.132v7.844h-.008a.646.646 0 00-.152-.256L5.14 18.976v-6.448L19.156 27.01a.633.633 0 00.752.122h.632zm0 13.968v7.844h-.054a.745.745 0 00-.106-.152L5.14 33.05v-6.152l13.556 14.006a.638.638 0 00.726.136c.082.038.172.06.268.06h.85zm1.296-6.12v-7.848H49.6c1.706 0 3.152 1.142 3.652 2.718H36.95a.655.655 0 00-.648.662c0 .366.29.662.648.662h2.316v3.806h-17.43zm27.764-.004h-.854V31.17h4.688c-.062 2.11-1.756 3.806-3.834 3.806zm3.156 3.076c2.568-1.192 4.364-3.874 4.364-6.986a7.756 7.756 0 00-2.75-5.958L34.43 6.428c-.01-.01-.022-.018-.034-.026a.464.464 0 00-.06-.044c-.016-.012-.034-.02-.052-.03-.02-.01-.038-.02-.058-.028-.02-.008-.044-.014-.064-.02-.018-.004-.036-.012-.056-.014-.024-.004-.05-.006-.076-.008-.014 0-.026-.004-.04-.004H3.526c-.012 0-.02.002-.03.004a.712.712 0 00-.094.01c-.02.004-.036.01-.056.016-.02.006-.044.012-.066.02-.02.008-.04.02-.06.03-.018.01-.036.018-.052.03-.028.018-.052.04-.076.062l-.022.018-.002.002a.81.81 0 00-.082.1l-.024.044c-.014.024-.028.044-.036.068-.01.022-.014.046-.02.068-.006.018-.014.036-.018.056a.683.683 0 00-.012.13v.002l.002.03a.774.774 0 00.01.098c.002.008.004.012.004.018l-.002.022V9.78a.67.67 0 00.172.602l.796.822a.6.6 0 00-.018.148v6.322a.635.635 0 00-.774.104.67.67 0 00-.178.606v2.73c-.02.098-.018.2.008.298-.002.024-.008.048-.008.074v2.664a.67.67 0 00.172.602l.782.808c-.002.016-.004.03-.004.046v6.142a.635.635 0 00-.774.104.67.67 0 00-.17.634c-.002.026-.008.05-.008.078v2.626a.67.67 0 00.172.602L19.15 52.416c.016.018.036.03.052.044.12.136.288.222.48.222h30.08c4.052 0 7.35-3.43 7.35-7.646.01-3.11-1.788-5.792-4.356-6.984z" fill="#FCC34C"/></svg>