<svg width="60" height="60" viewBox="0 0 60 60" fill="none" xmlns="http://www.w3.org/2000/svg"><path d="M57 9H3v42.817h54V9z" fill="#003973"/><path d="M29.996 22.853c3.082 0 5.614 2.51 5.614 5.607 0 3.089-2.532 5.614-5.614 5.614-3.09 0-5.606-2.525-5.606-5.614a5.61 5.61 0 015.606-5.607zM5.342 11.433c.175 4.867 2.074 10.085 4.737 14.868 5.843 10.542 12.922 14.318 19.917 14.318 6.69 0 12.16-5.462 12.16-12.167 0-6.713-5.47-12.168-12.167-12.168-3.502 0-6.736 1.496-8.941 3.876.298 2.174.717 4.05 1.267 5.728 1.06-3.15 4.165-5.446 7.674-5.446 4.409 0 8.016 3.586 8.016 8.01 0 4.424-3.607 8.033-8.016 8.033-9.467.007-12.037-13.67-12.076-25.052H5.342zM20.69 17.24c2.502-2.099 5.79-3.433 9.299-3.433 6.376 0 11.823 4.15 13.913 10.092 1.175-1.297 4.005-7.438 4.5-12.465H20.408a40.438 40.438 0 00.283 5.806zm33.976-5.806h-3.822c-.824 6.896-3.806 13.075-6.278 16.027 0 .213.015.801.015 1 0 2.609-.694 5.08-1.877 7.17 6.027-5.157 11.824-15.959 11.962-24.197zm-.084 10.39c-2.708 7.438-7.095 13.494-12.411 17.217l12.411 7.415V21.823zm-49.149.061v24.594l12.403-7.423c-5.3-3.707-9.702-9.764-12.403-17.17zM39.722 40.55l14.86 8.834H5.433l14.852-8.849c3.013 1.633 6.301 2.518 9.71 2.518 3.426 0 6.714-.9 9.727-2.503z" fill="#FABB00"/></svg>