<svg width="60" height="60" viewBox="0 0 60 60" fill="none" xmlns="http://www.w3.org/2000/svg"><g clip-path="url(#clip0_706_4616)" fill="#073F85"><path d="M2.64 25.01c0 .002-.04.151-.093.332-.05.18-.094.344-.094.366 0 .031 1.118.037 5.566.031l5.568-.01.1-.356c.055-.196.102-.36.102-.367 0-.003-2.51-.006-5.575-.006-3.065 0-5.574.003-5.574.01zm13.649.027c-.016.04-.121.404-1.494 5.196-.649 2.258-1.006 3.494-1.152 3.997-.016.053.115.056 2.463.056h2.481l.481-1.693.482-1.692h2.329c3.031 0 3.59-.035 4.534-.267 2.134-.528 3.59-1.774 3.587-3.069-.003-.413-.202-.931-.497-1.276-.54-.64-1.385-1.031-2.655-1.233-.342-.053-10.54-.072-10.56-.019zm8.217 1.764c.516.097.876.475.873.913a1.259 1.259 0 01-.224.671c-.199.308-.53.525-1.015.659-.236.068-.295.068-2.143.08-1.742.01-1.904.006-1.904-.04 0-.04.565-2.056.637-2.276.018-.05 3.515-.056 3.776-.007zm8.311-1.779c-.016.025-.103.329-.938 3.239-.267.932-.646 2.251-.845 2.935-.195.683-.394 1.382-.444 1.552-.046.171-.158.563-.248.87-.09.307-.171.584-.177.615-.016.05.111.053 2.462.047l2.479-.01.124-.42.481-1.676.36-1.258 2.702-.018c2.916-.02 3.047-.028 3.864-.2.714-.151 1.28-.34 1.835-.62.565-.286 1.118-.69 1.4-1.025.06-.069.116-.13.125-.14.074-.059.33-.512.404-.72.164-.45.152-.892-.04-1.358-.175-.416-.488-.773-.945-1.077-.522-.348-1.13-.556-2.046-.702-.258-.04-10.528-.075-10.553-.034zm8.44 1.838c.255.103.547.395.606.603.137.503-.202 1.143-.754 1.413a3.339 3.339 0 01-.448.17c-.236.066-.3.069-2.117.078-1.032.003-1.895.003-1.917-.006-.025-.01.028-.242.196-.817.127-.44.273-.947.323-1.127.05-.18.1-.345.106-.366.012-.032.382-.038 1.916-.032l1.903.01.187.074zm7.663-.425a6748.844 6748.844 0 00-2.243 7.835c0 .01 2.854.016 6.345.016h6.341l.326-1.143c.18-.627.327-1.155.327-1.17 0-.023-1.317-.038-3.855-.047l-3.857-.016.165-.575c.09-.316.33-1.14.528-1.832.199-.692.444-1.543.543-1.894.162-.575.693-2.42.733-2.556.016-.05-.115-.053-2.463-.053h-2.478l-.413 1.435zm-46.926.838c-.124.432-.224.795-.224.81 0 .013 2.506.02 5.565.016l5.569-.009.223-.776c.125-.429.224-.786.227-.802 0-.012-2.506-.021-5.568-.021H2.217l-.223.782zm-.451 1.6a19.11 19.11 0 00-.232.785c-.122.42-.255.88-.299 1.025-.04.146-.065.273-.052.29.012.012 2.515.018 5.562.015l5.543-.01.04-.124c.063-.186.566-1.947.566-1.978 0-.031-11.109-.034-11.128-.003zm-.86 2.965c-.022.075-.084.299-.143.497-.161.556-.313 1.09-.332 1.159-.006.034-.059.211-.112.391-.053.18-.096.345-.096.367 0 .024 1.413.03 5.565.027l5.568-.009.081-.295.637-2.214c.015-.05-.264-.053-5.56-.053H.718l-.034.13z"/></g><defs><clipPath id="clip0_706_4616"><path fill="#fff" d="M0 0h60v60H0z"/></clipPath></defs></svg>