<?xml version="1.0" encoding="UTF-8"?>
<svg width="120px" height="171px" viewBox="0 0 120 171" version="1.1" xmlns="http://www.w3.org/2000/svg" xmlns:xlink="http://www.w3.org/1999/xlink">
    <!-- Generator: Sketch 46.2 (44496) - http://www.bohemiancoding.com/sketch -->
    <title>Group 4</title>
    <desc>Created with Sketch.</desc>
    <defs>
        <rect id="path-1" x="0" y="0" width="120" height="171" rx="3"></rect>
        <path d="M3,0 L8,0 L8,171 L3,171 L3,171 C1.34314575,171 2.02906125e-16,169.656854 0,168 L0,3 L0,3 C-2.02906125e-16,1.34314575 1.34314575,3.04359188e-16 3,0 Z" id="path-2"></path>
        <polygon id="path-3" points="0 7 7.5 0 12.5 0 18 0 25 7 25 43 0 43"></polygon>
    </defs>
    <g id="D-Moj-Martinus" stroke="none" stroke-width="1" fill="none" fill-rule="evenodd">
        <g id="5-4-Downloads" transform="translate(-350.000000, -357.000000)">
            <g id="Group-4" transform="translate(350.000000, 357.000000)">
                <g id="Rectangle">
                    <use fill="#DEDEDE" fill-rule="evenodd" xlink:href="#path-1"></use>
                    <rect stroke="#625D58" stroke-width="2" x="1" y="1" width="118" height="169" rx="3"></rect>
                </g>
                <g id="Rectangle">
                    <use fill="#DEDEDE" fill-rule="evenodd" xlink:href="#path-2"></use>
                    <path stroke="#625D58" stroke-width="2" d="M7,170 L7,1 L3,1 C1.8954305,1 1,1.8954305 1,3 L1,168 C1,169.104569 1.8954305,170 3,170 L7,170 Z"></path>
                </g>
                <path d="M87.9409472,65.1124697 C80.4977179,57.200476 72.6823272,65.5080694 64.494775,90.0352498 C87.5687857,81.3320567 95.3841765,73.0244634 87.9409472,65.1124697 Z" id="Line-4-Copy-7" stroke="#625D58" stroke-width="2" stroke-linecap="round" stroke-linejoin="round" transform="translate(77.579427, 76.126544) rotate(17.000000) translate(-77.579427, -76.126544) "></path>
                <path d="M52.986838,70.8336105 C45.5436087,62.9216168 37.7282179,71.2292102 29.5406657,95.7563906 C52.6146765,87.0531975 60.4300672,78.7456042 52.986838,70.8336105 Z" id="Line-4-Copy-9" stroke="#625D58" stroke-width="2" stroke-linecap="round" stroke-linejoin="round" transform="translate(42.625318, 81.847685) scale(-1, 1) rotate(34.000000) translate(-42.625318, -81.847685) "></path>
                <path d="M2,86 L119,86" id="Line" stroke="#635D58" stroke-width="2" stroke-linecap="square"></path>
                <path d="M61,2.99702803 L61,170" id="Line-2" stroke="#645D58" stroke-width="2" stroke-linecap="square"></path>
                <g id="Group-2" transform="translate(72.941974, 131.112593) rotate(-16.000000) translate(-72.941974, -131.112593) translate(60.441974, 109.612593)">
                    <g id="Rectangle-3">
                        <use fill="#FFFFFF" fill-rule="evenodd" xlink:href="#path-3"></use>
                        <path stroke="#625D58" stroke-width="2" d="M1,7.4345523 L1,42 L24,42 L24,7.41421356 L17.5857864,1 L7.89416318,1 L1,7.4345523 Z"></path>
                    </g>
                    <circle id="Oval" stroke="#635D58" stroke-width="2" fill="#DEDEDE" cx="13" cy="12" r="4"></circle>
                </g>
                <path d="M61.5,86 L69.5,118" id="Path-2" stroke="#645D58" stroke-width="2"></path>
                <path d="M67.111031,89.377876 C53.7776977,95.0445427 47.111031,102.544543 47.111031,111.877876" id="Path-3" stroke="#645D58" stroke-width="2" stroke-linecap="round" stroke-linejoin="round" transform="translate(57.111031, 100.627876) rotate(-28.000000) translate(-57.111031, -100.627876) "></path>
            </g>
        </g>
    </g>
</svg>