<?xml version="1.0" encoding="utf-8"?>
<!-- Generator: Adobe Illustrator 22.1.0, SVG Export Plug-In . SVG Version: 6.00 Build 0)  -->
<svg version="1.1" id="Layer_1" xmlns="http://www.w3.org/2000/svg" xmlns:xlink="http://www.w3.org/1999/xlink" x="0px" y="0px"
	 viewBox="0 0 120 171" style="enable-background:new 0 0 120 171;" xml:space="preserve">
<style type="text/css">
	.st0{fill:#DEDEDE;}
	.st1{fill:none;stroke:#625D58;stroke-width:2;}
</style>
<title>Group 4</title>
<desc>Created with Sketch.</desc>
<g id="D-Moj-Martinus">
	<g id="_x35_-4-Downloads" transform="translate(-350.000000, -357.000000)">
		<g id="Group-4" transform="translate(350.000000, 357.000000)">
			<g id="Rectangle">
				<g>
					<path id="path-1" class="st0" d="M3,0h114c1.7,0,3,1.3,3,3v165c0,1.7-1.3,3-3,3H3c-1.7,0-3-1.3-3-3V3C0,1.3,1.3,0,3,0z"/>
				</g>
				<path class="st1" d="M4,1h112c1.7,0,3,1.3,3,3v163c0,1.7-1.3,3-3,3H4c-1.7,0-3-1.3-3-3V4C1,2.3,2.3,1,4,1z"/>
			</g>
			<g id="Rectangle_1_">
				<g>
					<path id="path-2" class="st0" d="M3,0h5v171H3l0,0c-1.7,0-3-1.3-3-3V3l0,0C0,1.3,1.3,0,3,0z"/>
				</g>
				<path class="st1" d="M7,170V1H3C1.9,1,1,1.9,1,3v165c0,1.1,0.9,2,2,2H7z"/>
			</g>
		</g>
	</g>
</g>
</svg>
