<svg xmlns="http://www.w3.org/2000/svg" viewBox="0 0 301.6 183.23"><defs><style>.cls-1{fill:#a1835e;}.cls-2{fill:#f89622;}.cls-3{fill:#eeb05f;}.cls-4{fill:#cd4a31;}.cls-5{fill:#cb9f4d;}.cls-6{fill:#6a4b3e;}.cls-7{fill:#e4be61;}.cls-8{fill:#8b6240;}.cls-9{fill:#d77e32;}.cls-10{fill:#f7d483;}.cls-11{fill:#ae7851;}.cls-12{fill:#c20316;}.cls-13{fill:#9a6743;}.cls-14{fill:#e17e23;}.cls-15{fill:#020002;}.cls-16{fill:#d0452b;}.cls-17{fill:#8e6a3a;}.cls-18{fill:#a0af41;}.cls-19{fill:#c29348;}.cls-20{fill:#010101;}.cls-21{fill:#f7ba23;}</style></defs><title>Asset 1</title><g id="Layer_2" data-name="Layer 2"><g id="Layer_1-2" data-name="Layer 1"><path d="M32.22,99.39c6.06,5,13.52,8.9,20,11.92a60.07,60.07,0,0,0,25.82,6c37.33,0,53.38-25.87,53.67-39.72,0-1.49-.41-5.89-2.77-8.29a5.31,5.31,0,0,0-2.72-1.52,17.66,17.66,0,0,0,1.34-4.88,7.85,7.85,0,0,0-1.79-6c-.76-.86-2-.92-2.71-1.61-1.13-1.09-.56-.51-.82-2.16-.38-2.39-.39-4.24-1.66-6.44-2.27-3.95-6.26-6.94-10.36-8.79-5.77-2.61-14.61-6.78-20.68-3.55A11.09,11.09,0,0,0,87,32.07C82.25,29.43,76.93,29.39,71.4,32a9.75,9.75,0,0,0-3.86,3.73,27.3,27.3,0,0,0-14.73,1.18c-6.18,2.28-13.43,5.2-18.71,9.18C21.38,55.64,15.33,75.22,23.61,89.62A36.7,36.7,0,0,0,32.22,99.39Z"/><path class="cls-1" d="M124.27,70.6c3.47-1.13,4.61,4.67,4.55,6.89-.24,11.78-14.88,39.21-55.83,36.79-6.84-.41-13.25-2.75-19.46-5.59A89.86,89.86,0,0,1,34.25,96.88c-5-4-9.39-8.62-10.82-15.14a45.08,45.08,0,0,1-.7-8.38A34.29,34.29,0,0,1,23.44,68a18.55,18.55,0,0,1,1.88,2,13.69,13.69,0,0,0,8.57,5.68c4,.89,8,1.57,12,2.41a16.5,16.5,0,0,1,9.2,5.35c4.94,5.51,11,6.07,17.65,3.5a68.53,68.53,0,0,0,8.17-4.1C85.43,80.34,90,79.16,95.2,80.9a34,34,0,0,0,7.3,1.36,19.19,19.19,0,0,0,14.12-4.15C119,75.41,120.79,71.74,124.27,70.6Z"/><path class="cls-2" d="M120.19,58.68c2.77-2.28,4.82,1.16,4.51,3.85-.74,6.33-5.82,11.5-11.13,14.53-10.2,5.8-21.69-3.14-31.57,2.39-3,1.66-6,3.27-9,4.65A15,15,0,0,1,62,84.61a14.33,14.33,0,0,1-5.77-4c-3.44-3.57-7.7-5-12.45-5.42-4.07-.37-8.11-.89-11.77-2.84a15.67,15.67,0,0,1-7.08-7.54,2.45,2.45,0,0,1-.15-1.62,20.48,20.48,0,0,1,3.64-7.33,12.71,12.71,0,0,1,.7,1.45c1.92,6.64,8.16,8.47,13.39,7.75,1.61-.22,3.12-1.24,4.64-2,1.93-.94,3.75-2,6.11-1.31a6.87,6.87,0,0,1,3.88,2.53c1.3,1.87,2.58,3.74,3.91,5.56a14.81,14.81,0,0,0,2.18,2.6c3.17,2.79,7.42,4.11,11.31.7,1-.88,2-1.83,3-2.79,1.52-1.52,3-3.12,4.52-4.6a6.1,6.1,0,0,1,8.07-.59c.61.49,1.35.83,1.94,1.36,3.37,3,7.5,4.13,11.83,4.62C112,72,115,62.9,120.19,58.68Z"/><path class="cls-3" d="M119,50.19c1.61,4-1.52,9.07-7,14.3-4.42,4.21-9.62,4.71-14.81,2.22a20.83,20.83,0,0,1-5.5-3.26c-4.55-4.32-9.53-1.79-12.68,1.17-1.65,1.55-3,3.35-4.6,5a18.28,18.28,0,0,1-2.19,2.12,4.66,4.66,0,0,1-5.94.14,16.83,16.83,0,0,1-3.38-3.71c-1.11-1.56-1.94-3.32-2.9-5-2.66-4.58-7.23-5.76-12-3.58-1.53.7-2.94,1.68-4.43,2.5-4.75,2.59-11.18-.58-12.24-5.83-.57-2.71,0-4.72,2.21-6.17a83.86,83.86,0,0,1,9.53-5.87c4.35-2.1,8.93-3.77,13.48-5.47,2.91-1.1,5.95-.68,9-.41.37,5.72,3.3,9.12,8.82,10,3.23.52,6.54.86,9.75-.2C87.66,47,90.69,45.08,91.43,41a25.92,25.92,0,0,0,0-4.51c2.15-1,4.49-.55,6.5.12C106.17,39.35,115.34,41.26,119,50.19Z"/><path class="cls-4" d="M85.63,34.55c3,1.68,2.91,7.08-.13,9.2-3.44,2.4-7.22,2.17-10.65,1.63-1.26-.45-2.13-.74-3-1.08a3.85,3.85,0,0,1-2.7-4.19c.31-2.31,1.21-4.52,3.43-5.56C76.89,32.54,81.29,32.15,85.63,34.55Z"/><path d="M230.76,56.29A4.08,4.08,0,0,0,225,57.73a4.5,4.5,0,0,0,1.45,6,4.09,4.09,0,0,0,5.77-1.44A4.5,4.5,0,0,0,230.76,56.29ZM227.88,61a1.6,1.6,0,0,1-.52-2.15,1.46,1.46,0,0,1,2.06-.52,1.61,1.61,0,0,1,.52,2.16A1.46,1.46,0,0,1,227.88,61Z"/><path d="M132.12,67.24c-.45-2.5-3.19-5.29-6.08-4.32a4.84,4.84,0,0,0-2.87,3.62c-.56,2.87,1.13,6.61,4.32,6.86C130.87,73.65,132.65,70.2,132.12,67.24Zm-4,3.53a2.14,2.14,0,0,1-2.71-1.86,2.88,2.88,0,0,1,1.83-3.24A2.15,2.15,0,0,1,130,67.53,2.9,2.9,0,0,1,128.11,70.77Z"/><path d="M196.74,36.93a17.76,17.76,0,0,0-6.08-6.28,19.07,19.07,0,0,0-7.27-2.35C171.62,27,156.87,33.71,154,46a20.43,20.43,0,0,0,1.89,14.62,16.77,16.77,0,0,0,7.36,6.9,20.45,20.45,0,0,0,11.13,1.71c3.8-.4,8.84-1.33,12.23-3.19C200.71,58.35,201.58,46,196.74,36.93ZM160,60.57c-5.44-7.17-2.56-20.86,4.8-25.85a22.37,22.37,0,0,1,15-3.45,22.88,22.88,0,0,1,8.3,2.81,14.89,14.89,0,0,1,5.07,5c4.77,8,0,19.08-8.44,24C177.44,67.31,165.66,68,160,60.57Z"/><path d="M197.54,78.75c6.83-3.86,7.83-8.7,8.94-11.56,1.15-3,5-3,6.89-7.84,1.84-4.59-.8-4.72-.67-6.77.27-3.91,10.87-11.47-4.82-22.57-2.54-1.79-2.06-5.86-3.82-7.84-2.67-2.47-6.69.51-9.9-2s-5.3-7.5-11.64-7.34c-3.3.08-5.27,5.24-8.15,5.72s-7.92-2.86-13.06,0c-7.16,4.05-5.82,11.07-8.73,13.24-5,3.71-10.82-2.86-13.57,1.85-2.23,3.81.29,10-.81,14.2-1,3.88-4.23,5.95-2.26,10.32,1.46,3.21,4.32,4.62,3.09,8.51-.92,2.92-2,5.54-.16,8.43,3.41,5.47,6.85,2.41,9.33,4,2,1.3,3.89,5.61,5.94,6.53,3.58,1.6,5.05-.93,7-.73,5.66.59,8.54,3.25,12.24,3,7.88-.55,8.27-4.84,11.79-6.84S191.43,82.19,197.54,78.75Zm-14-.75c-3.26,1.84-3.78,5.11-8.67,5.57-3.43.32-5.89-2.37-11.06-3.42-4.4-.89-6.78,2-9.35,1.24-2-.57-2.34-3.46-4.23-4.67-2.29-1.47-6.37-2.43-7.62-5.08s.11-5.44-.17-8.11c-.31-3.11-3.38-5.08-3.56-8.19-.22-3.56,3.2-6.34,2.62-9.92-.52-3.12-1.31-4.8-.1-7.92,2.2-5.65,6.43-2.22,10.15-2.78s5.4-5.53,7.15-11,10.06-4.53,14-2.26,4.78-.86,7.61-4.07c4.63-5.25,9.68,2.51,13.09,4.94,1.59,1.13,4.07.63,5.89,1.43,5.1,2.23,4.52,6.18,8.12,8.71,8.71,6.13,1.78,14.07,1.19,17.64-.69,4.1,2.22,5,1.27,8.16-1.38,4.64-6.45,4.5-7.55,7.29s-3.34,7.13-7,9.6C189.91,78.8,186.67,76.22,183.54,78Z"/><path d="M131.3,46.45l-.08-.15a3.29,3.29,0,1,0-5.92,2.89l.07.15a3.3,3.3,0,0,0,5.93-2.89Z"/><path d="M150.24,92.5a5,5,0,0,0-6.1-1.88c-2.27.9-3.22,3.19-2.11,5.13a5,5,0,0,0,6.11,1.88C150.4,96.73,151.35,94.43,150.24,92.5ZM145,94.13a1.25,1.25,0,0,1,.73-1.78,1.75,1.75,0,0,1,2.12.65,1.25,1.25,0,0,1-.73,1.79A1.74,1.74,0,0,1,145,94.13Z"/><path d="M219.06,32.51a2.91,2.91,0,0,0,3.79-1,2.49,2.49,0,0,0-.76-3.59,2.92,2.92,0,0,0-3.79,1A2.48,2.48,0,0,0,219.06,32.51Z"/><path d="M151.65,24.34c-.38-3.94-6.86-6.27-8.5-1.83a5.52,5.52,0,0,0,2.21,6.07,3.12,3.12,0,0,0,.93.37C148.89,29.53,151.9,27,151.65,24.34Zm-4.06,3a2.13,2.13,0,0,1-2.71-1.85,2.89,2.89,0,0,1,1.84-3.24,2.14,2.14,0,0,1,2.71,1.85A2.89,2.89,0,0,1,147.59,27.3Z"/><path d="M224.5,45.69a3.49,3.49,0,0,0,5.08-1.21A4.26,4.26,0,0,0,228.2,39a3.5,3.5,0,0,0-5.08,1.21A4.27,4.27,0,0,0,224.5,45.69Zm2.24-5.4a1.55,1.55,0,0,1,.5,2,1.27,1.27,0,0,1-1.84.44,1.53,1.53,0,0,1-.5-2A1.26,1.26,0,0,1,226.74,40.29Z"/><path d="M169.27,12.37l.07.15a3.3,3.3,0,0,0,5.93-2.88l-.07-.15a3.3,3.3,0,0,0-5.93,2.88Z"/><path d="M195.3,12.88l.15.29A3.66,3.66,0,1,0,202,10l-.14-.3a3.67,3.67,0,1,0-6.59,3.21Zm3.15-3.4a1.54,1.54,0,0,1,2,1.34,2.1,2.1,0,0,1-1.33,2.35,1.55,1.55,0,0,1-2-1.34A2.1,2.1,0,0,1,198.45,9.48Z"/><path d="M137.57,98a3.72,3.72,0,0,0-2.44-3.56,2,2,0,0,0-2.93,1.64,3.75,3.75,0,0,0,2.45,3.57A2,2,0,0,0,137.57,98Z"/><path d="M190.6,96.19A5.32,5.32,0,0,0,183.86,94a4.37,4.37,0,0,0-2.41,6.07,5.34,5.34,0,0,0,6.75,2.19A4.36,4.36,0,0,0,190.6,96.19Zm-6.72,2.14a1.87,1.87,0,0,1,1-2.6,2.28,2.28,0,0,1,2.89.94,1.87,1.87,0,0,1-1,2.6A2.28,2.28,0,0,1,183.88,98.33Z"/><path d="M214.07,74.84A4.45,4.45,0,0,0,217.85,80a4.7,4.7,0,0,0,5.49-3.55,4.45,4.45,0,0,0-3.78-5.16A4.7,4.7,0,0,0,214.07,74.84Zm5.05-1a1.93,1.93,0,0,1,.84,2.55,1.84,1.84,0,0,1-2.45,1,1.94,1.94,0,0,1-.83-2.56A1.83,1.83,0,0,1,219.12,73.84Z"/><path d="M213.87,96.31a6.15,6.15,0,0,0-3.66-8,6.55,6.55,0,0,0-8.51,3.16,6.15,6.15,0,0,0,3.66,8A6.55,6.55,0,0,0,213.87,96.31Zm-7.37.24a3.36,3.36,0,0,1-2-4.39,3.58,3.58,0,0,1,4.64-1.72,3.36,3.36,0,0,1,2,4.39A3.58,3.58,0,0,1,206.5,96.55Z"/><path d="M170.28,101c-1.86-2.71-5.93-3.57-9.1-1.94s-4.24,5.17-2.38,7.87,5.93,3.58,9.1,1.94S172.14,103.74,170.28,101ZM164.14,107a3.69,3.69,0,0,1-3.66-3,2.73,2.73,0,0,1,2.91-3,3.68,3.68,0,0,1,3.66,3A2.72,2.72,0,0,1,164.14,107Z"/><path d="M182.11,108.56a2.86,2.86,0,0,0-3.71,1,2.47,2.47,0,0,0,1.57,3.26,2.86,2.86,0,0,0,3.71-1A2.48,2.48,0,0,0,182.11,108.56Z"/><path d="M238.93,82.92c4-9.68,6.13-18,6.4-25.62a52.74,52.74,0,0,0-5.79-25.07,68.79,68.79,0,0,0-4.52-7.9,71.08,71.08,0,0,0-4.48-6.09A51.17,51.17,0,0,0,222.09,10,43.1,43.1,0,0,0,211.3,3.81a49.73,49.73,0,0,0-10.08-2.72,82.84,82.84,0,0,0-36.95,2.26,93.38,93.38,0,0,0-16.87,6.86c-21,11.39-32.15,32.17-33.83,47.72-1.47,13.69,5,31,8.35,37.69l-.12.25.86,1.29.35.48.27.41a5.3,5.3,0,0,0,.43.57c16.9,23.07,55.81,30.16,85.05,15.45C223,106.92,233.41,96.15,238.93,82.92ZM125.76,97a2,2,0,0,1-.28-.35l-.14-.23-.49-.68,0-.08c-3.17-5.7-10.18-23.65-8.7-37.4,1.59-14.7,12-34.62,32.46-45.68a91.55,91.55,0,0,1,16.4-6.67,80,80,0,0,1,35.77-2.17,47.9,47.9,0,0,1,9.54,2.58A40.78,40.78,0,0,1,220.48,12a48.89,48.89,0,0,1,8,7.86,71.17,71.17,0,0,1,4.32,5.88c6.14,9.3,10.28,20.34,9.88,31.43-.3,8.45-3,16.93-6.2,24.69-5.58,13.37-16,23.33-28.92,29.82C179.78,125.69,142,119.26,125.76,97Z"/><path class="cls-5" d="M187.8,96.67a2.28,2.28,0,0,0-2.89-.94,1.87,1.87,0,0,0-1,2.6,2.28,2.28,0,0,0,2.89.94A1.87,1.87,0,0,0,187.8,96.67Z"/><path class="cls-5" d="M209.14,90.44a3.58,3.58,0,0,0-4.64,1.72,3.36,3.36,0,0,0,2,4.39,3.58,3.58,0,0,0,4.64-1.72A3.36,3.36,0,0,0,209.14,90.44Z"/><path class="cls-5" d="M217.51,77.35a1.84,1.84,0,0,0,2.45-1,1.93,1.93,0,0,0-.84-2.55,1.83,1.83,0,0,0-2.44,1A1.94,1.94,0,0,0,217.51,77.35Z"/><path class="cls-5" d="M147.83,93a1.75,1.75,0,0,0-2.12-.65,1.25,1.25,0,0,0-.73,1.78,1.74,1.74,0,0,0,2.12.66A1.25,1.25,0,0,0,147.83,93Z"/><path class="cls-5" d="M167.05,104a3.68,3.68,0,0,0-3.66-3,2.73,2.73,0,0,0-2.91,3,3.69,3.69,0,0,0,3.66,3A2.72,2.72,0,0,0,167.05,104Z"/><path class="cls-5" d="M130,67.53a2.15,2.15,0,0,0-2.72-1.86,2.88,2.88,0,0,0-1.83,3.24,2.14,2.14,0,0,0,2.71,1.86A2.9,2.9,0,0,0,130,67.53Z"/><path class="cls-5" d="M149.43,24.06a2.14,2.14,0,0,0-2.71-1.85,2.89,2.89,0,0,0-1.84,3.24,2.13,2.13,0,0,0,2.71,1.85A2.89,2.89,0,0,0,149.43,24.06Z"/><path class="cls-5" d="M197.12,11.83a1.55,1.55,0,0,0,2,1.34,2.1,2.1,0,0,0,1.33-2.35,1.54,1.54,0,0,0-2-1.34A2.1,2.1,0,0,0,197.12,11.83Z"/><path class="cls-5" d="M229.42,58.29a1.46,1.46,0,0,0-2.06.52,1.6,1.6,0,0,0,.52,2.15,1.46,1.46,0,0,0,2.06-.51A1.61,1.61,0,0,0,229.42,58.29Z"/><path class="cls-5" d="M225.4,42.72a1.27,1.27,0,0,0,1.84-.44,1.55,1.55,0,0,0-.5-2,1.26,1.26,0,0,0-1.84.44A1.53,1.53,0,0,0,225.4,42.72Z"/><path class="cls-6" d="M202.35,65.59c1.1-2.79,6.17-2.65,7.55-7.29.95-3.15-2-4.06-1.27-8.16.59-3.57,7.52-11.51-1.19-17.64-3.6-2.53-3-6.48-8.12-8.71-1.82-.8-4.3-.3-5.89-1.43C190,19.93,185,12.17,180.34,17.42c-2.83,3.21-3.64,6.35-7.61,4.07s-12.28-3.17-14,2.26-3.43,10.42-7.15,11-8-2.87-10.15,2.78c-1.21,3.12-.42,4.8.1,7.92.58,3.58-2.84,6.36-2.62,9.92.18,3.11,3.25,5.08,3.56,8.19.28,2.67-1,5.53.17,8.11s5.33,3.61,7.62,5.08c1.89,1.21,2.23,4.1,4.23,4.67,2.57.73,4.95-2.13,9.35-1.24,5.17,1,7.63,3.74,11.06,3.42,4.89-.46,5.41-3.73,8.67-5.57s6.37.8,11.77-2.81C199,72.72,201.31,68.24,202.35,65.59Zm-28,3.67a20.45,20.45,0,0,1-11.13-1.71,16.77,16.77,0,0,1-7.36-6.9A20.43,20.43,0,0,1,154,46C156.87,33.71,171.62,27,183.39,28.3a19.07,19.07,0,0,1,7.27,2.35,17.76,17.76,0,0,1,6.08,6.28c4.84,9.06,4,21.42-10.12,29.14C183.23,67.93,178.19,68.86,174.39,69.26Z"/><path class="cls-7" d="M236.5,81.9c3.24-7.76,5.9-16.24,6.2-24.69.4-11.09-3.74-22.13-9.88-31.43a71.17,71.17,0,0,0-4.32-5.88,48.89,48.89,0,0,0-8-7.86,40.78,40.78,0,0,0-10.12-5.77,47.9,47.9,0,0,0-9.54-2.58,80,80,0,0,0-35.77,2.17,91.55,91.55,0,0,0-16.4,6.67c-20.44,11.06-30.87,31-32.46,45.68-1.48,13.75,5.53,31.7,8.7,37.4l0,.08.49.68.14.23a2,2,0,0,0,.28.35c16.23,22.31,54,28.74,81.82,14.77C220.48,105.23,230.92,95.27,236.5,81.9ZM228.2,39a4.26,4.26,0,0,1,1.38,5.5,3.49,3.49,0,0,1-5.08,1.21,4.27,4.27,0,0,1-1.38-5.5A3.5,3.5,0,0,1,228.2,39Zm-6.11-11.1a2.49,2.49,0,0,1,.76,3.59,2.91,2.91,0,0,1-3.79,1,2.48,2.48,0,0,1-.76-3.59A2.92,2.92,0,0,1,222.09,27.88ZM201.89,9.67l.14.3a3.66,3.66,0,1,1-6.58,3.2l-.15-.29a3.67,3.67,0,1,1,6.59-3.21ZM175.2,9.49l.07.15a3.3,3.3,0,0,1-5.93,2.88l-.07-.15a3.3,3.3,0,0,1,5.93-2.88ZM145.36,28.58a5.52,5.52,0,0,1-2.21-6.07c1.64-4.44,8.12-2.11,8.5,1.83.25,2.62-2.76,5.19-5.36,4.61A3.12,3.12,0,0,1,145.36,28.58Zm-20,20.76-.07-.15a3.29,3.29,0,1,1,5.92-2.89l.08.15a3.3,3.3,0,0,1-5.93,2.89Zm2.12,24.06c-3.19-.25-4.88-4-4.32-6.86A4.84,4.84,0,0,1,126,62.92c2.89-1,5.63,1.82,6.08,4.32C132.65,70.2,130.87,73.65,127.49,73.4Zm7.16,26.28a3.75,3.75,0,0,1-2.45-3.57,2,2,0,0,1,2.93-1.64A3.72,3.72,0,0,1,137.57,98,2,2,0,0,1,134.65,99.68ZM142,95.75c-1.11-1.94-.16-4.23,2.11-5.13a5,5,0,0,1,6.1,1.88c1.11,1.93.16,4.23-2.1,5.13A5,5,0,0,1,142,95.75ZM173.4,88c-3.7.26-6.58-2.4-12.24-3-2-.2-3.44,2.33-7,.73-2-.92-3.9-5.23-5.94-6.53-2.48-1.58-5.92,1.48-9.33-4-1.81-2.89-.76-5.51.16-8.43,1.23-3.89-1.63-5.3-3.09-8.51-2-4.37,1.23-6.44,2.26-10.32,1.1-4.17-1.42-10.39.81-14.2,2.75-4.71,8.59,1.86,13.57-1.85,2.91-2.17,1.57-9.19,8.73-13.24,5.14-2.89,10.19.46,13.06,0s4.85-5.64,8.15-5.72c6.34-.16,8.42,4.87,11.64,7.34s7.23-.52,9.9,2c1.76,2,1.28,6,3.82,7.84,15.69,11.1,5.09,18.66,4.82,22.57-.13,2.05,2.51,2.18.67,6.77-1.93,4.86-5.74,4.82-6.89,7.84-1.11,2.86-2.11,7.7-8.94,11.56-6.11,3.44-9,.46-12.35,2.37S181.28,87.41,173.4,88Zm53-24.22a4.5,4.5,0,0,1-1.45-6,4.08,4.08,0,0,1,5.77-1.44,4.5,4.5,0,0,1,1.45,6A4.09,4.09,0,0,1,226.44,63.74Zm-6.88,7.55a4.45,4.45,0,0,1,3.78,5.16A4.7,4.7,0,0,1,217.85,80a4.45,4.45,0,0,1-3.78-5.16A4.7,4.7,0,0,1,219.56,71.29ZM158.8,107c-1.86-2.7-.79-6.23,2.38-7.87s7.24-.77,9.1,1.94.79,6.23-2.38,7.87S160.66,109.67,158.8,107Zm22.65-6.89A4.37,4.37,0,0,1,183.86,94a5.32,5.32,0,0,1,6.74,2.19,4.36,4.36,0,0,1-2.4,6.07A5.34,5.34,0,0,1,181.45,100.07Zm20.25-8.65a6.55,6.55,0,0,1,8.51-3.16,6.15,6.15,0,0,1,3.66,8,6.55,6.55,0,0,1-8.51,3.16A6.15,6.15,0,0,1,201.7,91.42ZM180,112.81a2.47,2.47,0,0,1-1.57-3.26,2.86,2.86,0,0,1,3.71-1,2.48,2.48,0,0,1,1.57,3.27A2.86,2.86,0,0,1,180,112.81Z"/><path d="M96.83,93.58c-5.22,0-5.22,8.1,0,8.1S102.05,93.58,96.83,93.58ZM97,100.1A2.22,2.22,0,0,1,94.46,98a2.72,2.72,0,0,1,2.15-2.89,2.2,2.2,0,0,1,2.52,2.14A2.7,2.7,0,0,1,97,100.1Z"/><path d="M136.55,106.44v-.53c0-4.6-2.54-9.53-6.71-11.71-.32-.17-.62-.31-.9-.45a13.45,13.45,0,0,0-2.88-1.19,13.69,13.69,0,0,0-10.45,1.37,13.34,13.34,0,0,0-6.23,8.11c0,.2-.1.4-.13.6a22.18,22.18,0,0,0-.49,3.71,13.69,13.69,0,0,0,1.87,6.92c.69,1,1.41,1.9,2.17,2.81,1.55,1.87,3.9,2.69,6.06,3.51s5.5.49,7.74-.07A13.64,13.64,0,0,0,136.55,106.44Zm-22,7.64a11,11,0,0,1,.13-15.8,11.7,11.7,0,0,1,16.22-.57,11,11,0,0,1-.13,15.8A11.71,11.71,0,0,1,114.59,114.08Z"/><path d="M141.18,142.58a2.18,2.18,0,0,0-.54-.42,3.25,3.25,0,0,0-2.41-.39,3,3,0,0,0-2.07,3.63l0,.12a2.83,2.83,0,0,0,2.06,2.06l.12,0a3,3,0,0,0,3.63-2.06,3.22,3.22,0,0,0-.39-2.42A2.18,2.18,0,0,0,141.18,142.58Zm-1.34,3.28a1.9,1.9,0,0,1-2.41-.49,1.42,1.42,0,0,1,.49-2.12,1.92,1.92,0,0,1,2.42.49A1.41,1.41,0,0,1,139.84,145.86Z"/><path d="M131,130.79c-4.23,0-4.23,6.56,0,6.56S135.23,130.79,131,130.79Zm0,4.64a2,2,0,0,1-1.6-2,1.51,1.51,0,0,1,1.85-1.38,2,2,0,0,1,1.6,2A1.51,1.51,0,0,1,131,135.43Z"/><path d="M111.91,88.33c5.22,0,5.22-8.1,0-8.1S106.69,88.33,111.91,88.33Zm-1.32-5.27a2.52,2.52,0,0,1,3-.39,1.44,1.44,0,0,1,.13,2.37,2.52,2.52,0,0,1-3,.4A1.46,1.46,0,0,1,110.59,83.06Z"/><path d="M114.32,127.25c-3.81,0-3.81,5.9,0,5.9S118.12,127.25,114.32,127.25Zm2.17,3.69a1.81,1.81,0,0,1-2.17,1.09,1.48,1.48,0,0,1-1-2,1.83,1.83,0,0,1,2.17-1.09A1.49,1.49,0,0,1,116.49,130.94Z"/><path d="M141.41,87c5.22,0,5.22-8.1,0-8.1S136.19,87,141.41,87ZM140,80.91a2.17,2.17,0,0,1,3,.73,2.36,2.36,0,0,1-.62,3.19,2.18,2.18,0,0,1-3.06-.73A2.35,2.35,0,0,1,140,80.91Z"/><path d="M107.64,138.49a2.82,2.82,0,0,0-2.79,2.79v.13a2.79,2.79,0,1,0,5.58,0v-.13A2.82,2.82,0,0,0,107.64,138.49Zm1.51,3.37A1.83,1.83,0,0,1,107,143a1.48,1.48,0,0,1-1-2,1.81,1.81,0,0,1,2.16-1.09A1.48,1.48,0,0,1,109.15,141.86Z"/><path d="M171.76,78.87c-9.37-15-28.38-24.66-48.42-24.66a56,56,0,0,0-30.61,8.7A54.71,54.71,0,0,0,72.88,84.72H72.7l-.78,2.08-.08.23c-6.13,20.19-2.47,38.57,2.52,48.17C81,147.87,92,157.92,103.22,161.42l.64.22a56.85,56.85,0,0,0,22,4.43,54.8,54.8,0,0,0,29.48-8.55C180.77,141.33,188.29,105.31,171.76,78.87Zm-18.13,75.95a52.39,52.39,0,0,1-48.52,3.83l-.94-.28C93.41,155,83.08,145,77.21,133.72c-5.21-10-7.74-27.83-2.29-45.8A51.6,51.6,0,0,1,94.47,65.6c24.09-15.65,60.27-7.9,74.57,15C184.61,105.47,177.88,139.37,153.63,154.82Z"/><path d="M167,97c-.47-6.93-6.27-6-10.24-9.7-2.58-2.42,2.9-12.42-6.36-17.4-11.59-6.23-15.53,4.46-21.22,4.1-2.9-.18-5.93-14-16.2-11.71S104.55,77.75,99.5,79.76c-4.44,1.76-11.46-.58-17,4.52-2,1.88-3.2,4.92-3.74,7.92-.38,7,5.34,12.36,5.76,14.51.69,3.5-4.34,5.08-5.74,8-1.87,3.86-.39,14,13.08,15.79,3.94.51,2.68,7,3.87,14.06,1.68,9.88,15.75,10.47,17.48,9.95,8.86-2.67,8.57-8.11,11.6-8,2.37.06,2.77,5.69,8.95,8.83,4.71,2.39,13.76-2.58,15.91-7.77,2.5-6-4.24-11-2.83-12.95,1.82-2.47,11.77,5.88,16.14-2.73,5-9.81-4.45-13-4.1-17.91C159.19,110,167.58,105.65,167,97Zm-11.87,16.55c-.9,5.44,9.38,9.57,5.51,16.67-4,7.28-11.51-2.21-15.47,2.16-4.95,5.47,4.36,9,2,14.58-2,4.83-10,7.45-14.19,5-3.37-2-3.82-8.46-8.3-8.47-5.6,0-5.56,7.52-9.36,8.6-8.66,2.46-13.92-3.51-16.67-6.73-2-2.36-1.44-6.72-1.88-9.91-.73-5.26-.84-7.67-8-8.71-4.9-.71-11.12-7.24-7.27-12.58a16.85,16.85,0,0,1,3.72-4c4.14-3.2,0-6.32-1.13-8.77A17.11,17.11,0,0,1,82.2,95.2c-.22-3.13.38-6.58,3.15-9.14,5.13-4.74,10.87,1,17.74-4.2,5.77-4.35,3.21-16.2,10.6-16.74,9.7-.73,9.81,11.16,15,11.84,6.05.8,10.54-9.2,19.7-4.22,6.89,3.75,2.15,13,5,15.86,3.56,3.6,9.77,2.87,10.39,9.29C164.54,105.11,156.12,107.49,155.12,113.58Z"/><path d="M97,113h-.13a3.45,3.45,0,1,0,0,6.89H97A3.45,3.45,0,1,0,97,113Zm1.41,3.75a1.83,1.83,0,0,1-2.17,1.09,1.48,1.48,0,0,1-1-2,1.83,1.83,0,0,1,2.17-1.09A1.49,1.49,0,0,1,98.37,116.76Z"/><path d="M150.09,93.05a4.08,4.08,0,0,0-4.05,4v.13a4.05,4.05,0,1,0,8.1,0V97.1A4.08,4.08,0,0,0,150.09,93.05Zm1.82,5.27a2.66,2.66,0,0,1-3.46.41,2.07,2.07,0,0,1-.27-3.13,2.66,2.66,0,0,1,3.46-.41A2.06,2.06,0,0,1,151.91,98.32Z"/><path d="M146.62,117.08c-4.7,0-4.7,7.29,0,7.29S151.32,117.08,146.62,117.08Zm1.26,5.38a2.46,2.46,0,0,1-3.19-.67,2,2,0,0,1,.65-2.9,2.46,2.46,0,0,1,3.19.66A2,2,0,0,1,147.88,122.46Z"/><path class="cls-8" d="M153.44,88.6c-2.87-2.89,1.87-12.11-5-15.86-9.16-5-13.65,5-19.7,4.22-5.22-.68-5.33-12.57-15-11.84-7.39.54-4.83,12.39-10.6,16.74-6.87,5.17-12.61-.54-17.74,4.2-2.77,2.56-3.37,6-3.15,9.14a17.11,17.11,0,0,0,1.91,6.24c1.13,2.45,5.27,5.57,1.13,8.77a16.85,16.85,0,0,0-3.72,4c-3.85,5.34,2.37,11.87,7.27,12.58,7.17,1,7.28,3.45,8,8.71.44,3.19-.13,7.55,1.88,9.91,2.75,3.22,8,9.19,16.67,6.73,3.8-1.08,3.76-8.62,9.36-8.6,4.48,0,4.93,6.5,8.3,8.47,4.23,2.47,12.19-.15,14.19-5,2.32-5.58-7-9.11-2-14.58,4-4.37,11.49,5.12,15.47-2.16,3.87-7.1-6.41-11.23-5.51-16.67,1-6.09,9.42-8.47,8.71-15.69C163.21,91.47,157,92.2,153.44,88.6ZM97,119.9h-.13a3.45,3.45,0,1,1,0-6.89H97a3.45,3.45,0,1,1,0,6.89Zm-.13-18.22c-5.22,0-5.22-8.1,0-8.1S102.05,101.68,96.83,101.68ZM141.41,78.9c5.22,0,5.22,8.1,0,8.1S136.19,78.9,141.41,78.9Zm-29.5,1.33c5.22,0,5.22,8.1,0,8.1S106.69,80.23,111.91,80.23Zm-1.48,61.18a2.79,2.79,0,1,1-5.58,0v-.13a2.79,2.79,0,0,1,5.58,0Zm3.89-8.26c-3.81,0-3.81-5.9,0-5.9S118.12,133.15,114.32,133.15Zm12.28-13.63c-2.24.56-5.47.94-7.74.07s-4.51-1.64-6.06-3.51c-.76-.91-1.48-1.85-2.17-2.81a13.69,13.69,0,0,1-1.87-6.92,22.18,22.18,0,0,1,.49-3.71c0-.2.09-.4.13-.6a13.34,13.34,0,0,1,6.23-8.11,13.69,13.69,0,0,1,10.45-1.37,13.45,13.45,0,0,1,2.88,1.19c.28.14.58.28.9.45,4.17,2.18,6.71,7.11,6.71,11.71v.53A13.64,13.64,0,0,1,126.6,119.52Zm4.4,17.83c-4.23,0-4.23-6.56,0-6.56S135.23,137.35,131,137.35Zm11,8.19a3,3,0,0,1-3.63,2.06l-.12,0a2.83,2.83,0,0,1-2.06-2.06l0-.12a3,3,0,0,1,2.07-3.63,3.25,3.25,0,0,1,2.41.39,2.76,2.76,0,0,1,1,1A3.22,3.22,0,0,1,142,145.54Zm4.63-21.17c-4.7,0-4.7-7.29,0-7.29S151.32,124.37,146.62,124.37Zm7.52-27.14a4,4,0,1,1-8.1,0V97.1a4.05,4.05,0,1,1,8.1,0Z"/><path class="cls-5" d="M113.68,85a1.44,1.44,0,0,0-.13-2.37,2.52,2.52,0,0,0-3,.39,1.46,1.46,0,0,0,.13,2.38A2.52,2.52,0,0,0,113.68,85Z"/><path class="cls-5" d="M96.61,95.07A2.72,2.72,0,0,0,94.46,98,2.22,2.22,0,0,0,97,100.1a2.7,2.7,0,0,0,2.14-2.89A2.2,2.2,0,0,0,96.61,95.07Z"/><path class="cls-5" d="M142.42,84.83a2.36,2.36,0,0,0,.62-3.19,2.17,2.17,0,0,0-3-.73,2.35,2.35,0,0,0-.63,3.19A2.18,2.18,0,0,0,142.42,84.83Z"/><path class="cls-5" d="M151.64,95.19a2.66,2.66,0,0,0-3.46.41,2.07,2.07,0,0,0,.27,3.13,2.66,2.66,0,0,0,3.46-.41A2.06,2.06,0,0,0,151.64,95.19Z"/><path class="cls-5" d="M145.34,118.89a2,2,0,0,0-.65,2.9,2.46,2.46,0,0,0,3.19.67,2,2,0,0,0,.65-2.91A2.46,2.46,0,0,0,145.34,118.89Z"/><path class="cls-5" d="M115.52,128.94a1.83,1.83,0,0,0-2.17,1.09,1.48,1.48,0,0,0,1,2,1.81,1.81,0,0,0,2.17-1.09A1.49,1.49,0,0,0,115.52,128.94Z"/><path class="cls-5" d="M108.17,139.86A1.81,1.81,0,0,0,106,141a1.48,1.48,0,0,0,1,2,1.83,1.83,0,0,0,2.17-1.09A1.48,1.48,0,0,0,108.17,139.86Z"/><path class="cls-5" d="M97.4,114.76a1.83,1.83,0,0,0-2.17,1.09,1.48,1.48,0,0,0,1,2,1.83,1.83,0,0,0,2.17-1.09A1.49,1.49,0,0,0,97.4,114.76Z"/><path class="cls-5" d="M131.28,132a1.51,1.51,0,0,0-1.85,1.38,2,2,0,0,0,1.6,2,1.51,1.51,0,0,0,1.85-1.38A2,2,0,0,0,131.28,132Z"/><path class="cls-5" d="M137.92,143.25a1.42,1.42,0,0,0-.49,2.12,1.9,1.9,0,0,0,2.41.49,1.41,1.41,0,0,0,.5-2.12A1.92,1.92,0,0,0,137.92,143.25Z"/><path class="cls-9" d="M169,80.57C154.74,57.7,118.56,50,94.47,65.6A51.6,51.6,0,0,0,74.92,87.92c-5.45,18-2.92,35.78,2.29,45.8,5.87,11.3,16.2,21.28,27,24.65l.94.28a52.39,52.39,0,0,0,48.52-3.83C177.88,139.37,184.61,105.47,169,80.57Zm-6,51.28c-4.37,8.61-14.32.26-16.14,2.73-1.41,1.91,5.33,7,2.83,12.95-2.15,5.19-11.2,10.16-15.91,7.77-6.18-3.14-6.58-8.77-8.95-8.83-3-.08-2.74,5.36-11.6,8-1.73.52-15.8-.07-17.48-9.95-1.19-7,.07-13.55-3.87-14.06-13.47-1.74-15-11.93-13.08-15.79,1.4-2.91,6.43-4.49,5.74-8-.42-2.15-6.14-7.52-5.76-14.51.54-3,1.72-6,3.74-7.92,5.51-5.1,12.53-2.76,17-4.52,5-2,3.14-15.15,13.47-17.44s13.3,11.53,16.2,11.71c5.69.36,9.63-10.33,21.22-4.1,9.26,5,3.78,15,6.36,17.4,4,3.73,9.77,2.77,10.24,9.7.59,8.62-7.8,12.92-8.08,16.91C158.56,118.88,168,122,163,131.85Z"/><path d="M254.24,60.54a5.67,5.67,0,0,0-7.34,1.58,4.55,4.55,0,0,0,1.34,6.72,5.68,5.68,0,0,0,7.34-1.57A4.56,4.56,0,0,0,254.24,60.54Zm-.58,5.27a3,3,0,0,1-3.87.83,2.4,2.4,0,0,1-.71-3.54,3,3,0,0,1,3.87-.83A2.4,2.4,0,0,1,253.66,65.81Z"/><path d="M165.77,98.93c-1.26,7,1.24,9.55-.37,14.61-2.44,7.67,1.3,16.52.25,19.87-1.74,5.5.26,6.44.12,7.4,23.39,1.7,89.26-1.3,115.21-2,.19-2.05,2.16-6.71,1.67-9.92-.79-5.2,3.87-14.36,3.08-21.59-.34-3.11,1-9.6,1.82-13.59,3.36-.89,6.86-3.64,8.64-9a11.1,11.1,0,0,0-4.54-12.47c-17.15-9.62-54.2-30.71-62.86-33-13.2,9.22-54.86,34-65.39,42.07C160.22,83.63,157.1,97.27,165.77,98.93Zm2.59.23c7.23.21,8.19-3.55,11.57-5,1.43-.6,3.45.9,5.38.47,1.5-.33,3.45-2,5.45-1.65,2.89.51,4.29,3.49,7.25,3.43,6.62-.14,8.34-4.3,12.15-3.89,4.72.51,4.17,4.2,10.5,4.55,8.48.45,8.56-4.83,12.28-5.14,3.48-.3,6.11,3.13,9.27,2.85,5.27-.46,5.37-4.14,11.55-4.59,4.19-.3,7.29,2.43,10.22,3,3.74.72,4.49-1.67,8-1.66,1.49,0,5.79,2.66,12.18,2.51L284,95c-27.18-.12-87.28,7.6-115.23,5.35A5.5,5.5,0,0,1,168.36,99.16Zm.72,2.37c27.13,2.45,88.25-4.9,115-4.17a23,23,0,0,1-.55,4.47c-23.29.55-91.39,5.34-114.49,4.08A4.78,4.78,0,0,1,169.08,101.53Zm-.1,7c31.1.82,83-4.53,114.32-3.49a45.44,45.44,0,0,1-1,6c-26.64-1-86.64,5.43-113.56,2.62A6.89,6.89,0,0,1,169,108.52Zm-.48,15c-1.38-1.69-1.3-5.68-.28-7.43,13.32-1.36,29.21,1.46,46.3.32,26.63-1.78,52.09-2.38,67.39-2.43a11.49,11.49,0,0,1-.93,6.17c-17.84,1.51-41.88,1.27-67.24,2C195.06,122.78,178.78,124.59,168.5,123.55Zm.35,3c27.92-2.67,85.62-1.13,111.83-3.53a11.47,11.47,0,0,1-.92,6.17c-24.44.46-89.84,4.54-111.12,2.39C167.91,130,168.58,127.65,168.85,126.5Zm110.34,9.14c-23-.53-86.59,5.31-111.19,2.73-.73-1.56-.19-3.23.07-4.38,21.83,1.88,85.92-3.36,111.67-2.82A23,23,0,0,1,279.19,135.64ZM230,42.28c13.1,6.79,42.32,22.19,57.23,30.67-31.56,1.65-84.33,4.39-117,6.3C187,68.17,212.67,53.36,230,42.28ZM165.68,83.35c6.82-2,47.74-5.32,60.82-5.25,18.39.09,47.85-1.83,62.83-2.17,3.28-.07,3.75,6.74,3,8.93-1.12,3.39-5.38,6.1-9,6.5-7.15.8-10.5-2.58-12.06-2.58-3.37,0-3.1,3-7.94,1.76-2.79-.74-5.44-3.1-10.77-3-6,.15-5.38,4.2-10.49,4.29s-6-3.09-10.08-2.87c-4.39.24-5.11,5.47-11.94,5.23-4.85-.17-6.1-3.87-10.62-4.36-3.65-.4-6,3.85-10.76,3.8-4,0-6.4-4-9.27-4-1.95,0-2.55,2-4,2.35-1.85.41-4.43-.86-6-.71-4.38.4-5.86,6.19-13.4,4.8C161.55,95.29,161.37,84.6,165.68,83.35Z"/><path d="M203.63,61.34a5.63,5.63,0,0,0-3.15,7.36A5.76,5.76,0,0,0,207.85,72,5.62,5.62,0,0,0,211,64.67,5.74,5.74,0,0,0,203.63,61.34Zm3.24,8.37a3.31,3.31,0,0,1-4.23-1.91,3.23,3.23,0,0,1,1.8-4.23,3.31,3.31,0,0,1,4.23,1.92A3.22,3.22,0,0,1,206.87,69.71Z"/><path d="M228.32,52.79a9.34,9.34,0,0,0-5.1,12.09A9.14,9.14,0,0,0,235,70.3a9.34,9.34,0,0,0,5.11-12.09A9.14,9.14,0,0,0,228.32,52.79Zm8.2,12a6.72,6.72,0,0,1-9.05.37,5.77,5.77,0,0,1-.33-8.5,6.72,6.72,0,0,1,9.05-.37A5.76,5.76,0,0,1,236.52,64.76Z"/><path class="cls-10" d="M166,96.12c7.54,1.39,9-4.4,13.4-4.8,1.61-.15,4.19,1.12,6,.71,1.43-.32,2-2.36,4-2.35,2.87,0,5.3,3.94,9.27,4,4.74,0,7.11-4.2,10.76-3.8,4.52.49,5.77,4.19,10.62,4.36,6.83.24,7.55-5,11.94-5.23,4.1-.22,5.08,3,10.08,2.87s4.52-4.14,10.49-4.29c5.33-.14,8,2.22,10.77,3,4.84,1.29,4.57-1.78,7.94-1.76,1.56,0,4.91,3.38,12.06,2.58,3.6-.4,7.86-3.11,9-6.5.72-2.19.25-9-3-8.93-15,.34-44.44,2.26-62.83,2.17-13.08-.07-54,3.28-60.82,5.25C161.37,84.6,161.55,95.29,166,96.12Z"/><path class="cls-11" d="M230,42.28c-17.36,11.08-43,25.89-59.73,37,32.63-1.91,85.4-4.65,117-6.3C272.35,64.47,243.13,49.07,230,42.28ZM207.85,72a5.76,5.76,0,0,1-7.37-3.34,5.63,5.63,0,0,1,3.15-7.36A5.74,5.74,0,0,1,211,64.67,5.62,5.62,0,0,1,207.85,72ZM235,70.3a9.14,9.14,0,0,1-11.82-5.42,9.34,9.34,0,0,1,5.1-12.09,9.14,9.14,0,0,1,11.83,5.42A9.34,9.34,0,0,1,235,70.3Zm13.2-1.46a4.55,4.55,0,0,1-1.34-6.72,5.67,5.67,0,0,1,7.34-1.58,4.56,4.56,0,0,1,1.34,6.73A5.68,5.68,0,0,1,248.24,68.84Z"/><path class="cls-12" d="M236.19,56.26a6.72,6.72,0,0,0-9.05.37,5.77,5.77,0,0,0,.33,8.5,6.72,6.72,0,0,0,9.05-.37A5.76,5.76,0,0,0,236.19,56.26Z"/><path class="cls-12" d="M204.44,63.57a3.23,3.23,0,0,0-1.8,4.23,3.31,3.31,0,0,0,4.23,1.91,3.22,3.22,0,0,0,1.8-4.22A3.31,3.31,0,0,0,204.44,63.57Z"/><path class="cls-12" d="M253,62.27a3,3,0,0,0-3.87.83,2.4,2.4,0,0,0,.71,3.54,3,3,0,0,0,3.87-.83A2.4,2.4,0,0,0,253,62.27Z"/><path class="cls-13" d="M279.76,129.14a11.47,11.47,0,0,0,.92-6.17c-26.21,2.4-83.91.86-111.83,3.53-.27,1.15-.94,3.47-.21,5C189.92,133.68,255.32,129.6,279.76,129.14Z"/><path class="cls-10" d="M281,120.18a11.49,11.49,0,0,0,.93-6.17c-15.3,0-40.76.65-67.39,2.43-17.09,1.14-33-1.68-46.3-.32-1,1.75-1.1,5.74.28,7.43,10.28,1,26.56-.77,45.24-1.33C239.1,121.45,263.14,121.69,281,120.18Z"/><path class="cls-13" d="M282.31,111.05a45.44,45.44,0,0,0,1-6c-31.32-1-83.22,4.31-114.32,3.49a6.89,6.89,0,0,0-.23,5.15C195.67,116.48,255.67,110,282.31,111.05Z"/><path class="cls-10" d="M284.05,97.36c-26.72-.73-87.84,6.62-115,4.17a4.78,4.78,0,0,0-.07,4.38c23.1,1.26,91.2-3.53,114.49-4.08A23,23,0,0,0,284.05,97.36Z"/><path class="cls-13" d="M284.16,94.07c-6.39.15-10.69-2.5-12.18-2.51-3.51,0-4.26,2.38-8,1.66-2.93-.56-6-3.29-10.22-3-6.18.45-6.28,4.13-11.55,4.59-3.16.28-5.79-3.15-9.27-2.85-3.72.31-3.8,5.59-12.28,5.14-6.33-.35-5.78-4-10.5-4.55-3.81-.41-5.53,3.75-12.15,3.89-3,.06-4.36-2.92-7.25-3.43-2-.36-3.95,1.32-5.45,1.65-1.93.43-3.95-1.07-5.38-.47-3.38,1.41-4.34,5.17-11.57,5a5.5,5.5,0,0,0,.39,1.21C196.7,102.62,256.8,94.9,284,95Z"/><path class="cls-10" d="M168.07,134c-.26,1.15-.8,2.82-.07,4.38,24.6,2.58,88.23-3.26,111.19-2.73a23,23,0,0,0,.55-4.47C254,130.63,189.9,135.87,168.07,134Z"/><path d="M300.91,141.72c-3.46,3-4.89,3-8.39.19-1.48-3-.52-4.58,1.86-7,1.28-1.29,3.26-1.06,5.06.27C301.76,136.94,302.15,138.64,300.91,141.72Zm-5.32-5.5c-1.95,2.53-2.19,4.2-1,5.37a3,3,0,0,0,3.8-.12c1.31-1.14,1.34-3.17-.1-5.34Z"/><path class="cls-14" d="M294.6,141.59c-1.2-1.17-1-2.84,1-5.37l2.71-.09c1.44,2.17,1.41,4.2.1,5.34A3,3,0,0,1,294.6,141.59Z"/><path d="M153.68,181c-3.46,3-4.89,3-8.4.19-1.48-3-.51-4.58,1.86-7,1.28-1.29,3.27-1.06,5.06.27C154.53,176.19,154.91,177.9,153.68,181Zm-5.32-5.5c-2,2.52-2.2,4.2-1,5.37a3,3,0,0,0,3.8-.13c1.31-1.14,1.33-3.16-.11-5.33Z"/><path class="cls-14" d="M147.37,180.85c-1.21-1.17-1-2.85,1-5.37l2.7-.09c1.44,2.17,1.42,4.2.11,5.33A3,3,0,0,1,147.37,180.85Z"/><path class="cls-15" d="M74.35,149.12a37.49,37.49,0,0,0-6.81,10.64c-.11.26-.22.52-.35.76a.51.51,0,0,1-.72.17,1.79,1.79,0,0,1-.25-.22,54.73,54.73,0,0,1-6.58-8,39.54,39.54,0,0,1-4-8.08,6.42,6.42,0,0,1-.24-1,.33.33,0,0,1,.45-.34,2.38,2.38,0,0,1,.47.17A28.66,28.66,0,0,0,67,146.61a23.38,23.38,0,0,0,7.65.06,2.38,2.38,0,0,1,1,.12.48.48,0,0,1,.26.79C75.34,148.15,74.78,148.69,74.35,149.12Zm-7.88,10c.89-1.58,1.77-3.18,2.68-4.76a25.74,25.74,0,0,1,4.31-5.71,2.9,2.9,0,0,0,.34-.36.34.34,0,0,0,.07-.28.35.35,0,0,0-.25-.18c-.5,0-1,0-1.5,0a30.78,30.78,0,0,1-11.19-1.56c-1.15-.38-2.27-.86-3.42-1.3.08,1.19.41,2,1.87,4.77C61.23,153.21,64.56,157.62,66.47,159.1Z"/><path class="cls-15" d="M64.76,153.85A34.12,34.12,0,0,1,61,148.58a3.54,3.54,0,0,1-.33-.93.33.33,0,0,1,.08-.3.32.32,0,0,1,.28-.08,4.54,4.54,0,0,1,.61.24,12.94,12.94,0,0,0,7.1,1.35,1.83,1.83,0,0,1,.33,0,.67.67,0,0,1,.49,1,1.68,1.68,0,0,1-.3.4,14.07,14.07,0,0,0-2.84,3.87c-.44.78-.73.8-1.33.11C65,154.1,64.85,154,64.76,153.85Zm3.11-3.49a3.44,3.44,0,0,0-.67-.2,17.31,17.31,0,0,1-4-.86c-.19-.07-.46-.19-.57.1a.57.57,0,0,0,.13.43c.82,1,1.64,2.07,2.48,3.09a3.57,3.57,0,0,0,.67.46Z"/><path class="cls-16" d="M59.38,149.71c-1.46-2.76-1.79-3.58-1.87-4.77,1.15.45,2.27.92,3.42,1.3a30.78,30.78,0,0,0,11.19,1.56,14.79,14.79,0,0,1,1.49,0,.35.35,0,0,1,.26.18.38.38,0,0,1-.07.28,2,2,0,0,1-.35.36,26,26,0,0,0-4.3,5.71c-.91,1.58-1.78,3.18-2.68,4.77C64.56,157.62,61.23,153.21,59.38,149.71ZM61,147.27a.32.32,0,0,0-.29.09.37.37,0,0,0-.07.29,3.54,3.54,0,0,0,.33.93,33.1,33.1,0,0,0,3.79,5.26c.09.12.19.26.3.39.6.68.9.66,1.33-.12a14.49,14.49,0,0,1,2.84-3.87,1.45,1.45,0,0,0,.3-.4.67.67,0,0,0-.49-1H68.7a12.83,12.83,0,0,1-7.09-1.34A4.54,4.54,0,0,0,61,147.27Z"/><path class="cls-17" d="M62.59,149.4c.11-.29.38-.17.57-.1a17.34,17.34,0,0,0,4,.86,3.32,3.32,0,0,1,.68.2c-.68,1-1.32,2-2,3a3,3,0,0,1-.68-.46c-.84-1-1.67-2-2.48-3.1A.54.54,0,0,1,62.59,149.4Z"/><path class="cls-15" d="M189.07,165.49c-3.34.77-4.3.3-5.68-2.78.06-2.52,1.25-3.24,3.66-4,1.3-.41,2.55.43,3.29,1.94C191.29,162.58,191,163.86,189.07,165.49ZM187.42,160c-2.18,1-2.92,2.05-2.52,3.25a2.28,2.28,0,0,0,2.58,1.23c1.27-.31,2-1.65,1.78-3.6Z"/><path class="cls-18" d="M189.26,160.85c.21,1.94-.51,3.29-1.77,3.6a2.27,2.27,0,0,1-2.59-1.23c-.41-1.2.34-2.24,2.52-3.25Z"/><path class="cls-15" d="M48.8,126.26c-3.33.77-4.3.3-5.67-2.78,0-2.52,1.24-3.24,3.66-4,1.29-.41,2.54.43,3.28,1.94C51,123.35,50.7,124.63,48.8,126.26Zm-1.65-5.52c-2.17,1-2.92,2.05-2.52,3.25a2.3,2.3,0,0,0,2.59,1.23c1.27-.31,2-1.65,1.77-3.6Z"/><path class="cls-18" d="M49,121.62c.22,1.94-.5,3.29-1.77,3.6A2.28,2.28,0,0,1,44.63,124c-.4-1.2.35-2.24,2.52-3.25Z"/><path class="cls-15" d="M27.05,114.67c-2.53,1.27-5,2.29-7.24,3.71a35.4,35.4,0,0,0-5.26,4.39c-1.6,1.55-3,3.27-4.52,5a1.69,1.69,0,0,1-1.74.75,3.27,3.27,0,0,1-.45-1c-.39-3.41-2-6.33-3.59-9.27a19.49,19.49,0,0,0-3.67-5.07A4.26,4.26,0,0,1,0,112a5.82,5.82,0,0,1,3.29-.65c2.09,0,4.18-.06,6.27,0a20.31,20.31,0,0,1,2.7.2c4.14.61,8.27,1.26,12.4,1.9a13.44,13.44,0,0,1,1.66.42C26.76,114,27.12,114.17,27.05,114.67Zm-3.43.19c-2.16-1.32-18.19-2.68-20.91-1.81,2.5,4.07,5,8.13,6.34,12.83l6.77-6.28C18.06,117.51,20.92,116.39,23.62,114.86Z"/><path class="cls-15" d="M15.81,115.81l-5.16,4.85c-.65-2.23-2.12-3.66-3.4-5.13.08-.59.35-.73.81-.7,2.22.16,4.45.28,6.67.46A3.66,3.66,0,0,1,15.81,115.81Z"/><path class="cls-19" d="M23.62,114.86c-2.7,1.53-5.56,2.65-7.8,4.74s-4.44,4.11-6.77,6.28c-1.37-4.7-3.85-8.76-6.34-12.83C5.43,112.18,21.46,113.53,23.62,114.86Zm-7.81,1a3.65,3.65,0,0,0-1.08-.52c-2.22-.18-4.45-.3-6.67-.46-.46,0-.73.11-.81.71,1.28,1.45,2.75,2.9,3.4,5.12Z"/><path class="cls-20" d="M208.44,160.22a2.75,2.75,0,0,1,1.73-1.66,6.37,6.37,0,0,1,1.89-.42c.15-.22,0-.36,0-.52s0-.34,0-.52a3,3,0,0,1,0-.52,4.46,4.46,0,0,1,.07-.51,3,3,0,0,1,.07-.51,2.93,2.93,0,0,1,1.51-2.09,5,5,0,0,1,1.3-.46c1.1-.2,2.2-.45,3.29-.68a4.59,4.59,0,0,1,.51-.1c1.12-.1,2.24-.23,3.36-.29a4.72,4.72,0,0,1,3.18.87,2.3,2.3,0,0,1,.65.67c.32.55.66,1.09,1,1.64a3.92,3.92,0,0,1,.39.86,15.38,15.38,0,0,1,.65,2.76c.13,1.23.25,2.47.49,3.68a26.22,26.22,0,0,1,.44,3.42,8.58,8.58,0,0,1,0,2.32c-.08.4-.19.78-.3,1.21l-.47.66c-.42.2-.87.44-1.35.64a18.44,18.44,0,0,1-2.75.69c-1,.25-2,.42-3,.67a19.86,19.86,0,0,1-3.68.42,11.8,11.8,0,0,1-2.06,0,5.76,5.76,0,0,1-1.57-.45,5.15,5.15,0,0,1-2.37-1.81,18.24,18.24,0,0,1-1.26-1.85,10.72,10.72,0,0,1-.76-2.19c-.28-1-.44-2-.66-3A23.7,23.7,0,0,1,208.44,160.22Zm18.28,8.69.14-.23a13.43,13.43,0,0,0,.81-3.17,4.48,4.48,0,0,0,0-1.46,3.2,3.2,0,0,0-.21-1.18,1.7,1.7,0,0,1-.07-.51c-.06-.4-.13-.79-.19-1.19s-.09-.51-.11-.77a27.73,27.73,0,0,0-.78-3.36,1.24,1.24,0,0,0-.12-.32,19.19,19.19,0,0,0-1.35-2.21,1.4,1.4,0,0,0-.61-.46,12.18,12.18,0,0,0-2-.67c-.84,0-1.53,0-2.22,0a7.88,7.88,0,0,0-1.19.13c-.6.11-1.18.29-1.78.38a11.72,11.72,0,0,0-2.38.74,2.24,2.24,0,0,0-1,.68,12.84,12.84,0,0,0,0,2.4c.13,1.26.22,2.52.33,3.78a1.86,1.86,0,0,0,.06.34,24.58,24.58,0,0,0,.88,2.8A1.81,1.81,0,0,0,216,165.7a4.57,4.57,0,0,0,1.68.33,21.39,21.39,0,0,0,2.4-.21,3.38,3.38,0,0,0,1.44-.55,2,2,0,0,0,.77-.91,3.91,3.91,0,0,0,.33-1.68c0-.69,0-1.38-.1-2.06a9.52,9.52,0,0,0-.25-1.18,3.29,3.29,0,0,0-.52-1.32c-.92-.48-1.81-.08-2.73.24l-.38.56a3.86,3.86,0,0,0,.3,2.62l.42.14c.3-.09.54-.18.79-.23a1.46,1.46,0,0,1,.51,0,.57.57,0,0,1,.35.23,1.44,1.44,0,0,1,.08.49,16.21,16.21,0,0,1-1.71.7,1.49,1.49,0,0,1-1.46-.1,3.23,3.23,0,0,1-.64-1.43c-.2-.81-.38-1.63-.56-2.44a.91.91,0,0,1,.14-.8,5.24,5.24,0,0,0,.51-.35,10.16,10.16,0,0,1,2.27-1.05.53.53,0,0,1,.25,0,9.1,9.1,0,0,1,1.93.15,2.34,2.34,0,0,1,1.32,1.45,7.37,7.37,0,0,1,.48,2.27,5,5,0,0,0,.12,1,9.48,9.48,0,0,1,.13,3.6,1.88,1.88,0,0,1-.13.38c-.23.18-.43.35-.64.49a4.4,4.4,0,0,1-1.79.84c-1,.13-2,.2-3,.27-.48,0-1,0-1.46,0a2.76,2.76,0,0,1-1.49-.35,3.08,3.08,0,0,1-1.21-1.32,10.62,10.62,0,0,1-.94-2.5c-.28-1.11-.51-2.24-.77-3.36,0-.14-.09-.26-.13-.4a2.7,2.7,0,0,0-2.11.59l-.43,1.1a13.53,13.53,0,0,0,0,1.7c.18,1.31.39,2.62.64,3.91a4.59,4.59,0,0,0,.53,1.45,18.33,18.33,0,0,0,1.49,2,2.66,2.66,0,0,0,1.85,1c.2,0,.39.09.59.11a10.13,10.13,0,0,0,2.06.19,30.44,30.44,0,0,0,5.46-.78,15.79,15.79,0,0,1,1.69-.34,5.67,5.67,0,0,0,1.51-.36Z"/><path class="cls-21" d="M227.41,162.87a3.21,3.21,0,0,1,.22,1.18,4.48,4.48,0,0,1,0,1.46,12.86,12.86,0,0,1-.82,3.17c0,.07-.08.15-.12.23l-1.14.9a5.67,5.67,0,0,1-1.51.36,15.79,15.79,0,0,0-1.69.34,30.44,30.44,0,0,1-5.46.78,10.13,10.13,0,0,1-2.06-.19c-.2,0-.39-.09-.59-.11a2.64,2.64,0,0,1-1.84-1,18.41,18.41,0,0,1-1.5-2,4.34,4.34,0,0,1-.52-1.45c-.26-1.3-.47-2.6-.65-3.91a15.74,15.74,0,0,1,0-1.7c.14-.35.3-.75.43-1.09a2.62,2.62,0,0,1,2.11-.59c0,.13.1.26.13.39.26,1.12.49,2.25.77,3.36a10.62,10.62,0,0,0,.94,2.5,3,3,0,0,0,1.21,1.32,2.76,2.76,0,0,0,1.49.35c.49,0,1,0,1.46,0,1-.07,2-.14,3-.27a4.4,4.4,0,0,0,1.79-.84c.21-.14.41-.31.64-.49a1.88,1.88,0,0,0,.13-.38,9.29,9.29,0,0,0-.14-3.6,5.8,5.8,0,0,1-.11-1,7.67,7.67,0,0,0-.48-2.27,2.32,2.32,0,0,0-1.32-1.45,9,9,0,0,0-1.93-.15.43.43,0,0,0-.25,0,9.27,9.27,0,0,0-2.26,1c-.18.14-.38.26-.52.35a.88.88,0,0,0-.14.8c.18.82.35,1.63.56,2.44a3.1,3.1,0,0,0,.64,1.42,1.49,1.49,0,0,0,1.46.11,14.42,14.42,0,0,0,1.71-.71,1.32,1.32,0,0,0-.08-.47.54.54,0,0,0-.35-.23,1.25,1.25,0,0,0-.51,0c-.25.05-.49.14-.79.23l-.42-.14a3.92,3.92,0,0,1-.31-2.62c.11-.15.26-.36.39-.56.93-.32,1.81-.72,2.73-.24a3.15,3.15,0,0,1,.52,1.32,9.52,9.52,0,0,1,.25,1.18c.06.68.09,1.37.1,2.06a3.88,3.88,0,0,1-.33,1.68,2,2,0,0,1-.77.91,3.24,3.24,0,0,1-1.44.54,21.44,21.44,0,0,1-2.39.22,4.62,4.62,0,0,1-1.69-.33,1.83,1.83,0,0,1-1.07-1.06,22.58,22.58,0,0,1-.88-2.79,1.33,1.33,0,0,1-.05-.34c-.12-1.27-.21-2.53-.34-3.79a12.94,12.94,0,0,1,0-2.41,2.17,2.17,0,0,1,1-.67,12.26,12.26,0,0,1,2.39-.74c.59-.09,1.17-.27,1.76-.38a8.14,8.14,0,0,1,1.21-.13c.68,0,1.37,0,2.21,0a10.75,10.75,0,0,1,2,.66,1.43,1.43,0,0,1,.6.46,20.09,20.09,0,0,1,1.35,2.21,1.31,1.31,0,0,1,.12.33,29.09,29.09,0,0,1,.78,3.35c0,.26.07.51.11.77s.13.79.19,1.19A1.7,1.7,0,0,0,227.41,162.87Z"/></g></g></svg>