<?xml version="1.0" encoding="UTF-8" standalone="no"?>
<!DOCTYPE svg PUBLIC "-//W3C//DTD SVG 1.1//EN" "http://www.w3.org/Graphics/SVG/1.1/DTD/svg11.dtd">
<svg width="100%" height="100%" viewBox="0 0 2252 1926" version="1.1" xmlns="http://www.w3.org/2000/svg" xmlns:xlink="http://www.w3.org/1999/xlink" xml:space="preserve" xmlns:serif="http://www.serif.com/" style="fill-rule:evenodd;clip-rule:evenodd;stroke-linejoin:round;stroke-miterlimit:2;">
    <g transform="matrix(1,0,0,1,-371.263,-556.404)">
        <g>
            <g transform="matrix(4.08471e-15,-66.7084,62.0898,3.8019e-15,392.114,2991.04)">
                <path d="M35.71,5.732C34.241,2.117 30.89,-0.336 27.075,-0.336L26.692,-0.336C23.957,-0.336 21.34,0.882 19.475,3.035L17.132,5.732L35.71,5.732Z" style="fill:rgb(210,37,39);"/>
            </g>
            <path d="M747.996,1848.21L1125.28,2200.44L1125.28,569.129C1050.87,553.896 973.301,552.128 896.25,564.97C852.8,572.222 811.015,583.824 771.329,599.345L770.862,599.527C763.15,602.472 755.532,605.622 747.996,608.913L747.996,1848.21Z" style="fill:rgb(226,117,38);"/>
            <path d="M1125.28,2200.44L1375.07,2433.64C1408.05,2464.42 1451.57,2481.57 1496.86,2481.57L1496.86,793.161L1444.1,740.405C1360.26,656.565 1255.66,599.35 1143.1,573.049L1142.43,572.895C1136.74,571.544 1131.02,570.297 1125.28,569.129L1125.28,2200.44Z" style="fill:rgb(254,196,92);"/>
            <path d="M1519.37,2480.11L1519.72,2480.06C1556.62,2475.35 1591.28,2459.2 1618.66,2433.64L1874.14,2195.12L1874.14,567.941C1752.72,591.519 1639.3,650.733 1549.62,740.405L1496.86,793.167L1496.86,793.161L1496.86,2481.57L1496.86,2481.57C1504.43,2481.57 1511.94,2481.09 1519.37,2480.11Z" style="fill:rgb(46,143,68);"/>
            <path d="M1874.14,2195.12L2245.72,1848.22L2245.72,608.907C2199.18,588.586 2149.52,573.656 2097.47,564.97C2028.56,553.484 1959.24,553.686 1892.08,564.753L1891.29,564.884C1885.56,565.804 1879.84,566.833 1874.14,567.941L1874.14,2195.12Z" style="fill:rgb(30,70,136);"/>
            <path d="M2245.72,1848.22L2413.17,1691.89C2546.84,1567.46 2622.46,1392.9 2622.46,1210.43L2622.46,1184.93C2622.46,939.39 2480.74,722.757 2269.2,619.765L2268.58,619.463L2266.54,618.46C2263.09,616.838 2259.64,615.215 2256.18,613.593L2245.72,608.907L2245.72,1848.22Z" style="fill:rgb(115,78,145);"/>
        </g>
    </g>
</svg>
