<?xml version="1.0" encoding="utf-8"?>
<!-- Generator: Adobe Illustrator 26.5.0, SVG Export Plug-In . SVG Version: 6.00 Build 0)  -->
<svg version="1.1" id="Layer_1" xmlns="http://www.w3.org/2000/svg" xmlns:xlink="http://www.w3.org/1999/xlink" x="0px" y="0px"
	 viewBox="0 0 161 38" style="enable-background:new 0 0 161 38;" xml:space="preserve">
<style type="text/css">
	.st0{fill:#FFFFFF;}
	.st1{clip-path:url(#SVGID_00000072242304929795380110000014203094216834947476_);}
	.st2{fill:#D22527;}
	.st3{fill:#E27526;}
	.st4{fill:#FEC45C;}
	.st5{fill:#2E8F44;}
	.st6{fill:#1E4688;}
	.st7{fill:#734E91;}
</style>
<g>
	<g>
		<g>
			<g>
				<path class="st0" d="M91.1,26.6h3.8V16.6c0-0.7,0.2-1.2,0.6-1.5c0.8-0.7,2.3-0.8,4.2-0.7v-3.1c-3.6-0.5-6.1,0-7.3,1.4l0,0.1
					c0,0-1.1,1.1-1.1,3.8L91.1,26.6L91.1,26.6z"/>
			</g>
		</g>
		<g>
			<g>
				<path class="st0" d="M69.4,26.6h3.8v-10c0-3.6-2.2-5.6-6-5.6c-1.6,0-3,0.4-4,1.1L63,12.3l-0.1-0.1c-1-0.7-2.4-1.1-4-1.1
					c-3.9,0-6,2-6,5.6v10h3.8V16.4c0-1.3,0.9-2.1,2.3-2.1s2.2,0.7,2.2,2.1v10.2h3.8V16.4c0-1.3,0.9-2.1,2.3-2.1
					c1.4,0,2.2,0.7,2.2,2.1L69.4,26.6L69.4,26.6z"/>
			</g>
		</g>
		<g>
			<g>
				<path class="st0" d="M111.5,26.6h3.8V11.4h-3.8V26.6z"/>
			</g>
		</g>
		<g>
			<g>
				<path class="st0" d="M127.3,26.6h3.8v-9.5c0-3.8-2.4-6-6.5-6c-4.1,0-6.5,2.2-6.5,6v9.5h3.8v-9.8c0-1.5,1-2.5,2.7-2.5
					c1.7,0,2.7,0.9,2.7,2.5L127.3,26.6L127.3,26.6z"/>
			</g>
		</g>
		<g>
			<g>
				<path class="st0" d="M133.3,11.4v9.5c0,3.8,2.4,6,6.5,6c4.1,0,6.5-2.2,6.5-6v-9.5h-3.8v9.8c0,1.5-1,2.5-2.7,2.5
					c-1.7,0-2.7-0.9-2.7-2.5v-9.8H133.3z"/>
			</g>
		</g>
		<g>
			<g>
				<path class="st0" d="M148.4,22.1v0.2c0,3,2.2,4.6,6.3,4.6c2.9,0,6.3-0.8,6.3-4.8c0-2.2-1.5-3.8-4.3-4.4l-2.8-0.6
					c-1.1-0.2-1.6-0.7-1.6-1.4c0-1,0.8-1.6,2.4-1.6c0.6,0,2.4,0,2.4,1.6v0h3.8v-0.2c0-3-2.2-4.6-6.2-4.6c-4,0-6.2,1.6-6.2,4.7
					c0,2.3,1.5,3.9,4.3,4.4l2.8,0.6c1.1,0.2,1.6,0.7,1.6,1.4c0,0.7-0.4,1.6-2.6,1.6c-2.1,0-2.5-0.9-2.5-1.6v0L148.4,22.1L148.4,22.1
					z"/>
			</g>
		</g>
		<g>
			<g>
				<path class="st0" d="M113.5,4.5c-1.3,0-2.3,1.1-2.3,2.3c0,1.3,1,2.3,2.3,2.3c1.3,0,2.3-1.1,2.3-2.3
					C115.8,5.5,114.7,4.5,113.5,4.5z"/>
			</g>
		</g>
		<g>
			<g>
				<path class="st0" d="M101.3,14.6L101.3,14.6v6.6c0,2.3,0.4,3.7,1.4,4.6c1.2,1,3.2,1.3,6.2,0.9v-3.1c-1.7,0.1-2.8,0.1-3.3-0.5
					c-0.4-0.4-0.5-0.9-0.5-1.7v-6.7h3.9v-3.2h-3.9V6.8l-3.7,1.1v3.5l0,0L101.3,14.6L101.3,14.6z"/>
			</g>
		</g>
		<path class="st0" d="M82.1,11.1c-3.9,0-6,1.8-6.1,4.6h3.8c0.1-1.2,0.8-1.7,2.3-1.7c1.5,0,2.5,0.9,2.5,2.3v1c0,0-0.9,0-3.9,0
			c-3.8,0-5.5,1.9-5.5,4.8c0,3,1.8,4.8,5,4.8c2.1,0,3.7-0.7,4.5-2l0.1-0.3v2h3.3v-9.9C88.2,13.1,86,11.1,82.1,11.1z M84.8,20.4
			c0,0.4,0,1,0,1.2c0,0.7-0.9,2-3.2,2c-2.1,0-2.7-0.7-2.7-1.9c0-1.3,0.7-1.8,2.8-1.8c1.9,0,3,0,3,0S84.8,20.2,84.8,20.4z"/>
	</g>
	<g>
		<g>
			<defs>
				<path id="SVGID_1_" d="M22.3,0C11.9,0,0,0.9,0,19s13.4,19,22.3,19s22.2-0.8,22.2-19C44.5,0.8,32.7,0,22.3,0"/>
			</defs>
			<clipPath id="SVGID_00000088092443499876209340000014268518015491679157_">
				<use xlink:href="#SVGID_1_"  style="overflow:visible;"/>
			</clipPath>
			
				<g id="XMLID_00000024703697079561550780000015667752104026950553_" style="clip-path:url(#SVGID_00000088092443499876209340000014268518015491679157_);">
				<rect id="XMLID_00000183933668975762454470000008014112992336848299_" y="-0.8" class="st2" width="44.5" height="6.9"/>
				<rect id="XMLID_00000160872705612735059970000004422416481214147235_" y="5.7" class="st3" width="44.5" height="6.9"/>
				<rect id="XMLID_00000007415659011225727380000009343008761854168448_" y="12.3" class="st4" width="44.5" height="6.9"/>
				<rect id="XMLID_00000165930506450269900290000015568135864864240028_" y="18.8" class="st5" width="44.5" height="6.9"/>
				<rect id="XMLID_00000070807354559340217250000016415822985724028853_" y="25.4" class="st6" width="44.5" height="6.9"/>
				<rect id="XMLID_00000116219864768774953170000003653942601464649909_" y="31.9" class="st7" width="44.5" height="6.9"/>
			</g>
		</g>
		<path class="st0" d="M36.7,18.8l-4.3-4.4c-1.8-1.9-3.6-4-7.1,0.2l7.8,8l-3.6,3.7L17.9,14.3c-1.9-2-3.7-3.8-7,0.3l15,15.4l0,0
			l-3.6,3.7l-18-18.5c9.8-14.3,14.5-7.4,17.6-4.1c7-7.5,10.2-4.5,14.5,0.1l3.9,4L36.7,18.8z"/>
	</g>
</g>
</svg>
