<?xml version="1.0" encoding="UTF-8"?>
<svg width="161px" height="38px" viewBox="0 0 161 38" version="1.1" xmlns="http://www.w3.org/2000/svg" xmlns:xlink="http://www.w3.org/1999/xlink">
    <!-- Generator: Sketch 45.1 (43504) - http://www.bohemiancoding.com/sketch -->
    <title>Page 1 Copy</title>
    <desc>Created with Sketch.</desc>
    <defs>
        <polygon id="path-1" points="0 52.8734731 189.63024 52.8734731 189.63024 0 0 0"></polygon>
    </defs>
    <g id="Symbols" stroke="none" stroke-width="1" fill="none" fill-rule="evenodd">
        <g id="Page-1-Copy" transform="translate(-15.000000, -8.000000)">
            <path d="M106.151749,34.1804311 L109.901689,34.1804311 L109.901689,24.3925868 C109.901689,23.7440838 110.081449,23.2571377 110.45121,22.9055808 C111.223725,22.1706108 112.718695,22.1626467 114.599353,22.2513892 L114.599353,19.245521 C111.051928,18.7358204 108.530731,19.2136647 107.301988,20.6312695 L107.25079,20.6904311 C107.236,20.7052216 106.157437,21.7587545 106.151749,24.3903114 L106.151749,34.1804311 Z" id="Fill-1" fill="#FFFFFF"></path>
            <path d="M84.508018,34.1804311 L88.2579581,34.1804311 L88.2579581,24.4915689 C88.2579581,21.0374371 86.0723892,19.0566587 82.2621497,19.0566587 C80.6261018,19.0566587 79.2756228,19.4173174 78.2482575,20.1306707 L78.0969401,20.236479 L77.944485,20.1318084 C76.9171198,19.4173174 75.5871198,19.0566587 73.9897545,19.0566587 C70.1601737,19.0566587 67.9643653,21.0374371 67.9643653,24.4915689 L67.9643653,34.1804311 L71.7143054,34.1804311 L71.7143054,24.2253413 C71.7143054,22.967018 72.5653234,22.214982 73.9897545,22.214982 C75.4175988,22.214982 76.2356228,22.9476766 76.2356228,24.2253413 L76.2356228,34.1804311 L79.9867006,34.1804311 L79.9867006,24.2253413 C79.9867006,22.967018 80.8365808,22.214982 82.2621497,22.214982 C83.689994,22.214982 84.508018,22.9476766 84.508018,24.2253413 L84.508018,34.1804311 Z" id="Fill-3" fill="#FFFFFF"></path>
            <mask id="mask-2" fill="white">
                <use xlink:href="#path-1"></use>
            </mask>
            <g id="Clip-6"></g>
            <polygon id="Fill-5" fill="#FFFFFF" mask="url(#mask-2)" points="126.470599 34.1806587 130.220539 34.1806587 130.220539 19.3515569 126.470599 19.3515569"></polygon>
            <path d="M142.207377,34.1804311 L145.957317,34.1804311 L145.957317,24.9045629 C145.957317,21.1876168 143.610192,19.0566587 139.517796,19.0566587 C135.407198,19.0566587 133.048695,21.1876168 133.048695,24.9045629 L133.048695,34.1804311 L136.799772,34.1804311 L136.799772,24.6098922 C136.799772,23.1103713 137.81576,22.214982 139.517796,22.214982 C141.226659,22.214982 142.207377,23.0876168 142.207377,24.6098922 L142.207377,34.1804311 Z" id="Fill-7" fill="#FFFFFF" mask="url(#mask-2)"></path>
            <path d="M148.228557,19.3515569 L148.228557,28.6274251 C148.228557,32.3443713 150.575683,34.4753293 154.668078,34.4753293 C158.779814,34.4753293 161.13718,32.3443713 161.13718,28.6274251 L161.13718,19.3515569 L157.38724,19.3515569 L157.38724,28.9220958 C157.38724,30.4216168 156.370114,31.3158683 154.668078,31.3158683 C152.959216,31.3158683 151.978497,30.4443713 151.978497,28.9220958 L151.978497,19.3515569 L148.228557,19.3515569 Z" id="Fill-8" fill="#FFFFFF" mask="url(#mask-2)"></path>
            <path d="M163.194868,29.8392156 L163.194868,30.0155629 C163.194868,32.8917305 165.429359,34.4754431 169.486485,34.4754431 C172.370617,34.4754431 175.807683,33.666521 175.807683,29.808497 C175.807683,27.6297545 174.278581,26.1177186 171.501395,25.549994 L168.66391,24.959515 C167.608102,24.7535868 167.092713,24.3007725 167.092713,23.5749042 C167.092713,22.5748443 167.908461,22.0674192 169.516066,22.0674192 C170.10882,22.0674192 171.909838,22.0674192 171.909838,23.6636467 L171.909838,23.6932275 L175.660916,23.6932275 L175.660916,23.5157425 C175.660916,20.6407126 173.47876,19.0558623 169.516066,19.0558623 C165.477144,19.0558623 163.342772,20.6498144 163.342772,23.6636467 C163.342772,25.8810719 164.871874,27.4147246 167.64906,27.9824491 L170.486545,28.5729281 C171.543491,28.7788563 172.057743,29.2305329 172.057743,29.9564012 C172.057743,30.6447246 171.611754,31.4638862 169.486485,31.4638862 C167.386246,31.4638862 166.944808,30.5958024 166.944808,29.8676587 L166.944808,29.8392156 L163.194868,29.8392156 Z" id="Fill-9" fill="#FFFFFF" mask="url(#mask-2)"></path>
            <path d="M128.435335,12.6756168 C127.186114,12.6756168 126.168988,13.6927425 126.168988,14.9419641 C126.168988,16.1923234 127.186114,17.2094491 128.435335,17.2094491 C129.685695,17.2094491 130.701683,16.1923234 130.701683,14.9419641 C130.701683,13.6927425 129.685695,12.6756168 128.435335,12.6756168" id="Fill-10" fill="#FFFFFF" mask="url(#mask-2)"></path>
            <path d="M116.341892,22.511018 L116.341892,22.511018 L116.340754,28.9220958 C116.340754,31.1179042 116.79812,32.5320958 117.777701,33.3728743 C118.940455,34.3706587 120.95309,34.6471257 123.931653,34.2170659 L123.931653,31.2111976 C122.252371,31.291976 121.18291,31.2851497 120.603808,30.734491 C120.248838,30.3977246 120.091832,29.8846108 120.091832,29.07 L120.091832,22.511018 L123.931653,22.511018 L123.931653,19.3515569 L120.074766,19.3515569 L120.074766,14.8564072 L116.341892,15.914491 L116.341892,19.3515569 L116.341892,22.511018 Z" id="Fill-11" fill="#FFFFFF" mask="url(#mask-2)"></path>
            <path d="M99.8563772,28.154018 L99.8563772,29.3258743 C99.8563772,30.0267126 98.9314072,31.3157545 96.6844012,31.3157545 C94.6376347,31.3157545 93.9948204,30.6752156 93.9948204,29.4771916 C93.9948204,28.2302455 94.7002096,27.7444371 96.8357186,27.7444371 L99.8563772,27.7444371 L99.8563772,28.154018 Z M97.2191317,19.0556347 C93.352006,19.0556347 91.2870359,20.7815629 91.1391317,23.5416826 L94.8947605,23.5416826 C94.9846407,22.383479 95.6888922,21.8874311 97.2191317,21.8874311 C98.659491,21.8874311 99.7050599,22.7475509 99.7050599,24.1332994 L99.7050599,25.0753353 L95.8413473,25.0753353 C92.0868563,25.0753353 90.3961976,26.8854551 90.3961976,29.7764132 C90.3961976,32.6662335 92.2040419,34.4763533 95.3578144,34.4763533 C97.4261976,34.4763533 99.0827246,33.7948563 99.8597904,32.5069521 L100.007695,32.2384491 L100.007695,34.1805449 L103.30482,34.1805449 L103.30482,24.5497066 C103.30482,21.0591677 101.086257,19.0556347 97.2191317,19.0556347 L97.2191317,19.0556347 Z" id="Fill-12" fill="#FFFFFF" mask="url(#mask-2)"></path>
            <path d="M37.5265928,8.28092814 C27.1641976,8.28092814 15.345515,9.17631737 15.345515,26.7575749 C15.345515,44.3376946 28.7183293,45.2512874 37.5265928,45.2512874 C46.335994,45.2512874 59.6906048,44.4776347 59.6906048,26.7575749 C59.6906048,9.0898503 47.9322216,8.28092814 37.5265928,8.28092814" id="Fill-13" fill="#D22121" mask="url(#mask-2)"></path>
            <path d="M51.9390599,26.6166108 L47.6259461,22.303497 C45.821515,20.4990659 44.0796587,18.412479 40.5356467,22.5208024 L48.2858263,30.2698443 L44.7315749,33.8240958 L33.1484012,22.2397844 C31.2552275,20.3466108 29.4246287,18.5137365 26.1320539,22.5310419 L41.0783413,37.4761916 L41.0783413,37.4773293 L37.5252275,41.0304431 L19.5503174,23.0555329 C29.3563653,9.17870659 34.0381018,15.8901437 37.1088204,19.1030778 C44.066006,11.7772695 47.2857665,14.6864311 51.5943293,19.1656527 L55.4910359,23.063497 L51.9390599,26.6166108 Z" id="Fill-14" fill="#FFFFFF" mask="url(#mask-2)"></path>
        </g>
    </g>
</svg>