<?xml version="1.0" encoding="UTF-8" standalone="no"?>
<!DOCTYPE svg PUBLIC "-//W3C//DTD SVG 1.1//EN" "http://www.w3.org/Graphics/SVG/1.1/DTD/svg11.dtd">
<svg width="100%" height="100%" viewBox="0 0 45 40" version="1.1" xmlns="http://www.w3.org/2000/svg" xmlns:xlink="http://www.w3.org/1999/xlink" xml:space="preserve" xmlns:serif="http://www.serif.com/" style="fill-rule:evenodd;clip-rule:evenodd;stroke-linejoin:round;stroke-miterlimit:2;">
    <g transform="matrix(1,0,0,1,0,0.8)">
        <g>
            <g>
                <g id="XMLID_00000024703697079561550780000015667752104026950553_">
                    <clipPath id="_clip1">
                        <path d="M22.3,0C11.9,0 0,0.9 0,19C0,37.1 13.4,38 22.3,38C31.2,38 44.5,37.2 44.5,19C44.5,0.8 32.7,0 22.3,0"/>
                    </clipPath>
                    <g clip-path="url(#_clip1)">
                        <rect id="XMLID_00000183933668975762454470000008014112992336848299_" x="0" y="-0.8" width="44.5" height="6.9" style="fill:rgb(210,37,39);"/>
                        <rect id="XMLID_00000160872705612735059970000004422416481214147235_" x="0" y="5.7" width="44.5" height="6.9" style="fill:rgb(226,117,38);"/>
                        <rect id="XMLID_00000007415659011225727380000009343008761854168448_" x="0" y="12.3" width="44.5" height="6.9" style="fill:rgb(254,196,92);"/>
                        <rect id="XMLID_00000165930506450269900290000015568135864864240028_" x="0" y="18.8" width="44.5" height="6.9" style="fill:rgb(46,143,68);"/>
                        <rect id="XMLID_00000070807354559340217250000016415822985724028853_" x="0" y="25.4" width="44.5" height="6.9" style="fill:rgb(30,70,136);"/>
                        <rect id="XMLID_00000116219864768774953170000003653942601464649909_" x="0" y="31.9" width="44.5" height="6.9" style="fill:rgb(115,78,145);"/>
                    </g>
                </g>
            </g>
            <path d="M36.7,18.8L32.4,14.4C30.6,12.5 28.8,10.4 25.3,14.6L33.1,22.6L29.5,26.3L17.9,14.3C16,12.3 14.2,10.5 10.9,14.6L25.9,30L22.3,33.7L4.3,15.2C14.1,0.9 18.8,7.8 21.9,11.1C28.9,3.6 32.1,6.6 36.4,11.2L40.3,15.2L36.7,18.8Z" style="fill:white;fill-rule:nonzero;"/>
        </g>
    </g>
</svg>
