<?xml version="1.0" encoding="UTF-8"?>
<svg width="190px" height="53px" viewBox="0 0 190 53" version="1.1" xmlns="http://www.w3.org/2000/svg" xmlns:xlink="http://www.w3.org/1999/xlink">
    <!-- Generator: Sketch 46.2 (44496) - http://www.bohemiancoding.com/sketch -->
    <title>Untitled</title>
    <desc>Created with Sketch.</desc>
    <defs></defs>
    <g id="Page-1" stroke="none" stroke-width="1" fill="none" fill-rule="evenodd">
        <g id="Martinus-CZ-logo-RGB_A-on-black" transform="translate(0.000000, 9.000000)" fill-rule="nonzero">
            <g id="Group">
                <path d="M21.4588517,0.0206896552 C11.4598086,0.0206896552 0.061722488,0.889655172 0.061722488,17.937931 C0.061722488,34.9862069 12.9617225,35.8758621 21.4588517,35.8758621 C29.9559809,35.8758621 42.8354067,35.1310345 42.8354067,17.937931 C42.8354067,0.786206897 31.4990431,0.0206896552 21.4588517,0.0206896552" id="Shape" fill="#D22121"></path>
                <path d="M35.3669856,17.7931034 L31.2110048,13.6137931 C29.462201,11.8551724 27.7956938,9.84827586 24.3803828,13.8206897 L31.8488038,21.3310345 L28.4129187,24.7862069 L17.2411483,13.5517241 C15.4100478,11.7103448 13.6406699,9.93103448 10.4722488,13.8413793 L24.8947368,28.3448276 L24.8947368,28.3448276 L21.4588517,31.8 L4.11483254,14.337931 C13.5789474,0.889655172 18.084689,7.3862069 21.0473684,10.5103448 C27.7545455,3.4137931 30.861244,6.22758621 35.0172249,10.5724138 L38.7822967,14.3586207 L35.3669856,17.7931034 Z" id="Shape" fill="#FFFFFF"></path>
            </g>
            <g id="Group" transform="translate(51.000000, 5.000000)">
                <path d="M36.8263557,20.5385795 L40.4472711,20.5385795 L40.4472711,11.2506898 C40.4472711,10.6436382 40.6118582,10.178232 40.9821791,9.83423608 C41.7228209,9.14624425 43.1629577,9.1260092 44.9734154,9.20694941 L44.9734154,6.35380685 C41.5582338,5.86816556 39.1305746,6.31333674 37.9373184,7.66908533 L37.8961716,7.7297905 C37.8755983,7.75002555 36.8469291,8.74154318 36.8263557,11.2304548 L36.8263557,20.5385795 L36.8263557,20.5385795 Z" id="Shape" fill="#FFFFFF"></path>
                <path d="M15.9443719,20.5385795 L19.5652873,20.5385795 L19.5652873,11.33163 C19.5652873,8.05355135 17.4668022,6.17169136 13.7841667,6.17169136 C12.2000162,6.17169136 10.903893,6.51568728 9.91637065,7.18344405 L9.77235697,7.28461932 L9.62834328,7.18344405 C8.6408209,6.51568728 7.34469776,6.17169136 5.82226741,6.17169136 C2.11905846,6.17169136 0.0205733831,8.05355135 0.0205733831,11.33163 L0.0205733831,20.5183444 L3.64148881,20.5183444 L3.64148881,11.0685743 C3.64148881,9.87470618 4.46442413,9.16647931 5.8428408,9.16647931 C7.22125746,9.16647931 8.00304602,9.85447113 8.00304602,11.0685743 L8.00304602,20.5183444 L11.6239614,20.5183444 L11.6239614,11.0685743 C11.6239614,9.87470618 12.4468968,9.16647931 13.8253134,9.16647931 C15.2037301,9.16647931 15.9855187,9.85447113 15.9855187,11.0685743 L15.9855187,20.5385795 L15.9443719,20.5385795 Z" id="Shape" fill="#FFFFFF"></path>
                <polygon id="Shape" fill="#FFFFFF" points="56.4122164 20.5385795 60.0331318 20.5385795 60.0331318 6.47521717 56.4122164 6.47521717"></polygon>
                <path d="M71.5953731,20.5385795 L75.2162886,20.5385795 L75.2162886,11.7363311 C75.2162886,8.21543178 72.9532164,6.19192642 69.0031269,6.19192642 C65.0324639,6.19192642 62.7693918,8.21543178 62.7693918,11.7363311 L62.7693918,20.5385795 L66.3903072,20.5385795 L66.3903072,11.4530404 C66.3903072,10.0365866 67.3778296,9.18671436 69.0031269,9.18671436 C70.6489975,9.18671436 71.5953731,10.0163516 71.5953731,11.4530404 L71.5953731,20.5385795 L71.5953731,20.5385795 Z" id="Shape" fill="#FFFFFF"></path>
                <path d="M77.3970672,6.45498212 L77.3970672,15.2572305 C77.3970672,18.7781298 79.6601393,20.8016352 83.6102289,20.8016352 C87.5808918,20.8016352 89.8439639,18.7781298 89.8439639,15.2572305 L89.8439639,6.45498212 L86.2230485,6.45498212 L86.2230485,15.5405212 C86.2230485,16.956975 85.2355261,17.8068472 83.6102289,17.8068472 C81.9643582,17.8068472 81.0179826,16.97721 81.0179826,15.5405212 L81.0179826,6.45498212 L77.3970672,6.45498212 Z" id="Shape" fill="#FFFFFF"></path>
                <path d="M91.8395821,16.4106285 L91.8395821,16.5725089 C91.8395821,19.3042412 93.9997873,20.8016352 97.9087301,20.8016352 C100.686137,20.8016352 103.998451,20.0327031 103.998451,16.3701584 C103.998451,14.3061829 102.517168,12.8694941 99.8426281,12.3231477 L97.1063682,11.7565662 C96.077699,11.5542156 95.5839378,11.1292795 95.5839378,10.4412877 C95.5839378,9.49024016 96.3657264,9.00459888 97.9293035,9.00459888 C98.5053582,9.00459888 100.233522,9.00459888 100.233522,10.5222279 L100.233522,10.542463 L103.854438,10.542463 L103.854438,10.3805825 C103.854438,7.64885028 101.755953,6.15145631 97.9293035,6.15145631 C94.0409341,6.15145631 91.9835958,7.66908533 91.9835958,10.5222279 C91.9835958,12.6266735 93.4648794,14.0835973 96.1394192,14.6097087 L98.8756791,15.1762902 C99.9043483,15.3786408 100.398109,15.8035769 100.398109,16.4915687 C100.398109,17.1390904 99.9660684,17.9282575 97.9087301,17.9282575 C95.8925386,17.9282575 95.4604975,17.0986203 95.4604975,16.4106285 L95.4604975,16.3903935 L91.8395821,16.3903935 L91.8395821,16.4106285 Z" id="Shape" fill="#FFFFFF"></path>
                <path d="M58.3049677,0.141645376 C57.0911381,0.141645376 56.1241891,1.11292795 56.1241891,2.28656106 C56.1241891,3.48042923 57.1117114,4.43147675 58.3049677,4.43147675 C59.5187973,4.43147675 60.4857463,3.46019417 60.4857463,2.28656106 C60.5063197,1.0926929 59.5187973,0.141645376 58.3049677,0.141645376 Z" id="Shape" fill="#FFFFFF"></path>
                <path d="M46.6604328,9.47000511 L46.6604328,9.47000511 L46.6604328,15.5607563 C46.6604328,17.6449668 47.0924739,18.9804803 48.0388495,19.7898825 C49.1703856,20.74093 51.1042836,21.0039857 53.9845572,20.5992846 L53.9845572,17.7461421 C52.35926,17.8270823 51.3305908,17.8068472 50.7751095,17.3009709 C50.4253619,16.97721 50.2813483,16.4915687 50.2813483,15.7226367 L50.2813483,9.51047522 L53.9845572,9.51047522 L53.9845572,6.51568728 L50.2607749,6.51568728 L50.2607749,2.24609096 L46.6604328,3.25784364 L46.6604328,6.51568728 L46.6604328,6.51568728 L46.6604328,9.47000511 Z" id="Shape" fill="#FFFFFF"></path>
                <path d="M28.2061082,6.19192642 C24.4823259,6.19192642 22.4867077,7.83096576 22.342694,10.4412877 L25.9636095,10.4412877 C26.045903,9.34859479 26.7248246,8.8629535 28.2061082,8.8629535 C29.6050983,8.8629535 30.613194,9.67235565 30.613194,10.9876341 L30.613194,11.8779765 C30.613194,11.8779765 29.7902587,11.8779765 26.8894117,11.8779765 C23.2684963,11.8779765 21.643199,13.5979561 21.643199,16.3296883 C21.643199,19.0816556 23.3919366,20.7814001 26.4367973,20.7814001 C29.7491119,20.7814001 30.9217948,18.5150741 30.9217948,18.5150741 L30.9217948,20.4981094 L34.1106692,20.4981094 L34.1106692,11.3721002 C34.0695224,8.09402146 31.9298905,6.19192642 28.2061082,6.19192642 Z M30.7572077,15.9249872 C30.7572077,16.592744 29.8725522,17.8068472 27.6917736,17.8068472 C25.7167289,17.8068472 25.0995274,17.1997956 25.0995274,16.0666326 C25.0995274,14.8929995 25.778449,14.4275933 27.8357873,14.4275933 C29.7079652,14.4275933 30.7572077,14.4275933 30.7572077,14.4275933 C30.7572077,14.4275933 30.7572077,15.7226367 30.7572077,15.9249872 Z" id="Shape" fill="#FFFFFF"></path>
                <path d="M108.113128,16.4915687 C106.899299,16.4915687 105.93235,17.4628513 105.93235,18.6364844 C105.93235,19.8303526 106.919872,20.7814001 108.113128,20.7814001 C109.326958,20.7814001 110.293907,19.8101175 110.293907,18.6364844 C110.293907,17.4628513 109.326958,16.4915687 108.113128,16.4915687 Z" id="Shape" fill="#A0A0A0"></path>
                <g transform="translate(111.713470, 6.070516)" id="Shape" fill="#A0A0A0">
                    <path d="M6.27488184,0.121410322 C2.30421891,0.121410322 0.0411467662,2.14491569 0.0411467662,5.68605008 L0.0411467662,9.18671436 C0.0411467662,12.7278487 2.30421891,14.7513541 6.25430846,14.7513541 C10.1632512,14.7513541 12.4263234,12.7885539 12.4880435,9.36882984 L8.78483458,9.36882984 L8.78483458,9.47000511 C8.78483458,10.8864589 7.87960572,11.675626 6.23373507,11.675626 C4.62901119,11.675626 3.72378234,10.8662238 3.72378234,9.47000511 L3.72378234,5.40275933 C3.72378234,4.00654062 4.64958458,3.19713848 6.27488184,3.19713848 C7.87960572,3.19713848 8.78483458,4.00654062 8.78483458,5.40275933 L8.78483458,5.50393459 L12.4880435,5.50393459 C12.4263234,2.06397547 10.1632512,0.121410322 6.27488184,0.121410322 Z"></path>
                    <polygon points="14.4425149 14.4478283 26.045903 14.4478283 26.045903 11.3721002 18.8657923 11.3721002 26.045903 3.5816045 26.045903 0.384466019 14.4425149 0.384466019 14.4425149 3.46019417 21.6020522 3.46019417 14.4219415 11.2506898 14.4219415 14.4478283"></polygon>
                </g>
            </g>
        </g>
    </g>
</svg>