<?xml version="1.0" encoding="UTF-8"?>
<svg width="45px" height="38px" viewBox="0 0 45 38" version="1.1" xmlns="http://www.w3.org/2000/svg" xmlns:xlink="http://www.w3.org/1999/xlink">
    <!-- Generator: Sketch 45.1 (43504) - http://www.bohemiancoding.com/sketch -->
    <title>Group 2</title>
    <desc>Created with Sketch.</desc>
    <defs></defs>
    <g id="Mobil" stroke="none" stroke-width="1" fill="none" fill-rule="evenodd">
        <g id="Menu-Other" transform="translate(-115.000000, -75.000000)">
            <g id="Group-2" transform="translate(115.000000, 75.000000)">
                <path d="M0.34551497,18.7575749 C0.34551497,36.3376946 13.7183293,37.2512874 22.5265928,37.2512874 C31.335994,37.2512874 44.6906048,36.4776347 44.6906048,18.7575749 C44.6906048,1.0898503 32.9322216,0.280928144 22.5265928,0.280928144 C12.1641976,0.280928144 0.34551497,1.17631737 0.34551497,18.7575749 Z" id="Fill-13" fill="#D22121"></path>
                <path d="M36.9390599,18.6166108 L32.6259461,14.303497 C30.821515,12.4990659 29.0796587,10.412479 25.5356467,14.5208024 L33.2858263,22.2698443 L29.7315749,25.8240958 L18.1484012,14.2397844 C16.2552275,12.3466108 14.4246287,10.5137365 11.1320539,14.5310419 L26.0783413,29.4761916 L26.0783413,29.4773293 L22.5252275,33.0304431 L4.55031737,15.0555329 C14.3563653,1.17870659 19.0381018,7.89014371 22.1088204,11.1030778 C29.066006,3.77726946 32.2857665,6.68643114 36.5943293,11.1656527 L40.4910359,15.063497 L36.9390599,18.6166108 Z" id="Fill-14" fill="#FFFFFF"></path>
            </g>
        </g>
    </g>
</svg>