<?xml version="1.0" encoding="utf-8"?><svg version="1.1" id="Layer_1" xmlns="http://www.w3.org/2000/svg" xmlns:xlink="http://www.w3.org/1999/xlink" x="0px" y="0px" viewBox="0 0 850.4 595.3" style="enable-background:new 0 0 850.4 595.3" xml:space="preserve"><style type="text/css">.st0{fill:#D22121;}
	.st1{fill:#FFFFFF;}
	.st2{fill:#A0A0A0;}</style><path class="st1" d="M425.3 88.6c-78.6 0-168.2 6.8-168.2 140.1S358.5 369 425.3 369c66.8 0 168.1-5.9 168.1-140.3 0-133.9-89.2-140.1-168.1-140.1zm109.3 139.1L501.9 195c-13.7-13.7-26.9-29.5-53.8 1.6l58.8 58.8-27 27-87.9-87.9c-14.4-14.4-28.3-28.3-53.2 2.2l113.4 113.4-26.9 26.9-136.4-136.3c74.4-105.3 109.9-54.3 133.2-30 52.8-55.6 77.2-33.5 109.9.5l29.6 29.6-27 26.9zM269.4 509.9H287V464c0-3 .8-5.3 2.6-7 3.6-3.4 10.6-3.5 19.4-3.1v-14.1c-16.6-2.4-28.4-.2-34.2 6.5l-.2.3c-.1.1-5.1 5-5.2 17.3v46zm-101.5 0h17.6v-45.4c0-16.2-10.2-25.5-28.1-25.5-7.7 0-14 1.7-18.8 5l-.7.5-.7-.5c-4.8-3.3-11.1-5-18.5-5-18 0-28.2 9.3-28.2 25.5v45.4H108v-46.7c0-5.9 4-9.4 10.7-9.4 6.7 0 10.5 3.4 10.5 9.4v46.7h17.6v-46.7c0-5.9 4-9.4 10.7-9.4 6.7 0 10.5 3.4 10.5 9.4v46.7zm196.8 0h17.6v-69.5h-17.6v69.5zm73.7 0H456v-43.5c0-17.4-11-27.4-30.2-27.4-19.3 0-30.3 10-30.3 27.4v43.5h17.6V465c0-7 4.8-11.2 12.7-11.2 8 0 12.6 4.1 12.6 11.2v44.9zm28.2-69.6v43.5c0 17.4 11 27.4 30.2 27.4 19.3 0 30.3-10 30.3-27.4v-43.5h-17.6v44.9c0 7-4.8 11.2-12.7 11.2-8 0-12.6-4.1-12.6-11.2v-44.9h-17.6zm70.2 49.2v.8c0 13.5 10.5 20.9 29.5 20.9 13.5 0 29.6-3.8 29.6-21.9 0-10.2-7.2-17.3-20.2-20l-13.3-2.8c-5-1-7.4-3.1-7.4-6.5 0-4.7 3.8-7.1 11.4-7.1 2.8 0 11.2 0 11.2 7.5v.1h17.6v-.8c0-13.5-10.2-20.9-28.8-20.9-18.9 0-28.9 7.5-28.9 21.6 0 10.4 7.2 17.6 20.2 20.2l13.3 2.8c5 1 7.4 3.1 7.4 6.5 0 3.2-2.1 7.1-12.1 7.1-9.8 0-11.9-4.1-11.9-7.5v-.1h-17.6zM373.9 409c-5.9 0-10.6 4.8-10.6 10.6 0 5.9 4.8 10.6 10.6 10.6 5.9 0 10.6-4.8 10.6-10.6s-4.8-10.6-10.6-10.6zm-56.7 46.1v30.1c0 10.3 2.1 16.9 6.7 20.9 5.5 4.7 14.9 6 28.9 4V496c-7.9.4-12.9.3-15.6-2.2-1.7-1.6-2.4-4-2.4-7.8v-30.7h18v-14.8h-18.1v-21.1l-17.5 5v30.7zM227.5 439c-18.1 0-27.8 8.1-28.5 21h17.6c.4-5.4 3.7-7.8 10.9-7.8 6.8 0 11.7 4 11.7 10.5v4.4h-18.1c-17.6 0-25.5 8.5-25.5 22 0 13.6 8.5 22 23.3 22 16.1 0 21.8-11.2 21.8-11.2v9.8h15.5v-45.1c-.1-16.3-10.5-25.6-28.7-25.6zm12.4 48.1c0 3.3-4.3 9.3-14.9 9.3-9.6 0-12.6-3-12.6-8.6 0-5.8 3.3-8.1 13.3-8.1h14.2v7.4zm376 2.8c-5.9 0-10.6 4.8-10.6 10.6 0 5.9 4.8 10.6 10.6 10.6 5.9 0 10.6-4.8 10.6-10.6s-4.7-10.6-10.6-10.6zm48-51c-19.3 0-30.3 10-30.3 27.5v17.3c0 17.5 11 27.5 30.2 27.5 19 0 30-9.7 30.3-26.6h-18v.5c0 7-4.4 10.9-12.4 10.9-7.8 0-12.2-4-12.2-10.9V465c0-6.9 4.5-10.9 12.4-10.9 7.8 0 12.2 4 12.2 10.9v.5h18c-.3-16.9-11.3-26.6-30.2-26.6zm39.7 70.9H760v-15.2h-34.9l34.9-38.5v-15.8h-56.4v15.2h34.9L703.6 494v15.8z"/></svg>