<svg viewBox="0 0 161 38" xmlns="http://www.w3.org/2000/svg"><g data-name="Layer 2"><g data-name="Layer 1"><path class="cls-1" d="M83.74 26h3.7v-9.8a2.46 2.46 0 01.5-1.5c.8-.7 2.3-.7 4.1-.7v-3c-3.5-.5-6.1 0-7.3 1.4l-.1.1a5.35 5.35 0 00-1.1 3.7V26zM62 26h3.7v-9.7c0-3.5-2.2-5.4-6-5.4a7 7 0 00-4 1.1l-.2.1-.2-.1a7 7 0 00-4-1.1c-3.8 0-6 2-6 5.4V26H49V16c0-1.3.9-2 2.3-2s2.2.7 2.2 2v10h4V16c0-1.3.8-2 2.3-2s2.2.7 2.2 2zm42.04 0h3.7V11.2h-3.7V26zm15.7 0h3.7v-9.3c0-3.7-2.3-5.8-6.4-5.8s-6.5 2.1-6.5 5.8V26h3.8v-9.6c0-1.5 1-2.4 2.7-2.4s2.7.9 2.7 2.4zm6-14.8v9.3c0 3.7 2.3 5.8 6.4 5.8s6.5-2.1 6.5-5.8v-9.3h-3.7v9.6c0 1.5-1 2.4-2.7 2.4s-2.7-.9-2.7-2.4v-9.6zm15 10.4v.2c0 2.9 2.2 4.5 6.3 4.5 2.9 0 6.3-.8 6.3-4.7 0-2.2-1.5-3.7-4.3-4.3l-2.8-.6c-1.1-.2-1.6-.7-1.6-1.4q0-1.5 2.4-1.5c.6 0 2.4 0 2.4 1.6h3.8v-.2c0-2.9-2.2-4.5-6.1-4.5s-6.2 1.6-6.2 4.6c0 2.2 1.5 3.8 4.3 4.3l2.8.6c1.1.2 1.6.7 1.6 1.4s-.4 1.5-2.6 1.5-2.5-.9-2.5-1.6h-3.8zm-34.8-17.1a2.33 2.33 0 00-2.3 2.3 2.3 2.3 0 004.6 0 2.26 2.26 0 00-2.3-2.3m-12.1 9.8v6.4c0 2.2.5 3.6 1.4 4.5 1.2 1 3.2 1.3 6.2.8v-3c-1.7.1-2.7.1-3.3-.5-.4-.3-.5-.8-.5-1.7v-6.6h3.8V11h-3.9V6.7l-3.7 1.1v6.5zM77.44 20v1.2c0 .7-.9 2-3.2 2-2 0-2.7-.6-2.7-1.8s.7-1.7 2.8-1.7h3v.3zm-2.7-9.1c-3.9 0-5.9 1.7-6.1 4.5h3.8c.1-1.2.8-1.7 2.3-1.7a2.3 2.3 0 012.5 2.2v.9h-3.9c-3.8 0-5.4 1.8-5.4 4.7s1.8 4.7 5 4.7c2.1 0 3.7-.7 4.5-2l.1-.3v1.9h3.3v-9.6c0-3.3-2.2-5.3-6.1-5.3z"/><path d="M10.14 9.7a7.07 7.07 0 019.1 4.5 7.15 7.15 0 01-4.5 9.1 8.42 8.42 0 01-2.7.4l-1.3 2.7-2.2.8 1 3-3 1 1 3L3 35.7l-1.3-3.8L7 21.1a9.46 9.46 0 01-1.4-2.4 7.17 7.17 0 014.5-9m-.5-1.5a8.83 8.83 0 00-5.5 11.2 7.5 7.5 0 001 2l-5 10.1a1.41 1.41 0 00-.1.9l1.5 4.4a1.24 1.24 0 001.5.8l5.3-1.8a1.24 1.24 0 00.8-1.5l-.6-2 1.9-.6a1.24 1.24 0 00.8-1.5l-.7-2 .9-.3a1.06 1.06 0 00.7-.6l1-2a14.35 14.35 0 002.2-.4A8.82 8.82 0 009.64 8.2zm4 4.4a1 1 0 11-.6 1.3 1 1 0 01.6-1.3m-.4-1.3a2.35 2.35 0 00-1.5 3 2.43 2.43 0 003 1.5 2.35 2.35 0 001.5-3 2.27 2.27 0 00-2.96-1.5z" fill="#d22121"/><path class="cls-3" d="M25 11.3a8 8 0 00-5.6-2.8.27.27 0 00-.2.4 10.58 10.58 0 01-3.8 17.8l.1 7.4a1.14 1.14 0 00.3.8l2.5 2.5a1.09 1.09 0 001.5 0l3.5-3.6a1.09 1.09 0 000-1.5l-1.1-1.5 1.3-1.3a1.09 1.09 0 000-1.5l-1.3-1.3 1.2-1.2a1.14 1.14 0 00.3-.8l-.2-1.7a5.78 5.78 0 002-2.1 7.82 7.82 0 00-.5-9.6z"/><path class="cls-3" d="M26.74 10.5h-.1a.78.78 0 01-.6-.9 3.4 3.4 0 00.1-1 6.92 6.92 0 00-6.7-7.1 6.78 6.78 0 00-6.7 4.6.79.79 0 01-1.5-.5 8.45 8.45 0 0116.4 3.1c0 .4-.1.9-.1 1.3a1 1 0 01-.8.5z"/><path d="M32.64 27.7l-1.4-.7.7-1.4a1.05 1.05 0 00-.4-1.3l-1.4-.7.7-1.3a1.1 1.1 0 000-.8l-.6-1.3a4.13 4.13 0 00.7-1.1 7 7 0 00-1.2-7.9.67.67 0 00-1 0 6.47 6.47 0 01-.9.8.57.57 0 00-.2.7 10 10 0 01.8 3.8 9.61 9.61 0 01-3.3 7.2.86.86 0 00-.3.6 2 2 0 01-.2 1.2.64.64 0 000 .6l1.9 5.5a2.65 2.65 0 00.5.6l2.8 1.4a1.05 1.05 0 001.3-.4l2-4c.2-.7 0-1.3-.5-1.5z" fill="#828282"/></g></g></svg>