<svg height="512" viewBox="0 0 64 64" width="512" xmlns="http://www.w3.org/2000/svg"><g id="avatar-man-boy-people-user-2" data-name="avatar-man-boy-people-user"><path d="m29 23a3 3 0 0 0 -6 0h2a1 1 0 0 1 2 0z"/><path d="m37 23a1 1 0 0 1 2 0h2a3 3 0 0 0 -6 0z"/><path d="m49.29 43.46-12.29-3.23v-3.23a13.022 13.022 0 0 0 7.84-10.08 4.975 4.975 0 0 0 1.63-9.24c.03-.07.06-.13.09-.19a4.047 4.047 0 0 0 3.51-1.99 3.962 3.962 0 0 0 -.04-4.02 4.27 4.27 0 0 0 .3-.44 3.989 3.989 0 0 0 -4.07-5.95 3.983 3.983 0 0 0 -4.76-2.42 3.9 3.9 0 0 0 -2.21 1.57 12.983 12.983 0 0 0 -14.58 0 3.971 3.971 0 0 0 -6.97.85 3.931 3.931 0 0 0 -2.61.49 4.007 4.007 0 0 0 -1.45 5.47 4.048 4.048 0 0 0 .29.43 3.962 3.962 0 0 0 -.03 4.02 4.031 4.031 0 0 0 3.5 1.99c.03.06.06.12.09.19a4.972 4.972 0 0 0 -1.06 7.86 5.053 5.053 0 0 0 2.69 1.38 13.037 13.037 0 0 0 7.84 10.08v3.23l-12.3 3.23a9.03 9.03 0 0 0 -6.7 8.71v8.83a1 1 0 0 0 1 1h46a1 1 0 0 0 1-1v-8.83a9.028 9.028 0 0 0 -6.71-8.71zm-2.29-21.46a3.022 3.022 0 0 1 -.87 2.12 2.951 2.951 0 0 1 -1.13.69v-5.63a3.01 3.01 0 0 1 2 2.82zm-4.98-17.4a2.007 2.007 0 0 1 2.51 1.83 1.055 1.055 0 0 0 .5.8 1.039 1.039 0 0 0 .94.03 1.973 1.973 0 0 1 1.9.05 2 2 0 0 1 .73 2.72 1.943 1.943 0 0 1 -.52.59 1.021 1.021 0 0 0 -.37.73 1 1 0 0 0 .3.76 1.986 1.986 0 0 1 .33 2.39 2.019 2.019 0 0 1 -2.25.92.968.968 0 0 0 -.81.13.833.833 0 0 0 -.28.28v-.83a12.985 12.985 0 0 0 -4.16-9.51 2 2 0 0 1 1.18-.89zm-23.02 20.22a3.179 3.179 0 0 1 -1.12-.69 3 3 0 0 1 1.12-4.95zm0-9.82v.83a.833.833 0 0 0 -.28-.28.973.973 0 0 0 -.81-.13 2.006 2.006 0 0 1 -2.24-.92 1.97 1.97 0 0 1 .32-2.39 1 1 0 0 0 .3-.76 1.021 1.021 0 0 0 -.37-.73 1.858 1.858 0 0 1 -.51-.58 2 2 0 0 1 .72-2.73 1.973 1.973 0 0 1 1.9-.05 1.01 1.01 0 0 0 .94-.03 1.055 1.055 0 0 0 .5-.8 1.985 1.985 0 0 1 3.69-.93 12.946 12.946 0 0 0 -4.16 9.5zm2 10v-10a11 11 0 0 1 22 0v10a11 11 0 0 1 -22 0zm14 12.64v3.36a3 3 0 0 1 -6 0v-3.36a12.68 12.68 0 0 0 6 0zm-12 11.36v11h-13v-7.83a7.008 7.008 0 0 1 5.21-6.77l11.97-3.15a4.993 4.993 0 0 0 2.15 2.96l-5.78 2.9a.988.988 0 0 0 -.55.89zm31 11h-29v-10.38l7.3-3.65a4.965 4.965 0 0 0 4.52-3.72l11.96 3.15a7.006 7.006 0 0 1 5.22 6.77z"/><path d="m27 52h2v2h-2z"/><path d="m27 56h2v2h-2z"/><path d="m37 52h8v2h-8z"/><path d="m29 16h6v2h-6z"/><path d="m30 12h4v2h-4z"/><path d="m37 29h-2c0 .249-1.064 1-3 1s-3-.751-3-1h-2c0 1.71 2.149 3 5 3s5-1.29 5-3z"/></g></svg>