<?xml version="1.0" encoding="UTF-8"?>
<svg xmlns="http://www.w3.org/2000/svg" viewBox="0 0 64 64" width="512" height="512"><g id="man-user-people-boy-avatar"><path d="M29,23a3,3,0,0,0-6,0h2a1,1,0,0,1,2,0Z"/><path d="M38,22a1,1,0,0,1,1,1h2a3,3,0,0,0-6,0h2A1,1,0,0,1,38,22Z"/><path d="M49.29,43.46,37,40.23V37a13.022,13.022,0,0,0,7.84-10.08A4.967,4.967,0,0,0,48,19.03V18a16,16,0,0,0-32,0v1.03A4.939,4.939,0,0,0,15,22a4.982,4.982,0,0,0,4.16,4.92A13.037,13.037,0,0,0,27,37v3.23L14.7,43.46A9.03,9.03,0,0,0,8,52.17V61a1,1,0,0,0,1,1H55a1,1,0,0,0,1-1V52.17A9.028,9.028,0,0,0,49.29,43.46ZM41,43.88l3.52,5.64L41,50.92ZM47,22a3.022,3.022,0,0,1-.87,2.12,2.951,2.951,0,0,1-1.13.69V19.18A3.01,3.01,0,0,1,47,22ZM19,24.82a3.179,3.179,0,0,1-1.12-.69A3,3,0,0,1,19,19.18Zm-.97-7.41a13.973,13.973,0,0,1,23.86-9.3,13.808,13.808,0,0,1,4.08,9.3,4.738,4.738,0,0,0-1.6-.37l-6.79-4.85a1.015,1.015,0,0,0-.86-.15L19.78,17.02A4.859,4.859,0,0,0,18.03,17.41ZM21,25V18.75L36.82,14.1,43,18.51V25a11,11,0,0,1-22,0ZM10,60V52.17a7.008,7.008,0,0,1,5.21-6.77l5.37-1.41-3.43,5.48a1.032,1.032,0,0,0-.1.84.99.99,0,0,0,.58.62l3.41,1.36-3.66,2.93a.981.981,0,0,0-.38.77,1.013,1.013,0,0,0,.36.78L21.24,60Zm13-1.13-3.42-2.85L23,53.28Zm0-7.95-3.52-1.4L23,43.88ZM39,60H25V46.67A17.758,17.758,0,0,0,32,48a17.758,17.758,0,0,0,7-1.33Zm0-15.57A14.846,14.846,0,0,1,32,46a14.846,14.846,0,0,1-7-1.57V42.82l3.25-.85A1.014,1.014,0,0,0,29,41V37.64a12.68,12.68,0,0,0,6,0V41a1.014,1.014,0,0,0,.75.97l3.25.85Zm2,8.85,3.42,2.74L41,58.87ZM54,60H42.76l3.88-3.23a1.013,1.013,0,0,0,.36-.78.981.981,0,0,0-.38-.77l-3.66-2.93,3.41-1.36a.99.99,0,0,0,.58-.62,1.032,1.032,0,0,0-.1-.84l-3.43-5.48,5.36,1.41A7.006,7.006,0,0,1,54,52.17Z"/><path d="M37,29H35c0,.249-1.064,1-3,1s-3-.751-3-1H27c0,1.71,2.149,3,5,3S37,30.71,37,29Z"/></g></svg>
