<?xml version="1.0" encoding="UTF-8" standalone="no"?>
<!DOCTYPE svg PUBLIC "-//W3C//DTD SVG 1.1//EN" "http://www.w3.org/Graphics/SVG/1.1/DTD/svg11.dtd">
<svg width="100%" height="100%" viewBox="0 0 64 64" version="1.1" xmlns="http://www.w3.org/2000/svg" xmlns:xlink="http://www.w3.org/1999/xlink" xml:space="preserve" style="fill-rule:evenodd;clip-rule:evenodd;">
    <g transform="matrix(1,0,0,1,8,19)">
        <path id="a" d="M6,0L27,0C30.314,0 33,2.686 33,6L33,16C33,19.314 30.314,22 27,22L6,22C2.686,22 0,19.314 0,16L0,6C0,2.686 2.686,0 6,0L6,0Z" style="fill:white;"/>
        <path d="M27.077,0C27.78,0.014 28.474,0.14 29.132,0.39C29.787,0.639 30.397,1.004 30.927,1.463C31.582,2.031 32.112,2.74 32.47,3.53C32.799,4.26 32.973,5.046 32.998,5.846C33.063,9.281 33.063,12.719 32.998,16.154C32.976,16.854 32.844,17.552 32.582,18.203C32.42,18.607 32.219,18.994 31.975,19.355C31.354,20.274 30.48,21.013 29.47,21.47C28.74,21.799 27.954,21.973 27.154,21.998C20.053,22.133 12.947,22.133 5.846,21.998C5.046,21.973 4.26,21.799 3.53,21.47C2.52,21.013 1.646,20.274 1.025,19.355C0.781,18.994 0.58,18.607 0.418,18.203C0.156,17.552 0.024,16.854 0.002,16.154C-0.063,12.719 -0.063,9.281 0.002,5.846C0.024,5.146 0.156,4.448 0.418,3.797C0.58,3.393 0.781,3.006 1.025,2.645C1.646,1.726 2.52,0.987 3.53,0.53C4.26,0.201 5.046,0.027 5.846,0.002C12.922,-0.133 20,-0.044 27.077,0ZM6.003,2C5.467,2.003 4.938,2.105 4.443,2.314C3.446,2.736 2.644,3.567 2.26,4.579C2.093,5.017 2.009,5.48 2,5.948C1.979,9.333 1.937,12.719 2.001,16.104C2.018,16.636 2.133,17.16 2.353,17.646C2.785,18.602 3.597,19.368 4.579,19.74C5.017,19.907 5.48,19.991 5.948,20C13,20.044 20.053,20.133 27.104,19.999C27.636,19.982 28.16,19.867 28.646,19.647C29.602,19.215 30.368,18.403 30.74,17.421C30.907,16.983 30.991,16.52 31,16.052C31.021,12.667 31.063,9.281 30.999,5.896C30.982,5.364 30.867,4.84 30.647,4.354C30.215,3.398 29.403,2.632 28.421,2.26C27.983,2.093 27.52,2.009 27.052,2C20.036,1.956 13.019,2 6.003,2Z" style="fill:rgb(98,93,88);fill-rule:nonzero;"/>
        <g transform="matrix(1,0,0,-1,0,51)">
            <path d="M5.5,24L27.5,24C28.328,24 29,24.672 29,25.5C29,26.328 28.328,27 27.5,27L5.5,27C4.672,27 4,26.328 4,25.5C4,24.672 4.672,24 5.5,24Z" style="fill:rgb(222,222,222);"/>
        </g>
        <path id="b" d="M6,4L9,4C10.105,4 11,4.895 11,6L11,8C11,9.105 10.105,10 9,10L6,10C4.895,10 4,9.105 4,8L4,6C4,4.895 4.895,4 6,4Z" style="fill:rgb(222,222,222);"/>
        <path d="M9.102,4.002C9.303,4.018 9.498,4.052 9.688,4.121C10.204,4.31 10.628,4.714 10.843,5.221C10.907,5.373 10.952,5.533 10.977,5.697C10.991,5.786 10.991,5.808 10.998,5.898C11.016,6.603 11,7.308 11,8.013C10.995,8.211 10.969,8.405 10.91,8.594C10.737,9.152 10.317,9.615 9.779,9.843C9.627,9.907 9.467,9.952 9.303,9.977C9.214,9.991 9.192,9.991 9.102,9.998C8.064,10.024 7.026,10 5.987,10C5.789,9.995 5.595,9.969 5.406,9.91C4.848,9.737 4.385,9.317 4.157,8.779C4.093,8.627 4.048,8.467 4.023,8.303C4.009,8.214 4.009,8.192 4.002,8.102C3.984,7.397 4,6.692 4,5.987C4.005,5.789 4.031,5.595 4.09,5.406C4.263,4.848 4.683,4.385 5.221,4.157C5.373,4.093 5.533,4.048 5.697,4.023C5.786,4.009 5.808,4.009 5.898,4.002C6.966,3.975 8.034,3.975 9.102,4.002ZM6.013,6L6,6C5.984,6.662 6,7.325 6,7.987L6,8C6.996,8.025 7.992,8 8.987,8L9,8C9.016,7.338 9,6.675 9,6.013L9,6C8.004,5.975 7.008,6 6.013,6Z" style="fill:rgb(98,93,88);fill-rule:nonzero;"/>
        <path d="M12.09,15.004C12.169,15.015 12.189,15.015 12.266,15.036C12.469,15.092 12.651,15.212 12.782,15.377C12.856,15.47 12.914,15.577 12.951,15.691C13.073,16.068 12.956,16.492 12.658,16.753C12.59,16.812 12.515,16.862 12.434,16.901C12.326,16.953 12.209,16.985 12.09,16.996C12.06,16.999 12.03,16.999 12,17L6,17C5.97,16.999 5.94,16.999 5.91,16.996C5.791,16.985 5.674,16.953 5.566,16.901C5.458,16.849 5.36,16.778 5.277,16.691C5.003,16.405 4.925,15.971 5.08,15.607C5.128,15.497 5.194,15.395 5.277,15.309C5.422,15.157 5.615,15.054 5.821,15.016C5.9,15.002 5.92,15.004 6,15C8.03,15 10.062,14.913 12.09,15.004ZM21.09,15.004C21.169,15.015 21.189,15.015 21.266,15.036C21.469,15.092 21.651,15.212 21.782,15.377C21.856,15.47 21.914,15.577 21.951,15.691C21.979,15.776 21.995,15.865 21.999,15.955C22.017,16.351 21.791,16.729 21.434,16.901C21.326,16.953 21.209,16.985 21.09,16.996C21.06,16.999 21.03,16.999 21,17L15,17C14.97,16.999 14.94,16.999 14.91,16.996C14.791,16.985 14.674,16.953 14.566,16.901C14.209,16.729 13.983,16.351 14.001,15.955C14.006,15.836 14.033,15.717 14.08,15.607C14.128,15.497 14.194,15.395 14.277,15.309C14.422,15.157 14.615,15.054 14.821,15.016C14.9,15.002 14.92,15.004 15,15C17.03,15 19.062,14.913 21.09,15.004ZM27.09,15.004C27.119,15.008 27.149,15.011 27.179,15.016C27.296,15.037 27.41,15.08 27.513,15.142C27.853,15.345 28.044,15.742 27.991,16.134C27.979,16.223 27.955,16.31 27.92,16.393C27.872,16.503 27.806,16.605 27.723,16.691C27.578,16.843 27.385,16.946 27.179,16.984C27.1,16.998 27.08,16.996 27,17L24,17C23.97,16.999 23.94,16.999 23.91,16.996C23.791,16.985 23.674,16.953 23.566,16.901C23.458,16.849 23.36,16.778 23.277,16.691C23.003,16.405 22.925,15.971 23.08,15.607C23.128,15.497 23.194,15.395 23.277,15.309C23.422,15.157 23.615,15.054 23.821,15.016C23.9,15.002 23.92,15.004 24,15C25.03,15 26.061,14.958 27.09,15.004ZM9.09,12.004C9.169,12.015 9.189,12.015 9.266,12.036C9.469,12.092 9.651,12.212 9.782,12.377C10.029,12.686 10.068,13.125 9.881,13.474C9.838,13.553 9.785,13.626 9.723,13.691C9.64,13.778 9.542,13.849 9.434,13.901C9.326,13.953 9.209,13.985 9.09,13.996C9.06,13.999 9.03,13.999 9,14L6,14C5.92,13.996 5.9,13.998 5.821,13.984C5.615,13.946 5.422,13.843 5.277,13.691C5.003,13.405 4.925,12.971 5.08,12.607C5.128,12.497 5.194,12.395 5.277,12.309C5.36,12.222 5.458,12.151 5.566,12.099C5.674,12.047 5.791,12.015 5.91,12.004C5.94,12.001 5.97,12.001 6,12C7.03,12 8.061,11.958 9.09,12.004ZM15.09,12.004C15.119,12.008 15.149,12.011 15.179,12.016C15.296,12.037 15.41,12.08 15.513,12.142C15.59,12.188 15.661,12.244 15.723,12.309C15.997,12.595 16.075,13.029 15.92,13.393C15.872,13.503 15.806,13.605 15.723,13.691C15.578,13.843 15.385,13.946 15.179,13.984C15.1,13.998 15.08,13.996 15,14L12,14C11.97,13.999 11.94,13.999 11.91,13.996C11.791,13.985 11.674,13.953 11.566,13.901C11.458,13.849 11.36,13.778 11.277,13.691C11.003,13.405 10.925,12.971 11.08,12.607C11.128,12.497 11.194,12.395 11.277,12.309C11.422,12.157 11.615,12.054 11.821,12.016C11.9,12.002 11.92,12.004 12,12C13.03,12 14.061,11.958 15.09,12.004ZM21.09,12.004C21.119,12.008 21.149,12.011 21.179,12.016C21.296,12.037 21.41,12.08 21.513,12.142C21.59,12.188 21.661,12.244 21.723,12.309C21.997,12.595 22.075,13.029 21.92,13.393C21.872,13.503 21.806,13.605 21.723,13.691C21.578,13.843 21.385,13.946 21.179,13.984C21.1,13.998 21.08,13.996 21,14L18,14C17.97,13.999 17.94,13.999 17.91,13.996C17.791,13.985 17.674,13.953 17.566,13.901C17.209,13.729 16.983,13.351 17.001,12.955C17.006,12.836 17.033,12.717 17.08,12.607C17.128,12.497 17.194,12.395 17.277,12.309C17.422,12.157 17.615,12.054 17.821,12.016C17.9,12.002 17.92,12.004 18,12C19.03,12 20.061,11.958 21.09,12.004ZM27.09,12.004C27.169,12.015 27.189,12.015 27.266,12.036C27.469,12.092 27.651,12.212 27.782,12.377C27.856,12.47 27.914,12.577 27.951,12.691C27.979,12.776 27.995,12.865 27.999,12.955C28.017,13.351 27.791,13.729 27.434,13.901C27.326,13.953 27.209,13.985 27.09,13.996C27.06,13.999 27.03,13.999 27,14L24,14C23.97,13.999 23.94,13.999 23.91,13.996C23.791,13.985 23.674,13.953 23.566,13.901C23.209,13.729 22.983,13.351 23.001,12.955C23.006,12.836 23.033,12.717 23.08,12.607C23.128,12.497 23.194,12.395 23.277,12.309C23.422,12.157 23.615,12.054 23.821,12.016C23.9,12.002 23.92,12.004 24,12C25.03,12 26.061,11.958 27.09,12.004Z" style="fill:rgb(98,93,88);fill-rule:nonzero;"/>
        <g transform="matrix(1,0,0,1,35,10)">
            <path id="c" d="M0.014,8L0,12.281C0.237,14.419 3.056,16.109 6.5,16.109C9.944,16.109 12.763,14.419 12.986,12.281L13,8" style="fill:rgb(222,222,222);"/>
            <path d="M1.011,9L1,12.221C1.216,13.743 3.556,15.109 6.5,15.109C9.448,15.109 11.786,13.74 11.986,12.222L11.997,9L1.011,9Z" style="fill:none;stroke:rgb(98,93,88);stroke-width:2px;"/>
            <path id="d" d="M0.014,4L0,8.281C0.237,10.419 3.056,12.109 6.5,12.109C9.944,12.109 12.763,10.419 12.986,8.281L13,4" style="fill:rgb(222,222,222);"/>
            <path d="M1.011,5L1,8.221C1.216,9.743 3.556,11.109 6.5,11.109C9.448,11.109 11.786,9.74 11.986,8.222L11.997,5L1.011,5Z" style="fill:none;stroke:rgb(98,93,88);stroke-width:2px;"/>
            <g>
                <ellipse id="e" cx="6.5" cy="4.102" rx="6.5" ry="4.102" style="fill:white;"/>
                <ellipse cx="6.5" cy="4.102" rx="5.5" ry="3.102" style="fill:none;stroke:rgb(98,93,88);stroke-width:2px;"/>
            </g>
        </g>
    </g>
</svg>
