<?xml version="1.0" encoding="UTF-8" standalone="no"?>
<!DOCTYPE svg PUBLIC "-//W3C//DTD SVG 1.1//EN" "http://www.w3.org/Graphics/SVG/1.1/DTD/svg11.dtd">
<svg width="100%" height="100%" viewBox="0 0 64 64" version="1.1" xmlns="http://www.w3.org/2000/svg" xmlns:xlink="http://www.w3.org/1999/xlink" xml:space="preserve" style="fill-rule:evenodd;clip-rule:evenodd;stroke-linejoin:round;stroke-miterlimit:1.41421;">
    <g>
        <path d="M19,33L19,18C19,17.448 19.448,17 20,17L39,17C39.552,17 40,17.448 40,18L40,33" style="fill:rgb(222,222,222);"/>
        <path d="M39,34L41,34C41,34 39,34 39,34L39,34Z" style="fill:rgb(98,93,88);"/>
        <path d="M20,32L18,32L18,17.987L18.002,17.898C18.009,17.808 18.009,17.786 18.023,17.697C18.048,17.533 18.093,17.373 18.157,17.221C18.372,16.714 18.796,16.31 19.312,16.121C19.502,16.052 19.697,16.018 19.898,16.002C26.297,15.84 32.703,15.84 39.102,16.002C39.192,16.009 39.214,16.009 39.303,16.023C39.467,16.048 39.627,16.093 39.779,16.157C40.317,16.385 40.737,16.848 40.91,17.406C40.969,17.595 40.995,17.789 41,17.987L41,22L39,22L39,18.013L39,18C32.673,17.84 26.342,18 20.013,18L20,18L20,18.013L20,32Z" style="fill:rgb(98,93,88);"/>
        <path d="M41,32L41,27.556L41,24L41,32Z" style="fill:rgb(98,93,88);"/>
        <path d="M46.291,42.042C45.558,42.121 45,42.746 45,43.5C45,43.707 45.042,43.904 45.137,44.111L44.825,44.116L44.104,44.115L44.02,43.819C43.983,43.525 43.997,43.224 44.064,42.935L44.488,42.054L46.291,42.042Z" style="fill:rgb(98,93,88);"/>
        <path d="M46.696,42.04L48.497,42.028C48.752,42.349 48.91,42.722 48.971,43.119C49.013,43.391 49.009,43.671 48.961,43.943L48.922,44.057L47.884,44.072L48,43.5C48,42.738 47.43,42.107 46.696,42.04Z" style="fill:rgb(98,93,88);"/>
        <path d="M42.052,42.816L42.052,44.111L36.546,44.103L30.948,44.068L30.948,42.816L30.73,42.113L36.493,42.104L39.01,42.088L39.027,42.231C39.072,42.42 39.172,42.594 39.314,42.727C39.398,42.807 39.497,42.872 39.604,42.918C39.785,42.996 39.984,43.016 40.173,42.983L40.686,42.727C40.771,42.647 40.841,42.553 40.894,42.449C40.946,42.345 40.98,42.232 40.993,42.116L40.996,42.076L42.284,42.067L42.052,42.816Z" style="fill:rgb(98,93,88);"/>
        <path d="M28.246,42.117L28.571,42.116L28.971,43.119C29.013,43.391 29.009,43.671 28.961,43.943L28.923,44.056L24.079,44.026L24.02,43.819C23.983,43.525 23.997,43.224 24.064,42.935L24.483,42.063L28.246,42.117Z" style="fill:rgb(98,93,88);"/>
        <path d="M51.803,33.102C52.236,33.432 52.639,33.799 52.999,34.208C53.838,35.159 54.445,36.308 54.756,37.538C54.909,38.142 54.985,38.76 54.999,39.382C55.006,40.259 55,41.136 55,42.013C54.995,42.211 54.969,42.405 54.91,42.594C54.737,43.152 54.317,43.615 53.779,43.843C53.627,43.907 53.467,43.952 53.303,43.977C53.214,43.991 53.192,43.991 53.102,43.998L50.948,44.028L50.948,42.816L50.7,42.014L52.987,42L53,42C53.022,41.137 53.006,40.274 52.999,39.412C52.997,39.323 52.994,39.235 52.99,39.147C52.965,38.77 52.91,38.396 52.817,38.028C52.598,37.163 52.184,36.349 51.612,35.662C51.312,35.302 50.97,34.982 50.597,34.698L49.667,34L51.101,34L50.494,32.121L51.803,33.102Z" style="fill:rgb(98,93,88);"/>
        <path d="M18,34L20,34L20,41.987L20,42L22.295,42.032L22.052,42.816L22.052,44.013L19.987,44C19.756,43.994 19.53,43.958 19.312,43.879C18.764,43.678 18.322,43.236 18.121,42.688C18.042,42.47 18.006,42.244 18,42.013L18,32L18,34Z" style="fill:rgb(98,93,88);"/>
        <rect x="20" y="32" width="19" height="2" style="fill:rgb(98,93,88);"/>
        <path d="M20,34L18,34L18,32L20,32L20,34Z" style="fill:rgb(98,93,88);"/>
        <path d="M41,22L44.397,22.001C44.796,22.013 45.189,22.076 45.568,22.201C46.433,22.486 47.187,23.07 47.68,23.836C47.867,24.126 48.012,24.439 48.121,24.767L50.494,32.121L50.333,32L48.354,32L46.193,25.309C46.169,25.246 46.143,25.185 46.114,25.124C46.044,24.983 45.96,24.85 45.86,24.728C45.612,24.428 45.277,24.203 44.904,24.088C44.739,24.038 44.569,24.01 44.397,24.002L41,24L41,22Z" style="fill:rgb(98,93,88);"/>
        <path d="M39,22L39,32C39,32 39,22 39,22L39,22Z" style="fill:rgb(98,93,88);"/>
        <path d="M39,34L41,34C41,34 39,34 39,34L39,34Z" style="fill:rgb(98,93,88);"/>
        <path d="M41,32L39,32L39,22L41,22L41,32Z" style="fill:rgb(98,93,88);"/>
        <path d="M41,24L41,27.556L41,24L41,24Z" style="fill:rgb(98,93,88);"/>
        <path d="M50.494,32.121L51.101,34L49.667,34C49.667,34 44.885,34 44.885,34L41,34L41,32L44.613,32L45.051,33.316L45.094,33.424C45.144,33.53 45.212,33.626 45.294,33.708C45.434,33.848 45.612,33.939 45.8,33.978L46.371,33.929C46.479,33.886 46.579,33.823 46.666,33.746C46.753,33.668 46.826,33.576 46.881,33.473C46.973,33.302 47.013,33.105 46.996,32.911C46.987,32.808 46.976,32.783 46.949,32.684L46.721,32L50.333,32L50.494,32.121Z" style="fill:rgb(98,93,88);"/>
        <path d="M49.667,34C49.667,34 44.885,34 44.885,34C44.885,34 49.667,34 49.667,34L49.667,34Z" style="fill:rgb(98,93,88);"/>
        <path d="M39,32L39,34C39,34 39,32 39,32L39,32Z" style="fill:rgb(98,93,88);"/>
        <path d="M41,32L41,34L39,34L39,32L41,32Z" style="fill:rgb(98,93,88);"/>
        <circle id="a" cx="26.5" cy="43.5" r="4.5" style="fill:rgb(222,222,222);"/>
        <path d="M22.052,44.013L24.079,44.026L24.221,44.528C24.345,44.802 24.52,45.054 24.733,45.267C24.946,45.481 25.198,45.655 25.472,45.779C25.775,45.916 26.104,45.991 26.435,45.999C26.769,46.008 27.105,45.95 27.416,45.827C27.697,45.716 27.957,45.553 28.18,45.35C28.403,45.148 28.589,44.905 28.727,44.637L28.923,44.056L30.948,44.068L30.948,44.184C30.881,44.623 30.748,45.051 30.555,45.451C30.32,45.939 29.996,46.383 29.604,46.757C29.212,47.131 28.751,47.434 28.252,47.646C27.699,47.88 27.1,48 26.5,48C25.9,48 25.301,47.88 24.748,47.646C24.249,47.434 23.788,47.131 23.396,46.757C23.004,46.383 22.68,45.939 22.445,45.451C22.252,45.051 22.119,44.623 22.052,44.184L22.052,44.013Z" style="fill:rgb(98,93,88);"/>
        <path d="M28.571,42.116C28.348,41.779 28.069,41.519 27.743,41.331C27.42,41.145 27.063,41.04 26.693,41.007C26.607,41.002 26.521,41 26.435,41.001C26.061,41.015 25.697,41.102 25.363,41.273C25.003,41.458 24.693,41.73 24.483,42.063L22.295,42.032L22.445,41.549C22.869,40.669 23.581,39.939 24.451,39.493C24.879,39.274 25.341,39.124 25.816,39.052C26.005,39.023 26.194,39.009 26.384,39.001C26.5,39 26.5,39 26.616,39.001C26.806,39.009 26.995,39.023 27.184,39.052C27.659,39.124 28.121,39.274 28.549,39.493C29.419,39.939 30.131,40.669 30.555,41.549L30.73,42.113L28.571,42.116Z" style="fill:rgb(98,93,88);"/>
        <path d="M30.948,42.816L30.948,44.068L28.923,44.056L28.961,43.943C29.009,43.671 29.013,43.391 28.971,43.119L28.571,42.116L30.73,42.113L30.948,42.816Z" style="fill:rgb(98,93,88);"/>
        <path d="M24.483,42.063L24.064,42.935C23.997,43.224 23.983,43.525 24.02,43.819L24.079,44.026L22.052,44.013L22.052,42.816L22.295,42.032L24.483,42.063Z" style="fill:rgb(98,93,88);"/>
        <circle cx="26.5" cy="43.5" r="1.5" style="fill:rgb(98,93,88);"/>
        <circle id="b" cx="46.5" cy="43.5" r="4.5" style="fill:rgb(222,222,222);"/>
        <path d="M50.948,44.184C50.881,44.623 50.748,45.051 50.555,45.451C50.32,45.939 49.996,46.383 49.604,46.757C49.212,47.131 48.751,47.434 48.252,47.646C47.699,47.88 47.1,48 46.5,48C45.9,48 45.301,47.88 44.748,47.646C44.249,47.434 43.788,47.131 43.396,46.757C43.004,46.383 42.68,45.939 42.445,45.451C42.252,45.051 42.119,44.623 42.052,44.184L42.052,44.111L44.104,44.115L44.221,44.528C44.345,44.802 44.52,45.054 44.733,45.267C44.946,45.481 45.198,45.655 45.472,45.779C45.775,45.916 46.104,45.991 46.435,45.999C46.769,46.008 47.105,45.95 47.416,45.827C47.697,45.716 47.957,45.553 48.18,45.35C48.403,45.148 48.589,44.905 48.727,44.637L48.922,44.057L50.948,44.028L50.948,44.184Z" style="fill:rgb(98,93,88);"/>
        <path d="M42.284,42.067L42.445,41.549C42.869,40.669 43.581,39.939 44.451,39.493C44.879,39.274 45.341,39.124 45.816,39.052C46.005,39.023 46.194,39.009 46.384,39.001C46.5,39 46.5,39 46.616,39.001C46.806,39.009 46.995,39.023 47.184,39.052C47.659,39.124 48.121,39.274 48.549,39.493C49.419,39.939 50.131,40.669 50.555,41.549L50.7,42.014L48.497,42.028L47.743,41.331C47.42,41.145 47.063,41.04 46.693,41.007C46.607,41.002 46.521,41 46.435,41.001C46.061,41.015 45.697,41.102 45.363,41.273C45.183,41.366 45.015,41.48 44.867,41.611L44.488,42.054L42.284,42.067Z" style="fill:rgb(98,93,88);"/>
        <path d="M44.064,42.935C43.997,43.224 43.983,43.525 44.02,43.819L44.104,44.115L42.052,44.111L42.052,42.816L42.284,42.067L44.488,42.054L44.064,42.935Z" style="fill:rgb(98,93,88);"/>
        <path d="M50.948,42.816L50.948,44.028L48.922,44.057L48.961,43.943C49.009,43.671 49.013,43.391 48.971,43.119C48.91,42.722 48.752,42.349 48.497,42.028L50.7,42.014L50.948,42.816Z" style="fill:rgb(98,93,88);"/>
        <path d="M47.884,44.072C47.66,44.618 47.124,45 46.5,45C45.879,45 45.346,44.622 45.137,44.111L47.884,44.072Z" style="fill:rgb(98,93,88);"/>
        <path d="M46.696,42.04L46.291,42.042L46.5,42L46.696,42.04Z" style="fill:rgb(98,93,88);"/>
        <path d="M46.696,42.04C47.43,42.107 48,42.738 48,43.5L47.884,44.072L45.137,44.111C45.042,43.904 45,43.707 45,43.5C45,42.746 45.558,42.121 46.291,42.042L46.696,42.04Z" style="fill:rgb(98,93,88);"/>
        <path d="M39.01,42.088L39,42L39,36C39.002,35.961 39.002,35.922 39.007,35.884C39.016,35.807 39.034,35.731 39.06,35.658C39.167,35.364 39.413,35.132 39.713,35.042C39.788,35.02 39.864,35.006 39.942,35.002C39.981,34.999 40.019,35.002 40.058,35.002C40.097,35.006 40.135,35.011 40.174,35.015C40.211,35.024 40.25,35.031 40.287,35.042C40.361,35.064 40.433,35.095 40.5,35.134C40.737,35.271 40.91,35.503 40.973,35.769C40.997,35.87 40.994,35.897 41,36L41,42L40.996,42.076L39.01,42.088Z" style="fill:rgb(98,93,88);"/>
        <path d="M15,32L14,32C13.897,31.994 13.87,31.997 13.769,31.973C13.58,31.928 13.406,31.828 13.273,31.686C13.193,31.602 13.128,31.503 13.082,31.396C12.925,31.033 13.002,30.601 13.273,30.314C13.353,30.229 13.447,30.159 13.551,30.106C13.655,30.054 13.768,30.02 13.884,30.007C13.922,30.002 13.961,30.002 14,30L15,30C15.039,30.002 15.077,30.005 15.116,30.007C15.154,30.013 15.193,30.018 15.231,30.027C15.344,30.054 15.452,30.101 15.55,30.165C15.647,30.228 15.733,30.309 15.802,30.403C16.013,30.687 16.058,31.071 15.918,31.396C15.872,31.503 15.807,31.602 15.727,31.686C15.594,31.828 15.42,31.928 15.231,31.973L15,32Z" style="fill:rgb(98,93,88);"/>
        <path d="M46.721,32L44.613,32L44.051,30.316C44.041,30.279 44.029,30.242 44.021,30.204C43.997,30.09 43.994,29.972 44.01,29.857C44.061,29.507 44.3,29.203 44.629,29.071C44.701,29.043 44.776,29.022 44.853,29.011C44.892,29.005 44.931,29.004 44.969,29C45.008,29.002 45.047,29.003 45.085,29.004C45.187,29.018 45.214,29.018 45.313,29.05C45.535,29.123 45.727,29.275 45.85,29.474C45.905,29.562 45.91,29.588 45.949,29.684L46.721,32Z" style="fill:rgb(98,93,88);"/>
        <path d="M15,28L11,28C10.897,27.994 10.87,27.997 10.769,27.973C10.58,27.928 10.406,27.828 10.273,27.686C10.193,27.602 10.128,27.503 10.082,27.396C10.036,27.289 10.008,27.174 10.002,27.058C9.979,26.664 10.198,26.284 10.551,26.106C10.655,26.054 10.768,26.02 10.884,26.007C10.922,26.002 10.961,26.002 11,26L15,26C15.039,26.002 15.077,26.005 15.116,26.007C15.218,26.025 15.245,26.025 15.342,26.06C15.525,26.127 15.686,26.247 15.802,26.403C15.872,26.496 15.925,26.602 15.958,26.713C16.059,27.052 15.97,27.429 15.727,27.686C15.647,27.771 15.553,27.841 15.449,27.894C15.345,27.946 15.232,27.98 15.116,27.993L15,28Z" style="fill:rgb(98,93,88);"/>
        <path d="M15,24L10,24C9.961,23.998 9.922,23.998 9.884,23.993C9.768,23.98 9.655,23.946 9.551,23.894C9.198,23.716 8.979,23.336 9.002,22.942C9.008,22.826 9.036,22.711 9.082,22.604C9.128,22.497 9.193,22.398 9.273,22.314C9.406,22.172 9.58,22.072 9.769,22.027C9.87,22.003 9.897,22.006 10,22L15,22C15.039,22.002 15.077,22.005 15.116,22.007C15.218,22.025 15.245,22.025 15.342,22.06C15.525,22.127 15.686,22.247 15.802,22.403C15.872,22.496 15.925,22.602 15.958,22.713C16.059,23.052 15.97,23.429 15.727,23.686C15.647,23.771 15.553,23.841 15.449,23.894C15.345,23.946 15.232,23.98 15.116,23.993L15,24Z" style="fill:rgb(98,93,88);"/>
        <path d="M15,20L14,20C13.961,19.998 13.922,19.998 13.884,19.993C13.768,19.98 13.655,19.946 13.551,19.894C13.198,19.716 12.979,19.336 13.002,18.942C13.008,18.826 13.036,18.711 13.082,18.604C13.128,18.497 13.193,18.398 13.273,18.314C13.406,18.172 13.58,18.072 13.769,18.027C13.87,18.003 13.897,18.006 14,18L15,18C15.039,18.002 15.077,18.005 15.116,18.007C15.218,18.025 15.245,18.025 15.342,18.06C15.525,18.127 15.686,18.247 15.802,18.403C15.872,18.496 15.925,18.602 15.958,18.713C15.991,18.825 16.005,18.942 15.998,19.058C15.978,19.411 15.765,19.735 15.449,19.894C15.345,19.946 15.232,19.98 15.116,19.993L15,20Z" style="fill:rgb(98,93,88);"/>
        <path d="M40.993,42.116C40.98,42.232 40.946,42.345 40.894,42.449C40.841,42.553 40.771,42.647 40.686,42.727L40.173,42.983C39.984,43.016 39.785,42.996 39.604,42.918C39.497,42.872 39.398,42.807 39.314,42.727C39.172,42.594 39.072,42.42 39.027,42.231L39.01,42.088L40.996,42.076L40.993,42.116Z" style="fill:rgb(98,93,88);"/>
        <path d="M44.916,32.911L44.613,32L46.721,32L46.949,32.684C46.976,32.783 46.987,32.808 46.996,32.911C47.013,33.105 46.973,33.302 46.881,33.473C46.826,33.576 46.753,33.668 46.666,33.746C46.579,33.823 46.479,33.886 46.371,33.929L45.8,33.978C45.612,33.939 45.434,33.848 45.294,33.708C45.212,33.626 45.144,33.53 45.094,33.424L45.051,33.316L44.916,32.911Z" style="fill:rgb(98,93,88);"/>
    </g>
</svg>
