<?xml version="1.0" encoding="UTF-8" standalone="no"?>
<!DOCTYPE svg PUBLIC "-//W3C//DTD SVG 1.1//EN" "http://www.w3.org/Graphics/SVG/1.1/DTD/svg11.dtd">
<svg width="100%" height="100%" viewBox="0 0 64 64" version="1.1" xmlns="http://www.w3.org/2000/svg" xmlns:xlink="http://www.w3.org/1999/xlink" xml:space="preserve" style="fill-rule:evenodd;clip-rule:evenodd;stroke-linecap:round;stroke-linejoin:round;">
    <g transform="matrix(1,0,0,1,11,13)">
        <g transform="matrix(-1,0,0,1,6,0)">
            <path d="M1,33L5,33L5,21.013L5,21L4.987,21L1,21L1,33Z" style="fill:white;"/>
        </g>
        <g transform="matrix(-1,0,0,1,6,0)">
            <path d="M1,20L5,20L5.435,20.128C5.56,20.19 5.658,20.268 5.743,20.366C5.917,20.545 6,20.763 6,21L6,34L1,34L1,35L7,35L7,20.987C6.994,20.756 6.958,20.53 6.879,20.312C6.678,19.764 6.236,19.322 5.688,19.121C5.47,19.042 5.244,19.006 5.013,19L1,19L1,20Z" style="fill:rgb(98,93,88);"/>
        </g>
        <g transform="matrix(-1,0,0,1,6,0)">
            <path d="M1,34L6,34L6,21L5.743,20.366L5,20L1,20L1,21L4.987,21L5,21L5,21.013L5,33L1,33L1,34Z" style="fill:rgb(98,93,88);"/>
        </g>
        <g transform="matrix(-1,0,0,1,6,0)">
            <path d="M5.743,20.366L5.435,20.128L5,20L5.743,20.366Z" style="fill:rgb(98,93,88);"/>
        </g>
        <g transform="matrix(-1,0,0,1,6,0)">
            <path d="M5.435,20.128C5.323,20.06 5.17,20.015 5,20L5.435,20.128Z" style="fill:rgb(98,93,88);"/>
        </g>
        <g transform="matrix(-1,0,0,1,36,0)">
            <path d="M18.126,6.959L16.455,8.631L15.367,7.543L15.966,6.944L7,7L7,7.013L7,22.987L7,22.987L7,33L17,33L17,21.5L19,21.5L19,33L29,33L29,7.013L29,7L28.987,7L22.538,6.959L18.661,10.837L17.573,9.749L17.573,9.749L20.376,6.946L18.154,6.932L18.126,6.959Z" style="fill:white;"/>
        </g>
        <g transform="matrix(-1,0,0,1,36,0)">
            <path d="M7,35L29,35L29,34L19,34L19,34.536L17,34.536L17,34L7,34L7,35Z" style="fill:rgb(98,93,88);"/>
        </g>
        <g transform="matrix(-1,0,0,1,36,0)">
            <path d="M6.898,5.002C6.808,5.009 6.786,5.009 6.697,5.023C6.533,5.048 6.373,5.093 6.221,5.157C5.683,5.385 5.263,5.848 5.09,6.406C5.031,6.595 5.005,6.789 5,6.987L5,21.002L5.102,21.002L5.303,21.023C5.467,21.048 5.627,21.093 5.779,21.157L6,21.315L6,7C6,6.48 6.396,6.053 7,6L13.824,6L13.161,5.337L13.58,4.918L6.898,5.002Z" style="fill:rgb(98,93,88);"/>
        </g>
        <g transform="matrix(-1,0,0,1,36,0)">
            <path d="M30,19L31,19L31,6.987C30.995,6.789 30.969,6.595 30.91,6.406C30.737,5.848 30.317,5.385 29.779,5.157C29.627,5.093 29.467,5.048 29.303,5.023C29.214,5.009 29.192,5.009 29.102,5.002L23.843,4.936L24.163,5.334L23.498,6L29,6L29.427,6.128L29.689,6.324L29.739,6.348L29.747,6.368L29.751,6.37L30,7L30,19Z" style="fill:rgb(98,93,88);"/>
        </g>
        <g transform="matrix(-1,0,0,1,36,0)">
            <path d="M20.001,5.085L19.085,6L21.322,6L22.148,5.174L21.858,4.911L20.212,4.89L20.001,5.085Z" style="fill:rgb(98,93,88);"/>
        </g>
        <g transform="matrix(-1,0,0,1,36,0)">
            <path d="M15.794,4.89L15.569,5.104L14.673,6L16.91,6L17.739,5.171L17.389,4.87L15.794,4.89Z" style="fill:rgb(98,93,88);"/>
        </g>
        <g transform="matrix(-1,0,0,1,36,0)">
            <rect x="29" y="34" width="2" height="1" style="fill:rgb(98,93,88);"/>
        </g>
        <g transform="matrix(-1,0,0,1,36,0)">
            <rect x="30" y="19" width="1" height="1" style="fill:rgb(98,93,88);"/>
        </g>
        <g transform="matrix(-1,0,0,1,36,0)">
            <rect x="30" y="20" width="1" height="14" style="fill:rgb(98,93,88);"/>
        </g>
        <g transform="matrix(-1,0,0,1,36,0)">
            <rect x="7" y="33" width="10" height="1" style="fill:rgb(98,93,88);"/>
        </g>
        <g transform="matrix(-1,0,0,1,36,0)">
            <rect x="19" y="33" width="10" height="1" style="fill:rgb(98,93,88);"/>
        </g>
        <g transform="matrix(-1,0,0,1,36,0)">
            <path d="M7,7.013L7,7L15.966,6.944L16.91,6L14.673,6L14.248,6.424L13.824,6L7,6C6.396,6.053 6,6.48 6,7L6,21.315C6.369,21.497 6.653,21.806 6.91,22.406L7,22.987L7,7.013Z" style="fill:rgb(98,93,88);"/>
        </g>
        <g transform="matrix(-1,0,0,1,36,0)">
            <path d="M22.538,6.959L28.987,7L29,7L29,7.013L29,19L30,19L30,7L29.747,6.368L29,6L23.498,6L22.538,6.959Z" style="fill:rgb(98,93,88);"/>
        </g>
        <g transform="matrix(-1,0,0,1,36,0)">
            <path d="M29.747,6.368L29.689,6.324L29,6L29.747,6.368Z" style="fill:rgb(98,93,88);"/>
        </g>
        <g transform="matrix(-1,0,0,1,36,0)">
            <path d="M29.689,6.324C29.516,6.146 29.285,6.041 29,6L29.689,6.324Z" style="fill:rgb(98,93,88);"/>
        </g>
        <g transform="matrix(-1,0,0,1,36,0)">
            <path d="M18.154,6.932L20.376,6.946L21.322,6L19.085,6L18.154,6.932Z" style="fill:rgb(98,93,88);"/>
        </g>
        <g transform="matrix(-1,0,0,1,36,0)">
            <rect x="29" y="19" width="1" height="15" style="fill:rgb(98,93,88);"/>
        </g>
        <path d="M31,23L31.013,23L42,23L42,23.013L42,33L31,33L31,23.013L31,23Z" style="fill:white;"/>
        <path d="M31,33L31,33L31,23.013L31,23.013L31,33Z" style="fill:white;"/>
        <path d="M44,35L29,35C29,35 31,35 31,35L31,34L43,34L43,23L42.994,22.97L42.674,22.27L42,22L31,22L31,21.002L42.102,21.002C42.192,21.009 42.214,21.009 42.303,21.023C42.467,21.048 42.627,21.093 42.779,21.157C43.317,21.385 43.737,21.848 43.91,22.406C43.969,22.595 43.995,22.789 44,22.987L44,35Z" style="fill:rgb(98,93,88);"/>
        <path d="M29,33L29,33L29,22.987L29,22.987L29,33Z" style="fill:rgb(98,93,88);"/>
        <rect x="29" y="34" width="2" height="1" style="fill:rgb(98,93,88);"/>
        <path d="M30.501,22.152L30.441,22.171L30.4,22.221L30.293,22.293L30.079,22.611L30,23L30,21.328L30.221,21.157C30.373,21.093 30.533,21.048 30.697,21.023C30.786,21.009 30.808,21.009 30.898,21.002L31,21.002L31,22L31,22L31,22L30.501,22.152Z" style="fill:rgb(98,93,88);"/>
        <path d="M30,34L29,34L29,33L29,33L29,22.987L29.09,22.406L29.476,21.732L30,21.328L30,34Z" style="fill:rgb(98,93,88);"/>
        <path d="M29,22.987L29.09,22.406L29,22.987Z" style="fill:rgb(98,93,88);"/>
        <path d="M30,21.328L29.476,21.732L30,21.315L30,21.328Z" style="fill:rgb(98,93,88);"/>
        <path d="M31,22L42,22C42.52,22 42.947,22.396 42.994,22.97L43,23L43,34L31,34L31,33L42,33L42,23.013L42,23L31.013,23L31,23L31,23.013L31,22Z" style="fill:rgb(98,93,88);"/>
        <path d="M42,22L42.674,22.27C42.852,22.44 42.97,22.683 42.994,22.97L42.674,22.27L42,22Z" style="fill:rgb(98,93,88);"/>
        <path d="M31,34L30,34L30,23L30.031,22.93L30.288,22.356L30.372,22.255L31,22L31,23.013L31,23.013L31,33L31,34Z" style="fill:rgb(98,93,88);"/>
        <path d="M30.372,22.255L30.288,22.356L30.325,22.274C30.325,22.274 30.372,22.255 30.372,22.255Z" style="fill:rgb(98,93,88);"/>
        <path d="M30,23L30.079,22.611L30.288,22.356L30,23Z" style="fill:rgb(98,93,88);"/>
        <path d="M30.079,22.611L30,23L30.079,22.611Z" style="fill:rgb(98,93,88);"/>
        <path d="M30.372,22.255L30.4,22.221L30.501,22.152L31,22L30.372,22.255Z" style="fill:rgb(98,93,88);"/>
        <path d="M30.4,22.221L30.372,22.255L30.325,22.274L30.288,22.356L30.079,22.611L30.293,22.293L30.4,22.221Z" style="fill:rgb(98,93,88);"/>
        <path d="M30.079,22.611L30.293,22.293L30.079,22.611Z" style="fill:rgb(98,93,88);"/>
        <path d="M31,22L30.501,22.152C30.649,22.048 30.819,22 31,22L31,22Z" style="fill:rgb(98,93,88);"/>
        <g transform="matrix(-1,0,0,1,36,0)">
            <rect id="a" x="13" y="23" width="10" height="10" style="fill:rgb(222,222,222);"/>
            <rect x="12" y="22" width="12" height="12" style="fill:none;stroke:rgb(98,93,88);stroke-width:2px;"/>
        </g>
        <rect x="17" y="21.5" width="2" height="11.5" style="fill:rgb(98,93,88);"/>
        <rect x="17" y="34" width="2" height="0.536" style="fill:rgb(98,93,88);"/>
        <rect x="17" y="33" width="2" height="1" style="fill:rgb(98,93,88);"/>
        <path d="M10,6.167C10,12.035 14.463,12.34 17.403,12.34C20.344,12.34 24.801,12.081 24.801,6.167C24.801,0.27 20.876,0 17.403,0C13.945,0 10,0.299 10,6.167Z" style="fill:rgb(98,93,88);"/>
        <path d="M12.157,4.936C14.934,1.222 16.303,3.174 17.212,4.124C19.342,1.882 20.327,2.772 21.646,4.143L22.42,4.918L20.206,4.89C19.776,4.466 19.317,4.168 18.611,4.87L18,4.862L15.788,4.89C15.448,4.559 15.092,4.312 14.636,4.527L14.142,4.911L12.157,4.936Z" style="fill:white;"/>
        <path d="M13.462,6.959L15.624,6.946L18.427,9.749L18.427,9.749L17.339,10.837L13.462,6.959Z" style="fill:white;"/>
        <path d="M17.927,7.013L17.846,6.932L18.007,6.931L20.034,6.944L20.633,7.543L19.545,8.631L17.927,7.013Z" style="fill:white;"/>
        <path d="M13.852,5.174L14.678,6L12.502,6L11.837,5.334L12.157,4.936L14.142,4.911L13.852,5.174Z" style="fill:white;"/>
        <path d="M22.42,4.918L22.839,5.337L22.176,6L21.327,6L20.431,5.104L20.206,4.89L22.42,4.918Z" style="fill:white;"/>
        <path d="M18.611,4.87L18.261,5.171L19.09,6L16.915,6L15.999,5.085L15.788,4.89L18,4.862L18.611,4.87Z" style="fill:white;"/>
        <path d="M15.624,6.946L13.462,6.959L13.434,6.932L12.502,6L14.678,6L15.624,6.946Z" style="fill:white;"/>
        <path d="M17.846,6.932L16.915,6L19.09,6L20.034,6.944L18.007,6.931L17.846,6.932Z" style="fill:white;"/>
        <path d="M21.752,6.424L21.327,6L22.176,6L21.752,6.424Z" style="fill:white;"/>
    </g>
</svg>
