<?xml version="1.0" encoding="UTF-8" standalone="no"?>
<!DOCTYPE svg PUBLIC "-//W3C//DTD SVG 1.1//EN" "http://www.w3.org/Graphics/SVG/1.1/DTD/svg11.dtd">
<svg width="100%" height="100%" viewBox="0 0 64 64" version="1.1" xmlns="http://www.w3.org/2000/svg" xmlns:xlink="http://www.w3.org/1999/xlink" xml:space="preserve" style="fill-rule:evenodd;clip-rule:evenodd;">
    <g transform="matrix(1,0,0,1,16,14)">
        <g transform="matrix(1,0,0,1,6,0)">
            <circle cx="10.5" cy="12.5" r="7.5" style="fill:rgb(222,222,222);stroke:rgb(210,33,33);stroke-width:2px;"/>
            <circle cx="8" cy="13" r="1" style="fill:rgb(98,93,88);"/>
            <circle cx="13" cy="13" r="1" style="fill:rgb(98,93,88);"/>
            <path id="a" d="M9,0L12,0C16.971,0 21,4.029 21,9L21,17C21,17.552 20.552,18 20,18L16,18L16,10.5L8,7L5,11L5,18L1,18C0.448,18 0,17.552 0,17L0,9C0,4.029 4.029,0 9,0L9,0Z" style="fill:white;"/>
            <path d="M4,17L4,10.667L7.675,5.766L17,9.846L17,17L20,17L20,9C20,4.582 16.418,1 12,1L9,1C4.582,1 1,4.582 1,9L1,17L4,17Z" style="fill:none;stroke:rgb(98,93,88);stroke-width:2px;"/>
        </g>
        <g transform="matrix(1,0,0,1,2,15)">
            <rect id="b" x="13" y="4" width="3" height="17" style="fill:white;"/>
            <rect x="12" y="3" width="5" height="19" style="fill:none;stroke:rgb(98,93,88);stroke-width:2px;stroke-linecap:round;stroke-linejoin:round;"/>
            <g transform="matrix(-1,0,0,1,11,0)">
                <path id="c" d="M0,2L11,0L11,17L0,19L0,2Z" style="fill:white;"/>
                <path d="M-1,1.165L12,-1.198L12,17.835L-1,20.198L-1,1.165Z" style="fill:none;stroke:rgb(98,93,88);stroke-width:2px;stroke-linecap:round;stroke-linejoin:round;"/>
            </g>
            <g>
                <path id="d" d="M18,2L29,0L29,17L18,19L18,2Z" style="fill:white;"/>
                <path d="M17,1.165L30,-1.198L30,17.835L17,20.198L17,1.165Z" style="fill:none;stroke:rgb(98,93,88);stroke-width:2px;stroke-linecap:round;stroke-linejoin:round;"/>
            </g>
        </g>
        <g>
            <path id="e" d="M0,24L3.243,24.811C3.688,24.922 4,25.322 4,25.781L4,26.719C4,27.272 3.552,27.719 3,27.719C2.918,27.719 2.837,27.709 2.757,27.689L0,27L0,24Z" style="fill:rgb(222,222,222);"/>
            <path d="M-1,22.719L3.485,23.84C4.375,24.063 5,24.863 5,25.781L5,26.719C5,27.824 4.105,28.719 3,28.719C2.836,28.719 2.674,28.699 2.515,28.66L-1,27.781L-1,22.719Z" style="fill:none;stroke:rgb(98,93,88);stroke-width:2px;stroke-linecap:round;stroke-linejoin:round;"/>
        </g>
        <g transform="matrix(-1,0,0,1,62,0)">
            <path id="f" d="M29,24L32.243,24.811C32.688,24.922 33,25.322 33,25.781L33,26.719C33,27.272 32.552,27.719 32,27.719C31.918,27.719 31.837,27.709 31.757,27.689L29,27L29,24Z" style="fill:rgb(222,222,222);"/>
            <path d="M28,22.719L32.485,23.84C33.375,24.063 34,24.863 34,25.781L34,26.719C34,27.824 33.105,28.719 32,28.719C31.836,28.719 31.674,28.699 31.515,28.66L28,27.781L28,22.719Z" style="fill:none;stroke:rgb(98,93,88);stroke-width:2px;stroke-linecap:round;stroke-linejoin:round;"/>
        </g>
    </g>
</svg>
