<svg xmlns="http://www.w3.org/2000/svg" width="64" height="64" viewBox="0 0 64 64">
  <g fill="none" fill-rule="evenodd">
    <polygon fill="#DEDEDE" points="17 18 47 18 47 31 34.5 31 30.5 28.5 30 31 17 31"/>
    <path fill="#625D58" fill-rule="nonzero" d="M38.482565,33 L41.7411593,35.5844293 C42.8471825,36.4616293 42.7208901,38.1776422 41.4983619,38.8834692 L40.0898611,39.6966675 L42.1539905,43.2718445 C42.7062752,44.2284297 42.3785249,45.4516105 41.4219397,46.0038953 L39.9055889,46.8793608 C38.9490036,47.4316456 37.7258228,47.1038953 37.1735381,46.14731 L35.1094087,42.572133 L33.7009079,43.3853313 C32.4783797,44.0911583 30.9291228,43.3425243 30.7224569,41.9460801 L29.3984875,33 L17,33 C15.8954305,33 15,32.1045695 15,31 L15,18 C15,16.8954305 15.8954305,16 17,16 L47,16 C48.1045695,16 49,16.8954305 49,18 L49,31 C49,32.1045695 48.1045695,33 47,33 L38.482565,33 Z M35.9608522,31 L47,31 L47,18 L17,18 L17,31 L29.1024987,31 L28.9306579,29.8388689 C28.6652513,28.0455129 30.7315177,26.8525534 32.1519063,27.9790803 L35.9608522,31 Z M37.3578103,38.9646167 L40.4983619,37.1514184 L30.9091089,29.5460693 L32.7009079,41.6532805 L35.8414595,39.8400822 L38.9055889,45.14731 L40.4219397,44.2718445 L37.3578103,38.9646167 Z"/>
  </g>
</svg>
