<?xml version="1.0" encoding="UTF-8" standalone="no"?>
<!DOCTYPE svg PUBLIC "-//W3C//DTD SVG 1.1//EN" "http://www.w3.org/Graphics/SVG/1.1/DTD/svg11.dtd">
<svg width="100%" height="100%" viewBox="0 0 64 64" version="1.1" xmlns="http://www.w3.org/2000/svg" xmlns:xlink="http://www.w3.org/1999/xlink" xml:space="preserve" style="fill-rule:evenodd;clip-rule:evenodd;">
    <g transform="matrix(1,0,0,1,13,11)">
        <path d="M24,38L23.751,38L24.008,37.998L24,38Z" style="fill:rgb(222,222,222);"/>
        <path d="M3.65,37.792L4.268,37.926L3.992,37.898L3.65,37.792Z" style="fill:rgb(222,222,222);"/>
        <path d="M24.778,37.843L24.778,37.843L24.779,37.843L24.778,37.843Z" style="fill:rgb(222,222,222);"/>
        <path d="M25.414,37.414L24.782,37.84L25.445,37.368L25.414,37.414Z" style="fill:rgb(222,222,222);"/>
        <path d="M2.733,37.433L3.237,37.664L3.054,37.607L2.733,37.433Z" style="fill:rgb(222,222,222);"/>
        <path d="M1.891,36.887L2.347,37.223L2.204,37.146L1.891,36.887Z" style="fill:rgb(222,222,222);"/>
        <path d="M25.843,36.778L25.587,37.158L25.864,36.676L25.843,36.778Z" style="fill:rgb(222,222,222);"/>
        <path d="M0.99,35.96L1.568,36.621L1.464,36.536L0.99,35.96Z" style="fill:rgb(222,222,222);"/>
        <path d="M1.991,8.979L2.032,9.004C2.647,9.478 3.385,9.803 4.222,9.922L4.364,9.96C4.574,9.987 4.783,9.997 4.994,10C11.245,10 17.499,10.153 23.751,10L24,10L24.008,9.998L24.05,9.998C24.103,18.672 24.219,27.338 24,36L23.987,36C17.632,36 11.277,36.079 4.922,35.999C4.596,35.987 4.276,35.931 3.969,35.818C3.17,35.526 2.52,34.89 2.208,34.1C2.079,33.773 2.014,33.429 2.001,33.078C1.899,25.043 1.938,17.006 1.991,8.979Z" style="fill:rgb(222,222,222);"/>
        <path d="M0.373,34.882L0.875,35.821C0.669,35.525 0.495,35.203 0.373,34.882Z" style="fill:rgb(222,222,222);"/>
        <path d="M0.08,33.79L0.296,34.633L0.102,34.008L0.08,33.79Z" style="fill:rgb(222,222,222);"/>
        <path d="M0,32.805L0.001,33.01L0,33L0,32.805Z" style="fill:rgb(222,222,222);"/>
        <path d="M0,6.999L0,7.027L0,7L0,6.999Z" style="fill:rgb(222,222,222);"/>
        <path d="M5,38L23.751,38C17.499,38.153 11.245,38 4.994,38C4.825,37.998 4.658,37.991 4.49,37.974L4.268,37.926L5,38Z" style="fill:rgb(98,93,88);"/>
        <path d="M24.778,37.843L24.303,37.977C24.214,37.991 24.192,37.991 24.102,37.998L24.008,37.998L24.778,37.843Z" style="fill:rgb(98,93,88);"/>
        <path d="M24.779,37.843L24.779,37.843L24.782,37.84L24.779,37.843Z" style="fill:rgb(98,93,88);"/>
        <path d="M3.237,37.664L3.65,37.792L3.397,37.737L3.237,37.664Z" style="fill:rgb(98,93,88);"/>
        <path d="M2.347,37.223L2.733,37.433L2.464,37.31L2.347,37.223Z" style="fill:rgb(98,93,88);"/>
        <path d="M25.481,37.342L25.445,37.368L25.587,37.158L25.481,37.342Z" style="fill:rgb(98,93,88);"/>
        <path d="M1.568,36.621L1.891,36.887L1.638,36.701L1.568,36.621Z" style="fill:rgb(98,93,88);"/>
        <path d="M26,2.056C26.281,13.424 26,24.72 26,36.013C25.995,36.211 25.969,36.405 25.91,36.594L25.864,36.676L26,36L26,2.056Z" style="fill:rgb(98,93,88);"/>
        <path d="M0.875,35.821L0.99,35.96L0.886,35.841L0.875,35.821Z" style="fill:rgb(98,93,88);"/>
        <path d="M0.296,34.633L0.373,34.882L0.347,34.834L0.296,34.633Z" style="fill:rgb(98,93,88);"/>
        <path d="M0.001,33.01L0.08,33.79L0.04,33.636C0.019,33.467 0.008,33.298 0.002,33.129L0.001,33.01Z" style="fill:rgb(98,93,88);"/>
        <path d="M0,7.027L0,32.805L-0.061,20.019L0,7.027Z" style="fill:rgb(98,93,88);"/>
        <path d="M0.101,6L0,6.999L0.001,6.91L0.095,5.946L0.101,6Z" style="fill:rgb(98,93,88);"/>
        <path d="M25.998,1.989L25.998,1.898L25.905,1.439L25.977,1.697C25.991,1.786 25.991,1.808 25.998,1.898L25.999,1.996L25.998,1.989Z" style="fill:rgb(98,93,88);"/>
        <path d="M25.86,1.283L25.853,1.271L25.843,1.222L25.86,1.283Z" style="fill:rgb(98,93,88);"/>
        <path d="M25.843,1.221L25.843,1.221L25.838,1.214L25.843,1.221Z" style="fill:rgb(98,93,88);"/>
        <path d="M25.379,0.552L25.391,0.57L25.188,0.434L25.379,0.552Z" style="fill:rgb(98,93,88);"/>
        <path d="M24.688,0.121L24.717,0.14L24.561,0.095L24.688,0.121Z" style="fill:rgb(98,93,88);"/>
        <path d="M25.864,36.676L25.587,37.158L25.445,37.368L24.782,37.84L24.779,37.843L24.778,37.843L24.008,37.998L23.751,38L5,38L4.268,37.926L3.65,37.792L3.237,37.664L2.733,37.433L2.347,37.223L1.891,36.887L1.568,36.621L0.99,35.96L0.875,35.821L0.373,34.882L0.296,34.633L0.08,33.79L0.001,33.01L0,32.805L0,7.027L0,6.999L0.101,6L0.102,6.008L0.176,6.248L0.19,6.368L0.311,6.682L0.393,6.946L0.462,7.074L0.518,7.217L0.709,7.529L0.854,7.796L0.928,7.886L0.994,7.992L1.137,8.138L1.464,8.536L1.78,8.796L1.917,8.936L1.991,8.979C1.938,17.006 1.899,25.043 2.001,33.078C2.014,33.429 2.079,33.773 2.208,34.1C2.52,34.89 3.17,35.526 3.969,35.818C4.276,35.931 4.596,35.987 4.922,35.999C11.277,36.079 17.632,36 23.987,36L24,36C24.219,27.338 24.103,18.672 24.05,9.998L24.102,9.998C24.192,9.991 24.214,9.991 24.303,9.977L24.778,9.843L24.778,9.843L24.779,9.843L24.779,9.843L24.783,9.84L25.414,9.414L25.445,9.368L25.481,9.342L25.587,9.158L25.843,8.778L25.864,8.676L25.91,8.594C25.969,8.405 25.995,8.211 26,8.013L26,8L26,8L26,36L25.864,36.676Z" style="fill:rgb(98,93,88);"/>
        <path d="M25.998,1.989L25.999,1.996L25.998,1.989Z" style="fill:rgb(98,93,88);"/>
        <path d="M25.853,1.271L25.843,1.222L25.853,1.271Z" style="fill:rgb(98,93,88);"/>
        <path d="M25.838,1.214L25.843,1.221L25.838,1.214Z" style="fill:rgb(98,93,88);"/>
        <path d="M0.118,5.729L0.116,5.734L0.111,5.787L0,5L0.017,4.835L0.118,5.729Z" style="fill:white;"/>
        <path d="M0.322,3.281L0.043,4.575L0.102,3.992L0.322,3.281Z" style="fill:white;"/>
        <path d="M0.545,2.773L0.375,3.11L0.393,3.054L0.545,2.773Z" style="fill:white;"/>
        <path d="M1.055,1.961L0.811,2.283L0.854,2.204L1.055,1.961Z" style="fill:white;"/>
        <path d="M1.745,1.233L1.388,1.557L1.464,1.464L1.745,1.233Z" style="fill:white;"/>
        <path d="M2.521,0.682L2.111,0.931L2.204,0.854L2.521,0.682Z" style="fill:white;"/>
        <path d="M25.391,0.57L25.414,0.586L25.43,0.609L25.414,0.586L25.391,0.57Z" style="fill:white;"/>
        <path d="M24.779,0.157L24.778,0.157L24.778,0.157L24.779,0.157Z" style="fill:white;"/>
        <path d="M5.035,0L4.996,0L5,0L5.035,0Z" style="fill:white;"/>
        <path d="M24,10L23.751,10L24.008,9.998L24,10Z" style="fill:white;"/>
        <path d="M3.053,9.607L4.222,9.922C3.406,9.805 2.654,9.484 2.032,9.004L3.053,9.607Z" style="fill:white;"/>
        <path d="M2.181,5.946L2.303,5.281C2.545,4.619 2.93,4.011 3.422,3.507C3.943,2.974 4.581,2.559 5.281,2.303C5.833,2.101 6.415,2.004 7.003,2L15.498,1.946L24,2L24,2.013L24,3.99C17.846,3.749 11.656,4 5.472,4C5.397,4.003 5.378,4.002 5.303,4.014C5.192,4.034 5.083,4.072 4.985,4.127C4.886,4.182 4.796,4.254 4.722,4.339C4.455,4.643 4.397,5.089 4.579,5.45C4.63,5.551 4.699,5.644 4.78,5.722C4.924,5.859 5.107,5.952 5.303,5.986L5.472,6L24,6L24,8L23.987,8C17.632,8 11.277,8.079 4.922,7.999C4.522,7.984 4.131,7.901 3.766,7.735C3.016,7.396 2.427,6.747 2.181,5.946Z" style="fill:white;"/>
        <path d="M0.118,5.833L0.176,6.248L0.118,5.833Z" style="fill:white;"/>
        <path d="M26,2L26,2.056L25.999,1.996L25.998,1.989L26,2Z" style="fill:white;"/>
        <path d="M25.838,1.214L25.636,0.923L25.853,1.271L25.843,1.222L25.838,1.214Z" style="fill:white;"/>
        <path d="M25.843,1.222L25.853,1.271L25.566,0.812L25.843,1.222Z" style="fill:white;"/>
        <path d="M25.188,0.434L25.077,0.364L25.407,0.593L25.391,0.57L25.39,0.569L25.188,0.434Z" style="fill:white;"/>
        <path d="M25.414,0.586L25.43,0.609L24.786,0.162L25.414,0.586Z" style="fill:white;"/>
        <path d="M24.778,0.157L24.779,0.157L24.778,0.157L24.778,0.157Z" style="fill:white;"/>
        <path d="M23.865,0L24,0L24.007,0.001L23.865,0Z" style="fill:white;"/>
        <path d="M15.498,1.946L5.006,2L14.504,1.94L15.498,1.946Z" style="fill:white;"/>
        <path d="M0.123,5.778L0.118,5.833L0.111,5.787L0.116,5.734L0.118,5.729L0.123,5.778Z" style="fill:white;"/>
        <path d="M25.838,1.214" style="fill:white;"/>
        <path d="M25.188,0.434L25.39,0.569L25.188,0.434Z" style="fill:white;"/>
        <path d="M24.778,9.843L24.778,9.843L24.779,9.843L24.778,9.843Z" style="fill:white;"/>
        <path d="M25.414,9.414L24.783,9.84L25.445,9.368L25.414,9.414Z" style="fill:white;"/>
        <path d="M25.843,8.778L25.587,9.158L25.864,8.676L25.843,8.778Z" style="fill:white;"/>
        <path d="M1.137,8.138L1.78,8.796L1.464,8.536L1.137,8.138Z" style="fill:white;"/>
        <path d="M25.999,1.996L26,2.056L26,8L26,8L25.998,1.989L25.999,1.996Z" style="fill:white;"/>
        <path d="M0.709,7.529L0.928,7.886L0.854,7.796L0.709,7.529Z" style="fill:white;"/>
        <path d="M0.311,6.682L0.462,7.074L0.393,6.946L0.311,6.682Z" style="fill:white;"/>
        <path d="M0.118,5.833L0.123,5.778L0.176,6.248L0.141,6L0.118,5.833Z" style="fill:white;"/>
        <path d="M15.498,1.946L7.003,2C6.415,2.004 5.833,2.101 5.281,2.303C4.581,2.559 3.943,2.974 3.422,3.507C2.93,4.011 2.545,4.619 2.303,5.281L2.181,5.946L2.114,5.822C2.017,5.48 1.982,5.122 2.009,4.768C2.033,4.447 2.11,4.13 2.235,3.833C2.376,3.499 2.579,3.192 2.828,2.93C3.095,2.651 3.414,2.424 3.766,2.265C4.035,2.143 4.323,2.062 4.617,2.024C4.746,2.008 4.876,2.002 5.006,2L15.498,1.946Z" style="fill:white;"/>
        <path d="M25.636,0.923L25.838,1.214L25.843,1.222L25.853,1.271L25.636,0.923Z" style="fill:white;"/>
        <path d="M25.188,0.434L25.391,0.57L25.407,0.593L25.077,0.364L25.188,0.434Z" style="fill:white;"/>
        <path d="M0.043,4.575L0.017,4.835L0.006,4.744L0.043,4.575Z" style="fill:rgb(98,93,88);"/>
        <path d="M0.375,3.11L0.322,3.281L0.347,3.166L0.375,3.11Z" style="fill:rgb(98,93,88);"/>
        <path d="M0.811,2.283L0.545,2.773L0.754,2.359L0.811,2.283Z" style="fill:rgb(98,93,88);"/>
        <path d="M1.388,1.557L1.055,1.961L1.299,1.638L1.388,1.557Z" style="fill:rgb(98,93,88);"/>
        <path d="M25.879,1.312L25.905,1.439L25.86,1.283L25.879,1.312Z" style="fill:rgb(98,93,88);"/>
        <path d="M2.111,0.931L1.745,1.233L2.01,0.992L2.111,0.931Z" style="fill:rgb(98,93,88);"/>
        <path d="M25.448,0.621L25.566,0.812L25.43,0.609L25.448,0.621Z" style="fill:rgb(98,93,88);"/>
        <path d="M2.917,0.467L2.521,0.682L2.832,0.493L2.917,0.467Z" style="fill:rgb(98,93,88);"/>
        <path d="M24.779,0.157L24.786,0.162L24.779,0.157L24.779,0.157Z" style="fill:rgb(98,93,88);"/>
        <path d="M24.778,0.157L24.729,0.147L24.717,0.14L24.778,0.157Z" style="fill:rgb(98,93,88);"/>
        <path d="M24.007,0.001L24.102,0.002C24.192,0.009 24.214,0.009 24.303,0.023L24.561,0.095L24.102,0.002L24.007,0.002L24.007,0.001Z" style="fill:rgb(98,93,88);"/>
        <path d="M4.996,0L4.148,0.086L4.24,0.057C4.449,0.025 4.66,0.01 4.871,0.002L4.996,0Z" style="fill:rgb(98,93,88);"/>
        <path d="M23.865,0L23.82,0L15.507,-0.067L6.98,0L5.035,0L14.487,-0.089L23.865,0Z" style="fill:rgb(98,93,88);"/>
        <path d="M23.751,10L24.008,9.998L24.05,9.99L24.05,9.998L24.102,9.998L14.549,10.059C11.364,10.04 8.178,10 4.994,10C4.783,9.997 4.574,9.987 4.364,9.96L4.222,9.922L5,10L23.751,10Z" style="fill:rgb(98,93,88);"/>
        <path d="M0.19,6.368L0.176,6.248L0.123,5.778L0.19,6.368Z" style="fill:rgb(98,93,88);"/>
        <path d="M25.19,0.443L25.43,0.609L25.566,0.812L25.663,0.966L25.566,0.812L25.43,0.609L25.19,0.443Z" style="fill:rgb(98,93,88);"/>
        <path d="M24.782,0.16L24.778,0.157L24.782,0.16Z" style="fill:rgb(98,93,88);"/>
        <path d="M24.007,0.001L24.007,0.002L24.007,0.001Z" style="fill:rgb(98,93,88);"/>
        <path d="M1.917,8.936C1.57,8.664 1.258,8.346 0.994,7.992L1.116,8.113L1.137,8.138L1.78,8.796L1.932,8.922L1.991,8.979L1.991,8.97L2.032,9.004L3.053,9.607L1.917,8.936Z" style="fill:rgb(98,93,88);"/>
        <path d="M25.732,1.078L25.86,1.283L25.905,1.439L25.998,1.898L25.999,6L25.998,1.989L25.853,1.271L25.732,1.078Z" style="fill:rgb(98,93,88);"/>
        <path d="M24.007,0.002L24.102,0.002L24.561,0.095L24.717,0.14L24.729,0.147L24.007,0.002Z" style="fill:rgb(98,93,88);"/>
        <path d="M23.82,0L7,0L6.98,0L15.507,-0.067L23.82,0Z" style="fill:rgb(98,93,88);"/>
        <path d="M25.999,6L26,8.013C25.995,8.211 25.969,8.405 25.91,8.594C25.737,9.152 25.317,9.615 24.779,9.843C24.627,9.907 24.467,9.952 24.303,9.977C24.214,9.991 24.192,9.991 24.102,9.998L24.05,9.998L24.05,9.99L24.778,9.843L24.779,9.843L24.783,9.84L25.445,9.368L25.587,9.158L25.864,8.676L26,8L25.998,1.989L25.999,6Z" style="fill:rgb(98,93,88);"/>
        <path d="M1.932,8.922L1.991,8.97L1.991,8.979L1.932,8.922Z" style="fill:rgb(98,93,88);"/>
        <path d="M0.176,6.248L0.311,6.682L0.462,7.074L0.709,7.529L0.928,7.886L1.116,8.113L0.994,7.992C0.63,7.506 0.356,6.953 0.19,6.368L0.176,6.248L0.148,6L0.176,6.248Z" style="fill:rgb(98,93,88);"/>
        <path d="M7,0" style="fill:rgb(98,93,88);"/>
        <path d="M25.732,1.078L25.853,1.271L25.636,0.923L25.732,1.078Z" style="fill:rgb(98,93,88);"/>
        <path d="M6.98,0L6.91,0.001C6.529,0.008 6.15,0.043 5.766,0.111L5.734,0.114L5.38,0.212L4.674,0.396L4.621,0.422C4.185,0.576 3.769,0.774 3.365,1.025L3.305,1.054L3.113,1.205L2.47,1.662L2.264,1.87L2.11,1.991L1.947,2.19L1.628,2.512L1.308,2.972L1.122,3.198L1.053,3.337L0.942,3.495L0.535,4.374L0.425,4.593L0.118,5.729L0.017,4.835L0.043,4.575L0.322,3.281L0.375,3.11L0.545,2.773L0.811,2.283L1.055,1.961L1.388,1.557L1.745,1.233L2.111,0.931L2.521,0.682L2.917,0.467L4.148,0.086L4.996,0L5.035,0L6.98,0Z" style="fill:rgb(98,93,88);"/>
        <path d="M24.786,0.162L25.19,0.443L24.786,0.162L24.782,0.16L24.786,0.162Z" style="fill:rgb(98,93,88);"/>
        <path d="M24.007,0.001L23.865,0L24.007,0.001Z" style="fill:rgb(98,93,88);"/>
        <path d="M24.05,9.99L24.008,9.998L23.751,10L5,10L4.222,9.922L3.053,9.607L2.032,9.004L1.78,8.796L1.137,8.138L1.116,8.113L1.932,8.922L1.991,8.97L2,6.935L2.181,5.946C2.427,6.747 3.016,7.396 3.766,7.735C4.131,7.901 4.522,7.984 4.922,7.999C11.277,8.079 17.632,8 23.987,8L24,8L24,6L24.025,6L24.05,9.99Z" style="fill:rgb(98,93,88);"/>
        <path d="M1.015,3.412L0.708,4.026L0.957,3.495L1.015,3.412Z" style="fill:rgb(98,93,88);"/>
        <path d="M24,2L24,2.013L24.012,3.99L24,3.99L24,2.013L24,2Z" style="fill:rgb(98,93,88);"/>
        <path d="M1.862,2.294L1.415,2.841L1.641,2.517L1.862,2.294Z" style="fill:rgb(98,93,88);"/>
        <path d="M15.498,1.946L15.502,1.946L23.968,2L14.504,1.94L15.498,1.946Z" style="fill:rgb(98,93,88);"/>
        <path d="M2.894,1.377L2.345,1.807L2.479,1.672L2.894,1.377Z" style="fill:rgb(98,93,88);"/>
        <path d="M4.552,0.455L3.434,0.992C3.785,0.784 4.154,0.606 4.552,0.455Z" style="fill:rgb(98,93,88);"/>
        <path d="M23.865,0L24.007,0.001L24.778,0.157L24.786,0.162L25.43,0.609L25.566,0.812L25.636,0.923L25.407,0.593L25.077,0.364L24.729,0.147L24.007,0.002L23.82,0L23.865,0Z" style="fill:rgb(98,93,88);"/>
        <path d="M0.123,5.778L0.176,6.248L0.123,5.778Z" style="fill:rgb(98,93,88);"/>
        <path d="M0.445,4.588L0.123,5.778L0.118,5.729L0.425,4.593L0.708,4.026L0.445,4.588Z" style="fill:rgb(98,93,88);"/>
        <path d="M1.415,2.841L1.015,3.412L1.122,3.198L1.415,2.841Z" style="fill:rgb(98,93,88);"/>
        <path d="M2.345,1.807L1.862,2.294L2.11,1.991L2.345,1.807Z" style="fill:rgb(98,93,88);"/>
        <path d="M24,2L23.968,2L24,2Z" style="fill:rgb(98,93,88);"/>
        <path d="M3.434,0.992L2.894,1.377L3.305,1.054L3.434,0.992Z" style="fill:rgb(98,93,88);"/>
        <path d="M7,0C6.131,0.01 5.304,0.171 4.552,0.455L4.674,0.396C5.393,0.143 6.148,0.015 6.91,0.001L6.98,0L7,0Z" style="fill:rgb(98,93,88);"/>
        <path d="M5.006,2C4.876,2.002 4.746,2.008 4.617,2.024C4.323,2.062 4.035,2.143 3.766,2.265C3.414,2.424 3.095,2.651 2.828,2.93C2.579,3.192 2.376,3.499 2.235,3.833C2.11,4.13 2.033,4.447 2.009,4.768C1.982,5.122 2.017,5.48 2.114,5.822L2.181,5.946L2,6.935L1.991,8.97L1.932,8.922L1.116,8.113L0.928,7.886L0.709,7.529L0.462,7.074L0.311,6.682L0.176,6.248L0.148,6L0.123,5.778L0.445,4.588L0.708,4.026L1.015,3.412L1.415,2.841L1.862,2.294L2.345,1.807L2.894,1.377L3.434,0.992L4.552,0.455C5.304,0.171 6.131,0.01 7,0L23.82,0L24.007,0.002L24.729,0.147L25.077,0.364L25.407,0.593L25.636,0.923L25.853,1.271L25.998,1.989L26,8L25.864,8.676L25.587,9.158L25.445,9.368L24.783,9.84L24.779,9.843L24.778,9.843L24.05,9.99L24.025,6L24.5,6L24.669,5.986C24.865,5.952 25.049,5.859 25.192,5.722C25.274,5.644 25.342,5.551 25.393,5.45C25.561,5.116 25.526,4.706 25.304,4.405C25.237,4.314 25.154,4.235 25.06,4.171C24.966,4.108 24.862,4.061 24.752,4.032C24.679,4.013 24.66,4.013 24.585,4.004L24.012,3.99L24,2.013L24,2L24,2C24,2 23.968,2 23.968,2L15.502,1.946L15.498,1.946L14.504,1.94L5.006,2Z" style="fill:rgb(98,93,88);"/>
        <path d="M5.472,4L19.809,3.889L24,3.99L24,6L5.472,6C5.397,5.997 5.378,5.998 5.303,5.986C5.107,5.952 4.924,5.859 4.78,5.722C4.699,5.644 4.63,5.551 4.579,5.45C4.397,5.089 4.455,4.643 4.722,4.339C4.796,4.254 4.886,4.182 4.985,4.127C5.083,4.072 5.192,4.034 5.303,4.014C5.378,4.002 5.397,4.003 5.472,4Z" style="fill:rgb(98,93,88);"/>
        <path d="M24.025,6L24,6L24,3.99L24.585,4.004L24.012,3.99L24.025,6Z" style="fill:rgb(98,93,88);"/>
        <path d="M24.585,4.004C24.66,4.013 24.679,4.013 24.752,4.032C24.862,4.061 24.966,4.108 25.06,4.171C25.154,4.235 25.237,4.314 25.304,4.405C25.526,4.706 25.561,5.116 25.393,5.45C25.342,5.551 25.274,5.644 25.192,5.722C25.049,5.859 24.865,5.952 24.669,5.986L24.5,6L24.025,6L24.012,3.99L24.585,4.004Z" style="fill:rgb(98,93,88);"/>
        <g transform="matrix(1,0,0,1,15,15)">
            <path id="c" d="M4,0L20,0C21.657,0 23,1.343 23,3L23,26C23,27.105 22.105,28 21,28L4,28C1.791,28 0,26.209 0,24L0,4C0,1.791 1.791,0 4,0L4,0Z" style="fill:rgb(222,222,222);"/>
            <path d="M4,1C2.343,1 1,2.343 1,4L1,24C1,25.657 2.343,27 4,27L21,27C21.552,27 22,26.552 22,26L22,3C22,1.895 21.105,1 20,1L4,1Z" style="fill:none;stroke:rgb(98,93,88);stroke-width:2px;"/>
            <g>
                <path id="d" d="M3.5,0L21,0C22.105,0 23,0.895 23,2L23,5C23,6.105 22.105,7 21,7L3.5,7C1.567,7 0,5.433 0,3.5C0,1.567 1.567,0 3.5,0L3.5,0Z" style="fill:white;"/>
                <path d="M3.5,1C2.119,1 1,2.119 1,3.5C1,4.881 2.119,6 3.5,6L21,6C21.552,6 22,5.552 22,5L22,2C22,1.448 21.552,1 21,1L3.5,1Z" style="fill:none;stroke:rgb(98,93,88);stroke-width:2px;"/>
            </g>
        </g>
    </g>
</svg>
