<svg width="20" height="20" viewBox="0 0 20 20" fill="none" xmlns="http://www.w3.org/2000/svg">
<path d="M3.96509 6.75506C3.96509 7.81581 4.82794 8.67862 5.88849 8.67862C6.94923 8.67862 7.81204 7.81577 7.81204 6.75506C7.81204 5.69448 6.94919 4.83167 5.88849 4.83167C4.82794 4.83167 3.96509 5.69448 3.96509 6.75506ZM6.56017 6.75506C6.56017 7.12549 6.2588 7.42674 5.88849 7.42674C5.51821 7.42674 5.217 7.12553 5.217 6.75506C5.217 6.38479 5.51821 6.08358 5.88849 6.08358C6.2588 6.08358 6.56017 6.38479 6.56017 6.75506Z" fill="black"/>
<path d="M13.726 4.83167C12.6653 4.83167 11.8025 5.69452 11.8025 6.75506C11.8025 7.81581 12.6653 8.67862 13.726 8.67862C14.7866 8.67862 15.6494 7.81577 15.6494 6.75506C15.6495 5.69448 14.7866 4.83167 13.726 4.83167ZM13.726 7.4267C13.3558 7.4267 13.0544 7.12549 13.0544 6.75502C13.0544 6.38475 13.3557 6.08354 13.726 6.08354C14.0964 6.08354 14.3975 6.38475 14.3975 6.75502C14.3975 7.12549 14.0964 7.4267 13.726 7.4267Z" fill="black"/>
<path d="M14.7269 0H4.88769C2.98031 0 1.42859 1.55172 1.42859 3.45895V13.6416C1.42859 17.1476 4.28101 20 7.78718 20H11.8275C15.3336 20 18.1861 17.1476 18.1861 13.6416V3.45895C18.186 1.55172 16.6343 0 14.7269 0ZM12.2273 1.25191L10.2476 3.96602C10.2423 3.9732 10.2392 3.98129 10.2343 3.98863C10.0752 4.18898 9.9305 4.40141 9.80734 4.62758C9.68402 4.40141 9.53937 4.18898 9.38031 3.98863C9.37542 3.98129 9.37226 3.9732 9.36706 3.96602L7.38726 1.25191H12.2273ZM10.1761 9.44375L9.8073 10.0825L9.43839 9.44375C9.55007 9.2966 9.65339 9.14316 9.74648 8.98254H9.86804C9.96121 9.14313 10.0644 9.29656 10.1761 9.44375ZM9.09652 6.755C9.09652 8.52391 7.65738 9.96301 5.88851 9.96301C4.11964 9.96301 2.6805 8.52387 2.6805 6.755C2.6805 4.98613 4.11964 3.54699 5.88851 3.54699C7.65742 3.54699 9.09652 4.98609 9.09652 6.755ZM4.88765 1.25191H5.83773L6.64968 2.36508C6.40175 2.32215 6.14843 2.29508 5.88851 2.29508C4.6291 2.29508 3.4923 2.82203 2.6805 3.66434V3.45895H2.68046C2.68046 2.24203 3.67062 1.25191 4.88765 1.25191ZM7.78714 18.7481C4.97128 18.7481 2.6805 16.4573 2.6805 13.6416V9.84578C3.11988 10.3016 3.65445 10.663 4.25273 10.9001C4.73093 11.3405 7.65636 14.2163 7.90988 18.748H7.78714V18.7481ZM9.16449 18.7481C8.99128 15.2377 7.39648 12.6441 6.22925 11.1977C7.08101 11.1329 7.86472 10.8282 8.51644 10.3504L9.26527 11.6474C9.37699 11.841 9.58375 11.9604 9.80734 11.9604C10.0309 11.9604 10.2377 11.8411 10.3494 11.6474L11.0982 10.3504C11.7498 10.8282 12.5336 11.1329 13.3853 11.1977C12.2181 12.6441 10.6234 15.2377 10.4501 18.7481H9.16449ZM11.8275 18.7481H11.7048C11.9593 14.2346 14.8843 11.3432 15.3628 10.8996C15.9606 10.6628 16.495 10.3014 16.9341 9.84578V13.6416H16.9341C16.9341 16.4573 14.6433 18.7481 11.8275 18.7481ZM13.7261 9.96301C11.9572 9.96301 10.5181 8.52387 10.5181 6.755C10.5181 4.98613 11.9572 3.54699 13.7261 3.54699C15.495 3.54699 16.9341 4.98613 16.9341 6.755C16.9341 8.52391 15.495 9.96301 13.7261 9.96301ZM16.9341 3.66434C16.1223 2.82199 14.9855 2.29508 13.7261 2.29508C13.4661 2.29508 13.2128 2.32215 12.9649 2.36508L13.7768 1.25191H14.7269C15.944 1.25191 16.9341 2.24203 16.9341 3.45898V3.66434Z" fill="black"/>
</svg>
