<svg xmlns="http://www.w3.org/2000/svg" width="24" height="24" viewBox="0 0 24 24">
  <path fill="none" stroke="#000000" stroke-width="2" d="M9.95135576,10.9330905 L4.26006698,4.67267279 L4.26006698,4.67267279 C3.88856006,4.26401518 3.91867664,3.63156685 4.32733426,3.26005993 C4.51140623,3.09272178 4.75124101,3 5.00000705,3 L18.4885634,3 L18.4885634,3 C19.0408481,3 19.4885634,3.44771525 19.4885634,4 C19.4885634,4.24876605 19.3958416,4.48860083 19.2285034,4.67267279 L13.5372147,10.9330905 C13.542532,10.9894601 13.5452512,11.046586 13.5452512,11.1043469 L13.5452512,19.9276735 L13.5452512,19.9276735 C13.5452512,20.4861908 13.0924835,20.9389585 12.5339662,20.9389585 C12.2267542,20.9389585 11.936199,20.7993104 11.7442852,20.5594182 L10.3815816,18.8560387 L10.3815816,18.8560387 C10.0978807,18.5014126 9.94331924,18.0607916 9.94331924,17.6066486 L9.94331924,11.1043469 C9.94331924,11.046586 9.94603842,10.9894601 9.95135576,10.9330905 Z"/>
</svg>
