<svg xmlns="http://www.w3.org/2000/svg" viewBox="0 0 619.55 106.68"><defs><style>.cls-1{fill:#e1ff6b;}.cls-2{fill:#fff;}</style></defs><title>Asset 1</title><g id="Layer_2" data-name="Layer 2"><g id="Layer_1-2" data-name="Layer 1"><path class="cls-1" d="M302.89,24.53c16.41,0,28.51,11,28.51,27.27s-12.1,27.37-28.51,27.37-28.51-11-28.51-27.37S286.48,24.53,302.89,24.53Zm0,46.86c9.74,0,17-7.88,17-19.59s-7.28-19.5-17-19.5-17,7.78-17,19.5S293.05,71.39,302.89,71.39Z"/><path class="cls-1" d="M344.42,25.71H368c16.3,0,28.09,10.53,28.09,26.09S384.31,78,368,78H344.42Zm23.18,44.2c9.94,0,17-7,17-18.11s-7.08-18-17-18H355.5V69.91Z"/><path class="cls-1" d="M420.51,59,398.77,25.71h12.61l9.85,15.65,5,9.75,5-9.75,9.84-15.65h12.31L431.58,59V78H420.51Z"/><path class="cls-1" d="M462.55,67.65c5.95,2.36,12.62,3.84,17.33,3.84,5.54,0,11.69-2.17,11.69-8.17,0-4.53-5.23-5.91-11-7.49-8.72-2.26-20.41-5.12-20.41-16.44,0-9,8-14.86,20.82-14.86a53.36,53.36,0,0,1,18.56,3.34l-1.74,7.58a52.25,52.25,0,0,0-16.51-3.34c-5.13,0-10.26,1.77-10.26,6.79,0,4,4.21,5.71,9.23,7.09,9,2.26,22.15,4.82,22.15,16.54s-11.17,16.64-23.28,16.64a52.91,52.91,0,0,1-18.25-3.64Z"/><path class="cls-1" d="M516.18,25.71h40.41L556,33.78H527.26V48.15l24.1-.68v8.07l-24.1-.69V69.91h30.15L556.79,78H516.18Z"/><path class="cls-1" d="M584.79,25.71h12.92L619.55,78H607.24l-4.71-12.9H579.45L574.74,78h-11.8Zm-2.46,31.6h17.43l-2.57-7L591,33.39l-6,16.93Z"/><path class="cls-2" d="M10.28,27,32.41,0,4.61,26,0,63.7,20.73,95.58l36.37,11.1,35-14.88-33.56,8.8L26.6,90.77,7.3,61.08Z"/><path class="cls-2" d="M48.56,23.07c-3.21,0-3.21,5,0,5S51.78,23.07,48.56,23.07Z"/><path class="cls-2" d="M49.23,73c-3.21,0-3.22,5,0,5S52.44,73,49.23,73Z"/><path class="cls-2" d="M80.83,26.07c-3.21,0-3.21,5,0,5S84.05,26.07,80.83,26.07Z"/><path class="cls-2" d="M82.16,72c-3.21,0-3.21,5,0,5S85.38,72,82.16,72Z"/><path class="cls-2" d="M92.48,72c-3.22,0-3.22,5,0,5S95.69,72,92.48,72Z"/><path class="cls-2" d="M127.74,25.73c-3.21,0-3.22,5,0,5S131,25.73,127.74,25.73Z"/><path class="cls-2" d="M141.05,25.4c-3.21,0-3.22,5,0,5S144.26,25.4,141.05,25.4Z"/><path class="cls-2" d="M143.38,72.64c-3.22,0-3.22,5,0,5S146.59,72.64,143.38,72.64Z"/><path class="cls-2" d="M154.35,25.4c-3.21,0-3.21,5,0,5S157.57,25.4,154.35,25.4Z"/><path class="cls-2" d="M156.35,73.31c-3.21,0-3.22,5,0,5S159.57,73.31,156.35,73.31Z"/><path class="cls-2" d="M187.62,71.31c-3.21,0-3.21,5,0,5S190.84,71.31,187.62,71.31Z"/><path class="cls-2" d="M160.34,11.09c-3.21,0-3.21,5,0,5S163.56,11.09,160.34,11.09Z"/><path class="cls-2" d="M200.6,73c-3.21,0-3.22,5,0,5S203.81,73,200.6,73Z"/><path class="cls-2" d="M233.2,25.73c-3.21,0-3.22,5,0,5S236.42,25.73,233.2,25.73Z"/><path class="cls-2" d="M250.17,71.64c-3.21,0-3.22,5,0,5S253.38,71.64,250.17,71.64Z"/><path class="cls-2" d="M251.5,25.73c-3.21,0-3.22,5,0,5S254.71,25.73,251.5,25.73Z"/><path class="cls-2" d="M252.5,16.42c-3.22,0-3.22,5,0,5S255.71,16.42,252.5,16.42Z"/><path class="cls-2" d="M50.89,52.85a1.66,1.66,0,0,0,0,3.32A1.66,1.66,0,0,0,50.89,52.85Z"/><path class="cls-2" d="M62.2,47.86a1.66,1.66,0,0,0,0,3.32A1.66,1.66,0,0,0,62.2,47.86Z"/><path class="cls-2" d="M95.8,27.56a1.67,1.67,0,0,0,0,3.33A1.67,1.67,0,0,0,95.8,27.56Z"/><path class="cls-2" d="M125.74,71.81a1.67,1.67,0,0,0,0,3.33A1.67,1.67,0,0,0,125.74,71.81Z"/><path class="cls-2" d="M143,50.52a1.66,1.66,0,0,0,0,3.32A1.66,1.66,0,0,0,143,50.52Z"/><path class="cls-2" d="M186.62,26.9a1.66,1.66,0,0,0,0,3.32A1.66,1.66,0,0,0,186.62,26.9Z"/><path class="cls-2" d="M169.66,49.19a1.66,1.66,0,0,0,0,3.32A1.66,1.66,0,0,0,169.66,49.19Z"/><path class="cls-2" d="M171.65,18.91a1.67,1.67,0,0,0,0,3.33A1.67,1.67,0,0,0,171.65,18.91Z"/><path class="cls-2" d="M182,10.93a1.67,1.67,0,0,0,0,3.33A1.67,1.67,0,0,0,182,10.93Z"/><path class="cls-2" d="M201.26,26.9a1.66,1.66,0,0,0,0,3.32A1.66,1.66,0,0,0,201.26,26.9Z"/><path class="cls-2" d="M232.2,73.14a1.67,1.67,0,0,0,0,3.33A1.67,1.67,0,0,0,232.2,73.14Z"/><path class="cls-2" d="M259.81,11.93a1.66,1.66,0,0,0,0,3.32A1.66,1.66,0,0,0,259.81,11.93Z"/><rect class="cls-2" x="39.53" y="64.32" width="21.05" height="1" transform="translate(-19.23 108.49) rotate(-84.55)"/><rect class="cls-2" x="50.52" y="51.35" width="12.06" height="1" transform="translate(-16.38 28.04) rotate(-24.44)"/><rect class="cls-2" x="169.82" y="11.75" width="1" height="32.29" transform="translate(137.18 197.27) rotate(-88.23)"/><rect class="cls-2" x="49.23" y="25.34" width="1" height="29.07" transform="translate(-3.44 4.72) rotate(-5.25)"/><rect class="cls-2" x="57.33" y="38.37" width="28.04" height="1" transform="matrix(0.66, -0.75, 0.75, 0.66, -5.11, 66.37)"/><rect class="cls-2" x="71.52" y="45.85" width="1" height="31.95" transform="translate(-22.84 58.54) rotate(-38.66)"/><rect class="cls-2" x="70.96" y="51.52" width="46.03" height="1" transform="translate(35.31 141.99) rotate(-85.86)"/><rect class="cls-2" x="110.11" y="24.47" width="1" height="53.43" transform="translate(-9.68 70.78) rotate(-34.09)"/><rect class="cls-2" x="104.26" y="50.35" width="44.97" height="1" transform="translate(69.4 174.79) rotate(-87.03)"/><rect class="cls-2" x="141.38" y="27.36" width="1" height="24.7" transform="translate(-2.74 11.59) rotate(-4.63)"/><rect class="cls-2" x="142.71" y="52.01" width="1" height="23.3" transform="translate(-1.76 4.12) rotate(-1.64)"/><rect class="cls-2" x="163.97" y="39.04" width="28.01" height="1" transform="translate(38.72 157.21) rotate(-52.72)"/><rect class="cls-2" x="148.7" y="62.66" width="28.28" height="1" transform="translate(30.5 177.15) rotate(-61.94)"/><rect class="cls-2" x="156.15" y="74.14" width="31.34" height="1" transform="translate(-4.41 11.11) rotate(-3.66)"/><rect class="cls-2" x="165.33" y="10.27" width="1" height="13.29" transform="translate(64.29 149.12) rotate(-58.3)"/><rect class="cls-2" x="170.12" y="15.92" width="13.04" height="1" transform="translate(26.91 111.57) rotate(-37.75)"/><rect class="cls-2" x="177.14" y="51.52" width="47.25" height="1" transform="translate(145.98 252.04) rotate(-89.21)"/><rect class="cls-2" x="216.07" y="23.7" width="1" height="55.64" transform="translate(7.92 129.13) rotate(-33.79)"/><rect class="cls-2" x="209.24" y="50.85" width="46.59" height="1" transform="translate(176.16 282.72) rotate(-88.76)"/><rect class="cls-2" x="227.37" y="50.93" width="46.76" height="1" transform="translate(193 300.8) rotate(-88.55)"/><rect class="cls-2" x="251.46" y="15.59" width="9.05" height="1" transform="translate(39.49 153.62) rotate(-36.02)"/></g></g></svg>