<svg xmlns="http://www.w3.org/2000/svg" viewBox="0 0 664.18 396.29"><defs><style>.cls-1{fill:#fff;}.cls-2{fill:#e1ff6b;}</style></defs><title>Asset 3</title><g id="Layer_2" data-name="Layer 2"><g id="Layer_1-2" data-name="Layer 1"><path class="cls-1" d="M133.94,71.83c-7.15,0-7.16,11.11,0,11.11S141.1,71.83,133.94,71.83Z"/><path class="cls-1" d="M135.42,182.94c-7.15,0-7.16,11.11,0,11.11S142.58,182.94,135.42,182.94Z"/><path class="cls-1" d="M205.79,78.5c-7.15,0-7.16,11.11,0,11.11S213,78.5,205.79,78.5Z"/><path class="cls-1" d="M208.75,180.72c-7.15,0-7.16,11.11,0,11.11S215.91,180.72,208.75,180.72Z"/><path class="cls-1" d="M231.71,180.72c-7.15,0-7.16,11.11,0,11.11S238.87,180.72,231.71,180.72Z"/><path class="cls-1" d="M310.23,77.76c-7.15,0-7.16,11.11,0,11.11S317.39,77.76,310.23,77.76Z"/><path class="cls-1" d="M339.86,77c-7.15,0-7.17,11.11,0,11.11S347,77,339.86,77Z"/><path class="cls-1" d="M345,182.2c-7.15,0-7.16,11.11,0,11.11S352.2,182.2,345,182.2Z"/><path class="cls-1" d="M369.48,77c-7.14,0-7.16,11.11,0,11.11S376.65,77,369.48,77Z"/><path class="cls-1" d="M373.93,183.68c-7.15,0-7.16,11.11,0,11.11S381.09,183.68,373.93,183.68Z"/><path class="cls-1" d="M443.56,179.24c-7.15,0-7.17,11.11,0,11.11S450.72,179.24,443.56,179.24Z"/><path class="cls-1" d="M382.82,45.17c-7.15,0-7.16,11.11,0,11.11S390,45.17,382.82,45.17Z"/><path class="cls-1" d="M472.44,182.94c-7.15,0-7.16,11.11,0,11.11S479.6,182.94,472.44,182.94Z"/><path class="cls-1" d="M545,77.76c-7.15,0-7.16,11.11,0,11.11S552.19,77.76,545,77.76Z"/><path class="cls-1" d="M573.92,180c-7.15,0-7.16,11.11,0,11.11S581.08,180,573.92,180Z"/><path class="cls-1" d="M616.14,77.76c-7.15,0-7.16,11.11,0,11.11S623.3,77.76,616.14,77.76Z"/><path class="cls-1" d="M586.51,141.46c-7.15,0-7.16,11.11,0,11.11S593.67,141.46,586.51,141.46Z"/><path class="cls-1" d="M618.36,57c-7.14,0-7.16,11.11,0,11.11S625.53,57,618.36,57Z"/><path class="cls-1" d="M139.12,138.13c-4.76,0-4.77,7.4,0,7.4S143.9,138.13,139.12,138.13Z"/><path class="cls-1" d="M164.31,127c-4.77,0-4.78,7.4,0,7.4S169.08,127,164.31,127Z"/><path class="cls-1" d="M239.12,81.83c-4.77,0-4.78,7.41,0,7.41S243.89,81.83,239.12,81.83Z"/><path class="cls-1" d="M305.78,180.35c-4.76,0-4.77,7.4,0,7.4S310.56,180.35,305.78,180.35Z"/><path class="cls-1" d="M344.3,132.94c-4.77,0-4.77,7.41,0,7.41S349.07,132.94,344.3,132.94Z"/><path class="cls-1" d="M441.33,80.35c-4.76,0-4.77,7.41,0,7.41S446.11,80.35,441.33,80.35Z"/><path class="cls-1" d="M403.56,130c-4.77,0-4.78,7.41,0,7.41S408.33,130,403.56,130Z"/><path class="cls-1" d="M408,62.57c-4.76,0-4.77,7.41,0,7.41S412.78,62.57,408,62.57Z"/><path class="cls-1" d="M431,44.8c-4.76,0-4.77,7.4,0,7.4S435.74,44.8,431,44.8Z"/><path class="cls-1" d="M473.93,80.35c-4.77,0-4.78,7.41,0,7.41S478.7,80.35,473.93,80.35Z"/><path class="cls-1" d="M542.81,183.31c-4.76,0-4.77,7.41,0,7.41S547.59,183.31,542.81,183.31Z"/><path class="cls-1" d="M645,144.79c-4.77,0-4.77,7.41,0,7.41S649.8,144.79,645,144.79Z"/><path class="cls-1" d="M660.59,187c-4.77,0-4.78,7.41,0,7.41S665.36,187,660.59,187Z"/><path class="cls-1" d="M634.66,47c-4.77,0-4.77,7.41,0,7.41S639.43,47,634.66,47Z"/><rect class="cls-1" x="113.83" y="163.68" width="46.88" height="2.22" transform="translate(-39.78 285.83) rotate(-84.56)"/><rect class="cls-1" x="138.29" y="134.79" width="26.85" height="2.22" transform="translate(-42.65 75) rotate(-24.45)"/><rect class="cls-1" x="403.93" y="46.63" width="2.22" height="71.88" transform="translate(309.98 484.86) rotate(-88.23)"/><rect class="cls-1" x="135.42" y="76.88" width="2.22" height="64.71" transform="translate(-9.43 12.96) rotate(-5.25)"/><rect class="cls-1" x="153.46" y="105.9" width="62.44" height="2.22" transform="translate(-18 173.94) rotate(-48.36)"/><rect class="cls-1" x="185.05" y="122.55" width="2.22" height="71.14" transform="translate(-57.99 150.94) rotate(-38.66)"/><rect class="cls-1" x="183.8" y="135.16" width="102.49" height="2.22" transform="translate(82.14 360.86) rotate(-85.86)"/><rect class="cls-1" x="270.97" y="74.95" width="2.22" height="118.95" transform="translate(-28.59 175.58) rotate(-34.09)"/><rect class="cls-1" x="257.94" y="132.57" width="100.13" height="2.22" transform="translate(158.56 434.35) rotate(-87.03)"/><rect class="cls-1" x="340.6" y="81.37" width="2.22" height="54.99" transform="translate(-7.68 27.97) rotate(-4.64)"/><rect class="cls-1" x="343.56" y="136.26" width="2.22" height="51.87" transform="translate(-4.49 9.91) rotate(-1.64)"/><rect class="cls-1" x="390.89" y="107.39" width="62.37" height="2.22" transform="translate(80.05 378.57) rotate(-52.71)"/><rect class="cls-1" x="356.89" y="159.98" width="62.96" height="2.22" transform="translate(63.42 427.9) rotate(-61.92)"/><rect class="cls-1" x="373.49" y="185.53" width="69.77" height="2.22" transform="translate(-11.08 26.43) rotate(-3.66)"/><rect class="cls-1" x="393.93" y="43.33" width="2.22" height="29.6" transform="translate(137.99 363.68) rotate(-58.3)"/><rect class="cls-1" x="404.59" y="55.91" width="29.04" height="2.22" transform="translate(52.78 268.45) rotate(-37.74)"/><rect class="cls-1" x="420.22" y="135.16" width="105.19" height="2.22" transform="translate(329.94 607.13) rotate(-89.2)"/><rect class="cls-1" x="506.89" y="73.22" width="2.22" height="123.88" transform="translate(10.62 305.31) rotate(-33.79)"/><rect class="cls-1" x="491.69" y="133.68" width="103.72" height="2.22" transform="translate(397.12 675.32) rotate(-88.77)"/><rect class="cls-1" x="559.71" y="165.16" width="41.01" height="2.22" transform="translate(253.28 673.63) rotate(-73.19)"/><rect class="cls-1" x="565.83" y="113.68" width="70.25" height="2.22" transform="translate(243.4 611.26) rotate(-65.05)"/><rect class="cls-1" x="629.1" y="79.89" width="2.22" height="71.3" transform="translate(7.24 265.26) rotate(-23.9)"/><rect class="cls-1" x="651.33" y="146.74" width="2.22" height="44.99" transform="translate(-18.28 235.99) rotate(-20.22)"/><rect class="cls-1" x="614.29" y="118.12" width="2.22" height="58.54" transform="translate(452.49 758.86) rotate(-88.55)"/><rect class="cls-1" x="616.07" y="55.17" width="20.15" height="2.22" transform="translate(86.61 378.96) rotate(-36.02)"/><path class="cls-2" d="M173.84,217.72c25.4,0,44.14,17.08,44.14,42.23,0,25.31-18.74,42.39-44.14,42.39S129.7,285.26,129.7,260C129.7,234.8,148.43,217.72,173.84,217.72Zm0,72.57c15.08,0,26.36-12.19,26.36-30.34s-11.28-30.18-26.36-30.18c-15.25,0-26.36,12-26.36,30.18S158.59,290.29,173.84,290.29Z"/><path class="cls-2" d="M238.15,219.55h36.52c25.25,0,43.51,16.32,43.51,40.4,0,24.24-18.26,40.56-43.51,40.56H238.15ZM274,288c15.41,0,26.36-10.83,26.36-28.06,0-17.07-10.95-27.9-26.36-27.9H255.3v56Z"/><path class="cls-2" d="M356,271.08l-33.66-51.53h19.53l15.24,24.24,7.78,15.1,7.78-15.1,15.25-24.24h19.05l-33.82,51.53v29.43H356Z"/><path class="cls-2" d="M421.07,284.5c9.21,3.66,19.53,5.95,26.84,5.95,8.57,0,18.1-3.36,18.1-12.66,0-7-8.1-9.15-17-11.59-13.5-3.5-31.6-7.92-31.6-25.46,0-13.87,12.39-23,32.23-23a82.47,82.47,0,0,1,28.74,5.19l-2.69,11.74c-8.74-3.21-18.42-5.19-25.57-5.19-7.94,0-15.88,2.75-15.88,10.52,0,6.25,6.51,8.84,14.29,11,14,3.51,34.3,7.47,34.3,25.61s-17.31,25.77-36,25.77c-9.85,0-19.85-2.44-28.27-5.64Z"/><path class="cls-2" d="M504.12,219.55h62.56l-.95,12.5H521.27v22.26l37.31-1.06v12.5l-37.31-1.07V288H568l-1,12.5H504.12Z"/><path class="cls-2" d="M610.35,219.55h20l33.82,81H645.12l-7.3-20H602.09l-7.3,20H576.53Zm-3.81,48.94h27l-4-10.82L620,231.44l-9.36,26.23Z"/><path class="cls-1" d="M38.19,100.47,120.4,0,17.14,96.4,0,236.63,77,355.06l135.12,41.23,130-55.27L217.47,373.69,98.84,337.2,27.12,226.9Z"/></g></g></svg>