<svg xmlns="http://www.w3.org/2000/svg" viewBox="0 0 637.55 106.68"><defs><style>.cls-1{fill:#fff;}.cls-2{fill:#e1ff6b;}</style></defs><title>Asset 2</title><g id="Layer_2" data-name="Layer 2"><g id="Layer_1-2" data-name="Layer 1"><path class="cls-1" d="M47.51,23.93c-3.1,0-3.11,4.81,0,4.81S50.61,23.93,47.51,23.93Z"/><path class="cls-1" d="M47.51,29.74a3.26,3.26,0,0,1-3.33-3.4A3.35,3.35,0,0,1,50,24a3.54,3.54,0,0,1,.82,2.3A3.26,3.26,0,0,1,47.51,29.74Zm0-4.81a1.41,1.41,0,1,0,1.32,1.4,1.53,1.53,0,0,0-.34-1A1.22,1.22,0,0,0,47.51,24.93Z"/><path class="cls-1" d="M48.15,72.09c-3.1,0-3.1,4.81,0,4.81S51.25,72.09,48.15,72.09Z"/><path class="cls-1" d="M48.15,77.9a3.23,3.23,0,0,1-2.5-1.1,3.52,3.52,0,0,1-.83-2.3,3.33,3.33,0,1,1,3.33,3.4Zm0-4.81a1.32,1.32,0,0,0-1.33,1.41,1.59,1.59,0,0,0,.34,1,1.24,1.24,0,0,0,1,.4,1.41,1.41,0,0,0,0-2.81Z"/><path class="cls-1" d="M78.65,26.82c-3.1,0-3.1,4.81,0,4.81S81.75,26.82,78.65,26.82Z"/><path class="cls-1" d="M78.65,32.63a3.41,3.41,0,0,1,0-6.81,3.22,3.22,0,0,1,2.5,1.1,3.52,3.52,0,0,1,.83,2.3A3.27,3.27,0,0,1,78.65,32.63Zm0-4.81A1.41,1.41,0,1,0,80,29.22,1.32,1.32,0,0,0,78.65,27.82Z"/><path class="cls-1" d="M79.94,71.12c-3.1,0-3.11,4.82,0,4.82S83,71.12,79.94,71.12Z"/><path class="cls-1" d="M79.93,76.94a3.41,3.41,0,1,1,2.51-5.72,3.54,3.54,0,0,1,.82,2.31A3.27,3.27,0,0,1,79.93,76.94Zm0-4.82a1.41,1.41,0,1,0,1.33,1.41A1.32,1.32,0,0,0,79.93,72.12Z"/><path class="cls-1" d="M89.89,71.12c-3.1,0-3.11,4.82,0,4.82S93,71.12,89.89,71.12Z"/><path class="cls-1" d="M89.89,76.94a3.41,3.41,0,1,1,3.32-3.41A3.26,3.26,0,0,1,89.89,76.94Zm0-4.82a1.41,1.41,0,0,0,0,2.82,1.41,1.41,0,0,0,0-2.82Z"/><path class="cls-1" d="M123.92,26.5c-3.1,0-3.1,4.81,0,4.81S127,26.5,123.92,26.5Z"/><path class="cls-1" d="M123.92,32.31a3.41,3.41,0,1,1,3.33-3.41A3.26,3.26,0,0,1,123.92,32.31Zm0-4.81a1.41,1.41,0,1,0,1.33,1.4A1.32,1.32,0,0,0,123.92,27.5Z"/><path class="cls-1" d="M136.76,26.18c-3.1,0-3.1,4.81,0,4.81S139.87,26.18,136.76,26.18Z"/><path class="cls-1" d="M136.76,32a3.26,3.26,0,0,1-3.32-3.4,3.33,3.33,0,1,1,6.65,0A3.26,3.26,0,0,1,136.76,32Zm0-4.81a1.41,1.41,0,1,0,1.33,1.4A1.31,1.31,0,0,0,136.76,27.18Z"/><path class="cls-1" d="M139,71.77c-3.1,0-3.1,4.81,0,4.81S142.11,71.77,139,71.77Z"/><path class="cls-1" d="M139,77.58a3.41,3.41,0,1,1,3.33-3.41A3.26,3.26,0,0,1,139,77.58Zm0-4.81a1.41,1.41,0,1,0,1.33,1.4A1.32,1.32,0,0,0,139,72.77Z"/><path class="cls-1" d="M149.6,26.18c-3.09,0-3.1,4.81,0,4.81S152.71,26.18,149.6,26.18Z"/><path class="cls-1" d="M149.6,32a3.26,3.26,0,0,1-3.32-3.4,3.35,3.35,0,0,1,5.83-2.31,3.5,3.5,0,0,1,.82,2.3A3.26,3.26,0,0,1,149.6,32Zm0-4.81a1.41,1.41,0,1,0,1.33,1.4,1.53,1.53,0,0,0-.34-1A1.23,1.23,0,0,0,149.6,27.18Z"/><path class="cls-1" d="M151.53,72.41c-3.1,0-3.1,4.81,0,4.81S154.64,72.41,151.53,72.41Z"/><path class="cls-1" d="M151.53,78.22a3.23,3.23,0,0,1-2.5-1.1,3.5,3.5,0,0,1-.82-2.3,3.33,3.33,0,1,1,3.32,3.4Zm0-4.81a1.31,1.31,0,0,0-1.32,1.41,1.53,1.53,0,0,0,.34,1,1.2,1.2,0,0,0,1,.4,1.41,1.41,0,0,0,0-2.81Z"/><path class="cls-1" d="M181.71,70.48c-3.1,0-3.1,4.82,0,4.82S184.81,70.48,181.71,70.48Z"/><path class="cls-1" d="M181.71,76.3A3.41,3.41,0,1,1,185,72.89,3.27,3.27,0,0,1,181.71,76.3Zm0-4.82A1.41,1.41,0,1,0,183,72.89,1.33,1.33,0,0,0,181.71,71.48Z"/><path class="cls-1" d="M155.38,12.37c-3.09,0-3.1,4.82,0,4.82S158.49,12.37,155.38,12.37Z"/><path class="cls-1" d="M155.38,18.19a3.23,3.23,0,0,1-2.5-1.1,3.54,3.54,0,0,1-.82-2.31,3.33,3.33,0,1,1,6.65,0A3.27,3.27,0,0,1,155.38,18.19Zm0-4.82a1.32,1.32,0,0,0-1.32,1.41,1.51,1.51,0,0,0,.34,1,1.22,1.22,0,0,0,1,.41,1.33,1.33,0,0,0,1.33-1.41A1.32,1.32,0,0,0,155.38,13.37Z"/><path class="cls-1" d="M194.23,72.09c-3.1,0-3.1,4.81,0,4.81S197.34,72.09,194.23,72.09Z"/><path class="cls-1" d="M194.23,77.9a3.41,3.41,0,0,1,0-6.81,3.2,3.2,0,0,1,2.5,1.1,3.45,3.45,0,0,1,.83,2.3A3.26,3.26,0,0,1,194.23,77.9Zm0-4.81a1.41,1.41,0,1,0,1.33,1.4,1.59,1.59,0,0,0-.34-1A1.23,1.23,0,0,0,194.23,73.09Z"/><path class="cls-1" d="M225.7,26.5c-3.1,0-3.11,4.81,0,4.81S228.8,26.5,225.7,26.5Z"/><path class="cls-1" d="M225.7,32.31a3.26,3.26,0,0,1-3.33-3.4,3.35,3.35,0,0,1,5.83-2.31,3.52,3.52,0,0,1,.82,2.3A3.26,3.26,0,0,1,225.7,32.31Zm0-4.81A1.41,1.41,0,1,0,227,28.9a1.53,1.53,0,0,0-.34-1A1.22,1.22,0,0,0,225.7,27.5Z"/><path class="cls-1" d="M238.22,70.8c-3.1,0-3.11,4.82,0,4.82S241.32,70.8,238.22,70.8Z"/><path class="cls-1" d="M238.22,76.62a3.41,3.41,0,1,1,3.32-3.41A3.27,3.27,0,0,1,238.22,76.62Zm0-4.82a1.41,1.41,0,1,0,1.32,1.41A1.33,1.33,0,0,0,238.22,71.8Z"/><path class="cls-1" d="M256.52,26.5c-3.1,0-3.11,4.81,0,4.81S259.62,26.5,256.52,26.5Z"/><path class="cls-1" d="M256.52,32.31a3.26,3.26,0,0,1-3.33-3.4A3.35,3.35,0,0,1,259,26.6a3.52,3.52,0,0,1,.82,2.3A3.26,3.26,0,0,1,256.52,32.31Zm0-4.81a1.41,1.41,0,1,0,1.32,1.4A1.32,1.32,0,0,0,256.52,27.5Z"/><path class="cls-1" d="M243.67,54.11c-3.09,0-3.1,4.81,0,4.81S246.78,54.11,243.67,54.11Z"/><path class="cls-1" d="M243.67,59.92a3.23,3.23,0,0,1-2.5-1.1,3.5,3.5,0,0,1-.82-2.3,3.33,3.33,0,1,1,3.32,3.4Zm0-4.81a1.32,1.32,0,0,0-1.32,1.41,1.53,1.53,0,0,0,.34,1,1.22,1.22,0,0,0,1,.4,1.41,1.41,0,0,0,0-2.81Z"/><path class="cls-1" d="M257.48,17.51c-3.1,0-3.1,4.81,0,4.81S260.58,17.51,257.48,17.51Z"/><path class="cls-1" d="M257.48,23.32a3.23,3.23,0,0,1-2.5-1.1,3.51,3.51,0,0,1-.83-2.3,3.33,3.33,0,1,1,6.66,0A3.27,3.27,0,0,1,257.48,23.32Zm0-4.81a1.32,1.32,0,0,0-1.33,1.41,1.59,1.59,0,0,0,.34,1,1.24,1.24,0,0,0,1,.4,1.41,1.41,0,0,0,0-2.81Z"/><path class="cls-1" d="M49.76,52.66a1.61,1.61,0,0,0,0,3.21A1.61,1.61,0,0,0,49.76,52.66Z"/><path class="cls-1" d="M49.76,56.87a2.52,2.52,0,0,1-2.55-2.6,2.74,2.74,0,0,1,.62-1.76,2.59,2.59,0,1,1,1.93,4.36Zm0-3.21a.61.61,0,1,0,.55.61.69.69,0,0,0-.15-.45A.47.47,0,0,0,49.76,53.66Z"/><path class="cls-1" d="M60.67,47.85a1.61,1.61,0,0,0,0,3.21A1.61,1.61,0,0,0,60.67,47.85Z"/><path class="cls-1" d="M60.67,52.06a2.52,2.52,0,0,1-2.55-2.61,2.65,2.65,0,0,1,.63-1.75,2.47,2.47,0,0,1,1.92-.85,2.61,2.61,0,0,1,0,5.21Zm0-3.21a.61.61,0,1,0,.55.6.71.71,0,0,0-.14-.45A.48.48,0,0,0,60.67,48.85Z"/><path class="cls-1" d="M93.1,28.26a1.61,1.61,0,0,0,0,3.21A1.61,1.61,0,0,0,93.1,28.26Z"/><path class="cls-1" d="M93.1,32.47a2.52,2.52,0,0,1-2.55-2.6,2.69,2.69,0,0,1,.63-1.76,2.47,2.47,0,0,1,1.92-.85,2.61,2.61,0,0,1,0,5.21Zm0-3.21a.61.61,0,1,0,.55.61.69.69,0,0,0-.15-.45A.45.45,0,0,0,93.1,29.26Z"/><path class="cls-1" d="M122,71a1.61,1.61,0,0,0,0,3.21A1.61,1.61,0,0,0,122,71Z"/><path class="cls-1" d="M122,75.17a2.61,2.61,0,1,1,2.55-2.6A2.52,2.52,0,0,1,122,75.17ZM122,72a.53.53,0,0,0-.55.61.52.52,0,0,0,.55.6.48.48,0,0,0,.41-.15.73.73,0,0,0,.14-.45A.53.53,0,0,0,122,72Z"/><path class="cls-1" d="M138.69,50.42a1.61,1.61,0,0,0,0,3.21A1.61,1.61,0,0,0,138.69,50.42Z"/><path class="cls-1" d="M138.69,54.63A2.61,2.61,0,1,1,141.24,52,2.52,2.52,0,0,1,138.69,54.63Zm0-3.21a.53.53,0,0,0-.55.6.69.69,0,0,0,.14.45.48.48,0,0,0,.41.16.45.45,0,0,0,.4-.16.69.69,0,0,0,.15-.45A.52.52,0,0,0,138.69,51.42Z"/><path class="cls-1" d="M180.75,27.62a1.61,1.61,0,0,0,0,3.21A1.61,1.61,0,0,0,180.75,27.62Z"/><path class="cls-1" d="M180.75,31.83a2.61,2.61,0,1,1,2.55-2.61A2.52,2.52,0,0,1,180.75,31.83Zm0-3.21a.53.53,0,0,0-.55.61.73.73,0,0,0,.14.45.51.51,0,0,0,.41.15.5.5,0,0,0,.4-.15.75.75,0,0,0,.15-.46A.53.53,0,0,0,180.75,28.62Z"/><path class="cls-1" d="M164.37,49.13a1.61,1.61,0,0,0,0,3.21A1.61,1.61,0,0,0,164.37,49.13Z"/><path class="cls-1" d="M164.37,53.34a2.61,2.61,0,1,1,2.55-2.6A2.52,2.52,0,0,1,164.37,53.34Zm0-3.21a.53.53,0,0,0-.55.61.74.74,0,0,0,.15.45.47.47,0,0,0,.4.15.51.51,0,0,0,.41-.15.73.73,0,0,0,.14-.45A.53.53,0,0,0,164.37,50.13Z"/><path class="cls-1" d="M166.3,19.92a1.61,1.61,0,0,0,0,3.21A1.61,1.61,0,0,0,166.3,19.92Z"/><path class="cls-1" d="M166.3,24.13a2.52,2.52,0,0,1-2.55-2.61,2.65,2.65,0,0,1,.63-1.75,2.47,2.47,0,0,1,1.92-.85,2.61,2.61,0,0,1,0,5.21Zm0-3.21a.61.61,0,1,0,.55.6.66.66,0,0,0-.15-.45C166.65,21,166.55,20.92,166.3,20.92Z"/><path class="cls-1" d="M176.25,12.21a1.61,1.61,0,0,0,0,3.21A1.61,1.61,0,0,0,176.25,12.21Z"/><path class="cls-1" d="M176.25,16.42a2.52,2.52,0,0,1-2.55-2.6,2.73,2.73,0,0,1,.63-1.76,2.47,2.47,0,0,1,1.92-.85,2.52,2.52,0,0,1,2.55,2.6A2.52,2.52,0,0,1,176.25,16.42Zm0-3.21a.53.53,0,0,0-.55.61.55.55,0,1,0,1.1,0A.53.53,0,0,0,176.25,13.21Z"/><path class="cls-1" d="M194.87,27.62a1.61,1.61,0,0,0,0,3.21A1.61,1.61,0,0,0,194.87,27.62Z"/><path class="cls-1" d="M194.87,31.83a2.52,2.52,0,0,1-2.55-2.6,2.73,2.73,0,0,1,.63-1.76,2.48,2.48,0,0,1,1.92-.85,2.61,2.61,0,0,1,0,5.21Zm0-3.21a.61.61,0,1,0,.55.6.73.73,0,0,0-.14-.45A.51.51,0,0,0,194.87,28.62Z"/><path class="cls-1" d="M224.73,72.25a1.61,1.61,0,0,0,0,3.21A1.61,1.61,0,0,0,224.73,72.25Z"/><path class="cls-1" d="M224.73,76.46a2.52,2.52,0,0,1-2.55-2.61,2.7,2.7,0,0,1,.63-1.75,2.47,2.47,0,0,1,1.92-.85,2.61,2.61,0,0,1,0,5.21Zm0-3.21a.61.61,0,1,0,.55.6.73.73,0,0,0-.14-.45A.48.48,0,0,0,224.73,73.25Z"/><path class="cls-1" d="M269,55.55a1.61,1.61,0,0,0,0,3.21A1.61,1.61,0,0,0,269,55.55Z"/><path class="cls-1" d="M269,59.76a2.61,2.61,0,1,1,2.55-2.6A2.52,2.52,0,0,1,269,59.76Zm0-3.21a.53.53,0,0,0-.55.61.71.71,0,0,0,.14.45.48.48,0,0,0,.41.15.46.46,0,0,0,.4-.15.74.74,0,0,0,.15-.45A.53.53,0,0,0,269,56.55Z"/><path class="cls-1" d="M275.78,73.85a1.61,1.61,0,0,0,0,3.21A1.61,1.61,0,0,0,275.78,73.85Z"/><path class="cls-1" d="M275.78,78.06a2.61,2.61,0,1,1,2.55-2.6A2.52,2.52,0,0,1,275.78,78.06Zm0-3.21a.53.53,0,0,0-.55.61.66.66,0,0,0,.15.45.61.61,0,0,0,.8,0,.68.68,0,0,0,.15-.45A.53.53,0,0,0,275.78,74.85Z"/><path class="cls-1" d="M264.54,13.17a1.61,1.61,0,0,0,0,3.21A1.61,1.61,0,0,0,264.54,13.17Z"/><path class="cls-1" d="M264.54,17.38a2.52,2.52,0,0,1-2.55-2.6,2.75,2.75,0,0,1,.63-1.76,2.48,2.48,0,0,1,1.92-.85,2.52,2.52,0,0,1,2.55,2.61A2.52,2.52,0,0,1,264.54,17.38Zm0-3.21a.53.53,0,0,0-.55.61.55.55,0,1,0,1.1,0,.69.69,0,0,0-.14-.45A.48.48,0,0,0,264.54,14.17Z"/><rect class="cls-1" x="38.79" y="63.74" width="20.32" height="0.96" transform="translate(-19.62 106.87) rotate(-84.56)"/><rect class="cls-1" x="37.79" y="62.74" width="22.32" height="2.96" transform="translate(-19.6 106.9) rotate(-84.59)"/><rect class="cls-1" x="49.39" y="51.22" width="11.64" height="0.96" transform="translate(-16.45 27.5) rotate(-24.45)"/><rect class="cls-1" x="48.39" y="50.22" width="13.64" height="2.96" transform="translate(-16.44 27.46) rotate(-24.43)"/><rect class="cls-1" x="164.53" y="13" width="0.96" height="31.16" transform="translate(131.34 192.64) rotate(-88.23)"/><rect class="cls-1" x="163.53" y="12.01" width="2.96" height="33.16" transform="translate(131.34 192.64) rotate(-88.23)"/><rect class="cls-1" x="48.15" y="26.12" width="0.96" height="28.05" transform="translate(-3.47 4.62) rotate(-5.25)"/><rect class="cls-1" x="47.15" y="25.12" width="2.96" height="30.05" transform="translate(-3.47 4.62) rotate(-5.25)"/><rect class="cls-1" x="55.97" y="38.7" width="27.06" height="0.96" transform="translate(-5.96 65.09) rotate(-48.36)"/><rect class="cls-1" x="54.97" y="37.7" width="29.06" height="2.96" transform="translate(-5.93 65.17) rotate(-48.42)"/><rect class="cls-1" x="69.66" y="45.91" width="0.96" height="30.84" transform="translate(-22.94 57.26) rotate(-38.66)"/><rect class="cls-1" x="68.66" y="44.91" width="2.96" height="32.84" transform="translate(-22.94 57.26) rotate(-38.66)"/><rect class="cls-1" x="69.12" y="51.38" width="44.42" height="0.96" transform="translate(33.01 139.21) rotate(-85.86)"/><rect class="cls-1" x="68.12" y="50.38" width="46.42" height="2.96" transform="translate(33.04 139.23) rotate(-85.88)"/><rect class="cls-1" x="106.9" y="25.28" width="0.96" height="51.56" transform="translate(-10.17 68.95) rotate(-34.09)"/><rect class="cls-1" x="105.9" y="24.28" width="2.96" height="53.56" transform="translate(-10.17 68.96) rotate(-34.09)"/><rect class="cls-1" x="101.26" y="50.26" width="43.4" height="0.96" transform="translate(65.92 170.9) rotate(-87.03)"/><rect class="cls-1" x="100.26" y="49.25" width="45.4" height="2.96" transform="translate(65.93 170.9) rotate(-87.03)"/><rect class="cls-1" x="137.08" y="28.06" width="0.96" height="23.84" transform="translate(-2.78 11.25) rotate(-4.64)"/><rect class="cls-1" x="136.08" y="27.06" width="2.96" height="25.84" transform="translate(-2.78 11.24) rotate(-4.63)"/><rect class="cls-1" x="138.37" y="51.86" width="0.96" height="22.48" transform="translate(-1.75 3.99) rotate(-1.64)"/><rect class="cls-1" x="137.37" y="50.86" width="2.96" height="24.48" transform="translate(-1.75 3.99) rotate(-1.64)"/><rect class="cls-1" x="158.88" y="39.34" width="27.03" height="0.96" transform="translate(36.28 152.86) rotate(-52.71)"/><rect class="cls-1" x="157.88" y="38.34" width="29.03" height="2.96" transform="translate(36.25 152.83) rotate(-52.7)"/><rect class="cls-1" x="144.15" y="62.13" width="27.29" height="0.96" transform="translate(28.27 172.35) rotate(-61.92)"/><rect class="cls-1" x="143.15" y="61.13" width="29.29" height="2.96" transform="translate(28.31 172.41) rotate(-61.94)"/><rect class="cls-1" x="151.34" y="73.21" width="30.24" height="0.96" transform="matrix(1, -0.06, 0.06, 1, -4.36, 10.77)"/><rect class="cls-1" x="150.34" y="72.21" width="32.24" height="2.96" transform="translate(-4.37 10.79) rotate(-3.67)"/><rect class="cls-1" x="160.2" y="11.57" width="0.96" height="12.83" transform="translate(60.94 145.24) rotate(-58.3)"/><rect class="cls-1" x="159.2" y="10.57" width="2.96" height="14.83" transform="translate(60.94 145.24) rotate(-58.3)"/><rect class="cls-1" x="164.82" y="17.03" width="12.59" height="0.96" transform="translate(25.08 108.4) rotate(-37.74)"/><rect class="cls-1" x="163.82" y="16.03" width="14.59" height="2.96" transform="translate(25.04 108.34) rotate(-37.72)"/><rect class="cls-1" x="171.59" y="51.38" width="45.59" height="0.96" transform="translate(139.82 245.51) rotate(-89.2)"/><rect class="cls-1" x="170.6" y="50.38" width="47.59" height="2.96" transform="translate(139.78 245.5) rotate(-89.19)"/><rect class="cls-1" x="209.16" y="24.53" width="0.96" height="53.69" transform="translate(6.83 125.25) rotate(-33.79)"/><rect class="cls-1" x="208.16" y="23.53" width="2.96" height="55.69" transform="translate(6.83 125.25) rotate(-33.79)"/><rect class="cls-1" x="202.57" y="50.74" width="44.96" height="0.96" transform="translate(169.01 275.12) rotate(-88.77)"/><rect class="cls-1" x="201.57" y="49.74" width="46.96" height="2.96" transform="translate(169.03 275.12) rotate(-88.77)"/><rect class="cls-1" x="232.06" y="64.38" width="17.77" height="0.96" transform="translate(109.19 276.76) rotate(-73.19)"/><rect class="cls-1" x="231.06" y="63.38" width="19.77" height="2.96" transform="translate(108.99 276.64) rotate(-73.14)"/><rect class="cls-1" x="234.71" y="42.07" width="30.45" height="0.96" transform="translate(105.94 251.22) rotate(-65.05)"/><rect class="cls-1" x="233.71" y="41.07" width="32.45" height="2.96" transform="translate(106.01 251.27) rotate(-65.07)"/><rect class="cls-1" x="262.14" y="27.42" width="0.96" height="30.9" transform="translate(5.15 110.08) rotate(-23.9)"/><rect class="cls-1" x="261.14" y="26.42" width="2.96" height="32.9" transform="translate(5.15 110.08) rotate(-23.9)"/><rect class="cls-1" x="271.77" y="56.4" width="0.96" height="19.5" transform="translate(-6.08 98.2) rotate(-20.22)"/><rect class="cls-1" x="270.77" y="55.4" width="2.96" height="21.5" transform="translate(-6.08 98.2) rotate(-20.22)"/><rect class="cls-1" x="255.71" y="43.99" width="0.96" height="25.37" transform="translate(193.05 311.36) rotate(-88.55)"/><rect class="cls-1" x="254.71" y="42.99" width="2.96" height="27.37" transform="translate(193.06 311.36) rotate(-88.55)"/><rect class="cls-1" x="256.48" y="16.7" width="8.73" height="0.96" transform="matrix(0.81, -0.59, 0.59, 0.81, 39.76, 156.68)"/><rect class="cls-1" x="255.48" y="15.71" width="10.73" height="2.96" transform="translate(39.82 156.77) rotate(-36.04)"/><path class="cls-2" d="M320.89,24.53c16.41,0,28.51,11,28.51,27.27s-12.1,27.37-28.51,27.37-28.51-11-28.51-27.37S304.48,24.53,320.89,24.53Zm0,46.86c9.74,0,17-7.88,17-19.59s-7.28-19.5-17-19.5-17,7.78-17,19.5S311.05,71.39,320.89,71.39Z"/><path class="cls-2" d="M362.42,25.71H386c16.3,0,28.09,10.53,28.09,26.09S402.31,78,386,78H362.42Zm23.18,44.2c9.94,0,17-7,17-18.11s-7.08-18-17-18H373.5V69.91Z"/><path class="cls-2" d="M438.51,59,416.77,25.71h12.61l9.85,15.65,5,9.75,5-9.75,9.84-15.65h12.31L449.58,59V78H438.51Z"/><path class="cls-2" d="M480.55,67.65c5.95,2.36,12.62,3.84,17.33,3.84,5.54,0,11.69-2.17,11.69-8.17,0-4.53-5.23-5.91-11-7.49-8.72-2.26-20.41-5.12-20.41-16.44,0-9,8-14.86,20.82-14.86a53.36,53.36,0,0,1,18.56,3.34l-1.74,7.58a52.25,52.25,0,0,0-16.51-3.34c-5.13,0-10.26,1.77-10.26,6.79,0,4,4.21,5.71,9.23,7.09,9,2.26,22.15,4.82,22.15,16.54s-11.17,16.64-23.28,16.64a52.91,52.91,0,0,1-18.25-3.64Z"/><path class="cls-2" d="M534.18,25.71h40.41L574,33.78H545.26V48.15l24.1-.68v8.07l-24.1-.69V69.91h30.15L574.79,78H534.18Z"/><path class="cls-2" d="M602.79,25.71h12.92L637.55,78H625.24l-4.71-12.9H597.45L592.74,78h-11.8Zm-2.46,31.6h17.43l-2.57-7L609,33.39l-6,16.93Z"/><path class="cls-1" d="M10.28,27,32.41,0,4.61,26,0,63.7,20.73,95.58l36.37,11.1,35-14.88-33.56,8.8L26.6,90.77,7.3,61.08Z"/></g></g></svg>