<svg xmlns="http://www.w3.org/2000/svg" viewBox="0 0 664.18 396.29"><defs><style>.cls-1{fill:#e1ff6b;}.cls-2{fill:#fff;}</style></defs><title>Asset 4</title><g id="Layer_2" data-name="Layer 2"><g id="Layer_1-2" data-name="Layer 1"><path class="cls-1" d="M173.84,217.72c25.4,0,44.14,17.08,44.14,42.23,0,25.31-18.74,42.39-44.14,42.39S129.7,285.26,129.7,260C129.7,234.8,148.43,217.72,173.84,217.72Zm0,72.57c15.08,0,26.36-12.19,26.36-30.34s-11.28-30.18-26.36-30.18c-15.25,0-26.36,12-26.36,30.18S158.59,290.29,173.84,290.29Z"/><path class="cls-1" d="M238.15,219.55h36.52c25.25,0,43.51,16.32,43.51,40.4,0,24.24-18.26,40.56-43.51,40.56H238.15ZM274,288c15.41,0,26.36-10.83,26.36-28.06,0-17.07-10.95-27.9-26.36-27.9H255.3v56Z"/><path class="cls-1" d="M356,271.08l-33.66-51.53h19.53l15.24,24.24,7.78,15.1,7.78-15.1,15.25-24.24h19.05l-33.82,51.53v29.43H356Z"/><path class="cls-1" d="M421.07,284.5c9.21,3.66,19.53,5.95,26.84,5.95,8.57,0,18.1-3.36,18.1-12.66,0-7-8.1-9.15-17-11.59-13.5-3.5-31.6-7.92-31.6-25.46,0-13.87,12.39-23,32.23-23a82.47,82.47,0,0,1,28.74,5.19l-2.69,11.74c-8.74-3.21-18.42-5.19-25.57-5.19-7.94,0-15.88,2.75-15.88,10.52,0,6.25,6.51,8.84,14.29,11,14,3.51,34.3,7.47,34.3,25.61s-17.31,25.77-36,25.77c-9.85,0-19.85-2.44-28.27-5.64Z"/><path class="cls-1" d="M504.12,219.55h62.56l-.95,12.5H521.27v22.26l37.31-1.06v12.5l-37.31-1.07V288H568l-1,12.5H504.12Z"/><path class="cls-1" d="M610.35,219.55h20l33.82,81H645.12l-7.3-20H602.09l-7.3,20H576.53Zm-3.81,48.94h27l-4-10.82L620,231.44l-9.36,26.23Z"/><path class="cls-2" d="M38.19,100.47,120.4,0,17.14,96.4,0,236.63,77,355.06l135.12,41.23,130-55.27L217.47,373.69,98.84,337.2,27.12,226.9Z"/><path class="cls-2" d="M133.57,67.3c-8,0-8,12.4,0,12.4S141.56,67.3,133.57,67.3Z"/><path class="cls-2" d="M135.22,191.3c-8,0-8,12.4,0,12.4S143.21,191.3,135.22,191.3Z"/><path class="cls-2" d="M213.75,74.74c-8,0-8,12.4,0,12.4S221.74,74.74,213.75,74.74Z"/><path class="cls-2" d="M217.06,188.82c-8,0-8,12.4,0,12.4S225.05,188.82,217.06,188.82Z"/><path class="cls-2" d="M242.68,188.82c-8,0-8,12.4,0,12.4S250.68,188.82,242.68,188.82Z"/><path class="cls-2" d="M330.31,73.91c-8,0-8,12.4,0,12.4S338.3,73.91,330.31,73.91Z"/><path class="cls-2" d="M363.37,73.09c-8,0-8,12.4,0,12.4S371.37,73.09,363.37,73.09Z"/><path class="cls-2" d="M369.16,190.47c-8,0-8,12.4,0,12.4S377.15,190.47,369.16,190.47Z"/><path class="cls-2" d="M396.44,73.09c-8,0-8,12.4,0,12.4S404.43,73.09,396.44,73.09Z"/><path class="cls-2" d="M401.4,192.12c-8,0-8,12.4,0,12.4S409.39,192.12,401.4,192.12Z"/><path class="cls-2" d="M479.1,187.16c-8,0-8,12.4,0,12.4S487.1,187.16,479.1,187.16Z"/><path class="cls-2" d="M411.32,37.54c-8,0-8,12.4,0,12.4S419.31,37.54,411.32,37.54Z"/><path class="cls-2" d="M511.34,191.3c-8,0-8,12.4,0,12.4S519.33,191.3,511.34,191.3Z"/><path class="cls-2" d="M592.35,73.91c-8,0-8,12.4,0,12.4S600.35,73.91,592.35,73.91Z"/><path class="cls-2" d="M634.51,188c-8,0-8,12.4,0,12.4S642.51,188,634.51,188Z"/><path class="cls-2" d="M637.82,73.91c-8,0-8,12.4,0,12.4S645.81,73.91,637.82,73.91Z"/><path class="cls-2" d="M640.3,50.77c-8,0-8,12.4,0,12.4S648.29,50.77,640.3,50.77Z"/><path class="cls-2" d="M139.35,141.28c-5.32,0-5.32,8.27,0,8.27S144.68,141.28,139.35,141.28Z"/><path class="cls-2" d="M167.46,128.88c-5.32,0-5.33,8.27,0,8.27S172.79,128.88,167.46,128.88Z"/><path class="cls-2" d="M251,78.46c-5.32,0-5.33,8.27,0,8.27S256.28,78.46,251,78.46Z"/><path class="cls-2" d="M325.35,188.4c-5.32,0-5.33,8.27,0,8.27S330.68,188.4,325.35,188.4Z"/><path class="cls-2" d="M368.33,135.5c-5.32,0-5.32,8.26,0,8.26S373.66,135.5,368.33,135.5Z"/><path class="cls-2" d="M476.62,76.81c-5.31,0-5.32,8.26,0,8.26S482,76.81,476.62,76.81Z"/><path class="cls-2" d="M434.47,132.19c-5.32,0-5.33,8.27,0,8.27S439.79,132.19,434.47,132.19Z"/><path class="cls-2" d="M439.43,57c-5.32,0-5.33,8.26,0,8.26S444.75,57,439.43,57Z"/><path class="cls-2" d="M465.05,37.13c-5.32,0-5.33,8.26,0,8.26S470.38,37.13,465.05,37.13Z"/><path class="cls-2" d="M513,76.81c-5.32,0-5.33,8.26,0,8.26S518.32,76.81,513,76.81Z"/><path class="cls-2" d="M589.87,191.71c-5.31,0-5.32,8.27,0,8.27S595.2,191.71,589.87,191.71Z"/><path class="cls-2" d="M658.49,39.61c-5.32,0-5.33,8.26,0,8.26S663.81,39.61,658.49,39.61Z"/><rect class="cls-2" x="111.13" y="169.8" width="52.31" height="2.48" transform="matrix(0.1, -1, 1, 0.1, -46.03, 291.45)"/><rect class="cls-2" x="138.42" y="137.56" width="29.97" height="2.48" transform="translate(-43.68 75.9) rotate(-24.44)"/><rect class="cls-2" x="434.88" y="39.17" width="2.48" height="80.22" transform="translate(343.39 512.74) rotate(-88.23)"/><rect class="cls-2" x="135.22" y="72.93" width="2.48" height="72.22" transform="translate(-9.41 12.95) rotate(-5.25)"/><rect class="cls-2" x="155.35" y="105.32" width="69.68" height="2.48" transform="translate(-15.82 177.91) rotate(-48.36)"/><rect class="cls-2" x="190.61" y="123.91" width="2.48" height="79.4" transform="translate(-60.16 155.7) rotate(-38.66)"/><rect class="cls-2" x="189.22" y="137.98" width="114.38" height="2.48" transform="translate(89.76 374.93) rotate(-85.86)"/><rect class="cls-2" x="286.5" y="70.78" width="2.48" height="132.75" transform="translate(-27.43 184.82) rotate(-34.09)"/><rect class="cls-2" x="271.95" y="135.08" width="111.75" height="2.48" transform="translate(174.73 456.66) rotate(-87.03)"/><rect class="cls-2" x="364.2" y="77.95" width="2.48" height="61.37" transform="translate(-7.58 29.89) rotate(-4.63)"/><rect class="cls-2" x="367.51" y="139.21" width="2.48" height="57.89" transform="translate(-4.65 10.6) rotate(-1.64)"/><rect class="cls-2" x="420.33" y="106.98" width="69.61" height="2.48" transform="translate(93.36 404.83) rotate(-52.72)"/><rect class="cls-2" x="382.39" y="165.67" width="70.26" height="2.48" transform="translate(73.83 456.84) rotate(-61.94)"/><rect class="cls-2" x="400.91" y="194.19" width="77.86" height="2.48" transform="translate(-11.57 28.44) rotate(-3.66)"/><rect class="cls-2" x="423.72" y="35.49" width="2.48" height="33.03" transform="translate(157.39 386.23) rotate(-58.3)"/><rect class="cls-2" x="435.62" y="49.53" width="32.41" height="2.48" transform="translate(63.47 287.21) rotate(-37.75)"/><rect class="cls-2" x="453.06" y="137.98" width="117.4" height="2.48" transform="translate(365.48 649) rotate(-89.21)"/><rect class="cls-2" x="549.78" y="68.85" width="2.48" height="138.25" transform="translate(16.32 329.71) rotate(-33.79)"/><rect class="cls-2" x="532.82" y="136.32" width="115.76" height="2.48" transform="translate(440.38 725.15) rotate(-88.76)"/><rect class="cls-2" x="577.87" y="136.53" width="116.18" height="2.48" transform="translate(482.16 770.04) rotate(-88.55)"/><rect class="cls-2" x="637.74" y="48.7" width="22.49" height="2.48" transform="translate(94.72 391.21) rotate(-36.02)"/></g></g></svg>