<svg width="50" height="47" viewBox="0 0 50 47" fill="none" xmlns="http://www.w3.org/2000/svg"><mask id="a" fill="#fff"><path d="M0 25A25 25 0 0112.49 3.355l3.128 5.41A18.75 18.75 0 006.25 25H0z"/></mask><path d="M0 25A25 25 0 0112.49 3.355l3.128 5.41A18.75 18.75 0 006.25 25H0z" fill="#F28629" stroke="#fff" mask="url(#a)"/><mask id="b" fill="#fff"><path d="M12.5 3.35a25 25 0 0124.99-.006l-3.122 5.414a18.75 18.75 0 00-18.743.004L12.5 3.349z"/></mask><path d="M12.5 3.35a25 25 0 0124.99-.006l-3.122 5.414a18.75 18.75 0 00-18.743.004L12.5 3.349z" fill="#00B6EB" stroke="#fff" mask="url(#b)"/><mask id="c" fill="#fff"><path d="M37.5 3.35A25 25 0 0150 24.99l-12.5.005a12.5 12.5 0 00-6.25-10.82L37.5 3.349z"/></mask><path d="M37.5 3.35A25 25 0 0150 24.99l-12.5.005a12.5 12.5 0 00-6.25-10.82L37.5 3.349z" fill="#33AB4E" stroke="#fff" mask="url(#c)"/><mask id="d" fill="#fff"><path d="M50 25a25 25 0 01-12.49 21.645l-3.128-5.411A18.75 18.75 0 0043.75 25H50z"/></mask><path d="M50 25a25 25 0 01-12.49 21.645l-3.128-5.411A18.75 18.75 0 0043.75 25H50z" fill="#9967A7" stroke="#fff" mask="url(#d)"/><mask id="e" fill="#fff"><path d="M12.5 46.65A25 25 0 010 25.01l6.25-.002a18.75 18.75 0 009.375 16.23L12.5 46.651z"/></mask><path d="M12.5 46.65A25 25 0 010 25.01l6.25-.002a18.75 18.75 0 009.375 16.23L12.5 46.651z" fill="#E93227" stroke="#fff" mask="url(#e)"/></svg>