<svg width="50" height="47" viewBox="0 0 50 47" fill="none" xmlns="http://www.w3.org/2000/svg">
<mask id="path-1-inside-1_96_113" fill="white">
<path d="M0 25C3.83493e-07 20.6134 1.15422 16.3039 3.34675 12.5045C5.53928 8.70513 8.69291 5.54951 12.4909 3.3546L15.6182 8.76595C12.7697 10.4121 10.4045 12.7788 8.76006 15.6284C7.11567 18.4779 6.25 21.71 6.25 25H0Z"/>
</mask>
<path d="M0 25C3.83493e-07 20.6134 1.15422 16.3039 3.34675 12.5045C5.53928 8.70513 8.69291 5.54951 12.4909 3.3546L15.6182 8.76595C12.7697 10.4121 10.4045 12.7788 8.76006 15.6284C7.11567 18.4779 6.25 21.71 6.25 25H0Z" fill="#F28629" stroke="white" mask="url(#path-1-inside-1_96_113)"/>
<mask id="path-2-inside-2_96_113" fill="white">
<path d="M12.5 3.34936C16.2989 1.15604 20.6081 0.000918758 24.9948 5.47684e-07C29.3814 -0.000917662 33.6911 1.1524 37.4909 3.34413L34.3682 8.7581C31.5183 7.1143 28.2861 6.24931 24.9961 6.25C21.7061 6.25069 18.4742 7.11703 15.625 8.76202L12.5 3.34936Z"/>
</mask>
<path d="M12.5 3.34936C16.2989 1.15604 20.6081 0.000918758 24.9948 5.47684e-07C29.3814 -0.000917662 33.6911 1.1524 37.4909 3.34413L34.3682 8.7581C31.5183 7.1143 28.2861 6.24931 24.9961 6.25C21.7061 6.25069 18.4742 7.11703 15.625 8.76202L12.5 3.34936Z" fill="#00B6EB" stroke="white" mask="url(#path-2-inside-2_96_113)"/>
<mask id="path-3-inside-3_96_113" fill="white">
<path d="M37.5 3.34936C41.2989 5.54268 44.4539 8.69698 46.648 12.4955C48.8421 16.2939 49.9982 20.6029 50 24.9895L43.75 24.9921C43.7486 21.7022 42.8816 18.4705 41.236 15.6216C39.5904 12.7727 37.2242 10.407 34.375 8.76202L37.5 3.34936Z"/>
</mask>
<path d="M37.5 3.34936C41.2989 5.54268 44.4539 8.69698 46.648 12.4955C48.8421 16.2939 49.9982 20.6029 50 24.9895L43.75 24.9921C43.7486 21.7022 42.8816 18.4705 41.236 15.6216C39.5904 12.7727 37.2242 10.407 34.375 8.76202L37.5 3.34936Z" fill="#33AB4E" stroke="white" mask="url(#path-3-inside-3_96_113)"/>
<mask id="path-4-inside-4_96_113" fill="white">
<path d="M50 25C50 29.3866 48.8458 33.6961 46.6533 37.4955C44.4607 41.2949 41.3071 44.4505 37.5091 46.6454L31.2545 35.8227C33.1535 34.7252 34.7304 33.1474 35.8266 31.2477C36.9229 29.348 37.5 27.1933 37.5 25H50Z"/>
</mask>
<path d="M50 25C50 29.3866 48.8458 33.6961 46.6533 37.4955C44.4607 41.2949 41.3071 44.4505 37.5091 46.6454L31.2545 35.8227C33.1535 34.7252 34.7304 33.1474 35.8266 31.2477C36.9229 29.348 37.5 27.1933 37.5 25H50Z" fill="#9967A7" stroke="white" mask="url(#path-4-inside-4_96_113)"/>
<mask id="path-5-inside-5_96_113" fill="white">
<path d="M12.5 46.6506C8.70106 44.4573 5.5461 41.303 3.35198 37.5045C1.15787 33.7061 0.00183938 29.3971 2.19256e-06 25.0105L6.25 25.0079C6.25138 28.2978 7.1184 31.5295 8.76399 34.3784C10.4096 37.2273 12.7758 39.593 15.625 41.238L12.5 46.6506Z"/>
</mask>
<path d="M12.5 46.6506C8.70106 44.4573 5.5461 41.303 3.35198 37.5045C1.15787 33.7061 0.00183938 29.3971 2.19256e-06 25.0105L6.25 25.0079C6.25138 28.2978 7.1184 31.5295 8.76399 34.3784C10.4096 37.2273 12.7758 39.593 15.625 41.238L12.5 46.6506Z" fill="#E93227" stroke="white" mask="url(#path-5-inside-5_96_113)"/>
</svg>
