<svg width="50" height="47" viewBox="0 0 50 47" fill="none" xmlns="http://www.w3.org/2000/svg"><mask id="a" fill="white"><path d="M0 25A25 25 0 0 1 12.49 3.355l3.128 5.41A18.75 18.75 0 0 0 6.25 25H0Z"/></mask><path d="M0 25A25 25 0 0 1 12.49 3.355l3.128 5.41A18.75 18.75 0 0 0 6.25 25H0Z" fill="#F28629" stroke="white" mask="url(#a)"/><mask id="b" fill="white"><path d="M12.5 3.35a25 25 0 0 1 24.99-.006l-3.122 5.414a18.75 18.75 0 0 0-18.743.004L12.5 3.349Z"/></mask><path d="M12.5 3.35a25 25 0 0 1 24.99-.006l-3.122 5.414a18.75 18.75 0 0 0-18.743.004L12.5 3.349Z" fill="#00B6EB" stroke="white" mask="url(#b)"/><mask id="c" fill="white"><path d="M37.5 3.35A25 25 0 0 1 50 24.99l-12.5.005a12.5 12.5 0 0 0-6.25-10.82L37.5 3.349Z"/></mask><path d="M37.5 3.35A25 25 0 0 1 50 24.99l-12.5.005a12.5 12.5 0 0 0-6.25-10.82L37.5 3.349Z" fill="#33AB4E" stroke="white" mask="url(#c)"/><mask id="d" fill="white"><path d="M50 25a25 25 0 0 1-12.49 21.645l-3.128-5.411A18.75 18.75 0 0 0 43.75 25H50Z"/></mask><path d="M50 25a25 25 0 0 1-12.49 21.645l-3.128-5.411A18.75 18.75 0 0 0 43.75 25H50Z" fill="#9967A7" stroke="white" mask="url(#d)"/><mask id="e" fill="white"><path d="M12.5 46.65A25 25 0 0 1 0 25.01l6.25-.002a18.75 18.75 0 0 0 9.375 16.23L12.5 46.651Z"/></mask><path d="M12.5 46.65A25 25 0 0 1 0 25.01l6.25-.002a18.75 18.75 0 0 0 9.375 16.23L12.5 46.651Z" fill="#E93227" stroke="white" mask="url(#e)"/></svg>