<svg width="250" height="46" viewBox="0 0 250 46" fill="none" xmlns="http://www.w3.org/2000/svg">
<g clip-path="url(#clip0)">
<path d="M250 0H0V45.8318H250V0Z" fill="#12120D"/>
<path d="M57.2881 0H0V45.8318H57.2881V0Z" fill="#5C5756"/>
<path d="M73.8853 29.2219V15.7067H77.2199V21.1886L82.525 15.7067H86.4911L80.8071 21.4412L86.8953 29.2219H82.7523L78.5841 23.7653L77.2199 24.7V29.2219H73.8853Z" fill="white"/>
<path d="M89.5226 29.2219V15.7067H92.6803L97.2022 22.0222L98.7432 24.4727L98.6674 21.5928V15.6814H101.825V29.1967H98.6674L94.1455 22.8811L92.6045 20.437L92.6803 23.3422V29.2282L89.5226 29.2219Z" fill="white"/>
<path d="M106.221 29.2219V15.7067H109.555V29.2219H106.221Z" fill="white"/>
<path d="M113.951 29.2219V15.7067H117.286V20.9865H123.045V15.7067H126.38V29.2219H123.045V23.4874H117.286V29.2219H113.951Z" fill="white"/>
<path d="M132.013 27.5673C130.716 26.1875 129.993 24.3647 129.993 22.4706C129.993 20.5766 130.716 18.7538 132.013 17.374C133.423 16.1052 135.252 15.403 137.148 15.403C139.044 15.403 140.873 16.1052 142.282 17.374C143.573 18.7573 144.291 20.5788 144.291 22.4706C144.291 24.3625 143.573 26.1839 142.282 27.5673C140.869 28.8283 139.042 29.5252 137.148 29.5252C135.254 29.5252 133.426 28.8283 132.013 27.5673ZM133.428 22.4769C133.372 23.6892 133.743 24.8826 134.476 25.8494C134.792 26.2549 135.197 26.5829 135.659 26.8085C136.12 27.0341 136.628 27.1514 137.142 27.1514C137.656 27.1514 138.163 27.0341 138.625 26.8085C139.087 26.5829 139.491 26.2549 139.807 25.8494C140.537 24.8811 140.908 23.6887 140.855 22.4769C140.909 21.2573 140.538 20.0567 139.807 19.0792C139.491 18.6738 139.087 18.3457 138.625 18.1201C138.163 17.8945 137.656 17.7772 137.142 17.7772C136.628 17.7772 136.12 17.8945 135.659 18.1201C135.197 18.3457 134.792 18.6738 134.476 19.0792C133.742 20.0553 133.371 21.2569 133.428 22.4769Z" fill="white"/>
<path d="M145.983 15.7067H149.697L151.895 22.6033L153.208 26.6452L154.471 22.6033L156.72 15.7067H160.282L155.052 29.2219H151.213L145.983 15.7067Z" fill="white"/>
<path d="M171.542 29.2219L168.738 24.6748L166.591 24.7758V29.1967H163.256V15.6815H169.016C170.403 15.6197 171.768 16.0391 172.881 16.8688C173.375 17.2676 173.768 17.7776 174.027 18.3572C174.286 18.9367 174.404 19.5694 174.372 20.2034C174.389 21.0112 174.155 21.8045 173.702 22.474C173.25 23.1436 172.601 23.6565 171.845 23.9422L175.559 29.1967L171.542 29.2219ZM166.591 22.2749H168.334C168.992 22.3048 169.643 22.1233 170.191 21.757C170.43 21.5833 170.621 21.3523 170.747 21.0851C170.872 20.818 170.929 20.5234 170.911 20.2286C170.93 19.9407 170.88 19.6522 170.763 19.3882C170.646 19.1241 170.467 18.8924 170.241 18.7129C169.719 18.3531 169.093 18.1755 168.46 18.2077H166.566L166.591 22.2749Z" fill="white"/>
<path d="M176.822 29.2219L182.051 15.7067H185.992L191.221 29.2219H187.508L186.542 26.241H181.312L180.378 29.2219H176.822ZM184.653 9.5175L188.544 9.79538L184.679 14.1215H181.849L184.653 9.5175ZM182.658 22.0728L182.077 23.8664H185.79L185.234 22.0728L183.971 18.0308L182.658 22.0728Z" fill="white"/>
<path d="M190.842 18.2077L191.019 15.6814H202.842L202.665 18.2077H198.497V29.2219H195.162V18.2077H190.842Z" fill="white"/>
<path d="M221.688 29.2219V15.7067H225.022V21.1886L230.327 15.7067H234.293L228.609 21.4412L234.697 29.2219H230.554L226.386 23.7653L225.022 24.7V29.2219H221.688Z" fill="white"/>
<path d="M210.774 25.9568C211.653 26.4409 212.653 26.6602 213.654 26.5884C214.989 26.4913 216.241 25.9069 217.172 24.9463C217.797 24.3065 218.277 23.5397 218.58 22.698C218.719 22.2664 218.827 21.8252 218.902 21.3781C219.043 20.2426 218.888 19.0899 218.452 18.0321C218.016 16.9742 217.314 16.047 216.414 15.3404C215.492 14.5999 214.411 14.0833 213.256 13.831C212.795 13.731 212.326 13.6718 211.854 13.6542H211.589C209.538 13.6671 207.571 14.4727 206.101 15.9025C205.053 16.9124 204.268 18.1635 203.815 19.5465C203.642 20.1241 203.509 20.7128 203.417 21.3086C203.325 22.051 203.325 22.8019 203.417 23.5443C203.567 24.7317 203.94 25.8802 204.516 26.9294C204.648 27.1568 204.996 27.7062 205.147 27.9336C206.272 29.468 207.803 30.6579 209.568 31.3692C210.144 31.6121 210.743 31.7962 211.355 31.9187C211.868 32.039 212.39 32.1172 212.915 32.1523C213.994 32.2263 215.078 32.1369 216.13 31.8871L216.629 31.7608L216.982 30.1629C217.127 29.6505 217.21 29.1225 217.229 28.5904C217.229 28.382 217.134 28.2683 216.761 28.1862H216.667C216.504 28.1832 216.344 28.2201 216.199 28.2935C215.072 28.7001 213.866 28.8427 212.675 28.7104C212.249 28.6457 211.827 28.555 211.412 28.4388C211.134 28.3441 210.844 28.2367 210.61 28.1293C208.944 27.4035 207.626 26.0582 206.934 24.3779C206.536 23.4007 206.416 22.3324 206.588 21.2913C206.76 20.2501 207.216 19.2768 207.907 18.4792C208.559 17.7218 209.42 17.1745 210.383 16.9067C211.052 16.7197 211.758 16.6996 212.437 16.8483C213.116 16.9969 213.749 17.3097 214.279 17.7592C214.58 18.0058 214.84 18.2977 215.05 18.6245C215.264 18.9441 215.42 19.299 215.511 19.6729C215.617 20.0853 215.638 20.515 215.574 20.936C215.441 21.6811 215.044 22.3535 214.456 22.8306C214.169 23.0719 213.827 23.2375 213.459 23.3125C213.092 23.3875 212.712 23.3695 212.353 23.2601L212.031 23.8285L211.399 24.839L210.774 25.9568Z" fill="white"/>
<path d="M41.1962 22.1486L37.4447 18.3592C35.8722 16.793 34.3565 14.9741 31.2745 18.5487L38.0195 25.2937L34.9248 28.3883L24.82 18.2835C23.1717 16.6351 21.5801 15.0436 18.7129 18.5361L31.7229 31.5461L28.6535 34.6912L13.0037 19.0476C21.5423 6.96604 25.6347 12.8079 28.2872 15.6057C34.3438 9.227 37.129 11.7595 40.9183 15.6625L44.3097 19.0539L41.1962 22.1486ZM28.6535 6.18291C19.635 6.18291 9.34698 6.96603 9.34698 22.2685C9.34698 37.5711 20.9865 38.3668 28.6535 38.3668C36.3206 38.3668 47.9475 37.6911 47.9475 22.2685C47.9475 6.84604 37.71 6.18291 28.6535 6.18291Z" fill="white"/>
</g>
<defs>
<clipPath id="clip0">
<rect width="250" height="45.8318" fill="white"/>
</clipPath>
</defs>
</svg>
