<svg viewBox="0 0 412 135" xmlns="http://www.w3.org/2000/svg" style="fill-rule:evenodd;clip-rule:evenodd;stroke-linejoin:round;stroke-miterlimit:2"><path d="M185.422 92.155c-4.685-4.505-7.027-10.39-7.027-17.657 0-7.267 2.342-13.152 7.027-17.657 4.685-4.504 10.661-6.756 17.928-6.757 7.267-.001 13.228 2.252 17.883 6.757 4.653 4.504 6.981 10.39 6.982 17.657.001 7.267-2.326 13.153-6.982 17.657-4.655 4.504-10.616 6.756-17.883 6.757-7.267.001-13.243-2.252-17.928-6.757zm11.892-27.433c-1.502 2.374-2.253 5.632-2.252 9.775.001 4.143.751 7.386 2.252 9.729a6.883 6.883 0 006.036 3.514 6.768 6.768 0 005.991-3.558c1.469-2.372 2.203-5.6 2.203-9.684 0-4.145-.736-7.403-2.207-9.775a6.768 6.768 0 00-5.991-3.558 6.868 6.868 0 00-6.032 3.557zm35.404 9.956c0-7.568 2.433-13.559 7.3-17.973a25.711 25.711 0 0117.928-6.622 34.435 34.435 0 0115.853 3.964l-.9 16.036-11.89 2.7-.451-10.811a10.312 10.312 0 00-8.288 2.928c-2.103 2.133-3.154 5.392-3.153 9.775 0 8.288 3.423 12.432 10.27 12.431 3.243 0 7.542-1.021 12.882-3.063l2.25 11.082a46.728 46.728 0 01-17.834 3.784c-6.907 0-12.628-2.072-17.162-6.217-4.534-4.145-6.802-10.149-6.805-18.014zm48.291 23.152V52.785l15.86-2.7.36 5.856c5.64-3.904 10.99-5.856 16.03-5.856a13.04 13.04 0 019.91 4.1c2.58 2.733 3.88 6.622 3.88 11.667v31.982h-16.22V68.371c0-3.843-1.77-5.765-5.31-5.766-2.53 0-5.29 1.021-8.29 3.063V97.83h-16.22zm62.692-70.81l16.49 1.531-12.16 17.748h-12.34l8.01-19.279zm-7.74 70.81V52.785l16.21-2.7v47.742l-16.21.003zm25.222 0V30.084l16.21-2.7v39.82l13.43-16.036h18.74l-17.12 18.916 19.46 27.748h-19.73l-10.18-16.127-4.59 3.063v13.063l-16.22-.001zM168.125 54.138a11.853 11.853 0 00-9.279-4.054c-5.346 0-10.961 2.192-16.846 6.577a11.782 11.782 0 00-10.991-6.577c-4.867 0-9.822 1.952-14.865 5.856l-.36-5.856-15.855 2.7V54.5c10.463 12.432 10.463 30.768 0 43.2v.131h16.216V65.668c2.642-2.041 4.984-3.062 7.027-3.063 3.063 0 4.595 1.922 4.594 5.766V97.83h16.216V68.281c0-.541-.06-1.351-.18-2.432 2.581-2.162 4.984-3.243 7.207-3.243 3 0 4.5 1.922 4.5 5.766v29.459h16.216V65.849c.003-5.104-1.197-9.008-3.6-11.711zM41.062 70.549a33.498 33.498 0 014.053-11.288 18.537 18.537 0 00-2.1-3.052 16.208 16.208 0 00-12.793-6.126 19.37 19.37 0 00-13.694 5.856l-.36-5.856-15.855 2.7v64.864h16.216V96.929a27.433 27.433 0 0010.09 1.983 19.717 19.717 0 0015.586-6.937c.521-.6 1.01-1.226 1.464-1.878a33.328 33.328 0 01-2.607-19.548zM29.188 83.506a7.282 7.282 0 01-6.531 3.694 16.545 16.545 0 01-6.126-1.442V64.947c3-1.8 5.583-2.7 7.748-2.7a5.868 5.868 0 015.405 3.108 16.364 16.364 0 011.8 8.243c.001 4.143-.765 7.446-2.296 9.908z" style="fill:#583527;fill-rule:nonzero"/><path d="M117.716 128.759a2.42 2.42 0 00.562-3.361l-15.564-21.809a2.423 2.423 0 00-3.361-.562l-1.962 1.4-3.883-5.442a29.97 29.97 0 0010.647-22.902c0-16.432-13.521-29.954-29.954-29.954-16.432 0-29.954 13.522-29.954 29.954 0 16.432 13.522 29.954 29.954 29.954 5.418 0 10.735-1.47 15.384-4.252l3.883 5.442-1.961 1.4a2.42 2.42 0 00-.562 3.361l15.564 21.814a2.42 2.42 0 003.361.562l7.846-5.605zM98.992 80.228c-2.014 12.063-12.557 20.991-24.787 20.991-13.786 0-25.13-11.344-25.13-25.13s11.344-25.13 25.13-25.13c1.387 0 2.771.115 4.139.343 13.597 2.272 22.917 15.33 20.646 28.928l.002-.002zm13.963 46.008l-3.923 2.8-12.764-17.886 3.923-2.8 12.764 17.886zM2.542 40h5.822V29.832l2.993-2.255L20.664 40h7.216L15.129 23.395 26.978 10.89h-6.929L8.364 23.313V10.89H2.542V40zm27.552 0h5.412V24.83c1.599-1.23 3.526-2.009 5.043-2.009 1.927 0 3.28.984 3.28 3.69V40h5.412V25.855c0-5.002-2.87-7.298-6.396-7.298-2.378 0-5.043 1.025-7.339 2.788l-.164-2.788-5.248.943V40zm24.108 0h5.412V18.557l-5.412.943V40zm-.533-27.511c0 1.763 1.394 3.075 3.239 3.075 1.804 0 3.239-1.312 3.239-3.075 0-1.804-1.435-3.157-3.239-3.157-1.845 0-3.239 1.353-3.239 3.157zM64.698 40h5.412V24.83c1.599-1.23 3.526-2.009 5.043-2.009 1.927 0 3.28.984 3.28 3.69V40h5.412V25.855c0-5.002-2.87-7.298-6.396-7.298-2.378 0-5.043 1.025-7.339 2.788V8.061l-5.412.943V40zm22.837-10.455c0 6.56 4.551 10.947 10.783 10.947 6.191 0 10.742-4.387 10.742-10.947s-4.551-10.988-10.742-10.988c-6.232 0-10.783 4.428-10.783 10.988zm5.576 0c0-4.305 2.132-7.134 5.207-7.134 3.034 0 5.166 2.829 5.166 7.134 0 4.264-2.132 7.093-5.166 7.093-3.075 0-5.207-2.829-5.207-7.093zM112.873 40h5.412V24.83c1.435-1.23 3.075-2.009 4.428-2.009 1.681 0 2.829.984 2.829 3.69V40h5.412V26.511c0-.574-.041-1.107-.123-1.599 1.476-1.312 3.198-2.091 4.592-2.091 1.64 0 2.788 1.025 2.788 3.69V40h5.412V25.855c0-4.92-2.542-7.298-5.863-7.298-2.337 0-5.125 1.107-7.626 3.157-1.025-2.132-2.829-3.157-5.043-3.157s-4.715 1.025-6.806 2.788l-.164-2.788-5.248.943V40zm34.44-10.455c0 6.56 4.551 10.947 10.783 10.947 6.191 0 10.742-4.387 10.742-10.947s-4.551-10.988-10.742-10.988c-6.232 0-10.783 4.428-10.783 10.988zm5.576 0c0-4.305 2.132-7.134 5.207-7.134 3.034 0 5.166 2.829 5.166 7.134 0 4.264-2.132 7.093-5.166 7.093-3.075 0-5.207-2.829-5.207-7.093zm26.65-21.197c1.64 2.87 1.681 4.715-.205 7.421l2.706 1.189c3.075-2.706 3.772-6.519 1.968-9.799l-4.469 1.189zM172.651 40h5.412V8.061l-5.412.943V40zm9.676-1.025c2.091.861 4.592 1.517 7.216 1.517 4.51 0 8.856-1.886 8.856-6.765 0-4.838-4.756-5.986-8.036-6.724-1.763-.492-3.28-.984-3.28-2.542 0-1.394 1.066-2.255 2.993-2.255 1.763 0 4.264.656 6.56 1.558l.697-3.854a19.904 19.904 0 00-7.134-1.353c-4.797 0-8.077 2.255-8.077 6.273 0 4.838 4.592 6.027 7.913 6.806 1.763.451 3.403.943 3.403 2.46 0 1.681-1.312 2.747-3.485 2.747-1.968 0-4.674-.779-6.929-1.681l-.697 3.813zM202.458 40h5.412v-6.273l2.747-2.091L216.439 40h6.683l-8.979-12.3 7.913-8.651h-6.314l-7.872 8.938V8.061l-5.412.943V40z" style="fill:#583527;fill-rule:nonzero"/><path d="M221.81 19.049l8.241 21.443c-1.804 2.337-3.977 3.69-6.806 4.633l1.558 4.387c6.56-1.312 9.512-5.986 11.316-10.783l7.585-19.68h-5.699l-3.075 9.676-2.05 6.642-2.05-6.642-3.116-9.676h-5.904zm11.562-10.824l-3.772 8.323h4.305l5.084-7.749-5.617-.574z" style="fill:#583527;fill-rule:nonzero"/></svg>