<svg version="1.1" id="Layer_1" xmlns="http://www.w3.org/2000/svg" x="0" y="0" viewBox="0 0 411.9 134.8" style="enable-background:new 0 0 411.9 134.8" xml:space="preserve"><style>.st0{fill:#583527}</style><path class="st0" d="M630.4 319.2c-4.7-4.5-7-10.4-7-17.7 0-7.3 2.3-13.2 7-17.7s10.7-6.8 17.9-6.8c7.3 0 13.2 2.3 17.9 6.8 4.7 4.5 7 10.4 7 17.7s-2.3 13.2-7 17.7-10.6 6.8-17.9 6.8c-7.2-.1-13.2-2.3-17.9-6.8zm11.9-27.5c-1.5 2.4-2.3 5.6-2.3 9.8 0 4.1.8 7.4 2.3 9.7 1.2 2.2 3.5 3.5 6 3.5s4.8-1.4 6-3.6c1.5-2.4 2.2-5.6 2.2-9.7s-.7-7.4-2.2-9.8c-1.2-2.2-3.5-3.6-6-3.6-2.5.2-4.8 1.5-6 3.7zm35.4 10c0-7.6 2.4-13.6 7.3-18s11.3-6.8 17.9-6.6c5.5 0 11 1.4 15.9 4l-.9 16-11.9 2.7-.5-10.8c-3.1-.3-6.1.8-8.3 2.9-2.1 2.1-3.2 5.4-3.2 9.8 0 8.3 3.4 12.4 10.3 12.4 3.2 0 7.5-1 12.9-3.1l2.3 11.1c-5.6 2.4-11.7 3.7-17.8 3.8-6.9 0-12.6-2.1-17.2-6.2-4.5-4.2-6.8-10.2-6.8-18zm48.3 23.1v-45l15.9-2.7.4 5.9c5.6-3.9 11-5.9 16-5.9 3.7-.1 7.3 1.4 9.9 4.1 2.6 2.7 3.9 6.6 3.9 11.7v32h-16.2v-29.5c0-3.8-1.8-5.8-5.3-5.8-2.5 0-5.3 1-8.3 3.1v32.2H726zm62.7-70.8l16.5 1.5-12.2 17.8h-12.3l8-19.3zm-7.7 70.8v-45l16.2-2.7v47.7H781zm25.2 0v-67.7l16.2-2.7v39.8l13.4-16h18.7l-17.1 18.9 19.5 27.7h-19.7L827 308.7l-4.6 3.1v13.1l-16.2-.1zm-193.1-43.7c-2.3-2.7-5.7-4.2-9.3-4.1-5.3 0-11 2.2-16.8 6.6-2-4.2-6.4-6.7-11-6.6-4.9 0-9.8 2-14.9 5.9l-.4-5.9-15.9 2.7v1.7c10.5 12.5 10.5 30.7 0 43.2v.1H561v-32.2c2.6-2 5-3.1 7-3.1 3.1 0 4.6 1.9 4.6 5.8v29.5H589v-29.5c0-.5-.1-1.4-.2-2.4 2.6-2.2 5-3.2 7.2-3.2 3 0 4.5 1.9 4.5 5.8v29.5h16.2v-32c0-5.2-1.2-9.1-3.6-11.8zm-127 16.4c.7-4 2-7.8 4.1-11.3-.6-1.1-1.3-2.1-2.1-3.1-3.1-3.9-7.8-6.2-12.8-6.1-5.2 0-10.1 2.2-13.7 5.9l-.4-5.9-15.9 2.7v64.9h16.2v-20.7c3.2 1.3 6.6 2 10.1 2 6 .2 11.7-2.4 15.6-6.9.5-.6 1-1.2 1.5-1.9-2.9-6.1-3.8-12.9-2.6-19.6zm-11.9 13c-1.3 2.3-3.8 3.8-6.5 3.7-2.1-.1-4.2-.6-6.1-1.4V292c3-1.8 5.6-2.7 7.7-2.7 2.2-.1 4.3 1.1 5.4 3.1 1.3 2.5 1.9 5.4 1.8 8.2 0 4.1-.8 7.4-2.3 9.9z" transform="translate(-445 -227)"/><path class="st0" d="M73.5 82.6c1.1-.8 1.3-2.3.6-3.4L58.5 57.5c-.8-1.1-2.3-1.3-3.4-.6l-2 1.4-3.9-5.4c12.6-10.7 14.3-29.6 3.6-42.2C42.2-2 23.3-3.6 10.6 7S-3.6 36.6 7 49.3c9.5 11.2 25.7 13.9 38.3 6.4l3.9 5.4-2 1.4c-1.1.8-1.3 2.3-.6 3.4l15.6 21.8c.8 1.1 2.3 1.3 3.4.6l7.9-5.7zM54.7 34.1C52.5 47.8 39.5 57 25.8 54.7 12.1 52.5 2.9 39.5 5.2 25.8 7.5 12.1 20.4 2.9 34.1 5.2 47.8 7.5 57 20.4 54.7 34.1zm14 46l-3.9 2.8L52 65l3.9-2.8 12.8 17.9z" transform="translate(44.253 46.134)"/><g style="enable-background:new"><path class="st0" d="M447.5 267v-29.1h5.8v12.4l11.7-12.4h6.9l-11.8 12.5 12.8 16.6h-7.2l-9.3-12.4-3 2.3V267h-5.9zm27.6 0v-20.5l5.2-.9.2 2.8c2.4-1.9 4.9-2.8 7.3-2.8 1.9 0 3.4.6 4.6 1.8 1.2 1.2 1.8 3 1.8 5.5V267h-5.4v-13.5c0-2.5-1.1-3.7-3.3-3.7-1.7 0-3.3.7-5 2V267h-5.4zm23.6-27.5c0-.9.3-1.7.9-2.3.6-.6 1.4-.9 2.3-.9.9 0 1.7.3 2.3.9.6.6.9 1.4.9 2.3 0 .9-.3 1.6-.9 2.2-.6.6-1.4.9-2.3.9-.9 0-1.7-.3-2.3-.9-.6-.6-.9-1.3-.9-2.2zm.5 27.5v-20.5l5.4-.9V267h-5.4zm10.5 0v-31l5.4-.9v13.3c2.4-1.9 4.9-2.8 7.3-2.8 1.9 0 3.4.6 4.6 1.8 1.2 1.2 1.8 3 1.8 5.5V267h-5.4v-13.5c0-2.5-1.1-3.7-3.3-3.7-1.7 0-3.3.7-5 2V267h-5.4zm25.9-2.5c-2-2-3-4.7-3-7.9 0-3.3 1-5.9 3-7.9s4.6-3.1 7.7-3.1c3.1 0 5.7 1 7.7 3.1 2 2 3 4.7 3 7.9 0 3.3-1 5.9-3 7.9s-4.6 3-7.7 3c-3.1 0-5.7-1-7.7-3zm2.5-8c0 2.1.5 3.8 1.5 5.1 1 1.3 2.2 1.9 3.8 1.9 1.5 0 2.8-.6 3.7-1.9 1-1.3 1.4-3 1.4-5.1 0-2.1-.5-3.9-1.4-5.2-1-1.3-2.2-2-3.7-2-1.6 0-2.8.6-3.8 1.9-1 1.5-1.5 3.2-1.5 5.3zm19.8 10.5v-20.5l5.2-.9.2 2.8c2.2-1.9 4.5-2.8 6.8-2.8 2.4 0 4 1.1 5 3.2 2.5-2.1 5.1-3.2 7.6-3.2 1.7 0 3.2.6 4.2 1.9 1.1 1.2 1.6 3.1 1.6 5.4V267h-5.4v-13.5c0-2.5-.9-3.7-2.8-3.7-1.5 0-3 .7-4.6 2.1.1.5.1 1 .1 1.6V267h-5.4v-13.5c0-2.5-.9-3.7-2.8-3.7-1.4 0-2.9.7-4.4 2V267h-5.3zm37.4-2.5c-2-2-3-4.7-3-7.9 0-3.3 1-5.9 3-7.9s4.6-3.1 7.7-3.1c3.1 0 5.7 1 7.7 3.1 2 2 3 4.7 3 7.9 0 3.3-1 5.9-3 7.9s-4.6 3-7.7 3c-3 0-5.6-1-7.7-3zm2.6-8c0 2.1.5 3.8 1.5 5.1 1 1.3 2.2 1.9 3.8 1.9 1.5 0 2.8-.6 3.7-1.9 1-1.3 1.4-3 1.4-5.1 0-2.1-.5-3.9-1.4-5.2-1-1.3-2.2-2-3.7-2-1.6 0-2.8.6-3.8 1.9-1 1.5-1.5 3.2-1.5 5.3zm19.7 10.5v-31l5.4-.9V267h-5.4zm9.7-1l.7-3.8c2.7 1.1 5 1.7 6.9 1.7 1.1 0 1.9-.2 2.6-.7.6-.5.9-1.2.9-2 0-.7-.3-1.2-.9-1.5-.6-.4-1.4-.7-2.5-.9-.9-.2-1.6-.4-2.1-.6-.5-.1-1.2-.4-2-.8s-1.5-.8-1.9-1.2c-.5-.4-.9-1-1.3-1.8-.4-.7-.6-1.6-.6-2.5 0-2 .7-3.5 2.2-4.6 1.5-1.1 3.4-1.6 5.9-1.6 2.5 0 4.8.5 7.1 1.4l-.7 3.9c-2.5-1-4.7-1.6-6.6-1.6-2 0-3 .8-3 2.3 0 .7.3 1.2.8 1.6.6.4 1.4.7 2.4 1 .9.2 1.6.4 2.1.6.5.2 1.2.4 2.1.8.9.4 1.5.8 2 1.2.5.4.9 1 1.3 1.7s.6 1.6.6 2.5c0 2.3-.9 4-2.6 5.1-1.7 1.1-3.8 1.7-6.3 1.7-2.2-.4-4.6-.9-7.1-1.9zm20.2 1v-31l5.4-.9V255l7.9-8.9h6.3l-7.9 8.7 9 12.3h-6.7l-5.8-8.4-2.7 2.1v6.3h-5.5z" transform="translate(-445 -227)"/><path class="st0" d="M666.8 246h5.9l3.1 9.7 2 6.6 2-6.6 3.1-9.7h5.7l-7.6 19.7c-1.1 2.8-2.5 5.2-4.2 7.1-1.7 1.9-4.1 3.1-7.1 3.7l-1.6-4.4c2.9-1 5.2-2.5 6.8-4.6l-8.1-21.5zm11.6-10.8l5.6.6-5.1 7.7h-4.3l3.8-8.3z" transform="translate(-445 -227)"/></g></svg>