<?xml version="1.0" encoding="UTF-8" standalone="no"?><!DOCTYPE svg PUBLIC "-//W3C//DTD SVG 1.1//EN" "http://www.w3.org/Graphics/SVG/1.1/DTD/svg11.dtd"><svg width="100%" height="100%" viewBox="0 0 412 135" version="1.1" xmlns="http://www.w3.org/2000/svg" xmlns:xlink="http://www.w3.org/1999/xlink" xml:space="preserve" style="fill-rule:evenodd;clip-rule:evenodd;stroke-linejoin:round;stroke-miterlimit:2"><g transform="translate(-445 -227)"><path d="M868.878 369.617c-4.685-4.505-7.027-10.39-7.027-17.657 0-7.267 2.342-13.152 7.027-17.657 4.685-4.504 10.661-6.756 17.928-6.757 7.267-.001 13.228 2.252 17.883 6.757 4.653 4.504 6.981 10.39 6.982 17.657.001 7.267-2.326 13.153-6.982 17.657-4.655 4.504-10.616 6.756-17.883 6.757-7.267.001-13.243-2.252-17.928-6.757Zm11.892-27.433c-1.502 2.374-2.253 5.632-2.252 9.775.001 4.143.751 7.386 2.252 9.729a6.883 6.883 0 0 0 6.036 3.514 6.768 6.768 0 0 0 5.991-3.558c1.469-2.372 2.203-5.6 2.203-9.684 0-4.145-.736-7.403-2.207-9.775a6.768 6.768 0 0 0-5.991-3.558 6.868 6.868 0 0 0-6.032 3.557Z" style="fill:rgb(88,53,39);fill-rule:nonzero" transform="translate(-238.456 -50.462)"/><path d="M967.969 352.14c0-7.568 2.433-13.559 7.3-17.973a25.711 25.711 0 0 1 17.928-6.622 34.435 34.435 0 0 1 15.853 3.964l-.9 16.036-11.89 2.7-.451-10.811a10.312 10.312 0 0 0-8.288 2.928c-2.103 2.133-3.154 5.392-3.153 9.775 0 8.288 3.423 12.432 10.27 12.431 3.243 0 7.542-1.021 12.882-3.063l2.25 11.082a46.728 46.728 0 0 1-17.834 3.784c-6.907 0-12.628-2.072-17.162-6.217-4.534-4.145-6.802-10.149-6.805-18.014Z" style="fill:rgb(88,53,39);fill-rule:nonzero" transform="translate(-290.251 -50.462)"/><path d="M1062.3 375.292v-45.045l15.86-2.7.36 5.856c5.64-3.904 10.99-5.856 16.03-5.856a13.04 13.04 0 0 1 9.91 4.1c2.58 2.733 3.88 6.622 3.88 11.667v31.982h-16.22v-29.463c0-3.843-1.77-5.765-5.31-5.766-2.53 0-5.29 1.021-8.29 3.063v32.162h-16.22Z" style="fill:rgb(88,53,39);fill-rule:nonzero" transform="translate(-336.291 -50.462)"/><path d="m1177.13 282.493 16.49 1.531-12.16 17.748h-12.34l8.01-19.279Zm-7.74 70.81v-45.045l16.21-2.7V353.3l-16.21.003Z" style="fill:rgb(88,53,39);fill-rule:nonzero" transform="translate(-388.429 -28.473)"/><path d="M1218.92 353.646V285.9l16.21-2.7v39.82l13.43-16.036h18.74l-17.12 18.916 19.46 27.748h-19.73l-10.18-16.127-4.59 3.063v13.063l-16.22-.001Z" style="fill:rgb(88,53,39);fill-rule:nonzero" transform="translate(-412.737 -28.816)"/><path d="M776.765 331.6a11.853 11.853 0 0 0-9.279-4.054c-5.346 0-10.961 2.192-16.846 6.577a11.782 11.782 0 0 0-10.991-6.577c-4.867 0-9.822 1.952-14.865 5.856l-.36-5.856-15.855 2.7v1.716c10.463 12.432 10.463 30.768 0 43.2v.131h16.216V343.13c2.642-2.041 4.984-3.062 7.027-3.063 3.063 0 4.595 1.922 4.594 5.766v29.459h16.216v-29.549c0-.541-.06-1.351-.18-2.432 2.581-2.162 4.984-3.243 7.207-3.243 3 0 4.5 1.922 4.5 5.766v29.459h16.216v-31.982c.003-5.104-1.197-9.008-3.6-11.711Z" style="fill:rgb(88,53,39);fill-rule:nonzero" transform="translate(-163.64 -50.462)"/><path d="M554.725 348.011a33.498 33.498 0 0 1 4.053-11.288 18.537 18.537 0 0 0-2.1-3.052 16.208 16.208 0 0 0-12.793-6.126 19.37 19.37 0 0 0-13.694 5.856l-.36-5.856-15.855 2.7v64.864h16.216v-20.718a27.433 27.433 0 0 0 10.09 1.983 19.717 19.717 0 0 0 15.586-6.937c.521-.6 1.01-1.226 1.464-1.878a33.328 33.328 0 0 1-2.607-19.548Zm-11.874 12.957a7.282 7.282 0 0 1-6.531 3.694 16.545 16.545 0 0 1-6.126-1.442v-20.811c3-1.8 5.583-2.7 7.748-2.7a5.868 5.868 0 0 1 5.405 3.108 16.364 16.364 0 0 1 1.8 8.243c.001 4.143-.765 7.446-2.296 9.908Z" style="fill:rgb(88,53,39);fill-rule:nonzero" transform="translate(-68.663 -50.462)"/><path d="M673.272 402.457a2.42 2.42 0 0 0 .562-3.361l-15.564-21.809a2.423 2.423 0 0 0-3.361-.562l-1.962 1.4-3.883-5.442a29.97 29.97 0 0 0 10.647-22.902c0-16.432-13.521-29.954-29.954-29.954-16.432 0-29.954 13.522-29.954 29.954 0 16.432 13.522 29.954 29.954 29.954 5.418 0 10.735-1.47 15.384-4.252l3.883 5.442-1.961 1.4a2.42 2.42 0 0 0-.562 3.361l15.564 21.814a2.42 2.42 0 0 0 3.361.562l7.846-5.605Zm-18.724-48.531c-2.014 12.063-12.557 20.991-24.787 20.991-13.786 0-25.13-11.344-25.13-25.13s11.344-25.13 25.13-25.13c1.387 0 2.771.115 4.139.343 13.597 2.272 22.917 15.33 20.646 28.928l.002-.002Zm13.963 46.008-3.923 2.8-12.764-17.886 3.923-2.8 12.764 17.886Z" style="fill:rgb(88,53,39);fill-rule:nonzero" transform="translate(-110.556 -46.698)"/><g transform="translate(445 267)"><path d="M.062 0h.142v-.248l.073-.055L.504 0H.68L.369-.405.658-.71H.489l-.285.303V-.71H.062V0Z" style="fill:rgb(88,53,39);fill-rule:nonzero" transform="scale(41)"/><path d="M.062 0h.132v-.37a.22.22 0 0 1 .123-.049c.047 0 .08.024.08.09V0h.132v-.345c0-.122-.07-.178-.156-.178a.306.306 0 0 0-.179.068L.19-.523.062-.5V0Z" style="fill:rgb(88,53,39);fill-rule:nonzero" transform="matrix(41 0 0 41 27.552 0)"/><path d="M.062 0h.132v-.523L.062-.5V0ZM.049-.671c0 .043.034.075.079.075.044 0 .079-.032.079-.075a.077.077 0 0 0-.079-.077.076.076 0 0 0-.079.077Z" style="fill:rgb(88,53,39);fill-rule:nonzero" transform="matrix(41 0 0 41 51.66 0)"/><path d="M.062 0h.132v-.37a.22.22 0 0 1 .123-.049c.047 0 .08.024.08.09V0h.132v-.345c0-.122-.07-.178-.156-.178a.306.306 0 0 0-.179.068v-.324l-.132.023V0Z" style="fill:rgb(88,53,39);fill-rule:nonzero" transform="matrix(41 0 0 41 62.156 0)"/><path d="M.031-.255c0 .16.111.267.263.267.151 0 .262-.107.262-.267 0-.16-.111-.268-.262-.268-.152 0-.263.108-.263.268Zm.136 0c0-.105.052-.174.127-.174.074 0 .126.069.126.174 0 .104-.052.173-.126.173-.075 0-.127-.069-.127-.173Z" style="fill:rgb(88,53,39);fill-rule:nonzero" transform="matrix(41 0 0 41 86.264 0)"/><path d="M.062 0h.132v-.37a.18.18 0 0 1 .108-.049c.041 0 .069.024.069.09V0h.132v-.329A.238.238 0 0 0 .5-.368a.182.182 0 0 1 .112-.051c.04 0 .068.025.068.09V0h.132v-.345c0-.12-.062-.178-.143-.178a.309.309 0 0 0-.186.077.13.13 0 0 0-.123-.077.269.269 0 0 0-.166.068L.19-.523.062-.5V0Z" style="fill:rgb(88,53,39);fill-rule:nonzero" transform="matrix(41 0 0 41 110.331 0)"/><path d="M.031-.255c0 .16.111.267.263.267.151 0 .262-.107.262-.267 0-.16-.111-.268-.262-.268-.152 0-.263.108-.263.268Zm.136 0c0-.105.052-.174.127-.174.074 0 .126.069.126.174 0 .104-.052.173-.126.173-.075 0-.127-.069-.127-.173Z" style="fill:rgb(88,53,39);fill-rule:nonzero" transform="matrix(41 0 0 41 146.042 0)"/><path d="M.23-.772c.04.07.041.115-.005.181l.066.029c.075-.066.092-.159.048-.239L.23-.772ZM.062 0h.132v-.779l-.132.023V0Z" style="fill:rgb(88,53,39);fill-rule:nonzero" transform="matrix(41 0 0 41 170.109 0)"/><path d="M.042-.025a.468.468 0 0 0 .176.037c.11 0 .216-.046.216-.165 0-.118-.116-.146-.196-.164-.043-.012-.08-.024-.08-.062 0-.034.026-.055.073-.055a.49.49 0 0 1 .16.038L.408-.49a.485.485 0 0 0-.174-.033c-.117 0-.197.055-.197.153 0 .118.112.147.193.166.043.011.083.023.083.06 0 .041-.032.067-.085.067a.513.513 0 0 1-.169-.041l-.017.093Z" style="fill:rgb(88,53,39);fill-rule:nonzero" transform="matrix(41 0 0 41 180.605 0)"/><path d="M.062 0h.132v-.153l.067-.051L.403 0h.163L.347-.3.54-.511H.386l-.192.218v-.486l-.132.023V0Z" style="fill:rgb(88,53,39);fill-rule:nonzero" transform="matrix(41 0 0 41 199.916 0)"/><path d="m.001-.511.201.523a.327.327 0 0 1-.166.113l.038.107C.234.2.306.086.35-.031l.185-.48H.396l-.075.236-.05.162-.05-.162-.076-.236H.001Zm.282-.264-.092.203h.105L.42-.761.283-.775Z" style="fill:rgb(88,53,39);fill-rule:nonzero" transform="matrix(41 0 0 41 221.769 0)"/></g></g></svg>