<svg viewBox="0 0 1134 374" xmlns="http://www.w3.org/2000/svg" style="fill-rule:evenodd;clip-rule:evenodd;stroke-linejoin:round;stroke-miterlimit:2"><g transform="scale(.9088 .9389)"><path style="fill:none" d="M0 0h1247.1v397.746H0z"/><clipPath id="a"><path d="M0 0h1247.1v397.746H0z"/></clipPath><g clip-path="url(#a)"><path d="M37.742 108.532L0 9.053h22.667l20.246 60.284 7.262 23.112 7.373-23.112L77.794 9.053h21.897l-37.852 99.479H37.742zm70.531-94.047c0-3.089 1.1-5.645 3.301-7.668 2.201-2.024 4.842-3.09 8.143-3.09 3.19 0 5.832 1.066 8.142 3.09 2.201 2.023 3.301 4.58 3.301 7.668 0 2.982-1.1 5.539-3.3 7.456-2.201 2.023-4.952 2.982-8.143 2.982-3.301 0-6.052-.959-8.143-2.982-2.2-1.917-3.3-4.367-3.3-7.456zm1.981 94.047V38.449l19.146-3.195v73.278h-19.146zm30.81-17.787c0-14.698 14.084-23.112 42.363-25.35V60.39c0-7.882-3.632-11.716-11.004-11.716-6.602 0-14.524 1.917-23.987 5.858l-2.641-13.313c11.003-3.941 21.347-5.858 30.92-5.858 17.165 0 25.747 9.053 25.747 27.053v24.923c0 3.301.77 5.538 2.311 6.816 1.54 1.278 4.181 1.917 7.923 1.917l-1.981 13.314c-12.984 1.597-21.127-1.704-24.648-9.799-3.41 3.302-7.262 5.858-11.553 7.775-4.291 1.917-8.583 2.876-12.544 2.876-6.162 0-11.224-1.704-15.075-5.22-3.96-3.514-5.831-8.307-5.831-14.271zm18.925-1.598c-.11 2.663.55 4.58 1.981 5.858 1.43 1.278 3.521 1.917 6.272 1.917 4.621 0 9.683-2.236 15.185-6.816V75.3c-15.625 1.81-23.438 6.39-23.438 13.846zm62.61 19.385V38.449l18.485-3.195.55 9.48c8.583-6.391 17.276-9.48 25.859-9.48 6.602 0 11.993 2.13 16.175 6.284 4.29 4.154 6.382 10.438 6.382 18.639v48.355h-19.146V62.414c0-8.414-3.852-12.568-11.554-12.568-5.832 0-11.774 2.343-17.825 6.816v51.87h-18.926zm91.328-8.734c-7.152-6.923-10.673-15.87-10.673-27.053 0-11.077 3.52-20.13 10.673-27.053 7.152-6.923 16.285-10.438 27.398-10.438 11.114 0 20.137 3.515 27.289 10.438 7.042 6.923 10.673 15.976 10.673 27.053s-3.521 20.13-10.673 27.053c-7.042 6.923-16.175 10.331-27.289 10.331-11.113.107-20.246-3.408-27.398-10.331zm9.023-26.947c0 7.243 1.76 13.101 5.171 17.574 3.411 4.474 7.813 6.604 13.204 6.604 5.392 0 9.793-2.237 13.204-6.604 3.412-4.473 5.062-10.331 5.062-17.574 0-7.242-1.76-13.207-5.062-17.68-3.41-4.473-7.812-6.71-13.204-6.71-5.501 0-9.903 2.237-13.314 6.604-3.41 4.473-5.061 10.33-5.061 17.786zm65.25.639c0-11.822 3.741-21.195 11.223-28.011 7.483-6.817 16.836-10.225 28.169-10.225 8.033 0 15.735 1.704 23.327 5.219l-1.43 23.432-14.305 2.982-.55-17.041c-7.922-1.172-14.414.213-19.366 4.26-5.061 4.047-7.482 10.544-7.482 19.491 0 15.124 6.602 22.686 19.806 22.686 6.272 0 13.424-1.597 21.567-4.9l2.86 13.208c-9.462 3.834-18.375 5.751-26.628 5.751-10.673 0-19.586-3.088-26.518-9.372-7.152-6.39-10.673-15.55-10.673-27.48zm27.398-45.052l-16.615-26.52L412.737 0l11.884 16.296L436.505 0l13.204 1.917-16.615 26.52h-17.496zm48.965 80.094V38.449l18.486-3.195.55 9.48c8.583-6.391 17.276-9.48 25.858-9.48 6.602 0 11.994 2.13 16.175 6.284 4.292 4.154 6.382 10.438 6.382 18.639v48.355h-19.146V62.414c0-8.414-3.85-12.568-11.553-12.568-5.832 0-11.774 2.343-17.826 6.816v51.87h-18.926zm76.364-71.574h20.796l11.004 33.018 7.262 22.686 7.262-22.686 10.894-33.018h20.136l-26.738 67.207c-3.851 9.692-8.803 17.787-14.855 24.177-6.052 6.39-14.414 10.65-25.088 12.675l-5.501-15.018c10.233-3.302 18.265-8.52 23.987-15.87l-29.159-73.17zM581.64 0l19.806 1.917-17.936 26.52h-15.184L581.64 0zm-17.496 259.027c-13.974-12.994-20.906-29.928-20.906-50.804 0-20.875 6.932-37.917 20.906-50.804 13.975-12.994 31.69-19.491 53.367-19.491 21.566 0 39.392 6.497 53.146 19.49 13.864 12.995 20.797 29.93 20.797 50.805 0 20.876-6.933 37.917-20.797 50.804-13.864 12.994-31.58 19.491-53.146 19.491-21.677-.106-39.392-6.603-53.367-19.49zM599.575 180c-4.511 6.816-6.712 16.189-6.712 28.118 0 11.929 2.2 21.301 6.712 28.011 4.512 6.71 10.453 10.118 17.936 10.118 7.482 0 13.424-3.408 17.825-10.224 4.402-6.817 6.602-16.083 6.602-27.905 0-11.93-2.2-21.302-6.602-28.118-4.401-6.817-10.343-10.225-17.825-10.225-7.483 0-13.534 3.408-17.936 10.225zm105.303 28.65c0-21.835 7.262-39.09 21.676-51.764 14.525-12.674 32.24-19.065 53.367-19.065 16.065 0 31.8 3.835 47.204 11.397l-2.64 46.224-35.321 7.775-1.32-31.1c-10.234-.533-18.376 2.343-24.648 8.414-6.272 6.178-9.353 15.55-9.353 28.118 0 23.858 10.233 35.787 30.59 35.787 9.682 0 22.446-2.982 38.291-8.84l6.712 31.952c-18.265 7.243-35.87 10.864-53.036 10.864-20.577 0-37.522-5.965-51.056-17.893-13.754-11.93-20.466-29.184-20.466-51.87zm143.594 66.78V145.596l47.205-7.775 1.1 16.829c16.835-11.29 32.68-16.829 47.755-16.829 11.993 0 21.786 3.941 29.489 11.823 7.702 7.881 11.553 19.065 11.553 33.55v92.13H937.38v-84.781c0-11.077-5.282-16.615-15.845-16.615-7.483 0-15.735 2.982-24.648 8.84v92.662h-48.415zM1034.98 71.467l49.075 4.367-36.201 51.124h-36.752l23.878-55.491zm-22.997 203.856V145.596l48.195-7.775v137.502h-48.195zm75.043 0V80.307l48.195-7.775v114.71l39.942-46.225h55.787l-50.945 54.425 57.877 79.881h-58.648l-30.26-46.437-13.643 8.84v37.597h-48.305zM512.758 149.537c-7.152-7.775-16.395-11.716-27.618-11.716-15.955 0-32.57 6.284-50.066 18.959-7.152-12.568-18.045-18.959-32.68-18.959-14.524 0-29.159 5.645-44.233 16.829l-1.1-16.829-47.205 7.775v4.9c18.155 20.982 27.068 49.1 22.116 78.07-2.97 17.148-10.673 33.124-22.116 46.331v.426h48.195v-92.662c7.812-5.858 14.854-8.84 20.906-8.84 9.133 0 13.644 5.538 13.644 16.615v84.78h48.195v-85.1c0-1.597-.22-3.94-.55-7.029 7.702-6.177 14.855-9.372 21.457-9.372 8.912 0 13.424 5.538 13.424 16.615v84.78h48.195v-92.13c.11-14.378-3.411-25.668-10.564-33.443zm-378.076 47.29c1.98-11.61 6.161-22.58 12.103-32.485-1.87-3.195-3.85-6.071-6.272-8.734-10.343-11.716-22.997-17.68-38.071-17.68-14.965 0-28.61 5.645-40.713 16.828l-1.1-16.828-47.205 7.775v186.815H61.62v-59.645c10.013 3.835 20.026 5.752 30.04 5.752 18.925 0 34.44-6.604 46.324-20.024 1.54-1.704 2.97-3.514 4.4-5.431-8.252-17.574-11.002-37.065-7.701-56.343zM99.36 234.105c-4.512 7.136-11.004 10.65-19.476 10.65-5.172 0-11.224-1.384-18.266-4.153v-59.964c8.913-5.22 16.615-7.776 22.997-7.776 7.152 0 12.544 2.983 16.065 8.947 3.521 5.965 5.392 13.846 5.392 23.751.22 11.93-2.091 21.409-6.712 28.545z" style="fill:#fff;fill-rule:nonzero"/><path d="M362.782 364.364c3.191-2.237 3.961-6.604 1.65-9.692l-46.324-62.84c-2.31-3.089-6.822-3.834-10.013-1.598l-5.832 4.048-11.553-15.657c16.065-13.1 26.958-31.207 30.48-51.763 8.142-46.863-24.758-91.384-73.173-99.265-48.415-7.882-94.41 23.964-102.552 70.827-8.143 46.864 24.758 91.49 73.172 99.266 21.127 3.408 42.254-.533 60.41-11.077L290.6 302.27l-5.832 4.047c-3.191 2.237-3.961 6.604-1.65 9.692l46.324 62.84c2.31 3.089 6.822 3.834 10.013 1.598l23.327-16.083zm-55.677-139.739c-6.822 39.515-45.444 66.035-86.047 59.432-40.602-6.604-68.22-43.988-61.399-83.29 6.822-39.3 45.444-66.034 86.047-59.43 40.602 6.603 68.11 43.987 61.399 83.288zm41.483 132.496l-11.664 8.095-37.962-51.55 11.664-8.095 37.962 51.55z" style="fill:#fff;fill-rule:nonzero"/></g></g></svg>