<?xml version="1.0" encoding="UTF-8" standalone="no"?><!DOCTYPE svg PUBLIC "-//W3C//DTD SVG 1.1//EN" "http://www.w3.org/Graphics/SVG/1.1/DTD/svg11.dtd"><svg width="100%" height="100%" viewBox="0 0 1248 407" version="1.1" xmlns="http://www.w3.org/2000/svg" xmlns:xlink="http://www.w3.org/1999/xlink" xml:space="preserve" style="fill-rule:evenodd;clip-rule:evenodd;stroke-linejoin:round;stroke-miterlimit:2"><g transform="scale(1 1.02173)"><path style="fill:none" d="M0 0h1247.1v397.746H0z"/><g transform="matrix(1 0 0 .97874 -51.3 -130.172)"><path d="M618.8 402.8c-14.1-13.5-21.1-31.2-21.1-53s7-39.5 21.1-53c14.1-13.5 32-20.3 53.8-20.3 21.8 0 39.7 6.8 53.7 20.3s21 31.2 21 53-7 39.5-21 53-31.9 20.3-53.7 20.3c-21.8-.1-39.7-6.8-53.8-20.3Zm35.7-82.3c-4.5 7.1-6.8 16.9-6.8 29.3 0 12.4 2.3 22.2 6.8 29.2s10.5 10.5 18.1 10.5c7.6 0 13.6-3.6 18-10.7s6.6-16.8 6.6-29.1c0-12.4-2.2-22.2-6.6-29.3-4.4-7.1-10.4-10.7-18-10.7-7.5.1-13.6 3.6-18.1 10.8Zm106.3 29.8c0-22.7 7.3-40.7 21.9-53.9 14.6-13.2 32.5-19.9 53.8-19.9 16.2 0 32.1 4 47.6 11.9l-2.7 48.1-35.7 8.1-1.4-32.4c-10.3-.5-18.6 2.4-24.9 8.8-6.3 6.4-9.5 16.2-9.5 29.3 0 24.9 10.3 37.3 30.8 37.3 9.7 0 22.6-3.1 38.7-9.2l6.8 33.3c-18.4 7.6-36.2 11.4-53.5 11.4-20.7 0-37.9-6.2-51.5-18.7-13.6-12.4-20.4-30.5-20.4-54.1Zm144.9 69.5V284.6l47.6-8.1 1.1 17.6c16.9-11.7 33-17.6 48.1-17.6 12.1 0 22 4.1 29.7 12.3 7.7 8.2 11.6 19.9 11.6 35v96h-48.7v-88.4c0-11.5-5.3-17.3-15.9-17.3-7.6 0-15.9 3.1-24.9 9.2v96.5h-48.6Zm188.1-212.5 49.5 4.6-36.5 53.3h-37l24-57.9Zm-23.2 212.5V284.6l48.7-8.1v143.3h-48.7Zm75.6.1V216.5l48.7-8.1v119.5l40.3-48.1h56.2l-51.4 56.8 58.4 83.3h-59.2l-30.5-48.4-13.8 9.2v39.2h-48.7ZM566.9 288.7c-7.2-8.1-16.5-12.2-27.8-12.2-16 0-32.9 6.6-50.6 19.7-7.2-13.2-18.2-19.7-33-19.7-14.6 0-29.5 5.9-44.6 17.6l-1.1-17.6-47.6 8.1v5.2c18.3 21.8 27.3 51.2 22.3 81.4-3 17.9-10.7 34.5-22.3 48.2v.4H411v-96.5c7.9-6.1 15-9.2 21.1-9.2 9.2 0 13.8 5.8 13.8 17.3v88.4h48.7v-88.7c0-1.6-.2-4.1-.5-7.3 7.7-6.5 15-9.7 21.6-9.7 9 0 13.5 5.8 13.5 17.3v88.4h48.7v-96c-.1-15.3-3.8-27-11-35.1Zm-381.2 49.2c2-12.1 6.2-23.5 12.2-33.9-1.8-3.3-3.9-6.4-6.3-9.2-10.5-12.3-23.2-18.4-38.4-18.4-15.1 0-28.8 5.9-41.1 17.6l-1.1-17.6-47.6 8.1v194.6h48.7v-62.2c10.1 4 20.2 5.9 30.3 5.9 19.1 0 34.7-6.9 46.8-20.8 1.6-1.8 3-3.7 4.4-5.6-8.5-18-11.3-38.3-7.9-58.5ZM150 376.8c-4.6 7.4-11.1 11.1-19.6 11.1-5.2 0-11.4-1.4-18.4-4.3v-62.4c9-5.4 16.8-8.1 23.2-8.1 7.2 0 12.6 3.1 16.2 9.3 3.6 6.2 5.4 14.5 5.4 24.7.1 12.4-2.2 22.3-6.8 29.7Z" style="fill:white;fill-rule:nonzero"/><path d="M415.7 512.6c3.3-2.3 4-6.8 1.7-10.1l-46.7-65.4c-2.3-3.3-6.8-4-10.1-1.7l-5.9 4.2-11.7-16.3c16.3-13.7 27.2-32.6 30.7-53.9 8.2-48.9-25-95.3-73.8-103.5-48.9-8.2-95.3 25-103.5 73.8-8.2 48.9 25 95.3 73.8 103.5 21.3 3.6 42.7-.6 61-11.5l11.7 16.3-5.9 4.2c-3.3 2.3-4 6.8-1.7 10.1l46.7 65.4c2.3 3.3 6.8 4 10.1 1.7l23.6-16.8ZM359.5 367c-6.9 41.1-45.8 68.8-86.8 62-41-6.9-68.8-45.8-61.9-86.8 6.9-41 45.8-68.8 86.8-61.9 41 6.7 68.7 45.7 61.9 86.7Zm41.9 138-11.8 8.4-38.3-53.7 11.8-8.4 38.3 53.7ZM51.3 142.6h23.2l20.7 63.6 7.4 24.4 7.5-24.4 20.7-63.6h22.3l-38.6 105.1H90L51.3 142.6Zm140.9 59.5v-5.3c0-8-3.7-12.4-11.2-12.4-5.9 0-13.9 1.6-24.6 6.2l-2.7-14.1c10.8-3.8 21.2-6.2 31.7-6.2 17.3 0 26.3 9.3 26.3 28.6v26.3c0 7.1 3.1 9.3 10.5 9.3l-2.1 14.1c-14.4 1.8-21.6-1.9-25.2-10.4-6.8 7-16.4 11.2-24.7 11.2-12.3 0-21.5-7.7-21.5-20.6.2-16.8 16.2-24.5 43.5-26.7Zm-15.5 33.5c5.8 0 12.6-4.6 15.5-7.3v-15.7c-16.7 1.9-24 6.8-24 14.7-.1 5.3 2.9 8.3 8.5 8.3ZM206 135.1l-18.4 28h-15.5l13.6-30 20.3 2Zm26.4 38.6 18.9-3.4.6 10.1c8.3-6.4 17.9-10.1 26.5-10.1 12.7 0 23.1 8.3 23.1 26.3v51.1H282V199c0-9.8-4.9-13.3-11.8-13.3-5.5 0-12.4 2.8-18.2 7.3v54.8h-19.5v-74.1h-.1Zm121.3-3.4c22.4 0 38.8 16 38.8 39.7 0 23.7-16.4 39.5-38.8 39.5-22.5 0-38.9-15.8-38.9-39.5s16.4-39.7 38.9-39.7Zm0 65.3c11 0 18.7-10.2 18.7-25.6 0-15.5-7.7-25.8-18.7-25.8-11.1 0-18.8 10.2-18.8 25.8 0 15.4 7.7 25.6 18.8 25.6Zm88.3-65.3c7.5 0 16 1.8 23.8 5.5l-1.5 24.7-14.7 3.1-.6-18.1c-15.4-2.5-27.5 5.6-27.5 25.2 0 17.3 8.3 24 20.3 24 6.5 0 14.1-1.9 22.1-5.2l3 13.9c-9.8 4.1-18.9 6.1-27.2 6.1-20.7 0-37.9-12.4-37.9-38.8-.1-25.7 17.8-40.4 40.2-40.4Zm-29.4-35.2 14.1-2.1 12.1 17.2L451 133l13.5 2.1-17 28h-17.8l-17.1-28Zm67.2 38.6 18.9-3.4.6 10.1c8.3-6.4 17.9-10.1 26.5-10.1 12.7 0 23.1 8.3 23.1 26.3v51.1h-19.5V199c0-9.8-4.9-13.3-11.8-13.3-5.5 0-12.4 2.8-18.2 7.3v54.8h-19.5v-74.1h-.1Zm120.5-38.6L582 163h-15.5l13.6-30 20.2 2.1Zm-33.4 38.6 19.5-3.4v77.4h-19.5v-74Z" style="fill:white;fill-rule:nonzero"/></g></g></svg>