<?xml version="1.0" encoding="UTF-8" standalone="no"?><!DOCTYPE svg PUBLIC "-//W3C//DTD SVG 1.1//EN" "http://www.w3.org/Graphics/SVG/1.1/DTD/svg11.dtd"><svg width="100%" height="100%" viewBox="0 0 1134 374" version="1.1" xmlns="http://www.w3.org/2000/svg" xmlns:xlink="http://www.w3.org/1999/xlink" xml:space="preserve" style="fill-rule:evenodd;clip-rule:evenodd;stroke-linejoin:round;stroke-miterlimit:2"><g transform="scale(.9088 .9389)"><path style="fill:none" d="M0 0h1247.1v397.746H0z"/><clipPath id="a"><path d="M0 0h1247.1v397.746H0z"/></clipPath><g clip-path="url(#a)"><g transform="matrix(1.10034 0 0 1.06508 -106.513 -159.762)"><path d="m131.1 251.9-34.3-93.4h20.6l18.4 56.6 6.6 21.7 6.7-21.7 18.4-56.6h19.9L153 251.9h-21.9Zm64.1-88.3c0-2.9 1-5.3 3-7.2 2-1.9 4.4-2.9 7.4-2.9 2.9 0 5.3 1 7.4 2.9 2 1.9 3 4.3 3 7.2 0 2.8-1 5.2-3 7-2 1.9-4.5 2.8-7.4 2.8-3 0-5.5-.9-7.4-2.8-2-1.8-3-4.1-3-7Zm1.8 88.3v-65.8l17.4-3v68.8H197Zm28-16.7c0-13.8 12.8-21.7 38.5-23.8v-4.7c0-7.4-3.3-11-10-11-6 0-13.2 1.8-21.8 5.5l-2.4-12.5c10-3.7 19.4-5.5 28.1-5.5 15.6 0 23.4 8.5 23.4 25.4V232c0 3.1.7 5.2 2.1 6.4 1.4 1.2 3.8 1.8 7.2 1.8l-1.8 12.5c-11.8 1.5-19.2-1.6-22.4-9.2-3.1 3.1-6.6 5.5-10.5 7.3-3.9 1.8-7.8 2.7-11.4 2.7-5.6 0-10.2-1.6-13.7-4.9-3.6-3.3-5.3-7.8-5.3-13.4Zm17.2-1.5c-.1 2.5.5 4.3 1.8 5.5 1.3 1.2 3.2 1.8 5.7 1.8 4.2 0 8.8-2.1 13.8-6.4v-13.9c-14.2 1.7-21.3 6-21.3 13Zm56.9 18.2v-65.8l16.8-3 .5 8.9c7.8-6 15.7-8.9 23.5-8.9 6 0 10.9 2 14.7 5.9 3.9 3.9 5.8 9.8 5.8 17.5v45.4H343v-43.3c0-7.9-3.5-11.8-10.5-11.8-5.3 0-10.7 2.2-16.2 6.4v48.7h-17.2Zm83-8.2c-6.5-6.5-9.7-14.9-9.7-25.4 0-10.4 3.2-18.9 9.7-25.4 6.5-6.5 14.8-9.8 24.9-9.8 10.1 0 18.3 3.3 24.8 9.8 6.4 6.5 9.7 15 9.7 25.4 0 10.4-3.2 18.9-9.7 25.4-6.4 6.5-14.7 9.7-24.8 9.7-10.1.1-18.4-3.2-24.9-9.7Zm8.2-25.3c0 6.8 1.6 12.3 4.7 16.5 3.1 4.2 7.1 6.2 12 6.2s8.9-2.1 12-6.2c3.1-4.2 4.6-9.7 4.6-16.5 0-6.8-1.6-12.4-4.6-16.6-3.1-4.2-7.1-6.3-12-6.3-5 0-9 2.1-12.1 6.2-3.1 4.2-4.6 9.7-4.6 16.7Zm59.3.6c0-11.1 3.4-19.9 10.2-26.3 6.8-6.4 15.3-9.6 25.6-9.6 7.3 0 14.3 1.6 21.2 4.9l-1.3 22-13 2.8-.5-16c-7.2-1.1-13.1.2-17.6 4-4.6 3.8-6.8 9.9-6.8 18.3 0 14.2 6 21.3 18 21.3 5.7 0 12.2-1.5 19.6-4.6l2.6 12.4c-8.6 3.6-16.7 5.4-24.2 5.4-9.7 0-17.8-2.9-24.1-8.8-6.5-6-9.7-14.6-9.7-25.8Zm24.9-42.3-15.1-24.9 12.5-1.8 10.8 15.3 10.8-15.3 12 1.8-15.1 24.9h-15.9Zm44.5 75.2v-65.8l16.8-3 .5 8.9c7.8-6 15.7-8.9 23.5-8.9 6 0 10.9 2 14.7 5.9 3.9 3.9 5.8 9.8 5.8 17.5v45.4h-17.4v-43.3c0-7.9-3.5-11.8-10.5-11.8-5.3 0-10.7 2.2-16.2 6.4v48.7H519Zm69.4-67.2h18.9l10 31 6.6 21.3 6.6-21.3 9.9-31h18.3l-24.3 63.1c-3.5 9.1-8 16.7-13.5 22.7s-13.1 10-22.8 11.9l-5-14.1c9.3-3.1 16.6-8 21.8-14.9l-26.5-68.7Zm37-34.7 18 1.8-16.3 24.9h-13.8l12.1-26.7Zm-15.9 243.2c-12.7-12.2-19-28.1-19-47.7s6.3-35.6 19-47.7c12.7-12.2 28.8-18.3 48.5-18.3 19.6 0 35.8 6.1 48.3 18.3 12.6 12.2 18.9 28.1 18.9 47.7s-6.3 35.6-18.9 47.7c-12.6 12.2-28.7 18.3-48.3 18.3-19.7-.1-35.8-6.2-48.5-18.3Zm32.2-74.2c-4.1 6.4-6.1 15.2-6.1 26.4s2 20 6.1 26.3c4.1 6.3 9.5 9.5 16.3 9.5 6.8 0 12.2-3.2 16.2-9.6 4-6.4 6-15.1 6-26.2 0-11.2-2-20-6-26.4-4-6.4-9.4-9.6-16.2-9.6-6.8 0-12.3 3.2-16.3 9.6Zm95.7 26.9c0-20.5 6.6-36.7 19.7-48.6 13.2-11.9 29.3-17.9 48.5-17.9 14.6 0 28.9 3.6 42.9 10.7l-2.4 43.4-32.1 7.3-1.2-29.2c-9.3-.5-16.7 2.2-22.4 7.9-5.7 5.8-8.5 14.6-8.5 26.4 0 22.4 9.3 33.6 27.8 33.6 8.8 0 20.4-2.8 34.8-8.3l6.1 30c-16.6 6.8-32.6 10.2-48.2 10.2-18.7 0-34.1-5.6-46.4-16.8-12.5-11.2-18.6-27.4-18.6-48.7Zm130.5 62.7V286.7l42.9-7.3 1 15.8c15.3-10.6 29.7-15.8 43.4-15.8 10.9 0 19.8 3.7 26.8 11.1 7 7.4 10.5 17.9 10.5 31.5v86.5h-43.8v-79.6c0-10.4-4.8-15.6-14.4-15.6-6.8 0-14.3 2.8-22.4 8.3v87h-44Zm169.5-191.5 44.6 4.1-32.9 48h-33.4l21.7-52.1Zm-20.9 191.4V286.7l43.8-7.3v129.1h-43.8Zm68.2 0V225.4l43.8-7.3v107.7l36.3-43.4h50.7l-46.3 51.1 52.6 75h-53.3l-27.5-43.6-12.4 8.3v35.3h-43.9ZM562.8 290.4c-6.5-7.3-14.9-11-25.1-11-14.5 0-29.6 5.9-45.5 17.8-6.5-11.8-16.4-17.8-29.7-17.8-13.2 0-26.5 5.3-40.2 15.8l-1-15.8-42.9 7.3v4.6c16.5 19.7 24.6 46.1 20.1 73.3-2.7 16.1-9.7 31.1-20.1 43.5v.4h43.8v-87c7.1-5.5 13.5-8.3 19-8.3 8.3 0 12.4 5.2 12.4 15.6v79.6h43.8v-79.9c0-1.5-.2-3.7-.5-6.6 7-5.8 13.5-8.8 19.5-8.8 8.1 0 12.2 5.2 12.2 15.6v79.6h43.8v-86.5c.1-13.5-3.1-24.1-9.6-31.4Zm-343.6 44.4c1.8-10.9 5.6-21.2 11-30.5-1.7-3-3.5-5.7-5.7-8.2-9.4-11-20.9-16.6-34.6-16.6-13.6 0-26 5.3-37 15.8l-1-15.8-42.9 7.3v175.4h43.8v-56c9.1 3.6 18.2 5.4 27.3 5.4 17.2 0 31.3-6.2 42.1-18.8 1.4-1.6 2.7-3.3 4-5.1-7.5-16.5-10-34.8-7-52.9Zm-32.1 35c-4.1 6.7-10 10-17.7 10-4.7 0-10.2-1.3-16.6-3.9v-56.3c8.1-4.9 15.1-7.3 20.9-7.3 6.5 0 11.4 2.8 14.6 8.4 3.2 5.6 4.9 13 4.9 22.3.2 11.2-1.9 20.1-6.1 26.8Z" style="fill:white;fill-rule:nonzero"/><path d="M426.5 492.1c2.9-2.1 3.6-6.2 1.5-9.1l-42.1-59c-2.1-2.9-6.2-3.6-9.1-1.5l-5.3 3.8-10.5-14.7c14.6-12.3 24.5-29.3 27.7-48.6 7.4-44-22.5-85.8-66.5-93.2-44-7.4-85.8 22.5-93.2 66.5-7.4 44 22.5 85.9 66.5 93.2 19.2 3.2 38.4-.5 54.9-10.4l10.5 14.7-5.3 3.8c-2.9 2.1-3.6 6.2-1.5 9.1l42.1 59c2.1 2.9 6.2 3.6 9.1 1.5l21.2-15.1Zm-50.6-131.2c-6.2 37.1-41.3 62-78.2 55.8-36.9-6.2-62-41.3-55.8-78.2 6.2-36.9 41.3-62 78.2-55.8 36.9 6.2 61.9 41.3 55.8 78.2Zm37.7 124.4-10.6 7.6-34.5-48.4 10.6-7.6 34.5 48.4Z" style="fill:white;fill-rule:nonzero"/></g></g></g></svg>