<?xml version="1.0" encoding="utf-8"?>
<!-- Generator: Adobe Illustrator 27.1.1, SVG Export Plug-In . SVG Version: 6.00 Build 0)  -->
<svg version="1.1" id="Layer_1" xmlns="http://www.w3.org/2000/svg" xmlns:xlink="http://www.w3.org/1999/xlink" x="0px" y="0px"
	 viewBox="0 0 1722.8 741.6" style="enable-background:new 0 0 1722.8 741.6;" xml:space="preserve">
<style type="text/css">
	.st0{fill:#D8BF9E;}
	.st1{fill:#FFFFFF;}
</style>
<g>
	<path class="st0" d="M479.7,675.4l1,49.6c0.1,3.9-3,7.1-6.9,7.1L8.1,741.4c-3.9,0.1-7.1-3-7.1-6.9l-1-48.6c-0.1-3.9,3-7.1,6.9-7.1
		l466.7-9.2C476.9,669.5,479.7,672.1,479.7,675.4"/>
	<path class="st0" d="M846.9,683.4l-2,49.6c-0.2,3.9-3.4,6.9-7.3,6.7l-323.7-13.4c-3.9-0.2-6.9-3.4-6.7-7.3l2-48.6
		c0.2-3.9,3.4-6.9,7.3-6.7l324.7,13.4C844.4,677.2,847,680,846.9,683.4"/>
	<path class="st0" d="M1509.3,669.8l1.6,49.6c0.1,3.9-2.9,7.1-6.8,7.2l-461,15c-3.9,0.1-7.1-2.9-7.2-6.8l-1.6-48.6
		c-0.1-3.9,2.9-7.1,6.8-7.2l462-15C1506.4,663.8,1509.2,666.4,1509.3,669.8"/>
	<path class="st0" d="M1268.1,607.1l-2.6,49.6c-0.2,3.9-3.5,6.8-7.4,6.6l-157.7-8.2c-3.9-0.2-6.8-3.5-6.6-7.4l2.5-48.6
		c0.2-3.9,3.5-6.8,7.4-6.6l158.7,8.2C1265.7,600.9,1268.2,603.8,1268.1,607.1"/>
	<path class="st0" d="M1718,597.9l1.6,49.6c0.1,3.9-2.9,7.1-6.8,7.2l-166.8,5.4c-3.9,0.1-7.1-2.9-7.2-6.8l-1.6-48.6
		c-0.1-3.9,2.9-7.1,6.8-7.2l167.8-5.5C1715.1,592,1717.9,594.6,1718,597.9"/>
	<path class="st0" d="M1720.7,684.5l-2.6,49.6c-0.2,3.9-3.5,6.8-7.4,6.6l-166.7-8.7c-3.9-0.2-6.8-3.5-6.6-7.4l2.5-48.6
		c0.2-3.9,3.5-6.8,7.4-6.6l167.7,8.7C1718.3,678.4,1720.9,681.2,1720.7,684.5"/>
	<path class="st0" d="M499,608.2v40.6c0,3.9-3.1,7-7,7H272c-3.9,0-7-3.1-7-7v-39.6c0-3.9,3.1-7,7-7h221
		C496.3,602.2,499,604.8,499,608.2"/>
	<path class="st0" d="M620.6,605.5l0.8,40.6c0.1,3.9-3,7.1-6.9,7.1l-85,1.7c-3.9,0.1-7.1-3-7.1-6.9l-0.8-39.6
		c-0.1-3.9,3-7.1,6.9-7.1l86-1.7C617.8,599.6,620.5,602.2,620.6,605.5"/>
	<polygon class="st1" points="39,437.6 109.5,437.6 109.5,504.2 165.9,437.6 247.8,437.6 168,527.9 253.8,650.7 168,650.7 
		123,579.2 109.5,588.2 109.5,650.7 39,650.7 	"/>
	<polygon class="st1" points="275.8,380.5 340.2,376.8 396.4,450.2 415.6,476.4 413.1,443.5 409,372.8 473.4,369.1 485.8,581.8 
		421.4,585.5 365.1,512.1 345.9,485.9 348.4,518.8 352.5,589.5 288.1,593.2 	"/>
	<path class="st0" d="M885.6,597.2l45.9,8.6c3.8,0.7,6.4,5,5.8,9.6l-14.9,114.2c-0.6,4.6-4.2,7.7-8,7l-45-8.4
		c-3.8-0.7-6.4-5-5.8-9.6l15.1-115.4C879.3,599.3,882.4,596.6,885.6,597.2"/>
	<path class="st0" d="M953.8,603.5l46.3-4.7c3.9-0.4,7.2,3,7.6,7.7l8.5,121c0.3,4.6-2.5,8.7-6.4,9.1l-45.3,4.6
		c-3.9,0.4-7.2-3-7.6-7.7l-8.5-122.2C948.1,607.3,950.5,603.8,953.8,603.5"/>
	<rect x="532.8" y="363.6" class="st1" width="70.5" height="213"/>
	<path class="st1" d="M638.8,85.2c5.9,0,12.9-0.4,21.1-1.3c8.1-0.9,15.8-2.3,23.2-4.2c7.3-1.9,13.6-4.5,18.8-7.8
		c5.1-3.2,7.7-7.1,7.7-11.7c0-3.9-1.4-6.8-4.3-8.5c-2.9-1.8-6-2.6-9.5-2.6c-2.9,0-5.8,0.4-8.9,1.3c-3.1,0.9-6.3,1.9-9.5,3
		c-3.3,1.1-6.6,2.1-9.9,3c-3.3,0.9-6.6,1.3-9.9,1.3c-14.3,0-28.2-1.4-41.9-4.3c-13.7-2.9-27.2-6.4-40.5-10.6
		c-13.3-4.2-26.4-8.8-39.5-13.9c-13.1-5.1-26.2-9.7-39.5-13.9c-13.3-4.2-26.7-7.7-40.3-10.6C442.3,1.4,428.3,0,414.1,0
		c-12.7,0-25,2.2-36.7,6.6c-11.7,4.4-22,10.5-30.9,18.3c-8.9,7.8-16,17.1-21.4,28c-5.4,10.9-8.1,22.6-8.1,35.4
		c0,8.6,1.4,17.1,4.1,25.5c2.7,8.4,6.7,16.1,12,23c5.3,6.9,11.6,12.5,19.1,16.8c7.5,4.3,15.9,6.4,25.3,6.4c3.5,0,7.8-0.6,13-1.8
		c5.1-1.2,10.1-2.9,15-5.1c4.8-2.2,8.9-4.9,12.3-8.1c3.4-3.2,5.1-6.7,5.1-10.7c0-2.4-0.5-4.9-1.5-7.6c-1-2.6-2.2-5.1-3.6-7.4
		c-1.4-2.3-2.9-4.2-4.4-5.8c-1.5-1.5-3-2.3-4.3-2.3c-2.4,0-4.5,1-6.3,3.1c-1.8,2.1-3.7,4.4-5.9,6.9c-2.2,2.5-4.8,4.8-7.7,6.9
		c-3,2.1-6.9,3.1-11.7,3.1c-6.4,0-12.1-1.2-17.1-3.6c-5-2.4-9.3-5.6-12.7-9.7c-3.4-4.1-6-8.9-7.9-14.5c-1.9-5.6-2.8-11.7-2.8-18.3
		c0-9.2,1.8-16.8,5.4-22.7c3.6-5.9,8.3-10.7,14-14.3c5.7-3.6,12.2-6.1,19.4-7.6c7.2-1.4,14.5-2.1,21.7-2.1c10.3,0,19.7,0.5,28.1,1.6
		c8.4,1.1,16.3,2.5,23.5,4.3c7.2,1.8,14,3.6,20.4,5.6c6.4,2,12.6,3.7,18.8,5.3l11.2,4.6c-3.1,4.2-6.8,9-11.2,14.6
		c-4.4,5.6-7.5,11-9.2,16.3c-3.7,11.6-6,24-6.7,37.2c-0.8,13.2-1.2,25.6-1.2,37.2c0,2.2,0.1,5.7,0.2,10.5c0.1,4.8,0.3,10.4,0.7,16.6
		c0.3,6.3,0.7,12.7,1,19.4c0.3,6.7,0.7,13.2,1.2,19.4c0.4,6.3,0.9,11.8,1.3,16.6c0.4,4.8,0.9,8.3,1.3,10.5
		c-0.7,5.3-1.6,9.7-2.8,13.2c-1.2,3.5-2.8,6.7-4.8,9.5c-2,2.9-4.4,5.7-7.4,8.6c-3,2.9-6.5,6.1-10.7,9.9v2.3c0,1.5,0.5,2.9,1.5,3.9
		c1,1.1,2.1,2,3.5,2.6c1.3,0.7,2.7,1.2,4.1,1.5c1.4,0.3,2.5,0.5,3.1,0.5c8.3,0,16.5-2.3,24.3-6.9c7.9-4.6,14.9-10.3,21.1-16.9
		c6.1-6.7,11-13.8,14.5-21.4c3.5-7.6,5.2-14.3,4.9-20.2c-0.9-18.2-1.6-34.3-2.3-48.2c-0.7-13.9-1.3-26.5-1.8-37.7
		c-0.6-11.2-0.9-21.4-1.2-30.8c-0.2-9.3-0.3-18.5-0.3-27.5c0-1.1,0.2-3.5,0.5-7.2c0.3-3.7,0.8-7.5,1.3-11.3c0.5-3.8,1.2-7.2,2-10.2
		c0.8-3,1.5-4.2,2.1-3.8c18.4,4.8,36.8,8.9,55.1,12.2C602,83.6,620.4,85.2,638.8,85.2"/>
	<path class="st1" d="M734.2,128.6c4.4,0,8-0.7,10.9-2.1c2.8-1.4,5.1-3.3,6.7-5.6c1.6-2.3,2.8-4.9,3.5-7.7c0.7-2.8,0.9-5.7,0.7-8.6
		c-0.4-9-2.4-15.3-5.9-19.1c-3.5-3.7-8.1-5.6-13.8-5.6c-9.2,0-15.4,2.5-18.6,7.4c-3.2,4.9-4.8,11.1-4.8,18.6
		c0,6.8,1.6,12.3,4.9,16.5C721,126.6,726.5,128.6,734.2,128.6"/>
	<path class="st1" d="M1312.9,133.6c1.8,0.4,3.1,0.7,3.9,0.7c1.8,0,3.2-0.5,4.3-1.6l28.3-45.7c0.4-1.8,0.7-3,0.7-3.6
		c0-2-0.6-3.5-1.6-4.6c-1.1-1.1-2.4-1.9-3.9-2.3c-0.9-0.4-2.2-0.7-3.9-0.7c-1.8,0-3.5,0.4-5.3,1.3l-28.6,43.8
		c-0.2,0.7-0.4,1.3-0.5,1.8c-0.1,0.5-0.2,1.2-0.2,1.8c0,2.4,0.7,4.4,2.1,5.9C1309.5,131.8,1311.1,132.9,1312.9,133.6"/>
	<path class="st1" d="M1397.8,242.8c-4.8,3.7-10.2,8.3-16.1,13.8c-5.9,5.5-11.9,10.7-17.9,15.8c-6,5-11.9,9.4-17.6,13
		c-5.7,3.6-10.6,5.4-14.8,5.4c-13.4,0-22.8-4.8-28.3-14.5c-5.5-9.7-8.2-22.6-8.2-38.6c0-7.3,0.5-15,1.6-23.1
		c1.1-8.1,2.8-15.7,5.1-22.7c2.3-7,5.2-12.9,8.7-17.8c3.5-4.8,7.6-7.6,12.2-8.2c3.5,0.4,6.5,1.4,8.9,3c2.4,1.5,4.3,3.5,5.8,5.8
		c1.4,2.3,2.5,4.8,3.1,7.4c0.7,2.6,1,5.2,1,7.6c0,5-0.7,9.3-2.1,12.8c-1.4,3.5-4,5.3-7.7,5.3c-4.4,0-9.7-2.6-15.8-7.9
		c-0.2-0.2-0.7-0.3-1.3-0.3c-1.8,0-3.2,1-4.4,3.1c-1.2,2.1-1.8,4.2-1.8,6.4c0,2,0.7,3.4,2,4.3c2.2,1.5,4.8,3.4,7.9,5.6
		c3.1,2.2,6.3,4.3,9.7,6.4c3.4,2.1,7,3.9,10.9,5.4c3.8,1.5,7.6,2.3,11.3,2.3c2.2,0,4.4-1.1,6.6-3.3c2.2-2.2,4.2-4.9,6.1-8.2
		c1.9-3.3,3.3-6.9,4.4-10.7c1.1-3.8,1.6-7.3,1.6-10.4c0-5.9-0.9-11.9-2.8-17.9c-1.9-6-4.5-11.6-7.9-16.6c-3.4-5-7.6-9.2-12.5-12.3
		c-4.9-3.2-10.5-4.8-16.6-4.8c-14.5,0-26.6,2.6-36.4,7.9c-9.8,5.3-17.6,12-23.5,20.1c-5.9,8.1-10.2,17.1-12.8,27
		c-2.6,9.9-3.9,19.4-3.9,28.6v3.3c0,7.3,0.4,14.4,1.2,21.3c-0.8,0.6-1.7,1.2-2.6,1.9c-3.6,2.7-7.4,5.5-11.2,8.4
		c-3.8,2.9-7.4,5.4-10.7,7.7c-3.3,2.3-5.6,3.5-6.9,3.5c-0.4,0-0.7-0.5-0.7-1.6c0-5.3,0.2-12.3,0.5-21.1c0.3-8.8,0.8-17.8,1.3-27.1
		c0.5-9.3,1-18.3,1.3-26.8c0.3-8.6,0.5-15.2,0.5-20.1c0-4.2-0.7-8.3-2-12.3c-1.3-4.1-3.2-7.6-5.6-10.7c-2.4-3.1-5.4-5.5-8.9-7.4
		c-3.5-1.9-7.6-2.8-12.2-2.8c-6.6,0-12,0.7-16.1,2c-4.2,1.3-7.7,3.1-10.7,5.4c-3,2.3-5.5,5-7.6,8.2c-2.1,3.2-4.1,6.5-6.1,10
		l-2.6,4.6c0-3.5,0.1-6.9,0.2-10c0.1-3.2,0.2-6.3,0.2-9.4c0.2-3.7-1.9-6.6-6.3-8.6c-4.4-2-9.3-3-14.8-3c-5,0-9.8,0.9-14.1,2.8
		c-4.4,1.9-6.6,4.8-6.6,8.7c0,11.2,0.1,20.3,0.2,27.5c0.1,7.1,0.2,12.9,0.2,17.3v51c-1.6,1-3.4,2.3-5.6,4c-3.7,2.9-7.6,5.8-11.5,8.7
		c-3.9,3-7.6,5.7-11,8.1c-3.4,2.4-5.8,3.6-7.1,3.6c-0.2,0-0.3-0.3-0.3-1c0-1.1,0.2-2.5,0.7-4.1c0.4-1.6,0.7-2.9,0.7-3.8
		c0.2-4.8,0.5-11.4,0.8-19.7c0.3-8.3,0.7-16.9,1-25.8c0.3-8.9,0.6-17.3,0.8-25.2c0.2-7.9,0.3-13.9,0.3-18.1c0-4.2-0.7-8.3-2-12.3
		c-1.3-4.1-3.2-7.6-5.6-10.7c-2.4-3.1-5.4-5.5-8.9-7.4c-3.5-1.9-7.6-2.8-12.2-2.8c-3.9,0-7.4,0.7-10.2,2c-2.9,1.3-5.4,3.1-7.7,5.4
		c-2.3,2.3-4.4,5-6.4,8.2c-2,3.2-4.1,6.5-6.3,10l-4.3,6.9c0-4.2-0.4-8.2-1.3-12.2c-0.9-3.9-2.2-7.4-3.9-10.4c-1.8-3-4.2-5.4-7.2-7.2
		c-3.1-1.9-6.8-2.8-11.2-2.8c-3.9,0-7.4,0.7-10.4,2c-3,1.3-5.6,3.1-7.9,5.4c-2.3,2.3-4.4,5-6.4,8.2c-2,3.2-3.9,6.5-5.9,10l-2.6,4.6
		c0-3.5,0.1-6.9,0.2-10c0.1-3.2,0.2-6.3,0.2-9.4c0-1.8-0.7-3.3-2-4.8c-1.3-1.4-3-2.6-5.1-3.6c-2.1-1-4.5-1.8-7.2-2.3
		c-2.7-0.5-5.4-0.8-8.1-0.8c-5,0-9.5,0.9-13.5,2.8c-3.9,1.9-5.9,4.8-5.9,8.7c0,11.2,0.1,20.3,0.2,27.5c0.1,7.1,0.2,12.9,0.2,17.3
		h0.3v45.9c-2.4,2.1-4.9,4.3-7.6,6.8c-5.9,5.5-11.9,10.7-17.9,15.8c-6,5-11.9,9.4-17.6,13c-5.7,3.6-10.6,5.4-14.8,5.4
		c-13.4,0-22.8-4.8-28.3-14.5c-5.5-9.7-8.2-22.6-8.2-38.6c0-7.3,0.5-15,1.6-23.1c1.1-8.1,2.8-15.7,5.1-22.7c2.3-7,5.2-12.9,8.7-17.8
		c3.5-4.8,7.6-7.6,12.2-8.2c3.5,0.4,6.5,1.4,8.9,3c2.4,1.5,4.3,3.5,5.8,5.8c1.4,2.3,2.5,4.8,3.1,7.4c0.7,2.6,1,5.2,1,7.6
		c0,5-0.7,9.3-2.1,12.8c-1.4,3.5-4,5.3-7.7,5.3c-4.4,0-9.7-2.6-15.8-7.9c-0.2-0.2-0.7-0.3-1.3-0.3c-1.8,0-3.2,1-4.4,3.1
		c-1.2,2.1-1.8,4.2-1.8,6.4c0,2,0.7,3.4,2,4.3c2.2,1.5,4.8,3.4,7.9,5.6c3.1,2.2,6.3,4.3,9.7,6.4c3.4,2.1,7,3.9,10.9,5.4
		c3.8,1.5,7.6,2.3,11.4,2.3c2.2,0,4.4-1.1,6.6-3.3c2.2-2.2,4.2-4.9,6.1-8.2c1.9-3.3,3.3-6.9,4.4-10.7c1.1-3.8,1.6-7.3,1.6-10.4
		c0-5.9-0.9-11.9-2.8-17.9c-1.9-6-4.5-11.6-7.9-16.6c-3.4-5-7.6-9.2-12.5-12.3c-4.9-3.2-10.5-4.8-16.6-4.8
		c-14.5,0-26.6,2.6-36.4,7.9c-9.8,5.3-17.6,12-23.5,20.1c-5.9,8.1-10.2,17.1-12.8,27c-2.6,9.9-3.9,19.4-3.9,28.6v3.3
		c0,7.2,0.4,14.1,1.1,20.8c-1,0.7-2.1,1.4-3.3,2.3c-3.6,2.6-7.4,5.4-11.2,8.2c-3.8,2.9-7.4,5.4-10.7,7.6c-3.3,2.2-5.6,3.3-6.9,3.3
		c-0.4,0-0.7-0.4-0.7-1.3c0.4-9.6,0.8-19.9,1.2-30.8c0.3-10.9,0.7-21.6,1-32.2c0.3-10.6,0.6-20.8,0.8-30.4
		c0.2-9.6,0.4-18.1,0.7-25.3c-0.2-3.1-2.6-5.3-7.2-6.7c-4.6-1.4-9.8-2.1-15.5-2.1c-5.3,0-10,0.7-14.3,2.1c-4.3,1.4-6.4,3.7-6.4,6.7
		v30.1c0,8.4,0.1,15.9,0.2,22.4c0.1,6.5,0.2,12.3,0.3,17.4c0.1,5.2,0.2,10.3,0.3,15.3c0.1,4,0.1,8.2,0.2,12.5c-1.4,0.9-3,2-4.8,3.3
		c-3.6,2.6-7.4,5.4-11.2,8.2c-3.8,2.9-7.4,5.4-10.7,7.6c-3.3,2.2-5.6,3.3-6.9,3.3c-0.4,0-0.7-0.4-0.7-1.3c1.1-22.8,2-43.6,2.6-62.3
		c0.7-18.8,1.2-36.5,1.6-53.1c0-2.6-0.8-4.6-2.3-5.9c-1.5-1.3-3.5-2.3-5.8-3c-2.3-0.7-4.7-1-7.2-1.2c-2.5-0.1-4.6-0.2-6.1-0.2
		c-2.9,0-5.3,0.3-7.2,1s-3.7,1.4-5.3,2.1c-1.5,0.8-3.1,1.5-4.6,2.1c-1.5,0.7-3.3,1-5.3,1c-13.8,0.2-25.7,2.9-35.5,8.1
		c-9.9,5.2-18,12.1-24.5,20.9c-6.5,8.8-11.2,19.1-14.3,30.9c-3.1,11.8-4.6,24.7-4.6,38.5c0,5,1,10.6,3.1,16.6
		c2.1,6,5.2,11.7,9.2,16.9c4.1,5.3,9.2,9.7,15.3,13.2c6.1,3.5,13.3,5.3,21.4,5.3c6.6,0,12.5-1.4,17.8-4.1c5.3-2.7,9.5-6,12.8-9.7
		c1.1,3.1,3.1,6.4,6.1,9.9c3,3.5,6.5,5.3,10.7,5.3c6.4,0,12.7-1.7,19.1-5.1c6.4-3.4,12.4-7.5,18.3-12.3c5.8-4.8,11.2-9.8,16.3-14.8
		c0.9-0.9,1.8-1.7,2.6-2.6v3.6v6.9c0,2.4,0.2,4.8,0.7,7.2c0,10.1-0.4,19.1-1.2,27.1c-0.8,8-2.9,14.8-6.3,20.4
		c-3.4,5.6-8.6,9.9-15.5,12.8c-6.9,3-16.5,4.4-28.8,4.4c-2.4,0-3.6,1.1-3.6,3.3c0,1.3,0.6,2.9,1.8,4.8c1.2,1.9,2.7,3.6,4.4,5.3
		c1.8,1.6,3.8,3,6.1,4.1c2.3,1.1,4.7,1.6,7.1,1.6c10.5,0,20-2,28.3-6.1c8.3-4.1,15.6-9.4,21.7-16.1c6.1-6.7,11.2-14.5,15.1-23.4
		c3.9-8.9,6.7-18.2,8.2-27.8c0.7-2,2.8-4.6,6.6-7.9c3.7-3.3,8-6.8,12.8-10.5c4.8-3.7,9.7-7.3,14.6-10.7c0.6-0.4,1.2-0.9,1.9-1.3
		c1.6,6.6,4,12.7,7.2,18.1c4.2,7.1,10,12.8,17.6,16.9c7.6,4.2,17.5,6.3,29.8,6.3c5.3,0,10.5-0.7,15.8-1.9c5.3-1.3,10.3-3,15-5
		c4.7-2.1,9-4.3,12.8-6.8c3.8-2.5,7-4.9,9.4-7.3c2.8-2.4,6.3-5.4,10.4-9c4.1-3.6,8.1-7.3,12-11.2c1.2-1.2,2.4-2.3,3.6-3.5v34.6
		c0,1.3,0.7,2.4,2,3.1c1.3,0.8,2.8,1.3,4.6,1.6c1.8,0.3,3.5,0.5,5.3,0.7c1.8,0.1,3.1,0.2,3.9,0.2h4.6c2.2,0,4.5-0.1,6.9-0.3
		c2.4-0.2,4.5-0.5,6.4-1c1.9-0.4,2.8-1.1,2.8-2l0.3-4.3v-26c0-11.2,0.2-22.2,0.5-32.9c0.3-10.7,1.2-20.4,2.5-29
		c1.3-8.6,3.3-15.5,6.1-20.7c2.7-5.3,6.5-7.9,11.3-7.9c0.7,0,1.2,0.5,1.5,1.5c0.3,1,0.5,3.1,0.5,6.4V213c0,5.8-0.1,12.4-0.2,19.7
		c-0.1,7.4-0.2,16.4-0.3,27.1c-0.1,10.7-0.2,25-0.2,42.8c0,1.3,0.7,2.4,2,3.1c1.3,0.8,2.8,1.3,4.6,1.6c1.8,0.3,3.5,0.5,5.3,0.7
		c1.8,0.1,3.1,0.2,3.9,0.2h4.6c2.2,0,4.5-0.1,6.9-0.3c2.4-0.2,4.5-0.5,6.4-1c1.9-0.4,2.8-1.1,2.8-2l0.3-4.3v-26
		c0-11.2,0.2-22.2,0.5-32.9c0.3-10.7,1.2-20.4,2.5-29c1.3-8.6,3.3-15.5,6.1-20.7c2.7-5.3,6.5-7.9,11.4-7.9c0.7,0,1.2,0.5,1.5,1.5
		c0.3,1,0.5,3.1,0.5,6.4c0,2.6-0.1,6.2-0.3,10.7c-0.2,4.5-0.5,10.3-0.8,17.3c-0.3,7-0.6,15.5-0.8,25.3c-0.2,9.9-0.3,21.5-0.3,34.9
		c0,3.1,0.3,6.3,1,9.5c0.7,3.3,1.8,6.4,3.3,9.2c1.5,2.9,3.6,5.2,6.1,6.9c2.5,1.8,5.8,2.6,9.7,2.6c6.4,0,12.7-1.7,19.1-5.1
		c6.4-3.4,12.4-7.5,18.3-12.3c5.8-4.8,11.2-9.8,16.3-14.8c1.1-1.1,2.2-2.2,3.3-3.2v30.5c0,1.3,0.7,2.4,2,3.1
		c1.3,0.8,2.9,1.3,4.8,1.6c1.9,0.3,3.7,0.5,5.4,0.7c1.8,0.1,3.1,0.2,3.9,0.2h4.6c2.2,0,4.5-0.1,6.9-0.3c2.4-0.2,4.5-0.5,6.4-1
		c1.9-0.4,2.8-1.1,2.8-2l0.3-4.3c0.9-12.5,1.7-25.7,2.5-39.5c0.8-13.8,2-26.5,3.6-38c1.6-11.5,4.1-21.1,7.2-28.6
		c3.2-7.6,7.7-11.4,13.7-11.4c1.8,0,3.2,1.8,4.4,5.4c1.2,3.6,1.7,8.2,1.5,13.7l-1.6,75.7c-0.4,3.3-0.4,6.7,0,10.2
		c0.4,3.5,1.4,6.7,3,9.5c1.5,2.9,3.6,5.2,6.1,7.1c2.5,1.9,5.8,2.8,9.7,2.8c6.4,0,12.7-1.7,19.1-5.1c6.4-3.4,12.4-7.5,18.3-12.3
		c5.8-4.8,11.2-9.8,16.3-14.8c1.2-1.2,2.3-2.3,3.4-3.3c1.6,6.1,3.9,11.6,6.8,16.6c4.2,7.1,10,12.8,17.6,16.9
		c7.6,4.2,17.5,6.3,29.8,6.3c5.3,0,10.5-0.7,15.8-1.9c5.3-1.3,10.3-3,15-5c4.7-2.1,9-4.3,12.8-6.8c3.8-2.5,7-4.9,9.4-7.3
		c2.8-2.4,6.3-5.4,10.4-9c4.1-3.6,8.1-7.3,12-11.2c3.9-3.8,7.7-7.3,11.2-10.5c3.5-3.2,6.3-5.6,8.2-7.4L1397.8,242.8z M637.8,237.9
		v39.5c-0.7,2.4-1.4,4.3-2.3,5.6c-0.9,1.3-2.5,2-4.9,2c-5.9,0-10.6-2-14-6.1c-3.4-4.1-6-9-7.9-15c-1.9-5.9-3-12.2-3.5-18.9
		c-0.4-6.7-0.7-12.7-0.7-17.9c0-6.1,0.1-12.4,0.3-18.8c0.2-6.4,1-12.2,2.5-17.4c1.4-5.3,3.6-9.5,6.6-12.8c3-3.3,7.3-4.9,13-4.9
		c1.8,0,3.9,0.2,6.6,0.5c2.6,0.3,3.9,1.4,3.9,3.1c0.2,16.4,0.3,29.2,0.3,38.3V237.9z"/>
	<polygon class="st1" points="633.2,442.6 703.7,441.3 705.2,518 765.2,516.9 763.7,440.1 834.1,438.7 838.3,651.7 767.8,653 
		766.2,569.4 706.2,570.5 707.9,654.2 637.4,655.6 	"/>
	<path class="st1" d="M966.3,368c64.2,0,111,44.4,111,110.1c0,65.7-46.8,110.1-111,110.1c-64.2,0-111-44.4-111-110.1
		C855.3,412.4,902.1,368,966.3,368 M966.3,535.8c21.3,0,37.5-22.8,37.5-57.6c0-34.8-16.2-57.6-37.5-57.6
		c-21.3,0-37.5,22.8-37.5,57.6C928.8,513,945,535.8,966.3,535.8"/>
	<polygon class="st1" points="1066.9,362.3 1145.1,359.8 1177.7,484.2 1185.4,519.4 1190.9,483.8 1215.3,357.5 1290.5,355.1 
		1228.2,570.2 1143,573 	"/>
	<polygon class="st1" points="1303.7,423.7 1368.1,427 1416,506.1 1432.2,534.3 1433.4,501.3 1437,430.6 1501.4,433.9 1490.4,646.6 
		1426,643.3 1378.1,564.2 1361.9,536 1360.7,569 1357.1,639.7 1292.7,636.4 	"/>
	<polygon class="st1" points="1576.6,508 1501,361.6 1580.2,361.6 1603,420.4 1614.1,451.3 1624.9,420.4 1647.7,361.6 1722.8,361.6 
		1647.1,508 1647.1,574.7 1576.6,574.7 	"/>
</g>
</svg>
