<?xml version="1.0" encoding="utf-8"?>
<!-- Generator: Adobe Illustrator 27.1.1, SVG Export Plug-In . SVG Version: 6.00 Build 0)  -->
<svg version="1.1" id="Layer_1" xmlns="http://www.w3.org/2000/svg" xmlns:xlink="http://www.w3.org/1999/xlink" x="0px" y="0px"
	 viewBox="0 0 1554.7 786.4" style="enable-background:new 0 0 1554.7 786.4;" xml:space="preserve">
<style type="text/css">
	.st0{clip-path:url(#SVGID_00000122702475767742478840000005649393415075564987_);fill:#D8BF9E;}
	.st1{clip-path:url(#SVGID_00000122702475767742478840000005649393415075564987_);fill:#FFFFFF;}
</style>
<g>
	<defs>
		<rect id="SVGID_1_" width="1554.7" height="786.4"/>
	</defs>
	<clipPath id="SVGID_00000114051963690054402290000011116108174363196055_">
		<use xlink:href="#SVGID_1_"  style="overflow:visible;"/>
	</clipPath>
	<path style="clip-path:url(#SVGID_00000114051963690054402290000011116108174363196055_);fill:#D8BF9E;" d="M479.7,720.4l1,49.6
		c0.1,3.9-3,7.1-6.9,7.1L8.1,786.4c-3.9,0.1-7.1-3-7.1-6.9l-1-48.6c-0.1-3.9,3-7.1,6.9-7.1l466.7-9.2
		C476.9,714.5,479.7,717.1,479.7,720.4"/>
	<path style="clip-path:url(#SVGID_00000114051963690054402290000011116108174363196055_);fill:#D8BF9E;" d="M796.2,726.3l-2,49.6
		c-0.2,3.9-3.4,6.9-7.3,6.7l-273-11.3c-3.9-0.2-6.9-3.4-6.7-7.3l2-48.6c0.2-3.9,3.4-6.9,7.3-6.7l274,11.3
		C793.7,720.2,796.3,723,796.2,726.3"/>
	<path style="clip-path:url(#SVGID_00000114051963690054402290000011116108174363196055_);fill:#D8BF9E;" d="M1352.1,715.1l1.6,49.6
		c0.1,3.9-2.9,7.1-6.8,7.2l-300.8,9.8c-3.9,0.1-7.1-2.9-7.2-6.8l-1.6-48.6c-0.1-3.9,2.9-7.1,6.8-7.2l301.8-9.8
		C1349.2,709.1,1351.9,711.7,1352.1,715.1"/>
	<path style="clip-path:url(#SVGID_00000114051963690054402290000011116108174363196055_);fill:#D8BF9E;" d="M1163.2,651.2
		l-2.6,49.6c-0.2,3.9-3.5,6.8-7.4,6.6l-102.9-5.3c-3.9-0.2-6.8-3.5-6.6-7.4l2.5-48.6c0.2-3.9,3.5-6.8,7.4-6.6l103.9,5.4
		C1160.8,645.1,1163.4,647.9,1163.2,651.2"/>
	<path style="clip-path:url(#SVGID_00000114051963690054402290000011116108174363196055_);fill:#D8BF9E;" d="M1552,642.9l1.6,49.6
		c0.1,3.9-2.9,7.1-6.8,7.2l-166.8,5.4c-3.9,0.1-7.1-2.9-7.2-6.8l-1.6-48.6c-0.1-3.9,2.9-7.1,6.8-7.2l167.8-5.5
		C1549.1,637,1551.9,639.6,1552,642.9"/>
	<path style="clip-path:url(#SVGID_00000114051963690054402290000011116108174363196055_);fill:#D8BF9E;" d="M1554.7,729.5
		l-2.6,49.6c-0.2,3.9-3.5,6.8-7.4,6.6l-166.7-8.7c-3.9-0.2-6.8-3.5-6.6-7.4l2.5-48.6c0.2-3.9,3.5-6.8,7.4-6.6l167.7,8.7
		C1552.3,723.4,1554.9,726.2,1554.7,729.5"/>
	<path style="clip-path:url(#SVGID_00000114051963690054402290000011116108174363196055_);fill:#D8BF9E;" d="M499,653.2v40.6
		c0,3.9-3.1,7-7,7H272c-3.9,0-7-3.1-7-7v-39.6c0-3.9,3.1-7,7-7h221C496.3,647.2,499,649.8,499,653.2"/>
	<polygon style="clip-path:url(#SVGID_00000114051963690054402290000011116108174363196055_);fill:#FFFFFF;" points="39,482.6 
		109.5,482.6 109.5,549.2 165.9,482.6 247.8,482.6 168,572.9 253.8,695.7 168,695.7 123,624.2 109.5,633.2 109.5,695.7 39,695.7 	
		"/>
	<polygon style="clip-path:url(#SVGID_00000114051963690054402290000011116108174363196055_);fill:#FFFFFF;" points="275.8,425.5 
		340.2,421.8 396.4,495.2 415.6,521.4 413.1,488.5 409,417.8 473.4,414.1 485.8,626.8 421.4,630.5 365.1,557.1 345.9,530.9 
		348.4,563.8 352.5,634.5 288.1,638.2 	"/>
	<path style="clip-path:url(#SVGID_00000114051963690054402290000011116108174363196055_);fill:#D8BF9E;" d="M887.2,625.6h46.5
		c3.9,0,7,3.1,7,7v135.5c0,3.9-3.1,7-7,7h-45.5c-3.9,0-7-3.1-7-7V631.6C881.2,628.3,883.8,625.6,887.2,625.6"/>
	<path style="clip-path:url(#SVGID_00000114051963690054402290000011116108174363196055_);fill:#D8BF9E;" d="M987.5,614.9l45.4,10
		c3.8,0.8,6.2,4.6,5.3,8.3l-31.9,144.5c-0.8,3.8-4.6,6.2-8.3,5.3l-44.4-9.8c-3.8-0.8-6.2-4.6-5.3-8.3l32.2-145.4
		C981.1,616.3,984.3,614.2,987.5,614.9"/>
	<path style="clip-path:url(#SVGID_00000114051963690054402290000011116108174363196055_);fill:#D8BF9E;" d="M814.1,616.7l46.4-2.7
		c3.9-0.2,7.2,2.7,7.4,6.6l8.5,147.7c0.2,3.9-2.7,7.2-6.6,7.4l-45.4,2.6c-3.9,0.2-7.2-2.7-7.4-6.6l-8.6-148.7
		C808.3,619.7,810.8,616.9,814.1,616.7"/>
	<polygon style="clip-path:url(#SVGID_00000114051963690054402290000011116108174363196055_);fill:#FFFFFF;" points="812.8,381.6 
		877.3,381.6 929.2,458.1 946.9,485.4 946.3,452.4 946.3,381.6 1010.8,381.6 1010.8,594.7 946.3,594.7 894.4,518.1 876.7,490.8 
		877.3,523.8 877.3,594.7 812.8,594.7 	"/>
	
		<rect x="517.8" y="483.6" style="clip-path:url(#SVGID_00000114051963690054402290000011116108174363196055_);fill:#FFFFFF;" width="70.5" height="213"/>
	
		<rect x="1056.8" y="417.6" style="clip-path:url(#SVGID_00000114051963690054402290000011116108174363196055_);fill:#FFFFFF;" width="70.5" height="213"/>
	<path style="clip-path:url(#SVGID_00000114051963690054402290000011116108174363196055_);fill:#FFFFFF;" d="M606.5,632.2l69.1-76.8
		l23.1-22.4l-81.2-8.3l8.3-51.9l161.8,16.6l-5.4,52.2l-69.1,76.8L690,640.8l81.2,8.3l-8.3,51.9l-161.8-16.6L606.5,632.2z
		 M641.3,404.2l51,2.2l18.6,27.2l23.5-22.9l49.2,8.1l-43.2,50.5l-67.4-6.9L641.3,404.2z"/>
	<path style="clip-path:url(#SVGID_00000114051963690054402290000011116108174363196055_);fill:#FFFFFF;" d="M1256.8,474.5
		c23.2-2.9,45.6-0.2,72.4,10.9l5.7,70.3l-58.2,18.1l-7.9-48.9c-1.5-0.1-3.3,0.1-4.8,0.3c-24.4,3-36.5,27.2-32,63.2
		c5.3,42.3,24.8,53.4,49.8,50.3c17-2.1,36.8-10.6,56.4-20.3l16.6,48.1c-22.7,14.3-48.5,23.6-73.2,26.7
		c-58.3,7.3-113.1-19.5-122.6-95.7C1151.2,534.2,1191,482.7,1256.8,474.5"/>
	<polygon style="clip-path:url(#SVGID_00000114051963690054402290000011116108174363196055_);fill:#FFFFFF;" points="1380,410.6 
		1544.7,410.6 1541.7,463.1 1450.5,463.1 1450.5,493.4 1525.5,488.9 1525.5,544.4 1450.5,539.9 1450.5,571.1 1547.7,571.1 
		1544.7,623.7 1380,623.7 	"/>
	<path style="clip-path:url(#SVGID_00000114051963690054402290000011116108174363196055_);fill:#FFFFFF;" d="M524.8,85.2
		c5.9,0,12.9-0.4,21.1-1.3c8.1-0.9,15.8-2.3,23.2-4.2c7.3-1.9,13.6-4.5,18.8-7.8c5.1-3.2,7.7-7.1,7.7-11.7c0-3.9-1.4-6.8-4.3-8.5
		c-2.9-1.8-6-2.6-9.5-2.6c-2.9,0-5.8,0.4-8.9,1.3c-3.1,0.9-6.3,1.9-9.5,3c-3.3,1.1-6.6,2.1-9.9,3c-3.3,0.9-6.6,1.3-9.9,1.3
		c-14.3,0-28.2-1.4-41.9-4.3c-13.7-2.9-27.2-6.4-40.5-10.6c-13.3-4.2-26.4-8.8-39.5-13.9c-13.1-5.1-26.2-9.7-39.5-13.9
		c-13.3-4.2-26.7-7.7-40.3-10.6C328.3,1.4,314.3,0,300.1,0c-12.7,0-25,2.2-36.7,6.6c-11.7,4.4-22,10.5-30.9,18.3
		c-8.9,7.8-16,17.1-21.4,28c-5.4,10.9-8.1,22.6-8.1,35.4c0,8.6,1.4,17.1,4.1,25.5c2.7,8.4,6.7,16.1,12,23
		c5.3,6.9,11.6,12.5,19.1,16.8c7.5,4.3,15.9,6.4,25.3,6.4c3.5,0,7.8-0.6,13-1.8c5.1-1.2,10.1-2.9,15-5.1c4.8-2.2,8.9-4.9,12.3-8.1
		c3.4-3.2,5.1-6.7,5.1-10.7c0-2.4-0.5-4.9-1.5-7.6c-1-2.6-2.2-5.1-3.6-7.4c-1.4-2.3-2.9-4.2-4.4-5.8c-1.5-1.5-3-2.3-4.3-2.3
		c-2.4,0-4.5,1-6.3,3.1c-1.8,2.1-3.7,4.4-5.9,6.9c-2.2,2.5-4.8,4.8-7.7,6.9c-3,2.1-6.9,3.1-11.7,3.1c-6.4,0-12.1-1.2-17.1-3.6
		c-5-2.4-9.3-5.6-12.7-9.7c-3.4-4.1-6-8.9-7.9-14.5c-1.9-5.6-2.8-11.7-2.8-18.3c0-9.2,1.8-16.8,5.4-22.7c3.6-5.9,8.3-10.7,14-14.3
		c5.7-3.6,12.2-6.1,19.4-7.6c7.2-1.4,14.5-2.1,21.7-2.1c10.3,0,19.7,0.6,28.1,1.6c8.4,1.1,16.3,2.5,23.5,4.3
		c7.2,1.8,14,3.6,20.4,5.6c6.4,2,12.6,3.7,18.8,5.3l11.2,4.6c-3.1,4.2-6.8,9-11.2,14.6c-4.4,5.6-7.5,11-9.2,16.3
		c-3.7,11.6-6,24-6.7,37.2c-0.8,13.2-1.2,25.6-1.2,37.2c0,2.2,0.1,5.7,0.2,10.5c0.1,4.8,0.3,10.4,0.7,16.6s0.7,12.7,1,19.4
		c0.3,6.7,0.7,13.2,1.2,19.4c0.4,6.3,0.9,11.8,1.3,16.6c0.4,4.8,0.9,8.3,1.3,10.5c-0.7,5.3-1.6,9.7-2.8,13.2
		c-1.2,3.5-2.8,6.7-4.8,9.5c-2,2.9-4.4,5.7-7.4,8.6c-3,2.9-6.5,6.1-10.7,9.9v2.3c0,1.5,0.5,2.9,1.5,3.9c1,1.1,2.1,2,3.5,2.6
		c1.3,0.7,2.7,1.2,4.1,1.5c1.4,0.3,2.5,0.5,3.1,0.5c8.3,0,16.5-2.3,24.3-6.9c7.9-4.6,14.9-10.3,21.1-16.9c6.1-6.7,11-13.8,14.5-21.4
		c3.5-7.6,5.2-14.3,4.9-20.2c-0.9-18.2-1.6-34.3-2.3-48.2c-0.7-13.9-1.3-26.5-1.8-37.7c-0.6-11.2-0.9-21.4-1.2-30.8
		c-0.2-9.3-0.3-18.5-0.3-27.5c0-1.1,0.2-3.5,0.5-7.2c0.3-3.7,0.8-7.5,1.3-11.3c0.5-3.8,1.2-7.2,2-10.2c0.8-3,1.5-4.2,2.1-3.8
		c18.4,4.8,36.8,8.9,55.1,12.2C488,83.6,506.4,85.2,524.8,85.2"/>
	<path style="clip-path:url(#SVGID_00000114051963690054402290000011116108174363196055_);fill:#FFFFFF;" d="M620.2,128.6
		c4.4,0,8-0.7,10.9-2.1c2.8-1.4,5.1-3.3,6.7-5.6c1.6-2.3,2.8-4.9,3.5-7.7c0.7-2.8,0.9-5.7,0.7-8.6c-0.4-9-2.4-15.3-5.9-19.1
		c-3.5-3.7-8.1-5.6-13.8-5.6c-9.2,0-15.4,2.5-18.6,7.4c-3.2,4.9-4.8,11.1-4.8,18.6c0,6.8,1.6,12.3,4.9,16.5
		C607,126.6,612.5,128.6,620.2,128.6"/>
	<path style="clip-path:url(#SVGID_00000114051963690054402290000011116108174363196055_);fill:#FFFFFF;" d="M1300.9,242.8
		c-4.8,3.7-10.2,8.3-16.1,13.8c-5.9,5.5-11.9,10.7-17.9,15.8c-6,5-11.9,9.4-17.6,13c-5.7,3.6-10.6,5.4-14.8,5.4
		c-13.4,0-22.8-4.8-28.3-14.5c-5.5-9.7-8.2-22.6-8.2-38.6c0-7.3,0.5-15,1.6-23.1c1.1-8.1,2.8-15.7,5.1-22.7c2.3-7,5.2-12.9,8.7-17.8
		c3.5-4.8,7.6-7.6,12.2-8.2c3.5,0.4,6.5,1.4,8.9,3c2.4,1.5,4.3,3.5,5.8,5.8c1.4,2.3,2.5,4.8,3.1,7.4c0.7,2.6,1,5.2,1,7.6
		c0,5-0.7,9.3-2.1,12.8c-1.4,3.5-4,5.3-7.7,5.3c-4.4,0-9.7-2.6-15.8-7.9c-0.2-0.2-0.7-0.3-1.3-0.3c-1.8,0-3.2,1-4.4,3.1
		c-1.2,2.1-1.8,4.2-1.8,6.4c0,2,0.7,3.4,2,4.3c2.2,1.5,4.8,3.4,7.9,5.6c3.1,2.2,6.3,4.3,9.7,6.4c3.4,2.1,7,3.9,10.9,5.4
		c3.8,1.5,7.6,2.3,11.4,2.3c2.2,0,4.4-1.1,6.6-3.3c2.2-2.2,4.2-4.9,6.1-8.2c1.9-3.3,3.3-6.9,4.4-10.7c1.1-3.8,1.6-7.3,1.6-10.4
		c0-5.9-0.9-11.9-2.8-17.9c-1.9-6-4.5-11.6-7.9-16.6c-3.4-5-7.6-9.2-12.5-12.3c-4.9-3.2-10.5-4.8-16.6-4.8
		c-14.5,0-26.6,2.6-36.4,7.9c-9.8,5.3-17.6,12-23.5,20.1c-5.9,8.1-10.2,17.1-12.8,27c-2.6,9.9-3.9,19.4-3.9,28.6v3.3
		c0,7.3,0.4,14.4,1.2,21.3c-0.8,0.6-1.7,1.2-2.7,1.9c-3.6,2.7-7.4,5.5-11.2,8.4c-3.8,2.9-7.4,5.4-10.7,7.7s-5.6,3.5-6.9,3.5
		c-0.4,0-0.7-0.5-0.7-1.6c0-5.3,0.2-12.3,0.5-21.1c0.3-8.8,0.8-17.8,1.3-27.1c0.5-9.3,1-18.3,1.3-26.8s0.5-15.2,0.5-20.1
		c0-4.2-0.7-8.3-2-12.3c-1.3-4.1-3.2-7.6-5.6-10.7c-2.4-3.1-5.4-5.5-8.9-7.4c-3.5-1.9-7.6-2.8-12.2-2.8c-6.6,0-12,0.7-16.1,2
		c-4.2,1.3-7.7,3.1-10.7,5.4c-3,2.3-5.5,5-7.6,8.2c-2.1,3.2-4.1,6.5-6.1,10l-2.6,4.6c0-3.5,0.1-6.9,0.2-10c0.1-3.2,0.2-6.3,0.2-9.4
		c0.2-3.7-1.9-6.6-6.3-8.6c-4.4-2-9.3-3-14.8-3c-5,0-9.8,0.9-14.1,2.8c-4.4,1.9-6.6,4.8-6.6,8.7c0,11.2,0.1,20.3,0.2,27.5
		c0.1,7.1,0.2,12.9,0.2,17.3v51c-1.6,1-3.4,2.3-5.6,4c-3.7,2.9-7.6,5.8-11.5,8.7c-3.9,3-7.6,5.7-11,8.1c-3.4,2.4-5.8,3.6-7.1,3.6
		c-0.2,0-0.3-0.3-0.3-1c0-1.1,0.2-2.5,0.7-4.1c0.4-1.6,0.7-2.9,0.7-3.8c0.2-4.8,0.5-11.4,0.8-19.7c0.3-8.3,0.7-16.9,1-25.8
		c0.3-8.9,0.6-17.3,0.8-25.2c0.2-7.9,0.3-13.9,0.3-18.1c0-4.2-0.7-8.3-2-12.3c-1.3-4.1-3.2-7.6-5.6-10.7c-2.4-3.1-5.4-5.5-8.9-7.4
		c-3.5-1.9-7.6-2.8-12.2-2.8c-3.9,0-7.4,0.7-10.2,2c-2.9,1.3-5.4,3.1-7.7,5.4c-2.3,2.3-4.4,5-6.4,8.2c-2,3.2-4.1,6.5-6.3,10
		l-4.3,6.9c0-4.2-0.4-8.2-1.3-12.2c-0.9-3.9-2.2-7.4-3.9-10.4c-1.8-3-4.2-5.4-7.2-7.2c-3.1-1.9-6.8-2.8-11.2-2.8
		c-3.9,0-7.4,0.7-10.4,2c-3,1.3-5.6,3.1-7.9,5.4c-2.3,2.3-4.4,5-6.4,8.2c-2,3.2-3.9,6.5-5.9,10l-2.6,4.6c0-3.5,0.1-6.9,0.2-10
		c0.1-3.2,0.2-6.3,0.2-9.4c0-1.8-0.7-3.3-2-4.8c-1.3-1.4-3-2.6-5.1-3.6c-2.1-1-4.5-1.8-7.2-2.3c-2.7-0.5-5.4-0.8-8.1-0.8
		c-5,0-9.5,0.9-13.5,2.8c-3.9,1.9-5.9,4.8-5.9,8.7c0,11.2,0.1,20.3,0.2,27.5c0.1,7.1,0.2,12.9,0.2,17.3h0.3v37.7
		c-2.7,2.1-5.6,4.1-8.5,6.2c-4.2,3-8,5.7-11.5,8.1c-3.5,2.4-5.9,3.6-7.2,3.6c-0.2,0-0.3-0.2-0.3-0.7c0.7-3.3,1.3-7,1.8-11.2
		c0.5-4.2,1-8.2,1.5-12.2c0.4-3.9,0.8-7.7,1-11.2c0.2-3.5,0.3-6.5,0.3-8.9c0-11.2-1.6-21-4.8-29.4c-3.2-8.4-7.4-15.5-12.5-21.1
		c-5.2-5.6-11-9.8-17.4-12.5c-6.5-2.7-13-4.1-19.6-4.1c-16,0-29.1,3.1-39.3,9.4c-10.2,6.3-18.2,14-24,23.2c-5.8,9.2-9.8,19-12,29.3
		c-2.2,10.3-3.3,19.5-3.3,27.6c0,6.2,0.8,12.4,2.5,18.7c-0.9,0.6-1.9,1.3-3,2.1c-3.6,2.6-7.4,5.4-11.2,8.2
		c-3.8,2.9-7.4,5.4-10.7,7.6c-3.3,2.2-5.6,3.3-6.9,3.3c-0.4,0-0.7-0.4-0.7-1.3c0.4-9.6,0.8-19.9,1.2-30.8c0.3-10.9,0.7-21.6,1-32.2
		c0.3-10.6,0.6-20.8,0.8-30.4c0.2-9.6,0.4-18.1,0.7-25.3c-0.2-3.1-2.6-5.3-7.2-6.7c-4.6-1.4-9.8-2.1-15.5-2.1
		c-5.3,0-10,0.7-14.3,2.1c-4.3,1.4-6.4,3.7-6.4,6.7v30.1c0,8.4,0.1,15.9,0.2,22.4c0.1,6.5,0.2,12.3,0.3,17.4
		c0.1,5.2,0.2,10.3,0.3,15.3c0.1,4,0.1,8.2,0.2,12.5c-1.4,0.9-3,2-4.8,3.3c-3.6,2.6-7.4,5.4-11.2,8.2c-3.8,2.9-7.4,5.4-10.7,7.6
		c-3.3,2.2-5.6,3.3-6.9,3.3c-0.4,0-0.7-0.4-0.7-1.3c1.1-22.8,2-43.6,2.6-62.3c0.7-18.8,1.2-36.5,1.6-53.1c0-2.6-0.8-4.6-2.3-5.9
		c-1.5-1.3-3.5-2.3-5.8-3c-2.3-0.7-4.7-1-7.2-1.2c-2.5-0.1-4.6-0.2-6.1-0.2c-2.9,0-5.3,0.3-7.2,1c-2,0.7-3.7,1.4-5.3,2.1
		c-1.5,0.8-3.1,1.5-4.6,2.1c-1.5,0.7-3.3,1-5.3,1c-13.8,0.2-25.7,2.9-35.5,8.1c-9.9,5.2-18,12.1-24.5,20.9
		c-6.5,8.8-11.2,19.1-14.3,30.9c-3.1,11.8-4.6,24.7-4.6,38.5c0,5,1,10.6,3.1,16.6c2.1,6,5.2,11.7,9.2,16.9
		c4.1,5.3,9.2,9.7,15.3,13.2c6.1,3.5,13.3,5.3,21.4,5.3c6.6,0,12.5-1.4,17.8-4.1c5.3-2.7,9.5-6,12.8-9.7c1.1,3.1,3.1,6.4,6.1,9.9
		c3,3.5,6.5,5.3,10.7,5.3c6.4,0,12.7-1.7,19.1-5.1c6.4-3.4,12.4-7.5,18.3-12.3c5.8-4.8,11.2-9.8,16.3-14.8c0.9-0.9,1.8-1.8,2.6-2.6
		v3.6v6.9c0,2.4,0.2,4.8,0.7,7.2c0,10.1-0.4,19.1-1.2,27.1c-0.8,8-2.9,14.8-6.3,20.4c-3.4,5.6-8.6,9.9-15.5,12.8s-16.5,4.4-28.8,4.4
		c-2.4,0-3.6,1.1-3.6,3.3c0,1.3,0.6,2.9,1.8,4.8c1.2,1.9,2.7,3.6,4.4,5.3c1.8,1.6,3.8,3,6.1,4.1c2.3,1.1,4.7,1.6,7.1,1.6
		c10.5,0,20-2,28.3-6.1c8.3-4.1,15.6-9.4,21.7-16.1c6.1-6.7,11.2-14.5,15.1-23.4c3.9-8.9,6.7-18.2,8.2-27.8c0.7-2,2.8-4.6,6.6-7.9
		c3.7-3.3,8-6.8,12.8-10.5c4.8-3.7,9.7-7.3,14.6-10.7c1.4-0.9,2.7-1.9,3.9-2.7c2.5,5.4,5.5,10.4,9.1,15.1
		c5.3,6.8,11.6,12.3,18.9,16.6c7.3,4.3,15.4,6.4,24.2,6.4c9.9,0,20.2-2,30.9-6.1c10.7-4.1,21.2-9.2,31.4-15.5
		c10.2-6.3,19.8-13.2,29-20.7c1.7-1.4,3.4-2.9,5.1-4.3v41c0,1.3,0.7,2.4,2,3.1c1.3,0.8,2.8,1.3,4.6,1.6c1.8,0.3,3.5,0.5,5.3,0.7
		c1.8,0.1,3.1,0.2,3.9,0.2h4.6c2.2,0,4.5-0.1,6.9-0.3c2.4-0.2,4.5-0.5,6.4-1c1.9-0.4,2.8-1.1,2.8-2l0.3-4.3v-26
		c0-11.2,0.2-22.2,0.5-32.9c0.3-10.7,1.2-20.4,2.5-29c1.3-8.6,3.3-15.5,6.1-20.7c2.7-5.3,6.5-7.9,11.4-7.9c0.7,0,1.2,0.5,1.5,1.5
		c0.3,1,0.5,3.1,0.5,6.4V213c0,5.8-0.1,12.4-0.2,19.7c-0.1,7.4-0.2,16.4-0.3,27.1c-0.1,10.7-0.2,25-0.2,42.8c0,1.3,0.7,2.4,2,3.1
		c1.3,0.8,2.8,1.3,4.6,1.6c1.8,0.3,3.5,0.5,5.3,0.7c1.8,0.1,3.1,0.2,3.9,0.2h4.6c2.2,0,4.5-0.1,6.9-0.3c2.4-0.2,4.5-0.5,6.4-1
		c1.9-0.4,2.8-1.1,2.8-2l0.3-4.3v-26c0-11.2,0.2-22.2,0.5-32.9c0.3-10.7,1.2-20.4,2.5-29c1.3-8.6,3.3-15.5,6.1-20.7
		c2.7-5.3,6.5-7.9,11.4-7.9c0.7,0,1.2,0.5,1.5,1.5c0.3,1,0.5,3.1,0.5,6.4c0,2.6-0.1,6.2-0.3,10.7c-0.2,4.5-0.5,10.3-0.8,17.3
		c-0.3,7-0.6,15.5-0.8,25.3c-0.2,9.9-0.3,21.5-0.3,34.9c0,3.1,0.3,6.3,1,9.5c0.7,3.3,1.8,6.4,3.3,9.2c1.5,2.9,3.6,5.2,6.1,6.9
		c2.5,1.8,5.8,2.6,9.7,2.6c6.4,0,12.7-1.7,19.1-5.1c6.4-3.4,12.4-7.5,18.3-12.3c5.8-4.8,11.2-9.8,16.3-14.8c1.1-1.1,2.2-2.2,3.3-3.2
		v30.5c0,1.3,0.7,2.4,2,3.1c1.3,0.8,2.9,1.3,4.8,1.6c1.9,0.3,3.7,0.5,5.4,0.7c1.8,0.1,3.1,0.2,3.9,0.2h4.6c2.2,0,4.5-0.1,6.9-0.3
		c2.4-0.2,4.6-0.5,6.4-1c1.9-0.4,2.8-1.1,2.8-2l0.3-4.3c0.9-12.5,1.7-25.7,2.5-39.5c0.8-13.8,2-26.5,3.6-38
		c1.6-11.5,4.1-21.1,7.2-28.6c3.2-7.6,7.7-11.4,13.7-11.4c1.8,0,3.2,1.8,4.4,5.4c1.2,3.6,1.7,8.2,1.5,13.7l-1.6,75.7
		c-0.4,3.3-0.4,6.7,0,10.2c0.4,3.5,1.4,6.7,3,9.5c1.5,2.9,3.6,5.2,6.1,7.1c2.5,1.9,5.8,2.8,9.7,2.8c6.4,0,12.7-1.7,19.1-5.1
		c6.4-3.4,12.4-7.5,18.3-12.3c5.8-4.8,11.2-9.8,16.3-14.8c1.2-1.2,2.3-2.3,3.4-3.3c1.6,6.1,3.9,11.6,6.8,16.6
		c4.2,7.1,10,12.8,17.6,16.9s17.5,6.3,29.8,6.3c5.3,0,10.5-0.7,15.8-1.9c5.3-1.3,10.3-3,15-5c4.7-2.1,9-4.3,12.8-6.8
		c3.8-2.5,7-4.9,9.4-7.3c2.8-2.4,6.3-5.4,10.4-9c4.1-3.6,8.1-7.3,12-11.2c3.9-3.8,7.7-7.3,11.2-10.5c3.5-3.2,6.3-5.6,8.2-7.4
		L1300.9,242.8z M523.8,237.9v39.5c-0.7,2.4-1.4,4.3-2.3,5.6c-0.9,1.3-2.5,2-4.9,2c-5.9,0-10.6-2-14-6.1c-3.4-4.1-6-9-7.9-15
		c-1.9-5.9-3-12.2-3.5-18.9c-0.4-6.7-0.7-12.7-0.7-17.9c0-6.1,0.1-12.4,0.3-18.8c0.2-6.4,1-12.2,2.5-17.4c1.4-5.3,3.6-9.5,6.6-12.8
		c3-3.3,7.3-4.9,13-4.9c1.8,0,3.9,0.2,6.6,0.5c2.6,0.3,3.9,1.4,3.9,3.1c0.2,16.4,0.3,29.2,0.3,38.3V237.9z M755.1,257
		c-0.2,5.2-0.9,10.1-2.1,14.8c-1.2,4.7-3.1,8.8-5.6,12.2c-2.5,3.4-6.2,5.1-11,5.1c-6.4,0-11.2-2.6-14.6-7.9
		c-3.4-5.3-5.9-11.4-7.4-18.3c-1.5-6.9-2.5-13.9-2.8-20.9c-0.3-7-0.5-12.3-0.5-15.8v-11.9c0-4.2,0.2-8.8,0.7-13.9
		c0.4-5.1,1.4-9.8,2.8-14.3c1.4-4.5,3.6-8.2,6.6-11.2c3-3,7-4.5,12-4.5c3.7,0,6.9,1.5,9.4,4.5c2.5,3,4.6,6.7,6.3,11.2
		c1.6,4.5,3,9.6,3.9,15.3c1,5.7,1.6,11.3,2,16.7c0.3,5.4,0.5,10.4,0.7,15.2c0.1,4.7,0.2,8.4,0.2,11.1
		C755.4,247.6,755.3,251.9,755.1,257"/>
	<path style="clip-path:url(#SVGID_00000114051963690054402290000011116108174363196055_);fill:#FFFFFF;" d="M1216,133.6
		c1.8,0.4,3.1,0.7,3.9,0.7c1.8,0,3.2-0.5,4.3-1.6l28.3-45.7c0.4-1.8,0.7-3,0.7-3.6c0-2-0.6-3.5-1.6-4.6c-1.1-1.1-2.4-1.9-3.9-2.3
		c-0.9-0.4-2.2-0.7-3.9-0.7c-1.8,0-3.5,0.4-5.3,1.3l-28.6,43.8c-0.2,0.7-0.4,1.3-0.5,1.8c-0.1,0.5-0.2,1.2-0.2,1.8
		c0,2.4,0.7,4.4,2.1,5.9C1212.7,131.8,1214.2,132.9,1216,133.6"/>
</g>
</svg>
